<svg id="Grupo_1072448" data-name="Grupo 1072448" xmlns="http://www.w3.org/2000/svg" xmlns:xlink="http://www.w3.org/1999/xlink" width="190.001" height="171.241" viewBox="0 0 190.001 171.241">
  <defs>
    <clipPath id="clip-path">
      <rect id="Rectángulo_377827" data-name="Rectángulo 377827" width="190.001" height="171.241" fill="none"/>
    </clipPath>
  </defs>
  <g id="Grupo_1072447" data-name="Grupo 1072447" clip-path="url(#clip-path)">
    <g id="Grupo_1072430" data-name="Grupo 1072430">
      <g id="Grupo_1072429" data-name="Grupo 1072429" clip-path="url(#clip-path)">
        <path id="Trazado_609613" data-name="Trazado 609613" d="M131.618,12.462S100.384.192,70.513,17.51s-44.22,52.948-56.6,81.465S9.9,157.082,33.431,171.124s38.762-5.267,71.247-5.322,41.359,5.01,67.824-13.292,30.134-63.163,7.959-97.051-48.843-43-48.843-43" transform="translate(-4.981 -4.999)" fill="#e1fbff"/>
      </g>
    </g>
    <g id="Grupo_1072432" data-name="Grupo 1072432">
      <g id="Grupo_1072431" data-name="Grupo 1072431" clip-path="url(#clip-path)">
        <line id="Línea_995" data-name="Línea 995" x2="187.793" transform="translate(0 168.426)" fill="none" stroke="#263238" stroke-miterlimit="10" stroke-width="1"/>
      </g>
    </g>
    <g id="Grupo_1072434" data-name="Grupo 1072434">
      <g id="Grupo_1072433" data-name="Grupo 1072433" clip-path="url(#clip-path)">
        <path id="Trazado_609615" data-name="Trazado 609615" d="M417.838,375.294a9,9,0,0,0,2.547-.124c.019,0-.5-1.064-.54-1.127-.473-.728-1.847-1.836-2.842-1.548a1.232,1.232,0,0,0-.818,1.6,2.319,2.319,0,0,0,1.654,1.2" transform="translate(-252.304 -225.83)" fill="#263238"/>
        <path id="Trazado_609616" data-name="Trazado 609616" d="M429.982,383.653c.011.038.021.074.032.112l.7.152c-.047-.151-.095-.3-.146-.463-.142-.447-.3-.922-.473-1.407a14.5,14.5,0,0,0,1.328-.846,8.4,8.4,0,0,0,2.158.942c-.138.457-.276.9-.413,1.319-.094.288-.187.563-.278.828l.676-.105c.059-.19.12-.383.181-.584.142-.465.284-.963.425-1.475a8.665,8.665,0,0,0,2.508-.2,2.733,2.733,0,0,0,1.645-1.407,1.1,1.1,0,0,0-.829-1.5c-1-.162-2.362,1.12-2.829,1.907-.028.046-.271.579-.419.917.057-.209.114-.413.169-.629.113-.427.212-.856.321-1.317l.135-.679c.05-.226.073-.469.111-.706.077-.55.127-1.109.165-1.673a8.081,8.081,0,0,0,2.415.155,2.744,2.744,0,0,0,1.831-1.162,1.105,1.105,0,0,0-.577-1.616c-.951-.308-2.488.771-3.069,1.487-.037.044-.4.6-.589.909.02-.339.042-.677.051-1.02.026-.99.02-1.99.019-2.988,0-.306,0-.611,0-.916a8.515,8.515,0,0,0,2.5.17,2.744,2.744,0,0,0,1.831-1.162,1.105,1.105,0,0,0-.577-1.616c-.951-.308-2.488.771-3.069,1.487-.044.054-.561.855-.683,1.064,0-.672.016-1.342.055-2a20.481,20.481,0,0,1,.321-2.675,8.64,8.64,0,0,0,2.513.174,2.745,2.745,0,0,0,1.831-1.162,1.105,1.105,0,0,0-.578-1.616c-.951-.308-2.488.771-3.069,1.487-.045.056-.6.918-.691,1.08.01-.051.015-.105.025-.157a15.5,15.5,0,0,1,.814-2.61c.187-.471.392-.913.6-1.34a8.072,8.072,0,0,0,2.406.425,2.742,2.742,0,0,0,1.939-.968,1.115,1.115,0,0,0-.386-1.678c-.9-.409-2.544.506-3.2,1.161-.036.035-.359.434-.59.728.1-.191.194-.39.291-.572.363-.683.737-1.288,1.072-1.823.193-.3.374-.573.546-.824a8.685,8.685,0,0,0,2.394-.709,2.672,2.672,0,0,0,1.315-1.7,1.105,1.105,0,0,0-1.154-1.269c-1.023.052-2.089,1.572-2.377,2.428-.025.074-.28,1.265-.261,1.262l.021,0c-.17.239-.35.5-.54.782-.348.529-.737,1.129-1.115,1.808A22.112,22.112,0,0,0,436.3,364.1a15.772,15.772,0,0,0-.882,2.63c0,.01,0,.022-.006.032-.024-.287-.12-1.087-.134-1.147-.206-.848-1.127-2.339-2.147-2.361a1.279,1.279,0,0,0-1.277,1.3A2.258,2.258,0,0,0,433,366.223a8.224,8.224,0,0,0,2.386.648,20.517,20.517,0,0,0-.4,2.762c-.043.539-.07,1.081-.089,1.625-.029-.248-.057-.468-.065-.5-.206-.848-1.127-2.339-2.147-2.361a1.279,1.279,0,0,0-1.278,1.3,2.258,2.258,0,0,0,1.153,1.662,7.825,7.825,0,0,0,2.315.637c-.005.209-.013.417-.017.626-.021,1-.038,2-.085,2.98-.017.346-.046.686-.074,1.027-.026-.22-.05-.4-.057-.432-.206-.848-1.127-2.339-2.146-2.361a1.279,1.279,0,0,0-1.278,1.3,2.258,2.258,0,0,0,1.153,1.662,7.524,7.524,0,0,0,2.249.627c-.04.349-.079.7-.133,1.035-.042.23-.067.453-.123.682s-.1.453-.15.677c-.112.428-.224.87-.343,1.285-.081.289-.163.564-.245.84.021-.344.046-1.018.042-1.074a4.194,4.194,0,0,0-.852-2.089,1.31,1.31,0,0,0-.043-.254,1.15,1.15,0,0,0-1.574-.753c-.958.4-1.411,2.161-1.368,3.041,0,.052.1.608.16.958-.071-.2-.137-.391-.212-.594-.146-.4-.3-.8-.473-1.225l-.27-.615c-.086-.207-.2-.414-.306-.624-.247-.481-.522-.955-.811-1.427a8.67,8.67,0,0,0,2.186-1.169,2.585,2.585,0,0,0,.926-1.909,1.126,1.126,0,0,0-1.423-.983c-1,.263-1.721,1.949-1.816,2.833-.006.055,0,.693.008,1.042-.176-.282-.35-.564-.538-.843-.542-.805-1.118-1.6-1.689-2.4-.175-.244-.346-.49-.518-.735a9.181,9.181,0,0,0,2.267-1.2,2.584,2.584,0,0,0,.927-1.909,1.126,1.126,0,0,0-1.423-.983c-1,.263-1.721,1.949-1.817,2.833-.007.067,0,.984.015,1.216-.379-.54-.752-1.082-1.1-1.633a18.861,18.861,0,0,1-1.247-2.312,9.328,9.328,0,0,0,2.281-1.207,2.585,2.585,0,0,0,.926-1.909,1.127,1.127,0,0,0-1.423-.983c-1,.263-1.72,1.949-1.816,2.833-.007.07,0,1.056.017,1.234-.021-.046-.048-.092-.068-.139a14.038,14.038,0,0,1-.783-2.524c-.107-.477-.181-.94-.242-1.394a8.825,8.825,0,0,0,2.331-.949,2.633,2.633,0,0,0,1.132-1.812,1.114,1.114,0,0,0-1.293-1.136c-1.018.156-1.92,1.767-2.115,2.641-.011.048-.064.539-.1.9-.024-.205-.054-.416-.073-.613-.075-.74-.1-1.425-.109-2.032,0-.346,0-.659,0-.951a8.692,8.692,0,0,0,1.673-1.849,2.408,2.408,0,0,0,.173-2.062,1.189,1.189,0,0,0-1.726-.4c-.859.59-.916,2.376-.679,3.215.021.072.48,1.161.494,1.149l.017-.015c-.011.282-.02.585-.023.914,0,.609.005,1.3.064,2.043a19.65,19.65,0,0,0,.306,2.39,14.145,14.145,0,0,0,.735,2.575c0,.01.009.02.013.029-.185-.217-.724-.805-.772-.846-.663-.568-2.313-1.267-3.211-.739a1.181,1.181,0,0,0-.365,1.728,2.427,2.427,0,0,0,1.949.711,9.049,9.049,0,0,0,2.441-.759,19.054,19.054,0,0,0,1.232,2.422c.27.454.556.9.85,1.347-.167-.182-.317-.344-.341-.364-.663-.568-2.313-1.268-3.211-.739a1.18,1.18,0,0,0-.365,1.727,2.426,2.426,0,0,0,1.949.712,8.629,8.629,0,0,0,2.374-.729c.115.17.227.34.342.509.553.812,1.108,1.62,1.627,2.429.183.285.352.574.522.861-.148-.162-.274-.3-.3-.315-.663-.568-2.313-1.267-3.211-.739a1.181,1.181,0,0,0-.365,1.728,2.427,2.427,0,0,0,1.95.712,8.306,8.306,0,0,0,2.31-.7c.165.3.33.6.475.9.095.207.2.4.282.611l.256.622c.148.4.3.815.435,1.211.095.274.18.538.267.8-.178-.287-.54-.839-.576-.881-.56-.665-2.066-1.6-3.028-1.21a1.21,1.21,0,0,0-.628,1.67,2.359,2.359,0,0,0,1.8,1,8.791,8.791,0,0,0,2.5-.394c.141.439.275.869.394,1.276" transform="translate(-253.343 -215.606)" fill="#263238"/>
        <path id="Trazado_609617" data-name="Trazado 609617" d="M462.216,367.063c.017.007.208-1.192.211-1.268.036-.885-.43-2.583-1.39-2.866a1.293,1.293,0,0,0-1.568.953,2.278,2.278,0,0,0,.64,1.925,8.052,8.052,0,0,0,2.107,1.256" transform="translate(-278.566 -220.029)" fill="#263238"/>
        <path id="Trazado_609618" data-name="Trazado 609618" d="M3.668,398.115a5.154,5.154,0,0,0,1.455-.07c.011,0-.285-.608-.309-.644-.27-.415-1.055-1.048-1.623-.884a.7.7,0,0,0-.467.914,1.325,1.325,0,0,0,.945.684" transform="translate(-1.626 -240.407)" fill="#263238"/>
        <path id="Trazado_609619" data-name="Trazado 609619" d="M10.6,402.888l.019.064.4.087c-.027-.087-.054-.174-.083-.264-.081-.255-.173-.526-.27-.8a8.194,8.194,0,0,0,.758-.483,4.8,4.8,0,0,0,1.233.538c-.079.261-.157.515-.236.754q-.08.246-.158.473l.386-.06c.034-.109.068-.219.1-.333.081-.265.162-.55.243-.843a4.939,4.939,0,0,0,1.432-.115,1.56,1.56,0,0,0,.939-.8.628.628,0,0,0-.474-.855c-.57-.092-1.349.64-1.616,1.089-.016.026-.155.331-.239.524.032-.12.065-.235.1-.359.064-.244.121-.489.183-.753l.077-.387c.029-.129.042-.268.064-.4.044-.315.073-.634.094-.955a4.62,4.62,0,0,0,1.379.088,1.568,1.568,0,0,0,1.046-.663.631.631,0,0,0-.33-.923c-.543-.176-1.421.44-1.753.849-.02.026-.226.343-.336.519.011-.193.024-.387.029-.582.015-.565.011-1.137.011-1.707,0-.175,0-.349,0-.523a4.86,4.86,0,0,0,1.427.1,1.567,1.567,0,0,0,1.046-.663.631.631,0,0,0-.33-.923c-.543-.176-1.421.441-1.753.85-.025.031-.32.488-.39.607,0-.384.009-.766.031-1.145a11.592,11.592,0,0,1,.183-1.527,4.951,4.951,0,0,0,1.435.1,1.569,1.569,0,0,0,1.046-.664.632.632,0,0,0-.33-.923c-.543-.176-1.421.44-1.753.849-.026.032-.344.524-.395.617.006-.03.008-.06.015-.089a8.826,8.826,0,0,1,.465-1.491c.107-.269.224-.522.343-.765a4.616,4.616,0,0,0,1.374.242,1.565,1.565,0,0,0,1.107-.553.637.637,0,0,0-.22-.959c-.516-.233-1.453.289-1.827.663-.02.02-.2.248-.337.415.056-.109.111-.222.166-.326.207-.39.421-.736.613-1.041.111-.173.214-.327.312-.47a4.974,4.974,0,0,0,1.367-.405,1.527,1.527,0,0,0,.751-.97.631.631,0,0,0-.659-.725c-.584.03-1.193.9-1.357,1.386-.014.043-.159.723-.149.721l.012,0c-.1.137-.2.284-.309.447-.2.3-.42.645-.637,1.032a12.638,12.638,0,0,0-.639,1.279,9.027,9.027,0,0,0-.5,1.5c0,.006,0,.012,0,.018-.014-.164-.068-.621-.077-.655-.118-.484-.644-1.336-1.226-1.348a.73.73,0,0,0-.73.745,1.29,1.29,0,0,0,.659.949,4.7,4.7,0,0,0,1.363.37,11.743,11.743,0,0,0-.227,1.577c-.025.307-.04.617-.051.928-.017-.141-.033-.268-.037-.285-.118-.485-.644-1.336-1.226-1.349a.731.731,0,0,0-.73.745,1.29,1.29,0,0,0,.659.949,4.466,4.466,0,0,0,1.322.364c0,.119-.007.239-.01.357-.012.572-.022,1.142-.049,1.7-.009.2-.026.392-.042.586-.015-.125-.029-.231-.033-.246-.117-.485-.643-1.336-1.225-1.349a.73.73,0,0,0-.73.745,1.29,1.29,0,0,0,.659.949,4.3,4.3,0,0,0,1.285.358c-.023.2-.045.4-.076.591-.024.131-.039.259-.07.39l-.086.387c-.064.244-.128.5-.2.734-.046.165-.093.322-.14.48.011-.2.026-.581.024-.613a2.4,2.4,0,0,0-.487-1.193.748.748,0,0,0-.024-.145.657.657,0,0,0-.9-.43c-.547.231-.806,1.234-.781,1.737,0,.03.055.347.091.547-.04-.113-.078-.223-.121-.339-.083-.23-.174-.456-.27-.7l-.154-.351c-.049-.118-.117-.237-.175-.357-.141-.275-.3-.546-.463-.815a4.939,4.939,0,0,0,1.248-.668,1.474,1.474,0,0,0,.529-1.09.643.643,0,0,0-.813-.562c-.572.15-.983,1.113-1.038,1.618,0,.031,0,.4,0,.6-.1-.161-.2-.322-.307-.481-.31-.46-.639-.915-.965-1.371-.1-.139-.2-.28-.3-.42a5.239,5.239,0,0,0,1.295-.686,1.477,1.477,0,0,0,.529-1.09.643.643,0,0,0-.813-.561c-.572.15-.983,1.113-1.037,1.618,0,.038,0,.562.008.694-.217-.309-.429-.618-.626-.932a10.77,10.77,0,0,1-.713-1.32,5.311,5.311,0,0,0,1.3-.689,1.473,1.473,0,0,0,.529-1.09.643.643,0,0,0-.813-.561c-.572.15-.983,1.113-1.038,1.618,0,.04,0,.6.009.7-.012-.026-.027-.052-.039-.079a7.987,7.987,0,0,1-.447-1.442c-.061-.272-.1-.537-.139-.8a5.048,5.048,0,0,0,1.332-.542,1.5,1.5,0,0,0,.646-1.035.636.636,0,0,0-.739-.649c-.581.089-1.1,1.009-1.208,1.509-.006.027-.037.308-.056.513-.014-.117-.031-.237-.042-.35-.043-.423-.055-.814-.063-1.161,0-.2,0-.376,0-.543a4.949,4.949,0,0,0,.956-1.056,1.375,1.375,0,0,0,.1-1.178.679.679,0,0,0-.986-.227c-.49.337-.524,1.357-.387,1.836.012.041.274.664.282.657l.009-.008c-.007.161-.012.334-.013.522,0,.348,0,.741.036,1.167a11.313,11.313,0,0,0,.175,1.365,8.115,8.115,0,0,0,.42,1.471l.008.017c-.106-.124-.414-.46-.441-.483-.378-.324-1.321-.724-1.834-.422a.675.675,0,0,0-.208.987,1.386,1.386,0,0,0,1.113.407,5.183,5.183,0,0,0,1.394-.434A10.808,10.808,0,0,0,7,396.01c.154.259.317.515.485.77-.095-.1-.181-.2-.194-.208-.379-.324-1.321-.724-1.834-.422a.674.674,0,0,0-.209.986,1.386,1.386,0,0,0,1.114.407,4.926,4.926,0,0,0,1.356-.417c.065.1.13.194.2.291.316.464.633.925.929,1.388.1.163.2.328.3.492-.085-.092-.157-.169-.169-.18-.378-.324-1.321-.724-1.834-.422a.674.674,0,0,0-.208.987,1.385,1.385,0,0,0,1.113.406,4.748,4.748,0,0,0,1.32-.4c.094.171.189.343.272.514.054.118.114.227.161.349l.146.355c.084.23.172.466.248.692.054.157.1.307.152.459-.1-.163-.309-.479-.329-.5-.32-.379-1.18-.916-1.729-.691a.691.691,0,0,0-.359.954,1.349,1.349,0,0,0,1.026.569,5.03,5.03,0,0,0,1.425-.226c.081.251.157.5.225.729" transform="translate(-2.22 -234.567)" fill="#263238"/>
        <path id="Trazado_609620" data-name="Trazado 609620" d="M29.014,393.413c.009,0,.118-.681.12-.724.021-.505-.245-1.475-.794-1.637a.738.738,0,0,0-.9.544,1.3,1.3,0,0,0,.365,1.1,4.58,4.58,0,0,0,1.2.718" transform="translate(-16.625 -237.093)" fill="#263238"/>
      </g>
    </g>
    <g id="Grupo_1072436" data-name="Grupo 1072436">
      <g id="Grupo_1072435" data-name="Grupo 1072435" clip-path="url(#clip-path)">
        <circle id="Elipse_5910" data-name="Elipse 5910" cx="6.387" cy="6.387" r="6.387" transform="translate(7.092 41.195) rotate(-80.411)" fill="none" stroke="#263238" stroke-miterlimit="10" stroke-width="1"/>
        <path id="Trazado_609621" data-name="Trazado 609621" d="M35.492,86.018a2.264,2.264,0,1,1-2.264-2.264A2.264,2.264,0,0,1,35.492,86.018Z" transform="translate(-18.775 -50.783)" fill="none" stroke="#263238" stroke-miterlimit="10" stroke-width="1"/>
        <path id="Trazado_609622" data-name="Trazado 609622" d="M30.8,100.576a6.351,6.351,0,0,0,3.841-1.293,3.894,3.894,0,0,0-7.682,0A6.351,6.351,0,0,0,30.8,100.576Z" transform="translate(-16.346 -58.227)" fill="none" stroke="#263238" stroke-miterlimit="10" stroke-width="1"/>
        <circle id="Elipse_5911" data-name="Elipse 5911" cx="6.387" cy="6.387" r="6.387" transform="translate(7.092 57.23) rotate(-80.411)" fill="none" stroke="#263238" stroke-miterlimit="10" stroke-width="1"/>
        <path id="Trazado_609623" data-name="Trazado 609623" d="M35.492,126.75a2.264,2.264,0,1,1-2.264-2.264A2.264,2.264,0,0,1,35.492,126.75Z" transform="translate(-18.775 -75.481)" fill="none" stroke="#263238" stroke-miterlimit="10" stroke-width="1"/>
        <path id="Trazado_609624" data-name="Trazado 609624" d="M30.8,141.307a6.348,6.348,0,0,0,3.841-1.293,3.894,3.894,0,0,0-7.682,0A6.348,6.348,0,0,0,30.8,141.307Z" transform="translate(-16.346 -82.923)" fill="none" stroke="#263238" stroke-miterlimit="10" stroke-width="1"/>
        <circle id="Elipse_5912" data-name="Elipse 5912" cx="6.387" cy="6.387" r="6.387" transform="translate(7.055 73.213) rotate(-80.008)" fill="none" stroke="#263238" stroke-miterlimit="10" stroke-width="1"/>
        <path id="Trazado_609625" data-name="Trazado 609625" d="M35.492,167.481a2.264,2.264,0,1,1-2.264-2.264A2.263,2.263,0,0,1,35.492,167.481Z" transform="translate(-18.775 -100.177)" fill="none" stroke="#263238" stroke-miterlimit="10" stroke-width="1"/>
        <path id="Trazado_609626" data-name="Trazado 609626" d="M30.8,182.039a6.348,6.348,0,0,0,3.841-1.293,3.894,3.894,0,0,0-7.682,0A6.348,6.348,0,0,0,30.8,182.039Z" transform="translate(-16.346 -107.621)" fill="none" stroke="#263238" stroke-miterlimit="10" stroke-width="1"/>
        <circle id="Elipse_5913" data-name="Elipse 5913" cx="6.387" cy="6.387" r="6.387" transform="translate(7.055 89.247) rotate(-80.008)" fill="none" stroke="#263238" stroke-miterlimit="10" stroke-width="1"/>
        <path id="Trazado_609627" data-name="Trazado 609627" d="M35.492,208.213a2.264,2.264,0,1,1-2.264-2.264A2.264,2.264,0,0,1,35.492,208.213Z" transform="translate(-18.775 -124.875)" fill="none" stroke="#263238" stroke-miterlimit="10" stroke-width="1"/>
        <path id="Trazado_609628" data-name="Trazado 609628" d="M30.8,222.771a6.348,6.348,0,0,0,3.841-1.293,3.894,3.894,0,0,0-7.682,0A6.348,6.348,0,0,0,30.8,222.771Z" transform="translate(-16.346 -132.318)" fill="none" stroke="#263238" stroke-miterlimit="10" stroke-width="1"/>
        <rect id="Rectángulo_377798" data-name="Rectángulo 377798" width="27.337" height="1.84" transform="translate(151.145 22.549)" fill="none" stroke="#263238" stroke-miterlimit="10" stroke-width="1"/>
        <rect id="Rectángulo_377799" data-name="Rectángulo 377799" width="13.529" height="1.84" transform="translate(151.145 26.23)" fill="none" stroke="#263238" stroke-miterlimit="10" stroke-width="1"/>
        <rect id="Rectángulo_377800" data-name="Rectángulo 377800" width="18.486" height="1.84" transform="translate(151.145 29.91)" fill="none" stroke="#263238" stroke-miterlimit="10" stroke-width="1"/>
        <rect id="Rectángulo_377801" data-name="Rectángulo 377801" width="11.404" height="1.84" transform="translate(151.145 33.59)" fill="none" stroke="#263238" stroke-miterlimit="10" stroke-width="1"/>
        <rect id="Rectángulo_377802" data-name="Rectángulo 377802" width="20.94" height="1.84" transform="translate(151.145 37.27)" fill="none" stroke="#263238" stroke-miterlimit="10" stroke-width="1"/>
        <rect id="Rectángulo_377803" data-name="Rectángulo 377803" width="14.536" height="1.84" transform="translate(151.145 40.95)" fill="none" stroke="#263238" stroke-miterlimit="10" stroke-width="1"/>
        <rect id="Rectángulo_377804" data-name="Rectángulo 377804" width="16.307" height="1.84" transform="translate(151.145 44.63)" fill="none" stroke="#263238" stroke-miterlimit="10" stroke-width="1"/>
        <line id="Línea_996" data-name="Línea 996" x2="13.755" transform="translate(151.385 19.053)" fill="none" stroke="#263238" stroke-miterlimit="10" stroke-width="1"/>
        <line id="Línea_997" data-name="Línea 997" x2="13.755" transform="translate(151.385 16.738)" fill="none" stroke="#263238" stroke-miterlimit="10" stroke-width="1"/>
        <path id="Trazado_609629" data-name="Trazado 609629" d="M162,27.411,177.549.5h3.787" transform="translate(-98.227 -0.303)" fill="none" stroke="#263238" stroke-miterlimit="10" stroke-width="1"/>
        <line id="Línea_998" data-name="Línea 998" x2="9.568" transform="translate(86.697 0.396)" fill="none" stroke="#263238" stroke-miterlimit="10" stroke-width="1"/>
        <line id="Línea_999" data-name="Línea 999" x2="9.568" transform="translate(86.697 2.788)" fill="none" stroke="#263238" stroke-miterlimit="10" stroke-width="1"/>
        <line id="Línea_1000" data-name="Línea 1000" x2="9.568" transform="translate(86.697 5.18)" fill="none" stroke="#263238" stroke-miterlimit="10" stroke-width="1"/>
      </g>
    </g>
    <g id="Grupo_1072438" data-name="Grupo 1072438">
      <g id="Grupo_1072437" data-name="Grupo 1072437" clip-path="url(#clip-path)">
        <path id="Trazado_609630" data-name="Trazado 609630" d="M382.735,165.849s-3.947.733-4.736,2.819.395,2.65.395,2.65-3.214,1.748-2.593,3.778a5.7,5.7,0,0,0,2.875,3.045s.9.62.733,1.015-.733.282-.733.282a6.7,6.7,0,0,0,2.819,1.466,16.386,16.386,0,0,0,6.766.395,14.456,14.456,0,0,0,4.172-1.635s-1.579.113-.9-.958,3.439-1.522,3.1-4.68-1.3-2.763-2.03-4.116.226-2.312-2.03-3.89-6.2-2.763-7.442-2.312-.395,2.143-.395,2.143" transform="translate(-227.814 -99.202)" fill="#263238"/>
        <path id="Trazado_609631" data-name="Trazado 609631" d="M382.735,165.849s-3.947.733-4.736,2.819.395,2.65.395,2.65-3.214,1.748-2.593,3.778a5.7,5.7,0,0,0,2.875,3.045s.9.62.733,1.015-.733.282-.733.282a6.7,6.7,0,0,0,2.819,1.466,16.386,16.386,0,0,0,6.766.395,14.456,14.456,0,0,0,4.172-1.635s-1.579.113-.9-.958,3.439-1.522,3.1-4.68-1.3-2.763-2.03-4.116.226-2.312-2.03-3.89-6.2-2.763-7.442-2.312S382.735,165.849,382.735,165.849Z" transform="translate(-227.814 -99.202)" fill="none" stroke="#263238" stroke-miterlimit="10" stroke-width="1"/>
        <path id="Trazado_609632" data-name="Trazado 609632" d="M367.843,258.954a25.567,25.567,0,0,0-4.644,12.661c-.574,7.466,4.722,23.419,4.85,24.057a44.277,44.277,0,0,0,2.744,10.912,67.034,67.034,0,0,1,3.382,11.741s-.319,1.468-.319,1.659a20.229,20.229,0,0,1-3.509,3.19c-.893.511-2.808.7-2.744,1.6s4.339,1.021,5.743.957,4.594-.511,5.041-.511,2.489.128,2.425-1.148a58.575,58.575,0,0,0-1.8-6.7s-1.2-8.3-1.2-10.912-.128-8.806-.128-8.806,4.722,10.082,5.743,12.826,2.042,6.7,2.169,7.147.447,5.36,1.851,7.019a3.393,3.393,0,0,0,3.16,1.538c.94.032,2.2-.836,1.434-3.133s-2.68-3.893-3.063-6.19a117.62,117.62,0,0,1-.574-13.911,37.083,37.083,0,0,0-2.3-11.741s1.723-9.954.893-17.612a40.309,40.309,0,0,0-3.878-13.343l-.206-.824-14.549-1.4Z" transform="translate(-220.195 -156.449)" fill="#92e3a9"/>
        <path id="Trazado_609633" data-name="Trazado 609633" d="M367.843,258.954a25.567,25.567,0,0,0-4.644,12.661c-.574,7.466,4.722,23.419,4.85,24.057a44.277,44.277,0,0,0,2.744,10.912,67.034,67.034,0,0,1,3.382,11.741s-.319,1.468-.319,1.659a20.229,20.229,0,0,1-3.509,3.19c-.893.511-2.808.7-2.744,1.6s4.339,1.021,5.743.957,4.594-.511,5.041-.511,2.489.128,2.425-1.148a58.575,58.575,0,0,0-1.8-6.7s-1.2-8.3-1.2-10.912-.128-8.806-.128-8.806,4.722,10.082,5.743,12.826,2.042,6.7,2.169,7.147.447,5.36,1.851,7.019a3.393,3.393,0,0,0,3.16,1.538c.94.032,2.2-.836,1.434-3.133s-2.68-3.893-3.063-6.19a117.62,117.62,0,0,1-.574-13.911,37.083,37.083,0,0,0-2.3-11.741s1.723-9.954.893-17.612a40.309,40.309,0,0,0-3.878-13.343l-.206-.824-14.549-1.4Z" transform="translate(-220.195 -156.449)" fill="none" stroke="#263238" stroke-miterlimit="10" stroke-width="1"/>
        <path id="Trazado_609634" data-name="Trazado 609634" d="M395.369,316.578A57,57,0,0,1,394,309.029c-.164-2.958-.069-11.113-.069-11.113" transform="translate(-238.837 -180.638)" fill="none" stroke="#263238" stroke-miterlimit="10" stroke-width="1"/>
        <path id="Trazado_609635" data-name="Trazado 609635" d="M398.64,349.522s-.135-.529-.335-1.359" transform="translate(-241.507 -211.104)" fill="none" stroke="#263238" stroke-miterlimit="10" stroke-width="1"/>
        <path id="Trazado_609636" data-name="Trazado 609636" d="M382.515,288.474c.852,1.248,2.114,2.845,3.264,3.324" transform="translate(-231.933 -174.913)" fill="none" stroke="#263238" stroke-miterlimit="10" stroke-width="1"/>
        <path id="Trazado_609637" data-name="Trazado 609637" d="M379.95,284.391s.171.305.459.765" transform="translate(-230.378 -172.437)" fill="none" stroke="#263238" stroke-miterlimit="10" stroke-width="1"/>
        <line id="Línea_1001" data-name="Línea 1001" y1="4.466" x2="3.395" transform="translate(156.204 111.625)" fill="none" stroke="#263238" stroke-miterlimit="10" stroke-width="1"/>
        <path id="Trazado_609638" data-name="Trazado 609638" d="M387.082,417.117a9.084,9.084,0,0,1-1.761.069,10.506,10.506,0,0,1-4.62-1.768,20.243,20.243,0,0,1-3.509,3.191c-.893.51-2.808.7-2.744,1.6s4.339,1.021,5.743.957,4.594-.51,5.041-.51,2.489.128,2.425-1.149a6.782,6.782,0,0,0-.575-2.384" transform="translate(-227.041 -251.884)" fill="#fff"/>
        <path id="Trazado_609639" data-name="Trazado 609639" d="M387.082,417.117a9.084,9.084,0,0,1-1.761.069,10.506,10.506,0,0,1-4.62-1.768,20.243,20.243,0,0,1-3.509,3.191c-.893.51-2.808.7-2.744,1.6s4.339,1.021,5.743.957,4.594-.51,5.041-.51,2.489.128,2.425-1.149A6.782,6.782,0,0,0,387.082,417.117Z" transform="translate(-227.041 -251.884)" fill="none" stroke="#263238" stroke-miterlimit="10" stroke-width="1"/>
        <path id="Trazado_609640" data-name="Trazado 609640" d="M424.191,410.957c-.4.673-.935,1.524-1.717,1.576a2.349,2.349,0,0,1-1.943-1.131c.209,1.647.652,4.725,1.705,5.969a3.394,3.394,0,0,0,3.16,1.538c.94.031,2.2-.836,1.434-3.133-.6-1.813-1.922-3.19-2.639-4.819" transform="translate(-254.984 -249.179)" fill="#fff"/>
        <path id="Trazado_609641" data-name="Trazado 609641" d="M424.191,410.957c-.4.673-.935,1.524-1.717,1.576a2.349,2.349,0,0,1-1.943-1.131c.209,1.647.652,4.725,1.705,5.969a3.394,3.394,0,0,0,3.16,1.538c.94.031,2.2-.836,1.434-3.133C426.227,413.963,424.909,412.586,424.191,410.957Z" transform="translate(-254.984 -249.179)" fill="none" stroke="#263238" stroke-miterlimit="10" stroke-width="1"/>
        <path id="Trazado_609642" data-name="Trazado 609642" d="M362.085,184.206a27.3,27.3,0,0,1,.056,3.834c-.169.563-2.142.62-2.481.507s-2.65-.564-3.777,0-2.594,3.045-2.876,3.552a6.62,6.62,0,0,1-1.127,1.24s-2.03-7.837-2.03-8.457a8.154,8.154,0,0,0-.9-4.905c-1.3-2.424-2.312-4-3.27-4.735s-1.917-.789-1.973-.226.395.9.733,1.3a18.492,18.492,0,0,1,1.184,2.142s-2.086,3.439-2.142,4.229-.169.959.394,1.579a12.544,12.544,0,0,0,2.481,1.579,28.225,28.225,0,0,0,.282,5.018c.395,2.368-.62,5.751.846,8.683s3.552,3.608,3.891,3.327,4-2.82,4-2.82.451,5.638.507,5.864a8.989,8.989,0,0,0,0,2.48c.282.62,1.24,1.861,6.427,2.143s8.57-.395,8.852-.846a3.328,3.328,0,0,0,.169-1.635c0-.394.846-6.427.846-6.427s1.86,4.454,2.086,5.074.677,2.312.677,2.312-.169,4.341.564,6.315,1.579,3.89,1.579,3.89l1.006,6.452a4.16,4.16,0,0,0-.451,1.917c.113.789.321,2.653.321,2.935s0,1.128.451,1.24.846-1.071.846-1.071a24.815,24.815,0,0,1,.225,2.537c-.056.338.527,1.4,1.015.282.182-.416.339-1.127.451-1.353a11.339,11.339,0,0,0,.846-2.255,6.676,6.676,0,0,0-.378-3.724c-.152-.481-.62-1.466-.62-1.635s.291-7.749-.048-10.681a26.891,26.891,0,0,0-1.3-5.525s-1.353-8.852-1.353-9.19.226-4.454-1.24-6.427-4.059-2.369-5.638-2.763a22.305,22.305,0,0,1-3.552-1.184c-.282-.17-.338-3.891-.338-3.891Z" transform="translate(-208.235 -105.889)" fill="#fff"/>
        <path id="Trazado_609643" data-name="Trazado 609643" d="M362.085,184.206a27.3,27.3,0,0,1,.056,3.834c-.169.563-2.142.62-2.481.507s-2.65-.564-3.777,0-2.594,3.045-2.876,3.552a6.62,6.62,0,0,1-1.127,1.24s-2.03-7.837-2.03-8.457a8.154,8.154,0,0,0-.9-4.905c-1.3-2.424-2.312-4-3.27-4.735s-1.917-.789-1.973-.226.395.9.733,1.3a18.492,18.492,0,0,1,1.184,2.142s-2.086,3.439-2.142,4.229-.169.959.394,1.579a12.544,12.544,0,0,0,2.481,1.579,28.225,28.225,0,0,0,.282,5.018c.395,2.368-.62,5.751.846,8.683s3.552,3.608,3.891,3.327,4-2.82,4-2.82.451,5.638.507,5.864a8.989,8.989,0,0,0,0,2.48c.282.62,1.24,1.861,6.427,2.143s8.57-.395,8.852-.846a3.328,3.328,0,0,0,.169-1.635c0-.394.846-6.427.846-6.427s1.86,4.454,2.086,5.074.677,2.312.677,2.312-.169,4.341.564,6.315,1.579,3.89,1.579,3.89l1.006,6.452a4.16,4.16,0,0,0-.451,1.917c.113.789.321,2.653.321,2.935s0,1.128.451,1.24.846-1.071.846-1.071a24.815,24.815,0,0,1,.225,2.537c-.056.338.527,1.4,1.015.282.182-.416.339-1.127.451-1.353a11.339,11.339,0,0,0,.846-2.255,6.676,6.676,0,0,0-.378-3.724c-.152-.481-.62-1.466-.62-1.635s.291-7.749-.048-10.681a26.891,26.891,0,0,0-1.3-5.525s-1.353-8.852-1.353-9.19.226-4.454-1.24-6.427-4.059-2.369-5.638-2.763a22.305,22.305,0,0,1-3.552-1.184c-.282-.17-.338-3.891-.338-3.891Z" transform="translate(-208.235 -105.889)" fill="none" stroke="#263238" stroke-miterlimit="10" stroke-width="1"/>
        <path id="Trazado_609644" data-name="Trazado 609644" d="M365.7,216.661c1.172-.824,2.688-1.874,2.688-1.874s.451,5.638.507,5.864a9.007,9.007,0,0,0,0,2.481c.282.62,1.24,1.86,6.427,2.142s8.57-.395,8.852-.846a3.328,3.328,0,0,0,.169-1.635c0-.394.846-6.427.846-6.427s1.5,3.6,1.971,4.776a12.415,12.415,0,0,0,4.772-1.562c-.379-2.517-.823-5.5-.823-5.7,0-.338.226-4.454-1.24-6.427s-4.059-2.368-5.638-2.763a22.251,22.251,0,0,1-3.552-1.184c-.282-.169-.338-3.89-.338-3.89l-5.244-.677a27.357,27.357,0,0,1,.057,3.834c-.169.564-2.143.62-2.481.507s-2.65-.564-3.778,0-2.593,3.045-2.876,3.552a6.633,6.633,0,0,1-1.127,1.24,8.67,8.67,0,0,1,1.635,4.68,9.947,9.947,0,0,1-.827,3.9" transform="translate(-221.25 -120.627)" fill="#fff"/>
        <path id="Trazado_609645" data-name="Trazado 609645" d="M365.7,216.661c1.172-.824,2.688-1.874,2.688-1.874s.451,5.638.507,5.864a9.007,9.007,0,0,0,0,2.481c.282.62,1.24,1.86,6.427,2.142s8.57-.395,8.852-.846a3.328,3.328,0,0,0,.169-1.635c0-.394.846-6.427.846-6.427s1.5,3.6,1.971,4.776a12.415,12.415,0,0,0,4.772-1.562c-.379-2.517-.823-5.5-.823-5.7,0-.338.226-4.454-1.24-6.427s-4.059-2.368-5.638-2.763a22.251,22.251,0,0,1-3.552-1.184c-.282-.169-.338-3.89-.338-3.89l-5.244-.677a27.357,27.357,0,0,1,.057,3.834c-.169.564-2.143.62-2.481.507s-2.65-.564-3.778,0-2.593,3.045-2.876,3.552a6.633,6.633,0,0,1-1.127,1.24,8.67,8.67,0,0,1,1.635,4.68A9.947,9.947,0,0,1,365.7,216.661Z" transform="translate(-221.25 -120.627)" fill="none" stroke="#263238" stroke-miterlimit="10" stroke-width="1"/>
        <path id="Trazado_609646" data-name="Trazado 609646" d="M395.892,204.55a20.427,20.427,0,0,1-3-1.038c-.282-.169-.338-3.891-.338-3.891l-5.244-.676a27.309,27.309,0,0,1,.056,3.834c-.153.509-1.771.6-2.335.535a4.579,4.579,0,0,0,3.8,4.765c2.894.564,5.586-1.854,7.061-3.528" transform="translate(-233.458 -120.628)" fill="#fff"/>
        <path id="Trazado_609647" data-name="Trazado 609647" d="M395.892,204.55a20.427,20.427,0,0,1-3-1.038c-.282-.169-.338-3.891-.338-3.891l-5.244-.676a27.309,27.309,0,0,1,.056,3.834c-.153.509-1.771.6-2.335.535a4.579,4.579,0,0,0,3.8,4.765C391.725,208.642,394.417,206.225,395.892,204.55Z" transform="translate(-233.458 -120.628)" fill="none" stroke="#263238" stroke-miterlimit="10" stroke-width="1"/>
        <path id="Trazado_609648" data-name="Trazado 609648" d="M393.3,201.087l-2.233.153-.248-2.3Z" transform="translate(-236.968 -120.628)" fill="#263238"/>
        <path id="Trazado_609649" data-name="Trazado 609649" d="M393.3,201.087l-2.233.153-.248-2.3Z" transform="translate(-236.968 -120.628)" fill="none" stroke="#263238" stroke-miterlimit="10" stroke-width="1"/>
        <path id="Trazado_609650" data-name="Trazado 609650" d="M393.1,222.147s-1.184,4.679-1.015,5.92" transform="translate(-237.724 -134.696)" fill="none" stroke="#263238" stroke-miterlimit="10" stroke-width="1"/>
        <path id="Trazado_609651" data-name="Trazado 609651" d="M374.527,222.614a9.26,9.26,0,0,1,.606-1.184" transform="translate(-227.09 -134.261)" fill="none" stroke="#263238" stroke-miterlimit="10" stroke-width="1"/>
        <path id="Trazado_609652" data-name="Trazado 609652" d="M373.142,231.324a6.922,6.922,0,0,1-.395-3.1,7.508,7.508,0,0,1,.419-2.006" transform="translate(-226.001 -137.164)" fill="none" stroke="#263238" stroke-miterlimit="10" stroke-width="1"/>
        <line id="Línea_1002" data-name="Línea 1002" y1="3.767" x2="0.658" transform="translate(163.942 91.972)" fill="none" stroke="#263238" stroke-miterlimit="10" stroke-width="1"/>
        <path id="Trazado_609653" data-name="Trazado 609653" d="M390.188,170.73l-3.608,2.481s-.113,1.466-.113,3.045-.451,2.932.339,4.4,2.481,3.326,3.778,3.326a7.275,7.275,0,0,0,3.946-1.522,5.6,5.6,0,0,0,1.522-2.312s1.41-.564,1.3-1.466-.282-1.522-.507-1.579-.733-.169-.733-.169l-.733-3.045s-4.172-1.747-5.187-3.157" transform="translate(-234.251 -103.52)" fill="#fff"/>
        <path id="Trazado_609654" data-name="Trazado 609654" d="M390.188,170.73l-3.608,2.481s-.113,1.466-.113,3.045-.451,2.932.339,4.4,2.481,3.326,3.778,3.326a7.275,7.275,0,0,0,3.946-1.522,5.6,5.6,0,0,0,1.522-2.312s1.41-.564,1.3-1.466-.282-1.522-.507-1.579-.733-.169-.733-.169l-.733-3.045S391.2,172.14,390.188,170.73Z" transform="translate(-234.251 -103.52)" fill="none" stroke="#263238" stroke-miterlimit="10" stroke-width="1"/>
        <path id="Trazado_609655" data-name="Trazado 609655" d="M395.66,180.326v.846s-1.24,1.015-.733,1.41a.871.871,0,0,0,1.015.113" transform="translate(-239.385 -109.339)" fill="none" stroke="#263238" stroke-miterlimit="10" stroke-width="1"/>
        <path id="Trazado_609656" data-name="Trazado 609656" d="M393.253,190.894s1.353,1.466,3.383-.113" transform="translate(-238.444 -115.678)" fill="none" stroke="#263238" stroke-miterlimit="10" stroke-width="1"/>
        <path id="Trazado_609657" data-name="Trazado 609657" d="M389.816,178.292a2.3,2.3,0,0,1,2.142-.395" transform="translate(-236.36 -107.811)" fill="none" stroke="#263238" stroke-miterlimit="10" stroke-width="1"/>
        <path id="Trazado_609658" data-name="Trazado 609658" d="M399.555,177.651a2.172,2.172,0,0,1,2.312.451" transform="translate(-242.265 -107.622)" fill="none" stroke="#263238" stroke-miterlimit="10" stroke-width="1"/>
        <path id="Trazado_609659" data-name="Trazado 609659" d="M392.641,181.091c0,.265-.152.479-.338.479s-.339-.215-.339-.479.152-.479.339-.479.338.215.338.479" transform="translate(-237.663 -109.512)" fill="#263238"/>
        <path id="Trazado_609660" data-name="Trazado 609660" d="M402.38,181.091c0,.265-.152.479-.338.479s-.339-.215-.339-.479.152-.479.339-.479.338.215.338.479" transform="translate(-243.568 -109.512)" fill="#263238"/>
        <path id="Trazado_609661" data-name="Trazado 609661" d="M384.694,186.365s-1.128-.62-1.185.507a2.744,2.744,0,0,0,.959,1.973Z" transform="translate(-232.535 -112.897)" fill="#fff"/>
        <path id="Trazado_609662" data-name="Trazado 609662" d="M384.694,186.365s-1.128-.62-1.185.507a2.744,2.744,0,0,0,.959,1.973Z" transform="translate(-232.535 -112.897)" fill="none" stroke="#263238" stroke-miterlimit="10" stroke-width="1"/>
        <path id="Trazado_609663" data-name="Trazado 609663" d="M346.334,184.252a1.355,1.355,0,0,0-1.583.627,1.965,1.965,0,0,0,.9,2.338c.585.372,1.063.266,1.116-.425a3.042,3.042,0,0,0-.638-1.594Z" transform="translate(-208.947 -111.686)" fill="#fff"/>
        <path id="Trazado_609664" data-name="Trazado 609664" d="M346.334,184.252a1.355,1.355,0,0,0-1.583.627,1.965,1.965,0,0,0,.9,2.338c.585.372,1.063.266,1.116-.425a3.042,3.042,0,0,0-.638-1.594Z" transform="translate(-208.947 -111.686)" fill="none" stroke="#263238" stroke-miterlimit="10" stroke-width="1"/>
        <path id="Trazado_609665" data-name="Trazado 609665" d="M343.033,187.55s-1.01.8-.9,1.435a2.43,2.43,0,0,0,1.966,1.435c.638-.053.425-.9.425-.9a7.145,7.145,0,0,1-1.488-1.966" transform="translate(-207.442 -113.719)" fill="#fff"/>
        <path id="Trazado_609666" data-name="Trazado 609666" d="M343.033,187.55s-1.01.8-.9,1.435a2.43,2.43,0,0,0,1.966,1.435c.638-.053.425-.9.425-.9A7.145,7.145,0,0,1,343.033,187.55Z" transform="translate(-207.442 -113.719)" fill="none" stroke="#263238" stroke-miterlimit="10" stroke-width="1"/>
        <path id="Trazado_609667" data-name="Trazado 609667" d="M342.187,192.95s-.8.585-.372,1.329,1.541.957,1.913.531a1.224,1.224,0,0,0,.106-1.116s-1.594-.372-1.647-.744" transform="translate(-207.18 -116.993)" fill="#fff"/>
        <path id="Trazado_609668" data-name="Trazado 609668" d="M342.187,192.95s-.8.585-.372,1.329,1.541.957,1.913.531a1.224,1.224,0,0,0,.106-1.116S342.24,193.322,342.187,192.95Z" transform="translate(-207.18 -116.993)" fill="none" stroke="#263238" stroke-miterlimit="10" stroke-width="1"/>
        <path id="Trazado_609669" data-name="Trazado 609669" d="M354.172,186.747a3.506,3.506,0,0,1-.425-1.807,5.578,5.578,0,0,1,.957-2.285,5.343,5.343,0,0,1-.266-.85c-.106-.478-.744-2.232-.159-2.976s1.063.478,1.435,1.594.638,1.7.638,1.7a5.227,5.227,0,0,1,.213,2.285c-.213,1.01-.8,2.817-.8,2.817" transform="translate(-214.488 -108.292)" fill="#fff"/>
        <path id="Trazado_609670" data-name="Trazado 609670" d="M354.172,186.747a3.506,3.506,0,0,1-.425-1.807,5.578,5.578,0,0,1,.957-2.285,5.343,5.343,0,0,1-.266-.85c-.106-.478-.744-2.232-.159-2.976s1.063.478,1.435,1.594.638,1.7.638,1.7a5.227,5.227,0,0,1,.213,2.285c-.213,1.01-.8,2.817-.8,2.817" transform="translate(-214.488 -108.292)" fill="none" stroke="#263238" stroke-miterlimit="10" stroke-width="1"/>
      </g>
    </g>
    <path id="Trazado_609671" data-name="Trazado 609671" d="M234.109,330.9h0Z" transform="translate(-141.949 -200.639)" fill="#fff"/>
    <line id="Línea_1003" data-name="Línea 1003" x2="31.264" transform="translate(92.16 130.264)" fill="none" stroke="#263238" stroke-miterlimit="10" stroke-width="1"/>
    <rect id="Rectángulo_377807" data-name="Rectángulo 377807" width="2.095" height="2.095" transform="translate(88.35 128.927)" fill="#92e3a9"/>
    <path id="Trazado_609672" data-name="Trazado 609672" d="M234.109,342.515h0Z" transform="translate(-141.949 -207.68)" fill="#fff"/>
    <line id="Línea_1004" data-name="Línea 1004" x2="31.264" transform="translate(92.16 134.835)" fill="none" stroke="#263238" stroke-miterlimit="10" stroke-width="1"/>
    <rect id="Rectángulo_377808" data-name="Rectángulo 377808" width="2.095" height="2.095" transform="translate(88.35 133.499)" fill="#92e3a9"/>
    <path id="Trazado_609673" data-name="Trazado 609673" d="M234.109,354.126h0Z" transform="translate(-141.949 -214.72)" fill="#fff"/>
    <line id="Línea_1005" data-name="Línea 1005" x2="31.264" transform="translate(92.16 139.406)" fill="none" stroke="#263238" stroke-miterlimit="10" stroke-width="1"/>
    <rect id="Rectángulo_377809" data-name="Rectángulo 377809" width="2.095" height="2.095" transform="translate(88.35 138.07)" fill="#92e3a9"/>
    <path id="Trazado_609674" data-name="Trazado 609674" d="M234.109,365.739h0Z" transform="translate(-141.949 -221.761)" fill="#fff"/>
    <line id="Línea_1006" data-name="Línea 1006" x2="31.264" transform="translate(92.16 143.977)" fill="none" stroke="#263238" stroke-miterlimit="10" stroke-width="1"/>
    <rect id="Rectángulo_377810" data-name="Rectángulo 377810" width="2.095" height="2.095" transform="translate(88.35 142.641)" fill="#92e3a9"/>
    <rect id="Rectángulo_377811" data-name="Rectángulo 377811" width="76.763" height="47.614" transform="translate(64.207 104.828)" fill="none" stroke="#263238" stroke-miterlimit="10" stroke-width="1"/>
    <rect id="Rectángulo_377812" data-name="Rectángulo 377812" width="76.763" height="3.825" transform="translate(64.207 104.828)" fill="none" stroke="#263238" stroke-miterlimit="10" stroke-width="1"/>
    <line id="Línea_1007" data-name="Línea 1007" y2="43.114" transform="translate(84.317 108.921)" fill="none" stroke="#263238" stroke-miterlimit="10" stroke-width="1"/>
    <g id="Grupo_1072440" data-name="Grupo 1072440">
      <g id="Grupo_1072439" data-name="Grupo 1072439" clip-path="url(#clip-path)">
        <circle id="Elipse_5914" data-name="Elipse 5914" cx="6.627" cy="6.627" r="6.627" transform="translate(87.966 112.108)" fill="none" stroke="#263238" stroke-miterlimit="10" stroke-width="1"/>
        <circle id="Elipse_5915" data-name="Elipse 5915" cx="2.349" cy="2.349" r="2.349" transform="translate(92.244 115.631)" fill="none" stroke="#263238" stroke-miterlimit="10" stroke-width="1"/>
        <path id="Trazado_609675" data-name="Trazado 609675" d="M234.15,311.185a6.589,6.589,0,0,0,3.985-1.341,4.04,4.04,0,0,0-7.97,0A6.589,6.589,0,0,0,234.15,311.185Z" transform="translate(-139.558 -185.824)" fill="none" stroke="#263238" stroke-miterlimit="10" stroke-width="1"/>
        <circle id="Elipse_5916" data-name="Elipse 5916" cx="3.187" cy="3.187" r="3.187" transform="translate(71.232 115.063)" fill="none" stroke="#263238" stroke-miterlimit="10" stroke-width="1"/>
        <circle id="Elipse_5917" data-name="Elipse 5917" cx="1.13" cy="1.13" r="1.13" transform="matrix(0.23, -0.973, 0.973, 0.23, 73.06, 118.727)" fill="none" stroke="#263238" stroke-miterlimit="10" stroke-width="1"/>
        <path id="Trazado_609676" data-name="Trazado 609676" d="M186.092,304.989a3.169,3.169,0,0,0,1.917-.645,1.943,1.943,0,0,0-3.833,0A3.169,3.169,0,0,0,186.092,304.989Z" transform="translate(-111.672 -183.551)" fill="none" stroke="#263238" stroke-miterlimit="10" stroke-width="1"/>
        <circle id="Elipse_5918" data-name="Elipse 5918" cx="3.187" cy="3.187" r="3.187" transform="translate(71.232 128.408)" fill="none" stroke="#263238" stroke-miterlimit="10" stroke-width="1"/>
        <circle id="Elipse_5919" data-name="Elipse 5919" cx="1.13" cy="1.13" r="1.13" transform="translate(73.29 130.103)" fill="none" stroke="#263238" stroke-miterlimit="10" stroke-width="1"/>
        <path id="Trazado_609677" data-name="Trazado 609677" d="M186.092,338.889a3.169,3.169,0,0,0,1.917-.645,1.943,1.943,0,0,0-3.833,0A3.169,3.169,0,0,0,186.092,338.889Z" transform="translate(-111.672 -204.106)" fill="none" stroke="#263238" stroke-miterlimit="10" stroke-width="1"/>
        <circle id="Elipse_5920" data-name="Elipse 5920" cx="3.187" cy="3.187" r="3.187" transform="translate(71.232 141.754)" fill="none" stroke="#263238" stroke-miterlimit="10" stroke-width="1"/>
        <circle id="Elipse_5921" data-name="Elipse 5921" cx="1.13" cy="1.13" r="1.13" transform="translate(73.29 143.449)" fill="none" stroke="#263238" stroke-miterlimit="10" stroke-width="1"/>
        <path id="Trazado_609678" data-name="Trazado 609678" d="M186.092,372.79a3.17,3.17,0,0,0,1.917-.645,1.943,1.943,0,0,0-3.833,0A3.17,3.17,0,0,0,186.092,372.79Z" transform="translate(-111.672 -224.662)" fill="none" stroke="#263238" stroke-miterlimit="10" stroke-width="1"/>
        <line id="Línea_1008" data-name="Línea 1008" x2="16.776" transform="translate(104.784 114.96)" fill="none" stroke="#263238" stroke-miterlimit="10" stroke-width="1"/>
        <line id="Línea_1009" data-name="Línea 1009" x2="16.776" transform="translate(104.784 118.819)" fill="none" stroke="#263238" stroke-miterlimit="10" stroke-width="1"/>
        <line id="Línea_1010" data-name="Línea 1010" x2="16.776" transform="translate(104.784 122.677)" fill="none" stroke="#263238" stroke-miterlimit="10" stroke-width="1"/>
      </g>
    </g>
    <rect id="Rectángulo_377814" data-name="Rectángulo 377814" width="52.754" height="77.768" transform="translate(89.49 13.662)" fill="none" stroke="#263238" stroke-miterlimit="10" stroke-width="1"/>
    <g id="Grupo_1072442" data-name="Grupo 1072442">
      <g id="Grupo_1072441" data-name="Grupo 1072441" clip-path="url(#clip-path)">
        <path id="Trazado_609679" data-name="Trazado 609679" d="M281.809,70.718a16.9,16.9,0,1,0-16.9,16.9,16.9,16.9,0,0,0,16.9-16.9" transform="translate(-150.383 -32.635)" fill="#fff"/>
        <circle id="Elipse_5922" data-name="Elipse 5922" cx="16.895" cy="16.895" r="16.895" transform="translate(97.636 21.188)" fill="none" stroke="#263238" stroke-miterlimit="10" stroke-width="1"/>
        <line id="Línea_1011" data-name="Línea 1011" x2="35.6" transform="translate(97.032 60.426)" fill="#fff"/>
        <line id="Línea_1012" data-name="Línea 1012" x2="35.6" transform="translate(97.032 60.426)" fill="none" stroke="#263238" stroke-miterlimit="10" stroke-width="1"/>
        <line id="Línea_1013" data-name="Línea 1013" x2="35.6" transform="translate(97.032 64.046)" fill="#fff"/>
        <line id="Línea_1014" data-name="Línea 1014" x2="35.6" transform="translate(97.032 64.046)" fill="none" stroke="#263238" stroke-miterlimit="10" stroke-width="1"/>
        <line id="Línea_1015" data-name="Línea 1015" x2="31.264" transform="translate(101.369 70.141)" fill="#fff"/>
        <line id="Línea_1016" data-name="Línea 1016" x2="31.264" transform="translate(101.369 70.141)" fill="none" stroke="#263238" stroke-miterlimit="10" stroke-width="1"/>
        <rect id="Rectángulo_377815" data-name="Rectángulo 377815" width="2.095" height="2.095" transform="translate(97.559 68.805)" fill="#92e3a9"/>
        <line id="Línea_1017" data-name="Línea 1017" x2="31.264" transform="translate(101.369 74.712)" fill="#fff"/>
        <line id="Línea_1018" data-name="Línea 1018" x2="31.264" transform="translate(101.369 74.712)" fill="none" stroke="#263238" stroke-miterlimit="10" stroke-width="1"/>
        <rect id="Rectángulo_377816" data-name="Rectángulo 377816" width="2.095" height="2.095" transform="translate(97.559 73.376)" fill="#92e3a9"/>
        <line id="Línea_1019" data-name="Línea 1019" x2="31.264" transform="translate(101.369 79.284)" fill="#fff"/>
        <line id="Línea_1020" data-name="Línea 1020" x2="31.264" transform="translate(101.369 79.284)" fill="none" stroke="#263238" stroke-miterlimit="10" stroke-width="1"/>
        <rect id="Rectángulo_377817" data-name="Rectángulo 377817" width="2.095" height="2.095" transform="translate(97.559 77.947)" fill="#92e3a9"/>
        <line id="Línea_1021" data-name="Línea 1021" x2="31.264" transform="translate(101.369 83.855)" fill="#fff"/>
        <line id="Línea_1022" data-name="Línea 1022" x2="31.264" transform="translate(101.369 83.855)" fill="none" stroke="#263238" stroke-miterlimit="10" stroke-width="1"/>
        <rect id="Rectángulo_377818" data-name="Rectángulo 377818" width="2.095" height="2.095" transform="translate(97.559 82.519)" fill="#92e3a9"/>
        <path id="Trazado_609680" data-name="Trazado 609680" d="M270.145,62.672a8.1,8.1,0,0,1,7.1-3.628c4.89.158,6.073,5.521,5.915,7.1a7.549,7.549,0,0,1-.71,2.6l-2.129-1.814a14.707,14.707,0,0,1,3.329,5.142c1.183,3.155.614,7.241-.884,8.187a3,3,0,0,1-2.524.552l.157-2.129s-1.42,2.524-3.785,3-9.149.789-10.174-.394a5.83,5.83,0,0,1-1.262-2.523l-.158,2.05s-2.129-1.577-2.208-3.391,1.025-4.338,1.577-5.679a10.63,10.63,0,0,0,1.1-4.1c.158-2.05-.079-3.154,1.341-4.5a3.157,3.157,0,0,1,3.312-.473" transform="translate(-159.349 -35.798)" fill="#263238"/>
        <path id="Trazado_609681" data-name="Trazado 609681" d="M270.145,62.672a8.1,8.1,0,0,1,7.1-3.628c4.89.158,6.073,5.521,5.915,7.1a7.549,7.549,0,0,1-.71,2.6l-2.129-1.814a14.707,14.707,0,0,1,3.329,5.142c1.183,3.155.614,7.241-.884,8.187a3,3,0,0,1-2.524.552l.157-2.129s-1.42,2.524-3.785,3-9.149.789-10.174-.394a5.83,5.83,0,0,1-1.262-2.523l-.158,2.05s-2.129-1.577-2.208-3.391,1.025-4.338,1.577-5.679a10.63,10.63,0,0,0,1.1-4.1c.158-2.05-.079-3.154,1.341-4.5A3.157,3.157,0,0,1,270.145,62.672Z" transform="translate(-159.349 -35.798)" fill="none" stroke="#263238" stroke-linecap="round" stroke-linejoin="round" stroke-width="1"/>
        <path id="Trazado_609682" data-name="Trazado 609682" d="M265.6,113.217c-1.309.561-3.425,1.061-4.86,1.7a16.887,16.887,0,0,0,23.721.054,8.863,8.863,0,0,0-1.727-.635c-2.528-.7-6.116-2.754-6.537-3.456a15.216,15.216,0,0,1-.837-3.163l-5.836-.789s.289,3.055.289,3.617-2.247,1.825-4.213,2.668" transform="translate(-158.095 -64.837)" fill="#fff"/>
        <path id="Trazado_609683" data-name="Trazado 609683" d="M265.6,113.217c-1.309.561-3.425,1.061-4.86,1.7a16.887,16.887,0,0,0,23.721.054,8.863,8.863,0,0,0-1.727-.635c-2.528-.7-6.116-2.754-6.537-3.456a15.216,15.216,0,0,1-.837-3.163l-5.836-.789s.289,3.055.289,3.617S267.564,112.374,265.6,113.217Z" transform="translate(-158.095 -64.837)" fill="none" stroke="#263238" stroke-linecap="round" stroke-linejoin="round" stroke-width="1"/>
        <path id="Trazado_609684" data-name="Trazado 609684" d="M275.286,79.315a18.594,18.594,0,0,1,1.577-5.442c1.1-1.893,3.47-1.34,4.416-.71s2.445,4.022,3.312,6.23,1.262,3.47,1.262,3.47a11.268,11.268,0,0,1-3.234,4.022,4.205,4.205,0,0,1-5.836-.789,9.046,9.046,0,0,1-1.42-2.287,3.958,3.958,0,0,1-2.445-2.287c-.473-1.656-.079-2.523.71-2.76s1.656.552,1.656.552" transform="translate(-165.357 -44.003)" fill="#fff"/>
        <path id="Trazado_609685" data-name="Trazado 609685" d="M275.286,79.315a18.594,18.594,0,0,1,1.577-5.442c1.1-1.893,3.47-1.34,4.416-.71s2.445,4.022,3.312,6.23,1.262,3.47,1.262,3.47a11.268,11.268,0,0,1-3.234,4.022,4.205,4.205,0,0,1-5.836-.789,9.046,9.046,0,0,1-1.42-2.287,3.958,3.958,0,0,1-2.445-2.287c-.473-1.656-.079-2.523.71-2.76S275.286,79.315,275.286,79.315Z" transform="translate(-165.357 -44.003)" fill="none" stroke="#263238" stroke-linecap="round" stroke-linejoin="round" stroke-width="1"/>
        <path id="Trazado_609686" data-name="Trazado 609686" d="M294.142,86.7a3.521,3.521,0,0,0,.552,2.051c.631.868.079,1.814-1.025,1.577" transform="translate(-178.063 -52.568)" fill="none" stroke="#263238" stroke-linecap="round" stroke-linejoin="round" stroke-width="1"/>
        <path id="Trazado_609687" data-name="Trazado 609687" d="M290.2,97.577s-2.682,1.262-3.943-1.262" transform="translate(-173.568 -58.399)" fill="none" stroke="#263238" stroke-linecap="round" stroke-linejoin="round" stroke-width="1"/>
        <path id="Trazado_609688" data-name="Trazado 609688" d="M287.458,88.931c0,.348.141.631.315.631s.316-.283.316-.631-.141-.631-.316-.631-.315.283-.315.631" transform="translate(-174.297 -53.54)" fill="#263238"/>
        <path id="Trazado_609689" data-name="Trazado 609689" d="M297.275,88.931c0,.348.141.631.315.631s.316-.283.316-.631-.141-.631-.316-.631-.315.283-.315.631" transform="translate(-180.249 -53.54)" fill="#263238"/>
        <path id="Trazado_609690" data-name="Trazado 609690" d="M287.068,82.551a1.425,1.425,0,0,0-1.814.237" transform="translate(-172.96 -49.919)" fill="none" stroke="#263238" stroke-linecap="round" stroke-linejoin="round" stroke-width="1"/>
        <path id="Trazado_609691" data-name="Trazado 609691" d="M295.672,82.623a1.326,1.326,0,0,1,1.5-.315" transform="translate(-179.277 -49.834)" fill="none" stroke="#263238" stroke-linecap="round" stroke-linejoin="round" stroke-width="1"/>
        <path id="Trazado_609692" data-name="Trazado 609692" d="M278.994,121.5l-6.117,5.8-5.929-5.99c-.445.222-.905.435-1.351.626-1.309.561-3.425,1.061-4.861,1.7a16.887,16.887,0,0,0,23.722.054,8.832,8.832,0,0,0-1.727-.635,20.331,20.331,0,0,1-3.736-1.557" transform="translate(-158.094 -73.553)" fill="#92e3a9"/>
        <path id="Trazado_609693" data-name="Trazado 609693" d="M278.994,121.5l-6.117,5.8-5.929-5.99c-.445.222-.905.435-1.351.626-1.309.561-3.425,1.061-4.861,1.7a16.887,16.887,0,0,0,23.722.054,8.832,8.832,0,0,0-1.727-.635A20.331,20.331,0,0,1,278.994,121.5Z" transform="translate(-158.094 -73.553)" fill="none" stroke="#263238" stroke-miterlimit="10" stroke-width="1"/>
      </g>
    </g>
    <rect id="Rectángulo_377820" data-name="Rectángulo 377820" width="52.754" height="77.768" transform="translate(28.731 13.662)" fill="none" stroke="#263238" stroke-miterlimit="10" stroke-width="1"/>
    <path id="Trazado_609694" data-name="Trazado 609694" d="M92.143,153.5h0Z" transform="translate(-55.87 -93.071)" fill="#fff"/>
    <line id="Línea_1023" data-name="Línea 1023" x2="35.601" transform="translate(36.273 60.426)" fill="none" stroke="#263238" stroke-miterlimit="10" stroke-width="1"/>
    <path id="Trazado_609695" data-name="Trazado 609695" d="M92.143,162.693h0Z" transform="translate(-55.87 -98.647)" fill="#fff"/>
    <line id="Línea_1024" data-name="Línea 1024" x2="35.601" transform="translate(36.273 64.046)" fill="none" stroke="#263238" stroke-miterlimit="10" stroke-width="1"/>
    <path id="Trazado_609696" data-name="Trazado 609696" d="M103.158,178.176h0Z" transform="translate(-62.549 -108.035)" fill="#fff"/>
    <line id="Línea_1025" data-name="Línea 1025" x2="31.264" transform="translate(40.61 70.141)" fill="none" stroke="#263238" stroke-miterlimit="10" stroke-width="1"/>
    <rect id="Rectángulo_377821" data-name="Rectángulo 377821" width="2.095" height="2.095" transform="translate(36.8 68.805)" fill="#92e3a9"/>
    <path id="Trazado_609697" data-name="Trazado 609697" d="M103.158,189.788h0Z" transform="translate(-62.549 -115.076)" fill="#fff"/>
    <line id="Línea_1026" data-name="Línea 1026" x2="31.264" transform="translate(40.61 74.712)" fill="none" stroke="#263238" stroke-miterlimit="10" stroke-width="1"/>
    <rect id="Rectángulo_377822" data-name="Rectángulo 377822" width="2.095" height="2.095" transform="translate(36.8 73.376)" fill="#92e3a9"/>
    <path id="Trazado_609698" data-name="Trazado 609698" d="M103.158,201.4h0Z" transform="translate(-62.549 -122.116)" fill="#fff"/>
    <line id="Línea_1027" data-name="Línea 1027" x2="31.264" transform="translate(40.61 79.284)" fill="none" stroke="#263238" stroke-miterlimit="10" stroke-width="1"/>
    <rect id="Rectángulo_377823" data-name="Rectángulo 377823" width="2.095" height="2.095" transform="translate(36.8 77.947)" fill="#92e3a9"/>
    <path id="Trazado_609699" data-name="Trazado 609699" d="M103.158,213.012h0Z" transform="translate(-62.549 -129.157)" fill="#fff"/>
    <line id="Línea_1028" data-name="Línea 1028" x2="31.264" transform="translate(40.61 83.855)" fill="none" stroke="#263238" stroke-miterlimit="10" stroke-width="1"/>
    <rect id="Rectángulo_377824" data-name="Rectángulo 377824" width="2.095" height="2.095" transform="translate(36.8 82.519)" fill="#92e3a9"/>
    <g id="Grupo_1072444" data-name="Grupo 1072444">
      <g id="Grupo_1072443" data-name="Grupo 1072443" clip-path="url(#clip-path)">
        <path id="Trazado_609700" data-name="Trazado 609700" d="M127.466,70.718a16.9,16.9,0,1,0-16.9,16.9,16.9,16.9,0,0,0,16.9-16.9" transform="translate(-56.799 -32.635)" fill="#fff"/>
        <circle id="Elipse_5923" data-name="Elipse 5923" cx="16.895" cy="16.895" r="16.895" transform="translate(36.876 21.188)" fill="none" stroke="#263238" stroke-miterlimit="10" stroke-width="1"/>
        <path id="Trazado_609701" data-name="Trazado 609701" d="M107.769,114.717l-4.211,3.369a16.887,16.887,0,0,0,25.794.249l-6.4-4.176Z" transform="translate(-62.791 -69.219)" fill="#263238"/>
        <path id="Trazado_609702" data-name="Trazado 609702" d="M107.769,114.717l-4.211,3.369a16.887,16.887,0,0,0,25.794.249l-6.4-4.176Z" transform="translate(-62.791 -69.219)" fill="none" stroke="#263238" stroke-linecap="round" stroke-linejoin="round" stroke-width="1"/>
        <path id="Trazado_609703" data-name="Trazado 609703" d="M118.317,103.149s-3.715.481-4.747,2-1.789,2.958-1.032,3.853a27.3,27.3,0,0,0,4.128,3.646,18.9,18.9,0,0,1,3.17,3.649,34.069,34.069,0,0,0,.27-3.58c0-1.514-1.307-3.165-1.583-4.54s2-3.578,3.578-2.889A4.994,4.994,0,0,1,124.853,109a16.237,16.237,0,0,0,.619,3.784c.344,1.651.619,3.065.619,3.065a14.22,14.22,0,0,0,3.1-4.923c.757-2.545.413-5.16-2.408-6.88s-8.462-.894-8.462-.894" transform="translate(-68.05 -62.423)" fill="#92e3a9"/>
        <path id="Trazado_609704" data-name="Trazado 609704" d="M118.317,103.149s-3.715.481-4.747,2-1.789,2.958-1.032,3.853a27.3,27.3,0,0,0,4.128,3.646,18.9,18.9,0,0,1,3.17,3.649,34.069,34.069,0,0,0,.27-3.58c0-1.514-1.307-3.165-1.583-4.54s2-3.578,3.578-2.889A4.994,4.994,0,0,1,124.853,109a16.237,16.237,0,0,0,.619,3.784c.344,1.651.619,3.065.619,3.065a14.22,14.22,0,0,0,3.1-4.923c.757-2.545.413-5.16-2.408-6.88S118.317,103.149,118.317,103.149Z" transform="translate(-68.05 -62.423)" fill="none" stroke="#263238" stroke-linecap="round" stroke-linejoin="round" stroke-width="1"/>
        <path id="Trazado_609705" data-name="Trazado 609705" d="M129.456,104.986a6.679,6.679,0,0,0-1.216-.943c-2.821-1.72-8.462-.894-8.462-.894s-3.715.481-4.747,2c-.12.176-.236.352-.347.525a3.718,3.718,0,0,0,.622,2.64c1.542,2.455,4.74,3.63,6.256,4.313-.05-1.489-1.308-3.1-1.578-4.451-.275-1.376,2-3.577,3.578-2.889A5,5,0,0,1,126.313,109a16.238,16.238,0,0,0,.619,3.783c.02.1.04.2.059.3.117-.113.235-.233.354-.366a8.955,8.955,0,0,0,2.339-6.123,5.784,5.784,0,0,0-.229-1.6" transform="translate(-69.51 -62.423)" fill="#fff"/>
        <path id="Trazado_609706" data-name="Trazado 609706" d="M129.456,104.986a6.679,6.679,0,0,0-1.216-.943c-2.821-1.72-8.462-.894-8.462-.894s-3.715.481-4.747,2c-.12.176-.236.352-.347.525a3.718,3.718,0,0,0,.622,2.64c1.542,2.455,4.74,3.63,6.256,4.313-.05-1.489-1.308-3.1-1.578-4.451-.275-1.376,2-3.577,3.578-2.889A5,5,0,0,1,126.313,109a16.238,16.238,0,0,0,.619,3.783c.02.1.04.2.059.3.117-.113.235-.233.354-.366a8.955,8.955,0,0,0,2.339-6.123A5.784,5.784,0,0,0,129.456,104.986Z" transform="translate(-69.51 -62.423)" fill="none" stroke="#263238" stroke-linecap="round" stroke-linejoin="round" stroke-width="1"/>
        <path id="Trazado_609707" data-name="Trazado 609707" d="M126.118,96.638s.413,4.953.55,6.329.894,4.885,3.234,5.573,3.715-2,3.371-3.99-.963-3.853-.963-4.541a3.425,3.425,0,0,0-.069-.894Z" transform="translate(-76.47 -58.595)" fill="#fff"/>
        <path id="Trazado_609708" data-name="Trazado 609708" d="M126.118,96.638s.413,4.953.55,6.329.894,4.885,3.234,5.573,3.715-2,3.371-3.99-.963-3.853-.963-4.541a3.425,3.425,0,0,0-.069-.894Z" transform="translate(-76.47 -58.595)" fill="none" stroke="#263238" stroke-linecap="round" stroke-linejoin="round" stroke-width="1"/>
        <path id="Trazado_609709" data-name="Trazado 609709" d="M132.241,99.114l-6.123-2.477s.314,3.769.486,5.645l5.7-2.406a3.147,3.147,0,0,0-.067-.761" transform="translate(-76.47 -58.595)" fill="#263238"/>
        <path id="Trazado_609710" data-name="Trazado 609710" d="M132.241,99.114l-6.123-2.477s.314,3.769.486,5.645l5.7-2.406A3.147,3.147,0,0,0,132.241,99.114Z" transform="translate(-76.47 -58.595)" fill="none" stroke="#263238" stroke-linecap="round" stroke-linejoin="round" stroke-width="1"/>
        <path id="Trazado_609711" data-name="Trazado 609711" d="M127.455,69.833s1.1,6.047,1.1,7.147a17.016,17.016,0,0,1-1.466,5.04c-.458.733-2.749,1.191-3.665.824a14.2,14.2,0,0,1-4.031-3.757,7.586,7.586,0,0,1-.733-1.924,1.908,1.908,0,0,1-2.291-.916c-1.008-1.466-.458-2.841.55-2.932l.916.275s-1.649-2.84-1.1-4.123,7.147-1.741,8.521-1.741,2.2,2.107,2.2,2.107" transform="translate(-70.234 -41.065)" fill="#fff"/>
        <path id="Trazado_609712" data-name="Trazado 609712" d="M127.455,69.833s1.1,6.047,1.1,7.147a17.016,17.016,0,0,1-1.466,5.04c-.458.733-2.749,1.191-3.665.824a14.2,14.2,0,0,1-4.031-3.757,7.586,7.586,0,0,1-.733-1.924,1.908,1.908,0,0,1-2.291-.916c-1.008-1.466-.458-2.841.55-2.932l.916.275s-1.649-2.84-1.1-4.123,7.147-1.741,8.521-1.741S127.455,69.833,127.455,69.833Z" transform="translate(-70.234 -41.065)" fill="none" stroke="#263238" stroke-linecap="round" stroke-linejoin="round" stroke-width="1"/>
        <path id="Trazado_609713" data-name="Trazado 609713" d="M130.013,76.808l-1.461.648a.4.4,0,0,0-.187.557l.054.1a.4.4,0,0,0,.535.159l1.407-.745a.4.4,0,0,0-.348-.716" transform="translate(-77.802 -46.551)" fill="#263238"/>
        <path id="Trazado_609714" data-name="Trazado 609714" d="M130.013,76.808l-1.461.648a.4.4,0,0,0-.187.557l.054.1a.4.4,0,0,0,.535.159l1.407-.745a.4.4,0,0,0-.348-.716Z" transform="translate(-77.802 -46.551)" fill="none" stroke="#263238" stroke-linecap="round" stroke-linejoin="round" stroke-width="1"/>
        <path id="Trazado_609715" data-name="Trazado 609715" d="M139.5,75.683l-.007.026a.323.323,0,0,0,.241.4l1.127.254a.323.323,0,0,0,.15-.629l-1.12-.28a.324.324,0,0,0-.391.229" transform="translate(-84.571 -45.745)" fill="#263238"/>
        <path id="Trazado_609716" data-name="Trazado 609716" d="M139.5,75.683l-.007.026a.323.323,0,0,0,.241.4l1.127.254a.323.323,0,0,0,.15-.629l-1.12-.28A.324.324,0,0,0,139.5,75.683Z" transform="translate(-84.571 -45.745)" fill="none" stroke="#263238" stroke-linecap="round" stroke-linejoin="round" stroke-width="1"/>
        <path id="Trazado_609717" data-name="Trazado 609717" d="M135.846,91.883s-.179-2.09-.6-2.388-3.522-.06-3.522-.06-3.165-.9-3.224-.179c-.044.526.1,3.322.228,4.631a10.693,10.693,0,0,0,2.37,1.844c.916.367,3.207-.092,3.665-.825a15.543,15.543,0,0,0,1.083-3.01l0-.013m-.716.358c-.358,1.194-1.135,1.911-1.493,1.732s-.657-1.314-.955-1.433-.537.478-.9,1.015a1.336,1.336,0,0,1-1.731.358c-.418-.358-.9-3.642-.9-4.06s4.359.239,4.359.239a8.442,8.442,0,0,1,1.373-.06c.3.06.6,1.015.239,2.209" transform="translate(-77.91 -53.951)" fill="gray"/>
        <path id="Trazado_609718" data-name="Trazado 609718" d="M135.846,91.883s-.179-2.09-.6-2.388-3.522-.06-3.522-.06-3.165-.9-3.224-.179c-.044.526.1,3.322.228,4.631a10.693,10.693,0,0,0,2.37,1.844c.916.367,3.207-.092,3.665-.825a15.543,15.543,0,0,0,1.083-3.01Zm-.716.358c-.358,1.194-1.135,1.911-1.493,1.732s-.657-1.314-.955-1.433-.537.478-.9,1.015a1.336,1.336,0,0,1-1.731.358c-.418-.358-.9-3.642-.9-4.06s4.359.239,4.359.239a8.442,8.442,0,0,1,1.373-.06C135.189,90.092,135.487,91.047,135.129,92.242Z" transform="translate(-77.91 -53.951)" fill="none" stroke="#545454" stroke-linecap="round" stroke-linejoin="round" stroke-width="1"/>
        <path id="Trazado_609719" data-name="Trazado 609719" d="M132,91.959a5.093,5.093,0,0,0,3.583.776" transform="translate(-80.038 -55.758)" fill="none" stroke="#263238" stroke-linecap="round" stroke-linejoin="round" stroke-width="1"/>
        <path id="Trazado_609720" data-name="Trazado 609720" d="M136.745,79.218s.836,3.642.9,3.941-.6,1.254-1.314.716a2.1,2.1,0,0,1-.836-1.075" transform="translate(-82.153 -48.033)" fill="#fff"/>
        <path id="Trazado_609721" data-name="Trazado 609721" d="M136.745,79.218s.836,3.642.9,3.941-.6,1.254-1.314.716a2.1,2.1,0,0,1-.836-1.075" transform="translate(-82.153 -48.033)" fill="none" stroke="#263238" stroke-linecap="round" stroke-linejoin="round" stroke-width="1"/>
        <path id="Trazado_609722" data-name="Trazado 609722" d="M133.07,82.954c.1.315.059.606-.082.65s-.335-.177-.431-.492-.06-.606.082-.65.335.177.431.492" transform="translate(-80.341 -49.996)" fill="#263238"/>
        <path id="Trazado_609723" data-name="Trazado 609723" d="M142.083,81.61c.037.328-.051.607-.2.624s-.3-.235-.335-.562.05-.607.2-.624.3.235.336.562" transform="translate(-85.821 -49.142)" fill="#263238"/>
        <path id="Trazado_609724" data-name="Trazado 609724" d="M114.61,58.991s-2.382,2.382-1.466,4.4,3.207,5.773,3.207,5.773h.458l-.092-1.558s1.466-.55,1.191-1.832a5.66,5.66,0,0,0-.916-2.108,4.982,4.982,0,0,0,3.39.916c1.832-.275,2.657-2.474,3.3-1.741s1.649,1.191,3.573.183,3.152-4.422,1.044-5.8-4.068-.16-5.167.115-1.924-1.558-4.4-.825a10.311,10.311,0,0,0-4.123,2.474" transform="translate(-68.476 -34.163)" fill="#263238"/>
        <path id="Trazado_609725" data-name="Trazado 609725" d="M114.61,58.991s-2.382,2.382-1.466,4.4,3.207,5.773,3.207,5.773h.458l-.092-1.558s1.466-.55,1.191-1.832a5.66,5.66,0,0,0-.916-2.108,4.982,4.982,0,0,0,3.39.916c1.832-.275,2.657-2.474,3.3-1.741s1.649,1.191,3.573.183,3.152-4.422,1.044-5.8-4.068-.16-5.167.115-1.924-1.558-4.4-.825A10.311,10.311,0,0,0,114.61,58.991Z" transform="translate(-68.476 -34.163)" fill="none" stroke="#263238" stroke-linecap="round" stroke-linejoin="round" stroke-width="1"/>
      </g>
    </g>
    <g id="Grupo_1072446" data-name="Grupo 1072446">
      <g id="Grupo_1072445" data-name="Grupo 1072445" clip-path="url(#clip-path)">
        <circle id="Elipse_5924" data-name="Elipse 5924" cx="5.747" cy="5.747" r="5.747" transform="translate(62.115 69.762) rotate(-16.845)" fill="none" stroke="#263238" stroke-miterlimit="10" stroke-width="2"/>
        <line id="Línea_1029" data-name="Línea 1029" x2="6.207" y2="8.276" transform="translate(72.5 78.654)" fill="none" stroke="#263238" stroke-miterlimit="10" stroke-width="3"/>
        <path id="Trazado_609726" data-name="Trazado 609726" d="M139.875,171.527a7.142,7.142,0,0,1,.322,2.319c-.065,1.159.065,2.834.387,3.092s1.224.9.966,1.417a1.905,1.905,0,0,1-.837.773,12.384,12.384,0,0,1-.966,2.9c-.644,1.224-1.1,2.061-1.868,2.126a2.774,2.774,0,0,1-1.224-.129l-.837.838-6.377-1.353.193-2.834a15.149,15.149,0,0,1-1.932-6.635c0-3.349,3.414-5.282,5.411-5.41s5.733.709,6.764,2.9" transform="translate(-77.43 -102.238)" fill="#fff"/>
        <path id="Trazado_609727" data-name="Trazado 609727" d="M139.875,171.527a7.142,7.142,0,0,1,.322,2.319c-.065,1.159.065,2.834.387,3.092s1.224.9.966,1.417a1.905,1.905,0,0,1-.837.773,12.384,12.384,0,0,1-.966,2.9c-.644,1.224-1.1,2.061-1.868,2.126a2.774,2.774,0,0,1-1.224-.129l-.837.838-6.377-1.353.193-2.834a15.149,15.149,0,0,1-1.932-6.635c0-3.349,3.414-5.282,5.411-5.41S138.844,169.337,139.875,171.527Z" transform="translate(-77.43 -102.238)" fill="none" stroke="#263238" stroke-miterlimit="10" stroke-width="1"/>
        <path id="Trazado_609728" data-name="Trazado 609728" d="M139.738,165.765a2.764,2.764,0,0,1-.515,1.8,4.255,4.255,0,0,1-2.383,1.288,5.336,5.336,0,0,1-.451,2,3.946,3.946,0,0,1-1.288,1.031,1.1,1.1,0,0,0-.9,1.546c.387,1.417.709,1.61.065,2.77s-4.444,2.706-5.733,1.8a5.861,5.861,0,0,1-3.027-4.058c-.773-2.706-1.546-6.506.644-9.083s7.15-1.932,7.15-1.932-1.288-1.224.515-1.159a4.808,4.808,0,0,1,3.028,1.353s.193-1.288,1.159-.966,1.61,2.9,1.739,3.607" transform="translate(-75.618 -98.087)" fill="#263238"/>
        <path id="Trazado_609729" data-name="Trazado 609729" d="M139.738,165.765a2.764,2.764,0,0,1-.515,1.8,4.255,4.255,0,0,1-2.383,1.288,5.336,5.336,0,0,1-.451,2,3.946,3.946,0,0,1-1.288,1.031,1.1,1.1,0,0,0-.9,1.546c.387,1.417.709,1.61.065,2.77s-4.444,2.706-5.733,1.8a5.861,5.861,0,0,1-3.027-4.058c-.773-2.706-1.546-6.506.644-9.083s7.15-1.932,7.15-1.932-1.288-1.224.515-1.159a4.808,4.808,0,0,1,3.028,1.353s.193-1.288,1.159-.966S139.609,165.056,139.738,165.765Z" transform="translate(-75.618 -98.087)" fill="none" stroke="#263238" stroke-miterlimit="10" stroke-width="1"/>
        <path id="Trazado_609730" data-name="Trazado 609730" d="M148.918,187.667s-1.1-2.061-1.932-1.288,0,4.9,1.417,4.122" transform="translate(-88.92 -112.904)" fill="#fff"/>
        <path id="Trazado_609731" data-name="Trazado 609731" d="M148.918,187.667s-1.1-2.061-1.932-1.288,0,4.9,1.417,4.122" transform="translate(-88.92 -112.904)" fill="none" stroke="#263238" stroke-miterlimit="10" stroke-width="1"/>
        <line id="Línea_1030" data-name="Línea 1030" x2="5.218" transform="translate(59.482 73.798)" fill="none" stroke="#263238" stroke-miterlimit="10" stroke-width="1"/>
        <path id="Trazado_609732" data-name="Trazado 609732" d="M158.883,183.994a1.667,1.667,0,0,1,1.07-.074,1.626,1.626,0,0,1,1.169,1.2,1.647,1.647,0,0,1-.619,1.7" transform="translate(-96.337 -111.484)" fill="none" stroke="#263238" stroke-miterlimit="10" stroke-width="1"/>
        <path id="Trazado_609733" data-name="Trazado 609733" d="M133.582,207.155a3.211,3.211,0,0,0-1.89-2.519c-1.889-1.08-5.668-2.519-7.378-2.34s-2.7,2.609-2.7,2.609,6.748.63,8.367.99a22.236,22.236,0,0,1,3.6,1.26" transform="translate(-73.74 -122.651)" fill="#fff"/>
        <path id="Trazado_609734" data-name="Trazado 609734" d="M133.582,207.155a3.211,3.211,0,0,0-1.89-2.519c-1.889-1.08-5.668-2.519-7.378-2.34s-2.7,2.609-2.7,2.609,6.748.63,8.367.99A22.236,22.236,0,0,1,133.582,207.155Z" transform="translate(-73.74 -122.651)" fill="none" stroke="#263238" stroke-miterlimit="10" stroke-width="1"/>
        <path id="Trazado_609735" data-name="Trazado 609735" d="M57.164,238.431S55,240.95,52.126,244.549s-5.218,7.288-5.218,7.288-2.7,2.339-3.059,3.329-1.26,3.869-1.62,4.679,1.259-.27,1.529-.9a9.968,9.968,0,0,1,.54-1.079l2.34-1.08s-.72,1.8,0,2.069.81-.99,1.62-1.979,1.529-1.71,1.62-2.879a19.08,19.08,0,0,0,0-2.429L61.393,244.1Z" transform="translate(-25.573 -144.57)" fill="#fff"/>
        <path id="Trazado_609736" data-name="Trazado 609736" d="M57.164,238.431S55,240.95,52.126,244.549s-5.218,7.288-5.218,7.288-2.7,2.339-3.059,3.329-1.26,3.869-1.62,4.679,1.259-.27,1.529-.9a9.968,9.968,0,0,1,.54-1.079l2.34-1.08s-.72,1.8,0,2.069.81-.99,1.62-1.979,1.529-1.71,1.62-2.879a19.08,19.08,0,0,0,0-2.429L61.393,244.1Z" transform="translate(-25.573 -144.57)" fill="none" stroke="#263238" stroke-miterlimit="10" stroke-width="1"/>
        <path id="Trazado_609737" data-name="Trazado 609737" d="M47.566,282.881l1.066-1.6a5.74,5.74,0,0,0,1.44-.646,3.991,3.991,0,0,0,1.043-.944" transform="translate(-28.841 -169.586)" fill="none" stroke="#263238" stroke-miterlimit="10" stroke-width="1"/>
        <path id="Trazado_609738" data-name="Trazado 609738" d="M179.577,212.265l2.916-6.133a24.466,24.466,0,0,1,.7-2.715c.2-.352,1.408-2.262,1.86-2.312s.905.151.955.553a1.123,1.123,0,0,1-.151.7,3.469,3.469,0,0,1,1.156.955,3.233,3.233,0,0,1,.6,1.558c.1.4.453.452.05,1.307a3.176,3.176,0,0,1-1.408,1.357,11.155,11.155,0,0,1-1.207.653s-.05,5.781-.754,8.044a13.312,13.312,0,0,1-1.207,3.016s-1.207-4.122-1.91-4.927-1.608-2.061-1.608-2.061" transform="translate(-108.884 -121.933)" fill="#fff"/>
        <path id="Trazado_609739" data-name="Trazado 609739" d="M179.577,212.265l2.916-6.133a24.466,24.466,0,0,1,.7-2.715c.2-.352,1.408-2.262,1.86-2.312s.905.151.955.553a1.123,1.123,0,0,1-.151.7,3.469,3.469,0,0,1,1.156.955,3.233,3.233,0,0,1,.6,1.558c.1.4.453.452.05,1.307a3.176,3.176,0,0,1-1.408,1.357,11.155,11.155,0,0,1-1.207.653s-.05,5.781-.754,8.044a13.312,13.312,0,0,1-1.207,3.016s-1.207-4.122-1.91-4.927S179.577,212.265,179.577,212.265Z" transform="translate(-108.884 -121.933)" fill="none" stroke="#263238" stroke-miterlimit="10" stroke-width="1"/>
        <path id="Trazado_609740" data-name="Trazado 609740" d="M65.134,269.166s-3.835,9.895-4.494,12.2A71.367,71.367,0,0,0,57.766,294.3a37.982,37.982,0,0,0,.033,7.265,61.3,61.3,0,0,0-2.743,6.363c-1.426,3.84-6.265,22.877-6.265,22.877a2.825,2.825,0,0,0,2.852.988l1.975-.329a3.59,3.59,0,0,0,1.426-.109c.768-.22,2.523-.11,2.633-.878s-.439-.987-1.1-1.755a17.7,17.7,0,0,1-1.646-3.181s5.485-9.614,7.46-13.125,4.729-10.081,4.839-11.069,5.59-15.495,5.59-15.495h1.207l8.661,14.5s-.329,5.814.658,9.215S86.641,325.8,86.641,325.8l-.219,2.3a7.5,7.5,0,0,1,.439,1.426v1.207s.329.768,2.523.768c.987,0,4.278-.329,4.827-.439s4.717-.219,4.827-.768.219-.988-.439-1.207-5.376-2.414-5.376-2.414V324.7a3.616,3.616,0,0,1-1.1-1.316c-.22-.659.219-18.321,0-21.393s.109-3.072-.768-5.814S87,274.2,87,274.2l-1.777-3.057-18.65-3.84Z" transform="translate(-29.584 -162.079)" fill="#263238"/>
        <path id="Trazado_609741" data-name="Trazado 609741" d="M65.134,269.166s-3.835,9.895-4.494,12.2A71.367,71.367,0,0,0,57.766,294.3a37.982,37.982,0,0,0,.033,7.265,61.3,61.3,0,0,0-2.743,6.363c-1.426,3.84-6.265,22.877-6.265,22.877a2.825,2.825,0,0,0,2.852.988l1.975-.329a3.59,3.59,0,0,0,1.426-.109c.768-.22,2.523-.11,2.633-.878s-.439-.987-1.1-1.755a17.7,17.7,0,0,1-1.646-3.181s5.485-9.614,7.46-13.125,4.729-10.081,4.839-11.069,5.59-15.495,5.59-15.495h1.207l8.661,14.5s-.329,5.814.658,9.215S86.641,325.8,86.641,325.8l-.219,2.3a7.5,7.5,0,0,1,.439,1.426v1.207s.329.768,2.523.768c.987,0,4.278-.329,4.827-.439s4.717-.219,4.827-.768.219-.988-.439-1.207-5.376-2.414-5.376-2.414V324.7a3.616,3.616,0,0,1-1.1-1.316c-.22-.659.219-18.321,0-21.393s.109-3.072-.768-5.814S87,274.2,87,274.2l-1.777-3.057-18.65-3.84Z" transform="translate(-29.584 -162.079)" fill="none" stroke="#263238" stroke-miterlimit="10" stroke-width="1"/>
        <path id="Trazado_609742" data-name="Trazado 609742" d="M176.15,228.786s.36-1.17,1.889-.63,3.869,4.948,3.329,7.288-1.979,3.149-3.239,3.059-2.789-1.619-2.429-1.8.45-7.917.45-7.917" transform="translate(-106.501 -138.253)" fill="#fff"/>
        <path id="Trazado_609743" data-name="Trazado 609743" d="M176.15,228.786s.36-1.17,1.889-.63,3.869,4.948,3.329,7.288-1.979,3.149-3.239,3.059-2.789-1.619-2.429-1.8S176.15,228.786,176.15,228.786Z" transform="translate(-106.501 -138.253)" fill="none" stroke="#263238" stroke-miterlimit="10" stroke-width="1"/>
        <path id="Trazado_609744" data-name="Trazado 609744" d="M83.719,227.087s-.63,0-1.529-.09-2.16,1.44-2.879,2.34-1.62,1.439-.99,3.329,2.339,4.319,4.859,4.5a5.463,5.463,0,0,0,3.959-1.17Z" transform="translate(-47.36 -137.635)" fill="#fff"/>
        <path id="Trazado_609745" data-name="Trazado 609745" d="M83.719,227.087s-.63,0-1.529-.09-2.16,1.44-2.879,2.34-1.62,1.439-.99,3.329,2.339,4.319,4.859,4.5a5.463,5.463,0,0,0,3.959-1.17Z" transform="translate(-47.36 -137.635)" fill="none" stroke="#263238" stroke-miterlimit="10" stroke-width="1"/>
        <path id="Trazado_609746" data-name="Trazado 609746" d="M99.024,208.738s-1.44-.18-4.5,1.529-9.627,7.018-10.077,7.918.81,4.948,2.429,5.668a4.353,4.353,0,0,0,3.059.18L86.7,233.57a47.2,47.2,0,0,1,9.627.9,53.87,53.87,0,0,1,12.236,4.139s.45-.09.54-1.259a5.99,5.99,0,0,1,.72-2.429c.27-.54,3.689-12.146,3.689-12.146s6.748,2.969,8.548,2.969,2.429-3.239,1.709-5.668a4.975,4.975,0,0,0-2.249-3.149,12.089,12.089,0,0,1-3.779-2.07,48.42,48.42,0,0,0-6.748-3.869s-7.2-3.059-11.966-2.249" transform="translate(-51.149 -126.483)" fill="#92e3a9"/>
        <path id="Trazado_609747" data-name="Trazado 609747" d="M99.024,208.738s-1.44-.18-4.5,1.529-9.627,7.018-10.077,7.918.81,4.948,2.429,5.668a4.353,4.353,0,0,0,3.059.18L86.7,233.57a47.2,47.2,0,0,1,9.627.9,53.87,53.87,0,0,1,12.236,4.139s.45-.09.54-1.259a5.99,5.99,0,0,1,.72-2.429c.27-.54,3.689-12.146,3.689-12.146s6.748,2.969,8.548,2.969,2.429-3.239,1.709-5.668a4.975,4.975,0,0,0-2.249-3.149,12.089,12.089,0,0,1-3.779-2.07,48.42,48.42,0,0,0-6.748-3.869S103.793,207.928,99.024,208.738Z" transform="translate(-51.149 -126.483)" fill="none" stroke="#263238" stroke-miterlimit="10" stroke-width="1"/>
        <path id="Trazado_609748" data-name="Trazado 609748" d="M150.537,239.8l2.609,1.89-3.419-.81" transform="translate(-90.786 -145.401)" fill="none" stroke="#263238" stroke-miterlimit="10" stroke-width="1"/>
        <line id="Línea_1031" data-name="Línea 1031" y1="1.462" x2="0.468" transform="translate(41.83 86.574)" fill="none" stroke="#263238" stroke-miterlimit="10" stroke-width="1"/>
        <line id="Línea_1032" data-name="Línea 1032" y1="8.104" x2="2.59" transform="translate(38.788 89.447)" fill="none" stroke="#263238" stroke-miterlimit="10" stroke-width="1"/>
      </g>
    </g>
  </g>
</svg>
