<svg xmlns="http://www.w3.org/2000/svg" width="142" height="142" viewBox="0 0 142 142">
  <g id="Grupo_1072424" data-name="Grupo 1072424" transform="translate(-420 -4005.204)">
    <g id="Grupo_1072216" data-name="Grupo 1072216" transform="translate(150.999 3047.203)">
      <circle id="Elipse_5614" data-name="Elipse 5614" cx="71" cy="71" r="71" transform="translate(269.001 958.001)" fill="#fff"/>
    </g>
    <path id="Trazado_609606" data-name="Trazado 609606" d="M-8209.309-7624.773s-4.987-7.263-4.812-9.363,1.051-9.276,1.226-9.538,3.411-4.725,3.587-5.337,4.463-4.288,4.463-4.288,4.113-1.4,4.726-1.75a48.581,48.581,0,0,1,5.95-.962s4.025-.262,4.463,0,6.65,3.762,6.825,4.025,4.988,4.9,4.988,4.9a45.244,45.244,0,0,1,1.663,6.3c.175,1.838.788,4.726,1.225,5.076s3.063,2.975,3.938,3.763,2.45,2.275,1.925,2.275-7.263,2.45-7.613,2.538-6.125,3.588-6.125,3.588-1.312-1.138-1.487-1.225-4.638-6.388-5.338-6.388-5.338-1.576-5.163-1.838,5.163-4.288,5.163-4.288a29.318,29.318,0,0,0,0-3.938c-.175-.437-.962-3.237-1.312-3.5a33.968,33.968,0,0,0-4.463-1.838c-.525-.087-4.463-.438-4.638,0s-2.45,1.925-2.275,3.238.351,5.775.7,6.65a18.775,18.775,0,0,0,1.575,2.538,3.034,3.034,0,0,1-1.575,2.976c-1.312.612-4.812,2.45-4.812,2.8A32.03,32.03,0,0,1-8209.309-7624.773Z" transform="translate(8656 11700)" fill="#6debff" stroke="#707070" stroke-width="1"/>
    <path id="Trazado_609607" data-name="Trazado 609607" d="M-8169.662-7615.317l-3.675,5.163s-1.837,1.925-1.75,2.188a10.9,10.9,0,0,0,3.063,2.363,22.025,22.025,0,0,0,5.025,1.225,21.7,21.7,0,0,0,5.388-.525c.525-.175,4.288-4.375,4.288-4.375l8.838-13.563,2.712-6.038v-2.538s-3.238-4.375-3.413-4.726-2.363-3.238-2.363-3.238-1.225-1.4-2.1-.612-5.338,6.213-5.338,6.213.175,2.1.525,2.363,2.625,2.538,2.625,2.538a20.23,20.23,0,0,1-.7,4.025c-.437.963-7.088,10.063-7.088,10.063l-2.362.525Z" transform="translate(8656 11700)" fill="#64e1bc"/>
    <path id="Trazado_609608" data-name="Trazado 609608" d="M-8194.257-7623.251l3.3-5.048s2.154-2.9,3.029-2.962,4.711-.673,4.914-.673a24.221,24.221,0,0,1,3.837,0c.606.2,3.366,1.548,3.9,1.817s1.75,1.683,2.423,2.154a17.626,17.626,0,0,1,2.222,3.366s.471,2.76-.337,2.827-8.75,1.817-9.02,1.817-7.4.067-7.943,0S-8194.257-7623.251-8194.257-7623.251Z" transform="translate(8642 11700)" fill="#f5714f"/>
    <g id="_x32_5" transform="translate(437.004 4028.833)">
      <path id="Trazado_609603" data-name="Trazado 609603" d="M17.6,53.4V84.272a7.473,7.473,0,0,0,7.456,7.474H83.868a7.482,7.482,0,0,0,7.474-7.474V9.955A7.473,7.473,0,0,0,83.868,2.5H25.059A7.464,7.464,0,0,0,17.6,9.955v4.117A21.439,21.439,0,0,0,3.94,27.032,19.961,19.961,0,0,0,17.6,53.4Zm-.045-22.214a5.153,5.153,0,1,1,5.189,5.149l-.041,0-.033,0a5.156,5.156,0,0,1-5.115-5.149Zm5.153,8.872.027,0a10.863,10.863,0,0,1,10.209,7.364c-.063.041-.12.086-.184.127A18.262,18.262,0,0,1,22.542,50.35a16.475,16.475,0,0,1-9.856-3.513,10.763,10.763,0,0,1,9.986-6.785c.013,0,.025,0,.038,0Zm16.589,6.8q.411-.447.787-.913a25.426,25.426,0,0,0,5.042-.638,25.24,25.24,0,0,0,6.383-2.469,1.859,1.859,0,0,0,.168-3.149,31.618,31.618,0,0,1-7-6.868,19.756,19.756,0,0,0-5.541-13.579H78.1a2.085,2.085,0,0,1,2.083,2.083v50.87A2.085,2.085,0,0,1,78.1,74.269H30.841a2.085,2.085,0,0,1-2.083-2.083V53.314A21.934,21.934,0,0,0,39.3,46.851ZM21.321,9.956a3.741,3.741,0,0,1,3.738-3.737H83.868a3.75,3.75,0,0,1,3.756,3.737V84.272a3.76,3.76,0,0,1-3.756,3.756H25.059a3.751,3.751,0,0,1-3.738-3.756V54.043a18.589,18.589,0,0,0,3.719-.035V72.186a5.808,5.808,0,0,0,5.8,5.8H78.1a5.808,5.808,0,0,0,5.8-5.8V21.316a5.808,5.808,0,0,0-5.8-5.8H34.267c-.014,0-.025.007-.038.008a21.177,21.177,0,0,0-12.907-2.306ZM7.427,28.325c5.3-14.3,25.509-15.671,31.936-2.36a16.135,16.135,0,0,1,1.6,7.41,1.863,1.863,0,0,0,.343,1.113,34.552,34.552,0,0,0,3.186,3.856c.834.871,1.708,1.7,2.595,2.462a21.488,21.488,0,0,1-2.8.872,21.771,21.771,0,0,1-5.1.547A2.052,2.052,0,0,0,37.646,43a13.746,13.746,0,0,1-1.094,1.341c-.194.216-.4.4-.6.6a14.652,14.652,0,0,0-7.222-7.289,8.871,8.871,0,1,0-12.054-.006,14.154,14.154,0,0,0-6.807,6.467A16.111,16.111,0,0,1,7.427,28.325Z" transform="translate(0 0)"/>
      <path id="Trazado_609604" data-name="Trazado 609604" d="M25.788,53.785a16.482,16.482,0,0,0,8.966,2.806,10.725,10.725,0,0,0,8.789-4A176.288,176.288,0,0,0,55.647,34.2c3.006-5.255.4-12.631-5.92-16.794h0a3.581,3.581,0,0,0-5.043.711l-3.539,5.379c-1.484,2.256-.511,5.526,2.17,7.29a.785.785,0,0,1,.108.087,74.392,74.392,0,0,1-7.767,11.8.714.714,0,0,1-.124-.064c-2.724-1.792-6.045-1.4-7.553.892l-3.532,5.369a3.579,3.579,0,0,0,1.344,4.913Zm5.3-8.238c.263-.4,1.332-.537,2.4.17a3.642,3.642,0,0,0,4.86-.458,78.093,78.093,0,0,0,8.512-12.938,3.639,3.639,0,0,0-1.5-4.646c-1.071-.7-1.371-1.738-1.107-2.139l3.341-5.079a.74.74,0,0,1,.092.051h0c4.689,3.085,6.77,8.286,4.736,11.84A172.679,172.679,0,0,1,40.571,50.357c-2.412,3.211-8.127,3.357-12.738.321a.668.668,0,0,1-.084-.064Z" transform="translate(18.291 12.194)"/>
      <path id="Trazado_609605" data-name="Trazado 609605" d="M29.226,9.749h8.013a1.859,1.859,0,0,0,0-3.719H29.226a1.859,1.859,0,0,0,0,3.719Z" transform="translate(21.24 3.034)"/>
      <circle id="Elipse_5909" data-name="Elipse 5909" cx="1.952" cy="1.952" r="1.952" transform="translate(52.521 81.236)"/>
    </g>
  </g>
</svg>
