<svg xmlns="http://www.w3.org/2000/svg" width="141" height="141" viewBox="0 0 141 141">
  <g id="Group_1075268" data-name="Group 1075268" transform="translate(-730 -15087.826)">
    <g id="Group_1075127" data-name="Group 1075127" transform="translate(461 14129.826)">
      <circle id="Ellipse_5614" data-name="Ellipse 5614" cx="70.5" cy="70.5" r="70.5" transform="translate(269 958)" fill="#fff"/>
    </g>
    <g id="recursos-humanos" transform="translate(753 15112.99)">
      <path id="Path_614490" data-name="Path 614490" d="M0,0H42.229V63.344H0Z" transform="translate(44.229 65.344) rotate(180)" fill="#88929f"/>
      <path id="Path_614491" data-name="Path 614491" d="M0,0H18.1V12.066H0Z" transform="translate(26.131 59.311) rotate(180)" fill="#fff"/>
      <path id="Path_614492" data-name="Path 614492" d="M0,0H30.164V33.18H0Z" transform="translate(38.197 41.213) rotate(180)" fill="#ebf7fe"/>
      <path id="Path_614493" data-name="Path 614493" d="M28.1,32.066V23.016A3.016,3.016,0,0,0,25.082,20H13.016A3.016,3.016,0,0,0,10,23.016v9.049Z" transform="translate(4.066 9.147)" fill="#669e54"/>
      <path id="Path_614494" data-name="Path 614494" d="M17.525,10A4.524,4.524,0,0,0,13,14.525v3.016a4.525,4.525,0,1,0,9.049,0V14.525A4.524,4.524,0,0,0,17.525,10Z" transform="translate(5.59 4.066)" fill="#efbe9c"/>
      <g id="Group_1075232" data-name="Group 1075232" transform="translate(11.049 51.77)">
        <path id="Path_614495" data-name="Path 614495" d="M8,35H23.082v3.016H8Z" transform="translate(-8 -35)" fill="#88929f"/>
      </g>
      <g id="Group_1075233" data-name="Group 1075233" transform="translate(17.082 33.672)">
        <path id="Path_614496" data-name="Path 614496" d="M12,23h3.016v7.541H12Z" transform="translate(-12 -23)" fill="#4d773f"/>
      </g>
      <path id="Path_614497" data-name="Path 614497" d="M34,2H76.229V65.344H34Z" transform="translate(16.262)" fill="#88929f"/>
      <path id="Path_614498" data-name="Path 614498" d="M46,32H64.1V44.066H46Z" transform="translate(22.36 15.246)" fill="#fff"/>
      <path id="Path_614499" data-name="Path 614499" d="M38,6H68.164V39.18H38Z" transform="translate(18.295 2.033)" fill="#ebf7fe"/>
      <path id="Path_614500" data-name="Path 614500" d="M42,32.066V23.016A3.016,3.016,0,0,1,45.016,20H57.082A3.016,3.016,0,0,1,60.1,23.016v9.049Z" transform="translate(20.328 9.147)" fill="#669e54"/>
      <path id="Path_614501" data-name="Path 614501" d="M49.525,10a4.524,4.524,0,0,1,4.525,4.525v3.016a4.525,4.525,0,1,1-9.049,0V14.525A4.524,4.524,0,0,1,49.525,10Z" transform="translate(21.852 4.066)" fill="#efbe9c"/>
      <path id="Path_614502" data-name="Path 614502" d="M18,6H60.229V66.328H18Z" transform="translate(8.131 2.033)" fill="#b8bec5"/>
      <path id="Path_614503" data-name="Path 614503" d="M22,10H52.164V43.18H22Z" transform="translate(10.164 4.066)" fill="#ebf7fe"/>
      <path id="Path_614504" data-name="Path 614504" d="M26,36.066V27.016A3.016,3.016,0,0,1,29.016,24H41.082A3.016,3.016,0,0,1,44.1,27.016v9.049Z" transform="translate(12.197 11.18)" fill="#4472b0"/>
      <g id="Group_1075234" data-name="Group 1075234" transform="translate(50.262 39.705)">
        <path id="Path_614505" data-name="Path 614505" d="M34,27h3.016v7.541H34Z" transform="translate(-34 -27)" fill="#2d4d81"/>
      </g>
      <g id="Group_1075235" data-name="Group 1075235" transform="translate(41.213 39.705)">
        <path id="Path_614506" data-name="Path 614506" d="M28,27h3.016v7.541H28Z" transform="translate(-28 -27)" fill="#2d4d81"/>
      </g>
      <path id="Path_614507" data-name="Path 614507" d="M33.525,14a4.524,4.524,0,0,1,4.525,4.525v3.016a4.525,4.525,0,1,1-9.049,0V18.525A4.524,4.524,0,0,1,33.525,14Z" transform="translate(13.721 6.098)" fill="#efbe9c"/>
      <g id="Group_1075236" data-name="Group 1075236" transform="translate(68.36 51.77)">
        <path id="Path_614508" data-name="Path 614508" d="M46,35H61.082v3.016H46Z" transform="translate(-46 -35)" fill="#88929f"/>
      </g>
      <g id="Group_1075237" data-name="Group 1075237" transform="translate(74.393 33.672)">
        <path id="Path_614509" data-name="Path 614509" d="M50,23h3.016v7.541H50Z" transform="translate(-50 -23)" fill="#4d773f"/>
      </g>
      <path id="Path_614510" data-name="Path 614510" d="M49.147,49.066a3.016,3.016,0,0,0-3.016,3.016,3.016,3.016,0,1,0-6.033,0,3.016,3.016,0,1,0-6.033,0V40.016a3.016,3.016,0,1,0-6.033,0v18.1a3.016,3.016,0,1,0-6.033,0V61.39a10.293,10.293,0,0,0,3.016,7.282,10.293,10.293,0,0,1,3.016,7.282v.259H49.147V75.061a14.279,14.279,0,0,1,1.508-6.389,14.279,14.279,0,0,0,1.508-6.389v-10.2A3.016,3.016,0,0,0,49.147,49.066Z" transform="translate(10.164 17.787)" fill="#efbe9c"/>
    </g>
  </g>
</svg>
