<svg xmlns="http://www.w3.org/2000/svg" width="62.504" height="62.504" viewBox="0 0 62.504 62.504">
  <g id="Group_1075270" data-name="Group 1075270" transform="translate(-1013 -17921.826)">
    <g id="Group_1075266" data-name="Group 1075266">
      <g id="Group_1075254" data-name="Group 1075254" transform="translate(732.688 16722.643)">
        <g id="Group_1072053" data-name="Group 1072053" transform="translate(280.313 1199.184)">
          <circle id="Ellipse_4742" data-name="Ellipse 4742" cx="31.252" cy="31.252" r="31.252" transform="translate(0)" fill="#eba325"/>
        </g>
      </g>
      <g id="comercio_1_" data-name="comercio (1)" transform="translate(1024 17932.822)">
        <g id="Group_1075261" data-name="Group 1075261" transform="translate(2.667 33.342)">
          <g id="Group_1075260" data-name="Group 1075260">
            <path id="Path_614582" data-name="Path 614582" d="M34,400a2,2,0,1,0,2,2A2,2,0,0,0,34,400Zm0,2.667a.667.667,0,1,1,.667-.667A.667.667,0,0,1,34,402.671Z" transform="translate(-32 -400.004)"/>
          </g>
        </g>
        <g id="Group_1075263" data-name="Group 1075263" transform="translate(0 0.004)">
          <g id="Group_1075262" data-name="Group 1075262" transform="translate(0 0)">
            <path id="Path_614583" data-name="Path 614583" d="M39.547,28.239a3.221,3.221,0,0,0-2.763-1.564h-.141a3.23,3.23,0,0,0-1.516.379L30,29.786V20.674h2.334a3.667,3.667,0,1,0,0-7.334H18a3.334,3.334,0,1,1,0-6.668h2.334l3.8,5.067a.667.667,0,0,0,.533.267H39.339a.667.667,0,0,0,.667-.667V.671A.667.667,0,0,0,39.339,0H24.67a.667.667,0,0,0-.533.267l-3.8,5.067H18a4.667,4.667,0,1,0,0,9.335H32.338a2.334,2.334,0,1,1,0,4.667H30V16.673a.667.667,0,0,0-.667-.667H10.668a.667.667,0,0,0-.667.667v10a9.92,9.92,0,0,0-1.5.667H0v1.334H8v10H0V40.01H25.265a3.333,3.333,0,0,0,1.716-.475l11.461-6.876A3.221,3.221,0,0,0,39.547,28.239ZM26.012,7.891a2,2,0,1,0-2.553-2.553H22l3-4H38.672v9.335H25l-3-4h1.456A2,2,0,0,0,26.012,7.891ZM24.67,6a.667.667,0,1,1,.667.667A.667.667,0,0,1,24.67,6Zm-6,11.335h2.667v2.667H18.669Zm-7.334,0h6v3.334A.667.667,0,0,0,18,21.34h4a.667.667,0,0,0,.667-.667V17.34h6V30.5l-1.092.582a3,3,0,0,0-2.908-3.738H18.177a10.118,10.118,0,0,0-6.842-1.035Zm26.42,14.175L26.294,38.391a2,2,0,0,1-1.029.285H9.335V28.408a8.781,8.781,0,0,1,8.335.182.662.662,0,0,0,.333.085H24.67a1.667,1.667,0,1,1,0,3.334h-6a.667.667,0,0,0,0,1.334H26a.666.666,0,0,0,.314-.078l9.438-5.034a1.894,1.894,0,0,1,.888-.222h.141a1.888,1.888,0,0,1,.971,3.506Z" transform="translate(0 -0.004)"/>
          </g>
        </g>
        <g id="Group_1075265" data-name="Group 1075265" transform="translate(32.004 2.671)">
          <g id="Group_1075264" data-name="Group 1075264">
            <path id="Path_614584" data-name="Path 614584" d="M387.984,36.36a1.486,1.486,0,0,0-.817-1.179l-1.755-.877a.157.157,0,0,1,.067-.3h2.512V32.671h-1.333V32h-1.334v.683a1.486,1.486,0,0,0-.509,2.808l1.755.877a.157.157,0,0,1-.067.3H383.99V38h1.334v.667h1.334v-.683A1.486,1.486,0,0,0,387.984,36.36Z" transform="translate(-383.989 -32.004)"/>
          </g>
        </g>
      </g>
    </g>
  </g>
</svg>
