<svg xmlns="http://www.w3.org/2000/svg" width="62.504" height="62.504" viewBox="0 0 62.504 62.504">
  <g id="Group_1075271" data-name="Group 1075271" transform="translate(-1261 -17921.826)">
    <g id="Group_1075255" data-name="Group 1075255" transform="translate(980.688 16722.643)">
      <g id="Group_1072053" data-name="Group 1072053" transform="translate(280.313 1199.184)">
        <circle id="Ellipse_4742" data-name="Ellipse 4742" cx="31.252" cy="31.252" r="31.252" transform="translate(0)" fill="#eba325"/>
      </g>
    </g>
    <g id="apreton-de-manos" transform="translate(1270.001 17931.326)">
      <path id="Path_614577" data-name="Path 614577" d="M44.144,109.6l-7.419-9.637a.869.869,0,0,0-1.155-.2l-4.79,3.046H24.533a.862.862,0,0,0-.239.04l-4.844,1.394-5.026-1.375L9.54,99.761a.869.869,0,0,0-1.143.187L.192,110.113a.869.869,0,0,0,.11,1.2l4.3,3.7,3.859,5.2a3.069,3.069,0,0,0,1.931,5.155,3.091,3.091,0,0,0-.036.47,3.072,3.072,0,0,0,3.072,3.072h.033c0,.021,0,.042,0,.063a3.071,3.071,0,0,0,3.072,3.072,3.135,3.135,0,0,0,.48-.038,3.072,3.072,0,0,0,5.227,1.87l.47-.47.2.159a3.07,3.07,0,0,0,5.205-2.256,3.066,3.066,0,0,0,3.118-3.116,3.069,3.069,0,0,0,3.118-3.119,3.07,3.07,0,0,0,2.624-4.743l2.817-5.9,4.236-3.645a.869.869,0,0,0,.122-1.189ZM9.263,101.644l3.512,2.233-7.639,9.307-3.061-2.635Zm.5,19.732,1.06-1.06c.032-.032.066-.063.1-.091a1.33,1.33,0,0,1,.724-.294h.023c.038,0,.076-.005.114,0a1.325,1.325,0,0,1,.951.418,1.366,1.366,0,0,1-.059,1.891l-1.028,1.028a1.333,1.333,0,0,1-1.885-1.886Zm2.727,5.409a1.333,1.333,0,0,1,0-1.885l2.055-2.055a1.347,1.347,0,0,1,1.516-.262,1.329,1.329,0,0,1,.735,1.377,1.407,1.407,0,0,1-.4.8l-2.023,2.022a1.333,1.333,0,0,1-1.886,0Zm3.1,3.133a1.333,1.333,0,0,1,0-1.885l2.055-2.055a1.348,1.348,0,0,1,1.612-.211,1.327,1.327,0,0,1,.636,1.347,1.409,1.409,0,0,1-.395.782l-2.022,2.022a1.333,1.333,0,0,1-1.886,0Zm3.535,2.732a1.335,1.335,0,0,1,0-1.885l1.06-1.06c.032-.032.066-.062.1-.091l0,0a1.328,1.328,0,0,1,.591-.275l.015,0c.037-.007.075-.012.113-.016l.046,0c.031,0,.062,0,.093,0a1.325,1.325,0,0,1,.951.418,1.2,1.2,0,0,1,.086.1,1.376,1.376,0,0,1-.15,1.8l-1.022,1.022a1.335,1.335,0,0,1-1.885,0Zm16.214-9.7a1.334,1.334,0,0,1-1.885,0,.8.8,0,0,0-.059-.053L27.8,117.251a.869.869,0,0,0-1.236,1.223l5.649,5.708,0,0a1.333,1.333,0,1,1-1.886,1.886l-3.779-3.818a.869.869,0,1,0-1.235,1.223l3.721,3.76a.822.822,0,0,0,.061.068,1.333,1.333,0,1,1-1.886,1.885L25.152,127.1a.869.869,0,0,0-1.236,1.223l2.005,2.026a.778.778,0,0,0,.061.068A1.333,1.333,0,1,1,24.1,132.3a1.923,1.923,0,0,0-.2-.157c-.057-.043-.072-.073-.043-.142s.072-.133.1-.2.057-.159.083-.24a3.134,3.134,0,0,0,.113-1.337,3.04,3.04,0,0,0-2.591-2.616,3.1,3.1,0,0,0-.744-2.8,3.049,3.049,0,0,0-2.189-.961h-.092a3.042,3.042,0,0,0-3.011-3.133,3.125,3.125,0,0,0-.742.079A3.06,3.06,0,0,0,9.7,118.977l-3.36-4.527,8.038-9.792,2.562.7-3.346,5.9a3.072,3.072,0,0,0,1.158,4.187q.067.038.135.072l.01.005a3.094,3.094,0,0,0,.369.155,3.071,3.071,0,0,0,3.672-1.39l2.174-3.837,3.882.275,10.337,10.337a1.335,1.335,0,0,1,0,1.886Zm.36-3.984-9.7-9.7a.771.771,0,0,0-.057-.053.87.87,0,0,0-.5-.2l-4.753-.337a.883.883,0,0,0-.818.439l-2.444,4.314a1.333,1.333,0,1,1-2.32-1.315l3.263-5.759,1.322-.38.026-.009,4.935-1.425H30.62l7.444,9.463Zm3.507-6.323-6.884-8.756,3.513-2.234,6.432,8.355Zm0,0" transform="translate(0 -90.544)"/>
      <path id="Path_614578" data-name="Path 614578" d="M301.014,36.546a.867.867,0,0,0,.615-.255l5.937-5.937a.869.869,0,0,0-1.229-1.229L300.4,35.062a.869.869,0,0,0,.614,1.484Zm0,0" transform="translate(-274.161 -25.915)"/>
      <path id="Path_614579" data-name="Path 614579" d="M129.387,36.292a.869.869,0,0,0,1.229-1.229l-5.937-5.937a.869.869,0,0,0-1.229,1.229Zm0,0" transform="translate(-112.531 -25.915)"/>
      <path id="Path_614580" data-name="Path 614580" d="M246.83,47.35a.869.869,0,0,0,.869-.869V41.568a.869.869,0,1,0-1.738,0v4.913A.869.869,0,0,0,246.83,47.35Zm0,0" transform="translate(-224.668 -36.719)"/>
      <path id="Path_614581" data-name="Path 614581" d="M246.051,1.7A.869.869,0,1,0,247.382.677.869.869,0,0,0,246.051,1.7Zm0,0" transform="translate(-224.691)"/>
    </g>
  </g>
</svg>
