<svg xmlns="http://www.w3.org/2000/svg" width="114.88" height="114.879" viewBox="0 0 114.88 114.879">
  <g id="Grupo_1075182" data-name="Grupo 1075182" transform="translate(-1163 -33772.828)">
    <g id="Grupo_1074327" data-name="Grupo 1074327" transform="translate(1163 33772.828)">
      <path id="Trazado_608385" data-name="Trazado 608385" d="M57.44,0A57.44,57.44,0,1,1,0,57.44,57.44,57.44,0,0,1,57.44,0Z" transform="translate(0 0)" fill="#e1efe3"/>
    </g>
    <g id="contabilidad_2_" data-name="contabilidad (2)" transform="translate(1185 33794.828)">
      <circle id="Elipse_6019" data-name="Elipse 6019" cx="0.961" cy="0.961" r="0.961" transform="translate(19.255 14.541)" fill="#03386e"/>
      <path id="Trazado_612560" data-name="Trazado 612560" d="M61.331,1V30.048H59.1V7.7H50.158V30.048H47.924V14.407H38.986V30.048H36.752V21.11H27.814V32.283H48.579L40.97,39.891a4.541,4.541,0,0,1-6.2.207l-4.248-3.717A14.471,14.471,0,0,0,22.76,32.9l-3.885-.486V29.847l.5.1a5.186,5.186,0,0,0,6.2-5.083V20.456l2.7-2.7-.79-.79a6.468,6.468,0,0,1-1.907-4.605V11.026A5.567,5.567,0,0,0,22.227,1H12.283A8.091,8.091,0,0,0,4.519,6.878,6.012,6.012,0,0,0,1,12.353,16.472,16.472,0,0,0,7.558,25.47l2.38,1.785v5.272l-2.167.542A8.926,8.926,0,0,0,1,41.74v5.067a10.064,10.064,0,0,0,6.7,9.469V70.269h20.11V61.331h2.234A2.237,2.237,0,0,0,32.283,59.1V48.758a11.95,11.95,0,0,0,5.586,1.4,11.825,11.825,0,0,0,8.418-3.487l9.324-9.324a4.282,4.282,0,0,0,1.25-3.081,4.177,4.177,0,0,0-.516-1.983H70.269V1ZM34.517,30.048H30.048v-6.7h4.469ZM52.393,9.938h4.469v20.11H52.393Zm-11.172,6.7h4.469V30.048H41.22ZM19.7,34.768l-.513,2.564-2.029-1.014,1.15-1.724Zm5.469-17.059L23.345,19.53v3.814H21.11a2.237,2.237,0,0,1-2.234-2.234H16.641a4.473,4.473,0,0,0,4.469,4.469h2.137a2.94,2.94,0,0,1-3.43,2.177l-5.191-1.038-.439,2.191,2.453.49v3.661l-1.392,2.088-3.077-2.308V20.648l-1.907-1.907a1.112,1.112,0,0,1-.327-.791v-.191a1.119,1.119,0,0,1,1.117-1.117h1.117V14.407a4.473,4.473,0,0,1,4.469-4.469h.206a3.347,3.347,0,0,0,3.146,2.234h2.234a5.581,5.581,0,0,0,1.117-.113v.3a8.687,8.687,0,0,0,1.821,5.346ZM8.9,23.683a14.233,14.233,0,0,1-5.664-11.33,3.78,3.78,0,0,1,2.588-3.59l.614-.206.127-.636a5.85,5.85,0,0,1,5.719-4.688h9.945a3.352,3.352,0,0,1,0,6.7H19.993a1.117,1.117,0,1,1,0-2.234H21.11V5.469H19.993A3.347,3.347,0,0,0,16.847,7.7h-.206a6.71,6.71,0,0,0-6.7,6.7V14.6A3.358,3.358,0,0,0,7.7,17.759v.191a3.331,3.331,0,0,0,.982,2.371l1.252,1.252v2.889Zm1.912,10.93,3.013,2.26-1.575,1.575L9.355,34.977Zm.245,22.249h5.586V59.1h-6.7V56.8A9.983,9.983,0,0,0,11.055,56.862Zm7.821-6.7a2.234,2.234,0,1,1,0,4.469H16.641V50.158Zm6.7,17.876h-6.7V63.565H16.641v4.469h-6.7v-6.7H25.579ZM30.048,59.1H18.876V56.862a4.469,4.469,0,0,0,4.058-2.621,3.3,3.3,0,0,0,1.528.387,3.352,3.352,0,1,0-2.554-5.5,4.436,4.436,0,0,0-3.032-1.207V43.455H30.048Zm-6.7-7.821a1.117,1.117,0,1,1,1.117,1.117A1.119,1.119,0,0,1,23.345,51.276Zm21.363-6.184a9.606,9.606,0,0,1-6.839,2.832,9.712,9.712,0,0,1-5.586-1.786V43.455a2.237,2.237,0,0,0-2.234-2.234H18.876a2.237,2.237,0,0,0-2.234,2.234v4.469H11.055a1.119,1.119,0,0,1-1.117-1.117V43.455H7.7v3.352a3.356,3.356,0,0,0,3.352,3.352h3.352v4.469H11.055a7.829,7.829,0,0,1-7.821-7.821V41.74A6.684,6.684,0,0,1,7.052,35.7L12.1,41.758l3.648-3.648L20.8,40.638l1.118-5.594.563.07a12.248,12.248,0,0,1,6.568,2.946L33.3,41.779a6.776,6.776,0,0,0,9.252-.308L47.925,36.1l2.888,2.889Zm9.339-12.228a2,2,0,0,1,.581,1.452,2.035,2.035,0,0,1-.594,1.45l-1.64,1.64L49.5,34.517,51.14,32.88a2.067,2.067,0,0,1,1.5-.6,1.971,1.971,0,0,1,1.4.581Zm13.988-2.815H63.565V3.234h4.469Z" fill="#03386e"/>
      <path id="Trazado_612561" data-name="Trazado 612561" d="M39.938,47a8.938,8.938,0,1,0,8.938,8.938A8.948,8.948,0,0,0,39.938,47Zm-1.117,2.335v5.957l-5.159,2.979a6.676,6.676,0,0,1,5.159-8.936Zm1.117,13.306a6.694,6.694,0,0,1-5.163-2.432l5.163-2.981L45.1,60.209A6.694,6.694,0,0,1,39.938,62.641Zm6.277-4.369-5.159-2.98V49.335a6.678,6.678,0,0,1,5.159,8.937Z" transform="translate(3.517 5.393)" fill="#03386e"/>
      <path id="Trazado_612562" data-name="Trazado 612562" d="M49,61h2.234v2.234H49Z" transform="translate(5.627 7.034)" fill="#03386e"/>
      <path id="Trazado_612563" data-name="Trazado 612563" d="M53,61H64.172v2.234H53Z" transform="translate(6.096 7.034)" fill="#03386e"/>
      <path id="Trazado_612564" data-name="Trazado 612564" d="M49,57h2.234v2.234H49Z" transform="translate(5.627 6.565)" fill="#03386e"/>
      <path id="Trazado_612565" data-name="Trazado 612565" d="M53,57H64.172v2.234H53Z" transform="translate(6.096 6.565)" fill="#03386e"/>
      <path id="Trazado_612566" data-name="Trazado 612566" d="M49,53h2.234v2.234H49Z" transform="translate(5.627 6.096)" fill="#03386e"/>
      <path id="Trazado_612567" data-name="Trazado 612567" d="M53,53H64.172v2.234H53Z" transform="translate(6.096 6.096)" fill="#03386e"/>
      <path id="Trazado_612568" data-name="Trazado 612568" d="M49,49h2.234v2.234H49Z" transform="translate(5.627 5.627)" fill="#03386e"/>
      <path id="Trazado_612569" data-name="Trazado 612569" d="M53,49H64.172v2.234H53Z" transform="translate(6.096 5.627)" fill="#03386e"/>
      <path id="Trazado_612570" data-name="Trazado 612570" d="M47,45H62.641v2.234H47Z" transform="translate(5.393 5.158)" fill="#03386e"/>
      <path id="Trazado_612571" data-name="Trazado 612571" d="M47,41H62.641v2.234H47Z" transform="translate(5.393 4.689)" fill="#03386e"/>
      <path id="Trazado_612572" data-name="Trazado 612572" d="M49,37h4.469v2.234H49Z" transform="translate(5.627 4.22)" fill="#03386e"/>
      <path id="Trazado_612573" data-name="Trazado 612573" d="M55,37h6.7v2.234H55Z" transform="translate(6.331 4.22)" fill="#03386e"/>
    </g>
  </g>
</svg>
