<svg xmlns="http://www.w3.org/2000/svg" xmlns:xlink="http://www.w3.org/1999/xlink" width="62.504" height="62.504" viewBox="0 0 62.504 62.504">
  <defs>
    <clipPath id="clip-path">
      <rect id="Rectángulo_378572" data-name="Rectángulo 378572" width="41" height="41" transform="translate(0 0.001)" fill="none"/>
    </clipPath>
  </defs>
  <g id="Grupo_1075136" data-name="Grupo 1075136" transform="translate(-521 -12885.555)">
    <g id="Grupo_1072485" data-name="Grupo 1072485" transform="translate(240.688 11686.371)">
      <g id="Grupo_1072053" data-name="Grupo 1072053" transform="translate(280.313 1199.184)">
        <circle id="Elipse_4742" data-name="Elipse 4742" cx="31.252" cy="31.252" r="31.252" transform="translate(0)" fill="#eba325"/>
      </g>
    </g>
    <g id="Grupo_1072793" data-name="Grupo 1072793" transform="translate(532 12896.553)">
      <g id="Grupo_1072792" data-name="Grupo 1072792" transform="translate(0 0.001)" clip-path="url(#clip-path)">
        <path id="Trazado_610217" data-name="Trazado 610217" d="M37.4,151.391H3.6a3.608,3.608,0,0,1-3.6-3.6V123.6A3.608,3.608,0,0,1,3.6,120H37.4a3.608,3.608,0,0,1,3.6,3.6v24.184a3.608,3.608,0,0,1-3.6,3.6M3.6,122.4a1.2,1.2,0,0,0-1.2,1.2v24.184a1.2,1.2,0,0,0,1.2,1.2H37.4a1.2,1.2,0,0,0,1.2-1.2V123.6a1.2,1.2,0,0,0-1.2-1.2Z" transform="translate(0 -112.793)"/>
        <path id="Trazado_610218" data-name="Trazado 610218" d="M121.2,607.472a1.2,1.2,0,0,1-1.2-1.2v-2.4a1.2,1.2,0,1,1,2.4,0v2.4a1.2,1.2,0,0,1-1.2,1.2" transform="translate(-112.793 -566.471)"/>
        <path id="Trazado_610219" data-name="Trazado 610219" d="M523.868,607.472a1.2,1.2,0,0,1-1.2-1.2v-2.4a1.2,1.2,0,1,1,2.4,0v2.4a1.2,1.2,0,0,1-1.2,1.2" transform="translate(-491.276 -566.471)"/>
        <path id="Trazado_610220" data-name="Trazado 610220" d="M105.385,221.782H81.2a1.2,1.2,0,0,1-1.2-1.2V201.2a1.2,1.2,0,0,1,1.2-1.2h24.184a1.2,1.2,0,0,1,1.2,1.2v19.379a1.2,1.2,0,0,1-1.2,1.2m-22.983-2.4h21.782V202.4H82.4Z" transform="translate(-75.195 -187.988)"/>
        <path id="Trazado_610221" data-name="Trazado 610221" d="M565.069,241.2a1.2,1.2,0,1,1-1.2-1.2,1.2,1.2,0,0,1,1.2,1.2" transform="translate(-528.873 -225.587)"/>
        <path id="Trazado_610222" data-name="Trazado 610222" d="M565.069,321.2a1.2,1.2,0,1,1-1.2-1.2,1.2,1.2,0,0,1,1.2,1.2" transform="translate(-528.873 -300.782)"/>
        <path id="Trazado_610223" data-name="Trazado 610223" d="M563.868,407.368a1.2,1.2,0,0,1-1.2-1.2V401.2a1.2,1.2,0,1,1,2.4,0v4.965a1.2,1.2,0,0,1-1.2,1.2" transform="translate(-528.873 -375.977)"/>
        <path id="Trazado_610224" data-name="Trazado 610224" d="M209.742,9.609a1.2,1.2,0,0,1-.849-.352L201.685,2.05a1.2,1.2,0,1,1,1.7-1.7l6.358,6.358L216.1.352a1.2,1.2,0,0,1,1.7,1.7l-7.207,7.207a1.2,1.2,0,0,1-.849.352" transform="translate(-189.241 0)"/>
      </g>
    </g>
  </g>
</svg>
