<svg xmlns="http://www.w3.org/2000/svg" width="144" height="147.109" viewBox="0 0 144 147.109">
  <g id="Grupo_1075152" data-name="Grupo 1075152" transform="translate(-285 -23458.445)">
    <path id="Trazado_614508" data-name="Trazado 614508" d="M0,0H144V144H0Z" transform="translate(285 23461.555)" fill="#03386e"/>
    <path id="Trazado_614511" data-name="Trazado 614511" d="M44.715,12.491V17H42.079V4.2h4.992a5.776,5.776,0,0,1,2.536.527,3.886,3.886,0,0,1,1.683,1.5,4.178,4.178,0,0,1,.589,2.21,3.674,3.674,0,0,1-1.288,2.966,5.363,5.363,0,0,1-3.564,1.085Zm0-2.136h2.355a2.316,2.316,0,0,0,1.6-.492,1.79,1.79,0,0,0,.549-1.406,2.111,2.111,0,0,0-.554-1.521,2.068,2.068,0,0,0-1.529-.6H44.715Zm8.3,1.8a5.64,5.64,0,0,1,.545-2.522,3.989,3.989,0,0,1,1.569-1.714A4.577,4.577,0,0,1,57.5,7.314a4.33,4.33,0,0,1,3.142,1.178A4.727,4.727,0,0,1,62,11.691l.018.65A4.97,4.97,0,0,1,60.8,15.853a4.735,4.735,0,0,1-6.561,0,5.058,5.058,0,0,1-1.226-3.586Zm2.54.18a3.555,3.555,0,0,0,.51,2.073,1.831,1.831,0,0,0,2.9.009,3.89,3.89,0,0,0,.519-2.267,3.519,3.519,0,0,0-.519-2.06A1.686,1.686,0,0,0,57.5,9.362a1.658,1.658,0,0,0-1.441.726A3.955,3.955,0,0,0,55.552,12.338ZM66.266,17H63.717V3.5h2.549ZM71.1,17H68.56V7.49H71.1ZM70.353,3.632h2.769L70.687,6.356H68.622ZM76.33,5.152V7.49h1.626V9.354H76.33V14.1a1.133,1.133,0,0,0,.2.756,1.015,1.015,0,0,0,.773.229,4.051,4.051,0,0,0,.747-.062v1.925a5.229,5.229,0,0,1-1.538.229,2.425,2.425,0,0,1-2.725-2.7V9.354H72.4V7.49H73.79V5.152ZM82.051,17H79.5V7.49h2.549Zm-2.7-11.971a1.251,1.251,0,0,1,.382-.94,1.648,1.648,0,0,1,2.079,0,1.244,1.244,0,0,1,.387.94,1.247,1.247,0,0,1-.391.949,1.629,1.629,0,0,1-2.065,0A1.247,1.247,0,0,1,79.353,5.029Zm8.745,10.1a1.666,1.666,0,0,0,1.143-.387,1.355,1.355,0,0,0,.457-1.028H92.08a3.258,3.258,0,0,1-.527,1.771,3.48,3.48,0,0,1-1.419,1.248,4.442,4.442,0,0,1-1.991.444,4.129,4.129,0,0,1-3.217-1.3A5.13,5.13,0,0,1,83.748,12.3v-.167a5.071,5.071,0,0,1,1.169-3.507,4.08,4.08,0,0,1,3.208-1.31A4,4,0,0,1,90.985,8.33a3.594,3.594,0,0,1,1.094,2.7H89.7a1.745,1.745,0,0,0-.457-1.206,1.7,1.7,0,0,0-2.5.183,3.749,3.749,0,0,0-.453,2.1v.264a3.8,3.8,0,0,0,.448,2.113A1.549,1.549,0,0,0,88.1,15.128Zm5.036-2.971a5.64,5.64,0,0,1,.545-2.522,3.989,3.989,0,0,1,1.569-1.714,4.577,4.577,0,0,1,2.377-.606,4.33,4.33,0,0,1,3.142,1.178,4.727,4.727,0,0,1,1.358,3.2l.018.65a4.97,4.97,0,0,1-1.222,3.511,4.735,4.735,0,0,1-6.561,0,5.058,5.058,0,0,1-1.226-3.586Zm2.54.18a3.555,3.555,0,0,0,.51,2.073,1.831,1.831,0,0,0,2.9.009,3.89,3.89,0,0,0,.519-2.267,3.519,3.519,0,0,0-.519-2.06,1.686,1.686,0,0,0-1.459-.731,1.658,1.658,0,0,0-1.441.726A3.955,3.955,0,0,0,95.674,12.338Z" transform="translate(285 23562.555)" fill="#fff"/>
    <path id="Trazado_614509" data-name="Trazado 614509" d="M26.873,35.476V48H19.548V12.453H33.416a16.044,16.044,0,0,1,7.043,1.465,10.794,10.794,0,0,1,4.675,4.163,11.607,11.607,0,0,1,1.636,6.14,10.207,10.207,0,0,1-3.577,8.24q-3.577,3.015-9.9,3.015Zm0-5.933h6.543a6.434,6.434,0,0,0,4.431-1.367,4.973,4.973,0,0,0,1.526-3.906,5.863,5.863,0,0,0-1.538-4.224,5.746,5.746,0,0,0-4.248-1.66H26.873Z" transform="translate(325 23482.555)" fill="none" stroke="#fff" stroke-width="1"/>
    <g id="Trazado_614510" data-name="Trazado 614510" transform="translate(325 23481.555)" fill="none">
      <path d="M32,0A32,32,0,1,1,0,32,32,32,0,0,1,32,0Z" stroke="none"/>
      <path d="M 32 1 C 27.81459045410156 1 23.75490188598633 1.819499969482422 19.93370819091797 3.435718536376953 C 16.24237060546875 4.997028350830078 12.92699813842773 7.232379913330078 10.07968902587891 10.07968902587891 C 7.232379913330078 12.92699813842773 4.997028350830078 16.24237060546875 3.435718536376953 19.93370819091797 C 1.819499969482422 23.75490188598633 1 27.81459045410156 1 32 C 1 36.18540954589844 1.819499969482422 40.24510192871094 3.435718536376953 44.06629180908203 C 4.997028350830078 47.75762939453125 7.232379913330078 51.072998046875 10.07968902587891 53.92031097412109 C 12.92699813842773 56.76762008666992 16.24237060546875 59.00297164916992 19.93370819091797 60.56428146362305 C 23.75490188598633 62.18050003051758 27.81459045410156 63 32 63 C 36.18540954589844 63 40.24510192871094 62.18050003051758 44.06629180908203 60.56428146362305 C 47.75762939453125 59.00297164916992 51.072998046875 56.76762008666992 53.92031097412109 53.92031097412109 C 56.76762008666992 51.072998046875 59.00297164916992 47.75762939453125 60.56428146362305 44.06629180908203 C 62.18050003051758 40.24510192871094 63 36.18540954589844 63 32 C 63 27.81459045410156 62.18050003051758 23.75490188598633 60.56428146362305 19.93370819091797 C 59.00297164916992 16.24237060546875 56.76762008666992 12.92699813842773 53.92031097412109 10.07968902587891 C 51.072998046875 7.232379913330078 47.75762939453125 4.997028350830078 44.06629180908203 3.435718536376953 C 40.24510192871094 1.819499969482422 36.18540954589844 1 32 1 M 32 0 C 49.67311096191406 0 64 14.32688903808594 64 32 C 64 49.67311096191406 49.67311096191406 64 32 64 C 14.32688903808594 64 0 49.67311096191406 0 32 C 0 14.32688903808594 14.32688903808594 0 32 0 Z" stroke="none" fill="#fff"/>
    </g>
    <path id="Trazado_610616" data-name="Trazado 610616" d="M27.606,6.217h3.856V0H27.606Zm8.252,0h3.571V0H35.858ZM41.9,0V6.217H80.118L73.9,0Z" transform="translate(257.395 23458.445)" fill="#3ae3fe"/>
  </g>
</svg>
