<svg xmlns="http://www.w3.org/2000/svg" width="125" height="125" viewBox="0 0 125 125">
  <g id="Grupo_1075138" data-name="Grupo 1075138" transform="translate(-743 -21575.555)">
    <g id="Grupo_1073353" data-name="Grupo 1073353" transform="translate(357 19429.555)">
      <path id="Trazado_608385" data-name="Trazado 608385" d="M62.5,0A62.5,62.5,0,1,1,0,62.5,62.5,62.5,0,0,1,62.5,0Z" transform="translate(386 2146)" fill="#fff"/>
    </g>
    <g id="Layer_x0020_1" transform="translate(760.98 21434.895)">
      <path id="Trazado_610646" data-name="Trazado 610646" d="M88.77,1416.15H1.072A1.053,1.053,0,0,1,.02,1415.1v-4.885a1.053,1.053,0,0,1,1.052-1.052h87.7a1.053,1.053,0,0,1,1.052,1.052v4.885A1.053,1.053,0,0,1,88.77,1416.15Zm-86.646-2.106H87.718v-2.779H2.125Z" transform="translate(0 -1179.014)" fill-rule="evenodd"/>
      <path id="Trazado_610647" data-name="Trazado 610647" d="M97.6,1087.479a1.053,1.053,0,0,1-1.052-1.053v-17.984a1.053,1.053,0,0,1,1.052-1.052h25.31a1.052,1.052,0,0,1,0,2.1H98.655v16.932A1.053,1.053,0,0,1,97.6,1087.479Z" transform="translate(-91.451 -855.228)" fill-rule="evenodd"/>
      <path id="Trazado_610648" data-name="Trazado 610648" d="M605,830.445a1.053,1.053,0,0,1-1.052-1.052V798.185H579.635v31.208a1.053,1.053,0,0,1-2.1,0v-32.26a1.053,1.053,0,0,1,1.052-1.052H605a1.053,1.053,0,0,1,1.052,1.052v32.26A1.052,1.052,0,0,1,605,830.445Z" transform="translate(-547.121 -598.195)" fill-rule="evenodd"/>
      <path id="Trazado_610649" data-name="Trazado 610649" d="M1106.744,947.6a1.053,1.053,0,0,1-1.052-1.052v-24.7h-24.756a1.053,1.053,0,0,1,0-2.1h25.809a1.053,1.053,0,0,1,1.053,1.052v25.753A1.053,1.053,0,0,1,1106.744,947.6Z" transform="translate(-1023.053 -715.348)" fill-rule="evenodd"/>
      <path id="Trazado_610650" data-name="Trazado 610650" d="M817.076,1029.278a1.053,1.053,0,0,1-1.052-1.052v-6.445a1.053,1.053,0,0,1-1.159-1.711c.987-.987,1.7-2.076,2.614-1.7a1.054,1.054,0,0,1,.65.972v8.881a1.054,1.054,0,0,1-1.053,1.053Z" transform="translate(-771.671 -808.717)" fill-rule="evenodd"/>
      <path id="Trazado_610651" data-name="Trazado 610651" d="M298.612,1165.825c-3.187,0-4.243-4.3-2.193-4.3,1.624,0,.481,2.193,2.193,2.193a1.14,1.14,0,0,0,0-2.281,1.053,1.053,0,0,1,0-2.1,1.14,1.14,0,0,0,0-2.279c-1.712,0-.567,2.193-2.193,2.193-2.05,0-1-4.3,2.193-4.3a7.379,7.379,0,0,1,0,10.874Z" transform="translate(-279.805 -938.181)" fill-rule="evenodd"/>
      <path id="Trazado_610652" data-name="Trazado 610652" d="M1266.277,1091.825a1.054,1.054,0,0,1-.809-1.726c1.088-1.306,4.018-4.2,4.018-5.451,0-2.24-2.641-2.24-2.641,0a1.053,1.053,0,0,1-2.1,0,3.441,3.441,0,1,1,6.852,0c0,1.473-1.269,3.152-2.921,5.02,2.165-.047,4.47-.537,4.5.954a1.052,1.052,0,0,1-1.029,1.075l-5.869.128Z" transform="translate(-1198.17 -868.011)" fill-rule="evenodd"/>
      <path id="Trazado_610653" data-name="Trazado 610653" d="M707.1,720.8c-1.478,0-1.052-2.219-1.052-4.3H693.87c0,2.08.426,4.3-1.052,4.3a1.053,1.053,0,0,1-1.052-1.052c0-2.421-.544-5.35,1.653-5.35H706.5c2.2,0,1.653,2.929,1.653,5.35A1.052,1.052,0,0,1,707.1,720.8Z" transform="translate(-655.289 -520.813)" fill-rule="evenodd"/>
      <path id="Trazado_610654" data-name="Trazado 610654" d="M564.77,191.018a10.471,10.471,0,0,1-10.064-7.628c-5.331-3.877-5.633-8.736-5.642-8.944-.132-5.34-.5-4.444,5.255-4.444v-4.289a1.053,1.053,0,0,1,1.052-1.052h18.773a1.052,1.052,0,0,1,1.052,1.051l.026,14.853a10.47,10.47,0,0,1-10.452,10.454Zm-8.106-8.456a8.348,8.348,0,0,0,14.011,3.89,8.256,8.256,0,0,0,2.442-5.885l-.024-13.8h-16.67c0,3.276-.244,13.232.241,15.8Zm-5.5-10.456c0,2.1-.337,4.759,3.152,8.206v-8.206Z" transform="translate(-520.099)" fill-rule="evenodd"/>
      <path id="Trazado_610655" data-name="Trazado 610655" d="M875.118,625.026c-2.186,0-1.276-5.609-1-6.462a1.053,1.053,0,0,1,2,.645C875,622.7,877.331,625.026,875.118,625.026Z" transform="translate(-827.701 -429.334)" fill-rule="evenodd"/>
      <path id="Trazado_610656" data-name="Trazado 610656" d="M777.471,624.785a1.057,1.057,0,0,1-.979-1.437c1.183-3.018-1.117-5.133.656-5.7,2.076-.669,2.051,4.565,1.3,6.472A1.054,1.054,0,0,1,777.471,624.785Z" transform="translate(-735.545 -429.093)" fill-rule="evenodd"/>
      <path id="Trazado_610657" data-name="Trazado 610657" d="M1003.342,279.966a1.054,1.054,0,0,1-.6-1.917c5.427-3.763,5.065-7.654,5.063-9.784h-4.2a1.052,1.052,0,0,1,0-2.1h5.256a1.053,1.053,0,0,1,1.052,1.052v3.339c-.013.265-.325,5.315-5.969,9.226a1.046,1.046,0,0,1-.6.188Z" transform="translate(-949.53 -96.159)" fill-rule="evenodd"/>
      <path id="Trazado_610658" data-name="Trazado 610658" d="M744.743,297.482a18.48,18.48,0,0,1-3.024-1.306c-1.476.691-2.866,1.668-3.642,1.105s-.277-2.189-.076-3.806c-1.115-1.192-2.473-2.211-2.176-3.124s1.995-.938,3.6-1.247c.789-1.428,1.339-3.035,2.3-3.035s1.509,1.608,2.3,3.035c1.6.309,3.3.335,3.6,1.247s-1.059,1.929-2.176,3.124c.208,1.684.931,4.007-.694,4.007Zm-3.024-3.52a6.889,6.889,0,0,1,1.744.707c-.271-2.191-.429-1.707,1.078-3.32-2.167-.418-1.757-.119-2.823-2.052-1.068,1.931-.657,1.633-2.823,2.052,1.508,1.613,1.35,1.129,1.078,3.32A6.87,6.87,0,0,1,741.719,293.963Z" transform="translate(-697.047 -115.021)" fill-rule="evenodd"/>
      <path id="Trazado_610659" data-name="Trazado 610659" d="M1119.63,959.74v23.649h23.7V959.74Zm9.172,17.317a1.054,1.054,0,0,1-.809-1.726c1.088-1.305,4.018-4.2,4.018-5.451,0-2.24-2.641-2.24-2.641,0a1.052,1.052,0,0,1-2.1,0,3.441,3.441,0,1,1,6.852,0c0,1.473-1.269,3.152-2.92,5.02,2.165-.047,4.47-.537,4.5.955a1.052,1.052,0,0,1-1.029,1.075l-5.869.128Z" transform="translate(-1060.696 -753.243)" fill="#ffeaa7" fill-rule="evenodd"/>
      <path id="Trazado_610660" data-name="Trazado 610660" d="M641.846,866.236V836.08H617.53v30.156Zm-11.424-9.585a1.053,1.053,0,0,1-1.052-1.052v-6.445a1.053,1.053,0,0,1-1.159-1.711c.987-.987,1.7-2.076,2.614-1.7a1.054,1.054,0,0,1,.65.972V855.6a1.054,1.054,0,0,1-1.053,1.053Z" transform="translate(-585.017 -636.09)" fill="#6debff" fill-rule="evenodd"/>
      <path id="Trazado_610661" data-name="Trazado 610661" d="M145.97,1114.19c-2.05,0-1-4.3,2.193-4.3a7.379,7.379,0,0,1,0,10.874c-3.187,0-4.243-4.3-2.193-4.3,1.624,0,.481,2.193,2.193,2.193a1.14,1.14,0,0,0,0-2.281,1.053,1.053,0,0,1,0-2.1,1.14,1.14,0,0,0,0-2.279c-1.712,0-.567,2.193-2.193,2.193Zm13.794,9.079V1107.39h-23.2v15.879Z" transform="translate(-129.355 -893.123)" fill="#ff826e" fill-rule="evenodd"/>
      <path id="Trazado_610662" data-name="Trazado 610662" d="M95.777,1449.16H40.02v2.779h85.593v-2.779Z" transform="translate(-37.895 -1216.909)" fill="#75471a" fill-rule="evenodd"/>
      <path id="Trazado_610663" data-name="Trazado 610663" d="M732.9,756.593h12.066c0-.675.057-1.443.057-2.193H732.84c0,.75.055,1.518.057,2.193Z" transform="translate(-694.259 -558.708)" fill="#75471a" fill-rule="evenodd"/>
      <path id="Trazado_610664" data-name="Trazado 610664" d="M821.63,666.368h2.779a12.932,12.932,0,0,1,.075-2.668,10.541,10.541,0,0,1-2.781.013,11.575,11.575,0,0,1-.072,2.656Z" transform="translate(-778.377 -472.78)" fill="#ffb800" fill-rule="evenodd"/>
      <path id="Trazado_610665" data-name="Trazado 610665" d="M694.772,226.437a8.358,8.358,0,0,0,10.779-7.974l-.024-13.8h-16.67c0,3.276-.244,13.232.241,15.8a8.272,8.272,0,0,0,5.674,5.979Zm5.456-6.081a18.483,18.483,0,0,1-3.024-1.306c-1.476.691-2.866,1.668-3.642,1.105s-.277-2.188-.076-3.806c-1.115-1.192-2.473-2.211-2.176-3.124s1.995-.938,3.6-1.247c.789-1.428,1.339-3.035,2.3-3.035s1.509,1.608,2.3,3.035c1.6.309,3.3.335,3.6,1.247s-1.059,1.929-2.176,3.124c.208,1.684.931,4.007-.694,4.007Z" transform="translate(-652.533 -37.895)" fill="#ffb800" fill-rule="evenodd"/>
      <path id="Trazado_610666" data-name="Trazado 610666" d="M799.5,352.8c-.271-2.191-.429-1.707,1.078-3.32-2.167-.418-1.756-.119-2.823-2.052-1.068,1.931-.657,1.633-2.823,2.052,1.508,1.613,1.35,1.129,1.078,3.32C798.007,351.865,797.5,351.866,799.5,352.8Z" transform="translate(-753.082 -173.153)" fill="#e8a803" fill-rule="evenodd"/>
    </g>
  </g>
</svg>
