<svg xmlns="http://www.w3.org/2000/svg" width="129" height="128" viewBox="0 0 129 128">
  <g id="Grupo_1075143" data-name="Grupo 1075143" transform="translate(-361 -22413.555)">
    <g id="Grupo_108927" data-name="Grupo 108927" transform="translate(-29 17946.555)">
      <path id="Rect치ngulo_36179" data-name="Rect치ngulo 36179" d="M0,0H129V128H0Z" transform="translate(390 4467)" fill="#0c5e46"/>
      <path id="Rect치ngulo_36181" data-name="Rect치ngulo 36181" d="M6.132,0H81.754a21.8,21.8,0,0,1,21.8,21.8v74.26a6.132,6.132,0,0,1-6.132,6.132H6.132A6.132,6.132,0,0,1,0,96.061V6.132A6.132,6.132,0,0,1,6.132,0Z" transform="translate(402.944 4479.944)" fill="#fff"/>
    </g>
    <g id="portapapeles" transform="translate(387 22438.555)">
      <g id="Icons" transform="translate(1.298 1.298)">
        <path id="Trazado_610763" data-name="Trazado 610763" d="M55.514,26.079V8.894A3.894,3.894,0,0,0,51.62,5H4.894A3.894,3.894,0,0,0,1,8.894V68.6a3.894,3.894,0,0,0,3.894,3.894H40.626Z" transform="translate(-1 0.192)" fill="sienna"/>
        <path id="Trazado_610764" data-name="Trazado 610764" d="M43.417,5H39.524a3.894,3.894,0,0,1,3.894,3.894V26.079L28.53,72.493h3.894L47.311,26.079V8.894A3.894,3.894,0,0,0,43.417,5Z" transform="translate(7.203 0.192)" fill="#783e22"/>
        <path id="Trazado_610765" data-name="Trazado 610765" d="M49.13,24.6V10.3a1.3,1.3,0,0,0-1.3-1.3H6.3A1.3,1.3,0,0,0,5,10.3V64.812a1.3,1.3,0,0,0,1.3,1.3H32.465Z" transform="translate(0.192 1.384)" fill="#f5f5f5"/>
        <path id="Trazado_610766" data-name="Trazado 610766" d="M42.422,9H38.528a1.3,1.3,0,0,1,1.3,1.3V24.6L23.16,66.11h3.894L43.72,24.6V10.3A1.3,1.3,0,0,0,42.422,9Z" transform="translate(5.603 1.384)" fill="#cfd8dc"/>
        <path id="Trazado_610767" data-name="Trazado 610767" d="M64.779,30.086a24.688,24.688,0,1,1-3.53-3.53" transform="translate(4.946 4.959)" fill="#f44335"/>
        <path id="Trazado_610768" data-name="Trazado 610768" d="M59.553,30.086l-3.53-3.53A24.483,24.483,0,0,0,40.447,21c-.61,0-1.21.048-1.808.091a24.463,24.463,0,0,1,13.49,5.464l3.53,3.53A24.631,24.631,0,0,1,38.5,70.223c.649.051,1.29.1,1.947.1A24.648,24.648,0,0,0,59.553,30.086Z" transform="translate(10.173 4.959)" fill="#c81e1e"/>
        <circle id="Elipse_5944" data-name="Elipse 5944" cx="18" cy="18" r="18" transform="translate(32.702 32.569)" fill="#f5f5f5"/>
        <path id="Trazado_610769" data-name="Trazado 610769" d="M40.447,26a18.2,18.2,0,0,0-1.947.108,18.171,18.171,0,0,1,0,36.127A18.171,18.171,0,1,0,40.447,26Z" transform="translate(10.173 6.449)" fill="#cfd8dc"/>
        <circle id="Elipse_5945" data-name="Elipse 5945" cx="12" cy="12" r="12" transform="translate(38.702 38.569)" fill="#f44335"/>
        <path id="Trazado_610770" data-name="Trazado 610770" d="M40.447,31a11.74,11.74,0,0,0-1.947.175,11.667,11.667,0,0,1,0,23.013A11.682,11.682,0,1,0,40.447,31Z" transform="translate(10.173 7.938)" fill="#c81e1e"/>
        <circle id="Elipse_5946" data-name="Elipse 5946" cx="5" cy="5" r="5" transform="translate(45.702 45.569)" fill="#f5f5f5"/>
        <path id="Trazado_610771" data-name="Trazado 610771" d="M40.447,36a5.146,5.146,0,0,0-1.947.389,5.18,5.18,0,0,1,0,9.6A5.192,5.192,0,1,0,40.447,36Z" transform="translate(10.173 9.428)" fill="#cfd8dc"/>
        <path id="Trazado_610772" data-name="Trazado 610772" d="M60.682,23.6,58.49,21.4a1.38,1.38,0,0,0-1.947,0L52.4,25.542a1.381,1.381,0,0,0-.4.976v2.187a1.38,1.38,0,0,0,1.38,1.38h2.187a1.381,1.381,0,0,0,.976-.4l4.139-4.139a1.38,1.38,0,0,0,0-1.947Z" transform="translate(14.195 4.959)" fill="#ff9801"/>
        <path id="Trazado_610773" data-name="Trazado 610773" d="M60.561,23.6,58.369,21.4a1.38,1.38,0,0,0-1.947,0l-.971.972,1.216,1.216a1.38,1.38,0,0,1,0,1.947l-4.139,4.143a1.353,1.353,0,0,1-.123.082,1.358,1.358,0,0,0,.854.322h2.187a1.381,1.381,0,0,0,.976-.4l4.139-4.139a1.38,1.38,0,0,0,0-1.947Z" transform="translate(14.316 4.959)" fill="#f57c00"/>
        <path id="Trazado_610774" data-name="Trazado 610774" d="M39.555,6.192v5.192a1.3,1.3,0,0,1-1.3,1.3H12.3a1.3,1.3,0,0,1-1.3-1.3V6.192a1.3,1.3,0,0,1,1.3-1.3h3.894L16.9,2.776A2.6,2.6,0,0,1,19.361,1H31.194A2.6,2.6,0,0,1,33.66,2.776l.7,2.118h3.894a1.3,1.3,0,0,1,1.3,1.3Z" transform="translate(1.979 -1)" fill="#9e9e9e"/>
        <g id="Grupo_1073440" data-name="Grupo 1073440" transform="translate(29.279)">
          <path id="Trazado_610775" data-name="Trazado 610775" d="M27.452,1H23.558a2.6,2.6,0,0,1,2.466,1.776l.7,2.118h3.894l-.706-2.118A2.6,2.6,0,0,0,27.452,1Z" transform="translate(-23.558 -1)" fill="#707070"/>
          <path id="Trazado_610776" data-name="Trazado 610776" d="M32.894,4H29a1.3,1.3,0,0,1,1.3,1.3V10.49a1.3,1.3,0,0,1-1.3,1.3h3.894a1.3,1.3,0,0,0,1.3-1.3V5.3A1.3,1.3,0,0,0,32.894,4Z" transform="translate(-21.937 -0.106)" fill="#707070"/>
        </g>
      </g>
      <g id="Icons_copy" data-name="Icons copy" transform="translate(0 0)">
        <path id="Trazado_610777" data-name="Trazado 610777" d="M5.192,75.281H40.678A25.916,25.916,0,0,0,73,36.814l4.1-4.1a2.678,2.678,0,0,0,0-3.787l-.174-.173.581-.588a1.3,1.3,0,1,0-1.848-1.822l-.575.579-.178-.178a2.741,2.741,0,0,0-3.786,0l-4.1,4.09a25.891,25.891,0,0,0-9.912-4.331V10.384a5.192,5.192,0,0,0-5.192-5.192H43.769a2.587,2.587,0,0,0-2.235-1.3H38.576l-.41-1.232A3.894,3.894,0,0,0,34.472,0H22.638A3.894,3.894,0,0,0,18.95,2.663l-.417,1.23H15.575a2.587,2.587,0,0,0-2.235,1.3H5.192A5.192,5.192,0,0,0,0,10.384V70.089A5.192,5.192,0,0,0,5.192,75.281Zm46.726,0A23.363,23.363,0,1,1,66.2,33.46v1.5a2.644,2.644,0,0,0,.113.728l-1.591,1.593a19.537,19.537,0,1,0,1.835,1.835l1.59-1.591a2.644,2.644,0,0,0,.728.113h1.5A23.329,23.329,0,0,1,51.918,75.281Zm3.894-23.363a3.894,3.894,0,1,1-3.894-3.894,3.83,3.83,0,0,1,1.668.389L51,51a1.3,1.3,0,1,0,1.835,1.835l2.587-2.584a3.83,3.83,0,0,1,.389,1.668Zm-.321-5.409a6.509,6.509,0,1,0,1.835,1.835l2.784-2.787a10.417,10.417,0,1,1-1.833-1.833Zm4.635-4.635a13,13,0,1,0,1.835,1.835l2.757-2.756a16.921,16.921,0,1,1-1.837-1.837Zm8.7-9.157,4.252-4.138,1.1,1.1v.008h.008l1.076,1.077v.116l-4.195,4.166-2.27-.082ZM54.514,10.384V26.1a25.815,25.815,0,0,0-2.6-.144V12.979a2.6,2.6,0,0,0-2.6-2.6H44.13v-2.6h7.788A2.6,2.6,0,0,1,54.514,10.384ZM15.575,6.49h3.894A1.3,1.3,0,0,0,20.7,5.6l.706-2.118a1.3,1.3,0,0,1,1.23-.888H34.472a1.3,1.3,0,0,1,1.23.888L36.409,5.6a1.3,1.3,0,0,0,1.232.888h3.894v5.192H15.575Zm25.959,7.788a2.587,2.587,0,0,0,2.235-1.3h5.553V26.089a25.892,25.892,0,0,0-15.912,7.658H24.661a1.3,1.3,0,0,0,0,2.6H31.2a25.853,25.853,0,0,0-4.387,9.086H24.661a1.3,1.3,0,1,0,0,2.6h1.622a24.9,24.9,0,0,0,.2,9.086H24.661a1.3,1.3,0,1,0,0,2.6h2.495A25.9,25.9,0,0,0,31.2,67.493H7.788V12.979H13.34a2.587,2.587,0,0,0,2.235,1.3ZM2.6,10.384a2.6,2.6,0,0,1,2.6-2.6h7.788v2.6H7.788a2.6,2.6,0,0,0-2.6,2.6V67.493a2.6,2.6,0,0,0,2.6,2.6H33.411a26.316,26.316,0,0,0,3,2.6H5.192a2.6,2.6,0,0,1-2.6-2.6Z" transform="translate(0 0)"/>
        <circle id="Elipse_5947" data-name="Elipse 5947" cx="1.5" cy="1.5" r="1.5" transform="translate(27 4.868)"/>
        <path id="Trazado_610778" data-name="Trazado 610778" d="M10.38,21.109l1.3,1.3a1.3,1.3,0,0,0,.918.38h.092a1.3,1.3,0,0,0,.946-.519l3.894-5.192a1.3,1.3,0,1,0-2.077-1.558l-3,4-.24-.24A1.3,1.3,0,1,0,10.38,21.11Z" transform="translate(2.98 4.469)"/>
        <path id="Trazado_610779" data-name="Trazado 610779" d="M19.3,19.6H37.469a1.3,1.3,0,1,0,0-2.6H19.3a1.3,1.3,0,1,0,0,2.6Z" transform="translate(5.363 5.065)"/>
        <path id="Trazado_610780" data-name="Trazado 610780" d="M15.451,24.519l-3,4-.24-.24A1.3,1.3,0,1,0,10.38,30.11l1.3,1.3a1.3,1.3,0,0,0,.918.38h.092a1.3,1.3,0,0,0,.946-.519l3.894-5.192a1.3,1.3,0,0,0-2.077-1.558Z" transform="translate(2.98 7.151)"/>
        <path id="Trazado_610781" data-name="Trazado 610781" d="M15.451,33.519l-3,4-.24-.24A1.3,1.3,0,1,0,10.38,39.11l1.3,1.3a1.3,1.3,0,0,0,.918.38h.092a1.3,1.3,0,0,0,.946-.519l3.894-5.192a1.3,1.3,0,0,0-2.077-1.558Z" transform="translate(2.98 9.832)"/>
        <path id="Trazado_610782" data-name="Trazado 610782" d="M15.451,42.519l-3,4-.24-.24A1.3,1.3,0,1,0,10.38,48.11l1.3,1.3a1.3,1.3,0,0,0,.918.38h.092a1.3,1.3,0,0,0,.946-.519l3.894-5.192a1.3,1.3,0,0,0-2.077-1.558Z" transform="translate(2.98 12.514)"/>
      </g>
    </g>
  </g>
</svg>
