<svg xmlns="http://www.w3.org/2000/svg" width="114.88" height="114.881" viewBox="0 0 114.88 114.881">
  <g id="Grupo_1075160" data-name="Grupo 1075160" transform="translate(-743 -24293.555)">
    <g id="Grupo_1073379" data-name="Grupo 1073379" transform="translate(743 24293.555)">
      <path id="Trazado_608385" data-name="Trazado 608385" d="M57.44,0A57.44,57.44,0,1,1,0,57.44,57.44,57.44,0,0,1,57.44,0Z" fill="#e1efe3"/>
    </g>
    <path id="convenio" d="M67,31.192H63.539A2.311,2.311,0,0,0,61.228,33.5H52.976a4.611,4.611,0,0,0,.165-1.155V4.621A4.621,4.621,0,0,0,48.521,0H20.795a4.621,4.621,0,0,0-4.621,4.621V32.347a4.612,4.612,0,0,0,.165,1.155H8.087a2.311,2.311,0,0,0-2.311-2.311H2.311A2.311,2.311,0,0,0,0,33.5V50.831a2.311,2.311,0,0,0,2.311,2.311H5.776a2.31,2.31,0,0,0,2.311-2.257,23.886,23.886,0,0,1,6.6,1.669A4.063,4.063,0,0,0,15.7,57.7a4.021,4.021,0,0,0,2.5.862,4.152,4.152,0,0,0,.521-.057v.072a4.043,4.043,0,0,0,4.01,3.577,3.95,3.95,0,0,0,.521-.058,4,4,0,0,0,4.006,3.627,4.115,4.115,0,0,0,.53-.059,4.043,4.043,0,0,0,7.193,2.114l1.081-1.369c1.227,1.056,1.957,1.733,1.964,1.733h0a4.043,4.043,0,0,0,6.9-2.87v-.04a.357.357,0,0,1,.05,0A4.055,4.055,0,0,0,49,61.188v-.047h.039a4.031,4.031,0,0,0,4.05-4.035V57.06h.039A4.043,4.043,0,0,0,56,55.873a4.159,4.159,0,0,0,1.2-3.049,3.862,3.862,0,0,0-.263-1.241,19.177,19.177,0,0,1,4.3-.712,2.311,2.311,0,0,0,2.311,2.27H67a2.311,2.311,0,0,0,2.311-2.311V33.5A2.311,2.311,0,0,0,67,31.192ZM5.776,50.831H2.311V33.5H5.776ZM38.4,36.558a2.311,2.311,0,0,0-2.9.2l-5.88,5.464a1.793,1.793,0,0,1-2.614-2.447l6.952-7.322a4.136,4.136,0,0,1,4.745-.828l7.589,3.812a3.4,3.4,0,0,0,1.56.377H61.228v12.74A20.758,20.758,0,0,0,55.4,49.647C50.8,45.724,38.94,36.957,38.4,36.558ZM28.881,2.311H40.434V12.462a.246.246,0,0,1-.369.213L35.253,9.786a1.155,1.155,0,0,0-1.19,0L29.25,12.674a.246.246,0,0,1-.369-.213Zm-10.4,30.037V4.621a2.311,2.311,0,0,1,2.311-2.311h5.776V12.462a2.555,2.555,0,0,0,3.869,2.19l4.218-2.531,4.218,2.531a2.554,2.554,0,0,0,3.869-2.19V2.311h5.776a2.311,2.311,0,0,1,2.311,2.311V32.347a2.29,2.29,0,0,1-.317,1.155H47.851a1.11,1.11,0,0,1-.509-.116l-7.59-3.812a6.238,6.238,0,0,0-2.852-.693,6.392,6.392,0,0,0-3.16.846A6.46,6.46,0,0,0,31.2,28.94V26.571a2.311,2.311,0,0,0-2.311-2.311H23.105a2.311,2.311,0,0,0-2.311,2.311v3.466a2.311,2.311,0,0,0,1.636,2.195l-2.294,1.155a1.1,1.1,0,0,1-.5.116H18.8A2.29,2.29,0,0,1,18.484,32.347ZM26.8,30.037h-3.7V26.571h5.776V29.14a5.648,5.648,0,0,0-1.131.419ZM17.125,55.888a1.75,1.75,0,0,1-.287-2.447l2.62-3.312a1.751,1.751,0,0,1,1.371-.66,1.725,1.725,0,0,1,1.072.371,1.743,1.743,0,0,1,.285,2.435L19.558,55.6a1.743,1.743,0,0,1-2.433.29Zm4.529,3.581a1.733,1.733,0,0,1-.648-1.163,1.7,1.7,0,0,1,.362-1.271l3.35-4.231a1.733,1.733,0,0,1,2.716,2.149l-3.35,4.229a1.733,1.733,0,0,1-2.429.287Zm4.53,3.581a1.746,1.746,0,0,1-.29-2.433h0l2.648-3.341a1.73,1.73,0,0,1,2.706,2.158h0L28.62,62.764h0a1.758,1.758,0,0,1-2.436.287Zm8.883.883-1.9,2.41A1.736,1.736,0,1,1,30.433,64.2h0l1.914-2.413a1.748,1.748,0,0,1,1.369-.661,1.7,1.7,0,0,1,1.063.371,1.733,1.733,0,0,1,.289,2.432Zm19.293-9.69a1.739,1.739,0,0,1-2.456,0,1.155,1.155,0,0,0-1.972.818,1.143,1.143,0,0,0,.338.816,1.733,1.733,0,0,1,0,2.451,1.757,1.757,0,0,1-2.465,0A1.155,1.155,0,1,0,46.18,59.97a1.733,1.733,0,0,1-1.218,2.95h0a1.724,1.724,0,0,1-1.227-.511A1.155,1.155,0,1,0,42.1,64.045a1.733,1.733,0,0,1,0,2.45,1.765,1.765,0,0,1-2.492-.027c-.039-.037-.848-.783-2.226-1.964a4.043,4.043,0,0,0-1.166-4.815,3.978,3.978,0,0,0-2.331-.857,4.055,4.055,0,0,0-1.5-3.644,4,4,0,0,0-2.31-.848,4.128,4.128,0,0,0,.008-.924A4.043,4.043,0,0,0,25.6,49.865a4.093,4.093,0,0,0-.911.224,4.018,4.018,0,0,0-1.354-2.061,4.066,4.066,0,0,0-5.688.663l-1.542,1.952a26.692,26.692,0,0,0-8.019-2.078V35.813H19.639a3.388,3.388,0,0,0,1.547-.365l7.613-3.83a4.043,4.043,0,0,1,2.977-.231L25.307,38.2a4.1,4.1,0,0,0,5.918,5.673l5.818-5.449c.133.1,13.315,9.842,17.366,13.417a1.452,1.452,0,0,1,.476,1.052,1.848,1.848,0,0,1-.527,1.346ZM67,50.831H63.539V33.5H67Z" transform="translate(765.5 24317.055)" fill="#03386e" stroke="#03386e" stroke-width="0.5"/>
  </g>
</svg>
