<svg xmlns="http://www.w3.org/2000/svg" width="114.88" height="114.881" viewBox="0 0 114.88 114.881">
  <g id="Grupo_1075161" data-name="Grupo 1075161" transform="translate(-953 -24293.965)">
    <g id="Grupo_1073377" data-name="Grupo 1073377" transform="translate(953 24293.965)">
      <path id="Trazado_608385" data-name="Trazado 608385" d="M57.44,0A57.44,57.44,0,1,1,0,57.44,57.44,57.44,0,0,1,57.44,0Z" fill="#e1efe3"/>
    </g>
    <g id="crisis" transform="translate(974.17 24316.561)">
      <path id="Trazado_610833" data-name="Trazado 610833" d="M62.65,64.884h-51.8A8.011,8.011,0,0,1,3.9,52.867L29.811,8.005a8.011,8.011,0,0,1,13.875,0L69.594,52.867a8.011,8.011,0,0,1-6.938,12.017ZM32.583,9.608,6.685,54.47a4.807,4.807,0,0,0,4.166,7.21h51.8a4.807,4.807,0,0,0,4.166-7.21L40.915,9.608a4.807,4.807,0,0,0-8.332,0Z" transform="translate(0)" fill="#03386e" stroke="#03386e" stroke-width="0.5"/>
      <path id="Trazado_610834" data-name="Trazado 610834" d="M26.043,40.238a4.18,4.18,0,0,1-4.166-3.893l-1.261-18.9A4.166,4.166,0,0,1,24.784,13H27.3a4.166,4.166,0,0,1,4.166,4.448l-1.259,18.9A4.18,4.18,0,0,1,26.043,40.238ZM24.784,16.2a.961.961,0,0,0-.961,1.032l1.259,18.895a.961.961,0,0,0,1.923,0l1.261-18.895A.961.961,0,0,0,27.3,16.2Z" transform="translate(10.706 5.42)" fill="#03386e" stroke="#03386e" stroke-width="0.5"/>
      <path id="Trazado_610835" data-name="Trazado 610835" d="M26.108,42.215a5.608,5.608,0,1,1,5.608-5.608,5.608,5.608,0,0,1-5.608,5.608Zm0-8.011a2.4,2.4,0,1,0,2.4,2.4A2.4,2.4,0,0,0,26.108,34.2Z" transform="translate(10.641 16.26)" fill="#03386e" stroke="#03386e" stroke-width="0.5"/>
    </g>
  </g>
</svg>
