<svg xmlns="http://www.w3.org/2000/svg" width="143" height="147.107" viewBox="0 0 143 147.107">
  <g id="Grupo_1075155" data-name="Grupo 1075155" transform="translate(-817 -23461.555)">
    <path id="Trazado_614520" data-name="Trazado 614520" d="M0,0H143V144H0Z" transform="translate(817 23461.555)" fill="#0c5e46"/>
    <path id="Trazado_614521" data-name="Trazado 614521" d="M37.842,6.339h-3.92V17H31.286V6.339H27.418V4.2H37.842Zm4.931,10.837a4.668,4.668,0,0,1-3.406-1.283,4.561,4.561,0,0,1-1.314-3.419v-.246a5.745,5.745,0,0,1,.554-2.562,4.064,4.064,0,0,1,1.569-1.74,4.4,4.4,0,0,1,2.316-.611,3.947,3.947,0,0,1,3.072,1.23,5,5,0,0,1,1.121,3.489v1.037H40.628a2.36,2.36,0,0,0,.743,1.494,2.245,2.245,0,0,0,1.569.563,2.742,2.742,0,0,0,2.294-1.063l1.248,1.4a3.813,3.813,0,0,1-1.547,1.261A5.075,5.075,0,0,1,42.773,17.176Zm-.29-7.813a1.587,1.587,0,0,0-1.226.512,2.651,2.651,0,0,0-.6,1.466h3.533v-.2a1.891,1.891,0,0,0-.457-1.311A1.638,1.638,0,0,0,42.483,9.362Zm9.6,5.766a1.666,1.666,0,0,0,1.143-.387,1.355,1.355,0,0,0,.457-1.028h2.382a3.258,3.258,0,0,1-.527,1.771,3.48,3.48,0,0,1-1.419,1.248,4.442,4.442,0,0,1-1.991.444,4.129,4.129,0,0,1-3.217-1.3A5.13,5.13,0,0,1,47.73,12.3v-.167A5.071,5.071,0,0,1,48.9,8.624a4.08,4.08,0,0,1,3.208-1.31A4,4,0,0,1,54.968,8.33a3.594,3.594,0,0,1,1.094,2.7H53.68a1.745,1.745,0,0,0-.457-1.206,1.7,1.7,0,0,0-2.5.183,3.749,3.749,0,0,0-.453,2.1v.264a3.8,3.8,0,0,0,.448,2.113A1.549,1.549,0,0,0,52.081,15.128ZM59.85,7.49l.079,1.1a3.32,3.32,0,0,1,2.733-1.274,2.759,2.759,0,0,1,2.25.888,4.142,4.142,0,0,1,.756,2.654V17h-2.54V10.918a1.648,1.648,0,0,0-.352-1.173,1.574,1.574,0,0,0-1.169-.365A1.747,1.747,0,0,0,60,10.294V17h-2.54V7.49ZM67.2,12.157a5.64,5.64,0,0,1,.545-2.522,3.989,3.989,0,0,1,1.569-1.714,4.577,4.577,0,0,1,2.377-.606,4.33,4.33,0,0,1,3.142,1.178,4.727,4.727,0,0,1,1.358,3.2l.018.65a4.97,4.97,0,0,1-1.222,3.511,4.735,4.735,0,0,1-6.561,0A5.058,5.058,0,0,1,67.2,12.271Zm2.54.18a3.555,3.555,0,0,0,.51,2.073,1.831,1.831,0,0,0,2.9.009,3.89,3.89,0,0,0,.519-2.267,3.519,3.519,0,0,0-.519-2.06,1.686,1.686,0,0,0-1.459-.731,1.658,1.658,0,0,0-1.441.726A3.955,3.955,0,0,0,69.738,12.338ZM80.452,17H77.9V3.5h2.549Zm1.7-4.843a5.64,5.64,0,0,1,.545-2.522,3.989,3.989,0,0,1,1.569-1.714,4.577,4.577,0,0,1,2.377-.606,4.33,4.33,0,0,1,3.142,1.178,4.727,4.727,0,0,1,1.358,3.2l.018.65a4.97,4.97,0,0,1-1.222,3.511,4.735,4.735,0,0,1-6.561,0,5.058,5.058,0,0,1-1.226-3.586Zm2.54.18a3.555,3.555,0,0,0,.51,2.073,1.831,1.831,0,0,0,2.9.009,3.89,3.89,0,0,0,.519-2.267,3.519,3.519,0,0,0-.519-2.06,1.686,1.686,0,0,0-1.459-.731,1.658,1.658,0,0,0-1.441.726A3.955,3.955,0,0,0,84.688,12.338Zm7.664-.163A5.573,5.573,0,0,1,93.394,8.65,3.375,3.375,0,0,1,96.2,7.314a2.96,2.96,0,0,1,2.435,1.072l.105-.9h2.3v9.193a4.064,4.064,0,0,1-.567,2.171,3.641,3.641,0,0,1-1.6,1.406,5.608,5.608,0,0,1-2.408.483,5.215,5.215,0,0,1-2.039-.417,3.619,3.619,0,0,1-1.5-1.077L94.057,17.7a2.975,2.975,0,0,0,2.3,1.063,2.178,2.178,0,0,0,1.573-.541,2.027,2.027,0,0,0,.563-1.534v-.51a2.938,2.938,0,0,1-2.312.993,3.366,3.366,0,0,1-2.773-1.34,5.572,5.572,0,0,1-1.059-3.555Zm2.54.189a3.47,3.47,0,0,0,.519,2.029,1.65,1.65,0,0,0,1.424.735,1.764,1.764,0,0,0,1.661-.871V10.251a1.76,1.76,0,0,0-1.644-.871,1.66,1.66,0,0,0-1.437.748A3.911,3.911,0,0,0,94.892,12.364ZM105.738,17H103.2V7.49h2.54Zm-.747-13.368h2.769l-2.435,2.725h-2.065ZM113.437,17a2.821,2.821,0,0,1-.255-.853,3.073,3.073,0,0,1-2.4,1.028,3.376,3.376,0,0,1-2.316-.809,2.6,2.6,0,0,1-.918-2.039,2.687,2.687,0,0,1,1.121-2.32,5.529,5.529,0,0,1,3.239-.817h1.169v-.545a1.567,1.567,0,0,0-.338-1.055,1.331,1.331,0,0,0-1.068-.4,1.513,1.513,0,0,0-1.006.308,1.045,1.045,0,0,0-.365.844h-2.54a2.551,2.551,0,0,1,.51-1.529,3.37,3.37,0,0,1,1.441-1.1,5.253,5.253,0,0,1,2.092-.4,4.15,4.15,0,0,1,2.791.883,3.09,3.09,0,0,1,1.033,2.483V14.8A4.546,4.546,0,0,0,116,16.851V17Zm-2.1-1.767a2.188,2.188,0,0,0,1.037-.25,1.645,1.645,0,0,0,.7-.672V12.676h-.949q-1.907,0-2.03,1.318l-.009.149a1.017,1.017,0,0,0,.334.782A1.3,1.3,0,0,0,111.336,15.233Z" transform="translate(817 23562.555)" fill="#fff"/>
    <path id="Trazado_614522" data-name="Trazado 614522" d="M46.965,18.386H36.077V48H28.752V18.386H18.01V12.453H46.965Z" transform="translate(857 23482.555)" fill="none" stroke="#fff" stroke-width="1"/>
    <g id="Trazado_614523" data-name="Trazado 614523" transform="translate(857 23481.555)" fill="none">
      <path d="M32,0A32,32,0,1,1,0,32,32,32,0,0,1,32,0Z" stroke="none"/>
      <path d="M 32 1 C 27.81459045410156 1 23.75490188598633 1.819499969482422 19.93370819091797 3.435718536376953 C 16.24237060546875 4.997028350830078 12.92699813842773 7.232379913330078 10.07968902587891 10.07968902587891 C 7.232379913330078 12.92699813842773 4.997028350830078 16.24237060546875 3.435718536376953 19.93370819091797 C 1.819499969482422 23.75490188598633 1 27.81459045410156 1 32 C 1 36.18540954589844 1.819499969482422 40.24510192871094 3.435718536376953 44.06629180908203 C 4.997028350830078 47.75762939453125 7.232379913330078 51.072998046875 10.07968902587891 53.92031097412109 C 12.92699813842773 56.76762008666992 16.24237060546875 59.00297164916992 19.93370819091797 60.56428146362305 C 23.75490188598633 62.18050003051758 27.81459045410156 63 32 63 C 36.18540954589844 63 40.24510192871094 62.18050003051758 44.06629180908203 60.56428146362305 C 47.75762939453125 59.00297164916992 51.072998046875 56.76762008666992 53.92031097412109 53.92031097412109 C 56.76762008666992 51.072998046875 59.00297164916992 47.75762939453125 60.56428146362305 44.06629180908203 C 62.18050003051758 40.24510192871094 63 36.18540954589844 63 32 C 63 27.81459045410156 62.18050003051758 23.75490188598633 60.56428146362305 19.93370819091797 C 59.00297164916992 16.24237060546875 56.76762008666992 12.92699813842773 53.92031097412109 10.07968902587891 C 51.072998046875 7.232379913330078 47.75762939453125 4.997028350830078 44.06629180908203 3.435718536376953 C 40.24510192871094 1.819499969482422 36.18540954589844 1 32 1 M 32 0 C 49.67311096191406 0 64 14.32688903808594 64 32 C 64 49.67311096191406 49.67311096191406 64 32 64 C 14.32688903808594 64 0 49.67311096191406 0 32 C 0 14.32688903808594 14.32688903808594 0 32 0 Z" stroke="none" fill="#fff"/>
    </g>
    <path id="Trazado_610620" data-name="Trazado 610620" d="M27.606,6.217h3.856V0H27.606Zm8.252,0h3.571V0H35.858ZM41.9,0V6.217H80.118L73.9,0Z" transform="translate(789.395 23602.445)" fill="#3ae3fe"/>
  </g>
</svg>
