<svg xmlns="http://www.w3.org/2000/svg" width="114.88" height="114.881" viewBox="0 0 114.88 114.881">
  <g id="Grupo_1075162" data-name="Grupo 1075162" transform="translate(-1163 -24293.555)">
    <g id="Grupo_1073378" data-name="Grupo 1073378" transform="translate(1163 24293.555)">
      <path id="Trazado_608385" data-name="Trazado 608385" d="M57.44,0A57.44,57.44,0,1,1,0,57.44,57.44,57.44,0,0,1,57.44,0Z" transform="translate(0 0)" fill="#e1efe3"/>
    </g>
    <g id="_x32_0" transform="translate(1187.873 24318.563)">
      <path id="Trazado_610836" data-name="Trazado 610836" d="M63.624,21.36a5.339,5.339,0,0,0-5.278-.159l-17.47,8.5a5.741,5.741,0,0,0-5.6-4.52H25.9l-3.917-3.917a2.293,2.293,0,0,0-1.623-.672H11.179v-2.3A2.293,2.293,0,0,0,8.884,16H4.295a2.295,2.295,0,0,0,0,4.59H6.59V41.243H4.295a2.295,2.295,0,1,0,0,4.59h4.59a2.293,2.293,0,0,0,2.295-2.295V41.245h4.052l10.486,5.2a15.737,15.737,0,0,0,7.005,1.676,15.049,15.049,0,0,0,9.208-3.162L63.917,30.412a5.371,5.371,0,0,0-.294-9.052Zm-2.272,5.246L39.268,41.221a10.6,10.6,0,0,1-11.512,1.112L16.789,36.9a2.273,2.273,0,0,0-1.02-.24h-4.59V25.184h8.229L23.326,29.1a2.293,2.293,0,0,0,1.623.672H35.275a1.147,1.147,0,1,1,0,2.295H24.948a2.295,2.295,0,1,0,0,4.59H35.275c.17,0,.331-.036.5-.05a2.264,2.264,0,0,0,1.654-.12l23.015-11.2a.809.809,0,0,1,.834.018.765.765,0,0,1,.39.677.778.778,0,0,1-.314.627Z" transform="translate(0 18.128)" fill="#03386e" stroke="#e1efe3" stroke-width="1"/>
      <path id="Trazado_610837" data-name="Trazado 610837" d="M4.443,24.785l11.474,4.59a2.3,2.3,0,0,0,1.7,0l11.474-4.59a2.3,2.3,0,0,0,1.443-2.131V8.885a2.3,2.3,0,0,0-1.443-2.131L17.621,2.164a2.284,2.284,0,0,0-1.7,0L4.443,6.754A2.3,2.3,0,0,0,3,8.885V22.654A2.3,2.3,0,0,0,4.443,24.785ZM7.59,12.275l6.884,2.754v8.825L7.59,21.1ZM19.064,23.854V15.029l6.884-2.754V21.1ZM16.769,6.767l5.3,2.118L16.769,11l-5.3-2.118Z" transform="translate(1.295 0)" fill="#03386e" stroke="#e1efe3" stroke-width="1"/>
      <path id="Trazado_610838" data-name="Trazado 610838" d="M19.295,13.474V27.243a2.293,2.293,0,0,0,2.295,2.295H39.948a2.293,2.293,0,0,0,2.295-2.295V13.474a2.293,2.293,0,0,0,2.295-2.295V4.295A2.293,2.293,0,0,0,42.243,2H19.295A2.293,2.293,0,0,0,17,4.295v6.884A2.293,2.293,0,0,0,19.295,13.474ZM37.653,24.948H23.884V13.474H37.653ZM21.59,6.59H39.948V8.884H21.59Z" transform="translate(19.422 0.001)" fill="#03386e" stroke="#e1efe3" stroke-width="1"/>
    </g>
  </g>
</svg>
