<svg xmlns="http://www.w3.org/2000/svg" width="114.88" height="114.881" viewBox="0 0 114.88 114.881">
  <g id="Grupo_1075159" data-name="Grupo 1075159" transform="translate(-533 -24293.555)">
    <g id="Grupo_1073380" data-name="Grupo 1073380" transform="translate(533 24293.555)">
      <path id="Trazado_608385" data-name="Trazado 608385" d="M57.44,0A57.44,57.44,0,1,1,0,57.44,57.44,57.44,0,0,1,57.44,0Z" transform="translate(0 0)" fill="#e1efe3"/>
    </g>
    <g id="Delivery" transform="translate(550 24312.379)">
      <path id="Trazado_610832" data-name="Trazado 610832" d="M65.6,33.3V30.283a5.508,5.508,0,0,0,2.4-4.56V16.4a1.2,1.2,0,0,0,1.2-1.2V12.8a10.8,10.8,0,1,0-21.6,0V14h-6a1.2,1.2,0,1,0,0,2.4h7.2v6A8.413,8.413,0,0,0,56,30.715V33.2H54.8a8.41,8.41,0,0,0-8.4,8.4V50H44V24.8a1.2,1.2,0,0,0-1.2-1.2H9.2A1.2,1.2,0,0,0,8,24.8V53.6a1.2,1.2,0,0,0,1.2,1.2H20.12A6.011,6.011,0,0,0,26,59.6h3.6v3.6a1.2,1.2,0,0,0,1.2,1.2H38a1.2,1.2,0,0,0,1.2-1.2V62h7.2V72.8A1.2,1.2,0,0,0,47.6,74h24a1.2,1.2,0,0,0,1.2-1.2V41.6a8.407,8.407,0,0,0-7.2-8.3ZM50,12.8a8.4,8.4,0,0,1,16.8,0V14H50Zm9.6,15.6H57.2a6.007,6.007,0,0,1-6-6v-6H65.6v9.317a3.12,3.12,0,0,1-1.736,2.809A1.2,1.2,0,0,0,63.2,29.6v3.6H58.4V30.8h1.2a1.2,1.2,0,1,0,0-2.4ZM28.4,26v8.557L26.666,33.4a1.2,1.2,0,0,0-1.332,0L23.6,34.557V26Zm-18,0H21.2V36.8a1.2,1.2,0,0,0,1.866,1L26,35.84,28.934,37.8a1.2,1.2,0,0,0,1.866-1V26H41.6V50H39.2V48.8A1.2,1.2,0,0,0,38,47.6H30.8a1.2,1.2,0,0,0-1.2,1.2v3.6H10.4ZM26,57.2a3.607,3.607,0,0,1-3.395-2.4H29.6v2.4ZM36.8,62H32V50h4.8Zm2.4-9.6H52.4A3.6,3.6,0,0,0,56,48.8V44a3.6,3.6,0,0,1,7.2,0v7.2a8.41,8.41,0,0,1-8.4,8.4H39.2ZM54.8,62A10.812,10.812,0,0,0,65.6,51.2V44a6,6,0,0,0-12,0v4.8A1.2,1.2,0,0,1,52.4,50H48.8V41.6a6.007,6.007,0,0,1,6-6h9.6a6.007,6.007,0,0,1,6,6V66.8H48.8V62Zm15.6,9.6H48.8V69.2H70.4Z" fill="#03386e" stroke="#03366a" stroke-width="0.5"/>
    </g>
  </g>
</svg>
