<svg xmlns="http://www.w3.org/2000/svg" width="114.881" height="114.881" viewBox="0 0 114.881 114.881">
  <g id="Grupo_1075158" data-name="Grupo 1075158" transform="translate(-323 -24294)">
    <g id="Grupo_1073381" data-name="Grupo 1073381" transform="translate(323 24294)">
      <path id="Trazado_608385" data-name="Trazado 608385" d="M57.44,0A57.44,57.44,0,1,1,0,57.44,57.44,57.44,0,0,1,57.44,0Z" transform="translate(0 0)" fill="#e1efe3"/>
    </g>
    <g id="competencia_1_" data-name="competencia (1)" transform="translate(342.743 24319.676)">
      <path id="Trazado_610825" data-name="Trazado 610825" d="M208.873,44.42a6.21,6.21,0,1,1,6.21-6.21A6.216,6.216,0,0,1,208.873,44.42Zm0-9.314a3.1,3.1,0,1,0,3.105,3.1A3.108,3.108,0,0,0,208.873,35.105Zm0,0" transform="translate(-173.169 -27.343)" fill="#03386e"/>
      <path id="Trazado_610826" data-name="Trazado 610826" d="M126.36,227.706a1.554,1.554,0,0,1-1.474-1.06L120.5,213.483l-11.593-2.9A8.909,8.909,0,0,1,103,206.129a6.154,6.154,0,0,1,.239-5.507l3.105-6.209a1.553,1.553,0,1,1,2.777,1.389l-3.105,6.209a3.119,3.119,0,0,0-.2,2.819,5.924,5.924,0,0,0,3.841,2.743l12.419,3.105a1.547,1.547,0,0,1,1.1,1.014l4.091,12.273.462-.23-2.765-15.223-10.24-5.851a1.552,1.552,0,0,1-.672-1.923l3.1-7.762a1.554,1.554,0,0,1,2.136-.812l5.733,2.867,15-3a1.552,1.552,0,0,1,.61,3.044l-15.524,3.1a1.567,1.567,0,0,1-1-.134l-4.7-2.35-1.976,4.941,9.695,5.539a1.541,1.541,0,0,1,.756,1.069l3.1,17.076a1.551,1.551,0,0,1-.832,1.666l-3.1,1.553a1.547,1.547,0,0,1-.7.165Zm0,0" transform="translate(-87.551 -164.058)" fill="#03386e"/>
      <path id="Trazado_610827" data-name="Trazado 610827" d="M3.1,113.079a1.572,1.572,0,0,1-.458-.069,1.55,1.55,0,0,1-.93-.789l-1.553-3.1A1.553,1.553,0,0,1,.6,107.2L14.572,96.329a1.547,1.547,0,0,1,1.207-.305l9.314,1.552a1.577,1.577,0,0,1,.5.174l13.619,7.566H54.333a1.553,1.553,0,1,1,0,3.105H38.809a1.553,1.553,0,0,1-.755-.2l-13.737-7.632-8.379-1.4-12.43,9.668.258.517,12.554-6.975a1.553,1.553,0,0,1,1.616.065l4.657,3.105a1.553,1.553,0,0,1-1.723,2.583L17,105.582l-13.144,7.3a1.554,1.554,0,0,1-.753.194Zm0,0" transform="translate(0 -82.031)" fill="#03386e"/>
      <path id="Trazado_610828" data-name="Trazado 610828" d="M36.654,327.974a1.55,1.55,0,0,1-1.1-.455l-3.1-3.105a1.55,1.55,0,0,1-.081-2.106l9.314-10.867a1.552,1.552,0,0,1,2.356,2.02l-8.378,9.775,1.042,1.043,15.98-14.529a1.553,1.553,0,0,1,2.09,2.3L37.7,327.572a1.555,1.555,0,0,1-1.045.4Zm0,0" transform="translate(-27.341 -264.326)" fill="#03386e"/>
      <path id="Trazado_610829" data-name="Trazado 610829" d="M336.873,12.419a6.21,6.21,0,1,1,6.21-6.21A6.216,6.216,0,0,1,336.873,12.419Zm0-9.314a3.1,3.1,0,1,0,3.105,3.1A3.108,3.108,0,0,0,336.873,3.105Zm0,0" transform="translate(-282.54 0)" fill="#03386e"/>
      <path id="Trazado_610830" data-name="Trazado 610830" d="M303.523,259.514a1.551,1.551,0,0,1-1.472-1.06l-4.413-13.234-8.577-2.861a1.552,1.552,0,0,1,.982-2.945l9.314,3.1a1.545,1.545,0,0,1,.981.981l4.092,12.273.463-.23-2.757-15.169-5.516-2.757a1.553,1.553,0,1,1,1.389-2.778l6.21,3.105a1.552,1.552,0,0,1,.832,1.111l3.105,17.076a1.551,1.551,0,0,1-.832,1.666l-3.1,1.553a1.58,1.58,0,0,1-.7.163Zm0,0" transform="translate(-246.085 -200.523)" fill="#03386e"/>
      <path id="Trazado_610831" data-name="Trazado 610831" d="M314.185,100.859a1.552,1.552,0,0,1-.19-3.092l11.448-1.431L326,94.65H312.635a1.561,1.561,0,0,1-.862-.261l-8.923-5.949h-2.634a1.552,1.552,0,0,1,0-3.1h3.105a1.564,1.564,0,0,1,.861.26l8.923,5.949h15.053a1.553,1.553,0,0,1,1.474,2.045l-1.553,4.657A1.551,1.551,0,0,1,326.8,99.3l-12.419,1.553A1.659,1.659,0,0,1,314.185,100.859Zm0,0" transform="translate(-255.197 -72.917)" fill="#03386e"/>
    </g>
  </g>
</svg>
