<svg xmlns="http://www.w3.org/2000/svg" width="70" height="70" viewBox="0 0 70 70">
  <g id="Grupo_1075166" data-name="Grupo 1075166" transform="translate(-300 -27855.555)">
    <g id="Grupo_1073523" data-name="Grupo 1073523" transform="translate(31 26897.555)">
      <circle id="Elipse_5614" data-name="Elipse 5614" cx="35" cy="35" r="35" transform="translate(269 958)" fill="#0c5e46"/>
    </g>
    <g id="publico-objetivo" transform="translate(314.476 27851.148)">
      <path id="Trazado_611012" data-name="Trazado 611012" d="M79.168,126.022a1.228,1.228,0,0,0,1.228-1.228v-6.142a7.379,7.379,0,0,0-4.07-6.589,4.095,4.095,0,1,0-6.6,0,7.3,7.3,0,0,0-.937.562,7.42,7.42,0,0,0-2.147-1.716,4.5,4.5,0,1,0-6.883,0,7.42,7.42,0,0,0-2.147,1.715,7.327,7.327,0,0,0-.938-.561,4.095,4.095,0,1,0-6.6,0A7.379,7.379,0,0,0,46,118.651v6.142a1.228,1.228,0,0,0,1.228,1.228h8.6v1.228a1.229,1.229,0,0,0,1.228,1.228H69.341a1.229,1.229,0,0,0,1.228-1.228v-1.228Zm-7.78-16.38a1.638,1.638,0,1,1,1.638,1.638A1.64,1.64,0,0,1,71.388,109.642Zm1.638,4.095a4.919,4.919,0,0,1,4.914,4.914v4.914H70.569v-6.142a7.333,7.333,0,0,0-.508-2.69A4.876,4.876,0,0,1,73.026,113.737ZM61.151,108a2.047,2.047,0,1,1,2.047,2.047A2.05,2.05,0,0,1,61.151,108Zm-9.418,1.638a1.638,1.638,0,1,1,1.638,1.638A1.64,1.64,0,0,1,51.733,109.642Zm-3.276,13.923v-4.914a4.913,4.913,0,0,1,7.879-3.918,7.333,7.333,0,0,0-.508,2.689v6.142Zm19.655,2.457H58.285v-8.6a4.914,4.914,0,0,1,9.828,0Z" transform="translate(-42.233 -76.662)" fill="#fff"/>
      <path id="Trazado_611013" data-name="Trazado 611013" d="M399.681,371a1.228,1.228,0,0,0-1.228,1.228v6.224h-6.224a1.228,1.228,0,1,0,0,2.457h7.453a1.228,1.228,0,0,0,1.228-1.228v-7.453A1.228,1.228,0,0,0,399.681,371Z" transform="translate(-358.978 -322.254)" fill="#fff"/>
      <path id="Trazado_611014" data-name="Trazado 611014" d="M8.681,378.453H2.457v-6.224a1.228,1.228,0,1,0-2.457,0v7.453a1.228,1.228,0,0,0,1.228,1.228H8.681a1.228,1.228,0,1,0,0-2.457Z" transform="translate(0 -322.254)" fill="#fff"/>
      <path id="Trazado_611015" data-name="Trazado 611015" d="M1.228,29.91a1.228,1.228,0,0,0,1.228-1.228V22.457H8.681a1.228,1.228,0,1,0,0-2.457H1.228A1.228,1.228,0,0,0,0,21.228v7.453A1.228,1.228,0,0,0,1.228,29.91Z" fill="#fff"/>
      <path id="Trazado_611016" data-name="Trazado 611016" d="M398.763,20h-7.535a1.228,1.228,0,1,0,0,2.457h6.306v6.224a1.228,1.228,0,0,0,2.457,0V21.228A1.229,1.229,0,0,0,398.763,20Z" transform="translate(-358.06)" fill="#fff"/>
    </g>
  </g>
</svg>
