<svg xmlns="http://www.w3.org/2000/svg" width="123.999" height="124" viewBox="0 0 123.999 124">
  <g id="Grupo_1075192" data-name="Grupo 1075192" transform="translate(6278 -14097.555)">
    <g id="Grupo_1073517" data-name="Grupo 1073517" transform="translate(-6703.438 6599.084)" opacity="0">
      <g id="Grupo_1015374" data-name="Grupo 1015374" transform="translate(425.437 7498.471)">
        <g id="Grupo_1015448" data-name="Grupo 1015448" transform="translate(0 0)">
          <g id="Grupo_1014855" data-name="Grupo 1014855" transform="translate(0)">
            <path id="Unión_12" data-name="Unión 12" d="M62,0A62,62,0,1,1,0,62,62,62,0,0,1,62,0Z" fill="#fff"/>
          </g>
        </g>
      </g>
    </g>
    <g id="escala-de-satisfaccion" transform="translate(-6260 14109.555)">
      <path id="Trazado_610957" data-name="Trazado 610957" d="M30.984,57.116H3.966A2.975,2.975,0,0,1,1,54.15,42.909,42.909,0,0,1,17.994,19.91l3.767.133L36.59,40.8l-.652,2.729Z" transform="translate(0 2.854)" fill="#d3374e"/>
      <path id="Trazado_610958" data-name="Trazado 610958" d="M30.4,46.387,12.46,22.764a42.979,42.979,0,0,1,52.02,0l.682,3.1L48.85,46.624l-2.313-.237Z" transform="translate(5.534 0)" fill="#fdc70e"/>
      <path id="Trazado_610959" data-name="Trazado 610959" d="M35.44,43.533,53.383,19.91A42.909,42.909,0,0,1,70.377,54.15a2.975,2.975,0,0,1-2.966,2.966H40.393Z" transform="translate(16.631 2.854)" fill="#23af6f"/>
      <path id="Trazado_610960" data-name="Trazado 610960" d="M47.692,47.307a13.874,13.874,0,0,1-.326,2.966H21.326A13.874,13.874,0,0,1,21,47.307a13.315,13.315,0,0,1,5.28-10.618,12.947,12.947,0,0,1,6.331-2.609h3.47a12.947,12.947,0,0,1,6.332,2.61A13.315,13.315,0,0,1,47.692,47.307Z" transform="translate(9.658 9.697)" fill="#d4e6e7"/>
      <path id="Trazado_610961" data-name="Trazado 610961" d="M45.53,68.015a9.265,9.265,0,0,1-18.53,0c0-7.171,5.491-27.217,8.029-36.065a1.294,1.294,0,0,1,2.5,0C40.039,40.8,45.53,60.844,45.53,68.015Z" transform="translate(8.08 8.212)" fill="#30454d"/>
      <path id="Trazado_610962" data-name="Trazado 610962" d="M27.483,24.449A1.483,1.483,0,0,1,26,22.966V21.483a1.483,1.483,0,1,1,2.966,0v1.483A1.483,1.483,0,0,1,27.483,24.449Z" transform="translate(12.073 2.897)" fill="#203135"/>
      <path id="Trazado_610963" data-name="Trazado 610963" d="M33.483,24.449A1.483,1.483,0,0,1,32,22.966V21.483a1.483,1.483,0,0,1,2.966,0v1.483A1.483,1.483,0,0,1,33.483,24.449Z" transform="translate(14.97 2.897)" fill="#203135"/>
      <path id="Trazado_610964" data-name="Trazado 610964" d="M34.415,28.966H28.483a1.483,1.483,0,0,1,0-2.966h5.932a1.483,1.483,0,1,1,0,2.966Z" transform="translate(12.555 5.795)" fill="#d39518"/>
      <path id="Trazado_610965" data-name="Trazado 610965" d="M45.483,37.449A1.483,1.483,0,0,1,44,35.966V34.483a1.483,1.483,0,0,1,2.966,0v1.483A1.483,1.483,0,0,1,45.483,37.449Z" transform="translate(20.765 9.175)" fill="#203135"/>
      <path id="Trazado_610966" data-name="Trazado 610966" d="M51.483,37.449A1.483,1.483,0,0,1,50,35.966V34.483a1.483,1.483,0,0,1,2.966,0v1.483A1.483,1.483,0,0,1,51.483,37.449Z" transform="translate(23.662 9.175)" fill="#203135"/>
      <path id="Trazado_610967" data-name="Trazado 610967" d="M49.563,42.449a5.932,5.932,0,0,1-4.42-1.977,1.483,1.483,0,1,1,2.209-1.978,3.064,3.064,0,0,0,4.422,0,1.483,1.483,0,1,1,2.21,1.978,5.932,5.932,0,0,1-4.421,1.977Z" transform="translate(21.134 11.59)" fill="#1b8c56"/>
      <path id="Trazado_610968" data-name="Trazado 610968" d="M9.483,37.449A1.483,1.483,0,0,1,8,35.966V34.483a1.483,1.483,0,0,1,2.966,0v1.483A1.483,1.483,0,0,1,9.483,37.449Z" transform="translate(3.38 9.175)" fill="#203135"/>
      <path id="Trazado_610969" data-name="Trazado 610969" d="M15.483,37.449A1.483,1.483,0,0,1,14,35.966V34.483a1.483,1.483,0,0,1,2.966,0v1.483A1.483,1.483,0,0,1,15.483,37.449Z" transform="translate(6.278 9.175)" fill="#203135"/>
      <path id="Trazado_610970" data-name="Trazado 610970" d="M16.878,42.449a1.483,1.483,0,0,1-1.1-.492,3.062,3.062,0,0,0-4.425,0,1.483,1.483,0,1,1-2.207-1.981,5.932,5.932,0,0,1,8.838,0,1.483,1.483,0,0,1-1.1,2.474Z" transform="translate(3.749 11.59)" fill="#ad2d46"/>
    </g>
  </g>
</svg>
