<svg xmlns="http://www.w3.org/2000/svg" width="400" height="600" viewBox="0 0 400 600">
  <g id="Grupo_1075166" data-name="Grupo 1075166" transform="translate(9133 -12961.555)">
    <path id="Trazado_614586" data-name="Trazado 614586" d="M0,0H400V600H0Z" transform="translate(-9133 12961.555)" fill="#fff"/>
    <path id="Trazado_614587" data-name="Trazado 614587" d="M7.994,13.186H3.312L2.333,16H.149L4.715,3.914H6.6L11.173,16H8.981ZM3.9,11.493H7.4L5.653,6.479Zm9.944-4.474.058.938a3.232,3.232,0,0,1,2.59-1.1A2.483,2.483,0,0,1,18.959,8.23a3.186,3.186,0,0,1,2.756-1.378,2.8,2.8,0,0,1,2.212.822A3.618,3.618,0,0,1,24.67,10.1V16H22.653V10.156A1.786,1.786,0,0,0,22.279,8.9a1.635,1.635,0,0,0-1.237-.4,1.679,1.679,0,0,0-1.125.369,1.948,1.948,0,0,0-.61.967L19.316,16H17.3V10.09A1.439,1.439,0,0,0,15.68,8.5a1.776,1.776,0,0,0-1.718.988V16H11.945V7.019ZM30.7,16.166a4.173,4.173,0,0,1-3.109-1.208A4.381,4.381,0,0,1,26.4,11.742v-.249a5.389,5.389,0,0,1,.519-2.4,3.949,3.949,0,0,1,1.457-1.648,3.851,3.851,0,0,1,2.092-.589A3.525,3.525,0,0,1,33.3,8.023a4.949,4.949,0,0,1,1,3.312v.813H28.43a2.7,2.7,0,0,0,.743,1.76,2.23,2.23,0,0,0,1.639.647,2.731,2.731,0,0,0,2.258-1.121l1.087,1.038a3.631,3.631,0,0,1-1.44,1.249A4.509,4.509,0,0,1,30.7,16.166Zm-.241-7.695a1.7,1.7,0,0,0-1.341.581,3.012,3.012,0,0,0-.652,1.619h3.843v-.149a2.452,2.452,0,0,0-.54-1.531A1.686,1.686,0,0,0,30.456,8.471Zm7.28-1.453.058,1.038a3.229,3.229,0,0,1,2.615-1.2q2.806,0,2.855,3.212V16H41.247V10.181a1.85,1.85,0,0,0-.369-1.266A1.554,1.554,0,0,0,39.669,8.5a1.944,1.944,0,0,0-1.818,1.1V16H35.834V7.019ZM50.685,16a3.113,3.113,0,0,1-.232-.838,3.393,3.393,0,0,1-4.565.232,2.47,2.47,0,0,1-.855-1.909,2.55,2.55,0,0,1,1.067-2.2,5.169,5.169,0,0,1,3.051-.768h1.237V9.924A1.573,1.573,0,0,0,50,8.807a1.547,1.547,0,0,0-1.187-.419,1.777,1.777,0,0,0-1.129.344,1.066,1.066,0,0,0-.44.876H45.223a2.239,2.239,0,0,1,.49-1.382,3.263,3.263,0,0,1,1.332-1.009,4.68,4.68,0,0,1,1.88-.365,3.769,3.769,0,0,1,2.515.793A2.827,2.827,0,0,1,52.4,9.874v4.051a4.591,4.591,0,0,0,.34,1.934V16Zm-2.216-1.453a2.294,2.294,0,0,0,1.125-.291,1.941,1.941,0,0,0,.793-.78V11.783H49.3a2.973,2.973,0,0,0-1.685.39,1.264,1.264,0,0,0-.564,1.1,1.179,1.179,0,0,0,.386.926A1.5,1.5,0,0,0,48.468,14.547Zm8.2-.158h4.781V16H54.163V14.68L58.72,8.646H54.246V7.019h7.031V8.3ZM68.432,16a3.113,3.113,0,0,1-.232-.838,3.393,3.393,0,0,1-4.565.232,2.47,2.47,0,0,1-.855-1.909,2.55,2.55,0,0,1,1.067-2.2,5.169,5.169,0,0,1,3.051-.768h1.237V9.924a1.573,1.573,0,0,0-.39-1.116,1.547,1.547,0,0,0-1.187-.419,1.777,1.777,0,0,0-1.129.344,1.066,1.066,0,0,0-.44.876H62.97a2.239,2.239,0,0,1,.49-1.382,3.263,3.263,0,0,1,1.332-1.009,4.68,4.68,0,0,1,1.88-.365,3.769,3.769,0,0,1,2.515.793,2.827,2.827,0,0,1,.963,2.229v4.051a4.591,4.591,0,0,0,.34,1.934V16Zm-2.216-1.453a2.294,2.294,0,0,0,1.125-.291,1.941,1.941,0,0,0,.793-.78V11.783H67.045a2.973,2.973,0,0,0-1.685.39,1.264,1.264,0,0,0-.564,1.1,1.179,1.179,0,0,0,.386.926A1.5,1.5,0,0,0,66.215,14.547ZM77.3,13.56a.914.914,0,0,0-.444-.822,4.723,4.723,0,0,0-1.473-.5,7.574,7.574,0,0,1-1.718-.548A2.293,2.293,0,0,1,72.15,9.575a2.391,2.391,0,0,1,.979-1.942,3.872,3.872,0,0,1,2.49-.78,4.029,4.029,0,0,1,2.6.8,2.529,2.529,0,0,1,.992,2.067H77.2a1.243,1.243,0,0,0-.432-.967,1.654,1.654,0,0,0-1.146-.386,1.787,1.787,0,0,0-1.083.307.968.968,0,0,0-.419.822.818.818,0,0,0,.39.722,5.365,5.365,0,0,0,1.577.519,7.466,7.466,0,0,1,1.864.623,2.639,2.639,0,0,1,1,.867,2.212,2.212,0,0,1,.328,1.229,2.34,2.34,0,0,1-1,1.963,4.283,4.283,0,0,1-2.631.751,4.644,4.644,0,0,1-1.967-.4,3.238,3.238,0,0,1-1.345-1.1,2.594,2.594,0,0,1-.481-1.5h1.959a1.421,1.421,0,0,0,.54,1.1,2.1,2.1,0,0,0,1.32.386,2.04,2.04,0,0,0,1.212-.3A.938.938,0,0,0,77.3,13.56Z" transform="translate(-9120.698 13461.219)" fill="#12263f"/>
    <path id="Trazado_614588" data-name="Trazado 614588" d="M55.1,10.272a7.415,7.415,0,0,1-.614,3.117,4.644,4.644,0,0,1-1.756,2.059,5.15,5.15,0,0,1-5.246,0A4.716,4.716,0,0,1,45.705,13.4a7.183,7.183,0,0,1-.635-3.063V9.658A7.352,7.352,0,0,1,45.7,6.537a4.71,4.71,0,0,1,1.768-2.071A5.161,5.161,0,0,1,52.7,4.458,4.65,4.65,0,0,1,54.467,6.5,7.336,7.336,0,0,1,55.1,9.6ZM53,9.642a5.283,5.283,0,0,0-.76-3.08,2.68,2.68,0,0,0-4.283,0,5.181,5.181,0,0,0-.784,3.017v.7a5.243,5.243,0,0,0,.776,3.08A2.5,2.5,0,0,0,50.1,14.439a2.47,2.47,0,0,0,2.146-1.062,5.356,5.356,0,0,0,.751-3.1ZM64.859,11.6a5.348,5.348,0,0,1-.946,3.324,3.287,3.287,0,0,1-4.906.27v4.258H56.99V7.019H58.85l.083.913a2.963,2.963,0,0,1,2.416-1.079,3.062,3.062,0,0,1,2.577,1.224,5.49,5.49,0,0,1,.934,3.4Zm-2.009-.174a3.746,3.746,0,0,0-.535-2.133A1.741,1.741,0,0,0,60.784,8.5a1.856,1.856,0,0,0-1.776,1.021V13.51A1.873,1.873,0,0,0,60.8,14.556a1.739,1.739,0,0,0,1.507-.776A4.124,4.124,0,0,0,62.851,11.426Zm3.337,0a5.3,5.3,0,0,1,.523-2.378A3.819,3.819,0,0,1,68.18,7.421a4.14,4.14,0,0,1,2.175-.569,3.923,3.923,0,0,1,2.951,1.17,4.6,4.6,0,0,1,1.224,3.1l.008.473a5.343,5.343,0,0,1-.51,2.374,3.773,3.773,0,0,1-1.461,1.619,4.17,4.17,0,0,1-2.2.573A3.9,3.9,0,0,1,67.329,14.9a4.848,4.848,0,0,1-1.141-3.374ZM68.2,11.6a3.619,3.619,0,0,0,.573,2.171,1.862,1.862,0,0,0,1.594.784,1.842,1.842,0,0,0,1.59-.8,4,4,0,0,0,.569-2.333,3.572,3.572,0,0,0-.585-2.158,1.973,1.973,0,0,0-3.158-.012A3.922,3.922,0,0,0,68.2,11.6ZM80.946,8.861a4.991,4.991,0,0,0-.822-.066,1.85,1.85,0,0,0-1.868,1.063V16H76.24V7.019h1.926l.05,1a2.273,2.273,0,0,1,2.025-1.17,1.888,1.888,0,0,1,.714.116Zm4.217-4.026V7.019h1.585V8.513H85.163v5.014a1.1,1.1,0,0,0,.2.743.943.943,0,0,0,.726.228,3.107,3.107,0,0,0,.706-.083v1.561a4.968,4.968,0,0,1-1.328.191q-2.324,0-2.324-2.565V8.513H81.668V7.019h1.478V4.835ZM93.729,15.12a3.128,3.128,0,0,1-2.523,1.046,2.788,2.788,0,0,1-2.212-.855,3.637,3.637,0,0,1-.751-2.474V7.019H90.26v5.794q0,1.71,1.419,1.71a1.993,1.993,0,0,0,1.984-1.054V7.019H95.68V16h-1.9Zm5.877-8.1.058,1.038a3.229,3.229,0,0,1,2.615-1.2q2.806,0,2.855,3.212V16h-2.017V10.181a1.85,1.85,0,0,0-.369-1.266,1.554,1.554,0,0,0-1.208-.411,1.944,1.944,0,0,0-1.818,1.1V16H97.706V7.019ZM109.335,16h-2.017V7.019h2.017ZM107.193,4.686a1.071,1.071,0,0,1,.295-.772,1.113,1.113,0,0,1,.843-.307,1.127,1.127,0,0,1,.847.307,1.062,1.062,0,0,1,.3.772,1.038,1.038,0,0,1-.3.76,1.136,1.136,0,0,1-.847.3,1.122,1.122,0,0,1-.843-.3A1.046,1.046,0,0,1,107.193,4.686Zm3.959,6.757a5.34,5.34,0,0,1,.963-3.333A3.085,3.085,0,0,1,114.7,6.853a2.931,2.931,0,0,1,2.308,1V3.25h2.017V16H117.2l-.1-.93a2.973,2.973,0,0,1-2.416,1.1,3.068,3.068,0,0,1-2.552-1.27A5.535,5.535,0,0,1,111.153,11.443Zm2.017.174a3.739,3.739,0,0,0,.527,2.137,1.71,1.71,0,0,0,1.5.768,1.9,1.9,0,0,0,1.81-1.1V9.583A1.876,1.876,0,0,0,115.212,8.5a1.723,1.723,0,0,0-1.511.776A4.163,4.163,0,0,0,113.17,11.617ZM126.493,16a3.113,3.113,0,0,1-.232-.838,3.393,3.393,0,0,1-4.565.232,2.47,2.47,0,0,1-.855-1.909,2.55,2.55,0,0,1,1.067-2.2,5.169,5.169,0,0,1,3.051-.768h1.237V9.924a1.573,1.573,0,0,0-.39-1.116,1.547,1.547,0,0,0-1.187-.419,1.777,1.777,0,0,0-1.129.344,1.066,1.066,0,0,0-.44.876h-2.017a2.239,2.239,0,0,1,.49-1.382,3.263,3.263,0,0,1,1.332-1.009,4.68,4.68,0,0,1,1.88-.365,3.769,3.769,0,0,1,2.515.793,2.827,2.827,0,0,1,.963,2.229v4.051a4.591,4.591,0,0,0,.34,1.934V16Zm-2.216-1.453a2.294,2.294,0,0,0,1.125-.291,1.941,1.941,0,0,0,.793-.78V11.783h-1.087a2.973,2.973,0,0,0-1.685.39,1.264,1.264,0,0,0-.564,1.1,1.179,1.179,0,0,0,.386.926A1.5,1.5,0,0,0,124.276,14.547Zm5.669-3.1a5.34,5.34,0,0,1,.963-3.333,3.085,3.085,0,0,1,2.582-1.258,2.931,2.931,0,0,1,2.308,1V3.25h2.017V16h-1.826l-.1-.93a2.973,2.973,0,0,1-2.416,1.1,3.068,3.068,0,0,1-2.552-1.27A5.535,5.535,0,0,1,129.946,11.443Zm2.017.174a3.739,3.739,0,0,0,.527,2.137,1.71,1.71,0,0,0,1.5.768,1.9,1.9,0,0,0,1.81-1.1V9.583A1.876,1.876,0,0,0,134,8.5a1.723,1.723,0,0,0-1.511.776A4.163,4.163,0,0,0,131.963,11.617Zm11.912,4.549a4.173,4.173,0,0,1-3.109-1.208,4.381,4.381,0,0,1-1.191-3.217v-.249a5.389,5.389,0,0,1,.519-2.4,3.949,3.949,0,0,1,1.457-1.648,3.851,3.851,0,0,1,2.092-.589,3.525,3.525,0,0,1,2.835,1.17,4.949,4.949,0,0,1,1,3.312v.813h-5.869a2.7,2.7,0,0,0,.743,1.76,2.23,2.23,0,0,0,1.639.647,2.731,2.731,0,0,0,2.258-1.121l1.087,1.038a3.631,3.631,0,0,1-1.44,1.249A4.509,4.509,0,0,1,143.875,16.166Zm-.241-7.695a1.7,1.7,0,0,0-1.341.581,3.012,3.012,0,0,0-.652,1.619h3.843v-.149a2.452,2.452,0,0,0-.54-1.531A1.686,1.686,0,0,0,143.634,8.471Zm10.442,5.088a.914.914,0,0,0-.444-.822,4.723,4.723,0,0,0-1.473-.5,7.574,7.574,0,0,1-1.718-.548,2.293,2.293,0,0,1-1.511-2.117,2.391,2.391,0,0,1,.979-1.942,3.872,3.872,0,0,1,2.49-.78,4.029,4.029,0,0,1,2.6.8,2.529,2.529,0,0,1,.992,2.067h-2.017a1.243,1.243,0,0,0-.432-.967,1.654,1.654,0,0,0-1.146-.386,1.787,1.787,0,0,0-1.083.307.968.968,0,0,0-.419.822.818.818,0,0,0,.39.722,5.365,5.365,0,0,0,1.577.519,7.466,7.466,0,0,1,1.864.623,2.639,2.639,0,0,1,1,.867,2.212,2.212,0,0,1,.328,1.229,2.34,2.34,0,0,1-1,1.963,4.283,4.283,0,0,1-2.631.751,4.644,4.644,0,0,1-1.967-.4,3.238,3.238,0,0,1-1.345-1.1,2.594,2.594,0,0,1-.481-1.5h1.959a1.421,1.421,0,0,0,.54,1.1,2.1,2.1,0,0,0,1.32.386,2.04,2.04,0,0,0,1.212-.3A.938.938,0,0,0,154.076,13.56Z" transform="translate(-8901.532 13035.307)" fill="#12263f"/>
    <path id="Trazado_614589" data-name="Trazado 614589" d="M68.9,16V3.914h3.569a5.6,5.6,0,0,1,2.843.714,4.868,4.868,0,0,1,1.922,2.025,6.429,6.429,0,0,1,.681,3v.606a6.4,6.4,0,0,1-.685,3.021,4.809,4.809,0,0,1-1.951,2.009,5.858,5.858,0,0,1-2.9.706ZM71,5.607v8.716h1.37a3.154,3.154,0,0,0,2.536-1.033,4.5,4.5,0,0,0,.9-2.968V9.65a4.619,4.619,0,0,0-.855-3,3.031,3.031,0,0,0-2.482-1.038ZM83.769,16.166a4.173,4.173,0,0,1-3.109-1.208,4.381,4.381,0,0,1-1.191-3.217v-.249a5.389,5.389,0,0,1,.519-2.4,3.949,3.949,0,0,1,1.457-1.648,3.851,3.851,0,0,1,2.092-.589,3.525,3.525,0,0,1,2.835,1.17,4.949,4.949,0,0,1,1,3.312v.813H81.5a2.7,2.7,0,0,0,.743,1.76,2.23,2.23,0,0,0,1.639.647,2.731,2.731,0,0,0,2.258-1.121l1.087,1.038a3.631,3.631,0,0,1-1.44,1.249A4.509,4.509,0,0,1,83.769,16.166Zm-.241-7.695a1.7,1.7,0,0,0-1.341.581,3.012,3.012,0,0,0-.652,1.619h3.843v-.149a2.452,2.452,0,0,0-.54-1.531A1.686,1.686,0,0,0,83.528,8.471ZM96.817,11.6a5.4,5.4,0,0,1-.934,3.329,3.042,3.042,0,0,1-2.569,1.237,2.93,2.93,0,0,1-2.457-1.137l-.1.971H88.932V3.25h2.017V7.882A2.92,2.92,0,0,1,93.3,6.853a3.077,3.077,0,0,1,2.582,1.22,5.484,5.484,0,0,1,.938,3.412ZM94.8,11.426a3.813,3.813,0,0,0-.515-2.191,1.714,1.714,0,0,0-1.494-.73A1.873,1.873,0,0,0,90.949,9.65v3.7a1.892,1.892,0,0,0,1.859,1.17,1.7,1.7,0,0,0,1.461-.706,3.7,3.7,0,0,0,.531-2.133ZM100.652,16H98.635V7.019h2.017ZM98.511,4.686a1.071,1.071,0,0,1,.295-.772,1.113,1.113,0,0,1,.843-.307,1.127,1.127,0,0,1,.847.307,1.062,1.062,0,0,1,.3.772,1.038,1.038,0,0,1-.3.76,1.136,1.136,0,0,1-.847.3,1.122,1.122,0,0,1-.843-.3A1.046,1.046,0,0,1,98.511,4.686ZM104.994,16h-2.017V3.25h2.017Zm4.341,0h-2.017V7.019h2.017ZM107.193,4.686a1.071,1.071,0,0,1,.295-.772,1.113,1.113,0,0,1,.843-.307,1.127,1.127,0,0,1,.847.307,1.062,1.062,0,0,1,.3.772,1.038,1.038,0,0,1-.3.76,1.136,1.136,0,0,1-.847.3,1.122,1.122,0,0,1-.843-.3A1.046,1.046,0,0,1,107.193,4.686Zm3.959,6.757a5.34,5.34,0,0,1,.963-3.333A3.085,3.085,0,0,1,114.7,6.853a2.931,2.931,0,0,1,2.308,1V3.25h2.017V16H117.2l-.1-.93a2.973,2.973,0,0,1-2.416,1.1,3.068,3.068,0,0,1-2.552-1.27A5.535,5.535,0,0,1,111.153,11.443Zm2.017.174a3.739,3.739,0,0,0,.527,2.137,1.71,1.71,0,0,0,1.5.768,1.9,1.9,0,0,0,1.81-1.1V9.583A1.876,1.876,0,0,0,115.212,8.5a1.723,1.723,0,0,0-1.511.776A4.163,4.163,0,0,0,113.17,11.617ZM126.493,16a3.113,3.113,0,0,1-.232-.838,3.393,3.393,0,0,1-4.565.232,2.47,2.47,0,0,1-.855-1.909,2.55,2.55,0,0,1,1.067-2.2,5.169,5.169,0,0,1,3.051-.768h1.237V9.924a1.573,1.573,0,0,0-.39-1.116,1.547,1.547,0,0,0-1.187-.419,1.777,1.777,0,0,0-1.129.344,1.066,1.066,0,0,0-.44.876h-2.017a2.239,2.239,0,0,1,.49-1.382,3.263,3.263,0,0,1,1.332-1.009,4.68,4.68,0,0,1,1.88-.365,3.769,3.769,0,0,1,2.515.793,2.827,2.827,0,0,1,.963,2.229v4.051a4.591,4.591,0,0,0,.34,1.934V16Zm-2.216-1.453a2.294,2.294,0,0,0,1.125-.291,1.941,1.941,0,0,0,.793-.78V11.783h-1.087a2.973,2.973,0,0,0-1.685.39,1.264,1.264,0,0,0-.564,1.1,1.179,1.179,0,0,0,.386.926A1.5,1.5,0,0,0,124.276,14.547Zm5.669-3.1a5.34,5.34,0,0,1,.963-3.333,3.085,3.085,0,0,1,2.582-1.258,2.931,2.931,0,0,1,2.308,1V3.25h2.017V16h-1.826l-.1-.93a2.973,2.973,0,0,1-2.416,1.1,3.068,3.068,0,0,1-2.552-1.27A5.535,5.535,0,0,1,129.946,11.443Zm2.017.174a3.739,3.739,0,0,0,.527,2.137,1.71,1.71,0,0,0,1.5.768,1.9,1.9,0,0,0,1.81-1.1V9.583A1.876,1.876,0,0,0,134,8.5a1.723,1.723,0,0,0-1.511.776A4.163,4.163,0,0,0,131.963,11.617Zm11.912,4.549a4.173,4.173,0,0,1-3.109-1.208,4.381,4.381,0,0,1-1.191-3.217v-.249a5.389,5.389,0,0,1,.519-2.4,3.949,3.949,0,0,1,1.457-1.648,3.851,3.851,0,0,1,2.092-.589,3.525,3.525,0,0,1,2.835,1.17,4.949,4.949,0,0,1,1,3.312v.813h-5.869a2.7,2.7,0,0,0,.743,1.76,2.23,2.23,0,0,0,1.639.647,2.731,2.731,0,0,0,2.258-1.121l1.087,1.038a3.631,3.631,0,0,1-1.44,1.249A4.509,4.509,0,0,1,143.875,16.166Zm-.241-7.695a1.7,1.7,0,0,0-1.341.581,3.012,3.012,0,0,0-.652,1.619h3.843v-.149a2.452,2.452,0,0,0-.54-1.531A1.686,1.686,0,0,0,143.634,8.471Zm10.442,5.088a.914.914,0,0,0-.444-.822,4.723,4.723,0,0,0-1.473-.5,7.574,7.574,0,0,1-1.718-.548,2.293,2.293,0,0,1-1.511-2.117,2.391,2.391,0,0,1,.979-1.942,3.872,3.872,0,0,1,2.49-.78,4.029,4.029,0,0,1,2.6.8,2.529,2.529,0,0,1,.992,2.067h-2.017a1.243,1.243,0,0,0-.432-.967,1.654,1.654,0,0,0-1.146-.386,1.787,1.787,0,0,0-1.083.307.968.968,0,0,0-.419.822.818.818,0,0,0,.39.722,5.365,5.365,0,0,0,1.577.519,7.466,7.466,0,0,1,1.864.623,2.639,2.639,0,0,1,1,.867,2.212,2.212,0,0,1,.328,1.229,2.34,2.34,0,0,1-1,1.963,4.283,4.283,0,0,1-2.631.751,4.644,4.644,0,0,1-1.967-.4,3.238,3.238,0,0,1-1.345-1.1,2.594,2.594,0,0,1-.481-1.5h1.959a1.421,1.421,0,0,0,.54,1.1,2.1,2.1,0,0,0,1.32.386,2.04,2.04,0,0,0,1.212-.3A.938.938,0,0,0,154.076,13.56Z" transform="translate(-8914.532 13513.059)" fill="#12263f"/>
    <path id="Trazado_614590" data-name="Trazado 614590" d="M81,243A81,81,0,1,1,81,81a81,81,0,1,1,162,0,81,81,0,1,1,0,162,81,81,0,1,1-162,0Zm81-81Zm0,0Z" transform="translate(-9095 13093.555)" fill="#e1fbff"/>
    <g id="Grupo_1073490" data-name="Grupo 1073490" transform="translate(-9095.129 13093.426)">
      <circle id="Elipse_5959" data-name="Elipse 5959" cx="81" cy="81" r="81" transform="translate(81.129 162.128)" fill="#e1fbff"/>
      <circle id="Elipse_5960" data-name="Elipse 5960" cx="81" cy="81" r="81" transform="translate(81.129 0.128)" fill="#e1fbff"/>
      <circle id="Elipse_5958" data-name="Elipse 5958" cx="71" cy="71" r="71" transform="translate(91.129 172.128)" fill="#eba325"/>
      <circle id="Elipse_5961" data-name="Elipse 5961" cx="71" cy="71" r="71" transform="translate(91.129 10.128)" fill="#eba325"/>
      <circle id="Elipse_5962" data-name="Elipse 5962" cx="81" cy="81" r="81" transform="translate(162.129 81.128) rotate(90)" fill="#e1fbff"/>
      <circle id="Elipse_5963" data-name="Elipse 5963" cx="81" cy="81" r="81" transform="translate(324.129 81.128) rotate(90)" fill="#e1fbff"/>
      <circle id="Elipse_5964" data-name="Elipse 5964" cx="71" cy="71" r="71" transform="translate(152.129 91.128) rotate(90)" fill="#eba325"/>
      <circle id="Elipse_5965" data-name="Elipse 5965" cx="71" cy="71" r="71" transform="translate(314.129 91.128) rotate(90)" fill="#eba325"/>
    </g>
    <path id="Trazado_614591" data-name="Trazado 614591" d="M81,0A81,81,0,1,1,0,81,81,81,0,0,1,81,0Z" transform="translate(-9014 13255.555)" fill="#e1fbff"/>
    <path id="Trazado_614592" data-name="Trazado 614592" d="M81,0A81,81,0,1,1,0,81,81,81,0,0,1,81,0Z" transform="translate(-9014 13093.555)" fill="#e1fbff"/>
    <path id="Trazado_614593" data-name="Trazado 614593" d="M81,0A81,81,0,1,1,0,81,81,81,0,0,1,81,0Z" transform="translate(-8933 13174.555) rotate(90)" fill="#e1fbff"/>
    <path id="Trazado_614594" data-name="Trazado 614594" d="M81,0A81,81,0,1,1,0,81,81,81,0,0,1,81,0Z" transform="translate(-8771 13174.555) rotate(90)" fill="#e1fbff"/>
    <path id="Trazado_614595" data-name="Trazado 614595" d="M71.5,143A71.44,71.44,0,0,1,0,71.5c0-.186,0-.37,0-.555A80.634,80.634,0,0,0,70.945,0l.277,0H71.5A71.519,71.519,0,0,1,99.331,137.381,71.055,71.055,0,0,1,71.5,143Z" transform="translate(-8923 13184.555)" fill="#03386e"/>
    <path id="Trazado_614596" data-name="Trazado 614596" d="M81,0A81,81,0,1,1,0,81,81,81,0,0,1,81,0Z" transform="translate(-8933 13174.555) rotate(90)" fill="#e1fbff"/>
    <path id="Trazado_614597" data-name="Trazado 614597" d="M81,0A81,81,0,1,1,0,81,81,81,0,0,1,81,0Z" transform="translate(-8852 13255.555) rotate(180)" fill="#e1fbff"/>
    <path id="Trazado_614598" data-name="Trazado 614598" d="M71.5,143A71.44,71.44,0,0,1,0,71.5c0-.186,0-.37,0-.555A80.634,80.634,0,0,0,70.945,0l.277,0H71.5A71.519,71.519,0,0,1,99.331,137.381,71.055,71.055,0,0,1,71.5,143Z" transform="translate(-8862 13265.555) rotate(90)" fill="#09909f"/>
    <path id="Trazado_614599" data-name="Trazado 614599" d="M81,0A81,81,0,1,1,0,81,81,81,0,0,1,81,0Z" transform="translate(-8852 13255.555) rotate(180)" fill="#e1fbff"/>
    <path id="Trazado_614600" data-name="Trazado 614600" d="M71.5,143A71.44,71.44,0,0,1,0,71.5c0-.186,0-.37,0-.555A80.634,80.634,0,0,0,70.945,0l.277,0H71.5A71.519,71.519,0,0,1,99.331,137.381,71.055,71.055,0,0,1,71.5,143Z" transform="translate(-8943 13326.555) rotate(180)" fill="#88323b"/>
    <path id="Trazado_614601" data-name="Trazado 614601" d="M71.5,143A71.44,71.44,0,0,1,0,71.5c0-.186,0-.37,0-.555A80.634,80.634,0,0,0,70.945,0l.277,0H71.5A71.519,71.519,0,0,1,99.331,137.381,71.055,71.055,0,0,1,71.5,143Z" transform="translate(-9004 13245.555) rotate(-90)" fill="#0c5e46"/>
    <path id="Trazado_614602" data-name="Trazado 614602" d="M48,0A48,48,0,1,1,0,48,48,48,0,0,1,48,0Z" transform="translate(-8981 13207.555)" fill="#fff"/>
    <g id="Grupo_1073491" data-name="Grupo 1073491" transform="translate(-8976.313 13237.555)">
      <text id="Análisis_FODA" data-name="Análisis FODA" transform="translate(0)" fill="#12263f" font-size="18" font-family="Roboto-Black, Roboto" font-weight="800"><tspan x="10.899" y="17">Análisis </tspan><tspan x="20.321" y="37">FODA</tspan></text>
    </g>
    <path id="Trazado_614603" data-name="Trazado 614603" d="M43.364,33.474H29.3V48H21.978V12.453H45.122v5.933H29.3v9.18H43.364Z" transform="translate(-8960 13130.055)" fill="none" stroke="#fff" stroke-width="1"/>
    <path id="Trazado_614604" data-name="Trazado 614604" d="M19.426,48V12.453H30.364a16.61,16.61,0,0,1,8.386,2.112,14.726,14.726,0,0,1,5.774,6.006,18.524,18.524,0,0,1,2.075,8.85v1.636a18.577,18.577,0,0,1-2.039,8.813,14.6,14.6,0,0,1-5.75,5.981A16.735,16.735,0,0,1,30.437,48ZM26.75,18.386v23.73h3.54a7.954,7.954,0,0,0,6.567-2.808q2.271-2.808,2.319-8.032V29.4q0-5.42-2.246-8.215a7.927,7.927,0,0,0-6.567-2.8Z" transform="translate(-8965.5 13321.555)" fill="none" stroke="#fff" stroke-width="1"/>
    <path id="Trazado_614605" data-name="Trazado 614605" d="M47.612,31.032a21.459,21.459,0,0,1-1.855,9.2,13.974,13.974,0,0,1-5.31,6.1,14.689,14.689,0,0,1-7.922,2.148,14.789,14.789,0,0,1-7.886-2.124A14.111,14.111,0,0,1,19.268,40.3a20.845,20.845,0,0,1-1.929-9.07V29.47a21.346,21.346,0,0,1,1.892-9.241A14.088,14.088,0,0,1,24.578,14.1a14.707,14.707,0,0,1,7.9-2.136,14.707,14.707,0,0,1,7.9,2.136,14.088,14.088,0,0,1,5.347,6.128,21.285,21.285,0,0,1,1.892,9.216ZM40.19,29.421q0-5.591-2-8.5a6.524,6.524,0,0,0-5.713-2.905,6.526,6.526,0,0,0-5.688,2.869q-2,2.869-2.026,8.411v1.733q0,5.444,2,8.447a6.507,6.507,0,0,0,5.762,3,6.449,6.449,0,0,0,5.664-2.893q1.978-2.893,2-8.435Z" transform="translate(-8870 13225.055)" fill="none" stroke="#fff" stroke-width="1"/>
    <path id="Trazado_614606" data-name="Trazado 614606" d="M38.921,40.676H26.079L23.638,48H15.85L29.082,12.453h6.787L49.175,48H41.387ZM28.057,34.743h8.887L32.476,21.438Z" transform="translate(-9058 13225.055)" fill="none" stroke="#fff" stroke-width="1"/>
    <g id="Grupo_1073474" data-name="Grupo 1073474" transform="translate(-9120.697 13381.315)">
      <g id="Grupo_1073473" data-name="Grupo 1073473" transform="translate(0 0)">
        <path id="Trazado_610914" data-name="Trazado 610914" d="M61.93,66.474,58.62,63.164a7.03,7.03,0,0,0-9.932,0l-1.1,1.1-3.311-3.311a2.341,2.341,0,0,0-3.311,0l-6.25,6.25A24.9,24.9,0,1,0,47.956,80.45l6.25-6.25a2.341,2.341,0,0,0,0-3.311l-3.311-3.311,1.1-1.1a2.344,2.344,0,0,1,3.311,0l3.311,3.311a2.341,2.341,0,0,0,3.311-3.31ZM39.307,104.549A20.269,20.269,0,1,1,33.933,72a2.3,2.3,0,0,0,.205.12,20.347,20.347,0,0,1,4.573,3.165l.054.051q.276.255.542.52t.52.542l.051.055a20.34,20.34,0,0,1,3.165,4.573,2.277,2.277,0,0,0,.12.205,20.363,20.363,0,0,1-3.856,23.32Zm6.311-28.383a25.094,25.094,0,0,0-2.586-3.2q-.2-.215-.414-.425t-.425-.415A25.107,25.107,0,0,0,39,69.543l3.622-3.622,6.623,6.623Z" transform="translate(0 -60.27)" fill="#88323b" stroke="#fff" stroke-width="2"/>
      </g>
    </g>
    <g id="Grupo_1073476" data-name="Grupo 1073476" transform="translate(-9055.146 13394.067)">
      <g id="Grupo_1073475" data-name="Grupo 1073475" transform="translate(0 0)">
        <path id="Trazado_610915" data-name="Trazado 610915" d="M473.035,153.458l-1.561-1.561a2.341,2.341,0,0,0-3.311,3.311l1.561,1.561a2.341,2.341,0,0,0,3.31-3.311Z" transform="translate(-467.478 -151.211)" fill="#88323b" stroke="#fff" stroke-width="2"/>
      </g>
    </g>
    <g id="Grupo_1073478" data-name="Grupo 1073478" transform="translate(-9064.511 13394.067)">
      <g id="Grupo_1073477" data-name="Grupo 1073477" transform="translate(0 0)">
        <path id="Trazado_610916" data-name="Trazado 610916" d="M406.254,151.9a2.34,2.34,0,0,0-3.31,0l-1.561,1.561a2.341,2.341,0,1,0,3.31,3.311l1.561-1.561A2.341,2.341,0,0,0,406.254,151.9Z" transform="translate(-400.697 -151.211)" fill="#88323b" stroke="#fff" stroke-width="2"/>
      </g>
    </g>
    <g id="Grupo_1073480" data-name="Grupo 1073480" transform="translate(-9055.146 13384.702)">
      <g id="Grupo_1073479" data-name="Grupo 1073479" transform="translate(0 0)">
        <path id="Trazado_610917" data-name="Trazado 610917" d="M473.037,85.113a2.34,2.34,0,0,0-3.31,0l-1.561,1.561a2.341,2.341,0,0,0,3.311,3.311l1.561-1.561A2.34,2.34,0,0,0,473.037,85.113Z" transform="translate(-467.48 -84.427)" fill="#88323b" stroke="#fff" stroke-width="2"/>
      </g>
    </g>
    <g id="Grupo_1073482" data-name="Grupo 1073482" transform="translate(-9107.443 13418.271)">
      <g id="Grupo_1073481" data-name="Grupo 1073481" transform="translate(0 0)">
        <path id="Trazado_610918" data-name="Trazado 610918" d="M117.271,324.505a2.34,2.34,0,0,0-3.311,0,10.907,10.907,0,0,1-15.443,0,2.341,2.341,0,0,0-3.311,3.311,15.587,15.587,0,0,0,22.064,0A2.34,2.34,0,0,0,117.271,324.505Z" transform="translate(-94.521 -323.819)" fill="#88323b" stroke="#fff" stroke-width="2"/>
      </g>
    </g>
    <g id="Grupo_1073484" data-name="Grupo 1073484" transform="translate(-8806.407 13108.422)">
      <g id="Grupo_1073483" data-name="Grupo 1073483">
        <path id="Trazado_610919" data-name="Trazado 610919" d="M70.425,279.273a1.355,1.355,0,0,0-1.434,1.434v18.64a1.355,1.355,0,0,1-1.434,1.434H15.938a1.355,1.355,0,0,1-1.434-1.434v-18.64a1.355,1.355,0,0,0-1.434-1.434,1.355,1.355,0,0,0-1.434,1.434v18.64a4.225,4.225,0,0,0,4.3,4.3H67.557a4.225,4.225,0,0,0,4.3-4.3v-18.64A1.355,1.355,0,0,0,70.425,279.273Z" transform="translate(-11.637 -279.273)" fill="#03386e"/>
      </g>
    </g>
    <g id="Grupo_1073486" data-name="Grupo 1073486" transform="translate(-8807.841 13088.349)">
      <g id="Grupo_1073485" data-name="Grupo 1073485">
        <path id="Trazado_610920" data-name="Trazado 610920" d="M58.788,116.364H4.3a4.225,4.225,0,0,0-4.3,4.3v9.177A4.3,4.3,0,0,0,3.3,134l22.512,5.018v4.588a1.355,1.355,0,0,0,1.434,1.434h8.6a1.355,1.355,0,0,0,1.434-1.434v-4.588L59.792,134a4.3,4.3,0,0,0,3.3-4.158v-9.177A4.225,4.225,0,0,0,58.788,116.364ZM34.413,142.173H28.677v-5.735h5.735Zm25.809-12.331a1.4,1.4,0,0,1-1.147,1.434L37.28,136.151V135a1.355,1.355,0,0,0-1.434-1.434h-8.6A1.355,1.355,0,0,0,25.809,135v1.147L4.015,131.276a1.4,1.4,0,0,1-1.147-1.434v-9.177A1.355,1.355,0,0,1,4.3,119.232H58.788a1.355,1.355,0,0,1,1.434,1.434Z" transform="translate(0 -116.364)" fill="#03386e"/>
      </g>
    </g>
    <g id="Grupo_1073488" data-name="Grupo 1073488" transform="translate(-8787.767 13078.312)">
      <g id="Grupo_1073487" data-name="Grupo 1073487">
        <path id="Trazado_610921" data-name="Trazado 610921" d="M181.549,34.909H167.211a4.225,4.225,0,0,0-4.3,4.3v1.434a1.434,1.434,0,0,0,2.868,0V39.211a1.355,1.355,0,0,1,1.434-1.434h14.339a1.355,1.355,0,0,1,1.434,1.434v1.434a1.434,1.434,0,0,0,2.868,0V39.211A4.224,4.224,0,0,0,181.549,34.909Z" transform="translate(-162.909 -34.909)" fill="#03386e"/>
      </g>
    </g>
    <path id="Trazado_610922" data-name="Trazado 610922" d="M254.793,4.707l-1.966-1.966a9.354,9.354,0,0,0-13.212,0l-4,4a9.307,9.307,0,0,0-1.191,11.748l-2.89,2.89a9.256,9.256,0,0,0-4.7-1.532,1.021,1.021,0,0,0-.1,2.04,7.237,7.237,0,0,1,3.311.974l-1.725,1.725a4.975,4.975,0,0,0-5.46,1.066l-1.184,1.184L220.043,25.2l1.184-1.184a7.294,7.294,0,0,1,1.781-1.308,1.021,1.021,0,1,0-.946-1.81,9.335,9.335,0,0,0-2.28,1.674L218.555,23.8a1.984,1.984,0,0,0,0,2.8l1.724,1.724a1.984,1.984,0,0,0,2.8,0l1.227-1.227a2.923,2.923,0,0,1,2.08-.862,2.963,2.963,0,0,1,.581.059,3.27,3.27,0,0,0,4.266,4.266,2.963,2.963,0,0,1,.057.718,3.047,3.047,0,0,1-.922,2.01l-1.164,1.164a1.984,1.984,0,0,0,0,2.8l1.724,1.724a1.981,1.981,0,0,0,2.8,0l1.227-1.227A9.31,9.31,0,0,0,236.155,26l2.886-2.886a9.3,9.3,0,0,0,11.75-1.194l1.269-1.269a1.021,1.021,0,1,0-1.445-1.445l-1.269,1.269a7.272,7.272,0,0,1-8.823,1.155l1.725-1.725a4.977,4.977,0,0,0,5.46-1.067l4-4a4.991,4.991,0,0,0,0-7.049l-1.966-1.966a4.985,4.985,0,0,0-7.049,0l-4,4a5.021,5.021,0,0,0-1.065,5.459L235.9,17.011a7.273,7.273,0,0,1,1.155-8.823l4-4a7.308,7.308,0,0,1,10.323,0l1.966,1.966a7.3,7.3,0,0,1,.293,10.011,1.021,1.021,0,1,0,1.525,1.359,9.345,9.345,0,0,0-.374-12.814Zm-25.666,23.7a1.224,1.224,0,0,1,0-1.732l10.864-10.864a1.225,1.225,0,1,1,1.733,1.732h0L230.859,28.407A1.226,1.226,0,0,1,229.127,28.407Zm4.389,7.9-1.184,1.184-1.637-1.637,1.12-1.12a5.085,5.085,0,0,0,1.519-3.364,4.973,4.973,0,0,0-.387-2.16l1.725-1.725a7.274,7.274,0,0,1-1.156,8.823Zm6.623-25.038,4-4a2.942,2.942,0,0,1,4.16,0l1.966,1.966a2.945,2.945,0,0,1,0,4.161l-4,4a2.923,2.923,0,0,1-2.08.862,2.975,2.975,0,0,1-.447-.034,3.268,3.268,0,0,0-4.419-4.428,2.953,2.953,0,0,1,.82-2.525Z" transform="translate(-9015.277 13414.531)" fill="#056372"/>
    <path id="Trazado_610923" data-name="Trazado 610923" d="M37.25,229.18a1.984,1.984,0,0,0-2.8,0l-1.164,1.164a3.047,3.047,0,0,1-2.009.922,2.979,2.979,0,0,1-.6-.035,3.269,3.269,0,0,0-4.4-4.406,2.958,2.958,0,0,1,.819-2.543l1.227-1.227a1.984,1.984,0,0,0,0-2.8L26.6,218.528a1.981,1.981,0,0,0-2.8,0l-1.227,1.227a9.311,9.311,0,0,0-1.194,11.751l-2.885,2.885a9.317,9.317,0,0,0-11.728,1.172A1.021,1.021,0,1,0,8.2,237.013a7.278,7.278,0,0,1,8.8-1.138L15.28,237.6a4.972,4.972,0,0,0-5.46,1.066l-4,4a4.991,4.991,0,0,0,0,7.05l1.966,1.966a4.985,4.985,0,0,0,7.049,0l4-4a5.022,5.022,0,0,0,1.066-5.46l1.726-1.726a7.273,7.273,0,0,1-1.155,8.823l-4,4a7.3,7.3,0,0,1-10.323,0l-1.966-1.966a7.308,7.308,0,0,1,0-10.323l.943-.943a1.021,1.021,0,0,0-1.445-1.445l-.943.943a9.343,9.343,0,0,0,0,13.212L4.7,254.766a9.343,9.343,0,0,0,13.212,0l4-4a9.31,9.31,0,0,0,1.194-11.751L26,236.128a9.305,9.305,0,0,0,11.75-1.194l1.227-1.227a1.984,1.984,0,0,0,0-2.8ZM24.013,221.2l1.184-1.184,1.637,1.637-1.184,1.184a5.023,5.023,0,0,0-1.066,5.46l-1.726,1.726A7.274,7.274,0,0,1,24.013,221.2Zm-7.973,18.529L26.9,228.865a1.225,1.225,0,1,1,1.732,1.732L17.773,241.462a1.225,1.225,0,1,1-1.732-1.732Zm1.35,6.509-4,4a2.942,2.942,0,0,1-4.16,0l-1.966-1.966a2.945,2.945,0,0,1,0-4.161l4-4a2.925,2.925,0,0,1,2.643-.806,3.265,3.265,0,0,0,4.285,4.292,2.956,2.956,0,0,1-.8,2.64ZM36.3,233.489a7.274,7.274,0,0,1-8.823,1.155L29.2,232.92a4.987,4.987,0,0,0,2.16.388,5.084,5.084,0,0,0,3.364-1.519l1.12-1.12,1.637,1.637Z" transform="translate(-8826.986 13226.272)" fill="#056372"/>
    <path id="Trazado_610924" data-name="Trazado 610924" d="M141.216,51.308a1.927,1.927,0,0,0,1.544.778,2,2,0,0,0,.637-.105,1.929,1.929,0,0,0,1.332-1.853v-7.5a1.956,1.956,0,0,0-2.023-1.955,9.146,9.146,0,0,0-5.608,2.11,1.943,1.943,0,0,0-.309,2.685Zm1.47-8.592v7.149L138.468,44.3A7.034,7.034,0,0,1,142.685,42.716Z" transform="translate(-8944.8 13379.408)" fill="#056372"/>
    <path id="Trazado_610925" data-name="Trazado 610925" d="M45.445,146.255c.063,0,.126,0,.19-.009l7.3-.691a1.955,1.955,0,0,0,.844-3.608h0L47.4,138a1.956,1.956,0,0,0-2.726.692,9.145,9.145,0,0,0-1.156,5.879,1.94,1.94,0,0,0,1.93,1.684Zm7.8-3.439-.537.869h0Zm-6.84-3.031,6.08,3.761-6.952.658A7.033,7.033,0,0,1,46.4,139.785Z" transform="translate(-8864.5 13295.586)" fill="#056372"/>
    <path id="Trazado_610926" data-name="Trazado 610926" d="M85.069,84.55A1.021,1.021,0,0,0,86.6,83.193l-1.8-2.022a1.021,1.021,0,1,0-1.526,1.358Z" transform="translate(-8898.693 13344.719)" fill="#056372"/>
    <path id="Trazado_610927" data-name="Trazado 610927" d="M229.653,59.3a1.02,1.02,0,0,0,1.344-.53l1.362-3.137a1.021,1.021,0,0,0-1.874-.814l-1.362,3.137A1.021,1.021,0,0,0,229.653,59.3Z" transform="translate(-9024.833 13367.715)" fill="#056372"/>
    <path id="Trazado_610928" data-name="Trazado 610928" d="M58.5,228.58l-3.137,1.362a1.021,1.021,0,1,0,.814,1.874l3.137-1.362a1.021,1.021,0,0,0-.814-1.874Z" transform="translate(-8874.279 13217.161)" fill="#056372"/>
    <path id="Trazado_610929" data-name="Trazado 610929" d="M393.358,310.761h-7.5a1.955,1.955,0,0,0-1.18,3.512l5.843,4.427a1.959,1.959,0,0,0,1.186.4,1.931,1.931,0,0,0,1.5-.71,9.145,9.145,0,0,0,2.11-5.608,1.956,1.956,0,0,0-1.955-2.023Zm-1.674,6.26-5.566-4.217h7.149A7.032,7.032,0,0,1,391.684,317.021Z" transform="translate(-9158.603 13146.1)" fill="#056372"/>
    <path id="Trazado_610930" data-name="Trazado 610930" d="M312.225,383.08h0a1.955,1.955,0,0,0-3.608.844l-.691,7.3a1.942,1.942,0,0,0,1.675,2.12,9.688,9.688,0,0,0,1.285.087,9.13,9.13,0,0,0,4.593-1.243,1.956,1.956,0,0,0,.692-2.726Zm-2.257,8.25.658-6.952,3.761,6.08A7.033,7.033,0,0,1,309.968,391.33Z" transform="translate(-9092.97 13084.431)" fill="#056372"/>
    <path id="Trazado_610931" data-name="Trazado 610931" d="M401.441,399.234l-2.022-1.8a1.021,1.021,0,0,0-1.358,1.526l2.022,1.8a1.021,1.021,0,0,0,1.358-1.526Z" transform="translate(-9170.543 13071.451)" fill="#056372"/>
    <path id="Trazado_610932" data-name="Trazado 610932" d="M417.169,257.753a1.016,1.016,0,0,0,.406-.085l3.137-1.362a1.021,1.021,0,0,0-.814-1.874l-3.137,1.362a1.022,1.022,0,0,0,.407,1.958Z" transform="translate(-9186.461 13194.83)" fill="#056372"/>
    <path id="Trazado_610933" data-name="Trazado 610933" d="M257.683,415.69a1.022,1.022,0,0,0-1.344.53l-1.362,3.137a1.021,1.021,0,1,0,1.874.814l1.362-3.137A1.022,1.022,0,0,0,257.683,415.69Z" transform="translate(-9047.166 13055.533)" fill="#056372"/>
    <path id="Trazado_614607" data-name="Trazado 614607" d="M8.193,10.878H3.329V16h-2.1V3.914H8.907V5.607H3.329V9.2H8.193Zm1.627.548a5.3,5.3,0,0,1,.523-2.378,3.819,3.819,0,0,1,1.469-1.627,4.14,4.14,0,0,1,2.175-.569,3.923,3.923,0,0,1,2.951,1.17,4.6,4.6,0,0,1,1.224,3.1l.008.473a5.343,5.343,0,0,1-.51,2.374A3.773,3.773,0,0,1,16.2,15.593a4.17,4.17,0,0,1-2.2.573A3.9,3.9,0,0,1,10.961,14.9,4.848,4.848,0,0,1,9.82,11.526Zm2.017.174a3.619,3.619,0,0,0,.573,2.171A1.862,1.862,0,0,0,14,14.556a1.842,1.842,0,0,0,1.59-.8,4,4,0,0,0,.569-2.333,3.572,3.572,0,0,0-.585-2.158,1.973,1.973,0,0,0-3.158-.012A3.922,3.922,0,0,0,11.837,11.6ZM24.579,8.861a4.991,4.991,0,0,0-.822-.066,1.85,1.85,0,0,0-1.868,1.063V16H19.872V7.019H21.8l.05,1a2.273,2.273,0,0,1,2.025-1.17,1.888,1.888,0,0,1,.714.116ZM28.8,4.835V7.019h1.585V8.513H28.8v5.014a1.1,1.1,0,0,0,.2.743.943.943,0,0,0,.726.228,3.107,3.107,0,0,0,.706-.083v1.561a4.968,4.968,0,0,1-1.328.191q-2.324,0-2.324-2.565V8.513H25.3V7.019h1.478V4.835ZM37.287,16a3.113,3.113,0,0,1-.232-.838,3.393,3.393,0,0,1-4.565.232,2.47,2.47,0,0,1-.855-1.909,2.55,2.55,0,0,1,1.067-2.2,5.169,5.169,0,0,1,3.051-.768h1.237V9.924a1.573,1.573,0,0,0-.39-1.116,1.547,1.547,0,0,0-1.187-.419,1.777,1.777,0,0,0-1.129.344,1.066,1.066,0,0,0-.44.876H31.825a2.239,2.239,0,0,1,.49-1.382,3.263,3.263,0,0,1,1.332-1.009,4.68,4.68,0,0,1,1.88-.365,3.769,3.769,0,0,1,2.515.793,2.827,2.827,0,0,1,.963,2.229v4.051a4.591,4.591,0,0,0,.34,1.934V16Zm-2.216-1.453a2.294,2.294,0,0,0,1.125-.291,1.941,1.941,0,0,0,.793-.78V11.783H35.9a2.973,2.973,0,0,0-1.685.39,1.264,1.264,0,0,0-.564,1.1,1.179,1.179,0,0,0,.386.926A1.5,1.5,0,0,0,35.071,14.547ZM43.264,16H41.247V3.25h2.017Zm6.151.166a4.173,4.173,0,0,1-3.109-1.208,4.381,4.381,0,0,1-1.191-3.217v-.249a5.389,5.389,0,0,1,.519-2.4A3.949,3.949,0,0,1,47.09,7.442a3.851,3.851,0,0,1,2.092-.589,3.525,3.525,0,0,1,2.835,1.17,4.949,4.949,0,0,1,1,3.312v.813H47.148a2.7,2.7,0,0,0,.743,1.76,2.23,2.23,0,0,0,1.639.647,2.731,2.731,0,0,0,2.258-1.121l1.087,1.038a3.631,3.631,0,0,1-1.44,1.249A4.509,4.509,0,0,1,49.415,16.166Zm-.241-7.695a1.7,1.7,0,0,0-1.341.581,3.012,3.012,0,0,0-.652,1.619h3.843v-.149a2.452,2.452,0,0,0-.54-1.531A1.686,1.686,0,0,0,49.174,8.471Zm7.562,5.918h4.781V16H54.229V14.68l4.557-6.035H54.312V7.019h7.031V8.3ZM68.5,16a3.113,3.113,0,0,1-.232-.838,3.393,3.393,0,0,1-4.565.232,2.47,2.47,0,0,1-.855-1.909,2.55,2.55,0,0,1,1.067-2.2,5.169,5.169,0,0,1,3.051-.768H68.2V9.924a1.573,1.573,0,0,0-.39-1.116,1.547,1.547,0,0,0-1.187-.419,1.777,1.777,0,0,0-1.129.344,1.066,1.066,0,0,0-.44.876H63.036a2.239,2.239,0,0,1,.49-1.382,3.263,3.263,0,0,1,1.332-1.009,4.68,4.68,0,0,1,1.88-.365,3.769,3.769,0,0,1,2.515.793,2.827,2.827,0,0,1,.963,2.229v4.051a4.591,4.591,0,0,0,.34,1.934V16Zm-2.216-1.453a2.294,2.294,0,0,0,1.125-.291,1.941,1.941,0,0,0,.793-.78V11.783H67.112a2.973,2.973,0,0,0-1.685.39,1.264,1.264,0,0,0-.564,1.1,1.179,1.179,0,0,0,.386.926A1.5,1.5,0,0,0,66.282,14.547Z" transform="translate(-9107.697 12981.18)" fill="#12263f"/>
    <path id="Trazado_610909" data-name="Trazado 610909" d="M-8252,13545.424h174.7v109.2" transform="translate(-855.698 -531.573)" fill="none" stroke="#0c5e46" stroke-width="3"/>
    <path id="Trazado_610936" data-name="Trazado 610936" d="M-8252,13545.424h174.7v109.2" transform="translate(-17009.75 27049.184) rotate(180)" fill="none" stroke="#09909f" stroke-width="3"/>
    <path id="Trazado_610934" data-name="Trazado 610934" d="M-8160.567,13545.426H-8252v136.521" transform="translate(-584.183 -477.393)" fill="none" stroke="#03386e" stroke-width="3"/>
    <path id="Trazado_610935" data-name="Trazado 610935" d="M-8160.567,13545.426H-8252v136.521" transform="translate(-17281.266 26995.002) rotate(180)" fill="none" stroke="#88323b" stroke-width="3"/>
    <g id="Grupo_1073472" data-name="Grupo 1073472" transform="translate(-9107.697 13031.21)">
      <path id="Trazado_610913" data-name="Trazado 610913" d="M75.268,83.621V75.327a4.319,4.319,0,0,0-4.314-4.314H67.034a4.319,4.319,0,0,0-4.314,4.314v7.629H60.458V76.964a5.413,5.413,0,0,0-9.442-3.623,5.4,5.4,0,0,0-9.029.223,5.259,5.259,0,0,0-4.1-1.915,5.405,5.405,0,0,0-4.38,2.254,5.408,5.408,0,0,0-9.8,3.168v5.885H21.881V75.327a4.319,4.319,0,0,0-4.314-4.314H13.647a4.319,4.319,0,0,0-4.314,4.314v8.291a5.934,5.934,0,0,0,0,10.66v8.3a4.319,4.319,0,0,0,4.314,4.314h3.921a4.319,4.319,0,0,0,4.314-4.314V94.945H24.3a18.131,18.131,0,0,0,6.235,9.857v18.8a1.134,1.134,0,0,0,1.134,1.134H53.8a1.134,1.134,0,0,0,1.134-1.134V103.76a18.445,18.445,0,0,0,5.045-8.815H62.72v7.637a4.319,4.319,0,0,0,4.314,4.314h3.921a4.319,4.319,0,0,0,4.314-4.314v-8.3a5.926,5.926,0,0,0,0-10.66ZM8.277,88.956a3.73,3.73,0,0,1,1.057-2.6v5.174A3.677,3.677,0,0,1,8.277,88.956Zm11.336,13.626a2.047,2.047,0,0,1-2.045,2.045H13.647a2.047,2.047,0,0,1-2.045-2.045V75.327a2.047,2.047,0,0,1,2.045-2.045h3.921a2.047,2.047,0,0,1,2.045,2.045v27.255ZM55.036,73.811a3.156,3.156,0,0,1,3.153,3.153v4.282a4.279,4.279,0,0,0-2.044-.536H51.99c0-4.51,0-4.325,0-4.513A3.155,3.155,0,0,1,55.036,73.811ZM43.415,76.435a3.152,3.152,0,0,1,6.286-.34c-.153.89-.052.837-.086,4.614h-6.2Zm-8.68.635a3.153,3.153,0,1,1,6.306,0v3.738a4.849,4.849,0,0,0-3.654,6.329,3.1,3.1,0,0,1-2.652-3.08V77.07Zm-8.76,0a3.153,3.153,0,1,1,6.306,0v6.986a3.153,3.153,0,1,1-6.306,0Zm-4.093,8.154H23.84a5.4,5.4,0,0,0,9.668,2,5.314,5.314,0,0,0,5,2.212,9.213,9.213,0,0,0,4.433,3.241H21.881ZM53.03,102.435a1.134,1.134,0,0,0-.368.836v19.193H32.8V104.247a1.133,1.133,0,0,0-.451-.905,15.847,15.847,0,0,1-5.713-8.4H44.378A6.636,6.636,0,0,0,42.23,99.97a1.135,1.135,0,0,0,2.262-.18c-.244-3.059,4.668-5.9,6.582-6.731a1.135,1.135,0,0,0-.453-2.174c-5.215-.01-4.776.02-5.361-.019a6.774,6.774,0,0,1-5.234-3.241c-1.37-2.409-.195-4.645,1.929-4.645H56.145a2.061,2.061,0,0,1,2.044,1.877v4.1a1.1,1.1,0,0,0,.064.315l.013,1.3a16.156,16.156,0,0,1-5.236,11.868ZM60.4,92.676a18.19,18.19,0,0,0,.136-2.121l-.055-5.331h2.24v7.452ZM73,102.582a2.047,2.047,0,0,1-2.045,2.045H67.034a2.047,2.047,0,0,1-2.045-2.045V75.327a2.047,2.047,0,0,1,2.045-2.045h3.921A2.047,2.047,0,0,1,73,75.327Zm2.269-11.039V86.361a3.677,3.677,0,0,1,0,5.182Z" transform="translate(-6.008 -71.013)" fill="#0c5e46"/>
    </g>
  </g>
</svg>
