<svg xmlns="http://www.w3.org/2000/svg" width="820" height="352" viewBox="0 0 820 352">
  <g id="Group_1075156" data-name="Group 1075156" transform="translate(-390 -25744.826)">
    <path id="Path_614433" data-name="Path 614433" d="M81,243A81,81,0,1,1,81,81a81,81,0,1,1,162,0,81,81,0,1,1,0,162,81,81,0,1,1-162,0Zm81-81Zm0,0Z" transform="translate(638 25745.109)" fill="#e1fbff"/>
    <g id="Group_1073471" data-name="Group 1073471" transform="translate(637.871 25744.98)">
      <circle id="Ellipse_5959" data-name="Ellipse 5959" cx="81" cy="81" r="81" transform="translate(81.129 162.128)" fill="#e1fbff"/>
      <circle id="Ellipse_5960" data-name="Ellipse 5960" cx="81" cy="81" r="81" transform="translate(81.129 0.128)" fill="#e1fbff"/>
      <circle id="Ellipse_5958" data-name="Ellipse 5958" cx="71" cy="71" r="71" transform="translate(91.129 172.128)" fill="#eba325"/>
      <circle id="Ellipse_5961" data-name="Ellipse 5961" cx="71" cy="71" r="71" transform="translate(91.129 10.128)" fill="#eba325"/>
      <circle id="Ellipse_5962" data-name="Ellipse 5962" cx="81" cy="81" r="81" transform="translate(162.129 81.128) rotate(90)" fill="#e1fbff"/>
      <circle id="Ellipse_5963" data-name="Ellipse 5963" cx="81" cy="81" r="81" transform="translate(324.129 81.128) rotate(90)" fill="#e1fbff"/>
      <circle id="Ellipse_5964" data-name="Ellipse 5964" cx="71" cy="71" r="71" transform="translate(152.129 91.128) rotate(90)" fill="#eba325"/>
      <circle id="Ellipse_5965" data-name="Ellipse 5965" cx="71" cy="71" r="71" transform="translate(314.129 91.128) rotate(90)" fill="#eba325"/>
    </g>
    <path id="Path_614434" data-name="Path 614434" d="M81,0A81,81,0,1,1,0,81,81,81,0,0,1,81,0Z" transform="translate(719 25907.109)" fill="#e1fbff"/>
    <path id="Path_614435" data-name="Path 614435" d="M81,0A81,81,0,1,1,0,81,81,81,0,0,1,81,0Z" transform="translate(719 25745.109)" fill="#e1fbff"/>
    <path id="Path_614436" data-name="Path 614436" d="M81,0A81,81,0,1,1,0,81,81,81,0,0,1,81,0Z" transform="translate(800 25826.109) rotate(90)" fill="#e1fbff"/>
    <path id="Path_614437" data-name="Path 614437" d="M81,0A81,81,0,1,1,0,81,81,81,0,0,1,81,0Z" transform="translate(962 25826.109) rotate(90)" fill="#e1fbff"/>
    <path id="Path_614438" data-name="Path 614438" d="M71.5,143A71.44,71.44,0,0,1,0,71.5c0-.186,0-.37,0-.555A80.634,80.634,0,0,0,70.945,0l.277,0H71.5A71.519,71.519,0,0,1,99.331,137.381,71.055,71.055,0,0,1,71.5,143Z" transform="translate(810 25836.109)" fill="#03386e"/>
    <path id="Path_614439" data-name="Path 614439" d="M81,0A81,81,0,1,1,0,81,81,81,0,0,1,81,0Z" transform="translate(800 25826.109) rotate(90)" fill="#e1fbff"/>
    <path id="Path_614440" data-name="Path 614440" d="M81,0A81,81,0,1,1,0,81,81,81,0,0,1,81,0Z" transform="translate(881 25907.109) rotate(180)" fill="#e1fbff"/>
    <path id="Path_614441" data-name="Path 614441" d="M71.5,143A71.44,71.44,0,0,1,0,71.5c0-.186,0-.37,0-.555A80.634,80.634,0,0,0,70.945,0l.277,0H71.5A71.519,71.519,0,0,1,99.331,137.381,71.055,71.055,0,0,1,71.5,143Z" transform="translate(871 25917.109) rotate(90)" fill="#056372"/>
    <path id="Path_614442" data-name="Path 614442" d="M81,0A81,81,0,1,1,0,81,81,81,0,0,1,81,0Z" transform="translate(881 25907.109) rotate(180)" fill="#e1fbff"/>
    <path id="Path_614443" data-name="Path 614443" d="M71.5,143A71.44,71.44,0,0,1,0,71.5c0-.186,0-.37,0-.555A80.634,80.634,0,0,0,70.945,0l.277,0H71.5A71.519,71.519,0,0,1,99.331,137.381,71.055,71.055,0,0,1,71.5,143Z" transform="translate(790 25978.109) rotate(180)" fill="#88323b"/>
    <path id="Path_614444" data-name="Path 614444" d="M71.5,143A71.44,71.44,0,0,1,0,71.5c0-.186,0-.37,0-.555A80.634,80.634,0,0,0,70.945,0l.277,0H71.5A71.519,71.519,0,0,1,99.331,137.381,71.055,71.055,0,0,1,71.5,143Z" transform="translate(729 25897.109) rotate(-90)" fill="#0c5e46"/>
    <path id="Path_614445" data-name="Path 614445" d="M8.193,10.878H3.329V16h-2.1V3.914H8.907V5.607H3.329V9.2H8.193Zm1.627.548a5.3,5.3,0,0,1,.523-2.378,3.819,3.819,0,0,1,1.469-1.627,4.14,4.14,0,0,1,2.175-.569,3.923,3.923,0,0,1,2.951,1.17,4.6,4.6,0,0,1,1.224,3.1l.008.473a5.343,5.343,0,0,1-.51,2.374A3.773,3.773,0,0,1,16.2,15.593a4.17,4.17,0,0,1-2.2.573A3.9,3.9,0,0,1,10.961,14.9,4.848,4.848,0,0,1,9.82,11.526Zm2.017.174a3.619,3.619,0,0,0,.573,2.171A1.862,1.862,0,0,0,14,14.556a1.842,1.842,0,0,0,1.59-.8,4,4,0,0,0,.569-2.333,3.572,3.572,0,0,0-.585-2.158,1.973,1.973,0,0,0-3.158-.012A3.922,3.922,0,0,0,11.837,11.6ZM24.579,8.861a4.991,4.991,0,0,0-.822-.066,1.85,1.85,0,0,0-1.868,1.063V16H19.872V7.019H21.8l.05,1a2.273,2.273,0,0,1,2.025-1.17,1.888,1.888,0,0,1,.714.116ZM28.8,4.835V7.019h1.585V8.513H28.8v5.014a1.1,1.1,0,0,0,.2.743.943.943,0,0,0,.726.228,3.107,3.107,0,0,0,.706-.083v1.561a4.968,4.968,0,0,1-1.328.191q-2.324,0-2.324-2.565V8.513H25.3V7.019h1.478V4.835ZM37.287,16a3.113,3.113,0,0,1-.232-.838,3.393,3.393,0,0,1-4.565.232,2.47,2.47,0,0,1-.855-1.909,2.55,2.55,0,0,1,1.067-2.2,5.169,5.169,0,0,1,3.051-.768h1.237V9.924a1.573,1.573,0,0,0-.39-1.116,1.547,1.547,0,0,0-1.187-.419,1.777,1.777,0,0,0-1.129.344,1.066,1.066,0,0,0-.44.876H31.825a2.239,2.239,0,0,1,.49-1.382,3.263,3.263,0,0,1,1.332-1.009,4.68,4.68,0,0,1,1.88-.365,3.769,3.769,0,0,1,2.515.793,2.827,2.827,0,0,1,.963,2.229v4.051a4.591,4.591,0,0,0,.34,1.934V16Zm-2.216-1.453a2.294,2.294,0,0,0,1.125-.291,1.941,1.941,0,0,0,.793-.78V11.783H35.9a2.973,2.973,0,0,0-1.685.39,1.264,1.264,0,0,0-.564,1.1,1.179,1.179,0,0,0,.386.926A1.5,1.5,0,0,0,35.071,14.547ZM43.264,16H41.247V3.25h2.017Zm6.151.166a4.173,4.173,0,0,1-3.109-1.208,4.381,4.381,0,0,1-1.191-3.217v-.249a5.389,5.389,0,0,1,.519-2.4A3.949,3.949,0,0,1,47.09,7.442a3.851,3.851,0,0,1,2.092-.589,3.525,3.525,0,0,1,2.835,1.17,4.949,4.949,0,0,1,1,3.312v.813H47.148a2.7,2.7,0,0,0,.743,1.76,2.23,2.23,0,0,0,1.639.647,2.731,2.731,0,0,0,2.258-1.121l1.087,1.038a3.631,3.631,0,0,1-1.44,1.249A4.509,4.509,0,0,1,49.415,16.166Zm-.241-7.695a1.7,1.7,0,0,0-1.341.581,3.012,3.012,0,0,0-.652,1.619h3.843v-.149a2.452,2.452,0,0,0-.54-1.531A1.686,1.686,0,0,0,49.174,8.471Zm7.562,5.918h4.781V16H54.229V14.68l4.557-6.035H54.312V7.019h7.031V8.3ZM68.5,16a3.113,3.113,0,0,1-.232-.838,3.393,3.393,0,0,1-4.565.232,2.47,2.47,0,0,1-.855-1.909,2.55,2.55,0,0,1,1.067-2.2,5.169,5.169,0,0,1,3.051-.768H68.2V9.924a1.573,1.573,0,0,0-.39-1.116,1.547,1.547,0,0,0-1.187-.419,1.777,1.777,0,0,0-1.129.344,1.066,1.066,0,0,0-.44.876H63.036a2.239,2.239,0,0,1,.49-1.382,3.263,3.263,0,0,1,1.332-1.009,4.68,4.68,0,0,1,1.88-.365,3.769,3.769,0,0,1,2.515.793,2.827,2.827,0,0,1,.963,2.229v4.051a4.591,4.591,0,0,0,.34,1.934V16Zm-2.216-1.453a2.294,2.294,0,0,0,1.125-.291,1.941,1.941,0,0,0,.793-.78V11.783H67.112a2.973,2.973,0,0,0-1.685.39,1.264,1.264,0,0,0-.564,1.1,1.179,1.179,0,0,0,.386.926A1.5,1.5,0,0,0,66.282,14.547Zm11.082-.988a.914.914,0,0,0-.444-.822,4.723,4.723,0,0,0-1.473-.5,7.574,7.574,0,0,1-1.718-.548,2.293,2.293,0,0,1-1.511-2.117A2.391,2.391,0,0,1,73.2,7.633a3.872,3.872,0,0,1,2.49-.78,4.029,4.029,0,0,1,2.6.8,2.529,2.529,0,0,1,.992,2.067H77.264a1.243,1.243,0,0,0-.432-.967,1.654,1.654,0,0,0-1.146-.386A1.787,1.787,0,0,0,74.6,8.67a.968.968,0,0,0-.419.822.818.818,0,0,0,.39.722,5.365,5.365,0,0,0,1.577.519,7.466,7.466,0,0,1,1.864.623,2.639,2.639,0,0,1,1,.867,2.212,2.212,0,0,1,.328,1.229,2.34,2.34,0,0,1-1,1.963,4.283,4.283,0,0,1-2.631.751,4.644,4.644,0,0,1-1.967-.4,3.238,3.238,0,0,1-1.345-1.1,2.594,2.594,0,0,1-.481-1.5h1.959a1.421,1.421,0,0,0,.54,1.1,2.1,2.1,0,0,0,1.32.386,2.04,2.04,0,0,0,1.212-.3A.938.938,0,0,0,77.363,13.56Z" transform="translate(390 25760.305)" fill="#12263f"/>
    <path id="Path_614446" data-name="Path 614446" d="M7.994,13.186H3.312L2.333,16H.149L4.715,3.914H6.6L11.173,16H8.981ZM3.9,11.493H7.4L5.653,6.479Zm9.944-4.474.058.938a3.232,3.232,0,0,1,2.59-1.1A2.483,2.483,0,0,1,18.959,8.23a3.186,3.186,0,0,1,2.756-1.378,2.8,2.8,0,0,1,2.212.822A3.618,3.618,0,0,1,24.67,10.1V16H22.653V10.156A1.786,1.786,0,0,0,22.279,8.9a1.635,1.635,0,0,0-1.237-.4,1.679,1.679,0,0,0-1.125.369,1.948,1.948,0,0,0-.61.967L19.316,16H17.3V10.09A1.439,1.439,0,0,0,15.68,8.5a1.776,1.776,0,0,0-1.718.988V16H11.945V7.019ZM30.7,16.166a4.173,4.173,0,0,1-3.109-1.208A4.381,4.381,0,0,1,26.4,11.742v-.249a5.389,5.389,0,0,1,.519-2.4,3.949,3.949,0,0,1,1.457-1.648,3.851,3.851,0,0,1,2.092-.589A3.525,3.525,0,0,1,33.3,8.023a4.949,4.949,0,0,1,1,3.312v.813H28.43a2.7,2.7,0,0,0,.743,1.76,2.23,2.23,0,0,0,1.639.647,2.731,2.731,0,0,0,2.258-1.121l1.087,1.038a3.631,3.631,0,0,1-1.44,1.249A4.509,4.509,0,0,1,30.7,16.166Zm-.241-7.695a1.7,1.7,0,0,0-1.341.581,3.012,3.012,0,0,0-.652,1.619h3.843v-.149a2.452,2.452,0,0,0-.54-1.531A1.686,1.686,0,0,0,30.456,8.471Zm7.28-1.453.058,1.038a3.229,3.229,0,0,1,2.615-1.2q2.806,0,2.855,3.212V16H41.247V10.181a1.85,1.85,0,0,0-.369-1.266A1.554,1.554,0,0,0,39.669,8.5a1.944,1.944,0,0,0-1.818,1.1V16H35.834V7.019ZM50.685,16a3.113,3.113,0,0,1-.232-.838,3.393,3.393,0,0,1-4.565.232,2.47,2.47,0,0,1-.855-1.909,2.55,2.55,0,0,1,1.067-2.2,5.169,5.169,0,0,1,3.051-.768h1.237V9.924A1.573,1.573,0,0,0,50,8.807a1.547,1.547,0,0,0-1.187-.419,1.777,1.777,0,0,0-1.129.344,1.066,1.066,0,0,0-.44.876H45.223a2.239,2.239,0,0,1,.49-1.382,3.263,3.263,0,0,1,1.332-1.009,4.68,4.68,0,0,1,1.88-.365,3.769,3.769,0,0,1,2.515.793A2.827,2.827,0,0,1,52.4,9.874v4.051a4.591,4.591,0,0,0,.34,1.934V16Zm-2.216-1.453a2.294,2.294,0,0,0,1.125-.291,1.941,1.941,0,0,0,.793-.78V11.783H49.3a2.973,2.973,0,0,0-1.685.39,1.264,1.264,0,0,0-.564,1.1,1.179,1.179,0,0,0,.386.926A1.5,1.5,0,0,0,48.468,14.547Zm8.2-.158h4.781V16H54.163V14.68L58.72,8.646H54.246V7.019h7.031V8.3ZM68.432,16a3.113,3.113,0,0,1-.232-.838,3.393,3.393,0,0,1-4.565.232,2.47,2.47,0,0,1-.855-1.909,2.55,2.55,0,0,1,1.067-2.2,5.169,5.169,0,0,1,3.051-.768h1.237V9.924a1.573,1.573,0,0,0-.39-1.116,1.547,1.547,0,0,0-1.187-.419,1.777,1.777,0,0,0-1.129.344,1.066,1.066,0,0,0-.44.876H62.97a2.239,2.239,0,0,1,.49-1.382,3.263,3.263,0,0,1,1.332-1.009,4.68,4.68,0,0,1,1.88-.365,3.769,3.769,0,0,1,2.515.793,2.827,2.827,0,0,1,.963,2.229v4.051a4.591,4.591,0,0,0,.34,1.934V16Zm-2.216-1.453a2.294,2.294,0,0,0,1.125-.291,1.941,1.941,0,0,0,.793-.78V11.783H67.045a2.973,2.973,0,0,0-1.685.39,1.264,1.264,0,0,0-.564,1.1,1.179,1.179,0,0,0,.386.926A1.5,1.5,0,0,0,66.215,14.547ZM77.3,13.56a.914.914,0,0,0-.444-.822,4.723,4.723,0,0,0-1.473-.5,7.574,7.574,0,0,1-1.718-.548A2.293,2.293,0,0,1,72.15,9.575a2.391,2.391,0,0,1,.979-1.942,3.872,3.872,0,0,1,2.49-.78,4.029,4.029,0,0,1,2.6.8,2.529,2.529,0,0,1,.992,2.067H77.2a1.243,1.243,0,0,0-.432-.967,1.654,1.654,0,0,0-1.146-.386,1.787,1.787,0,0,0-1.083.307.968.968,0,0,0-.419.822.818.818,0,0,0,.39.722,5.365,5.365,0,0,0,1.577.519,7.466,7.466,0,0,1,1.864.623,2.639,2.639,0,0,1,1,.867,2.212,2.212,0,0,1,.328,1.229,2.34,2.34,0,0,1-1,1.963,4.283,4.283,0,0,1-2.631.751,4.644,4.644,0,0,1-1.967-.4,3.238,3.238,0,0,1-1.345-1.1,2.594,2.594,0,0,1-.481-1.5h1.959a1.421,1.421,0,0,0,.54,1.1,2.1,2.1,0,0,0,1.32.386,2.04,2.04,0,0,0,1.212-.3A.938.938,0,0,0,77.3,13.56Z" transform="translate(475 25890.773)" fill="#12263f"/>
    <path id="Path_614447" data-name="Path 614447" d="M55.1,10.272a7.415,7.415,0,0,1-.614,3.117,4.644,4.644,0,0,1-1.756,2.059,5.15,5.15,0,0,1-5.246,0A4.716,4.716,0,0,1,45.705,13.4a7.183,7.183,0,0,1-.635-3.063V9.658A7.352,7.352,0,0,1,45.7,6.537a4.71,4.71,0,0,1,1.768-2.071A5.161,5.161,0,0,1,52.7,4.458,4.65,4.65,0,0,1,54.467,6.5,7.336,7.336,0,0,1,55.1,9.6ZM53,9.642a5.283,5.283,0,0,0-.76-3.08,2.68,2.68,0,0,0-4.283,0,5.181,5.181,0,0,0-.784,3.017v.7a5.243,5.243,0,0,0,.776,3.08A2.5,2.5,0,0,0,50.1,14.439a2.47,2.47,0,0,0,2.146-1.062,5.356,5.356,0,0,0,.751-3.1ZM64.859,11.6a5.348,5.348,0,0,1-.946,3.324,3.287,3.287,0,0,1-4.906.27v4.258H56.99V7.019H58.85l.083.913a2.963,2.963,0,0,1,2.416-1.079,3.062,3.062,0,0,1,2.577,1.224,5.49,5.49,0,0,1,.934,3.4Zm-2.009-.174a3.746,3.746,0,0,0-.535-2.133A1.741,1.741,0,0,0,60.784,8.5a1.856,1.856,0,0,0-1.776,1.021V13.51A1.873,1.873,0,0,0,60.8,14.556a1.739,1.739,0,0,0,1.507-.776A4.124,4.124,0,0,0,62.851,11.426Zm3.337,0a5.3,5.3,0,0,1,.523-2.378A3.819,3.819,0,0,1,68.18,7.421a4.14,4.14,0,0,1,2.175-.569,3.923,3.923,0,0,1,2.951,1.17,4.6,4.6,0,0,1,1.224,3.1l.008.473a5.343,5.343,0,0,1-.51,2.374,3.773,3.773,0,0,1-1.461,1.619,4.17,4.17,0,0,1-2.2.573A3.9,3.9,0,0,1,67.329,14.9a4.848,4.848,0,0,1-1.141-3.374ZM68.2,11.6a3.619,3.619,0,0,0,.573,2.171,1.862,1.862,0,0,0,1.594.784,1.842,1.842,0,0,0,1.59-.8,4,4,0,0,0,.569-2.333,3.572,3.572,0,0,0-.585-2.158,1.973,1.973,0,0,0-3.158-.012A3.922,3.922,0,0,0,68.2,11.6ZM80.946,8.861a4.991,4.991,0,0,0-.822-.066,1.85,1.85,0,0,0-1.868,1.063V16H76.24V7.019h1.926l.05,1a2.273,2.273,0,0,1,2.025-1.17,1.888,1.888,0,0,1,.714.116Zm4.217-4.026V7.019h1.585V8.513H85.163v5.014a1.1,1.1,0,0,0,.2.743.943.943,0,0,0,.726.228,3.107,3.107,0,0,0,.706-.083v1.561a4.968,4.968,0,0,1-1.328.191q-2.324,0-2.324-2.565V8.513H81.668V7.019h1.478V4.835ZM93.729,15.12a3.128,3.128,0,0,1-2.523,1.046,2.788,2.788,0,0,1-2.212-.855,3.637,3.637,0,0,1-.751-2.474V7.019H90.26v5.794q0,1.71,1.419,1.71a1.993,1.993,0,0,0,1.984-1.054V7.019H95.68V16h-1.9Zm5.877-8.1.058,1.038a3.229,3.229,0,0,1,2.615-1.2q2.806,0,2.855,3.212V16h-2.017V10.181a1.85,1.85,0,0,0-.369-1.266,1.554,1.554,0,0,0-1.208-.411,1.944,1.944,0,0,0-1.818,1.1V16H97.706V7.019ZM109.335,16h-2.017V7.019h2.017ZM107.193,4.686a1.071,1.071,0,0,1,.295-.772,1.113,1.113,0,0,1,.843-.307,1.127,1.127,0,0,1,.847.307,1.062,1.062,0,0,1,.3.772,1.038,1.038,0,0,1-.3.76,1.136,1.136,0,0,1-.847.3,1.122,1.122,0,0,1-.843-.3A1.046,1.046,0,0,1,107.193,4.686Zm3.959,6.757a5.34,5.34,0,0,1,.963-3.333A3.085,3.085,0,0,1,114.7,6.853a2.931,2.931,0,0,1,2.308,1V3.25h2.017V16H117.2l-.1-.93a2.973,2.973,0,0,1-2.416,1.1,3.068,3.068,0,0,1-2.552-1.27A5.535,5.535,0,0,1,111.153,11.443Zm2.017.174a3.739,3.739,0,0,0,.527,2.137,1.71,1.71,0,0,0,1.5.768,1.9,1.9,0,0,0,1.81-1.1V9.583A1.876,1.876,0,0,0,115.212,8.5a1.723,1.723,0,0,0-1.511.776A4.163,4.163,0,0,0,113.17,11.617ZM126.493,16a3.113,3.113,0,0,1-.232-.838,3.393,3.393,0,0,1-4.565.232,2.47,2.47,0,0,1-.855-1.909,2.55,2.55,0,0,1,1.067-2.2,5.169,5.169,0,0,1,3.051-.768h1.237V9.924a1.573,1.573,0,0,0-.39-1.116,1.547,1.547,0,0,0-1.187-.419,1.777,1.777,0,0,0-1.129.344,1.066,1.066,0,0,0-.44.876h-2.017a2.239,2.239,0,0,1,.49-1.382,3.263,3.263,0,0,1,1.332-1.009,4.68,4.68,0,0,1,1.88-.365,3.769,3.769,0,0,1,2.515.793,2.827,2.827,0,0,1,.963,2.229v4.051a4.591,4.591,0,0,0,.34,1.934V16Zm-2.216-1.453a2.294,2.294,0,0,0,1.125-.291,1.941,1.941,0,0,0,.793-.78V11.783h-1.087a2.973,2.973,0,0,0-1.685.39,1.264,1.264,0,0,0-.564,1.1,1.179,1.179,0,0,0,.386.926A1.5,1.5,0,0,0,124.276,14.547Zm5.669-3.1a5.34,5.34,0,0,1,.963-3.333,3.085,3.085,0,0,1,2.582-1.258,2.931,2.931,0,0,1,2.308,1V3.25h2.017V16h-1.826l-.1-.93a2.973,2.973,0,0,1-2.416,1.1,3.068,3.068,0,0,1-2.552-1.27A5.535,5.535,0,0,1,129.946,11.443Zm2.017.174a3.739,3.739,0,0,0,.527,2.137,1.71,1.71,0,0,0,1.5.768,1.9,1.9,0,0,0,1.81-1.1V9.583A1.876,1.876,0,0,0,134,8.5a1.723,1.723,0,0,0-1.511.776A4.163,4.163,0,0,0,131.963,11.617Zm11.912,4.549a4.173,4.173,0,0,1-3.109-1.208,4.381,4.381,0,0,1-1.191-3.217v-.249a5.389,5.389,0,0,1,.519-2.4,3.949,3.949,0,0,1,1.457-1.648,3.851,3.851,0,0,1,2.092-.589,3.525,3.525,0,0,1,2.835,1.17,4.949,4.949,0,0,1,1,3.312v.813h-5.869a2.7,2.7,0,0,0,.743,1.76,2.23,2.23,0,0,0,1.639.647,2.731,2.731,0,0,0,2.258-1.121l1.087,1.038a3.631,3.631,0,0,1-1.44,1.249A4.509,4.509,0,0,1,143.875,16.166Zm-.241-7.695a1.7,1.7,0,0,0-1.341.581,3.012,3.012,0,0,0-.652,1.619h3.843v-.149a2.452,2.452,0,0,0-.54-1.531A1.686,1.686,0,0,0,143.634,8.471Zm10.442,5.088a.914.914,0,0,0-.444-.822,4.723,4.723,0,0,0-1.473-.5,7.574,7.574,0,0,1-1.718-.548,2.293,2.293,0,0,1-1.511-2.117,2.391,2.391,0,0,1,.979-1.942,3.872,3.872,0,0,1,2.49-.78,4.029,4.029,0,0,1,2.6.8,2.529,2.529,0,0,1,.992,2.067h-2.017a1.243,1.243,0,0,0-.432-.967,1.654,1.654,0,0,0-1.146-.386,1.787,1.787,0,0,0-1.083.307.968.968,0,0,0-.419.822.818.818,0,0,0,.39.722,5.365,5.365,0,0,0,1.577.519,7.466,7.466,0,0,1,1.864.623,2.639,2.639,0,0,1,1,.867,2.212,2.212,0,0,1,.328,1.229,2.34,2.34,0,0,1-1,1.963,4.283,4.283,0,0,1-2.631.751,4.644,4.644,0,0,1-1.967-.4,3.238,3.238,0,0,1-1.345-1.1,2.594,2.594,0,0,1-.481-1.5h1.959a1.421,1.421,0,0,0,.54,1.1,2.1,2.1,0,0,0,1.32.386,2.04,2.04,0,0,0,1.212-.3A.938.938,0,0,0,154.076,13.56Z" transform="translate(968.218 25933.609)" fill="#12263f"/>
    <path id="Path_614448" data-name="Path 614448" d="M68.9,16V3.914h3.569a5.6,5.6,0,0,1,2.843.714,4.868,4.868,0,0,1,1.922,2.025,6.429,6.429,0,0,1,.681,3v.606a6.4,6.4,0,0,1-.685,3.021,4.809,4.809,0,0,1-1.951,2.009,5.858,5.858,0,0,1-2.9.706ZM71,5.607v8.716h1.37a3.154,3.154,0,0,0,2.536-1.033,4.5,4.5,0,0,0,.9-2.968V9.65a4.619,4.619,0,0,0-.855-3,3.031,3.031,0,0,0-2.482-1.038ZM83.769,16.166a4.173,4.173,0,0,1-3.109-1.208,4.381,4.381,0,0,1-1.191-3.217v-.249a5.389,5.389,0,0,1,.519-2.4,3.949,3.949,0,0,1,1.457-1.648,3.851,3.851,0,0,1,2.092-.589,3.525,3.525,0,0,1,2.835,1.17,4.949,4.949,0,0,1,1,3.312v.813H81.5a2.7,2.7,0,0,0,.743,1.76,2.23,2.23,0,0,0,1.639.647,2.731,2.731,0,0,0,2.258-1.121l1.087,1.038a3.631,3.631,0,0,1-1.44,1.249A4.509,4.509,0,0,1,83.769,16.166Zm-.241-7.695a1.7,1.7,0,0,0-1.341.581,3.012,3.012,0,0,0-.652,1.619h3.843v-.149a2.452,2.452,0,0,0-.54-1.531A1.686,1.686,0,0,0,83.528,8.471ZM96.817,11.6a5.4,5.4,0,0,1-.934,3.329,3.042,3.042,0,0,1-2.569,1.237,2.93,2.93,0,0,1-2.457-1.137l-.1.971H88.932V3.25h2.017V7.882A2.92,2.92,0,0,1,93.3,6.853a3.077,3.077,0,0,1,2.582,1.22,5.484,5.484,0,0,1,.938,3.412ZM94.8,11.426a3.813,3.813,0,0,0-.515-2.191,1.714,1.714,0,0,0-1.494-.73A1.873,1.873,0,0,0,90.949,9.65v3.7a1.892,1.892,0,0,0,1.859,1.17,1.7,1.7,0,0,0,1.461-.706,3.7,3.7,0,0,0,.531-2.133ZM100.652,16H98.635V7.019h2.017ZM98.511,4.686a1.071,1.071,0,0,1,.295-.772,1.113,1.113,0,0,1,.843-.307,1.127,1.127,0,0,1,.847.307,1.062,1.062,0,0,1,.3.772,1.038,1.038,0,0,1-.3.76,1.136,1.136,0,0,1-.847.3,1.122,1.122,0,0,1-.843-.3A1.046,1.046,0,0,1,98.511,4.686ZM104.994,16h-2.017V3.25h2.017Zm4.341,0h-2.017V7.019h2.017ZM107.193,4.686a1.071,1.071,0,0,1,.295-.772,1.113,1.113,0,0,1,.843-.307,1.127,1.127,0,0,1,.847.307,1.062,1.062,0,0,1,.3.772,1.038,1.038,0,0,1-.3.76,1.136,1.136,0,0,1-.847.3,1.122,1.122,0,0,1-.843-.3A1.046,1.046,0,0,1,107.193,4.686Zm3.959,6.757a5.34,5.34,0,0,1,.963-3.333A3.085,3.085,0,0,1,114.7,6.853a2.931,2.931,0,0,1,2.308,1V3.25h2.017V16H117.2l-.1-.93a2.973,2.973,0,0,1-2.416,1.1,3.068,3.068,0,0,1-2.552-1.27A5.535,5.535,0,0,1,111.153,11.443Zm2.017.174a3.739,3.739,0,0,0,.527,2.137,1.71,1.71,0,0,0,1.5.768,1.9,1.9,0,0,0,1.81-1.1V9.583A1.876,1.876,0,0,0,115.212,8.5a1.723,1.723,0,0,0-1.511.776A4.163,4.163,0,0,0,113.17,11.617ZM126.493,16a3.113,3.113,0,0,1-.232-.838,3.393,3.393,0,0,1-4.565.232,2.47,2.47,0,0,1-.855-1.909,2.55,2.55,0,0,1,1.067-2.2,5.169,5.169,0,0,1,3.051-.768h1.237V9.924a1.573,1.573,0,0,0-.39-1.116,1.547,1.547,0,0,0-1.187-.419,1.777,1.777,0,0,0-1.129.344,1.066,1.066,0,0,0-.44.876h-2.017a2.239,2.239,0,0,1,.49-1.382,3.263,3.263,0,0,1,1.332-1.009,4.68,4.68,0,0,1,1.88-.365,3.769,3.769,0,0,1,2.515.793,2.827,2.827,0,0,1,.963,2.229v4.051a4.591,4.591,0,0,0,.34,1.934V16Zm-2.216-1.453a2.294,2.294,0,0,0,1.125-.291,1.941,1.941,0,0,0,.793-.78V11.783h-1.087a2.973,2.973,0,0,0-1.685.39,1.264,1.264,0,0,0-.564,1.1,1.179,1.179,0,0,0,.386.926A1.5,1.5,0,0,0,124.276,14.547Zm5.669-3.1a5.34,5.34,0,0,1,.963-3.333,3.085,3.085,0,0,1,2.582-1.258,2.931,2.931,0,0,1,2.308,1V3.25h2.017V16h-1.826l-.1-.93a2.973,2.973,0,0,1-2.416,1.1,3.068,3.068,0,0,1-2.552-1.27A5.535,5.535,0,0,1,129.946,11.443Zm2.017.174a3.739,3.739,0,0,0,.527,2.137,1.71,1.71,0,0,0,1.5.768,1.9,1.9,0,0,0,1.81-1.1V9.583A1.876,1.876,0,0,0,134,8.5a1.723,1.723,0,0,0-1.511.776A4.163,4.163,0,0,0,131.963,11.617Zm11.912,4.549a4.173,4.173,0,0,1-3.109-1.208,4.381,4.381,0,0,1-1.191-3.217v-.249a5.389,5.389,0,0,1,.519-2.4,3.949,3.949,0,0,1,1.457-1.648,3.851,3.851,0,0,1,2.092-.589,3.525,3.525,0,0,1,2.835,1.17,4.949,4.949,0,0,1,1,3.312v.813h-5.869a2.7,2.7,0,0,0,.743,1.76,2.23,2.23,0,0,0,1.639.647,2.731,2.731,0,0,0,2.258-1.121l1.087,1.038a3.631,3.631,0,0,1-1.44,1.249A4.509,4.509,0,0,1,143.875,16.166Zm-.241-7.695a1.7,1.7,0,0,0-1.341.581,3.012,3.012,0,0,0-.652,1.619h3.843v-.149a2.452,2.452,0,0,0-.54-1.531A1.686,1.686,0,0,0,143.634,8.471Zm10.442,5.088a.914.914,0,0,0-.444-.822,4.723,4.723,0,0,0-1.473-.5,7.574,7.574,0,0,1-1.718-.548,2.293,2.293,0,0,1-1.511-2.117,2.391,2.391,0,0,1,.979-1.942,3.872,3.872,0,0,1,2.49-.78,4.029,4.029,0,0,1,2.6.8,2.529,2.529,0,0,1,.992,2.067h-2.017a1.243,1.243,0,0,0-.432-.967,1.654,1.654,0,0,0-1.146-.386,1.787,1.787,0,0,0-1.083.307.968.968,0,0,0-.419.822.818.818,0,0,0,.39.722,5.365,5.365,0,0,0,1.577.519,7.466,7.466,0,0,1,1.864.623,2.639,2.639,0,0,1,1,.867,2.212,2.212,0,0,1,.328,1.229,2.34,2.34,0,0,1-1,1.963,4.283,4.283,0,0,1-2.631.751,4.644,4.644,0,0,1-1.967-.4,3.238,3.238,0,0,1-1.345-1.1,2.594,2.594,0,0,1-.481-1.5h1.959a1.421,1.421,0,0,0,.54,1.1,2.1,2.1,0,0,0,1.32.386,2.04,2.04,0,0,0,1.212-.3A.938.938,0,0,0,154.076,13.56Z" transform="translate(1053.218 26057.33)" fill="#12263f"/>
    <path id="Path_610909" data-name="Path 610909" d="M-8252,13545.425h374.7" transform="translate(8642 12247.552)" fill="none" stroke="#0c5e46" stroke-width="3"/>
    <path id="Path_610912" data-name="Path 610912" d="M-8252,13545.425h391.53" transform="translate(-7042 39590.75) rotate(180)" fill="none" stroke="#056372" stroke-width="3"/>
    <path id="Path_610910" data-name="Path 610910" d="M-8252,13545.425h230" transform="translate(8727 12378.021)" fill="none" stroke="#88323b" stroke-width="3"/>
    <path id="Path_610911" data-name="Path 610911" d="M0,0H230" transform="translate(1125 25921.746) rotate(180)" fill="none" stroke="#03386e" stroke-width="3"/>
    <path id="Path_614449" data-name="Path 614449" d="M48,0A48,48,0,1,1,0,48,48,48,0,0,1,48,0Z" transform="translate(752 25859.109)" fill="#fff"/>
    <g id="Group_20708" data-name="Group 20708" transform="translate(756.688 25889.109)">
      <text id="Análisis_FODA" data-name="Análisis FODA" transform="translate(0)" fill="#12263f" font-size="18" font-family="Roboto-Black, Roboto" font-weight="800"><tspan x="10.899" y="17">Análisis </tspan><tspan x="20.321" y="37">FODA</tspan></text>
    </g>
    <path id="Path_614450" data-name="Path 614450" d="M43.364,33.474H29.3V48H21.978V12.453H45.122v5.933H29.3v9.18H43.364Z" transform="translate(773 25781.609)" fill="none" stroke="#fff" stroke-width="1"/>
    <path id="Path_614451" data-name="Path 614451" d="M19.426,48V12.453H30.364a16.61,16.61,0,0,1,8.386,2.112,14.726,14.726,0,0,1,5.774,6.006,18.524,18.524,0,0,1,2.075,8.85v1.636a18.577,18.577,0,0,1-2.039,8.813,14.6,14.6,0,0,1-5.75,5.981A16.735,16.735,0,0,1,30.437,48ZM26.75,18.386v23.73h3.54a7.954,7.954,0,0,0,6.567-2.808q2.271-2.808,2.319-8.032V29.4q0-5.42-2.246-8.215a7.927,7.927,0,0,0-6.567-2.8Z" transform="translate(767.5 25973.109)" fill="none" stroke="#fff" stroke-width="1"/>
    <path id="Path_614452" data-name="Path 614452" d="M47.612,31.032a21.459,21.459,0,0,1-1.855,9.2,13.974,13.974,0,0,1-5.31,6.1,14.689,14.689,0,0,1-7.922,2.148,14.789,14.789,0,0,1-7.886-2.124A14.111,14.111,0,0,1,19.268,40.3a20.845,20.845,0,0,1-1.929-9.07V29.47a21.346,21.346,0,0,1,1.892-9.241A14.088,14.088,0,0,1,24.578,14.1a14.707,14.707,0,0,1,7.9-2.136,14.707,14.707,0,0,1,7.9,2.136,14.088,14.088,0,0,1,5.347,6.128,21.285,21.285,0,0,1,1.892,9.216ZM40.19,29.421q0-5.591-2-8.5a6.524,6.524,0,0,0-5.713-2.905,6.526,6.526,0,0,0-5.688,2.869q-2,2.869-2.026,8.411v1.733q0,5.444,2,8.447a6.507,6.507,0,0,0,5.762,3,6.449,6.449,0,0,0,5.664-2.893q1.978-2.893,2-8.435Z" transform="translate(863 25876.609)" fill="none" stroke="#fff" stroke-width="1"/>
    <path id="Path_614453" data-name="Path 614453" d="M38.921,40.676H26.079L23.638,48H15.85L29.082,12.453h6.787L49.175,48H41.387ZM28.057,34.743h8.887L32.476,21.438Z" transform="translate(675 25876.609)" fill="none" stroke="#fff" stroke-width="1"/>
    <path id="Path_614454" data-name="Path 614454" d="M0,0H85V85H0Z" transform="translate(390 25794.826)" fill="#bff7ff"/>
    <path id="Path_614455" data-name="Path 614455" d="M0,0H85V85H0Z" transform="translate(475 25924.826)" fill="#bbffc5"/>
    <path id="Path_614456" data-name="Path 614456" d="M0,0H85V85H0Z" transform="translate(1040 25834.826)" fill="#bbffc5"/>
    <path id="Path_614457" data-name="Path 614457" d="M0,0H85V85H0Z" transform="translate(1125 25958.543)" fill="#bff7ff"/>
    <g id="_x31_7_Will_Power" transform="translate(389.992 25739.813)">
      <g id="Group_1073472" data-name="Group 1073472" transform="translate(6.008 71.013)">
        <path id="Path_610913" data-name="Path 610913" d="M75.268,83.621V75.327a4.319,4.319,0,0,0-4.314-4.314H67.034a4.319,4.319,0,0,0-4.314,4.314v7.629H60.458V76.964a5.413,5.413,0,0,0-9.442-3.623,5.4,5.4,0,0,0-9.029.223,5.259,5.259,0,0,0-4.1-1.915,5.405,5.405,0,0,0-4.38,2.254,5.408,5.408,0,0,0-9.8,3.168v5.885H21.881V75.327a4.319,4.319,0,0,0-4.314-4.314H13.647a4.319,4.319,0,0,0-4.314,4.314v8.291a5.934,5.934,0,0,0,0,10.66v8.3a4.319,4.319,0,0,0,4.314,4.314h3.921a4.319,4.319,0,0,0,4.314-4.314V94.945H24.3a18.131,18.131,0,0,0,6.235,9.857v18.8a1.134,1.134,0,0,0,1.134,1.134H53.8a1.134,1.134,0,0,0,1.134-1.134V103.76a18.445,18.445,0,0,0,5.045-8.815H62.72v7.637a4.319,4.319,0,0,0,4.314,4.314h3.921a4.319,4.319,0,0,0,4.314-4.314v-8.3a5.926,5.926,0,0,0,0-10.66ZM8.277,88.956a3.73,3.73,0,0,1,1.057-2.6v5.174A3.677,3.677,0,0,1,8.277,88.956Zm11.336,13.626a2.047,2.047,0,0,1-2.045,2.045H13.647a2.047,2.047,0,0,1-2.045-2.045V75.327a2.047,2.047,0,0,1,2.045-2.045h3.921a2.047,2.047,0,0,1,2.045,2.045v27.255ZM55.036,73.811a3.156,3.156,0,0,1,3.153,3.153v4.282a4.279,4.279,0,0,0-2.044-.536H51.99c0-4.51,0-4.325,0-4.513A3.155,3.155,0,0,1,55.036,73.811ZM43.415,76.435a3.152,3.152,0,0,1,6.286-.34c-.153.89-.052.837-.086,4.614h-6.2Zm-8.68.635a3.153,3.153,0,1,1,6.306,0v3.738a4.849,4.849,0,0,0-3.654,6.329,3.1,3.1,0,0,1-2.652-3.08V77.07Zm-8.76,0a3.153,3.153,0,1,1,6.306,0v6.986a3.153,3.153,0,1,1-6.306,0Zm-4.093,8.154H23.84a5.4,5.4,0,0,0,9.668,2,5.314,5.314,0,0,0,5,2.212,9.213,9.213,0,0,0,4.433,3.241H21.881ZM53.03,102.435a1.134,1.134,0,0,0-.368.836v19.193H32.8V104.247a1.133,1.133,0,0,0-.451-.905,15.847,15.847,0,0,1-5.713-8.4H44.378A6.636,6.636,0,0,0,42.23,99.97a1.135,1.135,0,0,0,2.262-.18c-.244-3.059,4.668-5.9,6.582-6.731a1.135,1.135,0,0,0-.453-2.174c-5.215-.01-4.776.02-5.361-.019a6.774,6.774,0,0,1-5.234-3.241c-1.37-2.409-.195-4.645,1.929-4.645H56.145a2.061,2.061,0,0,1,2.044,1.877v4.1a1.1,1.1,0,0,0,.064.315l.013,1.3a16.156,16.156,0,0,1-5.236,11.868ZM60.4,92.676a18.19,18.19,0,0,0,.136-2.121l-.055-5.331h2.24v7.452ZM73,102.582a2.047,2.047,0,0,1-2.045,2.045H67.034a2.047,2.047,0,0,1-2.045-2.045V75.327a2.047,2.047,0,0,1,2.045-2.045h3.921A2.047,2.047,0,0,1,73,75.327Zm2.269-11.039V86.361a3.677,3.677,0,0,1,0,5.182Z" transform="translate(-6.008 -71.013)" fill="#0c5e46"/>
      </g>
    </g>
    <g id="rotura" transform="translate(1135.763 25966.416)">
      <path id="Path_610922" data-name="Path 610922" d="M254.793,4.707l-1.966-1.966a9.354,9.354,0,0,0-13.212,0l-4,4a9.307,9.307,0,0,0-1.191,11.748l-2.89,2.89a9.256,9.256,0,0,0-4.7-1.532,1.021,1.021,0,0,0-.1,2.04,7.237,7.237,0,0,1,3.311.974l-1.725,1.725a4.975,4.975,0,0,0-5.46,1.066l-1.184,1.184L220.043,25.2l1.184-1.184a7.294,7.294,0,0,1,1.781-1.308,1.021,1.021,0,1,0-.946-1.81,9.335,9.335,0,0,0-2.28,1.674L218.555,23.8a1.984,1.984,0,0,0,0,2.8l1.724,1.724a1.984,1.984,0,0,0,2.8,0l1.227-1.227a2.923,2.923,0,0,1,2.08-.862,2.963,2.963,0,0,1,.581.059,3.27,3.27,0,0,0,4.266,4.266,2.963,2.963,0,0,1,.057.718,3.047,3.047,0,0,1-.922,2.01l-1.164,1.164a1.984,1.984,0,0,0,0,2.8l1.724,1.724a1.981,1.981,0,0,0,2.8,0l1.227-1.227A9.31,9.31,0,0,0,236.155,26l2.886-2.886a9.3,9.3,0,0,0,11.75-1.194l1.269-1.269a1.021,1.021,0,1,0-1.445-1.445l-1.269,1.269a7.272,7.272,0,0,1-8.823,1.155l1.725-1.725a4.977,4.977,0,0,0,5.46-1.067l4-4a4.991,4.991,0,0,0,0-7.049l-1.966-1.966a4.985,4.985,0,0,0-7.049,0l-4,4a5.021,5.021,0,0,0-1.065,5.459L235.9,17.011a7.273,7.273,0,0,1,1.155-8.823l4-4a7.308,7.308,0,0,1,10.323,0l1.966,1.966a7.3,7.3,0,0,1,.293,10.011,1.021,1.021,0,1,0,1.525,1.359,9.345,9.345,0,0,0-.374-12.814Zm-25.666,23.7a1.224,1.224,0,0,1,0-1.732l10.864-10.864a1.225,1.225,0,1,1,1.733,1.732h0L230.859,28.407A1.226,1.226,0,0,1,229.127,28.407Zm4.389,7.9-1.184,1.184-1.637-1.637,1.12-1.12a5.085,5.085,0,0,0,1.519-3.364,4.973,4.973,0,0,0-.387-2.16l1.725-1.725a7.274,7.274,0,0,1-1.156,8.823Zm6.623-25.038,4-4a2.942,2.942,0,0,1,4.16,0l1.966,1.966a2.945,2.945,0,0,1,0,4.161l-4,4a2.923,2.923,0,0,1-2.08.862,2.975,2.975,0,0,1-.447-.034,3.268,3.268,0,0,0-4.419-4.428,2.953,2.953,0,0,1,.82-2.525Z" transform="translate(-188.291)" fill="#056372"/>
      <path id="Path_610923" data-name="Path 610923" d="M37.25,229.18a1.984,1.984,0,0,0-2.8,0l-1.164,1.164a3.047,3.047,0,0,1-2.009.922,2.979,2.979,0,0,1-.6-.035,3.269,3.269,0,0,0-4.4-4.406,2.958,2.958,0,0,1,.819-2.543l1.227-1.227a1.984,1.984,0,0,0,0-2.8L26.6,218.528a1.981,1.981,0,0,0-2.8,0l-1.227,1.227a9.311,9.311,0,0,0-1.194,11.751l-2.885,2.885a9.317,9.317,0,0,0-11.728,1.172A1.021,1.021,0,1,0,8.2,237.013a7.278,7.278,0,0,1,8.8-1.138L15.28,237.6a4.972,4.972,0,0,0-5.46,1.066l-4,4a4.991,4.991,0,0,0,0,7.05l1.966,1.966a4.985,4.985,0,0,0,7.049,0l4-4a5.022,5.022,0,0,0,1.066-5.46l1.726-1.726a7.273,7.273,0,0,1-1.155,8.823l-4,4a7.3,7.3,0,0,1-10.323,0l-1.966-1.966a7.308,7.308,0,0,1,0-10.323l.943-.943a1.021,1.021,0,0,0-1.445-1.445l-.943.943a9.343,9.343,0,0,0,0,13.212L4.7,254.766a9.343,9.343,0,0,0,13.212,0l4-4a9.31,9.31,0,0,0,1.194-11.751L26,236.128a9.305,9.305,0,0,0,11.75-1.194l1.227-1.227a1.984,1.984,0,0,0,0-2.8ZM24.013,221.2l1.184-1.184,1.637,1.637-1.184,1.184a5.023,5.023,0,0,0-1.066,5.46l-1.726,1.726A7.274,7.274,0,0,1,24.013,221.2Zm-7.973,18.529L26.9,228.865a1.225,1.225,0,1,1,1.732,1.732L17.773,241.462a1.225,1.225,0,1,1-1.732-1.732Zm1.35,6.509-4,4a2.942,2.942,0,0,1-4.16,0l-1.966-1.966a2.945,2.945,0,0,1,0-4.161l4-4a2.925,2.925,0,0,1,2.643-.806,3.265,3.265,0,0,0,4.285,4.292,2.956,2.956,0,0,1-.8,2.64ZM36.3,233.489a7.274,7.274,0,0,1-8.823,1.155L29.2,232.92a4.987,4.987,0,0,0,2.16.388,5.084,5.084,0,0,0,3.364-1.519l1.12-1.12,1.637,1.637Z" transform="translate(0 -188.259)" fill="#056372"/>
      <path id="Path_610924" data-name="Path 610924" d="M141.216,51.308a1.927,1.927,0,0,0,1.544.778,2,2,0,0,0,.637-.105,1.929,1.929,0,0,0,1.332-1.853v-7.5a1.956,1.956,0,0,0-2.023-1.955,9.146,9.146,0,0,0-5.608,2.11,1.943,1.943,0,0,0-.309,2.685Zm1.47-8.592v7.149L138.468,44.3A7.034,7.034,0,0,1,142.685,42.716Z" transform="translate(-117.813 -35.123)" fill="#056372"/>
      <path id="Path_610925" data-name="Path 610925" d="M45.445,146.255c.063,0,.126,0,.19-.009l7.3-.691a1.955,1.955,0,0,0,.844-3.608h0L47.4,138a1.956,1.956,0,0,0-2.726.692,9.145,9.145,0,0,0-1.156,5.879,1.94,1.94,0,0,0,1.93,1.684Zm7.8-3.439-.537.869h0Zm-6.84-3.031,6.08,3.761-6.952.658A7.033,7.033,0,0,1,46.4,139.785Z" transform="translate(-37.514 -118.945)" fill="#056372"/>
      <path id="Path_610926" data-name="Path 610926" d="M85.069,84.55A1.021,1.021,0,0,0,86.6,83.193l-1.8-2.022a1.021,1.021,0,1,0-1.526,1.358Z" transform="translate(-71.708 -69.813)" fill="#056372"/>
      <path id="Path_610927" data-name="Path 610927" d="M229.653,59.3a1.02,1.02,0,0,0,1.344-.53l1.362-3.137a1.021,1.021,0,0,0-1.874-.814l-1.362,3.137A1.021,1.021,0,0,0,229.653,59.3Z" transform="translate(-197.847 -46.817)" fill="#056372"/>
      <path id="Path_610928" data-name="Path 610928" d="M58.5,228.58l-3.137,1.362a1.021,1.021,0,1,0,.814,1.874l3.137-1.362a1.021,1.021,0,0,0-.814-1.874Z" transform="translate(-47.293 -197.37)" fill="#056372"/>
      <path id="Path_610929" data-name="Path 610929" d="M393.358,310.761h-7.5a1.955,1.955,0,0,0-1.18,3.512l5.843,4.427a1.959,1.959,0,0,0,1.186.4,1.931,1.931,0,0,0,1.5-.71,9.145,9.145,0,0,0,2.11-5.608,1.956,1.956,0,0,0-1.955-2.023Zm-1.674,6.26-5.566-4.217h7.149A7.032,7.032,0,0,1,391.684,317.021Z" transform="translate(-331.617 -268.432)" fill="#056372"/>
      <path id="Path_610930" data-name="Path 610930" d="M312.225,383.08h0a1.955,1.955,0,0,0-3.608.844l-.691,7.3a1.942,1.942,0,0,0,1.675,2.12,9.688,9.688,0,0,0,1.285.087,9.13,9.13,0,0,0,4.593-1.243,1.956,1.956,0,0,0,.692-2.726Zm-2.257,8.25.658-6.952,3.761,6.08A7.033,7.033,0,0,1,309.968,391.33Z" transform="translate(-265.984 -330.1)" fill="#056372"/>
      <path id="Path_610931" data-name="Path 610931" d="M401.441,399.234l-2.022-1.8a1.021,1.021,0,0,0-1.358,1.526l2.022,1.8a1.021,1.021,0,0,0,1.358-1.526Z" transform="translate(-343.556 -343.08)" fill="#056372"/>
      <path id="Path_610932" data-name="Path 610932" d="M417.169,257.753a1.016,1.016,0,0,0,.406-.085l3.137-1.362a1.021,1.021,0,0,0-.814-1.874l-3.137,1.362a1.022,1.022,0,0,0,.407,1.958Z" transform="translate(-359.475 -219.701)" fill="#056372"/>
      <path id="Path_610933" data-name="Path 610933" d="M257.683,415.69a1.022,1.022,0,0,0-1.344.53l-1.362,3.137a1.021,1.021,0,1,0,1.874.814l1.362-3.137A1.022,1.022,0,0,0,257.683,415.69Z" transform="translate(-220.18 -358.998)" fill="#056372"/>
    </g>
    <g id="bomba" transform="translate(482 25879.555)">
      <g id="Group_1073474" data-name="Group 1073474" transform="translate(0 60.27)">
        <g id="Group_1073473" data-name="Group 1073473" transform="translate(0 0)">
          <path id="Path_610914" data-name="Path 610914" d="M61.93,66.474,58.62,63.164a7.03,7.03,0,0,0-9.932,0l-1.1,1.1-3.311-3.311a2.341,2.341,0,0,0-3.311,0l-6.25,6.25A24.9,24.9,0,1,0,47.956,80.45l6.25-6.25a2.341,2.341,0,0,0,0-3.311l-3.311-3.311,1.1-1.1a2.344,2.344,0,0,1,3.311,0l3.311,3.311a2.341,2.341,0,0,0,3.311-3.31ZM39.307,104.549A20.269,20.269,0,1,1,33.933,72a2.3,2.3,0,0,0,.205.12,20.347,20.347,0,0,1,4.573,3.165l.054.051q.276.255.542.52t.52.542l.051.055a20.34,20.34,0,0,1,3.165,4.573,2.277,2.277,0,0,0,.12.205,20.363,20.363,0,0,1-3.856,23.32Zm6.311-28.383a25.094,25.094,0,0,0-2.586-3.2q-.2-.215-.414-.425t-.425-.415A25.107,25.107,0,0,0,39,69.543l3.622-3.622,6.623,6.623Z" transform="translate(0 -60.27)" fill="#88323b" stroke="#bbffc5" stroke-width="2"/>
        </g>
      </g>
      <g id="Group_1073476" data-name="Group 1073476" transform="translate(65.551 73.022)">
        <g id="Group_1073475" data-name="Group 1073475" transform="translate(0 0)">
          <path id="Path_610915" data-name="Path 610915" d="M473.035,153.458l-1.561-1.561a2.341,2.341,0,0,0-3.311,3.311l1.561,1.561a2.341,2.341,0,0,0,3.31-3.311Z" transform="translate(-467.478 -151.211)" fill="#88323b" stroke="#bbffc5" stroke-width="2"/>
        </g>
      </g>
      <g id="Group_1073478" data-name="Group 1073478" transform="translate(56.187 73.022)">
        <g id="Group_1073477" data-name="Group 1073477" transform="translate(0 0)">
          <path id="Path_610916" data-name="Path 610916" d="M406.254,151.9a2.34,2.34,0,0,0-3.31,0l-1.561,1.561a2.341,2.341,0,1,0,3.31,3.311l1.561-1.561A2.341,2.341,0,0,0,406.254,151.9Z" transform="translate(-400.697 -151.211)" fill="#88323b" stroke="#bbffc5" stroke-width="2"/>
        </g>
      </g>
      <g id="Group_1073480" data-name="Group 1073480" transform="translate(65.551 63.658)">
        <g id="Group_1073479" data-name="Group 1073479" transform="translate(0 0)">
          <path id="Path_610917" data-name="Path 610917" d="M473.037,85.113a2.34,2.34,0,0,0-3.31,0l-1.561,1.561a2.341,2.341,0,0,0,3.311,3.311l1.561-1.561A2.34,2.34,0,0,0,473.037,85.113Z" transform="translate(-467.48 -84.427)" fill="#88323b" stroke="#bbffc5" stroke-width="2"/>
        </g>
      </g>
      <g id="Group_1073482" data-name="Group 1073482" transform="translate(13.254 97.226)">
        <g id="Group_1073481" data-name="Group 1073481" transform="translate(0 0)">
          <path id="Path_610918" data-name="Path 610918" d="M117.271,324.505a2.34,2.34,0,0,0-3.311,0,10.907,10.907,0,0,1-15.443,0,2.341,2.341,0,0,0-3.311,3.311,15.587,15.587,0,0,0,22.064,0A2.34,2.34,0,0,0,117.271,324.505Z" transform="translate(-94.521 -323.819)" fill="#88323b" stroke="#bbffc5" stroke-width="2"/>
        </g>
      </g>
    </g>
    <g id="maletin" transform="translate(1049.837 25815.582)">
      <g id="Group_1073484" data-name="Group 1073484" transform="translate(1.49 66.191)">
        <g id="Group_1073483" data-name="Group 1073483">
          <path id="Path_610919" data-name="Path 610919" d="M72.711,279.273a1.407,1.407,0,0,0-1.49,1.49v19.365a1.407,1.407,0,0,1-1.49,1.49H16.106a1.407,1.407,0,0,1-1.49-1.49V280.763a1.407,1.407,0,0,0-1.49-1.49,1.407,1.407,0,0,0-1.49,1.49v19.365a4.389,4.389,0,0,0,4.469,4.469H69.732a4.389,4.389,0,0,0,4.469-4.469V280.763A1.407,1.407,0,0,0,72.711,279.273Z" transform="translate(-11.637 -279.273)" fill="#03386e"/>
        </g>
      </g>
      <g id="Group_1073486" data-name="Group 1073486" transform="translate(0 45.336)">
        <g id="Group_1073485" data-name="Group 1073485">
          <path id="Path_610920" data-name="Path 610920" d="M61.074,116.364H4.469A4.389,4.389,0,0,0,0,120.833v9.534a4.472,4.472,0,0,0,3.426,4.32L26.813,139.9v4.767a1.407,1.407,0,0,0,1.49,1.49H37.24a1.407,1.407,0,0,0,1.49-1.49V139.9l23.387-5.214a4.472,4.472,0,0,0,3.426-4.32v-9.534A4.389,4.389,0,0,0,61.074,116.364ZM35.751,143.177H29.792v-5.958h5.958Zm26.813-12.811a1.45,1.45,0,0,1-1.192,1.49L38.73,136.921v-1.192a1.407,1.407,0,0,0-1.49-1.49H28.3a1.407,1.407,0,0,0-1.49,1.49v1.192L4.171,131.856a1.451,1.451,0,0,1-1.192-1.49v-9.534a1.407,1.407,0,0,1,1.49-1.49H61.074a1.407,1.407,0,0,1,1.49,1.49Z" transform="translate(0 -116.364)" fill="#03386e"/>
        </g>
      </g>
      <g id="Group_1073488" data-name="Group 1073488" transform="translate(20.855 34.909)">
        <g id="Group_1073487" data-name="Group 1073487">
          <path id="Path_610921" data-name="Path 610921" d="M182.274,34.909h-14.9a4.389,4.389,0,0,0-4.469,4.469v1.49a1.49,1.49,0,0,0,2.979,0v-1.49a1.407,1.407,0,0,1,1.49-1.49h14.9a1.407,1.407,0,0,1,1.49,1.49v1.49a1.49,1.49,0,0,0,2.979,0v-1.49A4.389,4.389,0,0,0,182.274,34.909Z" transform="translate(-162.909 -34.909)" fill="#03386e"/>
        </g>
      </g>
    </g>
    <g id="Path_614458" data-name="Path 614458" transform="translate(979 25744.826)" fill="#fff" stroke-dasharray="2">
      <path d="M0,0H231V63H0Z" stroke="none"/>
      <path d="M 0 0 L 2 0 L 2 1 L 0 1 L 0 0 Z M 4 0 L 6 0 L 6 1 L 4 1 L 4 0 Z M 8 0 L 10 0 L 10 1 L 8 1 L 8 0 Z M 12 0 L 14 0 L 14 1 L 12 1 L 12 0 Z M 16 0 L 18 0 L 18 1 L 16 1 L 16 0 Z M 20 0 L 22 0 L 22 1 L 20 1 L 20 0 Z M 24 0 L 26 0 L 26 1 L 24 1 L 24 0 Z M 28 0 L 30 0 L 30 1 L 28 1 L 28 0 Z M 32 0 L 34 0 L 34 1 L 32 1 L 32 0 Z M 36 0 L 38 0 L 38 1 L 36 1 L 36 0 Z M 40 0 L 42 0 L 42 1 L 40 1 L 40 0 Z M 44 0 L 46 0 L 46 1 L 44 1 L 44 0 Z M 48 0 L 50 0 L 50 1 L 48 1 L 48 0 Z M 52 0 L 54 0 L 54 1 L 52 1 L 52 0 Z M 56 0 L 58 0 L 58 1 L 56 1 L 56 0 Z M 60 0 L 62 0 L 62 1 L 60 1 L 60 0 Z M 64 0 L 66 0 L 66 1 L 64 1 L 64 0 Z M 68 0 L 70 0 L 70 1 L 68 1 L 68 0 Z M 72 0 L 74 0 L 74 1 L 72 1 L 72 0 Z M 76 0 L 78 0 L 78 1 L 76 1 L 76 0 Z M 80 0 L 82 0 L 82 1 L 80 1 L 80 0 Z M 84 0 L 86 0 L 86 1 L 84 1 L 84 0 Z M 88 0 L 90 0 L 90 1 L 88 1 L 88 0 Z M 92 0 L 94 0 L 94 1 L 92 1 L 92 0 Z M 96 0 L 98 0 L 98 1 L 96 1 L 96 0 Z M 100 0 L 102 0 L 102 1 L 100 1 L 100 0 Z M 104 0 L 106 0 L 106 1 L 104 1 L 104 0 Z M 108 0 L 110 0 L 110 1 L 108 1 L 108 0 Z M 112 0 L 114 0 L 114 1 L 112 1 L 112 0 Z M 116 0 L 118 0 L 118 1 L 116 1 L 116 0 Z M 120 0 L 122 0 L 122 1 L 120 1 L 120 0 Z M 124 0 L 126 0 L 126 1 L 124 1 L 124 0 Z M 128 0 L 130 0 L 130 1 L 128 1 L 128 0 Z M 132 0 L 134 0 L 134 1 L 132 1 L 132 0 Z M 136 0 L 138 0 L 138 1 L 136 1 L 136 0 Z M 140 0 L 142 0 L 142 1 L 140 1 L 140 0 Z M 144 0 L 146 0 L 146 1 L 144 1 L 144 0 Z M 148 0 L 150 0 L 150 1 L 148 1 L 148 0 Z M 152 0 L 154 0 L 154 1 L 152 1 L 152 0 Z M 156 0 L 158 0 L 158 1 L 156 1 L 156 0 Z M 160 0 L 162 0 L 162 1 L 160 1 L 160 0 Z M 164 0 L 166 0 L 166 1 L 164 1 L 164 0 Z M 168 0 L 170 0 L 170 1 L 168 1 L 168 0 Z M 172 0 L 174 0 L 174 1 L 172 1 L 172 0 Z M 176 0 L 178 0 L 178 1 L 176 1 L 176 0 Z M 180 0 L 182 0 L 182 1 L 180 1 L 180 0 Z M 184 0 L 186 0 L 186 1 L 184 1 L 184 0 Z M 188 0 L 190 0 L 190 1 L 188 1 L 188 0 Z M 192 0 L 194 0 L 194 1 L 192 1 L 192 0 Z M 196 0 L 198 0 L 198 1 L 196 1 L 196 0 Z M 200 0 L 202 0 L 202 1 L 200 1 L 200 0 Z M 204 0 L 206 0 L 206 1 L 204 1 L 204 0 Z M 208 0 L 210 0 L 210 1 L 208 1 L 208 0 Z M 212 0 L 214 0 L 214 1 L 212 1 L 212 0 Z M 216 0 L 218 0 L 218 1 L 216 1 L 216 0 Z M 220 0 L 222 0 L 222 1 L 220 1 L 220 0 Z M 224 0 L 226 0 L 226 1 L 224 1 L 224 0 Z M 228 0 L 230 0 L 230 1 L 231 1 C 231 1 231 3 231 3 L 230 3 L 230 1 L 228 1 L 228 0 Z M 230 5 L 231 5 C 231 5 231 7 231 7 L 230 7 L 230 5 Z M 230 9 L 231 9 C 231 9 231 11 231 11 L 230 11 L 230 9 Z M 230 13 L 231 13 C 231 13 231 15 231 15 L 230 15 L 230 13 Z M 230 17 L 231 17 C 231 17 231 19 231 19 L 230 19 L 230 17 Z M 230 21 L 231 21 C 231 21 231 23 231 23 L 230 23 L 230 21 Z M 230 25 L 231 25 C 231 25 231 27 231 27 L 230 27 L 230 25 Z M 230 29 L 231 29 C 231 29 231 31 231 31 L 230 31 L 230 29 Z M 230 33 L 231 33 C 231 33 231 35 231 35 L 230 35 L 230 33 Z M 230 37 L 231 37 C 231 37 231 39 231 39 L 230 39 L 230 37 Z M 230 41 L 231 41 C 231 41 231 43 231 43 L 230 43 L 230 41 Z M 230 45 L 231 45 C 231 45 231 47 231 47 L 230 47 L 230 45 Z M 230 49 L 231 49 C 231 49 231 51 231 51 L 230 51 L 230 49 Z M 230 53 L 231 53 C 231 53 231 55 231 55 L 230 55 L 230 53 Z M 230 57 L 231 57 C 231 57 231 59 231 59 L 230 59 L 230 57 Z M 230 61 L 231 61 C 231 61 231 63 231 63 L 230 63 L 230 61 Z M 227 62 L 229 62 L 229 63 C 229 63 227 63 227 63 L 227 62 Z M 223 62 L 225 62 L 225 63 C 225 63 223 63 223 63 L 223 62 Z M 219 62 L 221 62 L 221 63 C 221 63 219 63 219 63 L 219 62 Z M 215 62 L 217 62 L 217 63 C 217 63 215 63 215 63 L 215 62 Z M 211 62 L 213 62 L 213 63 C 213 63 211 63 211 63 L 211 62 Z M 207 62 L 209 62 L 209 63 C 209 63 207 63 207 63 L 207 62 Z M 203 62 L 205 62 L 205 63 C 205 63 203 63 203 63 L 203 62 Z M 199 62 L 201 62 L 201 63 C 201 63 199 63 199 63 L 199 62 Z M 195 62 L 197 62 L 197 63 C 197 63 195 63 195 63 L 195 62 Z M 191 62 L 193 62 L 193 63 C 193 63 191 63 191 63 L 191 62 Z M 187 62 L 189 62 L 189 63 C 189 63 187 63 187 63 L 187 62 Z M 183 62 L 185 62 L 185 63 C 185 63 183 63 183 63 L 183 62 Z M 179 62 L 181 62 L 181 63 C 181 63 179 63 179 63 L 179 62 Z M 175 62 L 177 62 L 177 63 C 177 63 175 63 175 63 L 175 62 Z M 171 62 L 173 62 L 173 63 C 173 63 171 63 171 63 L 171 62 Z M 167 62 L 169 62 L 169 63 C 169 63 167 63 167 63 L 167 62 Z M 163 62 L 165 62 L 165 63 C 165 63 163 63 163 63 L 163 62 Z M 159 62 L 161 62 L 161 63 C 161 63 159 63 159 63 L 159 62 Z M 155 62 L 157 62 L 157 63 C 157 63 155 63 155 63 L 155 62 Z M 151 62 L 153 62 L 153 63 C 153 63 151 63 151 63 L 151 62 Z M 147 62 L 149 62 L 149 63 C 149 63 147 63 147 63 L 147 62 Z M 143 62 L 145 62 L 145 63 C 145 63 143 63 143 63 L 143 62 Z M 139 62 L 141 62 L 141 63 C 141 63 139 63 139 63 L 139 62 Z M 135 62 L 137 62 L 137 63 C 137 63 135 63 135 63 L 135 62 Z M 131 62 L 133 62 L 133 63 C 133 63 131 63 131 63 L 131 62 Z M 127 62 L 129 62 L 129 63 C 129 63 127 63 127 63 L 127 62 Z M 123 62 L 125 62 L 125 63 C 125 63 123 63 123 63 L 123 62 Z M 119 62 L 121 62 L 121 63 C 121 63 119 63 119 63 L 119 62 Z M 115 62 L 117 62 L 117 63 C 117 63 115 63 115 63 L 115 62 Z M 111 62 L 113 62 L 113 63 C 113 63 111 63 111 63 L 111 62 Z M 107 62 L 109 62 L 109 63 C 109 63 107 63 107 63 L 107 62 Z M 103 62 L 105 62 L 105 63 C 105 63 103 63 103 63 L 103 62 Z M 99 62 L 101 62 L 101 63 C 101 63 99 63 99 63 L 99 62 Z M 95 62 L 97 62 L 97 63 C 97 63 95 63 95 63 L 95 62 Z M 91 62 L 93 62 L 93 63 C 93 63 91 63 91 63 L 91 62 Z M 87 62 L 89 62 L 89 63 C 89 63 87 63 87 63 L 87 62 Z M 83 62 L 85 62 L 85 63 C 85 63 83 63 83 63 L 83 62 Z M 79 62 L 81 62 L 81 63 C 81 63 79 63 79 63 L 79 62 Z M 75 62 L 77 62 L 77 63 C 77 63 75 63 75 63 L 75 62 Z M 71 62 L 73 62 L 73 63 C 73 63 71 63 71 63 L 71 62 Z M 67 62 L 69 62 L 69 63 C 69 63 67 63 67 63 L 67 62 Z M 63 62 L 65 62 L 65 63 C 65 63 63 63 63 63 L 63 62 Z M 59 62 L 61 62 L 61 63 C 61 63 59 63 59 63 L 59 62 Z M 55 62 L 57 62 L 57 63 C 57 63 55 63 55 63 L 55 62 Z M 51 62 L 53 62 L 53 63 C 53 63 51 63 51 63 L 51 62 Z M 47 62 L 49 62 L 49 63 C 49 63 47 63 47 63 L 47 62 Z M 43 62 L 45 62 L 45 63 C 45 63 43 63 43 63 L 43 62 Z M 39 62 L 41 62 L 41 63 C 41 63 39 63 39 63 L 39 62 Z M 35 62 L 37 62 L 37 63 C 37 63 35 63 35 63 L 35 62 Z M 31 62 L 33 62 L 33 63 C 33 63 31 63 31 63 L 31 62 Z M 27 62 L 29 62 L 29 63 C 29 63 27 63 27 63 L 27 62 Z M 23 62 L 25 62 L 25 63 C 25 63 23 63 23 63 L 23 62 Z M 19 62 L 21 62 L 21 63 C 21 63 19 63 19 63 L 19 62 Z M 15 62 L 17 62 L 17 63 C 17 63 15 63 15 63 L 15 62 Z M 11 62 L 13 62 L 13 63 C 13 63 11 63 11 63 L 11 62 Z M 7 62 L 9 62 L 9 63 C 9 63 7 63 7 63 L 7 62 Z M 3 62 L 5 62 L 5 63 C 5 63 3 63 3 63 L 3 62 Z M 0 62 L 1 62 L 1 63 C 1 63 0 63 0 63 L 0 62 Z M 0 58 L 1 58 L 1 60 L 0 60 L 0 58 Z M 0 54 L 1 54 L 1 56 L 0 56 L 0 54 Z M 0 50 L 1 50 L 1 52 L 0 52 L 0 50 Z M 0 46 L 1 46 L 1 48 L 0 48 L 0 46 Z M 0 42 L 1 42 L 1 44 L 0 44 L 0 42 Z M 0 38 L 1 38 L 1 40 L 0 40 L 0 38 Z M 0 34 L 1 34 L 1 36 L 0 36 L 0 34 Z M 0 30 L 1 30 L 1 32 L 0 32 L 0 30 Z M 0 26 L 1 26 L 1 28 L 0 28 L 0 26 Z M 0 22 L 1 22 L 1 24 L 0 24 L 0 22 Z M 0 18 L 1 18 L 1 20 L 0 20 L 0 18 Z M 0 14 L 1 14 L 1 16 L 0 16 L 0 14 Z M 0 10 L 1 10 L 1 12 L 0 12 L 0 10 Z M 0 6 L 1 6 L 1 8 L 0 8 L 0 6 Z M 0 2 L 1 2 L 1 4 L 0 4 L 0 2 Z" stroke="none" fill="#707070"/>
    </g>
    <g id="Path_614459" data-name="Path 614459" transform="translate(390 26033.826)" fill="#fff" stroke-dasharray="2">
      <path d="M0,0H231V63H0Z" stroke="none"/>
      <path d="M 0 0 L 2 0 L 2 1 L 0 1 L 0 0 Z M 4 0 L 6 0 L 6 1 L 4 1 L 4 0 Z M 8 0 L 10 0 L 10 1 L 8 1 L 8 0 Z M 12 0 L 14 0 L 14 1 L 12 1 L 12 0 Z M 16 0 L 18 0 L 18 1 L 16 1 L 16 0 Z M 20 0 L 22 0 L 22 1 L 20 1 L 20 0 Z M 24 0 L 26 0 L 26 1 L 24 1 L 24 0 Z M 28 0 L 30 0 L 30 1 L 28 1 L 28 0 Z M 32 0 L 34 0 L 34 1 L 32 1 L 32 0 Z M 36 0 L 38 0 L 38 1 L 36 1 L 36 0 Z M 40 0 L 42 0 L 42 1 L 40 1 L 40 0 Z M 44 0 L 46 0 L 46 1 L 44 1 L 44 0 Z M 48 0 L 50 0 L 50 1 L 48 1 L 48 0 Z M 52 0 L 54 0 L 54 1 L 52 1 L 52 0 Z M 56 0 L 58 0 L 58 1 L 56 1 L 56 0 Z M 60 0 L 62 0 L 62 1 L 60 1 L 60 0 Z M 64 0 L 66 0 L 66 1 L 64 1 L 64 0 Z M 68 0 L 70 0 L 70 1 L 68 1 L 68 0 Z M 72 0 L 74 0 L 74 1 L 72 1 L 72 0 Z M 76 0 L 78 0 L 78 1 L 76 1 L 76 0 Z M 80 0 L 82 0 L 82 1 L 80 1 L 80 0 Z M 84 0 L 86 0 L 86 1 L 84 1 L 84 0 Z M 88 0 L 90 0 L 90 1 L 88 1 L 88 0 Z M 92 0 L 94 0 L 94 1 L 92 1 L 92 0 Z M 96 0 L 98 0 L 98 1 L 96 1 L 96 0 Z M 100 0 L 102 0 L 102 1 L 100 1 L 100 0 Z M 104 0 L 106 0 L 106 1 L 104 1 L 104 0 Z M 108 0 L 110 0 L 110 1 L 108 1 L 108 0 Z M 112 0 L 114 0 L 114 1 L 112 1 L 112 0 Z M 116 0 L 118 0 L 118 1 L 116 1 L 116 0 Z M 120 0 L 122 0 L 122 1 L 120 1 L 120 0 Z M 124 0 L 126 0 L 126 1 L 124 1 L 124 0 Z M 128 0 L 130 0 L 130 1 L 128 1 L 128 0 Z M 132 0 L 134 0 L 134 1 L 132 1 L 132 0 Z M 136 0 L 138 0 L 138 1 L 136 1 L 136 0 Z M 140 0 L 142 0 L 142 1 L 140 1 L 140 0 Z M 144 0 L 146 0 L 146 1 L 144 1 L 144 0 Z M 148 0 L 150 0 L 150 1 L 148 1 L 148 0 Z M 152 0 L 154 0 L 154 1 L 152 1 L 152 0 Z M 156 0 L 158 0 L 158 1 L 156 1 L 156 0 Z M 160 0 L 162 0 L 162 1 L 160 1 L 160 0 Z M 164 0 L 166 0 L 166 1 L 164 1 L 164 0 Z M 168 0 L 170 0 L 170 1 L 168 1 L 168 0 Z M 172 0 L 174 0 L 174 1 L 172 1 L 172 0 Z M 176 0 L 178 0 L 178 1 L 176 1 L 176 0 Z M 180 0 L 182 0 L 182 1 L 180 1 L 180 0 Z M 184 0 L 186 0 L 186 1 L 184 1 L 184 0 Z M 188 0 L 190 0 L 190 1 L 188 1 L 188 0 Z M 192 0 L 194 0 L 194 1 L 192 1 L 192 0 Z M 196 0 L 198 0 L 198 1 L 196 1 L 196 0 Z M 200 0 L 202 0 L 202 1 L 200 1 L 200 0 Z M 204 0 L 206 0 L 206 1 L 204 1 L 204 0 Z M 208 0 L 210 0 L 210 1 L 208 1 L 208 0 Z M 212 0 L 214 0 L 214 1 L 212 1 L 212 0 Z M 216 0 L 218 0 L 218 1 L 216 1 L 216 0 Z M 220 0 L 222 0 L 222 1 L 220 1 L 220 0 Z M 224 0 L 226 0 L 226 1 L 224 1 L 224 0 Z M 228 0 L 230 0 L 230 1 L 231 1 C 231 1 231 3 231 3 L 230 3 L 230 1 L 228 1 L 228 0 Z M 230 5 L 231 5 C 231 5 231 7 231 7 L 230 7 L 230 5 Z M 230 9 L 231 9 C 231 9 231 11 231 11 L 230 11 L 230 9 Z M 230 13 L 231 13 C 231 13 231 15 231 15 L 230 15 L 230 13 Z M 230 17 L 231 17 C 231 17 231 19 231 19 L 230 19 L 230 17 Z M 230 21 L 231 21 C 231 21 231 23 231 23 L 230 23 L 230 21 Z M 230 25 L 231 25 C 231 25 231 27 231 27 L 230 27 L 230 25 Z M 230 29 L 231 29 C 231 29 231 31 231 31 L 230 31 L 230 29 Z M 230 33 L 231 33 C 231 33 231 35 231 35 L 230 35 L 230 33 Z M 230 37 L 231 37 C 231 37 231 39 231 39 L 230 39 L 230 37 Z M 230 41 L 231 41 C 231 41 231 43 231 43 L 230 43 L 230 41 Z M 230 45 L 231 45 C 231 45 231 47 231 47 L 230 47 L 230 45 Z M 230 49 L 231 49 C 231 49 231 51 231 51 L 230 51 L 230 49 Z M 230 53 L 231 53 C 231 53 231 55 231 55 L 230 55 L 230 53 Z M 230 57 L 231 57 C 231 57 231 59 231 59 L 230 59 L 230 57 Z M 230 61 L 231 61 C 231 61 231 63 231 63 L 230 63 L 230 61 Z M 227 62 L 229 62 L 229 63 C 229 63 227 63 227 63 L 227 62 Z M 223 62 L 225 62 L 225 63 C 225 63 223 63 223 63 L 223 62 Z M 219 62 L 221 62 L 221 63 C 221 63 219 63 219 63 L 219 62 Z M 215 62 L 217 62 L 217 63 C 217 63 215 63 215 63 L 215 62 Z M 211 62 L 213 62 L 213 63 C 213 63 211 63 211 63 L 211 62 Z M 207 62 L 209 62 L 209 63 C 209 63 207 63 207 63 L 207 62 Z M 203 62 L 205 62 L 205 63 C 205 63 203 63 203 63 L 203 62 Z M 199 62 L 201 62 L 201 63 C 201 63 199 63 199 63 L 199 62 Z M 195 62 L 197 62 L 197 63 C 197 63 195 63 195 63 L 195 62 Z M 191 62 L 193 62 L 193 63 C 193 63 191 63 191 63 L 191 62 Z M 187 62 L 189 62 L 189 63 C 189 63 187 63 187 63 L 187 62 Z M 183 62 L 185 62 L 185 63 C 185 63 183 63 183 63 L 183 62 Z M 179 62 L 181 62 L 181 63 C 181 63 179 63 179 63 L 179 62 Z M 175 62 L 177 62 L 177 63 C 177 63 175 63 175 63 L 175 62 Z M 171 62 L 173 62 L 173 63 C 173 63 171 63 171 63 L 171 62 Z M 167 62 L 169 62 L 169 63 C 169 63 167 63 167 63 L 167 62 Z M 163 62 L 165 62 L 165 63 C 165 63 163 63 163 63 L 163 62 Z M 159 62 L 161 62 L 161 63 C 161 63 159 63 159 63 L 159 62 Z M 155 62 L 157 62 L 157 63 C 157 63 155 63 155 63 L 155 62 Z M 151 62 L 153 62 L 153 63 C 153 63 151 63 151 63 L 151 62 Z M 147 62 L 149 62 L 149 63 C 149 63 147 63 147 63 L 147 62 Z M 143 62 L 145 62 L 145 63 C 145 63 143 63 143 63 L 143 62 Z M 139 62 L 141 62 L 141 63 C 141 63 139 63 139 63 L 139 62 Z M 135 62 L 137 62 L 137 63 C 137 63 135 63 135 63 L 135 62 Z M 131 62 L 133 62 L 133 63 C 133 63 131 63 131 63 L 131 62 Z M 127 62 L 129 62 L 129 63 C 129 63 127 63 127 63 L 127 62 Z M 123 62 L 125 62 L 125 63 C 125 63 123 63 123 63 L 123 62 Z M 119 62 L 121 62 L 121 63 C 121 63 119 63 119 63 L 119 62 Z M 115 62 L 117 62 L 117 63 C 117 63 115 63 115 63 L 115 62 Z M 111 62 L 113 62 L 113 63 C 113 63 111 63 111 63 L 111 62 Z M 107 62 L 109 62 L 109 63 C 109 63 107 63 107 63 L 107 62 Z M 103 62 L 105 62 L 105 63 C 105 63 103 63 103 63 L 103 62 Z M 99 62 L 101 62 L 101 63 C 101 63 99 63 99 63 L 99 62 Z M 95 62 L 97 62 L 97 63 C 97 63 95 63 95 63 L 95 62 Z M 91 62 L 93 62 L 93 63 C 93 63 91 63 91 63 L 91 62 Z M 87 62 L 89 62 L 89 63 C 89 63 87 63 87 63 L 87 62 Z M 83 62 L 85 62 L 85 63 C 85 63 83 63 83 63 L 83 62 Z M 79 62 L 81 62 L 81 63 C 81 63 79 63 79 63 L 79 62 Z M 75 62 L 77 62 L 77 63 C 77 63 75 63 75 63 L 75 62 Z M 71 62 L 73 62 L 73 63 C 73 63 71 63 71 63 L 71 62 Z M 67 62 L 69 62 L 69 63 C 69 63 67 63 67 63 L 67 62 Z M 63 62 L 65 62 L 65 63 C 65 63 63 63 63 63 L 63 62 Z M 59 62 L 61 62 L 61 63 C 61 63 59 63 59 63 L 59 62 Z M 55 62 L 57 62 L 57 63 C 57 63 55 63 55 63 L 55 62 Z M 51 62 L 53 62 L 53 63 C 53 63 51 63 51 63 L 51 62 Z M 47 62 L 49 62 L 49 63 C 49 63 47 63 47 63 L 47 62 Z M 43 62 L 45 62 L 45 63 C 45 63 43 63 43 63 L 43 62 Z M 39 62 L 41 62 L 41 63 C 41 63 39 63 39 63 L 39 62 Z M 35 62 L 37 62 L 37 63 C 37 63 35 63 35 63 L 35 62 Z M 31 62 L 33 62 L 33 63 C 33 63 31 63 31 63 L 31 62 Z M 27 62 L 29 62 L 29 63 C 29 63 27 63 27 63 L 27 62 Z M 23 62 L 25 62 L 25 63 C 25 63 23 63 23 63 L 23 62 Z M 19 62 L 21 62 L 21 63 C 21 63 19 63 19 63 L 19 62 Z M 15 62 L 17 62 L 17 63 C 17 63 15 63 15 63 L 15 62 Z M 11 62 L 13 62 L 13 63 C 13 63 11 63 11 63 L 11 62 Z M 7 62 L 9 62 L 9 63 C 9 63 7 63 7 63 L 7 62 Z M 3 62 L 5 62 L 5 63 C 5 63 3 63 3 63 L 3 62 Z M 0 62 L 1 62 L 1 63 C 1 63 0 63 0 63 L 0 62 Z M 0 58 L 1 58 L 1 60 L 0 60 L 0 58 Z M 0 54 L 1 54 L 1 56 L 0 56 L 0 54 Z M 0 50 L 1 50 L 1 52 L 0 52 L 0 50 Z M 0 46 L 1 46 L 1 48 L 0 48 L 0 46 Z M 0 42 L 1 42 L 1 44 L 0 44 L 0 42 Z M 0 38 L 1 38 L 1 40 L 0 40 L 0 38 Z M 0 34 L 1 34 L 1 36 L 0 36 L 0 34 Z M 0 30 L 1 30 L 1 32 L 0 32 L 0 30 Z M 0 26 L 1 26 L 1 28 L 0 28 L 0 26 Z M 0 22 L 1 22 L 1 24 L 0 24 L 0 22 Z M 0 18 L 1 18 L 1 20 L 0 20 L 0 18 Z M 0 14 L 1 14 L 1 16 L 0 16 L 0 14 Z M 0 10 L 1 10 L 1 12 L 0 12 L 0 10 Z M 0 6 L 1 6 L 1 8 L 0 8 L 0 6 Z M 0 2 L 1 2 L 1 4 L 0 4 L 0 2 Z" stroke="none" fill="#707070"/>
    </g>
    <path id="Path_614460" data-name="Path 614460" d="M.913,16V3.914H4.806a5.727,5.727,0,0,1,2.88.726,5.105,5.105,0,0,1,2,2.05,6.19,6.19,0,0,1,.726,2.968v.556a6.226,6.226,0,0,1-.7,2.976,5.127,5.127,0,0,1-1.976,2.059A5.6,5.6,0,0,1,4.889,16ZM3.827,6.164v7.6H4.839a2.267,2.267,0,0,0,1.926-.892,4.373,4.373,0,0,0,.672-2.652V9.691a4.337,4.337,0,0,0-.672-2.64,2.306,2.306,0,0,0-1.959-.888Zm12.293,10a4.617,4.617,0,0,1-3.345-1.233A4.257,4.257,0,0,1,11.5,11.725v-.232a5.516,5.516,0,0,1,.51-2.432A3.735,3.735,0,0,1,13.5,7.429a4.5,4.5,0,0,1,2.324-.577A3.888,3.888,0,0,1,18.81,8.027a4.616,4.616,0,0,1,1.1,3.275v1.087H14.344A2.016,2.016,0,0,0,15,13.576a1.951,1.951,0,0,0,1.312.432,2.514,2.514,0,0,0,2.075-.93l1.278,1.511a3.573,3.573,0,0,1-1.482,1.15A5.007,5.007,0,0,1,16.12,16.166ZM15.8,9.011q-1.229,0-1.461,1.627h2.822v-.216a1.386,1.386,0,0,0-.34-1.042A1.354,1.354,0,0,0,15.8,9.011Zm9.106,2.416a5.3,5.3,0,0,1,.523-2.395,3.74,3.74,0,0,1,1.5-1.615,4.525,4.525,0,0,1,2.3-.564A4.13,4.13,0,0,1,32.415,8.1a4.794,4.794,0,0,1,1.162,3.4v.1a4.651,4.651,0,0,1-1.166,3.333,4.141,4.141,0,0,1-3.158,1.233,4.188,4.188,0,0,1-3.08-1.15A4.5,4.5,0,0,1,24.919,11.9Zm2.8.174a3.342,3.342,0,0,0,.39,1.826,1.3,1.3,0,0,0,1.154.581q1.494,0,1.527-2.3v-.282q0-2.416-1.544-2.416-1.4,0-1.519,2.083ZM40.242,9.55l-.921-.066a1.655,1.655,0,0,0-1.693.83V16h-2.8V7.019h2.623l.091,1.154a2.166,2.166,0,0,1,1.967-1.32,2.728,2.728,0,0,1,.78.1ZM44.2,16H41.4V7.019H44.2ZM41.23,4.7a1.249,1.249,0,0,1,.432-.979,1.835,1.835,0,0,1,2.241,0,1.249,1.249,0,0,1,.432.979,1.249,1.249,0,0,1-.432.979,1.835,1.835,0,0,1-2.241,0A1.249,1.249,0,0,1,41.23,4.7Zm4.366,6.74a6.064,6.064,0,0,1,.448-2.407,3.609,3.609,0,0,1,1.287-1.615,3.392,3.392,0,0,1,1.951-.569,2.7,2.7,0,0,1,2.191.946l.1-.78h2.54V15.66a3.787,3.787,0,0,1-.552,2.063,3.542,3.542,0,0,1-1.6,1.345,5.873,5.873,0,0,1-2.424.469,5.067,5.067,0,0,1-1.913-.374,3.454,3.454,0,0,1-1.415-.971l1.17-1.644a2.565,2.565,0,0,0,2.059.921A1.666,1.666,0,0,0,51.3,15.56v-.282a2.627,2.627,0,0,1-2.034.888,3.246,3.246,0,0,1-2.656-1.258A5.21,5.21,0,0,1,45.6,11.542Zm2.806.174a3.2,3.2,0,0,0,.415,1.747,1.309,1.309,0,0,0,1.162.643A1.486,1.486,0,0,0,51.3,13.4V9.625A1.449,1.449,0,0,0,50,9.011a1.318,1.318,0,0,0-1.17.668A3.644,3.644,0,0,0,48.4,11.617Zm11.646,4.549A4.617,4.617,0,0,1,56.7,14.933a4.257,4.257,0,0,1-1.278-3.208v-.232a5.516,5.516,0,0,1,.51-2.432,3.735,3.735,0,0,1,1.49-1.631,4.5,4.5,0,0,1,2.324-.577,3.888,3.888,0,0,1,2.988,1.175,4.616,4.616,0,0,1,1.1,3.275v1.087H58.271a2.016,2.016,0,0,0,.656,1.187,1.951,1.951,0,0,0,1.312.432,2.514,2.514,0,0,0,2.075-.93l1.278,1.511a3.573,3.573,0,0,1-1.482,1.15A5.007,5.007,0,0,1,60.048,16.166Zm-.315-7.155q-1.229,0-1.461,1.627h2.822v-.216a1.386,1.386,0,0,0-.34-1.042A1.354,1.354,0,0,0,59.732,9.011Zm7.794-1.992.091,1.054a3.046,3.046,0,0,1,2.565-1.22,2.562,2.562,0,0,1,2.1.838A3.991,3.991,0,0,1,73,10.214V16H70.191V10.331a1.516,1.516,0,0,0-.274-1,1.267,1.267,0,0,0-1-.32,1.334,1.334,0,0,0-1.22.647V16H64.9V7.019Zm15.6,9.147a4.617,4.617,0,0,1-3.345-1.233A4.257,4.257,0,0,1,78.5,11.725v-.232a5.516,5.516,0,0,1,.51-2.432A3.735,3.735,0,0,1,80.5,7.429a4.5,4.5,0,0,1,2.324-.577,3.888,3.888,0,0,1,2.988,1.175,4.616,4.616,0,0,1,1.1,3.275v1.087H81.348A2.016,2.016,0,0,0,82,13.576a1.951,1.951,0,0,0,1.312.432,2.514,2.514,0,0,0,2.075-.93l1.278,1.511a3.573,3.573,0,0,1-1.482,1.15A5.007,5.007,0,0,1,83.124,16.166Zm-.315-7.155q-1.229,0-1.461,1.627H84.17v-.216a1.386,1.386,0,0,0-.34-1.042A1.354,1.354,0,0,0,82.809,9.011Zm8.865.481,1.3-2.474h2.905l-2.366,4.375L96,16H93.077l-1.411-2.656L90.279,16H87.341l2.49-4.607L87.474,7.019h2.938Zm8.367-4.707V7.019h1.478V8.961h-1.478V13.07a1.049,1.049,0,0,0,.183.706.98.98,0,0,0,.722.2,4.1,4.1,0,0,0,.7-.05v2a5.163,5.163,0,0,1-1.577.241,2.93,2.93,0,0,1-2.133-.681,2.79,2.79,0,0,1-.689-2.067V8.961H96.1V7.019h1.146V4.786Zm6.923,11.38a4.617,4.617,0,0,1-3.345-1.233,4.257,4.257,0,0,1-1.278-3.208v-.232a5.516,5.516,0,0,1,.51-2.432,3.735,3.735,0,0,1,1.49-1.631,4.5,4.5,0,0,1,2.324-.577,3.888,3.888,0,0,1,2.988,1.175,4.616,4.616,0,0,1,1.1,3.275v1.087h-5.562a2.016,2.016,0,0,0,.656,1.187,1.951,1.951,0,0,0,1.312.432,2.514,2.514,0,0,0,2.075-.93l1.278,1.511a3.573,3.573,0,0,1-1.482,1.15A5.007,5.007,0,0,1,106.964,16.166Zm-.315-7.155q-1.229,0-1.461,1.627h2.822v-.216a1.386,1.386,0,0,0-.34-1.042A1.354,1.354,0,0,0,106.648,9.011Zm10.658.54-.921-.066a1.655,1.655,0,0,0-1.693.83V16h-2.8V7.019h2.623l.091,1.154a2.166,2.166,0,0,1,1.967-1.32,2.728,2.728,0,0,1,.78.1Zm3.578-2.532.091,1.054a3.046,3.046,0,0,1,2.565-1.22,2.562,2.562,0,0,1,2.1.838,3.991,3.991,0,0,1,.718,2.523V16h-2.806V10.331a1.516,1.516,0,0,0-.274-1,1.267,1.267,0,0,0-1-.32,1.334,1.334,0,0,0-1.22.647V16h-2.8V7.019Zm6.666,4.408a5.3,5.3,0,0,1,.523-2.395,3.74,3.74,0,0,1,1.5-1.615,4.525,4.525,0,0,1,2.3-.564A4.13,4.13,0,0,1,135.054,8.1a4.794,4.794,0,0,1,1.162,3.4v.1a4.651,4.651,0,0,1-1.166,3.333,4.141,4.141,0,0,1-3.158,1.233,4.188,4.188,0,0,1-3.08-1.15,4.5,4.5,0,0,1-1.253-3.117Zm2.8.174a3.342,3.342,0,0,0,.39,1.826,1.3,1.3,0,0,0,1.154.581q1.494,0,1.527-2.3v-.282q0-2.416-1.544-2.416-1.4,0-1.519,2.083Z" transform="translate(1004 25763.453)" fill="#12263f"/>
    <path id="Path_614461" data-name="Path 614461" d="M0,0H41V41H0Z" transform="translate(1153 25755.826)" fill="#bbffc5"/>
    <path id="Path_614462" data-name="Path 614462" d="M.913,16V3.914H4.806a5.727,5.727,0,0,1,2.88.726,5.105,5.105,0,0,1,2,2.05,6.19,6.19,0,0,1,.726,2.968v.556a6.226,6.226,0,0,1-.7,2.976,5.127,5.127,0,0,1-1.976,2.059A5.6,5.6,0,0,1,4.889,16ZM3.827,6.164v7.6H4.839a2.267,2.267,0,0,0,1.926-.892,4.373,4.373,0,0,0,.672-2.652V9.691a4.337,4.337,0,0,0-.672-2.64,2.306,2.306,0,0,0-1.959-.888Zm12.293,10a4.617,4.617,0,0,1-3.345-1.233A4.257,4.257,0,0,1,11.5,11.725v-.232a5.516,5.516,0,0,1,.51-2.432A3.735,3.735,0,0,1,13.5,7.429a4.5,4.5,0,0,1,2.324-.577A3.888,3.888,0,0,1,18.81,8.027a4.616,4.616,0,0,1,1.1,3.275v1.087H14.344A2.016,2.016,0,0,0,15,13.576a1.951,1.951,0,0,0,1.312.432,2.514,2.514,0,0,0,2.075-.93l1.278,1.511a3.573,3.573,0,0,1-1.482,1.15A5.007,5.007,0,0,1,16.12,16.166ZM15.8,9.011q-1.229,0-1.461,1.627h2.822v-.216a1.386,1.386,0,0,0-.34-1.042A1.354,1.354,0,0,0,15.8,9.011Zm9.106,2.416a5.3,5.3,0,0,1,.523-2.395,3.74,3.74,0,0,1,1.5-1.615,4.525,4.525,0,0,1,2.3-.564A4.13,4.13,0,0,1,32.415,8.1a4.794,4.794,0,0,1,1.162,3.4v.1a4.651,4.651,0,0,1-1.166,3.333,4.141,4.141,0,0,1-3.158,1.233,4.188,4.188,0,0,1-3.08-1.15A4.5,4.5,0,0,1,24.919,11.9Zm2.8.174a3.342,3.342,0,0,0,.39,1.826,1.3,1.3,0,0,0,1.154.581q1.494,0,1.527-2.3v-.282q0-2.416-1.544-2.416-1.4,0-1.519,2.083ZM40.242,9.55l-.921-.066a1.655,1.655,0,0,0-1.693.83V16h-2.8V7.019h2.623l.091,1.154a2.166,2.166,0,0,1,1.967-1.32,2.728,2.728,0,0,1,.78.1ZM44.2,16H41.4V7.019H44.2ZM41.23,4.7a1.249,1.249,0,0,1,.432-.979,1.835,1.835,0,0,1,2.241,0,1.249,1.249,0,0,1,.432.979,1.249,1.249,0,0,1-.432.979,1.835,1.835,0,0,1-2.241,0A1.249,1.249,0,0,1,41.23,4.7Zm4.366,6.74a6.064,6.064,0,0,1,.448-2.407,3.609,3.609,0,0,1,1.287-1.615,3.392,3.392,0,0,1,1.951-.569,2.7,2.7,0,0,1,2.191.946l.1-.78h2.54V15.66a3.787,3.787,0,0,1-.552,2.063,3.542,3.542,0,0,1-1.6,1.345,5.873,5.873,0,0,1-2.424.469,5.067,5.067,0,0,1-1.913-.374,3.454,3.454,0,0,1-1.415-.971l1.17-1.644a2.565,2.565,0,0,0,2.059.921A1.666,1.666,0,0,0,51.3,15.56v-.282a2.627,2.627,0,0,1-2.034.888,3.246,3.246,0,0,1-2.656-1.258A5.21,5.21,0,0,1,45.6,11.542Zm2.806.174a3.2,3.2,0,0,0,.415,1.747,1.309,1.309,0,0,0,1.162.643A1.486,1.486,0,0,0,51.3,13.4V9.625A1.449,1.449,0,0,0,50,9.011a1.318,1.318,0,0,0-1.17.668A3.644,3.644,0,0,0,48.4,11.617Zm11.646,4.549A4.617,4.617,0,0,1,56.7,14.933a4.257,4.257,0,0,1-1.278-3.208v-.232a5.516,5.516,0,0,1,.51-2.432,3.735,3.735,0,0,1,1.49-1.631,4.5,4.5,0,0,1,2.324-.577,3.888,3.888,0,0,1,2.988,1.175,4.616,4.616,0,0,1,1.1,3.275v1.087H58.271a2.016,2.016,0,0,0,.656,1.187,1.951,1.951,0,0,0,1.312.432,2.514,2.514,0,0,0,2.075-.93l1.278,1.511a3.573,3.573,0,0,1-1.482,1.15A5.007,5.007,0,0,1,60.048,16.166Zm-.315-7.155q-1.229,0-1.461,1.627h2.822v-.216a1.386,1.386,0,0,0-.34-1.042A1.354,1.354,0,0,0,59.732,9.011Zm7.794-1.992.091,1.054a3.046,3.046,0,0,1,2.565-1.22,2.562,2.562,0,0,1,2.1.838A3.991,3.991,0,0,1,73,10.214V16H70.191V10.331a1.516,1.516,0,0,0-.274-1,1.267,1.267,0,0,0-1-.32,1.334,1.334,0,0,0-1.22.647V16H64.9V7.019ZM81.729,16H78.924V7.019h2.806ZM78.758,4.7a1.249,1.249,0,0,1,.432-.979,1.835,1.835,0,0,1,2.241,0,1.249,1.249,0,0,1,.432.979,1.249,1.249,0,0,1-.432.979,1.835,1.835,0,0,1-2.241,0A1.249,1.249,0,0,1,78.758,4.7Zm7.263,2.316.091,1.054a3.046,3.046,0,0,1,2.565-1.22,2.562,2.562,0,0,1,2.1.838,3.991,3.991,0,0,1,.718,2.523V16H88.686V10.331a1.516,1.516,0,0,0-.274-1,1.267,1.267,0,0,0-1-.32,1.334,1.334,0,0,0-1.22.647V16H83.4V7.019ZM96.3,4.786V7.019h1.478V8.961H96.3V13.07a1.049,1.049,0,0,0,.183.706.98.98,0,0,0,.722.2,4.1,4.1,0,0,0,.7-.05v2a5.163,5.163,0,0,1-1.577.241,2.93,2.93,0,0,1-2.133-.681,2.79,2.79,0,0,1-.689-2.067V8.961H92.354V7.019H93.5V4.786Zm6.923,11.38a4.617,4.617,0,0,1-3.345-1.233A4.257,4.257,0,0,1,98.6,11.725v-.232a5.516,5.516,0,0,1,.51-2.432,3.735,3.735,0,0,1,1.49-1.631,4.5,4.5,0,0,1,2.324-.577,3.888,3.888,0,0,1,2.988,1.175,4.616,4.616,0,0,1,1.1,3.275v1.087h-5.562a2.016,2.016,0,0,0,.656,1.187,1.951,1.951,0,0,0,1.312.432,2.514,2.514,0,0,0,2.075-.93l1.278,1.511a3.573,3.573,0,0,1-1.482,1.15A5.007,5.007,0,0,1,103.22,16.166ZM102.9,9.011q-1.229,0-1.461,1.627h2.822v-.216a1.386,1.386,0,0,0-.34-1.042A1.354,1.354,0,0,0,102.9,9.011Zm10.658.54-.921-.066a1.655,1.655,0,0,0-1.693.83V16h-2.8V7.019h2.623l.091,1.154a2.166,2.166,0,0,1,1.967-1.32,2.728,2.728,0,0,1,.78.1Zm3.578-2.532.091,1.054a3.046,3.046,0,0,1,2.565-1.22,2.562,2.562,0,0,1,2.1.838,3.991,3.991,0,0,1,.718,2.523V16h-2.806V10.331a1.516,1.516,0,0,0-.274-1,1.267,1.267,0,0,0-1-.32,1.334,1.334,0,0,0-1.22.647V16h-2.8V7.019Zm6.666,4.408a5.3,5.3,0,0,1,.523-2.395,3.74,3.74,0,0,1,1.5-1.615,4.525,4.525,0,0,1,2.3-.564A4.13,4.13,0,0,1,131.31,8.1a4.794,4.794,0,0,1,1.162,3.4v.1a4.651,4.651,0,0,1-1.166,3.333,4.141,4.141,0,0,1-3.158,1.233,4.188,4.188,0,0,1-3.08-1.15,4.5,4.5,0,0,1-1.253-3.117Zm2.8.174a3.342,3.342,0,0,0,.39,1.826,1.3,1.3,0,0,0,1.154.581q1.494,0,1.527-2.3v-.282q0-2.416-1.544-2.416-1.4,0-1.519,2.083Z" transform="translate(460.218 26056.109)" fill="#12263f"/>
    <path id="Path_614463" data-name="Path 614463" d="M0,0H41V41H0Z" transform="translate(407 26045.826)" fill="#bff7ff"/>
  </g>
</svg>
