<svg xmlns="http://www.w3.org/2000/svg" width="114.881" height="114.879" viewBox="0 0 114.881 114.879">
  <g id="Grupo_1075178" data-name="Grupo 1075178" transform="translate(-323 -33773)">
    <g id="Grupo_1074323" data-name="Grupo 1074323" transform="translate(323 33773)">
      <path id="Trazado_608385" data-name="Trazado 608385" d="M57.44,0A57.44,57.44,0,1,1,0,57.44,57.44,57.44,0,0,1,57.44,0Z" transform="translate(0 0)" fill="#e1efe3"/>
    </g>
    <path id="beneficios-para-empleados" d="M60.3,76.494a10.922,10.922,0,0,0-10.635-11.28l-4.431-3.944a5.551,5.551,0,0,0-5.929-.938,1.128,1.128,0,0,1-.188-.564l-.508-8.723a5.627,5.627,0,0,0-5.717-5.306,5.555,5.555,0,0,0-5.378,5.875l.859,14.78a5.854,5.854,0,0,0,1.967,4.064L43.429,82.109a.151.151,0,0,1,.051.127c0,.042,0,.082-.006.124l-.07,7.055a6.328,6.328,0,0,0,6.328,6.393h4.98a6.329,6.329,0,0,0,6.319-6.7L60.3,76.5ZM56.608,91.263a2.582,2.582,0,0,1-1.9.818h-4.98a2.606,2.606,0,0,1-2.606-2.633l.07-7a3.9,3.9,0,0,0-1.293-3.12L32.815,67.675a2.156,2.156,0,0,1-.725-1.5L31.231,51.4a1.833,1.833,0,0,1,1.775-1.938,1.887,1.887,0,0,1,1.887,1.8l.508,8.723A4.833,4.833,0,0,0,36.59,62.9a5.558,5.558,0,0,0,1.257,6.673l8.58,7.637A1.862,1.862,0,0,0,48.9,74.424l-8.58-7.637a1.831,1.831,0,0,1-.15-2.585c.022-.025.042-.052.063-.077s.058-.045.085-.07a1.828,1.828,0,0,1,2.439,0l4.967,4.422a1.861,1.861,0,0,0,1.324.469,7.2,7.2,0,0,1,7.528,7.5c0,.061,0,.124,0,.185l.736,12.7a2.581,2.581,0,0,1-.706,1.939Zm37.5-43.722a5.516,5.516,0,0,0-3.93-1.8l-.165,0a5.638,5.638,0,0,0-5.552,5.309l-.508,8.723a1.133,1.133,0,0,1-.188.564,5.551,5.551,0,0,0-5.929.938L73.4,65.214a10.924,10.924,0,0,0-10.636,11.28l-.731,12.614a6.329,6.329,0,0,0,6.319,6.7h4.98a6.328,6.328,0,0,0,6.328-6.393l-.07-7.055a1.144,1.144,0,0,0-.006-.124.157.157,0,0,1,.051-.127L92.726,70.455a5.857,5.857,0,0,0,1.967-4.064l.859-14.78A5.512,5.512,0,0,0,94.1,47.538ZM91.837,51.4l-.859,14.78a2.168,2.168,0,0,1-.725,1.5L77.164,79.327a3.9,3.9,0,0,0-1.293,3.12l.07,7a2.606,2.606,0,0,1-2.606,2.633h-4.98a2.606,2.606,0,0,1-2.6-2.757l.736-12.7a1.529,1.529,0,0,0,0-.185,7.2,7.2,0,0,1,7.186-7.5c.113,0,.226,0,.34.007a1.863,1.863,0,0,0,1.324-.469l4.967-4.422a1.826,1.826,0,0,1,2.438,0c.028.025.057.046.085.07s.04.052.063.077a1.831,1.831,0,0,1-.15,2.585l-8.58,7.637a1.862,1.862,0,0,0,2.475,2.782l8.58-7.637A5.558,5.558,0,0,0,86.472,62.9a4.833,4.833,0,0,0,1.19-2.913l.508-8.723a1.881,1.881,0,0,1,1.887-1.8A1.833,1.833,0,0,1,91.832,51.4Zm-48.145.244h5.939c0,.022,0,.045,0,.067v2.366a6,6,0,0,0,5.99,5.99H67.45a6,6,0,0,0,5.99-5.99V51.641h5.938a4.564,4.564,0,0,0,4.559-4.559V45.455a8.366,8.366,0,0,0-2.489-5.979,8.546,8.546,0,0,0-1.317-1.069,5.725,5.725,0,1,0-9.225.016,8.563,8.563,0,0,0-2.861,3.189c-.308-.2-.625-.392-.95-.563a7.774,7.774,0,1,0-11.106.019q-.478.257-.931.554a8.4,8.4,0,0,0-1.573-2.149A8.535,8.535,0,0,0,52.171,38.4a5.724,5.724,0,1,0-9.225.018,8.536,8.536,0,0,0-3.817,7.113V47.08a4.564,4.564,0,0,0,4.559,4.559Zm36.522-4.559a.835.835,0,0,1-.835.835H72.865a11.783,11.783,0,0,0-1.9-3.6,4.732,4.732,0,0,1,4.51-3.567h.048a4.7,4.7,0,0,1,4.688,4.7v1.628Zm-4.7-14.054a2,2,0,0,1,.009,4h-.016a2,2,0,0,1,.009-4ZM61.534,31.575a4.051,4.051,0,1,1-4.051,4.051A4.055,4.055,0,0,1,61.534,31.575ZM61.472,43.4h.063a8.184,8.184,0,0,1,8.182,8.182v2.493a2.27,2.27,0,0,1-2.267,2.267H55.619a2.27,2.27,0,0,1-2.267-2.267V51.708A8.269,8.269,0,0,1,61.472,43.4ZM47.556,33.028a2,2,0,0,1,.009,4h-.016a2,2,0,0,1,.009-4Zm-4.7,12.508a4.753,4.753,0,0,1,4.664-4.782h.048a4.7,4.7,0,0,1,4.559,3.6A12.069,12.069,0,0,0,50.24,47.92H43.69a.835.835,0,0,1-.835-.835V45.538Z" transform="translate(318.996 33769.57)" fill="#03386e" stroke="#e1efe3" stroke-width="1"/>
  </g>
</svg>
