<svg xmlns="http://www.w3.org/2000/svg" width="114.88" height="114.879" viewBox="0 0 114.88 114.879">
  <g id="Grupo_1075180" data-name="Grupo 1075180" transform="translate(-743 -33772.828)">
    <g id="Grupo_1074325" data-name="Grupo 1074325" transform="translate(743 33772.828)">
      <path id="Trazado_608385" data-name="Trazado 608385" d="M57.44,0A57.44,57.44,0,1,1,0,57.44,57.44,57.44,0,0,1,57.44,0Z" fill="#e1efe3"/>
    </g>
    <path id="customer-review" d="M87.477,53.709h0a11.53,11.53,0,0,0,2.63-7.55,7.719,7.719,0,0,0-15.437,0,12.545,12.545,0,0,0,1.722,6.323,8.9,8.9,0,0,0,.906,1.227h-.005a8.512,8.512,0,0,0-5,1.613,12.2,12.2,0,0,0-1.983-.165h-1.3a11.637,11.637,0,0,0,2.073-2.468A17.317,17.317,0,0,0,73.6,43.613a10.727,10.727,0,1,0-21.453,0,17.742,17.742,0,0,0,2.433,8.942,11.625,11.625,0,0,0,2.148,2.6H55.439a12.2,12.2,0,0,0-1.983.165,8.513,8.513,0,0,0-5-1.613h-.005a8.9,8.9,0,0,0,.906-1.227,12.545,12.545,0,0,0,1.722-6.323,7.717,7.717,0,0,0-15.433,0,11.538,11.538,0,0,0,2.629,7.55h-.007a7.96,7.96,0,0,0-8.19,7.688v8.913a1.161,1.161,0,0,0,1.161,1.161H44.023v7.369A1.161,1.161,0,0,0,45.185,80H80.557a1.161,1.161,0,0,0,1.161-1.161V71.472H94.51a1.161,1.161,0,0,0,1.161-1.161V61.4a7.962,7.962,0,0,0-8.194-7.688Zm-10.488-7.55a5.4,5.4,0,0,1,10.792,0c0,2.919-1.466,7.55-5.4,7.55S76.989,49.078,76.989,46.159ZM62.87,35.206a8.416,8.416,0,0,1,8.406,8.406c0,.061,0,.121,0,.182a17.36,17.36,0,0,1-9.8-4.046,1.161,1.161,0,0,0-1.318-.079L54.485,43.1A8.413,8.413,0,0,1,62.87,35.206Zm-6.315,16.13a14.86,14.86,0,0,1-1.935-5.6l6.059-3.668a19.38,19.38,0,0,0,10.388,4.043,14.469,14.469,0,0,1-1.947,5.334,7.339,7.339,0,0,1-6.25,3.716A7.176,7.176,0,0,1,56.555,51.336ZM37.962,46.159a5.394,5.394,0,1,1,10.788,0c0,2.919-1.464,7.55-5.394,7.55S37.962,49.078,37.962,46.159Zm-5.568,22.99V61.4a5.639,5.639,0,0,1,5.867-5.365H48.451a6.31,6.31,0,0,1,1.847.276,10.644,10.644,0,0,0-6.275,9.534v3.308Zm47,8.53H73.508V70.52a1.161,1.161,0,0,0-2.323,0v7.159H54.558V70.52a1.161,1.161,0,1,0-2.323,0v7.159H46.345V65.841c0-4.61,4.079-8.361,9.093-8.361H70.3c5.014,0,9.093,3.751,9.093,8.361Zm13.954-8.53H81.717V65.841a10.645,10.645,0,0,0-6.274-9.534,6.309,6.309,0,0,1,1.846-.276H87.477A5.642,5.642,0,0,1,93.349,61.4ZM56.417,21.828l-.906,6.286a1.161,1.161,0,0,0,1.662,1.207l5.7-2.8,5.7,2.805a1.161,1.161,0,0,0,1.662-1.208l-.906-6.286,4.429-4.553a1.161,1.161,0,0,0-.634-1.954l-6.26-1.084L63.9,8.62a1.161,1.161,0,0,0-2.054,0l-2.96,5.618-6.26,1.084a1.161,1.161,0,0,0-.634,1.954Zm3.425-5.4a1.161,1.161,0,0,0,.829-.6l2.2-4.174,2.2,4.175a1.161,1.161,0,0,0,.829.6l4.653.805-3.291,3.384a1.161,1.161,0,0,0-.317.976l.673,4.671L63.382,24.18a1.161,1.161,0,0,0-1.026,0l-4.233,2.084.673-4.671a1.161,1.161,0,0,0-.317-.975l-3.292-3.384ZM34.863,23.787l-.622,4.328A1.161,1.161,0,0,0,35.9,29.321l3.923-1.932,3.919,1.932a1.161,1.161,0,0,0,1.663-1.207l-.622-4.327,3.05-3.134A1.161,1.161,0,0,0,47.2,18.7l-4.309-.746-2.038-3.865a1.161,1.161,0,0,0-2.054,0l-2.042,3.866-4.306.746a1.161,1.161,0,0,0-.635,1.954Zm2.853-3.642a1.161,1.161,0,0,0,.829-.6l1.281-2.424L41.1,19.543a1.161,1.161,0,0,0,.829.6l2.7.468-1.912,1.965a1.161,1.161,0,0,0-.317.975l.39,2.711-2.455-1.21a1.161,1.161,0,0,0-1.027,0l-2.46,1.212.39-2.712a1.161,1.161,0,0,0-.317-.975l-1.91-1.966Zm43.239,3.642-.622,4.328A1.161,1.161,0,0,0,82,29.321l3.923-1.932,3.923,1.932A1.161,1.161,0,0,0,91.5,28.113l-.626-4.326,3.049-3.133a1.161,1.161,0,0,0-.634-1.954l-4.31-.746-2.039-3.866a1.161,1.161,0,0,0-2.054,0l-2.042,3.866-4.306.746a1.161,1.161,0,0,0-.635,1.954Zm2.853-3.642a1.161,1.161,0,0,0,.829-.6l1.281-2.424,1.277,2.424a1.161,1.161,0,0,0,.829.6l2.7.468-1.912,1.965a1.161,1.161,0,0,0-.317.976l.392,2.71L86.43,25.053a1.163,1.163,0,0,0-1.026,0l-2.46,1.212.39-2.712a1.161,1.161,0,0,0-.317-.975l-1.91-1.966Z" transform="translate(737.927 33785.828)" fill="#03386e" stroke="#03386e" stroke-width="0.5"/>
  </g>
</svg>
