<svg xmlns="http://www.w3.org/2000/svg" width="114.88" height="114.879" viewBox="0 0 114.88 114.879">
  <g id="Grupo_1075179" data-name="Grupo 1075179" transform="translate(-533 -33772.555)">
    <g id="Grupo_1074324" data-name="Grupo 1074324" transform="translate(533 33772.555)">
      <path id="Trazado_608385" data-name="Trazado 608385" d="M57.44,0A57.44,57.44,0,1,1,0,57.44,57.44,57.44,0,0,1,57.44,0Z" transform="translate(0 0)" fill="#e1efe3"/>
    </g>
    <g id="contabilidad_1_" data-name="contabilidad (1)" transform="translate(554.001 33793.379)">
      <path id="Trazado_612535" data-name="Trazado 612535" d="M116,288a12,12,0,1,0,12,12A12,12,0,0,0,116,288Zm0,21.6a9.6,9.6,0,1,1,9.6-9.6A9.6,9.6,0,0,1,116,309.6Zm0,0" transform="translate(-88.4 -244.801)" fill="#03386e"/>
      <path id="Trazado_612536" data-name="Trazado 612536" d="M156.8,323.6c1.465,0,2.4.71,2.4,1.2h2.4c0-1.705-1.511-3.086-3.6-3.48V320h-2.4v1.32c-2.089.391-3.6,1.772-3.6,3.48,0,2.02,2.108,3.6,4.8,3.6,1.465,0,2.4.71,2.4,1.2s-.935,1.2-2.4,1.2-2.4-.71-2.4-1.2H152c0,1.705,1.511,3.086,3.6,3.48v1.32H158v-1.32c2.089-.391,3.6-1.772,3.6-3.48,0-2.02-2.108-3.6-4.8-3.6-1.465,0-2.4-.71-2.4-1.2S155.335,323.6,156.8,323.6Zm0,0" transform="translate(-129.2 -272.001)" fill="#03386e"/>
      <path id="Trazado_612537" data-name="Trazado 612537" d="M61.2,69.6H10.8V40.8H30a3.6,3.6,0,0,0,3.6-3.6V7.2H46.8V21.6H61.2V38.4h2.4V19.9L48.5,4.8H33.6V3.6A3.6,3.6,0,0,0,30,0H3.6A3.6,3.6,0,0,0,0,3.6V37.2a3.6,3.6,0,0,0,3.6,3.6H8.4V72H63.6V55.2H61.2ZM49.2,8.9,59.5,19.2H49.2ZM2.4,37.2V3.6A1.2,1.2,0,0,1,3.6,2.4H30a1.2,1.2,0,0,1,1.2,1.2V37.2A1.2,1.2,0,0,1,30,38.4H3.6A1.2,1.2,0,0,1,2.4,37.2Zm0,0" fill="#03386e"/>
      <path id="Trazado_612538" data-name="Trazado 612538" d="M256,200h2.4v2.4H256Zm0,0" transform="translate(-217.6 -170.001)" fill="#03386e"/>
      <path id="Trazado_612539" data-name="Trazado 612539" d="M288,200h14.4v2.4H288Zm0,0" transform="translate(-244.8 -170.001)" fill="#03386e"/>
      <path id="Trazado_612540" data-name="Trazado 612540" d="M256,168h2.4v2.4H256Zm0,0" transform="translate(-217.6 -142.801)" fill="#03386e"/>
      <path id="Trazado_612541" data-name="Trazado 612541" d="M288,168h14.4v2.4H288Zm0,0" transform="translate(-244.8 -142.801)" fill="#03386e"/>
      <path id="Trazado_612542" data-name="Trazado 612542" d="M256,232h2.4v2.4H256Zm0,0" transform="translate(-217.6 -197.201)" fill="#03386e"/>
      <path id="Trazado_612543" data-name="Trazado 612543" d="M288,232h14.4v2.4H288Zm0,0" transform="translate(-244.8 -197.201)" fill="#03386e"/>
      <path id="Trazado_612544" data-name="Trazado 612544" d="M256,264h2.4v2.4H256Zm0,0" transform="translate(-217.6 -224.401)" fill="#03386e"/>
      <path id="Trazado_612545" data-name="Trazado 612545" d="M288,264h14.4v2.4H288Zm0,0" transform="translate(-244.8 -224.401)" fill="#03386e"/>
      <path id="Trazado_612546" data-name="Trazado 612546" d="M50.4,24H24v8.4H50.4ZM48,30H26.4V26.4H48Zm0,0" transform="translate(-20.4 -20.401)" fill="#03386e"/>
      <path id="Trazado_612547" data-name="Trazado 612547" d="M36.8,88H34.4A2.4,2.4,0,0,0,32,90.4v2.4a2.4,2.4,0,0,0,2.4,2.4h2.4a2.4,2.4,0,0,0,2.4-2.4V90.4A2.4,2.4,0,0,0,36.8,88Zm-2.4,4.8V90.4h2.4v2.4Zm0,0" transform="translate(-27.2 -74.801)" fill="#03386e"/>
      <path id="Trazado_612548" data-name="Trazado 612548" d="M92.8,88H90.4A2.4,2.4,0,0,0,88,90.4v2.4a2.4,2.4,0,0,0,2.4,2.4h2.4a2.4,2.4,0,0,0,2.4-2.4V90.4A2.4,2.4,0,0,0,92.8,88Zm-2.4,4.8V90.4h2.4v2.4Zm0,0" transform="translate(-74.8 -74.801)" fill="#03386e"/>
      <path id="Trazado_612549" data-name="Trazado 612549" d="M148.8,88h-2.4a2.4,2.4,0,0,0-2.4,2.4v2.4a2.4,2.4,0,0,0,2.4,2.4h2.4a2.4,2.4,0,0,0,2.4-2.4V90.4A2.4,2.4,0,0,0,148.8,88Zm-2.4,4.8V90.4h2.4v2.4Zm0,0" transform="translate(-122.4 -74.801)" fill="#03386e"/>
      <path id="Trazado_612550" data-name="Trazado 612550" d="M36.8,144H34.4a2.4,2.4,0,0,0-2.4,2.4v2.4a2.4,2.4,0,0,0,2.4,2.4h2.4a2.4,2.4,0,0,0,2.4-2.4v-2.4A2.4,2.4,0,0,0,36.8,144Zm-2.4,4.8v-2.4h2.4v2.4Zm0,0" transform="translate(-27.2 -122.401)" fill="#03386e"/>
      <path id="Trazado_612551" data-name="Trazado 612551" d="M92.8,144H90.4a2.4,2.4,0,0,0-2.4,2.4v2.4a2.4,2.4,0,0,0,2.4,2.4h2.4a2.4,2.4,0,0,0,2.4-2.4v-2.4A2.4,2.4,0,0,0,92.8,144Zm-2.4,4.8v-2.4h2.4v2.4Zm0,0" transform="translate(-74.8 -122.401)" fill="#03386e"/>
      <path id="Trazado_612552" data-name="Trazado 612552" d="M148.8,144h-2.4a2.4,2.4,0,0,0-2.4,2.4v2.4a2.4,2.4,0,0,0,2.4,2.4h2.4a2.4,2.4,0,0,0,2.4-2.4v-2.4A2.4,2.4,0,0,0,148.8,144Zm-2.4,4.8v-2.4h2.4v2.4Zm0,0" transform="translate(-122.4 -122.401)" fill="#03386e"/>
      <path id="Trazado_612553" data-name="Trazado 612553" d="M36.8,200H34.4a2.4,2.4,0,0,0-2.4,2.4v2.4a2.4,2.4,0,0,0,2.4,2.4h2.4a2.4,2.4,0,0,0,2.4-2.4v-2.4A2.4,2.4,0,0,0,36.8,200Zm-2.4,4.8v-2.4h2.4v2.4Zm0,0" transform="translate(-27.2 -170.001)" fill="#03386e"/>
      <path id="Trazado_612554" data-name="Trazado 612554" d="M92.8,200H90.4a2.4,2.4,0,0,0-2.4,2.4v2.4a2.4,2.4,0,0,0,2.4,2.4h2.4a2.4,2.4,0,0,0,2.4-2.4v-2.4A2.4,2.4,0,0,0,92.8,200Zm-2.4,4.8v-2.4h2.4v2.4Zm0,0" transform="translate(-74.8 -170.001)" fill="#03386e"/>
      <path id="Trazado_612555" data-name="Trazado 612555" d="M148.8,200h-2.4a2.4,2.4,0,0,0-2.4,2.4v2.4a2.4,2.4,0,0,0,2.4,2.4h2.4a2.4,2.4,0,0,0,2.4-2.4v-2.4A2.4,2.4,0,0,0,148.8,200Zm-2.4,4.8v-2.4h2.4v2.4Zm0,0" transform="translate(-122.4 -170.001)" fill="#03386e"/>
      <path id="Trazado_612556" data-name="Trazado 612556" d="M308.921,249.486a3.685,3.685,0,0,0-5.09,0l-20.572,20.571a1.214,1.214,0,0,0-.24.347l-2.9,6.291a1.2,1.2,0,0,0,1.591,1.591l6.291-2.9a1.2,1.2,0,0,0,.347-.24l20.57-20.572a3.6,3.6,0,0,0,0-5.091ZM286.8,273.3l-3.144,1.448,1.448-3.144,15.338-15.339,1.7,1.7Zm17.04-17.04-1.7-1.7.84-.84,1.7,1.7Zm3.384-3.384-.848.848-1.7-1.7.85-.848a1.227,1.227,0,0,1,1.7,0A1.2,1.2,0,0,1,307.228,252.875Zm0,0" transform="translate(-238.011 -211.197)" fill="#03386e"/>
    </g>
  </g>
</svg>
