<svg xmlns="http://www.w3.org/2000/svg" width="114.88" height="114.879" viewBox="0 0 114.88 114.879">
  <g id="Grupo_1075181" data-name="Grupo 1075181" transform="translate(-953 -33772.828)">
    <g id="Grupo_1074326" data-name="Grupo 1074326" transform="translate(953 33772.828)">
      <path id="Trazado_608385" data-name="Trazado 608385" d="M57.44,0A57.44,57.44,0,1,1,0,57.44,57.44,57.44,0,0,1,57.44,0Z" fill="#e1efe3"/>
    </g>
    <g id="apoyo" transform="translate(952 33794.828)">
      <g id="Grupo_1074436" data-name="Grupo 1074436" transform="translate(72.406 55.687)">
        <g id="Grupo_1074435" data-name="Grupo 1074435" transform="translate(0)">
          <path id="Trazado_612557" data-name="Trazado 612557" d="M357.406,396a1.406,1.406,0,1,0,1.406,1.406A1.407,1.407,0,0,0,357.406,396Z" transform="translate(-356 -396)" fill="#03386e"/>
        </g>
      </g>
      <g id="Grupo_1074438" data-name="Grupo 1074438" transform="translate(26)">
        <g id="Grupo_1074437" data-name="Grupo 1074437" transform="translate(0)">
          <path id="Trazado_612558" data-name="Trazado 612558" d="M77.275,51.14l-6.684-2.227-2.4-4.8a15.4,15.4,0,0,0,4.169-8.148l.3-1.794h2.559a4.224,4.224,0,0,0,4.219-4.219V21.094a21.094,21.094,0,0,0-42.187,0v8.859a4.226,4.226,0,0,0,2.812,3.977v1.648A4.224,4.224,0,0,0,44.281,39.8h1.235a15.256,15.256,0,0,0,2.359,3.653c.2.229.407.451.62.667l-2.4,4.8L39.412,51.14C31.641,53.732,26,61.913,26,70.594A1.406,1.406,0,0,0,27.406,72H89.281a1.406,1.406,0,0,0,1.406-1.406C90.687,61.913,85.047,53.732,77.275,51.14Zm-.65-21.187a1.408,1.408,0,0,1-1.406,1.406H73.072c.357-2.769.6-5.715.691-8.617,0-.082.005-.161.008-.242h2.853ZM41.469,31.359a1.408,1.408,0,0,1-1.406-1.406V22.5h2.854q.007.22.015.442c0,.005,0,.01,0,.015h0c.1,2.823.334,5.693.683,8.4H41.469Zm2.813,5.625a1.408,1.408,0,0,1-1.406-1.406V34.172h1.153l.3,1.794c.057.341.127.681.208,1.018Zm-1.4-17.3H40.116a18.282,18.282,0,0,1,36.455,0H73.81A14.243,14.243,0,0,0,59.6,5.625H57.085A14.243,14.243,0,0,0,42.877,19.687ZM57.085,8.437H59.6A11.435,11.435,0,0,1,71,19.886c0,.443,0,.828-.011,1.178,0,0,0,.009,0,.014l-1.759-.251a22.6,22.6,0,0,1-12.7-6.352,1.407,1.407,0,0,0-.994-.412A12.722,12.722,0,0,0,45.75,18.69,11.431,11.431,0,0,1,57.085,8.437ZM47.451,36.984c-.7-2.342-1.509-9.232-1.687-13.648l1.893-2.524a9.9,9.9,0,0,1,7.319-3.922,25.436,25.436,0,0,0,13.857,6.72l2.07.3c-.138,2.937-.421,5.884-.826,8.595v0c-.129.871-.23,1.432-.49,3a11.945,11.945,0,0,1-8.478,9.607A11.064,11.064,0,0,1,48.688,39.8h2.867a4.225,4.225,0,0,0,3.977,2.812h2.812a4.219,4.219,0,1,0,0-8.437H55.531a4.221,4.221,0,0,0-3.979,2.813Zm7.962,10.971a14.1,14.1,0,0,0,5.23.118L58.159,50.7Zm.812,4.79-4.46,4.717a53.58,53.58,0,0,1-3.148-7.3l1.675-3.35Zm9.932-6.41,1.913,3.826a53.564,53.564,0,0,1-3.149,7.3L60.148,52.69ZM54.125,38.391a1.406,1.406,0,0,1,1.406-1.406h2.812a1.406,1.406,0,1,1,0,2.812H55.531A1.408,1.408,0,0,1,54.125,38.391Zm-25.256,30.8c.557-6.966,5.194-13.3,11.433-15.379l5.919-1.973a56.372,56.372,0,0,0,4,8.682l.008.014h0a56.387,56.387,0,0,0,3.849,5.878l1.73,2.777Zm29.475-1.254-1.907-3.062q-.032-.051-.068-.1A53.617,53.617,0,0,1,53.2,60.038l5.015-5.3L63.5,60.019a53.559,53.559,0,0,1-3.18,4.753C60.251,64.864,60.348,64.719,58.344,67.934Zm2.533,1.254,1.73-2.777a56.366,56.366,0,0,0,3.876-5.925l.021-.037,0,0a56.326,56.326,0,0,0,3.961-8.608l5.919,1.973c6.24,2.081,10.876,8.413,11.433,15.379H60.876Z" transform="translate(-26)" fill="#03386e"/>
        </g>
      </g>
      <g id="Grupo_1074440" data-name="Grupo 1074440" transform="translate(77.348 58.372)">
        <g id="Grupo_1074439" data-name="Grupo 1074439">
          <path id="Trazado_612559" data-name="Trazado 612559" d="M397.384,420.213a14.06,14.06,0,0,0-3.981-4.833,1.406,1.406,0,0,0-1.715,2.229,11.231,11.231,0,0,1,3.18,3.861,1.406,1.406,0,0,0,2.516-1.257Z" transform="translate(-391.139 -415.088)" fill="#03386e"/>
        </g>
      </g>
    </g>
  </g>
</svg>
