<svg xmlns="http://www.w3.org/2000/svg" width="167" height="167" viewBox="0 0 167 167">
  <g id="Grupo_1075186" data-name="Grupo 1075186" transform="translate(-716 -6968.826)">
    <g id="Grupo_1074465" data-name="Grupo 1074465" transform="translate(716.537 6969.363)">
      <circle id="Elipse_1142" data-name="Elipse 1142" cx="83.5" cy="83.5" r="83.5" transform="translate(-0.537 -0.537)" fill="#fff"/>
    </g>
    <g id="equipo" transform="translate(745.559 6998.826)">
      <g id="Grupo_1074866" data-name="Grupo 1074866" transform="translate(0.441 0)">
        <g id="Grupo_1074848" data-name="Grupo 1074848" transform="translate(0 0)">
          <g id="Grupo_1074846" data-name="Grupo 1074846">
            <g id="Grupo_1074845" data-name="Grupo 1074845">
              <g id="Grupo_1074830" data-name="Grupo 1074830" transform="translate(0 3.158)">
                <g id="Grupo_1074829" data-name="Grupo 1074829" transform="translate(0 25.456)">
                  <g id="Grupo_1074828" data-name="Grupo 1074828">
                    <g id="Grupo_1074827" data-name="Grupo 1074827">
                      <g id="Grupo_1074826" data-name="Grupo 1074826">
                        <g id="Grupo_1074825" data-name="Grupo 1074825">
                          <g id="Grupo_1074824" data-name="Grupo 1074824">
                            <g id="Grupo_1074823" data-name="Grupo 1074823">
                              <g id="Grupo_1074822" data-name="Grupo 1074822">
                                <g id="Grupo_1074821" data-name="Grupo 1074821">
                                  <g id="Grupo_1074820" data-name="Grupo 1074820">
                                    <g id="Grupo_1074819" data-name="Grupo 1074819">
                                      <g id="Grupo_1074818" data-name="Grupo 1074818">
                                        <g id="Grupo_1074817" data-name="Grupo 1074817">
                                          <path id="Trazado_613013" data-name="Trazado 613013" d="M95.057,159.327c3.754,0,9.728-10.019,8.569-10.243l-.848-.448a3.363,3.363,0,0,1-1.791-2.973v-8.169H89.127v8.169a3.363,3.363,0,0,1-1.791,2.973l-.848.448C85.328,149.308,91.3,159.327,95.057,159.327Z" transform="translate(-68.465 -137.495)" fill="#ffcbbe"/>
                                          <path id="Trazado_613014" data-name="Trazado 613014" d="M35.57,192.768l-1.528-.654a8.857,8.857,0,0,1-14.73-1.082c-.021.009-8.119,1.179-13.705,6.591A16.693,16.693,0,0,0,.441,210.08v20.683a5.185,5.185,0,0,0,5.185,5.185H9.507s.72-1.881,1.608-1.881,1.608,1.881,1.608,1.881H49.392v-21.94A23.1,23.1,0,0,0,35.57,192.768Z" transform="translate(-0.441 -179.89)" fill="#93d87b"/>
                                          <path id="Trazado_613015" data-name="Trazado 613015" d="M160.241,191.032a8.978,8.978,0,0,1-1.335,1.808q.229.095.462.2a23.1,23.1,0,0,1,13.822,21.239v21.672h5.922V210.08c0-16.309-18.871-19.048-18.871-19.048Z" transform="translate(-125.928 -179.89)" fill="#7fd061"/>
                                        </g>
                                      </g>
                                    </g>
                                  </g>
                                </g>
                              </g>
                            </g>
                          </g>
                        </g>
                      </g>
                    </g>
                  </g>
                </g>
                <path id="Trazado_613016" data-name="Trazado 613016" d="M75.986,44.99a11.085,11.085,0,0,0,3.659-8.159l-.031-19.385a14.613,14.613,0,0,0-8.391-2.271c-6.139.1-11.688,2.6-11.66,9.36l.009,2.268,0,.949h-.756A3.047,3.047,0,0,0,55.775,30.8l0,2.763a3.047,3.047,0,0,0,3.049,3.045h.782a11.083,11.083,0,0,0,3.727,8.128A12.211,12.211,0,0,0,70.7,47.788,12.43,12.43,0,0,0,75.986,44.99Z" transform="translate(-44.259 -15.175)" fill="#ffcbbe"/>
                <path id="Trazado_613017" data-name="Trazado 613017" d="M136.258,35.563a2.132,2.132,0,0,0-2.128-2.136l-.8,0-.013-3.217a8.16,8.16,0,0,0-4.6-7.741l.032,19.816a11.085,11.085,0,0,1-3.659,8.159,12.368,12.368,0,0,1-5.749,2.9,12.351,12.351,0,0,0,2.355.242,12.192,12.192,0,0,0,8-3.141,11.084,11.084,0,0,0,3.659-8.159l.8,0a2.132,2.132,0,0,0,2.11-2.154Z" transform="translate(-94.599 -20.954)" fill="#fdad9d"/>
              </g>
              <g id="Grupo_1074844" data-name="Grupo 1074844" transform="translate(53.184)">
                <g id="Grupo_1074843" data-name="Grupo 1074843" transform="translate(0 2.882)">
                  <g id="Grupo_1074842" data-name="Grupo 1074842">
                    <g id="Grupo_1074841" data-name="Grupo 1074841">
                      <g id="Grupo_1074840" data-name="Grupo 1074840">
                        <g id="Grupo_1074839" data-name="Grupo 1074839">
                          <g id="Grupo_1074838" data-name="Grupo 1074838">
                            <g id="Grupo_1074837" data-name="Grupo 1074837">
                              <g id="Grupo_1074836" data-name="Grupo 1074836">
                                <g id="Grupo_1074835" data-name="Grupo 1074835">
                                  <g id="Grupo_1074834" data-name="Grupo 1074834">
                                    <g id="Grupo_1074833" data-name="Grupo 1074833">
                                      <g id="Grupo_1074832" data-name="Grupo 1074832" transform="translate(0 25.732)">
                                        <g id="Grupo_1074831" data-name="Grupo 1074831">
                                          <path id="Trazado_613018" data-name="Trazado 613018" d="M350.615,159.327c3.754,0,9.728-10.019,8.569-10.243l-.848-.448a3.363,3.363,0,0,1-1.791-2.973v-8.169H344.685v8.169a3.363,3.363,0,0,1-1.791,2.973l-.848.448C340.887,149.308,346.861,159.327,350.615,159.327Z" transform="translate(-324.023 -137.495)" fill="#fcd0a3"/>
                                          <path id="Trazado_613019" data-name="Trazado 613019" d="M290.706,184.981s-.52-.2-1.135-.46a8.3,8.3,0,0,1-14.7-1.466C272.331,176.559,256,185.8,256,202.1v25.868h42.09s.72-1.881,1.608-1.881,1.608,1.881,1.608,1.881h.374l1.447-1.672V202.1C303.128,192.2,296.172,187.3,290.706,184.981Z" transform="translate(-256.001 -171.915)" fill="#7aabdc"/>
                                          <path id="Trazado_613020" data-name="Trazado 613020" d="M416.866,191.032a8.532,8.532,0,0,1-1.055,1.925c5.466,2.321,12.422,7.22,12.048,17.122v25.868h2.693a5.185,5.185,0,0,0,5.185-5.185V210.08C435.737,193.771,416.866,191.032,416.866,191.032Z" transform="translate(-382.553 -179.89)" fill="#5f98d5"/>
                                        </g>
                                      </g>
                                      <path id="Trazado_613021" data-name="Trazado 613021" d="M331.258,43.843c2.326-2.045,3.606-5.046,3.659-10.089l-.02-17.827a14.949,14.949,0,0,0-8.116-2.078c-6.139.1-11.688,2.6-11.66,9.36l.009,2.268,0,.949h-.756a3.047,3.047,0,0,0-3.046,3.049l0,2.763a3.047,3.047,0,0,0,3.049,3.045h.783a11.083,11.083,0,0,0,3.727,8.128,12.2,12.2,0,0,0,7.687,3.062,12.537,12.537,0,0,0,4.679-2.63Z" transform="translate(-299.817 -13.849)" fill="#fcd0a3"/>
                                      <path id="Trazado_613022" data-name="Trazado 613022" d="M391.848,34.285a2.132,2.132,0,0,0-2.128-2.136l-.8,0-.013-3.217a8.158,8.158,0,0,0-4.573-7.729l.023,19.8A11.085,11.085,0,0,1,380.7,49.17a12.365,12.365,0,0,1-5.757,2.9,12.34,12.34,0,0,0,2.347.24,12.192,12.192,0,0,0,8-3.141,11.084,11.084,0,0,0,3.659-8.159l.8,0a2.132,2.132,0,0,0,2.11-2.154Z" transform="translate(-350.189 -19.677)" fill="#ffb983"/>
                                    </g>
                                  </g>
                                </g>
                              </g>
                            </g>
                          </g>
                        </g>
                      </g>
                    </g>
                  </g>
                </g>
                <path id="Trazado_613023" data-name="Trazado 613023" d="M338.823,11.171,338.811,1.5,337.879.165A3.568,3.568,0,0,0,336.8,0H325.439a9.157,9.157,0,0,0-9.157,9.157v6.051a2.089,2.089,0,0,0,1.4,1.973l.148.051h3.646c5.4,0,10.032-3.065,13.3-6.1a2.936,2.936,0,0,1,4.049.039Z" transform="translate(-303.737 0)" fill="#786e79"/>
                <path id="Trazado_613024" data-name="Trazado 613024" d="M423.878,5.406h-.12a1.2,1.2,0,0,1-1.206-1.192A3.571,3.571,0,0,0,420.057.8l.012,10.4a2.882,2.882,0,0,1,1.816,2.617c0,.038,0,.077,0,.116a4,4,0,0,0,3.961,3.935h.051l.148-.051a2.089,2.089,0,0,0,1.4-1.973V8.976a3.571,3.571,0,0,0-3.571-3.57Z" transform="translate(-385.915 -0.63)" fill="#695e66"/>
              </g>
            </g>
          </g>
          <g id="Grupo_1074847" data-name="Grupo 1074847" transform="translate(11.516 0.276)">
            <path id="Trazado_613025" data-name="Trazado 613025" d="M79.628,15.171,79.607,3.453s-.768-1.864-1.246-2.008a2.786,2.786,0,0,0-.8-.118H57.813a2.038,2.038,0,0,0-2.038,2.038V6.439a6.739,6.739,0,0,0,6.739,6.739H75.383A5.52,5.52,0,0,1,79.628,15.171Z" transform="translate(-55.775 -1.327)" fill="#786e79"/>
          </g>
          <path id="Trazado_613026" data-name="Trazado 613026" d="M169.069,6.334a2.792,2.792,0,0,1-2.625-1.842l-.315-.87A2.79,2.79,0,0,0,164.3,1.9c.006.147.013.294.014.446l.02,12.183a5.514,5.514,0,0,1,1.825,1.961A5.52,5.52,0,0,0,171,19.344a.862.862,0,0,0,.862-.862V9.125A2.792,2.792,0,0,0,169.069,6.334Z" transform="translate(-130.203 -1.503)" fill="#695e66"/>
        </g>
        <g id="Grupo_1074865" data-name="Grupo 1074865" transform="translate(26.592 33.997)">
          <g id="Grupo_1074863" data-name="Grupo 1074863" transform="translate(0 2.874)">
            <g id="Grupo_1074862" data-name="Grupo 1074862">
              <g id="Grupo_1074861" data-name="Grupo 1074861">
                <g id="Grupo_1074860" data-name="Grupo 1074860">
                  <g id="Grupo_1074856" data-name="Grupo 1074856">
                    <g id="Grupo_1074854" data-name="Grupo 1074854">
                      <g id="Grupo_1074853" data-name="Grupo 1074853">
                        <g id="Grupo_1074852" data-name="Grupo 1074852">
                          <g id="Grupo_1074851" data-name="Grupo 1074851">
                            <g id="Grupo_1074850" data-name="Grupo 1074850" transform="translate(0 25.74)">
                              <g id="Grupo_1074849" data-name="Grupo 1074849">
                                <path id="Trazado_613027" data-name="Trazado 613027" d="M222.836,322.688c3.754,0,9.728-10.019,8.569-10.243l-.848-.448a3.363,3.363,0,0,1-1.791-2.973v-8.169H216.906v8.169A3.363,3.363,0,0,1,215.115,312l-.848.448C213.108,312.669,219.082,322.688,222.836,322.688Z" transform="translate(-196.244 -300.856)" fill="#ffeae1"/>
                                <path id="Trazado_613028" data-name="Trazado 613028" d="M162.116,357.3a5.286,5.286,0,0,0-1.655,1.1l-5.647,4.035-5.647-4.035a5.288,5.288,0,0,0-5.2-1.3c-5.363,1.586-15.743,6.217-15.743,18.312v9.4a4.349,4.349,0,0,0,4.349,4.349h4.708s.72-1.018,1.608-1.018,1.608,1.018,1.608,1.018H170.3s.72-1.018,1.608-1.018,1.608,1.018,1.608,1.018h.389l1.072-1.747V375.413c0-9.536-7.374-15.532-12.865-18.113Z" transform="translate(-128.221 -345.224)" fill="#2463a4"/>
                                <path id="Trazado_613029" data-name="Trazado 613029" d="M289.907,357.1a5.285,5.285,0,0,0-4.79.937c5.543,2.21,13.036,7.1,12.648,17.375v13.752H301.3a4.349,4.349,0,0,0,4.349-4.349v-9.4C305.65,363.32,295.27,358.689,289.907,357.1Z" transform="translate(-252.465 -345.226)" fill="#03386e"/>
                              </g>
                            </g>
                            <path id="Trazado_613030" data-name="Trazado 613030" d="M203.464,207.118a11.085,11.085,0,0,0,3.659-8.159l-.026-19.717c-5.473-3.623-19.8-3.257-19.754,7.3l.009,2.268,0,.949H186.6a3.047,3.047,0,0,0-3.046,3.049l0,2.763a3.047,3.047,0,0,0,3.049,3.045h.783a11.083,11.083,0,0,0,3.727,8.128,12.207,12.207,0,0,0,7.511,3.057,12.5,12.5,0,0,0,4.839-2.678Z" transform="translate(-172.039 -177.169)" fill="#ffece3"/>
                            <path id="Trazado_613031" data-name="Trazado 613031" d="M264.059,197.624a2.132,2.132,0,0,0-2.128-2.136l-.8,0-.013-3.217a8.159,8.159,0,0,0-4.584-7.734l.029,19.809a11.085,11.085,0,0,1-3.659,8.159,12.366,12.366,0,0,1-5.755,2.9,12.33,12.33,0,0,0,2.349.241,12.192,12.192,0,0,0,8-3.141,11.084,11.084,0,0,0,3.659-8.159l.8,0a2.132,2.132,0,0,0,2.11-2.154Z" transform="translate(-222.401 -183.007)" fill="#ffdbcc"/>
                          </g>
                        </g>
                      </g>
                    </g>
                  </g>
                  <g id="Grupo_1074858" data-name="Grupo 1074858" transform="translate(26.592 36.759)">
                    <g id="Grupo_1074857" data-name="Grupo 1074857">
                      <path id="Trazado_613032" data-name="Trazado 613032" d="M265.826,354.022l2.014.9a1.8,1.8,0,0,1,.537,2.916L262.8,363.43a1.927,1.927,0,0,1-2.579.1L256,359.993l7.3-5.692A2.5,2.5,0,0,1,265.826,354.022Z" transform="translate(-256 -353.803)" fill="#03386e"/>
                    </g>
                  </g>
                </g>
              </g>
            </g>
            <path id="Trazado_613033" data-name="Trazado 613033" d="M197.073,354.022l-2.014.9a1.8,1.8,0,0,0-.537,2.916l5.579,5.587a1.927,1.927,0,0,0,2.579.1l4.219-3.535-7.3-5.692a2.5,2.5,0,0,0-2.523-.278Z" transform="translate(-180.307 -317.044)" fill="#03386e"/>
          </g>
          <g id="Grupo_1074864" data-name="Grupo 1074864" transform="translate(12.545)">
            <path id="Trazado_613034" data-name="Trazado 613034" d="M206.645,172.424a4.3,4.3,0,0,1,4.377.707l-.012-8.459-.924-1.151a3.566,3.566,0,0,0-1.063-.161H197.66a9.157,9.157,0,0,0-9.157,9.157v6.051a2.089,2.089,0,0,0,1.4,1.973l2.255.785a1.212,1.212,0,0,0,1.61-1.146l0-4.267c-.01-2.442,2.242-4.562,5.582-3.489A12.459,12.459,0,0,0,206.645,172.424Z" transform="translate(-188.503 -163.36)" fill="#786e79"/>
          </g>
          <path id="Trazado_613035" data-name="Trazado 613035" d="M296.05,168.75h-.12a1.206,1.206,0,0,1-1.206-1.206,3.572,3.572,0,0,0-2.507-3.409l.013,8.982a3.758,3.758,0,0,1,2.128,3.41l0,4.267a1.212,1.212,0,0,0,1.611,1.146l2.255-.785a2.089,2.089,0,0,0,1.4-1.973v-6.862A3.571,3.571,0,0,0,296.05,168.75Z" transform="translate(-258.088 -163.974)" fill="#695e66"/>
        </g>
      </g>
      <g id="Grupo_1074867" data-name="Grupo 1074867" transform="translate(9.508 63.311)">
        <path id="Trazado_613036" data-name="Trazado 613036" d="M47.224,325.58V305.828a1.608,1.608,0,0,0-3.216,0V325.58Z" transform="translate(-44.008 -304.22)" fill="#51be26"/>
        <path id="Trazado_613037" data-name="Trazado 613037" d="M459.86,304.22a1.608,1.608,0,0,0-1.608,1.608V325.58h3.216V305.828A1.608,1.608,0,0,0,459.86,304.22Z" transform="translate(-372.044 -304.22)" fill="#0279c4"/>
      </g>
      <g id="Grupo_1074868" data-name="Grupo 1074868" transform="translate(36.091 97.302)">
        <path id="Trazado_613038" data-name="Trazado 613038" d="M174.96,476.8v-7.638a1.608,1.608,0,0,0-3.216,0V476.8s0,0,0,0h3.215A.03.03,0,0,1,174.96,476.8Z" transform="translate(-171.744 -467.553)" fill="#03386e"/>
        <path id="Trazado_613039" data-name="Trazado 613039" d="M332.048,467.553a1.608,1.608,0,0,0-1.608,1.608V476.8s0,0,0,0h3.216s0,0,0,0v-7.638A1.608,1.608,0,0,0,332.048,467.553Z" transform="translate(-297.414 -467.553)" fill="#03386e"/>
      </g>
    </g>
  </g>
</svg>
