<svg xmlns="http://www.w3.org/2000/svg" width="20.18" height="26.099" viewBox="0 0 20.18 26.099">
  <path id="Trazado_609165" data-name="Trazado 609165" d="M-9546.745-13066.858a7.372,7.372,0,0,0-6.2,4.916,21.34,21.34,0,0,0-1.741,7.02s-.974.406-1.383-1.026.408-8.041-4.1-9.578-5.429-2-4.814-2.562,6.043-1.894,7.068-3.842a31.856,31.856,0,0,0,2.255-7.94c0-.923,1.383-1.743,1.588-.36s.871,7.789,3.125,9.273,5.532,1.794,5.892,2.408S-9545.567-13066.91-9546.745-13066.858Z" transform="translate(9565.153 13080.969)" fill="#eba325"/>
</svg>
