<svg xmlns="http://www.w3.org/2000/svg" width="141" height="141" viewBox="0 0 141 141">
  <g id="Grupo_1075183" data-name="Grupo 1075183" transform="translate(-1143 -1902.263)">
    <g id="Grupo_1074904" data-name="Grupo 1074904" transform="translate(0 -141)">
      <g id="Grupo_1074447" data-name="Grupo 1074447" transform="translate(874 1085.263)">
        <circle id="Elipse_5614" data-name="Elipse 5614" cx="70.5" cy="70.5" r="70.5" transform="translate(269 958)" fill="#fff"/>
      </g>
      <g id="analisis" transform="translate(1162.809 2073.596)">
        <g id="Grupo_1074903" data-name="Grupo 1074903" transform="translate(8.594 1.414)">
          <g id="Grupo_1074899" data-name="Grupo 1074899" transform="translate(0)">
            <path id="Trazado_613246" data-name="Trazado 613246" d="M18.863,8.01h77.2a3.689,3.689,0,0,1,3.678,3.678V71.659a3.689,3.689,0,0,1-3.678,3.678h-77.2a3.689,3.689,0,0,1-3.678-3.678V11.688A3.689,3.689,0,0,1,18.863,8.01Z" transform="translate(-15.185 -8.01)" fill="#eceff1" fill-rule="evenodd"/>
            <path id="Trazado_613247" data-name="Trazado 613247" d="M455.861,8.01h3.511a3.689,3.689,0,0,1,3.678,3.678V71.659a3.689,3.689,0,0,1-3.678,3.678h-3.511a3.689,3.689,0,0,0,3.678-3.678V11.688a3.689,3.689,0,0,0-3.678-3.678Z" transform="translate(-378.494 -8.01)" fill="#d1d1d6" fill-rule="evenodd"/>
            <path id="Trazado_613248" data-name="Trazado 613248" d="M18.863,8.01h77.2a3.689,3.689,0,0,1,3.678,3.678v9.458H15.185V11.688A3.689,3.689,0,0,1,18.863,8.01Z" transform="translate(-15.185 -8.01)" fill="#a79ba7" fill-rule="evenodd"/>
            <path id="Trazado_613249" data-name="Trazado 613249" d="M455.861,8.01h3.511a3.689,3.689,0,0,1,3.678,3.678v9.458h-3.511V11.688A3.689,3.689,0,0,0,455.861,8.01Z" transform="translate(-378.494 -8.01)" fill="#837683" fill-rule="evenodd"/>
            <path id="Trazado_613250" data-name="Trazado 613250" d="M62.083,37.478a2.15,2.15,0,1,0-2.15-2.15A2.154,2.154,0,0,0,62.083,37.478Z" transform="translate(-52.077 -28.759)" fill="#fe646f" fill-rule="evenodd"/>
            <path id="Trazado_613251" data-name="Trazado 613251" d="M109.087,37.478a2.15,2.15,0,1,0-2.15-2.15A2.154,2.154,0,0,0,109.087,37.478Z" transform="translate(-90.829 -28.759)" fill="#ffe177" fill-rule="evenodd"/>
            <path id="Trazado_613252" data-name="Trazado 613252" d="M156.09,37.478a2.15,2.15,0,1,0-2.15-2.15A2.154,2.154,0,0,0,156.09,37.478Z" transform="translate(-129.58 -28.759)" fill="#6cf5c2" fill-rule="evenodd"/>
          </g>
          <g id="Grupo_1074900" data-name="Grupo 1074900" transform="translate(6.929 16.554)">
            <circle id="Elipse_6025" data-name="Elipse 6025" cx="11.947" cy="11.947" r="11.947" transform="matrix(0.94, -0.34, 0.34, 0.94, 0, 8.124)" fill="#60b7ff"/>
            <circle id="Elipse_6026" data-name="Elipse 6026" cx="10.463" cy="10.463" r="10.463" transform="matrix(0.94, -0.34, 0.34, 0.94, 1.9, 9.015)" fill="#8ac9fe"/>
            <path id="Trazado_613253" data-name="Trazado 613253" d="M141.877,189.393h11.947a11.942,11.942,0,0,1-5.973,10.348Z" transform="translate(-126.564 -174.102)" fill="#fd4755" fill-rule="evenodd"/>
            <path id="Trazado_613254" data-name="Trazado 613254" d="M141.877,189.393H152.34a10.458,10.458,0,0,1-5.231,9.062Z" transform="translate(-126.564 -174.102)" fill="#fe646f" fill-rule="evenodd"/>
            <path id="Trazado_613255" data-name="Trazado 613255" d="M153.823,133.29H141.876V121.343A11.947,11.947,0,0,1,153.823,133.29Z" transform="translate(-126.563 -117.999)" fill="#ffd064" fill-rule="evenodd"/>
            <path id="Trazado_613256" data-name="Trazado 613256" d="M152.339,140.261H141.876V129.8A10.463,10.463,0,0,1,152.339,140.261Z" transform="translate(-126.563 -124.97)" fill="#ffe177" fill-rule="evenodd"/>
          </g>
          <g id="Grupo_1074901" data-name="Grupo 1074901" transform="translate(53.504 33.134)">
            <path id="Trazado_613257" data-name="Trazado 613257" d="M320.819,246.969h2.353a.879.879,0,0,1,.878.878v13.9a.879.879,0,0,1-.878.878h-2.353a.879.879,0,0,1-.878-.878v-13.9A.88.88,0,0,1,320.819,246.969Z" transform="translate(-319.941 -238.151)" fill="#ffe177" fill-rule="evenodd"/>
            <path id="Trazado_613258" data-name="Trazado 613258" d="M328.341,246.969H330.1a.88.88,0,0,1,.878.878v13.9a.88.88,0,0,1-.878.878h-1.756a.879.879,0,0,0,.878-.878v-13.9A.879.879,0,0,0,328.341,246.969Z" transform="translate(-326.866 -238.151)" fill="#ffd064" fill-rule="evenodd"/>
            <path id="Trazado_613259" data-name="Trazado 613259" d="M371.158,221.854h2.353a.879.879,0,0,1,.878.878v18.311a.879.879,0,0,1-.878.878h-2.353a.879.879,0,0,1-.878-.878V222.732A.879.879,0,0,1,371.158,221.854Z" transform="translate(-361.442 -217.445)" fill="#6cf5c2" fill-rule="evenodd"/>
            <path id="Trazado_613260" data-name="Trazado 613260" d="M378.68,221.854h1.756a.879.879,0,0,1,.878.878v18.311a.879.879,0,0,1-.878.878H378.68a.879.879,0,0,0,.878-.878V222.732A.879.879,0,0,0,378.68,221.854Z" transform="translate(-368.368 -217.445)" fill="#00e499" fill-rule="evenodd"/>
            <path id="Trazado_613261" data-name="Trazado 613261" d="M421.5,196.74h2.353a.879.879,0,0,1,.878.878v22.72a.88.88,0,0,1-.878.878H421.5a.88.88,0,0,1-.878-.878v-22.72A.879.879,0,0,1,421.5,196.74Z" transform="translate(-402.944 -196.74)" fill="#8ac9fe" fill-rule="evenodd"/>
            <path id="Trazado_613262" data-name="Trazado 613262" d="M429.019,196.74h1.756a.879.879,0,0,1,.878.878v22.72a.88.88,0,0,1-.878.878h-1.756a.88.88,0,0,0,.878-.878v-22.72A.879.879,0,0,0,429.019,196.74Z" transform="translate(-409.869 -196.74)" fill="#60b7ff" fill-rule="evenodd"/>
          </g>
          <g id="Grupo_1074902" data-name="Grupo 1074902" transform="translate(17.558 37.714)">
            <path id="Trazado_613263" data-name="Trazado 613263" d="M294.666,392.841a15.662,15.662,0,0,1-2.642,2.908l7.183,7.041,2.735-2.818Z" transform="translate(-260.979 -362.992)" fill="#a79ba7" fill-rule="evenodd"/>
            <path id="Trazado_613264" data-name="Trazado 613264" d="M303.676,392.565a1.8,1.8,0,0,1-.782,1.048l7.136,7.089.874-.958Z" transform="translate(-269.941 -362.765)" fill="#837683" fill-rule="evenodd"/>
            <path id="Trazado_613265" data-name="Trazado 613265" d="M333.2,436.419l3.086-3.181a1.419,1.419,0,0,0-.03-2l-8.548-8.3a1.419,1.419,0,0,0-2,.03l-3.086,3.181a1.419,1.419,0,0,0,.03,2l8.548,8.295A1.42,1.42,0,0,0,333.2,436.419Z" transform="translate(-285.878 -387.481)" fill="#f1ba84" fill-rule="evenodd"/>
            <path id="Trazado_613266" data-name="Trazado 613266" d="M344.607,422.944l8.548,8.3a1.419,1.419,0,0,1,.03,2l-3.086,3.181a1.4,1.4,0,0,1-.383.28,1.421,1.421,0,0,0,1.648-.28l3.086-3.181a1.419,1.419,0,0,0-.03-2l-8.548-8.295a1.42,1.42,0,0,0-1.618-.25,1.4,1.4,0,0,1,.353.25Z" transform="translate(-304.04 -387.483)" fill="#e3a76f" fill-rule="evenodd"/>
            <ellipse id="Elipse_6027" data-name="Elipse 6027" cx="15.566" cy="15.566" rx="15.566" ry="15.566" transform="translate(0 22.011) rotate(-45)" fill="#8ac9fe"/>
            <path id="Trazado_613267" data-name="Trazado 613267" d="M237.081,259.543a15.566,15.566,0,0,1,0,31.132q-.38,0-.756-.019a15.566,15.566,0,0,0,0-31.1Q236.7,259.544,237.081,259.543Z" transform="translate(-215.059 -253.097)" fill="#60b7ff" fill-rule="evenodd"/>
            <circle id="Elipse_6028" data-name="Elipse 6028" cx="11.177" cy="11.177" r="11.177" transform="translate(7.437 15.959) rotate(-22.514)" fill="#eceff1"/>
            <path id="Trazado_613268" data-name="Trazado 613268" d="M188.14,284.541c.254,0,.506.009.756.026a11.177,11.177,0,0,0,0,22.3c-.25.017-.5.026-.756.026a11.177,11.177,0,1,1,0-22.355Z" transform="translate(-166.119 -273.706)" fill="#d1d1d6" fill-rule="evenodd"/>
          </g>
        </g>
        <path id="Trazado_613269" data-name="Trazado 613269" d="M48.175,70.913a9.773,9.773,0,1,1,9.772-9.771A9.785,9.785,0,0,1,48.175,70.913Zm0-22.354A12.582,12.582,0,1,0,60.755,61.142,12.6,12.6,0,0,0,48.175,48.559ZM68.8,29.039a1.4,1.4,0,0,1-1.4,1.4H53.679a1.4,1.4,0,1,1,0-2.808H67.394A1.4,1.4,0,0,1,68.8,29.039ZM52.274,23.1a1.4,1.4,0,0,1,1.4-1.4h27.43a1.4,1.4,0,1,1,0,2.809H53.679A1.4,1.4,0,0,1,52.274,23.1Zm30.2,34.516h-1.3V35.953h1.3Zm1.4-24.475H79.774a1.4,1.4,0,0,0-1.4,1.4V59.024a1.4,1.4,0,0,0,1.4,1.4h4.108a1.4,1.4,0,0,0,1.4-1.4V34.549A1.4,1.4,0,0,0,83.882,33.144ZM73.64,57.62h-1.3V40.362h1.3Zm1.4-20.067H70.936a1.405,1.405,0,0,0-1.4,1.4V59.024a1.4,1.4,0,0,0,1.4,1.4h4.109a1.4,1.4,0,0,0,1.4-1.4V38.957A1.4,1.4,0,0,0,75.045,37.553ZM24.863,58.9a1.4,1.4,0,0,1-1.4,1.4H18.89a1.4,1.4,0,1,1,0-2.808h4.569A1.4,1.4,0,0,1,24.863,58.9Zm0-6.137a1.4,1.4,0,0,1-1.4,1.4H18.89a1.4,1.4,0,1,1,0-2.808h4.569A1.4,1.4,0,0,1,24.863,52.768Zm12.476-11.22-4.047-6.884,7.992,0a10.542,10.542,0,0,1-3.944,6.88ZM20.295,33.258a10.541,10.541,0,0,0,14.627,9.719l-5.3-9.006a1.406,1.406,0,0,1-.193-.713V22.812a10.558,10.558,0,0,0-9.139,10.446Zm20.989-1.4-9.042,0V22.812A10.561,10.561,0,0,1,41.284,31.859ZM30.837,19.907A13.352,13.352,0,1,0,44.189,33.258,13.366,13.366,0,0,0,30.837,19.907ZM32.955,7.983a2.15,2.15,0,1,1,2.151,2.151A2.154,2.154,0,0,1,32.955,7.983Zm-8.252,0a2.15,2.15,0,1,1,2.149,2.151A2.153,2.153,0,0,1,24.7,7.983Zm-8.253,0a2.15,2.15,0,1,1,2.15,2.151A2.154,2.154,0,0,1,16.451,7.983ZM89.472,67.337a2.277,2.277,0,0,0,2.274-2.274V15.957H10V65.063a2.277,2.277,0,0,0,2.273,2.274h20.1a16.872,16.872,0,0,1-1.17-6.2q0-.42.019-.833H28.833a1.4,1.4,0,1,1,0-2.808H31.6a16.976,16.976,0,0,1,1.1-3.327H28.833a1.4,1.4,0,1,1,0-2.808h5.477A16.949,16.949,0,0,1,60.694,49.7v-6.33a1.4,1.4,0,0,1,1.4-1.4h4.108a1.4,1.4,0,0,1,1.4,1.4V59.024a1.4,1.4,0,0,1-1.4,1.4H65.129c.011.237.016.474.016.713a16.858,16.858,0,0,1-1.171,6.2ZM67.007,75.6l8.549,8.311-3.087,3.179h-.017l-8.547-8.31Zm-3.964.036-2.729-2.648c.26-.268.513-.541.755-.826l2.753,2.67ZM64.8,57.62h-.025A16.811,16.811,0,0,0,63.5,53.864V44.772h1.3V57.62ZM34.013,61.142A14.161,14.161,0,1,0,48.175,46.979,14.176,14.176,0,0,0,34.013,61.142ZM12.273,2.819A2.277,2.277,0,0,0,10,5.092v8.055H91.746V5.092a2.277,2.277,0,0,0-2.274-2.273h-77.2ZM89.472.01h-77.2A5.088,5.088,0,0,0,7.191,5.092V65.063a5.087,5.087,0,0,0,5.082,5.083H33.8a16.948,16.948,0,0,0,24.39,4.687l3.079,2.988a2.824,2.824,0,0,0,.683,2.988L70.5,89.1a2.824,2.824,0,0,0,3.987-.061l3.087-3.179a2.824,2.824,0,0,0-.06-3.988l-8.548-8.3a2.818,2.818,0,0,0-3.005-.593l-2.928-2.842H89.472a5.087,5.087,0,0,0,5.082-5.083V5.092A5.088,5.088,0,0,0,89.472.01Z" fill-rule="evenodd"/>
      </g>
    </g>
  </g>
</svg>
