<svg xmlns="http://www.w3.org/2000/svg" xmlns:xlink="http://www.w3.org/1999/xlink" width="141" height="141" viewBox="0 0 141 141">
  <defs>
    <clipPath id="clip-path">
      <rect id="Rectángulo_379839" data-name="Rectángulo 379839" width="92" height="92" transform="translate(-0.203 -0.203)" fill="none"/>
    </clipPath>
  </defs>
  <g id="Grupo_1075182" data-name="Grupo 1075182" transform="translate(-730 -1901.826)">
    <g id="Grupo_1074905" data-name="Grupo 1074905" transform="translate(0 -141)">
      <g id="Grupo_1074446" data-name="Grupo 1074446" transform="translate(461 1084.826)">
        <circle id="Elipse_5614" data-name="Elipse 5614" cx="70.5" cy="70.5" r="70.5" transform="translate(269 958)" fill="#fff"/>
      </g>
      <g id="Grupo_1074898" data-name="Grupo 1074898" transform="translate(755.203 2062.739)">
        <g id="Grupo_1074898-2" data-name="Grupo 1074898" transform="translate(0 0.29)" clip-path="url(#clip-path)">
          <path id="Trazado_613193" data-name="Trazado 613193" d="M80.945,324.278H43.552V270.086h35.6a1.8,1.8,0,0,1,1.795,1.795Z" transform="translate(-37.689 -234.03)" fill="#8895d8"/>
          <path id="Trazado_613194" data-name="Trazado 613194" d="M90.761,319.44H84.27a.718.718,0,0,1-.718-.718V310.8a.718.718,0,0,1,.718-.718h6.492a.718.718,0,0,1,.718.718v7.917a.718.718,0,0,1-.718.718" transform="translate(-72.305 -268.647)" fill="#f8f6f7"/>
          <path id="Trazado_613195" data-name="Trazado 613195" d="M102.494,310.086H97.109a.718.718,0,0,1,.718.718v7.917a.718.718,0,0,1-.718.718h5.385a.718.718,0,0,0,.718-.718V310.8a.718.718,0,0,0-.718-.718" transform="translate(-84.037 -268.646)" fill="#eeecee"/>
          <path id="Trazado_613196" data-name="Trazado 613196" d="M90.761,428.923H84.27a.718.718,0,0,1-.718-.718v-7.917a.718.718,0,0,1,.718-.718h6.492a.718.718,0,0,1,.718.718v7.917a.718.718,0,0,1-.718.718" transform="translate(-72.305 -363.392)" fill="#f8f6f7"/>
          <path id="Trazado_613197" data-name="Trazado 613197" d="M102.494,419.569H97.109a.718.718,0,0,1,.718.718V428.2a.718.718,0,0,1-.718.718h5.385a.718.718,0,0,0,.718-.718v-7.917a.718.718,0,0,0-.718-.718" transform="translate(-84.037 -363.391)" fill="#eeecee"/>
          <path id="Trazado_613198" data-name="Trazado 613198" d="M91.478,583H83.551v-13.23a.718.718,0,0,1,.718-.718h6.492a.718.718,0,0,1,.718.718Z" transform="translate(-72.304 -492.751)" fill="#f8f6f7"/>
          <path id="Trazado_613199" data-name="Trazado 613199" d="M102.494,569.05H97.109a.718.718,0,0,1,.718.718V583h5.385v-13.23a.718.718,0,0,0-.718-.718" transform="translate(-84.037 -492.75)" fill="#eeecee"/>
          <path id="Trazado_613200" data-name="Trazado 613200" d="M361.332,324.278h37.393V270.086h-35.6a1.8,1.8,0,0,0-1.795,1.795Z" transform="translate(-312.692 -234.03)" fill="#8895d8"/>
          <rect id="Rectángulo_379835" data-name="Rectángulo 379835" width="5.385" height="54.192" transform="translate(80.648 36.056)" fill="#6e80d1"/>
          <path id="Trazado_613201" data-name="Trazado 613201" d="M540.941,319.44h6.492a.718.718,0,0,0,.718-.718V310.8a.718.718,0,0,0-.718-.718h-6.492a.718.718,0,0,0-.718.718v7.917a.718.718,0,0,0,.718.718" transform="translate(-467.502 -268.647)" fill="#f8f6f7"/>
          <path id="Trazado_613202" data-name="Trazado 613202" d="M559.165,310.086H553.78a.718.718,0,0,1,.718.718v7.917a.718.718,0,0,1-.718.718h5.385a.718.718,0,0,0,.718-.718V310.8a.718.718,0,0,0-.718-.718" transform="translate(-479.234 -268.646)" fill="#eeecee"/>
          <path id="Trazado_613203" data-name="Trazado 613203" d="M540.941,428.923h6.492a.718.718,0,0,0,.718-.718v-7.917a.718.718,0,0,0-.718-.718h-6.492a.718.718,0,0,0-.718.718v7.917a.718.718,0,0,0,.718.718" transform="translate(-467.502 -363.392)" fill="#f8f6f7"/>
          <path id="Trazado_613204" data-name="Trazado 613204" d="M559.165,419.569H553.78a.718.718,0,0,1,.718.718V428.2a.718.718,0,0,1-.718.718h5.385a.718.718,0,0,0,.718-.718v-7.917a.718.718,0,0,0-.718-.718" transform="translate(-479.234 -363.391)" fill="#eeecee"/>
          <path id="Trazado_613205" data-name="Trazado 613205" d="M540.223,583h7.927v-13.23a.718.718,0,0,0-.718-.718h-6.492a.718.718,0,0,0-.718.718Z" transform="translate(-467.502 -492.751)" fill="#f8f6f7"/>
          <path id="Trazado_613206" data-name="Trazado 613206" d="M559.165,569.05H553.78a.718.718,0,0,1,.718.718V583h5.385v-13.23a.718.718,0,0,0-.718-.718" transform="translate(-479.234 -492.75)" fill="#eeecee"/>
          <rect id="Rectángulo_379836" data-name="Rectángulo 379836" width="42.777" height="54.192" transform="translate(29.944 36.056)" fill="#6e80d1"/>
          <rect id="Rectángulo_379837" data-name="Rectángulo 379837" width="42.777" height="54.192" transform="translate(19.175 36.056)" fill="#6e80d1"/>
          <rect id="Rectángulo_379838" data-name="Rectángulo 379838" width="42.777" height="54.192" transform="translate(24.559 36.056)" fill="#8895d8"/>
          <path id="Trazado_613207" data-name="Trazado 613207" d="M252.344,428.212H243.16a.718.718,0,0,1-.718-.718v-7.917a.718.718,0,0,1,.718-.718h9.184a.718.718,0,0,1,.718.718v7.917a.718.718,0,0,1-.718.718" transform="translate(-209.806 -362.776)" fill="#f8f6f7"/>
          <path id="Trazado_613208" data-name="Trazado 613208" d="M281.384,418.858H276a.718.718,0,0,1,.718.718v7.917a.718.718,0,0,1-.718.718h5.385a.718.718,0,0,0,.718-.718v-7.917a.718.718,0,0,0-.718-.718" transform="translate(-238.846 -362.776)" fill="#eeecee"/>
          <path id="Trazado_613209" data-name="Trazado 613209" d="M371.235,428.212h-9.184a.718.718,0,0,1-.718-.718v-7.917a.718.718,0,0,1,.718-.718h9.184a.718.718,0,0,1,.718.718v7.917a.718.718,0,0,1-.718.718" transform="translate(-312.693 -362.776)" fill="#f8f6f7"/>
          <path id="Trazado_613210" data-name="Trazado 613210" d="M400.275,418.858H394.89a.718.718,0,0,1,.718.718v7.917a.718.718,0,0,1-.718.718h5.384a.718.718,0,0,0,.718-.718v-7.917a.718.718,0,0,0-.718-.718" transform="translate(-341.733 -362.776)" fill="#eeecee"/>
          <path id="Trazado_613211" data-name="Trazado 613211" d="M97.946,230.086H11.255A1.257,1.257,0,0,0,10,231.342v2.872a1.256,1.256,0,0,0,1.256,1.256H97.946a1.256,1.256,0,0,0,1.256-1.256v-2.872a1.257,1.257,0,0,0-1.256-1.256" transform="translate(-8.653 -199.415)" fill="#bec5e9"/>
          <path id="Trazado_613212" data-name="Trazado 613212" d="M628.717,230.086h-5.385a1.257,1.257,0,0,1,1.256,1.256v2.872a1.256,1.256,0,0,1-1.256,1.256h5.385a1.256,1.256,0,0,0,1.256-1.256v-2.872a1.257,1.257,0,0,0-1.256-1.256" transform="translate(-539.424 -199.415)" fill="#a2aee1"/>
          <path id="Trazado_613213" data-name="Trazado 613213" d="M295.038,548.383H277.983V530.307a1.256,1.256,0,0,1,1.256-1.256h14.543a1.256,1.256,0,0,1,1.256,1.256Z" transform="translate(-240.563 -458.135)" fill="#f8f6f7"/>
          <path id="Trazado_613214" data-name="Trazado 613214" d="M360.734,529.051h-5.385a1.256,1.256,0,0,1,1.256,1.256v18.076h5.385V530.307a1.256,1.256,0,0,0-1.256-1.256" transform="translate(-307.514 -458.135)" fill="#eeecee"/>
          <path id="Trazado_613215" data-name="Trazado 613215" d="M206.817,34.779A24.779,24.779,0,1,1,182.039,10a24.779,24.779,0,0,1,24.779,24.779" transform="translate(-136.091 -8.955)" fill="#f8f6f7"/>
          <path id="Trazado_613216" data-name="Trazado 613216" d="M324.024,10a25.019,25.019,0,0,0-2.692.146,24.779,24.779,0,0,1,0,49.265,25.122,25.122,0,0,0,2.692.146A24.778,24.778,0,0,0,348.8,34.78h0A24.779,24.779,0,0,0,324.024,10" transform="translate(-278.077 -8.956)" fill="#eeecee"/>
          <path id="Trazado_613217" data-name="Trazado 613217" d="M261.344,220.861H236.653a2.017,2.017,0,0,1-2.017-2.017V208.778h28.725v10.066a2.017,2.017,0,0,1-2.017,2.017" transform="translate(-203.051 -180.975)" fill="#e4bca5"/>
          <path id="Trazado_613218" data-name="Trazado 613218" d="M395.06,208.777v10.066a2.017,2.017,0,0,1-2.017,2.017h5.385a2.017,2.017,0,0,0,2.017-2.017V208.777Z" transform="translate(-340.134 -180.974)" fill="#dfae90"/>
          <path id="Trazado_613219" data-name="Trazado 613219" d="M249.025,118.864H219.8a2.017,2.017,0,0,0-2.017,2.017v8.069a2.018,2.018,0,0,0,2.017,2.017h29.23a2.018,2.018,0,0,0,2.017-2.017v-8.069a2.017,2.017,0,0,0-2.017-2.017" transform="translate(-188.462 -103.165)" fill="#d69b7a"/>
          <path id="Trazado_613220" data-name="Trazado 613220" d="M415.286,118.864H409.9a2.017,2.017,0,0,1,2.017,2.017v8.069a2.017,2.017,0,0,1-2.017,2.017h5.385a2.017,2.017,0,0,0,2.017-2.017v-8.069a2.017,2.017,0,0,0-2.017-2.017" transform="translate(-354.723 -103.165)" fill="#d08961"/>
          <path id="Trazado_613221" data-name="Trazado 613221" d="M312.249,193.528H303.6a.874.874,0,0,1-.874-.874v-3.87a.874.874,0,0,1,.874-.874h8.645a.874.874,0,0,1,.874.874v3.87a.874.874,0,0,1-.874.874" transform="translate(-261.979 -162.916)" fill="#786e78"/>
          <path id="Trazado_613222" data-name="Trazado 613222" d="M338.827,187.909h-5.384a.874.874,0,0,1,.874.874v3.87a.874.874,0,0,1-.874.874h5.384a.874.874,0,0,0,.874-.874v-3.87a.874.874,0,0,0-.874-.874" transform="translate(-288.556 -162.915)" fill="#665e67"/>
          <path id="Trazado_613223" data-name="Trazado 613223" d="M34.9,316.971a1.346,1.346,0,0,1-1.346-1.346V261.432a1.346,1.346,0,0,1,2.692,0v54.192a1.346,1.346,0,0,1-1.346,1.346" transform="translate(-29.035 -225.376)"/>
          <path id="Trazado_613224" data-name="Trazado 613224" d="M82.108,312.132H75.616a2.067,2.067,0,0,1-2.064-2.064v-7.918a2.067,2.067,0,0,1,2.064-2.064h6.492a2.067,2.067,0,0,1,2.064,2.064v7.918a2.067,2.067,0,0,1-2.064,2.064m0-2.692h0Zm-5.863,0h5.235v-6.661H76.244Z" transform="translate(-63.651 -259.993)"/>
          <path id="Trazado_613225" data-name="Trazado 613225" d="M82.108,421.615H75.616a2.067,2.067,0,0,1-2.064-2.064v-7.918a2.067,2.067,0,0,1,2.064-2.064h6.492a2.067,2.067,0,0,1,2.064,2.063v7.918a2.067,2.067,0,0,1-2.063,2.064m0-2.692h0Zm-5.863,0h5.235v-6.661H76.244Z" transform="translate(-63.651 -354.738)"/>
          <path id="Trazado_613226" data-name="Trazado 613226" d="M82.825,575.691H74.9a1.346,1.346,0,0,1-1.346-1.346v-13.23a2.067,2.067,0,0,1,2.064-2.064h6.492a2.067,2.067,0,0,1,2.064,2.064v13.23a1.346,1.346,0,0,1-1.346,1.346M76.243,573h5.235V561.743H76.243Z" transform="translate(-63.65 -484.097)"/>
          <path id="Trazado_613227" data-name="Trazado 613227" d="M630.46,316.971a1.346,1.346,0,0,1-1.346-1.346V261.432a1.346,1.346,0,1,1,2.692,0v54.192a1.346,1.346,0,0,1-1.346,1.346" transform="translate(-544.427 -225.376)"/>
          <path id="Trazado_613228" data-name="Trazado 613228" d="M538.779,312.132h-6.492a2.067,2.067,0,0,1-2.064-2.064v-7.918a2.067,2.067,0,0,1,2.064-2.064h6.492a2.067,2.067,0,0,1,2.064,2.064v7.918a2.067,2.067,0,0,1-2.064,2.064m-5.864-2.692h5.235v-6.661h-5.235Z" transform="translate(-458.848 -259.993)"/>
          <path id="Trazado_613229" data-name="Trazado 613229" d="M538.779,421.615h-6.492a2.067,2.067,0,0,1-2.064-2.064v-7.918a2.067,2.067,0,0,1,2.064-2.064h6.492a2.067,2.067,0,0,1,2.064,2.064v7.918a2.067,2.067,0,0,1-2.064,2.064m-5.864-2.692h5.235v-6.661h-5.235Z" transform="translate(-458.848 -354.738)"/>
          <path id="Trazado_613230" data-name="Trazado 613230" d="M539.5,575.691h-7.927a1.346,1.346,0,0,1-1.346-1.346v-13.23a2.067,2.067,0,0,1,2.064-2.064h6.492a2.067,2.067,0,0,1,2.064,2.064v13.23a1.346,1.346,0,0,1-1.346,1.346M532.915,573h5.235V561.743h-5.235Z" transform="translate(-458.848 -484.097)"/>
          <path id="Trazado_613231" data-name="Trazado 613231" d="M491.571,312.334a1.346,1.346,0,0,1-1.346-1.346V278.414a1.346,1.346,0,0,1,2.692,0v32.574a1.346,1.346,0,0,1-1.346,1.346" transform="translate(-424.234 -240.072)"/>
          <path id="Trazado_613232" data-name="Trazado 613232" d="M491.571,581.46a1.346,1.346,0,0,1-1.346-1.346V567.063a1.346,1.346,0,0,1,2.692,0v13.051a1.346,1.346,0,0,1-1.346,1.346" transform="translate(-424.234 -489.866)"/>
          <path id="Trazado_613233" data-name="Trazado 613233" d="M173.786,331.666a1.346,1.346,0,0,1-1.346-1.346V278.413a1.346,1.346,0,1,1,2.692,0V330.32a1.346,1.346,0,0,1-1.346,1.346" transform="translate(-149.227 -240.071)"/>
          <path id="Trazado_613234" data-name="Trazado 613234" d="M243.69,420.9h-9.184a2.067,2.067,0,0,1-2.064-2.064v-7.917a2.067,2.067,0,0,1,2.064-2.064h9.184a2.067,2.067,0,0,1,2.064,2.064v7.918a2.067,2.067,0,0,1-2.064,2.064m0-2.692h0Zm-8.555,0h7.927v-6.661h-7.927Z" transform="translate(-201.152 -354.123)"/>
          <path id="Trazado_613235" data-name="Trazado 613235" d="M362.581,420.9H353.4a2.067,2.067,0,0,1-2.064-2.064v-7.918a2.067,2.067,0,0,1,2.064-2.064h9.184a2.067,2.067,0,0,1,2.064,2.064v7.918a2.067,2.067,0,0,1-2.064,2.064m0-2.692h0Zm-8.555,0h7.927v-6.661h-7.927Z" transform="translate(-304.039 -354.123)"/>
          <path id="Trazado_613236" data-name="Trazado 613236" d="M90.549,665.358H1.346a1.346,1.346,0,0,1,0-2.692h89.2a1.346,1.346,0,0,1,0,2.692" transform="translate(0 -573.764)"/>
          <path id="Trazado_613237" data-name="Trazado 613237" d="M521.146,228.157H500.371a1.346,1.346,0,1,1,0-2.692h20.682v-2.692H502.1a1.346,1.346,0,1,1,0-2.692h19.04a2.606,2.606,0,0,1,2.6,2.6v2.872a2.6,2.6,0,0,1-2.6,2.6m0-5.385h0Z" transform="translate(-431.85 -190.756)"/>
          <path id="Trazado_613238" data-name="Trazado 613238" d="M107.234,222.772h-6.982a1.346,1.346,0,1,1,0-2.692h6.982a1.346,1.346,0,1,1,0,2.692" transform="translate(-85.592 -190.756)"/>
          <path id="Trazado_613239" data-name="Trazado 613239" d="M2.6,228.157a2.6,2.6,0,0,1-2.6-2.6v-2.875a2.606,2.606,0,0,1,2.6-2.6H8.379a1.346,1.346,0,1,1,0,2.692H2.693v2.692H23.375a1.346,1.346,0,0,1,0,2.692H2.6Z" transform="translate(-0.001 -190.756)"/>
          <path id="Trazado_613240" data-name="Trazado 613240" d="M286.385,541.076H269.329a1.346,1.346,0,0,1-1.346-1.346V521.654a2.6,2.6,0,0,1,2.6-2.6h14.543a2.605,2.605,0,0,1,2.6,2.6V539.73a1.346,1.346,0,0,1-1.346,1.346m-15.709-2.692h14.363v-16.64H270.675Z" transform="translate(-231.909 -449.481)"/>
          <path id="Trazado_613241" data-name="Trazado 613241" d="M173.385,52.25a26.125,26.125,0,1,1,26.125-26.125A26.154,26.154,0,0,1,173.385,52.25m0-49.557a23.433,23.433,0,1,0,23.432,23.432A23.459,23.459,0,0,0,173.385,2.692" transform="translate(-127.437 -0.301)"/>
          <path id="Trazado_613242" data-name="Trazado 613242" d="M291.716,70.552a1.346,1.346,0,0,1-1.346-1.346V64.845a.672.672,0,0,0-.671-.671H278.643a.672.672,0,0,0-.671.671v4.362a1.346,1.346,0,1,1-2.692,0V64.845a3.363,3.363,0,0,1,3.362-3.364H289.7a3.367,3.367,0,0,1,3.363,3.362v4.363a1.346,1.346,0,0,1-1.346,1.346" transform="translate(-238.223 -53.506)"/>
          <path id="Trazado_613243" data-name="Trazado 613243" d="M252.691,213.553H228a3.367,3.367,0,0,1-3.363-3.363V200.124a1.346,1.346,0,1,1,2.692,0V210.19a.672.672,0,0,0,.671.671h24.691a.672.672,0,0,0,.671-.671V200.124a1.346,1.346,0,1,1,2.692,0V210.19a3.367,3.367,0,0,1-3.363,3.363" transform="translate(-194.398 -172.321)"/>
          <path id="Trazado_613244" data-name="Trazado 613244" d="M240.368,123.663h-9.42a1.346,1.346,0,1,1,0-2.692h9.419a.672.672,0,0,0,.671-.672v-8.067a.672.672,0,0,0-.672-.671h-29.23a.673.673,0,0,0-.671.672V120.3a.672.672,0,0,0,.672.671h9.419a1.346,1.346,0,1,1,0,2.692h-9.419a3.368,3.368,0,0,1-3.364-3.363v-8.068a3.368,3.368,0,0,1,3.363-3.363h29.231a3.368,3.368,0,0,1,3.363,3.363V120.3a3.368,3.368,0,0,1-3.363,3.364" transform="translate(-179.805 -94.514)"/>
          <path id="Trazado_613245" data-name="Trazado 613245" d="M303.6,186.22H294.95a2.223,2.223,0,0,1-2.22-2.22V180.13a2.223,2.223,0,0,1,2.22-2.22h8.645a2.223,2.223,0,0,1,2.22,2.22V184a2.223,2.223,0,0,1-2.22,2.22m0-2.692h0Zm-8.172,0h7.7V180.6h-7.7Z" transform="translate(-253.325 -154.262)"/>
        </g>
      </g>
    </g>
  </g>
</svg>
