<svg xmlns="http://www.w3.org/2000/svg" width="142" height="142" viewBox="0 0 142 142">
  <g id="Grupo_1072423" data-name="Grupo 1072423" transform="translate(-1040 -4004.999)">
    <g id="Grupo_1072215" data-name="Grupo 1072215" transform="translate(770.999 3046.998)">
      <circle id="Elipse_5614" data-name="Elipse 5614" cx="71" cy="71" r="71" transform="translate(269.001 958.001)" fill="#fff"/>
    </g>
    <g id="Grupo_1072422" data-name="Grupo 1072422" transform="translate(7992.181 11698.027)">
      <g id="investigacion_1_" data-name="investigacion (1)" transform="translate(-6926.181 -7666.694)">
        <path id="Trazado_609579" data-name="Trazado 609579" d="M62.634,218.972V263.55a2.971,2.971,0,0,1-2.972,2.972H26.972A2.971,2.971,0,0,1,24,263.55V229.119a3,3,0,0,1,.871-2.1l10.145-10.145a3,3,0,0,1,2.1-.871H59.662a2.971,2.971,0,0,1,2.972,2.972Z" transform="translate(-22.514 -178.761)" fill="#6debff"/>
        <path id="Trazado_609580" data-name="Trazado 609580" d="M37.068,217.45V226.1a2.971,2.971,0,0,1-2.972,2.972H25.45a2.94,2.94,0,0,1,.6-.871L36.2,218.052a2.94,2.94,0,0,1,.871-.6Z" transform="translate(-23.695 -179.942)" fill="#6debff"/>
        <g id="Grupo_1072421" data-name="Grupo 1072421" transform="translate(1.486 9.006)">
          <circle id="Elipse_5903" data-name="Elipse 5903" cx="2.972" cy="2.972" r="2.972" transform="translate(0 20.803)" fill="#bed3f7"/>
          <circle id="Elipse_5904" data-name="Elipse 5904" cx="2.972" cy="2.972" r="2.972" transform="translate(10.401 10.401)" fill="#bed3f7"/>
          <circle id="Elipse_5905" data-name="Elipse 5905" cx="2.972" cy="2.972" r="2.972" transform="translate(25.261 10.401)" fill="#bed3f7"/>
          <circle id="Elipse_5906" data-name="Elipse 5906" cx="2.972" cy="2.972" r="2.972" transform="translate(40.12 0)" fill="#bed3f7"/>
        </g>
        <path id="Trazado_609585" data-name="Trazado 609585" d="M331.662,41.831a17.778,17.778,0,1,1-5.207-12.624,17.831,17.831,0,0,1,5.207,12.624Z" transform="translate(-243.993 -22.423)" fill="#64e1bc"/>
        <path id="Trazado_609586" data-name="Trazado 609586" d="M409.831,41.831H392V24a17.831,17.831,0,0,1,17.831,17.831Z" transform="translate(-322.162 -22.423)" fill="#548aff"/>
        <path id="Trazado_609587" data-name="Trazado 609587" d="M409.831,120a17.778,17.778,0,0,1-5.986,13.327L392,120Z" transform="translate(-322.162 -100.592)" fill="#f5714f"/>
        <circle id="Elipse_5907" data-name="Elipse 5907" cx="2.972" cy="2.972" r="2.972" transform="translate(28.233 43.183)" fill="#bed3f7"/>
        <circle id="Elipse_5908" data-name="Elipse 5908" cx="2.972" cy="2.972" r="2.972" transform="translate(29.719 75.873)" fill="#bed3f7"/>
        <path id="Trazado_609588" data-name="Trazado 609588" d="M120,264h4.458v2.972H120Z" transform="translate(-100.683 -217.846)"/>
        <path id="Trazado_609589" data-name="Trazado 609589" d="M176,304h4.458v2.972H176Z" transform="translate(-146.281 -250.416)"/>
        <path id="Trazado_609590" data-name="Trazado 609590" d="M120,304h7.43v2.972H120Z" transform="translate(-100.683 -250.416)"/>
        <path id="Trazado_609591" data-name="Trazado 609591" d="M56,304h8.916v2.972H56Z" transform="translate(-48.57 -250.416)"/>
        <path id="Trazado_609592" data-name="Trazado 609592" d="M104,344h17.831v2.972H104Z" transform="translate(-87.655 -282.986)"/>
        <path id="Trazado_609593" data-name="Trazado 609593" d="M56,344h5.944v2.972H56Z" transform="translate(-48.57 -282.986)"/>
        <path id="Trazado_609594" data-name="Trazado 609594" d="M152,384h8.916v2.972H152Z" transform="translate(-126.739 -315.557)"/>
        <path id="Trazado_609595" data-name="Trazado 609595" d="M56,384H70.859v2.972H56Z" transform="translate(-48.57 -315.557)"/>
        <path id="Trazado_609596" data-name="Trazado 609596" d="M104,424h8.916v2.972H104Z" transform="translate(-87.655 -348.127)"/>
        <path id="Trazado_609597" data-name="Trazado 609597" d="M56,424h5.944v2.972H56Z" transform="translate(-48.57 -348.127)"/>
        <path id="Trazado_609598" data-name="Trazado 609598" d="M47.936,246.7a4.458,4.458,0,1,0,4.957,5.879h1.742v4.458a1.488,1.488,0,0,1-1.486,1.486H20.458a1.488,1.488,0,0,1-1.486-1.486V222.859H26.4a4.463,4.463,0,0,0,4.458-4.458v-7.43H53.148a1.488,1.488,0,0,1,1.486,1.486v1.486h2.972v-1.486A4.463,4.463,0,0,0,53.148,208H30.6a4.429,4.429,0,0,0-3.152,1.306L17.306,219.452A4.429,4.429,0,0,0,16,222.6v34.431a4.463,4.463,0,0,0,4.458,4.458h32.69a4.463,4.463,0,0,0,4.458-4.458v-4.458S50.076,246.331,47.936,246.7ZM27.887,213.073V218.4a1.488,1.488,0,0,1-1.486,1.486H21.073Zm20.8,39.5a1.486,1.486,0,1,1,1.486-1.486A1.486,1.486,0,0,1,48.69,252.578Z" transform="translate(-16 -172.247)"/>
        <path id="Trazado_609599" data-name="Trazado 609599" d="M20.457,85.709a4.457,4.457,0,0,0,4.022-6.378l4.459-4.459a4.456,4.456,0,0,0,6.123-2.536h6.455a4.457,4.457,0,0,0,8.6-.749l8.392-7.193a4.458,4.458,0,1,0-2.021-2.182l-7.109,6.093a4.455,4.455,0,0,0-7.859,1.059H35.061a4.457,4.457,0,1,0-8.224,3.407l-4.459,4.459a4.458,4.458,0,1,0-1.921,8.48Zm40.12-26.747a1.486,1.486,0,1,1-1.486,1.486A1.486,1.486,0,0,1,60.577,58.963Zm-14.859,10.4a1.486,1.486,0,1,1-1.486,1.486A1.486,1.486,0,0,1,45.718,69.364Zm-14.859,0a1.486,1.486,0,1,1-1.486,1.486A1.486,1.486,0,0,1,30.859,69.364Zm-10.4,10.4a1.486,1.486,0,1,1-1.486,1.486A1.486,1.486,0,0,1,20.457,79.766Z" transform="translate(-15.999 -48.47)"/>
        <path id="Trazado_609600" data-name="Trazado 609600" d="M191.492,50.358,181.67,60.18H168.657a4.458,4.458,0,1,0,0,2.972h3.227V89.9h2.972V63.151h7.43a1.486,1.486,0,0,0,1.051-.435l10.724-10.724a19.37,19.37,0,1,0-2.569-1.634ZM164.454,63.151a1.486,1.486,0,1,1,1.486-1.486A1.486,1.486,0,0,1,164.454,63.151Zm50.553-17.06L206.4,36.4h12.968A16.29,16.29,0,0,1,215.007,46.091Zm4.358-12.658H204.574V18.642A16.372,16.372,0,0,1,219.365,33.433ZM201.6,18.642V34.919a1.478,1.478,0,0,0,.377.986h0l10.81,12.161A16.342,16.342,0,1,1,201.6,18.642Z" transform="translate(-133.25 -15.511)"/>
      </g>
      <g id="telefono" transform="translate(-6870.938 -7623.879)">
        <path id="Trazado_609601" data-name="Trazado 609601" d="M106.323,0H85.175a4.846,4.846,0,0,0-4.841,4.841V40.087a4.846,4.846,0,0,0,4.841,4.841h21.148a4.846,4.846,0,0,0,4.841-4.841V4.841A4.846,4.846,0,0,0,106.323,0Zm-4.5,2.632-.877,2.633H90.555l-.877-2.633Zm6.711,37.454a2.211,2.211,0,0,1-2.208,2.208H85.175a2.211,2.211,0,0,1-2.209-2.208V4.841a2.211,2.211,0,0,1,2.208-2.208H86.9L88.357,7a1.316,1.316,0,0,0,1.249.9h12.285A1.316,1.316,0,0,0,103.14,7l1.455-4.365h1.728a2.211,2.211,0,0,1,2.208,2.208Z" transform="translate(-80.334 0)"/>
        <path id="Trazado_609602" data-name="Trazado 609602" d="M160.649,177.355a1.316,1.316,0,0,0-1.861,0l-1.777,1.777-4.489-4.489,1.777-1.777a1.316,1.316,0,0,0,0-1.861l-3.766-3.766a1.316,1.316,0,0,0-1.861,0l-2.314,2.314a6.947,6.947,0,0,0-1.6,6.494A14.833,14.833,0,0,0,155.608,186.9a6.947,6.947,0,0,0,6.494-1.6l2.314-2.314a1.316,1.316,0,0,0,0-1.862Zm-.409,6.079c-2,2-6.449.944-9.707-2.314a11.3,11.3,0,0,1-3.193-5.591,4.425,4.425,0,0,1,.879-4.116l1.383-1.383,1.9,1.9-.62.62a2.956,2.956,0,0,0,0,4.175l4.037,4.037a2.956,2.956,0,0,0,4.175,0l.62-.62,1.9,1.9Z" transform="translate(-138.931 -152.212)"/>
      </g>
    </g>
  </g>
</svg>
