<svg id="Grupo_1074892" data-name="Grupo 1074892" xmlns="http://www.w3.org/2000/svg" xmlns:xlink="http://www.w3.org/1999/xlink" width="400" height="291.008" viewBox="0 0 400 291.008">
  <defs>
    <clipPath id="clip-path">
      <rect id="Rectángulo_379832" data-name="Rectángulo 379832" width="400" height="291.008" fill="none"/>
    </clipPath>
    <clipPath id="clip-path-2">
      <rect id="Rectángulo_379831" data-name="Rectángulo 379831" width="400" height="291.009" fill="none"/>
    </clipPath>
    <clipPath id="clip-path-3">
      <rect id="Rectángulo_379827" data-name="Rectángulo 379827" width="123.372" height="123.371" fill="none"/>
    </clipPath>
    <clipPath id="clip-path-4">
      <rect id="Rectángulo_379829" data-name="Rectángulo 379829" width="41.707" height="11.567" fill="none"/>
    </clipPath>
    <clipPath id="clip-path-5">
      <rect id="Rectángulo_379830" data-name="Rectángulo 379830" width="47.393" height="47.392" fill="none"/>
    </clipPath>
  </defs>
  <g id="Grupo_1074891" data-name="Grupo 1074891" clip-path="url(#clip-path)">
    <g id="Grupo_1074890" data-name="Grupo 1074890" transform="translate(0 0)">
      <g id="Grupo_1074889" data-name="Grupo 1074889" clip-path="url(#clip-path-2)">
        <g id="Grupo_1074882" data-name="Grupo 1074882" transform="translate(197.923 51.242)" opacity="0.8">
          <g id="Grupo_1074881" data-name="Grupo 1074881">
            <g id="Grupo_1074880" data-name="Grupo 1074880" clip-path="url(#clip-path-3)">
              <path id="Trazado_613068" data-name="Trazado 613068" d="M1269.645,514.568a62.136,62.136,0,0,1-4.732,10.1,61.687,61.687,0,0,1-114.765-26.974,60.653,60.653,0,0,1,.078-9.408,62.109,62.109,0,0,1,9.3-27.71c.026-.043.053-.082.078-.125a61.835,61.835,0,0,1,35.156-26.255c1.505-.431,3.032-.806,4.571-1.12a61.334,61.334,0,0,1,33.425,2.466q2.212.8,4.32,1.757a61.249,61.249,0,0,1,25,20.637h0a61.9,61.9,0,0,1,9.863,22.38q.567,2.587.915,5.226a61.4,61.4,0,0,1-3.21,29.027" transform="translate(-1150.002 -431.812)" fill="#d7e5ff"/>
              <path id="Trazado_613069" data-name="Trazado 613069" d="M1236.892,465.094c-3.644,2.822-2.678,10.374-8.986,6.117s-10.269-6.57-12.054-2.856,3.8,5.748,2.331,9.8-4.464,4.475-7.62,1.151-3.249-6.523-8.361-6.417-7.293-2-7.044-5.834a5.4,5.4,0,0,0-.168-1.779c.025-.043.053-.082.078-.126a61.835,61.835,0,0,1,35.156-26.255c1.505-.431,3.033-.806,4.571-1.121a8.111,8.111,0,0,1,4.706,5.141c2.225,6.484,5.834,4.958,2.769,10.39s-1.8,6.764,1.542,7.761,7.2,2.4,6.676,5.045-9.953-3.837-13.6-1.015" transform="translate(-1185.466 -436.509)" fill="#aec3ff"/>
              <path id="Trazado_613070" data-name="Trazado 613070" d="M1553.282,696.157a62.09,62.09,0,0,1-4.732,10.1,61.325,61.325,0,0,1-17.23,18.91,7.038,7.038,0,0,1-4.589-1.809c-6.177-5.518,2.009-11.38,6.319-14.232s-3.693-3.8-7.728-9.355,5.413-13.089-.658-13.5-13.456-.8-14.692-7.3,5.151-5.165,4.033-10.644,4.165-6.5,9.815-4.942,6.347-2.6,13.351-.711,3.707,10.512,11.434,12.666,6.758,3.766,6.758,3.766a3.726,3.726,0,0,1,1.45.9,61.787,61.787,0,0,1-3.531,16.152" transform="translate(-1433.639 -613.402)" fill="#aec3ff"/>
              <path id="Trazado_613071" data-name="Trazado 613071" d="M1612.626,577.1c-7.356.769-6.858-8.414-13.105-7.87-6.3.548-3.6-3.928-6.72-8.554s-13.632-2.118-11.5-6.8,8.006-1.017,10.757-4.38,8.568-.159,8.568-.159a4.442,4.442,0,0,1,1.214.153s0,0,0,0a61.907,61.907,0,0,1,9.863,22.38q.567,2.587.915,5.226" transform="translate(-1489.773 -523.373)" fill="#aec3ff"/>
              <path id="Trazado_613072" data-name="Trazado 613072" d="M1457.054,476.5s4.995-3.536.3-6.823-5.264-1.426-9.155-3.328-6.62.652-4.828,5.176,1.863,11.983,5.882,9.482,4.452-5.344,7.8-4.508" transform="translate(-1380.819 -458.539)" fill="#aec3ff"/>
            </g>
          </g>
        </g>
        <path id="Trazado_613073" data-name="Trazado 613073" d="M143.973,1590.034h17.486c.937-.795-.648-2.6-2.305-2.721a10.221,10.221,0,0,0-2.669.316c-.24-3.2-1.615-17.562-6.793-16.985-5.823.646,0,6.327,1.646,9.69a79.958,79.958,0,0,1,3.093,7.749c-.473.1-.962.2-1.462.295-.772-2.37-3.643-10.341-7.3-9.876-4.288.544-2.564,3.74.475,5.637,2.229,1.4,4.967,3.378,6.268,4.336a18.584,18.584,0,0,1-3.42.274c-3-.071-4.457.811-5.024,1.286" transform="translate(-118.474 -1300.31)" fill="#a8d29f"/>
        <path id="Trazado_613074" data-name="Trazado 613074" d="M1685.681,1596.677H1669.44c-.87-.738.6-2.415,2.141-2.527a9.483,9.483,0,0,1,2.479.293c.223-2.969,1.5-16.313,6.31-15.777,5.408.6,0,5.877-1.529,9a74.149,74.149,0,0,0-2.873,7.2c.439.1.894.188,1.358.274.717-2.2,3.384-9.6,6.776-9.173,3.983.505,2.382,3.474-.441,5.236-2.071,1.3-4.614,3.137-5.823,4.027a17.243,17.243,0,0,0,3.176.255c2.782-.066,4.14.754,4.667,1.195" transform="translate(-1381.903 -1306.953)" fill="#a8d29f"/>
        <path id="Trazado_613075" data-name="Trazado 613075" d="M1813.258,1046.935s.387-3.845-1.624-3.713-2.543,1.054-2.318,1.793a20.958,20.958,0,0,0,2.18,3.183Z" transform="translate(-1497.881 -863.674)" fill="#ffb27d"/>
        <path id="Trazado_613076" data-name="Trazado 613076" d="M1852.021,1069.588a32.822,32.822,0,0,1-7.012,5.633c-.453.287-.927.575-1.427.866a53.034,53.034,0,0,1-6.557,3.226c-.277.114-.6.24-.968.371a47.253,47.253,0,0,1-11.417,2.636c-.285.011-.554.011-.805,0-4.978-.2-5.585-19.521-5.585-19.521s.555-1.933,3.112-1.446c0,0,3.884,10.911,5.276,11.8,1.236.791,8.342-9.981,14.459-10.735,4.118-.507,10.926,7.168,10.926,7.168" transform="translate(-1505.316 -878.623)" fill="#739af0"/>
        <path id="Trazado_613077" data-name="Trazado 613077" d="M1878.874,1649.077s.368,4.253-.532,4.7l-11.505-.024s0-1.328,1.848-1.623,5.094-1.377,5.644-3.787,4.545.738,4.545.738" transform="translate(-1545.542 -1363.896)" fill="#1c3154"/>
        <path id="Trazado_613078" data-name="Trazado 613078" d="M1887.528,1293.826c.057,2.781.19,5.65.452,8.228,1.242,12.233,1.679,27.014,1.858,29.863.309,4.947,1.287,12.849,1.287,12.849s1.938,1.84,5.716.962a128.631,128.631,0,0,0,3.83-23.367q.016-.3.032-.592c.081-1.584.166-3.4.253-5.35.576-13.086,1.2-32.525,1.2-32.525l-14.437-3.39s-.332,6.389-.19,13.322" transform="translate(-1562.643 -1060.12)" fill="#2a4e96"/>
        <path id="Trazado_613079" data-name="Trazado 613079" d="M1887.528,1293.826c3.659,6.313,10.633,17.943,13.427,22.593.576-13.086,1.2-32.525,1.2-32.525l-14.437-3.39s-.332,6.389-.19,13.322" transform="translate(-1562.643 -1060.12)" fill="#233862"/>
        <path id="Trazado_613080" data-name="Trazado 613080" d="M1866.8,1145.05a47.232,47.232,0,0,1-11.416,2.636c.5-.093,4.142-.815,5.489-2.441,1.447-1.748,3.882-6.5,5.819-4.558.912.912.644,2.715.109,4.363" transform="translate(-1536.056 -943.988)" fill="#6385db"/>
        <path id="Trazado_613081" data-name="Trazado 613081" d="M2047.144,1344.926a22.405,22.405,0,0,1,.749,4.3,15.367,15.367,0,0,1-1.568,4.082c-.546.656-.568-2.852-.93-3.4s-.166,1.31-.457,1.462-.776-1.41-.992-1.964.775-2.481.867-3.863,2.33-.609,2.33-.609" transform="translate(-1692.145 -1113.277)" fill="#ffb27d"/>
        <path id="Trazado_613082" data-name="Trazado 613082" d="M2067.619,1624.651s2.048,1.869,1.648,3.2-2.248,2.213-2.5,3.836-1.249,2.508-2.148,2.508h-4.286s-.662-1.142.936-1.486,2.2-2.251,2.1-4.022a31.183,31.183,0,0,1,.15-4.131l3.4-.787Z" transform="translate(-1705.626 -1344.305)" fill="#1c3154"/>
        <path id="Trazado_613083" data-name="Trazado 613083" d="M1902.022,1280.786s13.515,28.917,20.707,41.605,9.44,16.229,9.44,16.229,4.121-1.623,4.5-2.729c0,0-2.75-24.5-7.567-30.466-2.722-3.374-5.919-13.5-6.068-17.041s-3.307-11.992-3.307-11.992Z" transform="translate(-1574.671 -1056.716)" fill="#2a4e96"/>
        <path id="Trazado_613084" data-name="Trazado 613084" d="M1887.291,1102.867a23.422,23.422,0,0,0,11.879,6.167c3.282.628,9.944,1.235,11.6-1.1a4.179,4.179,0,0,0,.306-2.629c-.223-3.3-1.052-9.668,2.691-22.475a21.822,21.822,0,0,0,.72-3.423c.817-6.552.728-11.5-4.956-14.14-8.517-3.959-12.012-.7-12.012-.7a14.265,14.265,0,0,0-6.6,8.285c-4.139,12.339-3.625,30.017-3.625,30.017" transform="translate(-1562.459 -880.302)" fill="#739af0"/>
        <path id="Trazado_613085" data-name="Trazado 613085" d="M1955.565,1027.432a6.323,6.323,0,0,1-6.362.417,7.288,7.288,0,0,1-.116-2.614c.046-1.226.162-2.429.162-2.429l3.03-1.989,2.892-1.9c-.347,6.524,1.041,8.05.393,8.513" transform="translate(-1613.61 -843.556)" fill="#ffb27d"/>
        <path id="Trazado_613086" data-name="Trazado 613086" d="M1954.819,1030.738a9.313,9.313,0,0,1-5.576,3.622c.046-1.226.177-2.577.177-2.577l3.015-1.842Z" transform="translate(-1613.766 -852.682)" fill="#ed985f"/>
        <path id="Trazado_613087" data-name="Trazado 613087" d="M1930.622,979.9s7.332,2.736,8.963-1.781,3.676-7.206-.936-9.144-6.149-.54-7.067.835-2.826,9.262-.961,10.09" transform="translate(-1597.696 -801.422)" fill="#ffb27d"/>
        <path id="Trazado_613088" data-name="Trazado 613088" d="M1939.756,955.167c.084-.065.255-.1.613-.047a1.46,1.46,0,0,0-.623-.316,1.81,1.81,0,0,0-.87-1.8,1.08,1.08,0,0,1,.362.865c-.78-1.2-2.732-2.344-8.63-3.033-7.772-.908-6.218,4.49-5.342,5.27s3.685-.329,5.5.182,1.641,3.248,2.195,3.737.435-.206,1.359-.422.726,1.2.3,2.069.5,2.3.5,2.3l1.427-1.035c1.427-1.034,3.6-6.182,3.286-7.431-.027-.11-.054-.222-.082-.334" transform="translate(-1593.3 -787.102)" fill="#2c3a64"/>
        <path id="Trazado_613089" data-name="Trazado 613089" d="M2003.708,1181.615c-.222-3.3-1.052-9.669,2.692-22.475a21.861,21.861,0,0,0,.72-3.423h0c-2.781-.917-7.849,1.123-7.849,1.123s-1.191,16.928,4.438,24.775" transform="translate(-1655.095 -956.613)" fill="#6385db"/>
        <path id="Trazado_613090" data-name="Trazado 613090" d="M1966.767,1079.679s3.422,1.245,5.6,10.305c1.442,5.987,4.1,14.786,4.4,17.551s-3.035,18.954-3.035,18.954a2.171,2.171,0,0,1-1.623.112,2.68,2.68,0,0,1-1.616-.966s-.8-10.79-.591-15.885c.086-2.117-9.8-15.5-15.133-17.226-2.1-.677,12-12.846,12-12.846" transform="translate(-1618.165 -893.859)" fill="#739af0"/>
        <path id="Trazado_613091" data-name="Trazado 613091" d="M1747.373,933.215a113.83,113.83,0,0,1,21.306,1.82l1.192-3,1.308-3.292s-11.459-4.933-18.347-11.8Z" transform="translate(-1446.639 -759.124)" fill="#aec3ff"/>
        <path id="Trazado_613092" data-name="Trazado 613092" d="M1747.475,915.5l-5.679,16.764a1.51,1.51,0,0,1-.995-1.954l5-14.085a1.247,1.247,0,0,1,1.676-.725" transform="translate(-1441.125 -757.849)" fill="#727997"/>
        <path id="Trazado_613093" data-name="Trazado 613093" d="M1803.58,1017.459h0a2.053,2.053,0,0,0,2.409-1.606l1.955-9.784a2.047,2.047,0,0,0-4.015-.8l-1.955,9.784a2.053,2.053,0,0,0,1.607,2.409" transform="translate(-1491.809 -830.89)" fill="#727997"/>
        <path id="Trazado_613094" data-name="Trazado 613094" d="M1747.373,1002.275a113.824,113.824,0,0,1,21.306,1.82l1.192-3.005c-10.725-2.19-22.5,1.185-22.5,1.185" transform="translate(-1446.639 -828.184)" fill="#739af0"/>
        <path id="Trazado_613095" data-name="Trazado 613095" d="M1852.831,982.994l3.09.544c-.047,0,2.871.568,3.827-2.018a2.093,2.093,0,0,0,.184-.558c.743-3.224-1.026-3.818-1.026-3.818l-3.978-1.55-1.264,4.472v.016Z" transform="translate(-1533.946 -807.687)" fill="#727997"/>
        <path id="Trazado_613096" data-name="Trazado 613096" d="M1852.831,1004.507l3.09.544c-.047,0,2.871.568,3.827-2.018-1.748-1.272-6.085-1.454-6.085-1.454v.016Z" transform="translate(-1533.946 -829.2)" fill="#727997"/>
        <path id="Trazado_613097" data-name="Trazado 613097" d="M1806.557,1028.567s1.512.6,1.235,1.268-2.2,1.582-2.5,1.056.317-2.886,1.268-2.324" transform="translate(-1494.522 -851.473)" fill="#ffb27d"/>
        <path id="Trazado_613098" data-name="Trazado 613098" d="M1830.455,1044.116a21.218,21.218,0,0,0,.3-2.257c.018-.711.1-1.291-.066-1.311s-.288.111-.357.339-.33,1.646-.33,1.646l.132,1.368Z" transform="translate(-1515.049 -861.461)" fill="#ffb27d"/>
        <path id="Trazado_613099" data-name="Trazado 613099" d="M922.147,1050.789l-8.566,101.853s-.9,6.174,3.695,6.185c7.551.018,37.584,0,37.584,0s-5.683-1.285-5.614-4.177c.081-3.409,10.012-104.825,10.012-104.825Z" transform="translate(-756.289 -869.143)" fill="#7599ea"/>
        <path id="Trazado_613100" data-name="Trazado 613100" d="M969.561,1148.13c-1.485,0-30.561.054-37.914-.041-3.2-.04-3.766-2.849-3.793-4.668a9.1,9.1,0,0,1,.1-1.516l.223-2.647.568-6.747.5-5.961.645-7.66.543-6.466,6.087-72.374,37.111-.963s-4.182,42.442-7.141,73.337c-.33,3.442-.645,6.743-.935,9.824q-.142,1.476-.273,2.882c-.274,2.923-.525,5.607-.743,7.977-.115,1.249-.221,2.41-.317,3.473-.377,4.166-.6,6.827-.6,7.333a4.283,4.283,0,0,0,.072.824c.609,3.246,5.315,3.393,5.872,3.393" transform="translate(-768.163 -860.253)" fill="#90aff4"/>
        <path id="Trazado_613101" data-name="Trazado 613101" d="M440.034,733.388,460.9,817.2l2.857,11.479,9.718,39.037H654.023L618.2,733.388Z" transform="translate(-364.301 -607.167)" fill="#aec3ff"/>
        <path id="Trazado_613102" data-name="Trazado 613102" d="M426.122,733.387l-2.892.964,32.488,136.281,3.845-2.915Z" transform="translate(-350.389 -607.166)" fill="#90aff4"/>
        <path id="Trazado_613103" data-name="Trazado 613103" d="M612,1516.8H791.435l4.955-2.915H615.843Z" transform="translate(-506.67 -1253.337)" fill="#7599ea"/>
        <rect id="Rectángulo_379828" data-name="Rectángulo 379828" width="38.851" height="1.846" transform="translate(168.342 287.877)" fill="#aec3ff"/>
        <path id="Trazado_613104" data-name="Trazado 613104" d="M969.756,1530.822l-.2,1.411-36.537,7.381.5-5.961.239-2.832Z" transform="translate(-772.439 -1267.357)" fill="#5888dd"/>
        <g id="Grupo_1074885" data-name="Grupo 1074885" transform="translate(159.691 276.327)" opacity="0.4">
          <g id="Grupo_1074884" data-name="Grupo 1074884">
            <g id="Grupo_1074883" data-name="Grupo 1074883" clip-path="url(#clip-path-4)">
              <path id="Trazado_613105" data-name="Trazado 613105" d="M969.567,1617.105c-1.485,0-30.561.054-37.914-.041-3.2-.04-3.767-2.849-3.793-4.668l36.365-6.842c-.377,4.166-.6,6.827-.6,7.333a4.284,4.284,0,0,0,.072.824c.609,3.246,5.315,3.393,5.872,3.393" transform="translate(-927.859 -1605.555)" fill="#5888dd"/>
            </g>
          </g>
        </g>
        <path id="Trazado_613106" data-name="Trazado 613106" d="M440.032,733.387H618.2L647.11,841.345h-180.2Z" transform="translate(-364.3 -607.166)" fill="#aec3ff"/>
        <path id="Trazado_613107" data-name="Trazado 613107" d="M674.2,864.487H507.384l-5.961-23.747-2.306-9.189-.94-3.747-6.127-24.4-.318-1.27-3.239-12.9-1.449-5.772-1.236-4.924-2.9-11.542H647.327l3.182,11.542,1.357,4.924,1.591,5.772,10.483,38.026v0l.889,3.221.413,1.5,7.238,26.252Z" transform="translate(-399.799 -634.986)" fill="#fff"/>
        <path id="Trazado_613108" data-name="Trazado 613108" d="M650.513,778.531h-164.7l-2.9-11.543H647.331Z" transform="translate(-399.802 -634.984)" fill="#03386e"/>
        <path id="Trazado_613109" data-name="Trazado 613109" d="M522.221,790.357a1.09,1.09,0,0,1,1.083-1.443,1.971,1.971,0,0,1,1.8,1.443,1.09,1.09,0,0,1-1.083,1.443,1.971,1.971,0,0,1-1.8-1.443" transform="translate(-432.306 -653.136)" fill="#e9f3fe"/>
        <path id="Trazado_613110" data-name="Trazado 613110" d="M550.079,790.357a1.09,1.09,0,0,1,1.083-1.443,1.971,1.971,0,0,1,1.8,1.443,1.09,1.09,0,0,1-1.083,1.443,1.971,1.971,0,0,1-1.8-1.443" transform="translate(-455.37 -653.136)" fill="#e9f3fe"/>
        <path id="Trazado_613111" data-name="Trazado 613111" d="M580.076,790.357a1.09,1.09,0,0,1,1.083-1.443,1.971,1.971,0,0,1,1.8,1.443,1.09,1.09,0,0,1-1.083,1.443,1.971,1.971,0,0,1-1.8-1.443" transform="translate(-480.204 -653.136)" fill="#e9f3fe"/>
        <path id="Trazado_613112" data-name="Trazado 613112" d="M1201.281,64.9c6.743-7.917,17.14-23.819,24.14-31.963a2.582,2.582,0,0,0-1.967-4.263h-12.738L1222.731,1.5A1.065,1.065,0,0,0,1220.9.435l-29.051,38.883a1.608,1.608,0,0,0,1.485,2.558l14.421-1.776-8.579,23.568a1.237,1.237,0,0,0,2.1,1.229" transform="translate(-986.458 0.002)" fill="#03386e"/>
        <path id="Trazado_613113" data-name="Trazado 613113" d="M823.537,412.584c1.517-7.78,2.475-22.231,4.077-30.259a1.968,1.968,0,0,0-2.9-2.1l-8.46,4.765-2.182-22.539a.812.812,0,0,0-1.613-.026l-4.751,36.692a1.226,1.226,0,0,0,1.943,1.143l8.914-6.573,3.117,18.862a.943.943,0,0,0,1.857.03" transform="matrix(0.839, -0.545, 0.545, 0.839, -752.318, 187.322)" fill="#03386e"/>
        <path id="Trazado_613114" data-name="Trazado 613114" d="M863.7,605.09,718.749,617.3a14.51,14.51,0,0,1-14.466-20.378L765.7,459.485a14.51,14.51,0,0,1,25.318-2.133l83.542,125.227A14.51,14.51,0,0,1,863.7,605.09" transform="translate(-582.009 -373.292)" fill="#e6efff"/>
        <path id="Trazado_613115" data-name="Trazado 613115" d="M837.675,584.092,692.721,596.3A20.012,20.012,0,0,1,672.77,568.2l61.412-137.44a20.012,20.012,0,0,1,34.918-2.942l83.542,125.227a20.011,20.011,0,0,1-14.967,31.047M751.7,429.949a8.894,8.894,0,0,0-7.468,5.3l-61.412,137.44a9.007,9.007,0,0,0,8.98,12.65l144.954-12.213a9.007,9.007,0,0,0,6.737-13.974L759.946,433.925a8.893,8.893,0,0,0-8.249-3.977" transform="translate(-555.52 -346.811)" fill="#0c5e46"/>
        <path id="Trazado_613116" data-name="Trazado 613116" d="M1084.347,754.132a13.261,13.261,0,0,1,.564-5.264,12.154,12.154,0,0,1,2.481-4.357,13.023,13.023,0,0,1,4.164-3.088,16.243,16.243,0,0,1,5.7-1.464,16.613,16.613,0,0,1,5.911.486,12.949,12.949,0,0,1,4.666,2.344,12.166,12.166,0,0,1,3.174,3.88,13.278,13.278,0,0,1,1.437,5.1,12.964,12.964,0,0,1-.568,5.222,12.244,12.244,0,0,1-2.484,4.314,12.914,12.914,0,0,1-4.208,3.091,16.612,16.612,0,0,1-5.746,1.468,16.241,16.241,0,0,1-5.868-.489,12.983,12.983,0,0,1-4.622-2.347,12.229,12.229,0,0,1-3.171-3.837,12.947,12.947,0,0,1-1.433-5.053m22.41-26.223-20.879,1.759-8.969-71.093,26.8-2.258Z" transform="translate(-891.566 -543.361)" fill="#0c5e46"/>
        <path id="Trazado_613117" data-name="Trazado 613117" d="M597.131,1082.542s.455-1.022.749-1.506,1.552-1.9,1.766-1.581,1.07,2.482.615,3.087.03,1.658-2.233,2.3Z" transform="translate(-494.361 -893.634)" fill="#ffb27d"/>
        <path id="Trazado_613118" data-name="Trazado 613118" d="M451.058,1060.115s11.581,9.667,16.1,8.772c3.531-.7,9.113-2.47,9.113-2.47a3.563,3.563,0,0,1,1.057,3.081s-7.112,6.692-12.179,6.735c-7.92.068-11.655-3.925-11.655-3.925Z" transform="translate(-373.428 -877.662)" fill="#2e8f73"/>
        <path id="Trazado_613119" data-name="Trazado 613119" d="M333.05,1644.167s.336,5.423,1.385,5.5c.14.01,5.321.01,5.321.01l6.615-.038a2.146,2.146,0,0,0-1.977-1.931c-1.934-.337-5.17-1.7-6.341-4.252-1.232-2.688-5,.71-5,.71" transform="translate(-275.73 -1359.75)" fill="#113c68"/>
        <path id="Trazado_613120" data-name="Trazado 613120" d="M330.834,1332.687a13.792,13.792,0,0,0,3.581.673,13.148,13.148,0,0,0,3.343-.477,91.533,91.533,0,0,1,2.462-11.728c1.092-4.228,2.652-9.665,4.871-16.42,6.136-18.67,8-29.592,8.172-30.626.009-.054.013-.082.013-.082l-.02-.009-18.864-8.282s2.332,25.731-.643,35.608a41.567,41.567,0,0,0-1.08,4.732c-1.879,10.728-1.835,26.612-1.835,26.612" transform="translate(-273.895 -1047.893)" fill="#2a4e96"/>
        <path id="Trazado_613121" data-name="Trazado 613121" d="M354.154,1321.154c1.092-4.228,2.652-9.665,4.871-16.42,6.136-18.67,8-29.592,8.172-30.626,0-.031,0-.06-.007-.091l-18.864-8.282s2.332,25.731-.643,35.608c-.417,1.38,6.471,19.811,6.471,19.811" transform="translate(-287.83 -1047.893)" fill="#233862"/>
        <path id="Trazado_613122" data-name="Trazado 613122" d="M418.657,1644.167s.336,5.423,1.385,5.5c.14.01,5.321.01,5.321.01l6.615-.038a2.146,2.146,0,0,0-1.977-1.931c-1.934-.337-5.17-1.7-6.341-4.252-1.232-2.688-5,.71-5,.71" transform="translate(-346.603 -1359.75)" fill="#15447c"/>
        <path id="Trazado_613123" data-name="Trazado 613123" d="M384.32,1269.258a268.543,268.543,0,0,1-2.64,37.147c-2.885,20.473-1.907,29.163-1.907,29.163a19.606,19.606,0,0,1-2.782.707,12.619,12.619,0,0,1-4.127-.478s-4.129-20.48-2.945-30.728-5.655-35.163-5.655-35.163Z" transform="translate(-301.572 -1050.81)" fill="#2a4e96"/>
        <path id="Trazado_613124" data-name="Trazado 613124" d="M403.081,1002.889l3.682,2.414,3.354-.949a8.014,8.014,0,0,0,.784-4.021,25.041,25.041,0,0,0-.132-2.678l-4.968-2.193-1.854-.817c.005.029.144,1.522.164,1.74a12.682,12.682,0,0,1-1.031,6.5" transform="translate(-333.708 -823.461)" fill="#ffb27d"/>
        <path id="Trazado_613125" data-name="Trazado 613125" d="M369.461,1079.465c-4.583,4.425-21.929,3.681-23-1.195s1.166-41.5,8.995-43.805c1.625-.477,10.31,2.33,10.31,2.33a55.07,55.07,0,0,1,2.257,8.1c.173.884.68,10.244,1.059,19,.177,4.1.326,8.06.4,10.963a31.62,31.62,0,0,1-.025,4.6" transform="translate(-286.628 -856.381)" fill="#3dae8d"/>
        <path id="Trazado_613126" data-name="Trazado 613126" d="M410.552,1000.381c1.008,1.7,4.544,3.2,6.418,3.879a25.02,25.02,0,0,0-.132-2.678l-4.968-2.193c-1.1-.014-1.767.231-1.318.992" transform="translate(-339.776 -827.387)" fill="#fca56b"/>
        <path id="Trazado_613127" data-name="Trazado 613127" d="M404.946,947s-8,2.5-9.483-2.512-3.507-8.06,1.541-9.866,6.61-.189,7.51,1.363,2.476,10.237.432,11.015" transform="translate(-326.01 -773.109)" fill="#ffb27d"/>
        <path id="Trazado_613128" data-name="Trazado 613128" d="M387.449,922.348s-.51,5.829-1.716,5.576-2.532-.794-2.356.963-1.172,4.769-2.91,4.762c-3.728-.016-7.778-9.581-6.757-11.395,2.944-5.234,18-6.29,13.739.095" transform="translate(-309.259 -759.953)" fill="#163560"/>
        <path id="Trazado_613129" data-name="Trazado 613129" d="M408.109,1023.64c-.1-.043-5.959-2.67-6.644-2.444s-1.538,2.318-1.538,2.318l10.311,2.331a5.123,5.123,0,0,0-2.129-2.2" transform="translate(-331.097 -845.43)" fill="#2e8f73"/>
        <path id="Trazado_613130" data-name="Trazado 613130" d="M486.618,1185.187l-32.825,30.9c-.643.606-1.455.8-1.8.429l-1.108-1.177c-.348-.37-.107-1.168.537-1.774l32.825-30.9c.643-.606,1.455-.8,1.8-.429l1.108,1.177c.348.37.107,1.168-.537,1.774" transform="translate(-373.151 -978.61)" fill="#1f4d84"/>
        <path id="Trazado_613131" data-name="Trazado 613131" d="M468.2,1288.924l-14.4,13.562c-.643.606-1.455.8-1.8.429l-1.108-1.177c-.348-.37-.107-1.168.537-1.774l14.4-13.562Z" transform="translate(-373.151 -1065.003)" fill="#739af0"/>
        <path id="Trazado_613132" data-name="Trazado 613132" d="M610.081,972.618a25.728,25.728,0,1,0,42.643-25.855q-.2-.2-.4-.389a25.729,25.729,0,0,0-42.239,26.245m7.354-23.745a23.7,23.7,0,1,1,1.021,33.5,23.67,23.67,0,0,1-1.021-33.5" transform="translate(-504.158 -777.709)" fill="#1f4d84"/>
        <g id="Grupo_1074888" data-name="Grupo 1074888" transform="translate(106.837 163.706)" opacity="0.5">
          <g id="Grupo_1074887" data-name="Grupo 1074887">
            <g id="Grupo_1074886" data-name="Grupo 1074886" clip-path="url(#clip-path-5)">
              <path id="Trazado_613133" data-name="Trazado 613133" d="M661.718,991.12a23.7,23.7,0,1,1-1.021-33.5,23.6,23.6,0,0,1,1.021,33.5" transform="translate(-620.763 -951.187)" fill="#b3cff9"/>
            </g>
          </g>
        </g>
        <path id="Trazado_613134" data-name="Trazado 613134" d="M401.523,1124.73c-18.087-12.888-16.583-30.086-16.583-30.086,6.611,3.728,13.17,11.972,16.18,19.123.177,4.1.326,8.06.4,10.963" transform="translate(-318.664 -906.248)" fill="#2e8f73"/>
        <path id="Trazado_613135" data-name="Trazado 613135" d="M574.741,1228.487a4.933,4.933,0,0,0,2.31-1.427s.544.037-.089,1.2c-.053.1-.171.346-.259.523a.113.113,0,0,0,.095.162,12.036,12.036,0,0,1,2.894.06c.2.041.253.51.245.709a1.811,1.811,0,0,1-.381,1.235,6.321,6.321,0,0,1-2.285,1.2,6.908,6.908,0,0,1-3.536-.444l-1.158-.536.359-2.152.291.061c.462.1,1.034-.467,1.516-.585" transform="translate(-474.031 -1015.874)" fill="#ffb27d"/>
        <path id="Trazado_613136" data-name="Trazado 613136" d="M388.887,1048.272s-16.251,3.094,4.781,26.628c3.364,3.764,21.537,8.665,21.537,8.665s1.843-1.568.914-2.838c0,0-12.513-9.087-15.266-10.531-1.239-.65-4.807-14.5-6.826-17.839a9.1,9.1,0,0,0-5.141-4.084" transform="translate(-316.998 -867.857)" fill="#3dae8d"/>
        <path id="Trazado_613137" data-name="Trazado 613137" d="M599.691,1080.223a8.273,8.273,0,0,0,.635-1.552,8.569,8.569,0,0,1,1.049-2.374c.11-.11.474.032.517.506a2.752,2.752,0,0,1-.261,1.028,11.592,11.592,0,0,0-.344,2.042c-.252.819-1.6.349-1.6.349" transform="translate(-496.48 -891.03)" fill="#ffb27d"/>
        <path id="Trazado_613138" data-name="Trazado 613138" d="M636.053,822.7a.98.98,0,0,0-.175,1.048.009.009,0,0,0,0,.005,6.514,6.514,0,0,0,2.058,2.259c.124.1.234.191.33.276.025.022.051.044.074.066l.057.051c.9.835.564,1.026,2.189,2.719,1.853,1.929,3.13,1.965,3.493,1.789.307-.15-.317-1.173-1.008-2.323-.033-.055-.066-.112-.1-.168-.092-.153-.183-.308-.275-.462-.81-1.384-.6-2.033-.409-4.093.157-1.673,2.607-9.349,2.607-9.349l-3.552-.613s-1.072,6.112-2.251,7.053c-.631.5-1.336.508-1.942.879-.043.026-.085.052-.126.08a4.663,4.663,0,0,0-.972.781" transform="translate(-526.375 -673.829)" fill="#ffb27d"/>
        <path id="Trazado_613139" data-name="Trazado 613139" d="M636.053,861.241a.98.98,0,0,0-.175,1.048.008.008,0,0,0,0,.005,7.545,7.545,0,0,0,2.061,2.252c.123.1.231.2.327.283.025.022.051.044.074.066l.057.051c.9.835.564,1.026,2.189,2.719,1.853,1.93,3.13,1.965,3.493,1.789.307-.15-.317-1.173-1.008-2.323a7.9,7.9,0,0,1-3.3-2.436c-1.075-1.373-1.805-3.123-2.537-4.2l-.209-.039a4.674,4.674,0,0,0-.972.781" transform="translate(-526.375 -712.369)" fill="#233862"/>
        <path id="Trazado_613140" data-name="Trazado 613140" d="M790.066,815.331c.219,1.1,1.782.914,3.529.488s1.331.081,3.817-.193,3.239-1.2,3.315-1.57c.068-.328-1.16-.444-2.477-.6-.166-.019-.332-.039-.5-.06-1.487-.187-2.576-1.147-3.927-1.936-1.279-.747-3.188-3.789-3.188-3.789l-3.409.269s1.788,2.717,2.479,3.9a4.119,4.119,0,0,1,.334,2.323,4.376,4.376,0,0,0,.026,1.166" transform="translate(-651.74 -668.668)" fill="#ffb27d"/>
        <path id="Trazado_613141" data-name="Trazado 613141" d="M807,843.648c1.746-.426,1.331.081,3.817-.193s3.239-1.2,3.315-1.57c.068-.328-1.16-.444-2.478-.6l-.012.025a7.007,7.007,0,0,1-3.56,1.105c-1.686.041-3.472-.443-4.637-.425a4.379,4.379,0,0,0,.026,1.166c.219,1.1,1.782.914,3.529.488" transform="translate(-665.146 -696.496)" fill="#233862"/>
        <path id="Trazado_613142" data-name="Trazado 613142" d="M671.581,699.2l-3.189,8.573-4.164,11.194a6.74,6.74,0,0,1-2.21-.2,9.587,9.587,0,0,1-2.137-1.041S661.04,705.7,663.2,698.8a12.294,12.294,0,0,1,1.855-4.01c3.342-3.947,6.529,4.407,6.529,4.407" transform="translate(-546.311 -574.339)" fill="#233862"/>
        <path id="Trazado_613143" data-name="Trazado 613143" d="M560.788,638.081c-1.814-.586-6.547-.011-11.68.916a3.482,3.482,0,0,1-3.595-1.625l-12.919-1.013s-4.267,9.452-1.935,15.477a2.267,2.267,0,0,0,2.257,1.457h0s7.807.013,10.3.014c6.425,0,13.6-4.412,14.527-4.6,1.519-.3,2.125,2.734,3.643,5.924s14.27,14.128,14.27,14.128a11.227,11.227,0,0,0,2.771-.283,2.729,2.729,0,0,0,1.19-.751S565.5,639.6,560.788,638.081" transform="translate(-438.753 -526.837)" fill="#2a4e96"/>
        <path id="Trazado_613144" data-name="Trazado 613144" d="M511.2,418.129a4.582,4.582,0,0,0-2.467-.643,6.866,6.866,0,0,1-1.191-.073c-4.93-.725-7.9,6.436-8.077,8.6-.321,3.973-2.423,4.578-5.382,7.065-5.934,4.987-4.2,10.785-.953,12.94,1.946,1.293,5.376,0,5.376,0,.048.034,9.383-5.214,13.984-7.745,6.9-.978,1.48-18.5-1.29-20.146" transform="translate(-405.798 -345.531)" fill="#233862"/>
        <path id="Trazado_613145" data-name="Trazado 613145" d="M567.237,491.533a6.08,6.08,0,0,1-3.791.115c-1.437-.635-2.524-3-2.5-3,.653-.03,1.371-.6,1.925-4.35l.278.1,4.678,1.685s-.34,1.5-.559,2.931c-.185,1.2-.284,2.35-.029,2.519" transform="translate(-464.401 -400.947)" fill="#ffb27d"/>
        <path id="Trazado_613146" data-name="Trazado 613146" d="M578.425,486.564s-.187.81-.46,2.323a5.283,5.283,0,0,1-4.218-4.008Z" transform="translate(-475.001 -401.428)" fill="#ed975d"/>
        <path id="Trazado_613147" data-name="Trazado 613147" d="M576.869,449.16s-6.4-.861-5.8-4.84.174-6.768,4.286-6.387,4.676,2.019,4.8,3.4-1.6,7.953-3.283,7.831" transform="translate(-472.749 -362.533)" fill="#ffb27d"/>
        <path id="Trazado_613148" data-name="Trazado 613148" d="M571.087,437.458s-4.1,3.53-6.887,3.814-3.842-.611-3.842-.611a10.884,10.884,0,0,0,2.633-3.564,1.96,1.96,0,0,1,1.616-1.155c1.99-.171,5.764-.248,6.48,1.517" transform="translate(-463.917 -360.843)" fill="#233862"/>
        <path id="Trazado_613149" data-name="Trazado 613149" d="M607.815,439.634a10.092,10.092,0,0,1,1.8,2.309,7.746,7.746,0,0,1,.208,4.119s2.137-4.152.929-6.171c-1.282-2.14-2.939-.258-2.939-.258" transform="translate(-503.206 -363.336)" fill="#233862"/>
        <path id="Trazado_613150" data-name="Trazado 613150" d="M546.178,521.165c-.2,12.958-.057,10.25-1.474,11.48a5.443,5.443,0,0,1-2.566.555c-3.974.262-10.958-.395-11.224-1.129-.915-2.541-.268-3.33-1.032-7.22-.079-.414-.178-.862-.294-1.349-.637-2.672-1.257-3.581,1.007-7.872,2.053-3.887,4.185-7.042,4.376-6.928,5.411,3.214,5.848.514,5.848.514s5.455,5.63,5.358,11.951" transform="translate(-437.956 -421.146)" fill="#6debff"/>
        <path id="Trazado_613151" data-name="Trazado 613151" d="M668.391,732.159l-4.164,11.194a6.741,6.741,0,0,1-2.21-.2,9.579,9.579,0,0,1-2.137-1.041s1.159-12.021,3.317-18.921Z" transform="translate(-546.31 -598.723)" fill="#2a4e96"/>
        <path id="Trazado_613152" data-name="Trazado 613152" d="M597.679,511.7s5.568.946,6.221,3.344,2.8,16.951,2.8,16.951-1.571,1.533-2.878.225-4.111-13.617-4.111-13.617Z" transform="translate(-494.814 -423.631)" fill="#6debff"/>
        <path id="Trazado_613153" data-name="Trazado 613153" d="M546.384,584.944c-3.974.262-10.958-.395-11.224-1.129-.916-2.541-.268-3.33-1.032-7.221l1.918-5.4s-.319,6.009,1.453,7.591,7.255,3.054,8.116,4.375a4.834,4.834,0,0,1,.768,1.78" transform="translate(-442.202 -472.891)" fill="#56c4d5"/>
        <path id="Trazado_613154" data-name="Trazado 613154" d="M578.889,633.458s3.92-.871,4.553-.523a9.2,9.2,0,0,1,2.371,2.056c.193.441-1.408-.335-1.929-.475a4.641,4.641,0,0,0-1.665.364,5.534,5.534,0,0,1-2.984.3Z" transform="translate(-479.258 -523.934)" fill="#ffb27d"/>
        <path id="Trazado_613155" data-name="Trazado 613155" d="M502.56,508.7s-5.264.323-7.087,2.863c-2.566,3.577-7.66,18.821-4.744,20.856,3.283,2.291,14.946.6,14.946.6a4.737,4.737,0,0,0-.151-2.692c-.54-.878-9.314-2.3-9.719-2.7s5.065-7.9,5.065-9.111,1.689-9.818,1.689-9.818" transform="translate(-405.547 -421.147)" fill="#6debff"/>
        <path id="Trazado_613156" data-name="Trazado 613156" d="M606.443,639.669a7.585,7.585,0,0,0,1.09,1.186.8.8,0,0,0,.443.095l-.553-1Z" transform="translate(-502.07 -529.577)" fill="#ffb27d"/>
        <path id="Trazado_613157" data-name="Trazado 613157" d="M605.342,633.329l2.388,1.16a.426.426,0,0,1-.4.153,5.7,5.7,0,0,1-1.036-.285Z" transform="translate(-501.159 -524.328)" fill="#ffb27d"/>
        <path id="Trazado_613158" data-name="Trazado 613158" d="M603.828,649.169l-24.945-.009v.551l24.723.009Z" transform="translate(-479.254 -537.435)" fill="#727997"/>
        <path id="Trazado_613159" data-name="Trazado 613159" d="M612.775,584.407l18.89.007,5.687-14.129-18.861-.006Z" transform="translate(-507.313 -472.129)" fill="#727997"/>
        <path id="Trazado_613160" data-name="Trazado 613160" d="M686.012,607.019a.654.654,0,0,0-.641-.9,1.289,1.289,0,0,0-1.158.9.655.655,0,0,0,.641.9,1.289,1.289,0,0,0,1.158-.9" transform="translate(-566.425 -501.802)" fill="#fff"/>
        <path id="Trazado_613161" data-name="Trazado 613161" d="M1381.539,960.425a5.423,5.423,0,0,0-4.306.221c-7.327.3-7.6,7.811-6.739,10.606,1.208,3.925-3.067,7.021,1.674,8.609,5.5,1.843,10.116-.344,9.8.606,17.395,1.371,5.358-18.121-.43-20.043" transform="translate(-1134.109 -794.859)" fill="#163560"/>
        <path id="Trazado_613162" data-name="Trazado 613162" d="M1341.435,1099.332a19.216,19.216,0,0,1-1.959,2.963c-1.522,1.906-9.511-2.619-8.822-2.963s4.7-11.909,5.658-13.362,4.214-2.208,4.214-2.208Z" transform="translate(-1101.604 -897.239)" fill="#79ccd9"/>
        <path id="Trazado_613163" data-name="Trazado 613163" d="M1511.714,1622.852s2.2,2.012,1.775,3.442-2.42,2.383-2.689,4.13-1.344,2.7-2.312,2.7h-4.615s-.712-1.23,1.009-1.6,2.37-2.424,2.262-4.33a33.575,33.575,0,0,1,.161-4.448l3.657-.847Z" transform="translate(-1244.925 -1342.759)" fill="#1f447f"/>
        <path id="Trazado_613164" data-name="Trazado 613164" d="M1381.272,1632.4s.793,8.524-.175,9l-12.388-.025s0-1.43,1.99-1.747,5.485-1.483,6.077-4.077,4.5-3.151,4.5-3.151" transform="translate(-1133.145 -1351.454)" fill="#1c3154"/>
        <path id="Trazado_613165" data-name="Trazado 613165" d="M1389.409,1090.339a49.323,49.323,0,0,1,0,5.726c-.123,2.07-2.217,4.843-2.514,5.529-.746,1.721-1.586,2-1.586,2l-6.5,1.594-2.287.56-7.212-2.154s-3.285-9.169-1.966-14.33a39.665,39.665,0,0,1,3.334-8.745s4.9-1.1,13.548-.489Z" transform="translate(-1131.753 -893.996)" fill="#6debff"/>
        <path id="Trazado_613166" data-name="Trazado 613166" d="M1441.033,1147.538c-.123,2.07-2.836,4.771-3.134,5.457-.746,1.72-1.586,2-1.586,2l-6.5,1.594-1.174-3.366s9.5-2.5,7.975-11.293Z" transform="translate(-1182.757 -945.397)" fill="#6debff"/>
        <path id="Trazado_613167" data-name="Trazado 613167" d="M1364.619,1225.927s-3.572,11.117-3.8,14.9,6.827,53.769,7.111,55.513c.268,1.644,2.309,2.692,2.309,2.692a3.09,3.09,0,0,0,2.279.176,5.635,5.635,0,0,0,2.447-1.154s2.78-35.649,1.06-48.383a201.733,201.733,0,0,1-1.741-23.747Z" transform="translate(-1126.607 -1014.936)" fill="#233862"/>
        <path id="Trazado_613168" data-name="Trazado 613168" d="M1403.718,1224s5.448,7.31,5.956,12.251.8,22.3,1.879,27.116,5.058,14.088,5.058,29.113a3,3,0,0,1-1.689,1.32,13.837,13.837,0,0,1-1.486.411,2.335,2.335,0,0,1-2.612-1.24c-2.688-5.412-11.25-22.866-11.689-26.489-.311-2.564-3.014-19.534-8.911-29.491-1.416-2.391.869-11.9.869-11.9Z" transform="translate(-1150.574 -1013.343)" fill="#2a4e96"/>
        <path id="Trazado_613169" data-name="Trazado 613169" d="M1378.64,1215.956a7.485,7.485,0,0,0,4.282,1.192c3.4.068,11.833-.867,11.833-.867a6.967,6.967,0,0,1,.359,2.152s-10.3,2.6-16.263.379a3.772,3.772,0,0,1-.212-2.855" transform="translate(-1141.199 -1006.682)" fill="#233862"/>
        <path id="Trazado_613170" data-name="Trazado 613170" d="M1392.285,1223.01a1.771,1.771,0,1,1,1.552-1.757,1.666,1.666,0,0,1-1.552,1.757m0-3a1.263,1.263,0,1,0,1.038,1.243,1.155,1.155,0,0,0-1.038-1.243" transform="translate(-1151.378 -1009.612)" fill="#fff"/>
        <path id="Trazado_613171" data-name="Trazado 613171" d="M1331.9,1172.4l-15.476.145-7.615-17.9,15.476-.145Z" transform="translate(-1083.553 -955.804)" fill="#b5453c"/>
        <path id="Trazado_613172" data-name="Trazado 613172" d="M1393.024,1197.871l-1.134-1.394a3.993,3.993,0,0,0-1.325-.8c-.557-.116-1.733-.795-1.848-.6s.9,1.555.9,1.555l.052.007c-1.169.879-4.118.1-4.482.462-.441.434.607,1.374,1.17,1.9a4.131,4.131,0,0,0,3.426,1.016c.917-.286,2.36-.576,2.36-.576Z" transform="translate(-1146.703 -989.364)" fill="#ffb27d"/>
        <path id="Trazado_613173" data-name="Trazado 613173" d="M1315.093,1170.176s.973-1.105,1.592-.575-.162,3.139-.752,2.874-1.179-1.974-.84-2.3" transform="translate(-1088.674 -968.185)" fill="#ffb27d"/>
        <path id="Trazado_613174" data-name="Trazado 613174" d="M1429.138,1080.923s4.43.489,7.609,6.265c2.507,4.555,6.793,12.953,5.176,15.325-.71,1.042-7.516,4.747-20.643,2.629a3.971,3.971,0,0,1,1.266-2.427s11.047-3.547,11.028-4.252c-.036-1.335-1.493-2.488-7.664-8.66-1.678-1.678,3.227-8.88,3.227-8.88" transform="translate(-1176.669 -894.889)" fill="#79ccd9"/>
        <path id="Trazado_613175" data-name="Trazado 613175" d="M1414.94,1049.7c.152-.2-.044-.855-.287-2.067a22.643,22.643,0,0,1-.586-4.707l-.327.055-5.49.924s.125,1.468.128,2.851c0,.012,0,.023,0,.035.007,1.2-.324,3.016.081,3.253,2.081,1.219,5.9.442,6.481-.344" transform="translate(-1165.88 -863.431)" fill="#ffb27d"/>
        <path id="Trazado_613176" data-name="Trazado 613176" d="M1408.249,1044.168s.109,2.07.113,3.453c3.073-.073,4.713-3.057,5.378-4.377Z" transform="translate(-1165.88 -863.694)" fill="#e8945b"/>
        <path id="Trazado_613177" data-name="Trazado 613177" d="M1388.192,1001.887s7.2-1.025,6.49-5.5-.255-7.617-4.88-7.152-5.246,2.313-5.373,3.863,1.873,8.938,3.763,8.786" transform="translate(-1146.154 -818.945)" fill="#ffb27d"/>
        <path id="Trazado_613178" data-name="Trazado 613178" d="M1396.578,985.882s2.8,4.933,5.942,5.229,4.32-.722,4.32-.722a8.65,8.65,0,0,1-3.6-4.6s-5.579-2.638-6.664.095" transform="translate(-1156.218 -815.178)" fill="#163560"/>
        <path id="Trazado_613179" data-name="Trazado 613179" d="M1384.024,990.659a4.509,4.509,0,0,0-1.8,1.936,7.318,7.318,0,0,0-.317,4.26s-2.049-3.33-.706-5.612c1.424-2.42,2.824-.583,2.824-.583" transform="translate(-1143.109 -819.607)" fill="#163560"/>
        <path id="Trazado_613180" data-name="Trazado 613180" d="M399.5,1684.677H.5a.5.5,0,0,1-.5-.5v-.288a.5.5,0,0,1,.5-.5h399a.5.5,0,0,1,.5.5v.288a.5.5,0,0,1-.5.5" transform="translate(0 -1393.669)" fill="#233862"/>
      </g>
    </g>
  </g>
</svg>
