<svg xmlns="http://www.w3.org/2000/svg" width="141" height="141" viewBox="0 0 141 141">
  <g id="Grupo_1075181" data-name="Grupo 1075181" transform="translate(-317 -1902.263)">
    <g id="Grupo_1074906" data-name="Grupo 1074906" transform="translate(0 -141)">
      <g id="Grupo_1074450" data-name="Grupo 1074450" transform="translate(48 1085.263)">
        <circle id="Elipse_5614" data-name="Elipse 5614" cx="70.5" cy="70.5" r="70.5" transform="translate(269 958)" fill="#fff"/>
      </g>
      <g id="Grupo_1074897" data-name="Grupo 1074897" transform="translate(-0.863 -2.948)">
        <g id="hora" transform="translate(340 2069.845)">
          <path id="Trazado_613182" data-name="Trazado 613182" d="M69.188,99.286A16.735,16.735,0,0,1,92.265,83.8,43.157,43.157,0,1,0,72.64,109.464,16.658,16.658,0,0,1,69.188,99.286Z" transform="translate(-6.066 -27.732)" fill="#74b9df"/>
          <g id="Grupo_1074894" data-name="Grupo 1074894" transform="translate(1.436 1.436)" opacity="0.1">
            <path id="Trazado_613183" data-name="Trazado 613183" d="M12.75,72.323A43.155,43.155,0,0,1,53.282,29.25c-.868-.052-1.743-.082-2.624-.082a43.155,43.155,0,1,0,0,86.31c.881,0,1.756-.03,2.624-.082A43.156,43.156,0,0,1,12.75,72.323Z" transform="translate(-7.503 -29.168)"/>
          </g>
          <path id="Trazado_613184" data-name="Trazado 613184" d="M109.425,139.525a16.735,16.735,0,0,1,13.4-16.4A33.639,33.639,0,1,0,109.461,140.6C109.438,140.246,109.425,139.887,109.425,139.525Z" transform="translate(-46.303 -67.971)" fill="#fff"/>
          <g id="Grupo_1074895" data-name="Grupo 1074895" transform="translate(10.963 10.963)" opacity="0.1">
            <path id="Trazado_613185" data-name="Trazado 613185" d="M63.521,112.561a33.63,33.63,0,0,1,30.5-33.482c-1.03-.095-2.072-.146-3.127-.146a33.628,33.628,0,1,0,0,67.256c1.055,0,2.1-.051,3.127-.146A33.631,33.631,0,0,1,63.521,112.561Z" transform="translate(-57.267 -78.933)"/>
          </g>
          <circle id="Elipse_6024" data-name="Elipse 6024" cx="4.685" cy="4.685" r="4.685" transform="translate(39.906 39.907)" fill="#ef5a50"/>
          <path id="Trazado_613186" data-name="Trazado 613186" d="M126.654,244.034a.96.96,0,0,1-.958.958h-8.434a.96.96,0,0,1-.958-.958v-4.043a.96.96,0,0,1,.958-.958H125.7a.96.96,0,0,1,.958.958Z" transform="translate(-94.04 -197.421)" fill="#abccd3"/>
          <path id="Trazado_613187" data-name="Trazado 613187" d="M363.184,324.779a16.729,16.729,0,1,1-16.729-16.73A16.73,16.73,0,0,1,363.184,324.779Z" transform="translate(-266.605 -253.225)" fill="#86d5b5"/>
          <g id="Grupo_1074896" data-name="Grupo 1074896" transform="translate(63.122 54.824)" opacity="0.1">
            <path id="Trazado_613188" data-name="Trazado 613188" d="M333.288,324.779a16.731,16.731,0,0,1,14.947-16.635,16.73,16.73,0,1,0,0,33.271A16.732,16.732,0,0,1,333.288,324.779Z" transform="translate(-329.726 -308.049)"/>
          </g>
          <path id="Trazado_613190" data-name="Trazado 613190" d="M207.075,127.308a1.436,1.436,0,0,0-1.436,1.436v16.981a6.121,6.121,0,1,0,7.385,7.386h12.717a1.436,1.436,0,0,0,0-2.873H213.024a6.141,6.141,0,0,0-4.513-4.513V128.744A1.436,1.436,0,0,0,207.075,127.308Zm3.249,24.367a3.249,3.249,0,1,1-3.249-3.249A3.252,3.252,0,0,1,210.323,151.675Z" transform="translate(-162.483 -107.084)"/>
          <path id="Trazado_613191" data-name="Trazado 613191" d="M111.2,231.529a2.4,2.4,0,0,0-2.394,2.394v4.043a2.4,2.4,0,0,0,2.394,2.394h8.434a2.4,2.4,0,0,0,2.394-2.394v-4.043a2.4,2.4,0,0,0-2.394-2.394Zm7.956,5.958h-7.477V234.4h7.477Z" transform="translate(-87.973 -191.353)"/>
          <path id="Trazado_613192" data-name="Trazado 613192" d="M87.892,76.934a44.6,44.6,0,1,0-43.3,33.914h0a44.877,44.877,0,0,0,9.31-.974,1.436,1.436,0,0,0-.6-2.81,41.992,41.992,0,0,1-8.713.911h0A41.692,41.692,0,1,1,85.2,75.856a18.1,18.1,0,0,0-5.345-.8q-.67,0-1.327.049a35.217,35.217,0,0,0-.062-17.95,1.436,1.436,0,0,0-2.775.744,32.214,32.214,0,0,1,1.06,6.923H74.07a1.436,1.436,0,0,0,0,2.873h2.681A32,32,0,0,1,75.4,75.607a18.2,18.2,0,0,0-13.71,17.613c0,.1,0,.2,0,.3a31.981,31.981,0,0,1-15.662,4.9V95.735a1.436,1.436,0,0,0-2.873,0v2.68A32.069,32.069,0,0,1,22.878,90l1.885-1.884a1.436,1.436,0,1,0-2.031-2.032L20.847,87.97A32.067,32.067,0,0,1,12.4,66.544h2.319a1.436,1.436,0,0,0,0-2.873H12.5a32.076,32.076,0,0,1,8.343-19.128l1.885,1.885A1.436,1.436,0,1,0,24.763,44.4l-1.885-1.884A32.069,32.069,0,0,1,43.155,34.1v2.679a1.436,1.436,0,1,0,2.873,0V34.1a32.015,32.015,0,0,1,20.285,8.4L64.42,44.4a1.436,1.436,0,0,0,2.032,2.031l1.892-1.892a32.285,32.285,0,0,1,3.941,5.3,1.436,1.436,0,1,0,2.469-1.468,35.067,35.067,0,1,0-30.162,52.956,34.842,34.842,0,0,0,17.425-4.647,18.063,18.063,0,0,0,2.487,6.254q-1.75.949-3.609,1.742a1.436,1.436,0,0,0,1.124,2.644,44.872,44.872,0,0,0,4.231-2.068A18.151,18.151,0,0,0,89.823,108.4a1.436,1.436,0,1,0-1.579-2.4,15.282,15.282,0,1,1,4.86-5.151,1.436,1.436,0,0,0,2.488,1.436,18.169,18.169,0,0,0-7.7-25.356Z" transform="translate(0 -21.665)"/>
          <g id="Unión_29" data-name="Unión 29" transform="translate(67.534 64.051)" fill="#fff">
            <path d="M 10.71557235717773 14.03833389282227 C 10.52990436553955 14.0383472442627 10.35162162780762 13.98519802093506 10.18570137023926 13.88038444519043 L 1.434271335601807 8.349094390869141 C 1.13823139667511 8.16202449798584 0.9685013890266418 7.854104042053223 0.9685013890266418 7.504204273223877 C 0.9685013890266418 7.154304027557373 1.13823139667511 6.846384048461914 1.434181332588196 6.659374237060547 L 10.18587112426758 1.127914071083069 C 10.35196113586426 1.022873997688293 10.53020095825195 0.9696940183639526 10.71589183807373 0.9696940183639526 C 11.19908142089844 0.9696940183639526 11.72060108184814 1.353204011917114 11.72060108184814 1.972804069519043 L 11.72060108184814 4.131003856658936 L 11.72060108184814 5.131003856658936 L 12.72060108184814 5.131003856658936 L 23.0786018371582 5.131003856658936 L 23.0786018371582 10.25720405578613 L 12.72060108184814 10.25720405578613 L 11.72060108184814 10.25720405578613 L 11.72060108184814 11.25720405578613 L 11.72060108184814 13.03560447692871 C 11.72060108184814 13.65489387512207 11.19891166687012 14.03827381134033 10.71555137634277 14.03833389282227 L 10.71557235717773 14.03833389282227 Z" stroke="none"/>
            <path d="M 10.72020626068115 13.0352144241333 C 10.72033786773682 13.03514385223389 10.72046947479248 13.03507232666016 10.72060108184814 13.03499984741211 L 10.72060108184814 9.257204055786133 L 22.0786018371582 9.257204055786133 L 22.0786018371582 6.131003856658936 L 10.72060108184814 6.131003856658936 L 10.72060108184814 1.972940802574158 C 10.7204532623291 1.973033905029297 10.72030353546143 1.973128080368042 10.7201509475708 1.97322404384613 L 1.969210863113403 7.50420093536377 L 10.71979141235352 13.03495407104492 C 10.71993160247803 13.03504276275635 10.72006893157959 13.03512859344482 10.72020626068115 13.0352144241333 M 10.71567153930664 15.03833389282227 C 10.35828113555908 15.03836441040039 9.99183177947998 14.94074440002441 9.651601791381836 14.72580432891846 L 0.9000014066696167 9.194403648376465 C -0.3419986069202423 8.409604072570801 -0.3419986069202423 6.598803997039795 0.9000014066696167 5.814003944396973 L 9.651601791381836 0.2826040387153625 C 10.98359966278076 -0.5597953796386719 12.72060108184814 0.3978037238121033 12.72060108184814 1.972804069519043 L 12.72060108184814 4.131003856658936 L 24.0786018371582 4.131003856658936 L 24.0786018371582 11.25720405578613 L 12.72060108184814 11.25720405578613 L 12.72060108184814 13.03560447692871 C 12.72060108184814 14.20829391479492 11.75743103027344 15.0382137298584 10.71567153930664 15.03833389282227 Z" stroke="none" fill="#000"/>
          </g>
        </g>
      </g>
    </g>
  </g>
</svg>
