<svg xmlns="http://www.w3.org/2000/svg" width="62.504" height="62.504" viewBox="0 0 62.504 62.504">
  <g id="Group_1075268" data-name="Group 1075268" transform="translate(-521 -17921.555)">
    <g id="Group_1075258" data-name="Group 1075258">
      <g id="Group_1075252" data-name="Group 1075252" transform="translate(240.688 16722.371)">
        <g id="Group_1072053" data-name="Group 1072053" transform="translate(280.313 1199.184)">
          <circle id="Ellipse_4742" data-name="Ellipse 4742" cx="31.252" cy="31.252" r="31.252" transform="translate(0)" fill="#eba325"/>
        </g>
      </g>
      <g id="_OUTLINE" data-name="/ OUTLINE" transform="translate(515.465 17918.555)">
        <path id="Path_614566" data-name="Path 614566" d="M55.983,345.386H49.05A2.082,2.082,0,0,0,47.091,344H42.961a3.475,3.475,0,0,0-3.338,2.537l-2.233,8.039-2.233-8.039A3.475,3.475,0,0,0,31.819,344H27.69a2.082,2.082,0,0,0-1.959,1.386H18.8a2.136,2.136,0,0,0-.351,4.243l10.979,1.83a.69.69,0,0,1,.563.533l1.183,5.323,1.353-.3-1.183-5.323a2.07,2.07,0,0,0-1.687-1.6l-10.979-1.83a.75.75,0,0,1,.123-1.49H25.73a2.082,2.082,0,0,0,1.959,1.386h2.2a.688.688,0,0,1,.49.2l.98.98.98-.98-.98-.98a2.065,2.065,0,0,0-1.47-.609h-2.2a.693.693,0,1,1,0-1.386h4.129a2.085,2.085,0,0,1,2,1.522l2.9,10.442.668-.185.668.185,2.9-10.442a2.085,2.085,0,0,1,2-1.522h4.129a.693.693,0,1,1,0,1.386h-2.2a2.065,2.065,0,0,0-1.47.609l-.98.98.98.98.98-.98a.688.688,0,0,1,.49-.2h2.2a2.082,2.082,0,0,0,1.959-1.386h6.933a.75.75,0,0,1,.123,1.49l-10.979,1.83a2.07,2.07,0,0,0-1.687,1.6l-1.183,5.323,1.353.3,1.183-5.323a.69.69,0,0,1,.563-.533l10.979-1.83a2.136,2.136,0,0,0-.351-4.243Z" transform="translate(-0.604 -299.592)"/>
        <path id="Path_614567" data-name="Path 614567" d="M289.322,16H274.079A2.081,2.081,0,0,0,272,18.079v8.315h1.386V18.079a.694.694,0,0,1,.693-.693h2.079v6.236H281.7V17.386h7.622a.694.694,0,0,1,.693.693V40.944a.694.694,0,0,1-.693.693H274.079a.694.694,0,0,1-.693-.693V39.558H272v1.386a2.081,2.081,0,0,0,2.079,2.079h15.243a2.081,2.081,0,0,0,2.079-2.079V18.079A2.081,2.081,0,0,0,289.322,16Zm-9.007,6.236h-2.772v-4.85h2.772Z" transform="translate(-233.828)"/>
        <path id="Path_614568" data-name="Path 614568" d="M18.079,43.022H33.322A2.081,2.081,0,0,0,35.4,40.944V34.708H34.015v6.236a.694.694,0,0,1-.693.693H18.079a.694.694,0,0,1-.693-.693V18.079a.694.694,0,0,1,.693-.693h2.079v6.236H25.7V17.386h7.622a.694.694,0,0,1,.693.693v4.157H35.4V18.079A2.081,2.081,0,0,0,33.322,16H18.079A2.081,2.081,0,0,0,16,18.079V40.944a2.081,2.081,0,0,0,2.079,2.079Zm3.464-25.637h2.772v4.85H21.543Z"/>
        <path id="Path_614569" data-name="Path 614569" d="M114.68,99.72a1.386,1.386,0,0,0-2.366.98v.406h-6.236A2.081,2.081,0,0,0,104,103.184v1.386a2.081,2.081,0,0,0,2.079,2.079h6.236v.927a1.375,1.375,0,0,0,.9,1.3,1.4,1.4,0,0,0,.493.09,1.375,1.375,0,0,0,1.038-.475l2.782-3.18a2.084,2.084,0,0,0-.094-2.839L114.68,99.72Zm1.8,4.677-2.782,3.179v-2.312h-7.622a.694.694,0,0,1-.693-.693v-1.386a.694.694,0,0,1,.693-.693H113.7V100.7l2.75,2.75a.7.7,0,0,1,.031.946Z" transform="translate(-80.378 -76.098)"/>
        <path id="Path_614570" data-name="Path 614570" d="M250.789,163.412a1.382,1.382,0,0,0-1.51.3l-2.75,2.751a2.084,2.084,0,0,0-.095,2.839l2.782,3.18a1.375,1.375,0,0,0,1.038.475,1.4,1.4,0,0,0,.493-.09,1.375,1.375,0,0,0,.9-1.3v-.927h6.236a2.081,2.081,0,0,0,2.079-2.079v-1.386a2.081,2.081,0,0,0-2.079-2.079h-6.236v-.406A1.382,1.382,0,0,0,250.789,163.412Zm-.525,1.276-.007,0Zm7.617,1.8a.694.694,0,0,1,.693.693v1.386a.694.694,0,0,1-.693.693h-7.622v2.313l-2.782-3.179a.7.7,0,0,1,.032-.946l2.751-2.751v1.792Z" transform="translate(-210.008 -134.547)"/>
      </g>
    </g>
  </g>
</svg>
