<svg xmlns="http://www.w3.org/2000/svg" width="62.504" height="62.504" viewBox="0 0 62.504 62.504">
  <g id="Group_1075269" data-name="Group 1075269" transform="translate(-768 -17921.826)">
    <g id="Group_1075259" data-name="Group 1075259">
      <g id="Group_1075253" data-name="Group 1075253" transform="translate(488.187 16723.109)">
        <g id="Group_1072053" data-name="Group 1072053" transform="translate(279.813 1198.717)">
          <circle id="Ellipse_4742" data-name="Ellipse 4742" cx="31.252" cy="31.252" r="31.252" transform="translate(0)" fill="#eba325"/>
        </g>
      </g>
      <g id="OUTLINE" transform="translate(762.002 17915.826)">
        <rect id="Rectangle_379977" data-name="Rectangle 379977" width="1.836" height="0.918" transform="translate(36.193 20.59)"/>
        <path id="Path_614571" data-name="Path 614571" d="M143.058,131.529a3.529,3.529,0,1,0-3.529,3.529A3.529,3.529,0,0,0,143.058,131.529Zm-5.646,0a2.117,2.117,0,1,1,2.117,2.117A2.117,2.117,0,0,1,137.411,131.529Z" transform="translate(-109.416 -102.119)"/>
        <path id="Path_614572" data-name="Path 614572" d="M58.343,49.17V46.347a.706.706,0,0,0-.706-.706H54.815V43.524a.706.706,0,0,0-.706-.706V20.94a2.12,2.12,0,0,0-2.117-2.117h-8.3a2.112,2.112,0,0,0-1.576-.706H40.5l-.223-.67A2.115,2.115,0,0,0,38.271,16h-2.2a2.115,2.115,0,0,0-2.009,1.448l-.223.67H32.23a2.112,2.112,0,0,0-1.576.706h-8.3a2.12,2.12,0,0,0-2.117,2.117v7.783l-.08-.283A2.117,2.117,0,1,0,16.079,29.6l4.154,14.618V56.228a2.12,2.12,0,0,0,2.117,2.117H58.343V56.934h-.706V49.876a.706.706,0,0,0,.706-.706ZM44.228,20.235h7.763a.707.707,0,0,1,.706.706V42.819H51.286V22.352a.706.706,0,0,0-.706-.706H44.228Zm9.175,24v4.235H44.934V44.23Zm-21.878-24a.707.707,0,0,1,.706-.706h2.117a.706.706,0,0,0,.67-.483l.384-1.152a.7.7,0,0,1,.669-.483h2.2a.7.7,0,0,1,.669.483l.384,1.152a.706.706,0,0,0,.67.483h2.117a.707.707,0,0,1,.706.706v2.823H31.525Zm-9.881.706a.707.707,0,0,1,.706-.706h7.763v1.412H23.761a.706.706,0,0,0-.706.706V38.658L21.644,33.69Zm-4.207,8.272a.706.706,0,1,1,1.358-.386l.386,1.358-1.358.386Zm.772,2.716,1.358-.386,5.921,20.84-.39,1.211-.968-.825Zm12.61,24.3v.706H22.35a.707.707,0,0,1-.706-.706V49.183l1.186,4.176a.706.706,0,0,0,.221.344l1.936,1.651a.706.706,0,0,0,.458.169H30.94a2.107,2.107,0,0,0-.121.706Zm9.881.706H32.23v-.706a.707.707,0,0,1,.706-.706h7.058a.707.707,0,0,1,.706.706Zm-9.175-2.823h-5.11l.483-1.5A.706.706,0,0,0,26.9,52.2l-2.437-8.576V23.058h5.646v.706a.706.706,0,0,0,.706.706h12.7a.706.706,0,0,0,.706-.706v-.706h5.646V42.819H44.228a.706.706,0,0,0-.706.706v2.117H39.994v8.469Zm9.881-6.352v-.706h2.117v1.412H41.405Zm4.235,9.175H42.111V49.876H45.64Zm5.646,0H47.051V49.876h4.235Zm4.94,0H52.7V49.876h3.529Zm.706-8.469H54.815V47.053h2.117Z" transform="translate(0 0)"/>
        <path id="Path_614573" data-name="Path 614573" d="M303.051,140a3.535,3.535,0,0,0-2.823-3.458v-1.554a3.529,3.529,0,1,0-1.411,0v1.554A3.529,3.529,0,1,0,303.051,140Zm-5.646-8.469a2.117,2.117,0,1,1,2.117,2.117A2.117,2.117,0,0,1,297.405,131.532Zm0,8.469a2.117,2.117,0,1,1,2.117,2.117A2.117,2.117,0,0,1,297.405,140Z" transform="translate(-255.294 -102.122)"/>
        <rect id="Rectangle_379978" data-name="Rectangle 379978" width="5.508" height="1.836" transform="translate(46.291 45.375)"/>
        <path id="Path_614574" data-name="Path 614574" d="M194.724,211.2l-1.129.848a11.355,11.355,0,0,0,7.529,4.417l.186-1.4A9.936,9.936,0,0,1,194.724,211.2Z" transform="translate(-161.93 -177.976)"/>
        <rect id="Rectangle_379979" data-name="Rectangle 379979" width="0.918" height="10.098" transform="translate(29.768 34.359)"/>
        <rect id="Rectangle_379980" data-name="Rectangle 379980" width="3.672" height="0.918" transform="translate(35.275 28.852)"/>
        <path id="Path_614575" data-name="Path 614575" d="M143.058,131.529a3.529,3.529,0,1,0-3.529,3.529A3.529,3.529,0,0,0,143.058,131.529Zm-5.646,0a2.117,2.117,0,1,1,2.117,2.117A2.117,2.117,0,0,1,137.411,131.529Z" transform="translate(-109.416 -102.119)"/>
        <path id="Path_614576" data-name="Path 614576" d="M143.058,131.529a3.529,3.529,0,1,0-3.529,3.529A3.529,3.529,0,0,0,143.058,131.529Zm-5.646,0a2.117,2.117,0,1,1,2.117,2.117A2.117,2.117,0,0,1,137.411,131.529Z" transform="translate(-104.005 -85.143)"/>
      </g>
    </g>
  </g>
</svg>
