<svg xmlns="http://www.w3.org/2000/svg" width="167" height="167" viewBox="0 0 167 167">
  <g id="Grupo_1075189" data-name="Grupo 1075189" transform="translate(-716 -7438.826)">
    <g id="Grupo_1074470" data-name="Grupo 1074470" transform="translate(716.537 7439.363)">
      <circle id="Elipse_1142" data-name="Elipse 1142" cx="83.5" cy="83.5" r="83.5" transform="translate(-0.537 -0.537)" fill="#fff"/>
    </g>
    <g id="presupuesto" transform="translate(746.985 7469.274)">
      <path id="Trazado_612971" data-name="Trazado 612971" d="M164.5,18.353V82.321c0,.128,0,.255-.009.383a8.259,8.259,0,0,1-8.251,7.874h-46.43a8.258,8.258,0,0,1-8.259-8.257V8.259A8.246,8.246,0,0,1,109.815,0H146.7a8.233,8.233,0,0,1,3.587.822c2.231,1.074,2.86,2.431,6.869,6.531,4.613,5.009,5.714,5.522,6.654,7.691A8.168,8.168,0,0,1,164.5,18.353Z" transform="translate(-80.245 0)" fill="#ffc477"/>
      <path id="Trazado_612972" data-name="Trazado 612972" d="M189.227,18.353V82.321c0,.128,0,.255-.009.383a8.29,8.29,0,0,1-1.865.211h-46.43a8.258,8.258,0,0,1-8.259-8.257V.6c0-.13,0-.258.008-.385A8.3,8.3,0,0,1,134.537,0h36.881a8.272,8.272,0,0,1,6.035,2.623l4.421,4.73,5.062,5.3a8.313,8.313,0,0,1,2.291,5.7Z" transform="translate(-104.967 0)" fill="#ffdaaa"/>
      <path id="Trazado_612973" data-name="Trazado 612973" d="M303.635,183.762V230.2a11.672,11.672,0,0,1-11.671,11.672H261.634A11.672,11.672,0,0,1,249.963,230.2V183.762a11.667,11.667,0,0,1,11.672-11.672h30.329A11.671,11.671,0,0,1,303.635,183.762Z" transform="translate(-198.187 -136.763)" fill="#4cba68"/>
      <path id="Trazado_612974" data-name="Trazado 612974" d="M322.317,183.762V230.2a11.611,11.611,0,0,1-2.261,6.9,11.62,11.62,0,0,1-4.585.937H285.142a11.672,11.672,0,0,1-11.671-11.671V179.93a11.611,11.611,0,0,1,2.261-6.9,11.619,11.619,0,0,1,4.585-.937h30.329A11.671,11.671,0,0,1,322.317,183.762Z" transform="translate(-216.869 -136.763)" fill="#7ccc92"/>
      <path id="Trazado_612975" data-name="Trazado 612975" d="M367.848,370.907v5.454a1.745,1.745,0,0,1-1.743,1.746h-5.456a1.745,1.745,0,0,1-1.745-1.746v-5.454a1.745,1.745,0,0,1,1.745-1.746H366.1A1.745,1.745,0,0,1,367.848,370.907Z" transform="translate(-284.763 -293.379)" fill="#2c733f"/>
      <path id="Trazado_612976" data-name="Trazado 612976" d="M326.665,209.046v5.843a3.763,3.763,0,0,1-3.763,3.763H292.8a3.765,3.765,0,0,1-3.763-3.763v-5.843a3.765,3.765,0,0,1,3.763-3.763h30.1A3.763,3.763,0,0,1,326.665,209.046Z" transform="translate(-229.238 -163.142)" fill="#1e81ce"/>
      <path id="Trazado_612977" data-name="Trazado 612977" d="M351.387,209.046v5.843a3.763,3.763,0,0,1-3.763,3.763H323.906a3.765,3.765,0,0,1-3.763-3.763v-5.843a3.765,3.765,0,0,1,3.763-3.763h23.717A3.763,3.763,0,0,1,351.387,209.046Z" transform="translate(-253.96 -163.142)" fill="#3d9ae2"/>
      <g id="Grupo_1074811" data-name="Grupo 1074811" transform="translate(59.797 61.52)">
        <path id="Trazado_612978" data-name="Trazado 612978" d="M297.981,370.907v5.454a1.745,1.745,0,0,1-1.746,1.746H290.78a1.747,1.747,0,0,1-1.746-1.746v-5.454a1.747,1.747,0,0,1,1.746-1.746h5.456A1.745,1.745,0,0,1,297.981,370.907Z" transform="translate(-289.034 -354.899)" fill="#2c733f"/>
        <path id="Trazado_612979" data-name="Trazado 612979" d="M367.848,301.432v5.454a1.745,1.745,0,0,1-1.743,1.746h-5.456a1.745,1.745,0,0,1-1.745-1.746v-5.454a1.745,1.745,0,0,1,1.745-1.746H366.1A1.745,1.745,0,0,1,367.848,301.432Z" transform="translate(-344.56 -299.686)" fill="#2c733f"/>
      </g>
      <path id="Trazado_612980" data-name="Trazado 612980" d="M438.558,301.432v5.454a1.745,1.745,0,0,1-1.745,1.746h-5.454a1.745,1.745,0,0,1-1.745-1.746v-5.454a1.745,1.745,0,0,1,1.745-1.746h5.454A1.745,1.745,0,0,1,438.558,301.432Z" transform="translate(-340.958 -238.166)" fill="#ee8700"/>
      <g id="Grupo_1074812" data-name="Grupo 1074812" transform="translate(59.797 61.52)">
        <path id="Trazado_612981" data-name="Trazado 612981" d="M297.981,301.432v5.454a1.745,1.745,0,0,1-1.746,1.746H290.78a1.747,1.747,0,0,1-1.746-1.746v-5.454a1.747,1.747,0,0,1,1.746-1.746h5.456A1.745,1.745,0,0,1,297.981,301.432Z" transform="translate(-289.034 -299.686)" fill="#2c733f"/>
        <path id="Trazado_612982" data-name="Trazado 612982" d="M367.848,436.978v5.456a1.745,1.745,0,0,1-1.743,1.746h-5.456a1.745,1.745,0,0,1-1.745-1.746v-5.456a1.745,1.745,0,0,1,1.745-1.743H366.1A1.744,1.744,0,0,1,367.848,436.978Z" transform="translate(-344.56 -407.409)" fill="#2c733f"/>
        <path id="Trazado_612983" data-name="Trazado 612983" d="M297.981,436.978v5.456a1.745,1.745,0,0,1-1.746,1.746H290.78a1.747,1.747,0,0,1-1.746-1.746v-5.456a1.746,1.746,0,0,1,1.746-1.743h5.456A1.745,1.745,0,0,1,297.981,436.978Z" transform="translate(-289.034 -407.409)" fill="#2c733f"/>
      </g>
      <path id="Trazado_612984" data-name="Trazado 612984" d="M438.558,371.754v16.938a2.976,2.976,0,0,1-2.976,2.978H432.59a2.977,2.977,0,0,1-2.976-2.978V371.754a2.593,2.593,0,0,1,2.593-2.593h3.759A2.592,2.592,0,0,1,438.558,371.754Z" transform="translate(-340.959 -293.379)" fill="#ee8700"/>
      <g id="Grupo_1074813" data-name="Grupo 1074813" transform="translate(59.797 61.52)">
        <path id="Trazado_612985" data-name="Trazado 612985" d="M367.848,370.907v1.622a1.745,1.745,0,0,1-1.743,1.746h-5.456a1.745,1.745,0,0,1-1.745-1.746v-1.622a1.745,1.745,0,0,1,1.745-1.746H366.1A1.745,1.745,0,0,1,367.848,370.907Z" transform="translate(-344.56 -354.899)" fill="#317f46"/>
        <path id="Trazado_612986" data-name="Trazado 612986" d="M297.981,370.907v1.622a1.745,1.745,0,0,1-1.746,1.746H290.78a1.747,1.747,0,0,1-1.746-1.746v-1.622a1.747,1.747,0,0,1,1.746-1.746h5.456A1.745,1.745,0,0,1,297.981,370.907Z" transform="translate(-289.034 -354.899)" fill="#317f46"/>
        <path id="Trazado_612987" data-name="Trazado 612987" d="M367.848,301.432v1.622A1.745,1.745,0,0,1,366.1,304.8h-5.456a1.745,1.745,0,0,1-1.745-1.745v-1.622a1.745,1.745,0,0,1,1.745-1.746H366.1A1.745,1.745,0,0,1,367.848,301.432Z" transform="translate(-344.56 -299.686)" fill="#317f46"/>
      </g>
      <path id="Trazado_612988" data-name="Trazado 612988" d="M438.558,301.432v1.622a1.745,1.745,0,0,1-1.745,1.745h-5.454a1.745,1.745,0,0,1-1.745-1.745v-1.622a1.745,1.745,0,0,1,1.745-1.746h5.454A1.745,1.745,0,0,1,438.558,301.432Z" transform="translate(-340.958 -238.166)" fill="#ff9811"/>
      <g id="Grupo_1074814" data-name="Grupo 1074814" transform="translate(59.797 61.52)">
        <path id="Trazado_612989" data-name="Trazado 612989" d="M297.981,301.432v1.622a1.745,1.745,0,0,1-1.746,1.745H290.78a1.747,1.747,0,0,1-1.746-1.745v-1.622a1.747,1.747,0,0,1,1.746-1.746h5.456A1.745,1.745,0,0,1,297.981,301.432Z" transform="translate(-289.034 -299.686)" fill="#317f46"/>
        <path id="Trazado_612990" data-name="Trazado 612990" d="M367.848,436.978V438.6a1.745,1.745,0,0,1-1.743,1.745h-5.456A1.745,1.745,0,0,1,358.9,438.6v-1.624a1.745,1.745,0,0,1,1.745-1.743H366.1A1.744,1.744,0,0,1,367.848,436.978Z" transform="translate(-344.56 -407.409)" fill="#317f46"/>
        <path id="Trazado_612991" data-name="Trazado 612991" d="M297.981,436.978V438.6a1.745,1.745,0,0,1-1.746,1.745H290.78a1.747,1.747,0,0,1-1.746-1.745v-1.624a1.746,1.746,0,0,1,1.746-1.743h5.456A1.745,1.745,0,0,1,297.981,436.978Z" transform="translate(-289.034 -407.409)" fill="#317f46"/>
      </g>
      <path id="Trazado_612992" data-name="Trazado 612992" d="M438.558,371.754V384.86a2.976,2.976,0,0,1-2.976,2.978H432.59a2.977,2.977,0,0,1-2.976-2.978V371.754a2.593,2.593,0,0,1,2.593-2.593h3.759A2.592,2.592,0,0,1,438.558,371.754Z" transform="translate(-340.959 -293.379)" fill="#ff9811"/>
      <path id="Trazado_612993" data-name="Trazado 612993" d="M352.443,18.224H342.094a3.175,3.175,0,0,1-3.175-3.175V4a8.25,8.25,0,0,1,2.448,1.8l4.423,4.73,5.061,5.3A8.177,8.177,0,0,1,352.443,18.224Z" transform="translate(-268.882 -3.181)" fill="#ffb655"/>
      <g id="Grupo_1074815" data-name="Grupo 1074815" transform="translate(31.822 20.115)">
        <path id="Trazado_612994" data-name="Trazado 612994" d="M166.266,175.2h0c-1.947-.715-3.353-1.232-3.353-3.035,0-1.643,1.091-2.477,3.244-2.477a5.541,5.541,0,0,1,2.8.7,2.033,2.033,0,0,0,.9.308,1.533,1.533,0,0,0,1.361-1.573c0-1.33-2.169-1.99-4.109-2.163v-1.2a1.513,1.513,0,1,0-3.026,0v1.39a4.948,4.948,0,0,0-4.109,5.175c0,3.716,2.736,4.744,4.934,5.57,2.153.809,3.853,1.448,3.853,3.905,0,2.03-1.127,3.059-3.35,3.059a4.047,4.047,0,0,1-3.4-1.5c-.349-.376-.65-.7-1.124-.7a1.6,1.6,0,0,0-1.388,1.573c0,1.258,1.874,2.912,4.586,3.341v1.159a1.513,1.513,0,1,0,3.026,0v-1.19c2.917-.549,4.586-2.691,4.586-5.9C171.7,177.194,168.687,176.088,166.266,175.2Z" transform="translate(-158.12 -150.641)" fill="#4e901e"/>
        <path id="Trazado_612995" data-name="Trazado 612995" d="M323.379,101.178h4.01a1.6,1.6,0,1,0,0-3.193h-4.01a1.6,1.6,0,0,0,0,3.193Z" transform="translate(-287.086 -97.985)" fill="#4e901e"/>
        <path id="Trazado_612996" data-name="Trazado 612996" d="M154.358,101.178H182.67a1.6,1.6,0,1,0,0-3.193H154.358a1.6,1.6,0,1,0,0,3.193Z" transform="translate(-152.762 -97.985)" fill="#4e901e"/>
        <path id="Trazado_612997" data-name="Trazado 612997" d="M159.433,139.78a1.6,1.6,0,1,0,0-3.193h-5.075a1.6,1.6,0,1,0,0,3.193Z" transform="translate(-152.762 -128.663)" fill="#4e901e"/>
        <path id="Trazado_612998" data-name="Trazado 612998" d="M237.433,136.587H210.186a1.6,1.6,0,0,0,0,3.193h27.247a1.6,1.6,0,0,0,0-3.193Z" transform="translate(-197.13 -128.663)" fill="#4e901e"/>
      </g>
      <path id="Trazado_612999" data-name="Trazado 612999" d="M96.19,471.892a4.055,4.055,0,0,1-4.044,4.045H67.367a4.044,4.044,0,0,1,0-8.089H92.145A4.056,4.056,0,0,1,96.19,471.892Z" transform="translate(-49.861 -371.806)" fill="#aa6100"/>
      <path id="Trazado_613000" data-name="Trazado 613000" d="M96.19,432.487a4.055,4.055,0,0,1-4.044,4.044H67.367a4.044,4.044,0,0,1,0-8.089H92.145A4.056,4.056,0,0,1,96.19,432.487Z" transform="translate(-49.861 -340.491)" fill="#cc7400"/>
      <path id="Trazado_613001" data-name="Trazado 613001" d="M96.19,393.083a4.055,4.055,0,0,1-4.044,4.044H67.367a4.044,4.044,0,0,1,0-8.089H92.145A4.056,4.056,0,0,1,96.19,393.083Z" transform="translate(-49.861 -309.176)" fill="#ee8700"/>
      <path id="Trazado_613002" data-name="Trazado 613002" d="M96.19,353.681a4.055,4.055,0,0,1-4.044,4.044H67.367a4.056,4.056,0,0,1-4.044-4.044,4.055,4.055,0,0,1,4.044-4.044H92.145A4.056,4.056,0,0,1,96.19,353.681Z" transform="translate(-49.861 -277.862)" fill="#ff9811"/>
      <path id="Trazado_613003" data-name="Trazado 613003" d="M92.146,318.322H67.369a4.056,4.056,0,0,1-4.044-4.044h0a4.056,4.056,0,0,1,4.044-4.044H92.146a4.056,4.056,0,0,1,4.044,4.044h0A4.057,4.057,0,0,1,92.146,318.322Z" transform="translate(-49.862 -246.548)" fill="#ffa733"/>
      <path id="Trazado_613004" data-name="Trazado 613004" d="M18.386,381.232v26.33H14.356a13.131,13.131,0,0,1-9.315-3.316c-8.953-7.945-3.5-22.507,8.188-23.014Z" transform="translate(0 -302.972)" fill="#cc7400"/>
      <path id="Trazado_613005" data-name="Trazado 613005" d="M52.149,394.83a13.175,13.175,0,0,1-26.33.087c0-.03,0-.058,0-.087a13.175,13.175,0,0,1,26.33-1.038Q52.168,394.316,52.149,394.83Z" transform="translate(-20.047 -302.928)" fill="#ffc477"/>
      <path id="Trazado_613006" data-name="Trazado 613006" d="M53.987,416.8c-.161.036-.32.068-.481.1a9.857,9.857,0,1,1,.481-.1Z" transform="translate(-32.871 -315.76)" fill="#cc7400"/>
      <path id="Trazado_613007" data-name="Trazado 613007" d="M67.216,417.38c-.161.036-.32.068-.481.1a9.862,9.862,0,0,1-.463-19.328c.16-.036.32-.068.48-.1a9.862,9.862,0,0,1,.464,19.328Z" transform="translate(-46.1 -316.339)" fill="#ee8700"/>
      <path id="Trazado_613008" data-name="Trazado 613008" d="M52.183,447.684a13.175,13.175,0,0,1-26.329.087c0-.03,0-.058,0-.087h3.315A9.872,9.872,0,0,0,41.2,456.823a9.859,9.859,0,0,0,7.669-9.139Z" transform="translate(-20.081 -355.782)" fill="#ffa733"/>
      <g id="Grupo_1074816" data-name="Grupo 1074816" transform="translate(0.615 82.728)">
        <path id="Trazado_613009" data-name="Trazado 613009" d="M75.434,409.69l-.247-.091c-1.4-.515-1.545-.679-1.545-1.154,0-.4.147-.515.286-.592a2.06,2.06,0,0,1,.951-.185,2.591,2.591,0,0,1,1.358.341,1.819,1.819,0,0,0,.862.262,1.615,1.615,0,0,0,1.522-1.649c0-.971-.868-1.64-2.461-1.914v-.1a1.613,1.613,0,0,0-3.227,0v.306a3.62,3.62,0,0,0-2.461,3.626c0,2.715,1.973,3.457,3.414,4,1.374.516,1.849.742,1.849,1.677,0,.584-.157,1.125-1.3,1.125a1.75,1.75,0,0,1-1.519-.67,1.609,1.609,0,0,0-1.192-.645,1.663,1.663,0,0,0-1.538,1.649c0,1.1,1.147,2.15,2.747,2.574v.121a1.613,1.613,0,0,0,3.227,0V418.2a3.989,3.989,0,0,0,2.746-4.086C78.9,410.984,76.647,410.142,75.434,409.69Z" transform="translate(-55.93 -402.994)" fill="#aa6100"/>
        <path id="Trazado_613010" data-name="Trazado 613010" d="M10.573,409.992a13.133,13.133,0,0,0-1.537,3.184H3.895a12.97,12.97,0,0,1,1.535-3.184Z" transform="translate(-3.248 -408.555)" fill="#aa6100"/>
        <path id="Trazado_613011" data-name="Trazado 613011" d="M5.989,441.086H.846A13.253,13.253,0,0,1,.831,437.9H5.977A13.207,13.207,0,0,0,5.989,441.086Z" transform="translate(-0.742 -430.736)" fill="#aa6100"/>
        <path id="Trazado_613012" data-name="Trazado 613012" d="M11.091,469.7H5.945a13.072,13.072,0,0,1-1.626-3.184H9.463A12.99,12.99,0,0,0,11.091,469.7Z" transform="translate(-3.585 -453.476)" fill="#aa6100"/>
      </g>
    </g>
  </g>
</svg>
