<svg xmlns="http://www.w3.org/2000/svg" width="167" height="167" viewBox="0 0 167 167">
  <g id="Grupo_1075187" data-name="Grupo 1075187" transform="translate(-716 -7204.826)">
    <g id="Grupo_1074469" data-name="Grupo 1074469" transform="translate(716.537 7205.363)">
      <circle id="Elipse_1142" data-name="Elipse 1142" cx="83.5" cy="83.5" r="83.5" transform="translate(-0.537 -0.537)" fill="#fff"/>
    </g>
    <g id="velocimetro" transform="translate(738 7214.292)">
      <path id="Trazado_613040" data-name="Trazado 613040" d="M385.37,91.514l-8.852,5.027-7.38,11.206a38.264,38.264,0,0,1,2.9,50.856,4.918,4.918,0,0,0,.38,6.537l9.312,9.312a4.929,4.929,0,0,0,7.26-.316,61.221,61.221,0,0,0-3.623-82.622Z" transform="translate(-280.865 -57.05)" fill="#e94444"/>
      <path id="Trazado_613041" data-name="Trazado 613041" d="M22.957,134.8a38.141,38.141,0,0,1,11.206-27.055l-7.38-11.206L17.93,91.514a61.221,61.221,0,0,0-3.623,82.622,4.929,4.929,0,0,0,7.26.316l9.312-9.312a4.919,4.919,0,0,0,.38-6.537A38.1,38.1,0,0,1,22.957,134.8Z" transform="translate(0 -57.05)" fill="#80d261"/>
      <path id="Trazado_613042" data-name="Trazado 613042" d="M118.268,39.491A38.141,38.141,0,0,1,145.323,50.7l16.233-16.233a61.218,61.218,0,0,0-86.575,0L91.214,50.7A38.141,38.141,0,0,1,118.268,39.491Z" transform="translate(-57.051)" fill="#ffc344"/>
      <path id="Trazado_613043" data-name="Trazado 613043" d="M401.068,91.514l-3.779,2.146a61.264,61.264,0,0,1,3.661,66.833,12.572,12.572,0,0,1-11.18,6.3l7.662,7.662a4.929,4.929,0,0,0,7.26-.316,61.22,61.22,0,0,0-3.623-82.621Z" transform="translate(-296.563 -57.05)" fill="#d83131"/>
      <path id="Trazado_613044" data-name="Trazado 613044" d="M367.164,50.893l3.1-3.1a61.283,61.283,0,0,0-20.982-13.74A61.546,61.546,0,0,1,367.164,50.893Z" transform="translate(-265.754 -13.333)" fill="#feb237"/>
      <path id="Trazado_613045" data-name="Trazado 613045" d="M218.163,395.88l-15.209-26.343a2.005,2.005,0,0,0-3.473,0L184.271,395.88a2.005,2.005,0,0,0,1.736,3.008h30.419A2.005,2.005,0,0,0,218.163,395.88Z" transform="translate(-139.999 -267.825)" fill="#ffc344"/>
      <path id="Trazado_613046" data-name="Trazado 613046" d="M271.979,222.37l-5.927,3.913L261.1,207.8l7.089.425a30.8,30.8,0,0,0,9.815-.994L300.9,201.1a5.739,5.739,0,0,1,2.971,11.087l-22.891,6.134A30.783,30.783,0,0,0,271.979,222.37Z" transform="translate(-198.663 -140.282)" fill="#004281"/>
      <circle id="Elipse_6020" data-name="Elipse 6020" cx="11.5" cy="11.5" r="11.5" transform="translate(50 66.13)" fill="#0067c5"/>
      <g id="Grupo_1074870" data-name="Grupo 1074870" transform="translate(59.424 110.393)">
        <g id="Grupo_1074869" data-name="Grupo 1074869">
          <path id="Trazado_613047" data-name="Trazado 613047" d="M250.293,416.446a1.793,1.793,0,0,1-1.793-1.793v-3.826a1.793,1.793,0,0,1,3.587,0v3.826A1.793,1.793,0,0,1,250.293,416.446Z" transform="translate(-248.5 -409.033)" fill="#0055a3"/>
        </g>
      </g>
      <g id="Grupo_1074873" data-name="Grupo 1074873" transform="translate(59.424 121.871)">
        <g id="Grupo_1074872" data-name="Grupo 1074872">
          <g id="Grupo_1074871" data-name="Grupo 1074871">
            <circle id="Elipse_6021" data-name="Elipse 6021" cx="1.793" cy="1.793" r="1.793" fill="#0055a3"/>
          </g>
        </g>
      </g>
    </g>
  </g>
</svg>
