<svg xmlns="http://www.w3.org/2000/svg" width="141" height="141" viewBox="0 0 141 141">
  <g id="Group_1075267" data-name="Group 1075267" transform="translate(-317 -15087.826)">
    <g id="Group_1075129" data-name="Group 1075129" transform="translate(48 14129.826)">
      <circle id="Ellipse_5614" data-name="Ellipse 5614" cx="70.5" cy="70.5" r="70.5" transform="translate(269 958)" fill="#fff"/>
    </g>
    <g id="reduction" transform="translate(328.596 15073.758)">
      <g id="Group_1075130" data-name="Group 1075130" transform="translate(20.915 75.07)">
        <path id="Path_614433" data-name="Path 614433" d="M207.547,216.086h8.12a1.78,1.78,0,0,1,1.776,1.776v42.826a1.78,1.78,0,0,1-1.776,1.776h-8.12a1.78,1.78,0,0,1-1.776-1.776V217.862A1.78,1.78,0,0,1,207.547,216.086Z" transform="translate(-173.465 -216.086)" fill="#6cf5c2" fill-rule="evenodd"/>
        <path id="Path_614434" data-name="Path 614434" d="M207.547,216.086H211.1a1.78,1.78,0,0,0-1.776,1.776v42.825a1.78,1.78,0,0,0,1.776,1.776h-3.553a1.78,1.78,0,0,1-1.776-1.776V217.862A1.78,1.78,0,0,1,207.547,216.086Z" transform="translate(-173.465 -216.086)" fill="#00e499" fill-rule="evenodd"/>
        <path id="Path_614435" data-name="Path 614435" d="M314.12,276.326h8.12a1.78,1.78,0,0,1,1.776,1.777v30.574a1.78,1.78,0,0,1-1.776,1.776h-8.12a1.78,1.78,0,0,1-1.776-1.776V278.1A1.78,1.78,0,0,1,314.12,276.326Z" transform="translate(-263.364 -264.075)" fill="#ffe177" fill-rule="evenodd"/>
        <path id="Path_614436" data-name="Path 614436" d="M314.12,276.326h3.553A1.78,1.78,0,0,0,315.9,278.1v30.574a1.78,1.78,0,0,0,1.776,1.776H314.12a1.78,1.78,0,0,1-1.776-1.776V278.1A1.78,1.78,0,0,1,314.12,276.326Z" transform="translate(-263.364 -264.075)" fill="#ffd064" fill-rule="evenodd"/>
        <path id="Path_614437" data-name="Path 614437" d="M428.815,334.016h-8.12a1.78,1.78,0,0,0-1.776,1.776v18.841a1.78,1.78,0,0,0,1.776,1.776h8.12a1.78,1.78,0,0,0,1.776-1.776V335.792A1.78,1.78,0,0,0,428.815,334.016Z" transform="translate(-352.263 -310.032)" fill="#fe646f" fill-rule="evenodd"/>
        <path id="Path_614438" data-name="Path 614438" d="M424.246,334.016h-3.553a1.78,1.78,0,0,0-1.776,1.776v18.841a1.78,1.78,0,0,0,1.776,1.776h3.553a1.78,1.78,0,0,1-1.776-1.776V335.792A1.78,1.78,0,0,1,424.246,334.016Z" transform="translate(-352.263 -310.032)" fill="#fd4755" fill-rule="evenodd"/>
        <path id="Path_614439" data-name="Path 614439" d="M157.7,437.893H73.285a1.777,1.777,0,0,0-1.773,1.773v.854a1.777,1.777,0,0,0,1.773,1.773H157.7a1.777,1.777,0,0,0,1.773-1.773v-.854A1.776,1.776,0,0,0,157.7,437.893Z" transform="translate(-71.512 -392.782)" fill="#a79ba7" fill-rule="evenodd"/>
        <path id="Path_614440" data-name="Path 614440" d="M71.512,448.711v.427a1.777,1.777,0,0,0,1.773,1.773H157.7a1.777,1.777,0,0,0,1.773-1.773v-.427Z" transform="translate(-71.512 -401.4)" fill="#837683" fill-rule="evenodd"/>
      </g>
      <g id="Group_1075131" data-name="Group 1075131" transform="translate(41.6 39.069)">
        <path id="Path_614441" data-name="Path 614441" d="M221.746,76.154A53,53,0,0,1,196.4,68.472c-12.233-7.305-20.425-18.3-23.182-29.4a50.985,50.985,0,0,0,18.995,19.04c8.134,4.857,20.86,8.646,30.149,8.9l.345-5.132a.536.536,0,0,1,.895-.362l11.47,10.355a.536.536,0,0,1-.053.839l-12.763,8.875a.536.536,0,0,1-.841-.477Z" transform="translate(-173.218 -39.069)" fill="#b8bec5" fill-rule="evenodd"/>
        <path id="Path_614442" data-name="Path 614442" d="M221.746,76.154A53,53,0,0,1,196.4,68.472c-12.233-7.305-20.425-18.3-23.182-29.4q.092.164.186.326l0,.008,0,.008h0l0,.007,0,.008.074.129c3.447,9.943,12.571,20.332,22.193,26.078a51.025,51.025,0,0,0,26.058,7.726Zm11.739-5.717L221.574,78.72l-.16,2.386a.536.536,0,0,0,.841.477l12.763-8.875a.536.536,0,0,0,.053-.839Z" transform="translate(-173.218 -39.069)" fill="#88929f" fill-rule="evenodd"/>
      </g>
      <g id="Group_1075132" data-name="Group 1075132" transform="translate(7.998 56.149)">
        <path id="Path_614443" data-name="Path 614443" d="M37.03,138.445l2.363,7.057c6.159,6.6,10.646,12.2,13.461,17.143,9,15.8-3.8,31.848-20.947,31.559-17.144.289-29.945-15.759-20.947-31.559,2.815-4.943,7.3-10.538,13.461-17.143l2.371-7.049-5.771-5.771a3.622,3.622,0,0,1,4.52-5.608,1.862,1.862,0,0,0,2.826-1.17,3.622,3.622,0,0,1,7.079,0,1.862,1.862,0,0,0,2.826,1.17,3.636,3.636,0,0,1,4.52.485h0a3.633,3.633,0,0,1,0,5.122Z" transform="translate(-7.998 -123.051)" fill="#ffc338" fill-rule="evenodd"/>
        <path id="Path_614444" data-name="Path 614444" d="M94.168,138.445,96.53,145.5c6.159,6.6,10.646,12.2,13.461,17.143,9,15.8-3.8,31.848-20.947,31.559-.336.006-.669,0-1,0,16.635-.338,28.768-16.064,19.946-31.555-2.815-4.943-7.3-10.538-13.461-17.143l-2.363-7.057,5.763-5.763a3.633,3.633,0,0,0,0-5.122h0a3.59,3.59,0,0,0-1.561-.917,3.632,3.632,0,0,1,3.563.917h0a3.633,3.633,0,0,1,0,5.122Zm-14.444-11.8a3.637,3.637,0,0,1,2.957.431l.007,0a1.973,1.973,0,0,1-.291.149,1.813,1.813,0,0,1-1.719-.154A3.6,3.6,0,0,0,79.723,126.643Zm8.32-3.451a3.642,3.642,0,0,1,2.539,2.711,1.862,1.862,0,0,0,2.819,1.175,1.8,1.8,0,0,1-.816-1.175,3.62,3.62,0,0,0-4.542-2.711Z" transform="translate(-65.136 -123.05)" fill="#f5b829" fill-rule="evenodd"/>
        <path id="Path_614445" data-name="Path 614445" d="M73.094,205.832H88.818a3.525,3.525,0,1,0,0-7.049H73.094a3.525,3.525,0,1,0,0,7.049Z" transform="translate(-57.047 -183.381)" fill="#837683" fill-rule="evenodd"/>
        <path id="Path_614446" data-name="Path 614446" d="M154.371,205.832h2a3.525,3.525,0,1,0,0-7.049h-2a3.525,3.525,0,1,1,0,7.049Z" transform="translate(-124.602 -183.381)" fill="#685e68" fill-rule="evenodd"/>
        <path id="Path_614447" data-name="Path 614447" d="M94.889,307.41q.056,0,.114,0c.046,0,.091,0,.135.006h.076c.2,0,.435-.023.7-.056a5.666,5.666,0,0,0,2.685-.971,2.145,2.145,0,0,0,.92-1.809c0-.061-.01-.157-.026-.288a2.765,2.765,0,0,0-1.425-2.094,9.584,9.584,0,0,0-3.309-1.05,11.139,11.139,0,0,1-4.247-1.487,5.369,5.369,0,0,1-2.592-4.432,5.772,5.772,0,0,1,2.2-4.889,7.566,7.566,0,0,1,3.271-1.5v-1.265a1.6,1.6,0,1,1,3.2,0v1.241q.235.045.466.1a7.252,7.252,0,0,1,5.023,4.311,1.6,1.6,0,1,1-2.953,1.239,4.111,4.111,0,0,0-2.846-2.446,5.1,5.1,0,0,0-1.178-.154q-.057,0-.114,0l-.1,0a5.127,5.127,0,0,0-.879.1,4.35,4.35,0,0,0-1.884.853,2.675,2.675,0,0,0-1.028,2.261,2.327,2.327,0,0,0,1.14,1.9,8.089,8.089,0,0,0,3.02,1.011,12.623,12.623,0,0,1,4.448,1.463,5.817,5.817,0,0,1,2.952,4.459c.02.168.033.365.038.588a5.2,5.2,0,0,1-2.184,4.424,8.745,8.745,0,0,1-3.927,1.566V311.7a1.6,1.6,0,1,1-3.2,0v-1.243a8.365,8.365,0,0,1-3.184-1.245,6.78,6.78,0,0,1-2.885-4.068,1.6,1.6,0,1,1,3.1-.763,3.619,3.619,0,0,0,1.545,2.166,5.532,5.532,0,0,0,2.907.86Z" transform="translate(-71.161 -252.832)" fill="#ffe177" fill-rule="evenodd"/>
      </g>
    </g>
  </g>
</svg>
