<svg xmlns="http://www.w3.org/2000/svg" width="1030" height="259" viewBox="0 0 1030 259">
  <g id="Grupo_1075184" data-name="Grupo 1075184" transform="translate(-285 -5806.826)">
    <path id="Trazado_614649" data-name="Trazado 614649" d="M0,0H1030V259H0Z" transform="translate(285 5806.826)" fill="#fff"/>
    <path id="Trazado_614650" data-name="Trazado 614650" d="M0,0H136V136H0Z" transform="translate(285 5898.826)" fill="#0c5e46"/>
    <path id="Trazado_614651" data-name="Trazado 614651" d="M0,0H136V136H0Z" transform="translate(643 5898.826)" fill="#0c5e46"/>
    <path id="Trazado_614652" data-name="Trazado 614652" d="M0,0H136V136H0Z" transform="translate(1000 5898.826)" fill="#0c5e46"/>
    <path id="Trazado_614653" data-name="Trazado 614653" d="M0,0H136V136H0Z" transform="translate(464 5898.826)" fill="#03386e"/>
    <path id="Trazado_614654" data-name="Trazado 614654" d="M0,0H136V136H0Z" transform="translate(821 5898.826)" fill="#03386e"/>
    <path id="Trazado_614655" data-name="Trazado 614655" d="M0,0H136V136H0Z" transform="translate(1179 5898.826)" fill="#03386e"/>
    <path id="Trazado_614656" data-name="Trazado 614656" d="M35.88,11.454H30.818v3.428h5.941V17H28.181V4.2h8.561V6.339H30.818v3.05H35.88Zm7.409,2.918a.818.818,0,0,0-.461-.734,5.241,5.241,0,0,0-1.481-.479q-3.393-.712-3.393-2.883A2.613,2.613,0,0,1,39,8.163a4.237,4.237,0,0,1,2.747-.848,4.56,4.56,0,0,1,2.9.853,2.687,2.687,0,0,1,1.085,2.215h-2.54a1.229,1.229,0,0,0-.352-.9,1.488,1.488,0,0,0-1.1-.356,1.52,1.52,0,0,0-.993.29.916.916,0,0,0-.352.738.783.783,0,0,0,.4.681,4.114,4.114,0,0,0,1.349.448,11.019,11.019,0,0,1,1.6.426,2.628,2.628,0,0,1,2.013,2.558,2.481,2.481,0,0,1-1.116,2.1,4.815,4.815,0,0,1-2.883.8,5.029,5.029,0,0,1-2.123-.426,3.561,3.561,0,0,1-1.455-1.169,2.716,2.716,0,0,1-.527-1.6h2.408a1.326,1.326,0,0,0,.5,1.037,1.987,1.987,0,0,0,1.248.36,1.839,1.839,0,0,0,1.1-.277A.861.861,0,0,0,43.29,14.372Zm7.146-9.22V7.49h1.626V9.354H50.435V14.1a1.133,1.133,0,0,0,.2.756,1.015,1.015,0,0,0,.773.229,4.051,4.051,0,0,0,.747-.062v1.925a5.229,5.229,0,0,1-1.538.229,2.425,2.425,0,0,1-2.725-2.7V9.354H46.506V7.49H47.9V5.152Zm8.385,4.72a6.9,6.9,0,0,0-.914-.07,1.86,1.86,0,0,0-1.89.976V17h-2.54V7.49h2.4l.07,1.134a2.354,2.354,0,0,1,2.118-1.31,2.662,2.662,0,0,1,.791.114ZM65.289,17a2.821,2.821,0,0,1-.255-.853,3.073,3.073,0,0,1-2.4,1.028,3.376,3.376,0,0,1-2.316-.809,2.6,2.6,0,0,1-.918-2.039,2.687,2.687,0,0,1,1.121-2.32,5.529,5.529,0,0,1,3.239-.817h1.169v-.545a1.567,1.567,0,0,0-.338-1.055,1.331,1.331,0,0,0-1.068-.4,1.513,1.513,0,0,0-1.006.308,1.045,1.045,0,0,0-.365.844h-2.54a2.551,2.551,0,0,1,.51-1.529,3.37,3.37,0,0,1,1.441-1.1,5.253,5.253,0,0,1,2.092-.4,4.15,4.15,0,0,1,2.791.883,3.09,3.09,0,0,1,1.033,2.483V14.8a4.546,4.546,0,0,0,.378,2.048V17Zm-2.1-1.767a2.188,2.188,0,0,0,1.037-.25,1.645,1.645,0,0,0,.7-.672V12.676h-.949q-1.907,0-2.03,1.318l-.009.149a1.017,1.017,0,0,0,.334.782A1.3,1.3,0,0,0,63.188,15.233ZM72.469,5.152V7.49H74.1V9.354H72.469V14.1a1.133,1.133,0,0,0,.2.756,1.015,1.015,0,0,0,.773.229,4.051,4.051,0,0,0,.747-.062v1.925a5.229,5.229,0,0,1-1.538.229,2.425,2.425,0,0,1-2.725-2.7V9.354H68.541V7.49h1.389V5.152Zm7.418,12.023a4.668,4.668,0,0,1-3.406-1.283,4.561,4.561,0,0,1-1.314-3.419v-.246a5.745,5.745,0,0,1,.554-2.562,4.064,4.064,0,0,1,1.569-1.74,4.4,4.4,0,0,1,2.316-.611,3.947,3.947,0,0,1,3.072,1.23A5,5,0,0,1,83.8,12.034v1.037H77.743a2.36,2.36,0,0,0,.743,1.494,2.245,2.245,0,0,0,1.569.563,2.742,2.742,0,0,0,2.294-1.063l1.248,1.4a3.813,3.813,0,0,1-1.547,1.261A5.075,5.075,0,0,1,79.887,17.176ZM79.6,9.362a1.587,1.587,0,0,0-1.226.512,2.651,2.651,0,0,0-.6,1.466H81.3v-.2a1.891,1.891,0,0,0-.457-1.311A1.638,1.638,0,0,0,79.6,9.362Zm5.273,2.813A5.573,5.573,0,0,1,85.912,8.65,3.375,3.375,0,0,1,88.72,7.314a2.96,2.96,0,0,1,2.435,1.072l.105-.9h2.3v9.193A4.064,4.064,0,0,1,93,18.854a3.641,3.641,0,0,1-1.6,1.406,5.608,5.608,0,0,1-2.408.483,5.215,5.215,0,0,1-2.039-.417,3.619,3.619,0,0,1-1.5-1.077L86.576,17.7a2.975,2.975,0,0,0,2.3,1.063,2.178,2.178,0,0,0,1.573-.541,2.027,2.027,0,0,0,.563-1.534v-.51a2.938,2.938,0,0,1-2.312.993,3.366,3.366,0,0,1-2.773-1.34,5.572,5.572,0,0,1-1.059-3.555Zm2.54.189a3.47,3.47,0,0,0,.519,2.029,1.65,1.65,0,0,0,1.424.735,1.764,1.764,0,0,0,1.661-.871V10.251a1.76,1.76,0,0,0-1.644-.871,1.66,1.66,0,0,0-1.437.748A3.911,3.911,0,0,0,87.411,12.364ZM98.195,17H95.646V7.49h2.549ZM95.5,5.029a1.251,1.251,0,0,1,.382-.94,1.648,1.648,0,0,1,2.079,0,1.244,1.244,0,0,1,.387.94,1.247,1.247,0,0,1-.391.949,1.629,1.629,0,0,1-2.065,0A1.247,1.247,0,0,1,95.5,5.029ZM105.8,17a2.821,2.821,0,0,1-.255-.853,3.073,3.073,0,0,1-2.4,1.028,3.376,3.376,0,0,1-2.316-.809,2.6,2.6,0,0,1-.918-2.039,2.687,2.687,0,0,1,1.121-2.32,5.529,5.529,0,0,1,3.239-.817h1.169v-.545a1.567,1.567,0,0,0-.338-1.055,1.331,1.331,0,0,0-1.068-.4,1.513,1.513,0,0,0-1.006.308,1.045,1.045,0,0,0-.365.844h-2.54a2.551,2.551,0,0,1,.51-1.529,3.37,3.37,0,0,1,1.441-1.1,5.253,5.253,0,0,1,2.092-.4,4.15,4.15,0,0,1,2.791.883,3.09,3.09,0,0,1,1.033,2.483V14.8a4.546,4.546,0,0,0,.378,2.048V17Zm-2.1-1.767a2.188,2.188,0,0,0,1.037-.25,1.645,1.645,0,0,0,.7-.672V12.676h-.949q-1.907,0-2.03,1.318l-.009.149a1.017,1.017,0,0,0,.334.782A1.3,1.3,0,0,0,103.7,15.233Z" transform="translate(285 6000.826)" fill="#fff"/>
    <path id="Trazado_614657" data-name="Trazado 614657" d="M53.722,12.491V17H51.085V4.2h4.992a5.776,5.776,0,0,1,2.536.527,3.886,3.886,0,0,1,1.683,1.5,4.178,4.178,0,0,1,.589,2.21A3.674,3.674,0,0,1,59.6,11.406a5.363,5.363,0,0,1-3.564,1.085Zm0-2.136h2.355a2.316,2.316,0,0,0,1.6-.492,1.79,1.79,0,0,0,.549-1.406,2.111,2.111,0,0,0-.554-1.521,2.068,2.068,0,0,0-1.529-.6H53.722ZM65.209,17H62.661V3.5h2.549Zm7.6,0a2.821,2.821,0,0,1-.255-.853,3.073,3.073,0,0,1-2.4,1.028,3.376,3.376,0,0,1-2.316-.809,2.6,2.6,0,0,1-.918-2.039,2.687,2.687,0,0,1,1.121-2.32,5.529,5.529,0,0,1,3.239-.817h1.169v-.545a1.567,1.567,0,0,0-.338-1.055,1.331,1.331,0,0,0-1.068-.4,1.513,1.513,0,0,0-1.006.308,1.045,1.045,0,0,0-.365.844h-2.54a2.551,2.551,0,0,1,.51-1.529,3.37,3.37,0,0,1,1.441-1.1,5.253,5.253,0,0,1,2.092-.4,4.15,4.15,0,0,1,2.791.883A3.09,3.09,0,0,1,75,10.681V14.8a4.546,4.546,0,0,0,.378,2.048V17Zm-2.1-1.767a2.188,2.188,0,0,0,1.037-.25,1.645,1.645,0,0,0,.7-.672V12.676H71.5q-1.907,0-2.03,1.318l-.009.149a1.017,1.017,0,0,0,.334.782A1.3,1.3,0,0,0,70.711,15.233ZM79.29,7.49l.079,1.1A3.32,3.32,0,0,1,82.1,7.314a2.759,2.759,0,0,1,2.25.888,4.142,4.142,0,0,1,.756,2.654V17h-2.54V10.918a1.648,1.648,0,0,0-.352-1.173,1.574,1.574,0,0,0-1.169-.365,1.747,1.747,0,0,0-1.608.914V17H76.9V7.49Z" transform="translate(464 6000.826)" fill="#fff"/>
    <path id="Trazado_614658" data-name="Trazado 614658" d="M33.129,11.454H28.067v3.428h5.941V17H25.43V4.2h8.561V6.339H28.067v3.05h5.063Zm5.59,2.443L40.486,7.49H43.14L39.932,17H37.506L34.3,7.49h2.654ZM49.635,17a2.821,2.821,0,0,1-.255-.853,3.073,3.073,0,0,1-2.4,1.028,3.376,3.376,0,0,1-2.316-.809,2.6,2.6,0,0,1-.918-2.039,2.687,2.687,0,0,1,1.121-2.32,5.529,5.529,0,0,1,3.239-.817h1.169v-.545a1.567,1.567,0,0,0-.338-1.055,1.331,1.331,0,0,0-1.068-.4,1.513,1.513,0,0,0-1.006.308,1.045,1.045,0,0,0-.365.844h-2.54a2.551,2.551,0,0,1,.51-1.529,3.37,3.37,0,0,1,1.441-1.1A5.253,5.253,0,0,1,48,7.314a4.15,4.15,0,0,1,2.791.883,3.09,3.09,0,0,1,1.033,2.483V14.8a4.546,4.546,0,0,0,.378,2.048V17Zm-2.1-1.767a2.188,2.188,0,0,0,1.037-.25,1.645,1.645,0,0,0,.7-.672V12.676h-.949q-1.907,0-2.03,1.318l-.009.149a1.017,1.017,0,0,0,.334.782A1.3,1.3,0,0,0,47.535,15.233ZM56.456,17H53.907V3.5h2.549Zm7.787-.967a3.185,3.185,0,0,1-2.6,1.143,3,3,0,0,1-2.333-.879,3.752,3.752,0,0,1-.822-2.575V7.49h2.54v6.151q0,1.487,1.354,1.487a1.834,1.834,0,0,0,1.775-.9V7.49H66.7V17H64.313ZM74.13,17a2.821,2.821,0,0,1-.255-.853,3.073,3.073,0,0,1-2.4,1.028,3.376,3.376,0,0,1-2.316-.809,2.6,2.6,0,0,1-.918-2.039,2.687,2.687,0,0,1,1.121-2.32A5.529,5.529,0,0,1,72.6,11.19H73.77v-.545a1.567,1.567,0,0,0-.338-1.055,1.331,1.331,0,0,0-1.068-.4,1.513,1.513,0,0,0-1.006.308,1.045,1.045,0,0,0-.365.844h-2.54a2.551,2.551,0,0,1,.51-1.529,3.37,3.37,0,0,1,1.441-1.1,5.253,5.253,0,0,1,2.092-.4,4.15,4.15,0,0,1,2.791.883,3.09,3.09,0,0,1,1.033,2.483V14.8a4.546,4.546,0,0,0,.378,2.048V17Zm-2.1-1.767a2.188,2.188,0,0,0,1.037-.25,1.645,1.645,0,0,0,.7-.672V12.676h-.949q-1.907,0-2.03,1.318l-.009.149a1.017,1.017,0,0,0,.334.782A1.3,1.3,0,0,0,72.03,15.233Zm10.2-.105a1.666,1.666,0,0,0,1.143-.387,1.355,1.355,0,0,0,.457-1.028h2.382a3.258,3.258,0,0,1-.527,1.771,3.48,3.48,0,0,1-1.419,1.248,4.442,4.442,0,0,1-1.991.444,4.129,4.129,0,0,1-3.217-1.3A5.13,5.13,0,0,1,77.875,12.3v-.167a5.071,5.071,0,0,1,1.169-3.507,4.08,4.08,0,0,1,3.208-1.31A4,4,0,0,1,85.112,8.33a3.594,3.594,0,0,1,1.094,2.7H83.825a1.745,1.745,0,0,0-.457-1.206,1.7,1.7,0,0,0-2.5.183,3.749,3.749,0,0,0-.453,2.1v.264a3.8,3.8,0,0,0,.448,2.113A1.549,1.549,0,0,0,82.225,15.128ZM90.337,17H87.789V7.49h2.549Zm-2.7-11.971a1.251,1.251,0,0,1,.382-.94,1.648,1.648,0,0,1,2.079,0,1.244,1.244,0,0,1,.387.94,1.247,1.247,0,0,1-.391.949,1.629,1.629,0,0,1-2.065,0A1.247,1.247,0,0,1,87.639,5.029Zm4.395,7.128a5.64,5.64,0,0,1,.545-2.522,3.989,3.989,0,0,1,1.569-1.714,4.577,4.577,0,0,1,2.377-.606,4.33,4.33,0,0,1,3.142,1.178,4.727,4.727,0,0,1,1.358,3.2l.018.65a4.97,4.97,0,0,1-1.222,3.511,4.735,4.735,0,0,1-6.561,0,5.058,5.058,0,0,1-1.226-3.586Zm2.54.18a3.555,3.555,0,0,0,.51,2.073,1.831,1.831,0,0,0,2.9.009,3.89,3.89,0,0,0,.519-2.267,3.519,3.519,0,0,0-.519-2.06,1.686,1.686,0,0,0-1.459-.731,1.658,1.658,0,0,0-1.441.726A3.955,3.955,0,0,0,94.574,12.338ZM97.026,3.5h2.769L97.36,6.225H95.294Zm7.919,3.99.079,1.1a3.32,3.32,0,0,1,2.733-1.274,2.759,2.759,0,0,1,2.25.888,4.142,4.142,0,0,1,.756,2.654V17h-2.54V10.918a1.648,1.648,0,0,0-.352-1.173A1.574,1.574,0,0,0,106.7,9.38a1.747,1.747,0,0,0-1.608.914V17h-2.54V7.49Z" transform="translate(643 6000.826)" fill="#fff"/>
    <path id="Trazado_614659" data-name="Trazado 614659" d="M38.486,12.491V17H35.85V4.2h4.992a5.776,5.776,0,0,1,2.536.527,3.886,3.886,0,0,1,1.683,1.5,4.178,4.178,0,0,1,.589,2.21,3.674,3.674,0,0,1-1.288,2.966A5.363,5.363,0,0,1,40.8,12.491Zm0-2.136h2.355a2.316,2.316,0,0,0,1.6-.492,1.79,1.79,0,0,0,.549-1.406,2.111,2.111,0,0,0-.554-1.521,2.068,2.068,0,0,0-1.529-.6H38.486Zm14.15-.483a6.9,6.9,0,0,0-.914-.07,1.86,1.86,0,0,0-1.89.976V17h-2.54V7.49h2.4l.07,1.134a2.354,2.354,0,0,1,2.118-1.31,2.662,2.662,0,0,1,.791.114Zm.51,2.285a5.64,5.64,0,0,1,.545-2.522A3.989,3.989,0,0,1,55.26,7.921a4.577,4.577,0,0,1,2.377-.606A4.33,4.33,0,0,1,60.78,8.492a4.727,4.727,0,0,1,1.358,3.2l.018.65a4.97,4.97,0,0,1-1.222,3.511,4.735,4.735,0,0,1-6.561,0,5.058,5.058,0,0,1-1.226-3.586Zm2.54.18a3.555,3.555,0,0,0,.51,2.073,1.831,1.831,0,0,0,2.9.009,3.89,3.89,0,0,0,.519-2.267,3.519,3.519,0,0,0-.519-2.06,1.686,1.686,0,0,0-1.459-.731,1.658,1.658,0,0,0-1.441.726A3.955,3.955,0,0,0,55.687,12.338Zm11.988,2.79a1.666,1.666,0,0,0,1.143-.387,1.355,1.355,0,0,0,.457-1.028h2.382a3.258,3.258,0,0,1-.527,1.771,3.48,3.48,0,0,1-1.419,1.248,4.442,4.442,0,0,1-1.991.444,4.129,4.129,0,0,1-3.217-1.3A5.13,5.13,0,0,1,63.324,12.3v-.167a5.071,5.071,0,0,1,1.169-3.507A4.08,4.08,0,0,1,67.7,7.314,4,4,0,0,1,70.562,8.33a3.594,3.594,0,0,1,1.094,2.7H69.274a1.745,1.745,0,0,0-.457-1.206,1.7,1.7,0,0,0-2.5.183,3.749,3.749,0,0,0-.453,2.1v.264a3.8,3.8,0,0,0,.448,2.113A1.549,1.549,0,0,0,67.675,15.128Zm9.809,2.048a4.668,4.668,0,0,1-3.406-1.283,4.561,4.561,0,0,1-1.314-3.419v-.246a5.745,5.745,0,0,1,.554-2.562,4.064,4.064,0,0,1,1.569-1.74A4.4,4.4,0,0,1,77.2,7.314a3.947,3.947,0,0,1,3.072,1.23,5,5,0,0,1,1.121,3.489v1.037H75.339a2.36,2.36,0,0,0,.743,1.494,2.245,2.245,0,0,0,1.569.563,2.742,2.742,0,0,0,2.294-1.063l1.248,1.4a3.813,3.813,0,0,1-1.547,1.261A5.075,5.075,0,0,1,77.483,17.176Zm-.29-7.813a1.587,1.587,0,0,0-1.226.512,2.651,2.651,0,0,0-.6,1.466H78.9v-.2a1.891,1.891,0,0,0-.457-1.311A1.638,1.638,0,0,0,77.193,9.362Zm10.793,5.01a.818.818,0,0,0-.461-.734,5.241,5.241,0,0,0-1.481-.479q-3.393-.712-3.393-2.883A2.613,2.613,0,0,1,83.7,8.163a4.237,4.237,0,0,1,2.747-.848,4.56,4.56,0,0,1,2.9.853,2.687,2.687,0,0,1,1.085,2.215H87.89a1.229,1.229,0,0,0-.352-.9,1.488,1.488,0,0,0-1.1-.356,1.52,1.52,0,0,0-.993.29.916.916,0,0,0-.352.738.783.783,0,0,0,.4.681,4.114,4.114,0,0,0,1.349.448,11.019,11.019,0,0,1,1.6.426,2.628,2.628,0,0,1,2.013,2.558,2.481,2.481,0,0,1-1.116,2.1,4.815,4.815,0,0,1-2.883.8,5.029,5.029,0,0,1-2.123-.426,3.561,3.561,0,0,1-1.455-1.169,2.716,2.716,0,0,1-.527-1.6h2.408a1.326,1.326,0,0,0,.5,1.037,1.987,1.987,0,0,0,1.248.36,1.839,1.839,0,0,0,1.1-.277A.861.861,0,0,0,87.986,14.372ZM91.7,12.157a5.64,5.64,0,0,1,.545-2.522,3.989,3.989,0,0,1,1.569-1.714,4.577,4.577,0,0,1,2.377-.606,4.33,4.33,0,0,1,3.142,1.178,4.727,4.727,0,0,1,1.358,3.2l.018.65a4.97,4.97,0,0,1-1.222,3.511,4.735,4.735,0,0,1-6.561,0A5.058,5.058,0,0,1,91.7,12.271Zm2.54.18a3.555,3.555,0,0,0,.51,2.073,1.831,1.831,0,0,0,2.9.009,3.89,3.89,0,0,0,.519-2.267,3.519,3.519,0,0,0-.519-2.06,1.686,1.686,0,0,0-1.459-.731,1.658,1.658,0,0,0-1.441.726A3.955,3.955,0,0,0,94.235,12.338Z" transform="translate(822 6000.826)" fill="#fff"/>
    <path id="Trazado_614660" data-name="Trazado 614660" d="M49.53,12.737A4.528,4.528,0,0,1,48,15.989a5.355,5.355,0,0,1-3.625,1.187,4.816,4.816,0,0,1-3.872-1.657A6.793,6.793,0,0,1,39.1,10.971v-.782a7.671,7.671,0,0,1,.65-3.252,4.874,4.874,0,0,1,1.859-2.158,5.809,5.809,0,0,1,6.376.435,4.866,4.866,0,0,1,1.564,3.331H46.911a2.673,2.673,0,0,0-.69-1.8,2.555,2.555,0,0,0-1.806-.558,2.24,2.24,0,0,0-1.973.945,5.3,5.3,0,0,0-.672,2.931v.967a5.667,5.667,0,0,0,.628,3.032,2.2,2.2,0,0,0,1.982.958,2.6,2.6,0,0,0,1.824-.558,2.521,2.521,0,0,0,.69-1.727Zm1.169-.58a5.64,5.64,0,0,1,.545-2.522,3.989,3.989,0,0,1,1.569-1.714,4.577,4.577,0,0,1,2.377-.606,4.33,4.33,0,0,1,3.142,1.178,4.727,4.727,0,0,1,1.358,3.2l.018.65a4.97,4.97,0,0,1-1.222,3.511,4.735,4.735,0,0,1-6.561,0A5.058,5.058,0,0,1,50.7,12.271Zm2.54.18a3.555,3.555,0,0,0,.51,2.073,1.831,1.831,0,0,0,2.9.009,3.89,3.89,0,0,0,.519-2.267,3.519,3.519,0,0,0-.519-2.06,1.686,1.686,0,0,0-1.459-.731,1.658,1.658,0,0,0-1.441.726A3.955,3.955,0,0,0,53.239,12.338ZM63.61,7.49l.079,1.1a3.32,3.32,0,0,1,2.733-1.274,2.759,2.759,0,0,1,2.25.888,4.142,4.142,0,0,1,.756,2.654V17h-2.54V10.918a1.648,1.648,0,0,0-.352-1.173,1.574,1.574,0,0,0-1.169-.365,1.747,1.747,0,0,0-1.608.914V17h-2.54V7.49ZM74.394,5.152V7.49H76.02V9.354H74.394V14.1a1.133,1.133,0,0,0,.2.756,1.015,1.015,0,0,0,.773.229,4.051,4.051,0,0,0,.747-.062v1.925a5.229,5.229,0,0,1-1.538.229,2.425,2.425,0,0,1-2.725-2.7V9.354H70.465V7.49h1.389V5.152Zm8.385,4.72a6.9,6.9,0,0,0-.914-.07,1.86,1.86,0,0,0-1.89.976V17h-2.54V7.49h2.4l.07,1.134a2.354,2.354,0,0,1,2.118-1.31,2.662,2.662,0,0,1,.791.114Zm.51,2.285a5.64,5.64,0,0,1,.545-2.522A3.989,3.989,0,0,1,85.4,7.921a4.577,4.577,0,0,1,2.377-.606,4.33,4.33,0,0,1,3.142,1.178,4.727,4.727,0,0,1,1.358,3.2l.018.65a4.97,4.97,0,0,1-1.222,3.511,4.735,4.735,0,0,1-6.561,0,5.058,5.058,0,0,1-1.226-3.586Zm2.54.18a3.555,3.555,0,0,0,.51,2.073,1.831,1.831,0,0,0,2.9.009,3.89,3.89,0,0,0,.519-2.267,3.519,3.519,0,0,0-.519-2.06,1.686,1.686,0,0,0-1.459-.731,1.658,1.658,0,0,0-1.441.726A3.955,3.955,0,0,0,85.829,12.338ZM96.542,17H93.994V3.5h2.549Z" transform="translate(1000 6000.826)" fill="#fff"/>
    <path id="Trazado_614661" data-name="Trazado 614661" d="M44.243,14.363H39.62L38.741,17h-2.8L40.7,4.2h2.443L47.935,17h-2.8Zm-3.911-2.136h3.2l-1.608-4.79ZM50.879,7.49l.079,1.1a3.32,3.32,0,0,1,2.733-1.274,2.759,2.759,0,0,1,2.25.888,4.142,4.142,0,0,1,.756,2.654V17h-2.54V10.918a1.648,1.648,0,0,0-.352-1.173,1.574,1.574,0,0,0-1.169-.365,1.747,1.747,0,0,0-1.608.914V17h-2.54V7.49ZM64.133,17a2.821,2.821,0,0,1-.255-.853,3.073,3.073,0,0,1-2.4,1.028,3.376,3.376,0,0,1-2.316-.809,2.6,2.6,0,0,1-.918-2.039,2.687,2.687,0,0,1,1.121-2.32A5.529,5.529,0,0,1,62.6,11.19h1.169v-.545a1.567,1.567,0,0,0-.338-1.055,1.331,1.331,0,0,0-1.068-.4A1.513,1.513,0,0,0,61.36,9.5a1.045,1.045,0,0,0-.365.844h-2.54a2.551,2.551,0,0,1,.51-1.529,3.37,3.37,0,0,1,1.441-1.1,5.253,5.253,0,0,1,2.092-.4,4.15,4.15,0,0,1,2.791.883,3.09,3.09,0,0,1,1.033,2.483V14.8a4.546,4.546,0,0,0,.378,2.048V17Zm-2.1-1.767a2.188,2.188,0,0,0,1.037-.25,1.645,1.645,0,0,0,.7-.672V12.676h-.949q-1.907,0-2.03,1.318l-.009.149a1.017,1.017,0,0,0,.334.782A1.3,1.3,0,0,0,62.032,15.233ZM63,3.5h2.769L63.333,6.225H61.268ZM70.953,17H68.4V3.5h2.549Zm4.772,0H73.177V7.49h2.549Zm-2.7-11.971a1.251,1.251,0,0,1,.382-.94,1.648,1.648,0,0,1,2.079,0,1.244,1.244,0,0,1,.387.94,1.247,1.247,0,0,1-.391.949,1.629,1.629,0,0,1-2.065,0A1.247,1.247,0,0,1,73.027,5.029Zm9.94,9.343a.818.818,0,0,0-.461-.734,5.241,5.241,0,0,0-1.481-.479q-3.393-.712-3.393-2.883a2.613,2.613,0,0,1,1.05-2.114,4.237,4.237,0,0,1,2.747-.848,4.56,4.56,0,0,1,2.9.853,2.687,2.687,0,0,1,1.085,2.215h-2.54a1.229,1.229,0,0,0-.352-.9,1.488,1.488,0,0,0-1.1-.356,1.52,1.52,0,0,0-.993.29.916.916,0,0,0-.352.738.783.783,0,0,0,.4.681,4.114,4.114,0,0,0,1.349.448,11.019,11.019,0,0,1,1.6.426,2.628,2.628,0,0,1,2.013,2.558,2.481,2.481,0,0,1-1.116,2.1,4.815,4.815,0,0,1-2.883.8,5.029,5.029,0,0,1-2.123-.426,3.561,3.561,0,0,1-1.455-1.169,2.716,2.716,0,0,1-.527-1.6h2.408a1.326,1.326,0,0,0,.5,1.037,1.987,1.987,0,0,0,1.248.36,1.839,1.839,0,0,0,1.1-.277A.861.861,0,0,0,82.968,14.372ZM89.753,17H87.2V7.49h2.549Zm-2.7-11.971a1.251,1.251,0,0,1,.382-.94,1.648,1.648,0,0,1,2.079,0,1.244,1.244,0,0,1,.387.94,1.247,1.247,0,0,1-.391.949,1.629,1.629,0,0,1-2.065,0A1.247,1.247,0,0,1,87.055,5.029ZM97,14.372a.818.818,0,0,0-.461-.734,5.241,5.241,0,0,0-1.481-.479q-3.393-.712-3.393-2.883a2.613,2.613,0,0,1,1.05-2.114,4.237,4.237,0,0,1,2.747-.848,4.56,4.56,0,0,1,2.9.853,2.687,2.687,0,0,1,1.085,2.215H96.9a1.229,1.229,0,0,0-.352-.9,1.488,1.488,0,0,0-1.1-.356,1.52,1.52,0,0,0-.993.29.916.916,0,0,0-.352.738.783.783,0,0,0,.4.681,4.114,4.114,0,0,0,1.349.448,11.019,11.019,0,0,1,1.6.426,2.628,2.628,0,0,1,2.013,2.558,2.481,2.481,0,0,1-1.116,2.1,4.815,4.815,0,0,1-2.883.8,5.029,5.029,0,0,1-2.123-.426,3.561,3.561,0,0,1-1.455-1.169,2.716,2.716,0,0,1-.527-1.6H93.77a1.326,1.326,0,0,0,.5,1.037,1.987,1.987,0,0,0,1.248.36,1.839,1.839,0,0,0,1.1-.277A.861.861,0,0,0,97,14.372Z" transform="translate(1179 6000.826)" fill="#fff"/>
    <path id="Trazado_613048" data-name="Trazado 613048" d="M-2419-6876.4v-46h897.17v46" transform="translate(2772 12775.225)" fill="none" stroke="#03386e" stroke-width="3"/>
    <g id="Trazado_614662" data-name="Trazado 614662" transform="translate(685 5827.826)" fill="#fff">
      <path d="M 228.5 48.5 L 1.5 48.5 L 1.5 1.5 L 228.5 1.5 L 228.5 48.5 Z" stroke="none"/>
      <path d="M 3 3 L 3 47 L 227 47 L 227 3 L 3 3 M 0 0 L 230 0 L 230 50 L 0 50 L 0 0 Z" stroke="none" fill="#03386e"/>
    </g>
    <path id="Trazado_614663" data-name="Trazado 614663" d="M51.438,14.363H46.814L45.936,17h-2.8L47.9,4.2h2.443L55.129,17h-2.8Zm-3.911-2.136h3.2l-1.608-4.79ZM58.073,7.49l.079,1.1a3.32,3.32,0,0,1,2.733-1.274,2.759,2.759,0,0,1,2.25.888,4.142,4.142,0,0,1,.756,2.654V17h-2.54V10.918A1.648,1.648,0,0,0,61,9.745a1.574,1.574,0,0,0-1.169-.365,1.747,1.747,0,0,0-1.608.914V17h-2.54V7.49ZM71.327,17a2.821,2.821,0,0,1-.255-.853,3.073,3.073,0,0,1-2.4,1.028,3.376,3.376,0,0,1-2.316-.809,2.6,2.6,0,0,1-.918-2.039,2.687,2.687,0,0,1,1.121-2.32A5.529,5.529,0,0,1,69.8,11.19h1.169v-.545a1.567,1.567,0,0,0-.338-1.055,1.331,1.331,0,0,0-1.068-.4,1.513,1.513,0,0,0-1.006.308,1.045,1.045,0,0,0-.365.844h-2.54a2.551,2.551,0,0,1,.51-1.529,3.37,3.37,0,0,1,1.441-1.1,5.253,5.253,0,0,1,2.092-.4,4.15,4.15,0,0,1,2.791.883,3.09,3.09,0,0,1,1.033,2.483V14.8a4.546,4.546,0,0,0,.378,2.048V17Zm-2.1-1.767a2.188,2.188,0,0,0,1.037-.25,1.645,1.645,0,0,0,.7-.672V12.676h-.949q-1.907,0-2.03,1.318l-.009.149a1.017,1.017,0,0,0,.334.782A1.3,1.3,0,0,0,69.227,15.233ZM70.193,3.5h2.769L70.527,6.225H68.462ZM78.147,17H75.6V3.5h2.549Zm4.772,0H80.371V7.49H82.92Zm-2.7-11.971a1.251,1.251,0,0,1,.382-.94,1.648,1.648,0,0,1,2.079,0,1.244,1.244,0,0,1,.387.94,1.247,1.247,0,0,1-.391.949,1.629,1.629,0,0,1-2.065,0A1.247,1.247,0,0,1,80.222,5.029Zm9.94,9.343a.818.818,0,0,0-.461-.734,5.241,5.241,0,0,0-1.481-.479q-3.393-.712-3.393-2.883a2.613,2.613,0,0,1,1.05-2.114,4.237,4.237,0,0,1,2.747-.848,4.56,4.56,0,0,1,2.9.853,2.687,2.687,0,0,1,1.085,2.215h-2.54a1.229,1.229,0,0,0-.352-.9,1.488,1.488,0,0,0-1.1-.356,1.52,1.52,0,0,0-.993.29.916.916,0,0,0-.352.738.783.783,0,0,0,.4.681,4.114,4.114,0,0,0,1.349.448,11.019,11.019,0,0,1,1.6.426,2.628,2.628,0,0,1,2.013,2.558,2.481,2.481,0,0,1-1.116,2.1,4.815,4.815,0,0,1-2.883.8,5.029,5.029,0,0,1-2.123-.426,3.561,3.561,0,0,1-1.455-1.169,2.716,2.716,0,0,1-.527-1.6h2.408a1.326,1.326,0,0,0,.5,1.037,1.987,1.987,0,0,0,1.248.36,1.839,1.839,0,0,0,1.1-.277A.861.861,0,0,0,90.162,14.372ZM96.947,17H94.4V7.49h2.549Zm-2.7-11.971a1.251,1.251,0,0,1,.382-.94,1.648,1.648,0,0,1,2.079,0,1.244,1.244,0,0,1,.387.94,1.247,1.247,0,0,1-.391.949,1.629,1.629,0,0,1-2.065,0A1.247,1.247,0,0,1,94.249,5.029Zm9.94,9.343a.818.818,0,0,0-.461-.734,5.241,5.241,0,0,0-1.481-.479q-3.393-.712-3.393-2.883A2.613,2.613,0,0,1,99.9,8.163a4.237,4.237,0,0,1,2.747-.848,4.56,4.56,0,0,1,2.9.853,2.687,2.687,0,0,1,1.085,2.215h-2.54a1.229,1.229,0,0,0-.352-.9,1.488,1.488,0,0,0-1.1-.356,1.52,1.52,0,0,0-.993.29.916.916,0,0,0-.352.738.783.783,0,0,0,.4.681,4.114,4.114,0,0,0,1.349.448,11.019,11.019,0,0,1,1.6.426,2.628,2.628,0,0,1,2.013,2.558,2.481,2.481,0,0,1-1.116,2.1,4.815,4.815,0,0,1-2.883.8,5.029,5.029,0,0,1-2.123-.426,3.561,3.561,0,0,1-1.455-1.169,2.716,2.716,0,0,1-.527-1.6h2.408a1.326,1.326,0,0,0,.5,1.037,1.987,1.987,0,0,0,1.248.36,1.839,1.839,0,0,0,1.1-.277A.861.861,0,0,0,104.189,14.372Zm8.191-2.2a5.731,5.731,0,0,1,1-3.542,3.237,3.237,0,0,1,2.729-1.318A2.913,2.913,0,0,1,118.4,8.352V3.5h2.549V17h-2.294l-.123-1.011a2.989,2.989,0,0,1-2.443,1.187,3.228,3.228,0,0,1-2.694-1.323A5.916,5.916,0,0,1,112.381,12.175Zm2.54.189a3.754,3.754,0,0,0,.466,2.051,1.517,1.517,0,0,0,1.354.713,1.7,1.7,0,0,0,1.661-.995V10.375a1.675,1.675,0,0,0-1.644-.995Q114.921,9.38,114.921,12.364ZM127.3,17.176a4.668,4.668,0,0,1-3.406-1.283,4.561,4.561,0,0,1-1.314-3.419v-.246a5.745,5.745,0,0,1,.554-2.562,4.064,4.064,0,0,1,1.569-1.74,4.4,4.4,0,0,1,2.316-.611,3.947,3.947,0,0,1,3.072,1.23,5,5,0,0,1,1.121,3.489v1.037h-6.056a2.36,2.36,0,0,0,.743,1.494,2.245,2.245,0,0,0,1.569.563,2.742,2.742,0,0,0,2.294-1.063l1.248,1.4a3.813,3.813,0,0,1-1.547,1.261A5.075,5.075,0,0,1,127.3,17.176Zm-.29-7.813a1.587,1.587,0,0,0-1.226.512,2.651,2.651,0,0,0-.6,1.466h3.533v-.2a1.891,1.891,0,0,0-.457-1.311A1.638,1.638,0,0,0,127.006,9.362Zm15.469.51a6.9,6.9,0,0,0-.914-.07,1.86,1.86,0,0,0-1.89.976V17h-2.54V7.49h2.4l.07,1.134a2.354,2.354,0,0,1,2.118-1.31,2.662,2.662,0,0,1,.791.114Zm3.9,7.128h-2.549V7.49h2.549Zm-2.7-11.971a1.251,1.251,0,0,1,.382-.94,1.648,1.648,0,0,1,2.079,0,1.244,1.244,0,0,1,.387.94,1.247,1.247,0,0,1-.391.949,1.629,1.629,0,0,1-2.065,0A1.247,1.247,0,0,1,143.679,5.029Zm9.167,12.146a4.668,4.668,0,0,1-3.406-1.283,4.561,4.561,0,0,1-1.314-3.419v-.246a5.745,5.745,0,0,1,.554-2.562,4.064,4.064,0,0,1,1.569-1.74,4.4,4.4,0,0,1,2.316-.611,3.947,3.947,0,0,1,3.072,1.23,5,5,0,0,1,1.121,3.489v1.037H150.7a2.36,2.36,0,0,0,.743,1.494,2.245,2.245,0,0,0,1.569.563,2.742,2.742,0,0,0,2.294-1.063l1.248,1.4a3.813,3.813,0,0,1-1.547,1.261A5.075,5.075,0,0,1,152.846,17.176Zm-.29-7.813a1.587,1.587,0,0,0-1.226.512,2.651,2.651,0,0,0-.6,1.466h3.533v-.2a1.891,1.891,0,0,0-.457-1.311A1.638,1.638,0,0,0,152.556,9.362Zm10.793,5.01a.818.818,0,0,0-.461-.734,5.241,5.241,0,0,0-1.481-.479q-3.393-.712-3.393-2.883a2.613,2.613,0,0,1,1.05-2.114,4.237,4.237,0,0,1,2.747-.848,4.56,4.56,0,0,1,2.9.853,2.687,2.687,0,0,1,1.085,2.215h-2.54a1.229,1.229,0,0,0-.352-.9,1.488,1.488,0,0,0-1.1-.356,1.52,1.52,0,0,0-.993.29.916.916,0,0,0-.352.738.783.783,0,0,0,.4.681,4.114,4.114,0,0,0,1.349.448,11.019,11.019,0,0,1,1.6.426,2.628,2.628,0,0,1,2.013,2.558,2.481,2.481,0,0,1-1.116,2.1,4.815,4.815,0,0,1-2.883.8,5.029,5.029,0,0,1-2.123-.426,3.561,3.561,0,0,1-1.455-1.169,2.716,2.716,0,0,1-.527-1.6h2.408a1.326,1.326,0,0,0,.5,1.037,1.987,1.987,0,0,0,1.248.36,1.839,1.839,0,0,0,1.1-.277A.861.861,0,0,0,163.349,14.372Zm3.735-2.2a5.573,5.573,0,0,1,1.042-3.524,3.375,3.375,0,0,1,2.808-1.336,2.96,2.96,0,0,1,2.435,1.072l.105-.9h2.3v9.193a4.064,4.064,0,0,1-.567,2.171,3.641,3.641,0,0,1-1.6,1.406,5.608,5.608,0,0,1-2.408.483,5.215,5.215,0,0,1-2.039-.417,3.619,3.619,0,0,1-1.5-1.077l1.125-1.547a2.975,2.975,0,0,0,2.3,1.063,2.178,2.178,0,0,0,1.573-.541,2.027,2.027,0,0,0,.563-1.534v-.51a2.938,2.938,0,0,1-2.312.993,3.366,3.366,0,0,1-2.773-1.34,5.572,5.572,0,0,1-1.059-3.555Zm2.54.189a3.47,3.47,0,0,0,.519,2.029,1.65,1.65,0,0,0,1.424.735,1.764,1.764,0,0,0,1.661-.871V10.251a1.76,1.76,0,0,0-1.644-.871,1.66,1.66,0,0,0-1.437.748A3.911,3.911,0,0,0,169.624,12.364Zm7.708-.207a5.64,5.64,0,0,1,.545-2.522,3.989,3.989,0,0,1,1.569-1.714,4.577,4.577,0,0,1,2.377-.606,4.33,4.33,0,0,1,3.142,1.178,4.727,4.727,0,0,1,1.358,3.2l.018.65a4.97,4.97,0,0,1-1.222,3.511,4.735,4.735,0,0,1-6.561,0,5.058,5.058,0,0,1-1.226-3.586Zm2.54.18a3.555,3.555,0,0,0,.51,2.073,1.831,1.831,0,0,0,2.9.009,3.89,3.89,0,0,0,.519-2.267,3.519,3.519,0,0,0-.519-2.06,1.686,1.686,0,0,0-1.459-.731,1.658,1.658,0,0,0-1.441.726A3.955,3.955,0,0,0,179.872,12.338Z" transform="translate(685 5841.826)" fill="#03386e"/>
    <path id="Trazado_613049" data-name="Trazado 613049" d="M41.985,22a6.01,6.01,0,0,1,5.939,5.042A10.013,10.013,0,0,1,57,37V54H35.034c-.462-6.9,3.909-10.775,6.921-12.607a9.091,9.091,0,0,1-2.24-1.315l-3.282.656a3.006,3.006,0,0,1-2.988-1.143L32.3,38.073a2.983,2.983,0,0,1,.405-4.043L41,27.514V23A1,1,0,0,1,41.985,22ZM58,56H34a3,3,0,0,0-3,3v2a1,1,0,0,0,1,1H60a1,1,0,0,0,1-1V59a3,3,0,0,0-3-3ZM15,13H31a3,3,0,0,0,3-3V9a3,3,0,0,0-3-3H27.9a5,5,0,0,0-9.8,0H15a3,3,0,0,0-3,3v1a3,3,0,0,0,3,3ZM11,46a1,1,0,1,0,1,1A1,1,0,0,0,11,46ZM34,23a1,1,0,1,0-1-1,1,1,0,0,0,1,1Zm-.96,31.1A4.988,4.988,0,0,0,30.01,56H8a5,5,0,0,1-5-5V13A5,5,0,0,1,8,8h2.1A5,5,0,0,0,10,9v1a5.006,5.006,0,0,0,5,5H31a5.006,5.006,0,0,0,5-5V9a5,5,0,0,0-.1-1H38a5,5,0,0,1,5,5v7.07A6.987,6.987,0,0,0,41.98,20,3,3,0,0,0,39,23v3.54l-7.53,5.92-.09.08a4.952,4.952,0,0,0-.67,6.73l1.13,1.52a5.044,5.044,0,0,0,4.01,2,4.591,4.591,0,0,0,.98-.1l.4-.08A14.58,14.58,0,0,0,33.04,54.1ZM31,22a3,3,0,1,0,3-3,3,3,0,0,0-3,3ZM14,47a3,3,0,1,0-3,3,3,3,0,0,0,3-3Zm7.293-12.293a1,1,0,1,0,1.414-1.414L21.414,32l1.293-1.293a1,1,0,1,0-1.414-1.414L20,30.586l-1.293-1.293a1,1,0,1,0-1.414,1.414L18.586,32l-1.293,1.293a1,1,0,1,0,1.414,1.414L20,33.414ZM26.414,42l1.293-1.293a1,1,0,1,0-1.414-1.414L25,40.586l-1.293-1.293a1,1,0,1,0-1.414,1.414L23.586,42l-1.293,1.293a1,1,0,1,0,1.414,1.414L25,43.414l1.293,1.293a1,1,0,1,0,1.414-1.414Zm2.293-20.707-3-3a1,1,0,1,0-1.414,1.414L25.586,21H15a5.006,5.006,0,0,0-5,5V41a1,1,0,0,0,2,0V26a3,3,0,0,1,3-3H25.586l-1.293,1.293a1,1,0,1,0,1.414,1.414l3-3a1,1,0,0,0,0-1.414Z" transform="translate(321 5919.826)" fill="#fff"/>
    <path id="Trazado_613050" data-name="Trazado 613050" d="M207.845,7.387l-5.878-2.939V0h-3.633V4.448l-5.879,2.939Z" transform="translate(332.096 5921.826)" fill="#fff"/>
    <path id="Trazado_613051" data-name="Trazado 613051" d="M31,91v32.7H85.492V91Zm14.531,7.266h3.633V101.9H45.531Zm0,18.164H41.9V112.8h3.633Zm25.43,0H67.328V112.8h3.633Zm-1.041-7.289-2.569-2.569,1.041-1.041H61.879a1.818,1.818,0,0,0-1.816,1.816v3.633a5.449,5.449,0,0,1-10.9,0,1.818,1.818,0,0,0-1.816-1.816H41.9v-3.633h5.449A5.455,5.455,0,0,1,52.8,110.98a1.816,1.816,0,0,0,3.633,0v-3.633a5.455,5.455,0,0,1,5.449-5.449h6.514l-1.041-1.041,2.569-2.569,5.426,5.426Z" transform="translate(474 5841.846)" fill="#fff"/>
    <path id="Trazado_613052" data-name="Trazado 613052" d="M160.207,391l-7.068,11.78,3.115,1.87,7.525-12.541v13.544h3.633V392.109l7.525,12.541,3.115-1.87L170.983,391Z" transform="translate(366.651 5578.174)" fill="#fff"/>
    <path id="Trazado_613053" data-name="Trazado 613053" d="M247.257,365.784a1.817,1.817,0,0,0,2.036.369l8.273-3.76-6.918-6.918-3.76,8.273A1.816,1.816,0,0,0,247.257,365.784Z" transform="translate(463.062 5609.397)" fill="#fff"/>
    <path id="Trazado_613054" data-name="Trazado 613054" d="M321.485,194.4l-5.138-5.138a1.816,1.816,0,0,0-2.569,0l-16.7,16.7,7.706,7.706,16.7-16.7a1.817,1.817,0,0,0,0-2.569Z" transform="translate(418.804 5755.953)" fill="#fff"/>
    <path id="Trazado_613055" data-name="Trazado 613055" d="M110.816,12.352h19.375a1.816,1.816,0,0,0,1.816-1.816V5.691a1.816,1.816,0,0,0-1.816-1.816h-3.027V1.816A1.816,1.816,0,0,0,125.348,0H115.66a1.816,1.816,0,0,0-1.816,1.816V3.875h-3.027A1.816,1.816,0,0,0,109,5.691v4.844A1.816,1.816,0,0,0,110.816,12.352Z" transform="translate(584.109 5921.826)" fill="#fff"/>
    <path id="Trazado_613056" data-name="Trazado 613056" d="M51.278,111.636l-9.419,4.282a5.449,5.449,0,0,1-6.108-1.108,5.474,5.474,0,0,1-1.108-6.108l4.281-9.419a5.435,5.435,0,0,1,1.108-1.6L56.227,81.49V68.816A1.816,1.816,0,0,0,54.41,67H47.75v2.422A5.455,5.455,0,0,1,42.3,74.871H22.926a5.455,5.455,0,0,1-5.449-5.449V67h-6.66A1.816,1.816,0,0,0,9,68.816V119.07a1.816,1.816,0,0,0,1.816,1.816H54.41a1.816,1.816,0,0,0,1.816-1.816V107.178l-3.351,3.351A5.432,5.432,0,0,1,51.278,111.636Zm-30.242-28.6a1.816,1.816,0,0,1,2.569,0l1.743,1.743L30.118,80a1.816,1.816,0,0,1,2.569,2.569l-6.055,6.055a1.816,1.816,0,0,1-2.569,0L21.036,85.6A1.816,1.816,0,0,1,21.036,83.032Zm0,11.807a1.816,1.816,0,0,1,2.569,0l1.743,1.743,4.77-4.77a1.816,1.816,0,0,1,2.569,2.569l-6.055,6.055a1.816,1.816,0,0,1-2.569,0l-3.027-3.027A1.816,1.816,0,0,1,21.036,94.839Zm-4.77,17.329a1.816,1.816,0,1,1,1.816-1.816A1.816,1.816,0,0,1,16.266,112.168Zm0-11.807a1.816,1.816,0,1,1,1.816-1.816A1.816,1.816,0,0,1,16.266,100.361Zm0-11.807a1.816,1.816,0,1,1,1.816-1.816A1.816,1.816,0,0,1,16.266,88.555Zm9.082,24.219a1.81,1.81,0,0,1-1.284-.532l-3.027-3.027a1.816,1.816,0,1,1,2.569-2.569l1.743,1.743,4.77-4.77a1.816,1.816,0,0,1,2.569,2.569l-6.055,6.055A1.811,1.811,0,0,1,25.348,112.773Z" transform="translate(672 5862.939)" fill="#fff"/>
    <path id="Trazado_614664" data-name="Trazado 614664" d="M6.5,0A6.5,6.5,0,1,1,0,6.5,6.5,6.5,0,0,1,6.5,0Z" transform="translate(869 5921.826)" fill="#fff"/>
    <path id="Trazado_613057" data-name="Trazado 613057" d="M20.5,8H11.643A6.65,6.65,0,0,0,5,14.643v2.214a2.214,2.214,0,0,0,2.214,2.214H24.929a2.214,2.214,0,0,0,2.214-2.214V14.643A6.65,6.65,0,0,0,20.5,8Z" transform="translate(859.643 5927.112)" fill="#fff"/>
    <path id="Trazado_613058" data-name="Trazado 613058" d="M36.733,29.222l-4.278-1.255a13.2,13.2,0,0,0-1.078-2.618l2.134-3.906a1.107,1.107,0,0,0-.235-1.219L31.2,18.153a1.107,1.107,0,0,0-1.219-.235L26.08,20.052a13.2,13.2,0,0,0-2.618-1.078L22.207,14.7a1.107,1.107,0,0,0-1.028-.7H18.25a1.107,1.107,0,0,0-1.028.7l-1.255,4.278a13.2,13.2,0,0,0-2.618,1.078L9.443,17.918a1.107,1.107,0,0,0-1.219.235L6.153,20.224a1.107,1.107,0,0,0-.235,1.219l2.134,3.906a13.2,13.2,0,0,0-1.078,2.618L2.7,29.222A1.107,1.107,0,0,0,2,30.25v2.929a1.107,1.107,0,0,0,.7,1.028l4.278,1.255A13.2,13.2,0,0,0,8.052,38.08L5.918,41.986A1.107,1.107,0,0,0,6.153,43.2l2.071,2.071a1.107,1.107,0,0,0,1.219.235l3.906-2.134a13.2,13.2,0,0,0,2.618,1.078l1.255,4.278a1.107,1.107,0,0,0,1.028.7h2.929a1.107,1.107,0,0,0,1.028-.7l1.255-4.278a13.2,13.2,0,0,0,2.618-1.078l3.906,2.134a1.107,1.107,0,0,0,1.219-.235L33.276,43.2a1.107,1.107,0,0,0,.235-1.219L31.376,38.08a13.2,13.2,0,0,0,1.078-2.618l4.278-1.255a1.107,1.107,0,0,0,.7-1.028V30.25A1.107,1.107,0,0,0,36.733,29.222ZM19.714,38.357a6.643,6.643,0,1,1,6.643-6.643A6.643,6.643,0,0,1,19.714,38.357Z" transform="translate(856 5934.397)" fill="#fff"/>
    <path id="Trazado_614665" data-name="Trazado 614665" d="M4.5,0A4.5,4.5,0,1,1,0,4.5,4.5,4.5,0,0,1,4.5,0Z" transform="translate(871 5961.826)" fill="#fff"/>
    <path id="Trazado_613059" data-name="Trazado 613059" d="M26,2v8.857h8.857Z" transform="translate(885.143 5919.826)" fill="#fff"/>
    <path id="Trazado_613060" data-name="Trazado 613060" d="M35.714,13.071A2.214,2.214,0,0,1,33.5,10.857V2H20.214A2.214,2.214,0,0,0,18,4.214v31a2.214,2.214,0,0,0,2.214,2.214h8.857v6.643H20.214V48.5H31.286A2.213,2.213,0,0,0,33.5,46.286V37.429h8.857a2.214,2.214,0,0,0,2.214-2.214V13.071ZM39.036,33h-15.5a1.107,1.107,0,1,1,0-2.214h15.5a1.107,1.107,0,1,1,0,2.214Zm0-4.429h-15.5a1.107,1.107,0,1,1,0-2.214h15.5a1.107,1.107,0,1,1,0,2.214Zm0-4.429h-15.5a1.107,1.107,0,1,1,0-2.214h15.5a1.107,1.107,0,1,1,0,2.214Zm0-4.429h-15.5a1.107,1.107,0,1,1,0-2.214h15.5a1.107,1.107,0,1,1,0,2.214Z" transform="translate(875.428 5919.826)" fill="#fff"/>
    <path id="Trazado_613061" data-name="Trazado 613061" d="M12.508,25.658A19.894,19.894,0,0,1,32.383,5.783V7.818a.273.273,0,0,0,.43.228l5.474-3.78a.272.272,0,0,0,0-.443L32.813.043a.279.279,0,0,0-.43.228V2.306A23.35,23.35,0,0,0,18.678,44.572l2.048-2.819A19.939,19.939,0,0,1,12.508,25.658Z" transform="translate(1029.121 5921.826)" fill="#fff"/>
    <path id="Trazado_613062" data-name="Trazado 613062" d="M187.12,100.535l-9.406-9.406a4.708,4.708,0,0,0-4.981-1.075L169.976,87.3a23.316,23.316,0,0,0-4.122-33.959l-2.048,2.819A19.873,19.873,0,0,1,152.15,92.127V90.091a.279.279,0,0,0-.43-.228l-5.487,3.793a.272.272,0,0,0,0,.443l5.487,3.768a.273.273,0,0,0,.43-.228V95.6a23.2,23.2,0,0,0,15.058-5.538l2.756,2.756a4.733,4.733,0,0,0,1.075,4.981l9.406,9.406a4.72,4.72,0,0,0,6.676-6.676Z" transform="translate(909.355 5875.231)" fill="#fff"/>
    <path id="Trazado_613063" data-name="Trazado 613063" d="M89.916,113.029l.455,2.706a1.043,1.043,0,0,0,1.024.872H94.1a1.043,1.043,0,0,0,1.024-.872l.455-2.744a11.415,11.415,0,0,0,2.87-1.2l2.25,1.606a1.055,1.055,0,0,0,1.353-.114l.961-.974.961-.974a1.07,1.07,0,0,0,.114-1.353l-1.606-2.25a11.687,11.687,0,0,0,1.214-2.946l2.731-.468a1.043,1.043,0,0,0,.872-1.024v-2.706a1.043,1.043,0,0,0-.872-1.024l-2.731-.455a11.534,11.534,0,0,0-1.226-2.946l1.606-2.25a1.055,1.055,0,0,0-.114-1.353l-.974-.961-.974-.961a1.085,1.085,0,0,0-1.34-.089l-2.25,1.606a11.686,11.686,0,0,0-2.946-1.214l-.468-2.731a1.043,1.043,0,0,0-1.024-.872H91.282a1.043,1.043,0,0,0-1.024.872L89.8,90.941a10.8,10.8,0,0,0-3.009,1.264l-2.225-1.58a1.055,1.055,0,0,0-1.353.114l-.961.974-.961.974a1.07,1.07,0,0,0-.114,1.353L82.8,96.315a11.84,11.84,0,0,0-1.2,2.946l-2.706.43a1.043,1.043,0,0,0-.872,1.024v2.706a1.043,1.043,0,0,0,.872,1.024l2.744.455a11.156,11.156,0,0,0,1.239,2.921l-1.58,2.225a1.072,1.072,0,0,0,.1,1.365l.974.961.974.961a1.07,1.07,0,0,0,1.353.114l2.276-1.618A11.84,11.84,0,0,0,89.916,113.029Zm-.872-14.843a5.239,5.239,0,1,1,0,7.409A5.235,5.235,0,0,1,89.044,98.186Z" transform="translate(968.845 5845.53)" fill="#fff"/>
    <path id="Trazado_613064" data-name="Trazado 613064" d="M214.449,121.969a15.9,15.9,0,1,0,0,22.479A15.9,15.9,0,0,0,214.449,121.969Zm-1.425,9.236-6.969,6.969a1.844,1.844,0,0,1-2.606,0l-3.56-3.56-3.671,3.671a1.843,1.843,0,1,1-2.607-2.606l4.975-4.975a1.842,1.842,0,0,1,2.607,0l3.56,3.56,5.665-5.665a1.843,1.843,0,0,1,2.606,2.606Z" transform="translate(1051.701 5818.018)" fill="#fff"/>
    <path id="Trazado_613065" data-name="Trazado 613065" d="M410.046,341.762a4.811,4.811,0,0,1-6.8,0l-5.874-5.874h0a19.673,19.673,0,0,0,6.845-6.758l5.83,5.83A4.811,4.811,0,0,1,410.046,341.762Z" transform="translate(867.455 5632.227)" fill="#fff"/>
    <path id="Trazado_613066" data-name="Trazado 613066" d="M18.274,18.274H8.79L18.274,8.79Z" transform="translate(1208.29 5913.207)" fill="#fff"/>
    <path id="Trazado_613067" data-name="Trazado 613067" d="M38.911,10.728A19.514,19.514,0,0,1,44.7,11.6V1.843A1.844,1.844,0,0,0,42.856,0H14.25V12.407a1.844,1.844,0,0,1-1.843,1.843H0V61.066a1.844,1.844,0,0,0,1.843,1.843H42.856A1.844,1.844,0,0,0,44.7,61.066V49.017a19.582,19.582,0,1,1-5.787-38.29ZM14.083,48.042H6.389a1.843,1.843,0,1,1,0-3.686h7.694a1.843,1.843,0,1,1,0,3.686Zm0-7.372H6.389a1.843,1.843,0,1,1,0-3.686h7.694a1.843,1.843,0,1,1,0,3.686Zm0-7.372H6.389a1.843,1.843,0,1,1,0-3.686h7.694a1.843,1.843,0,1,1,0,3.686Zm0-7.372H6.389a1.843,1.843,0,1,1,0-3.686h7.694a1.843,1.843,0,1,1,0,3.686Z" transform="translate(1216 5920.917)" fill="#fff"/>
  </g>
</svg>
