<svg xmlns="http://www.w3.org/2000/svg" width="62.504" height="62.504" viewBox="0 0 62.504 62.504">
  <g id="Group_1075267" data-name="Group 1075267" transform="translate(-273 -17921.826)">
    <g id="Group_1075251" data-name="Group 1075251" transform="translate(-6.816 16722.838)">
      <g id="Group_1072053" data-name="Group 1072053" transform="translate(279.816 1198.988)">
        <circle id="Ellipse_4742" data-name="Ellipse 4742" cx="31.252" cy="31.252" r="31.252" transform="translate(0)" fill="#eba325"/>
      </g>
      <g id="_OUTLINE" data-name="/ OUTLINE" transform="translate(274.816 1193.988)">
        <path id="Path_614562" data-name="Path 614562" d="M126.1,27.667H130.8a2.049,2.049,0,0,1,1.459.6l1.139,1.139a3.416,3.416,0,0,0,2.431,1.007h9.176V29.042h-6.189V18.063A2.065,2.065,0,0,0,136.758,16H115.439a2.065,2.065,0,0,0-2.063,2.063V29.794a1.85,1.85,0,0,0,.009,3.579l9.2,2.4a26.628,26.628,0,0,0,11.876.343l.988-.2h9.56V34.544h-9.7l-1.122.224a25.246,25.246,0,0,1-11.259-.325l-9.2-2.4a.476.476,0,0,1,.12-.937h16.717V29.73H126.1a1.032,1.032,0,0,1,0-2.063Zm-6.533-10.292h2.751v5.5h-2.751ZM123.691,28.7a2.392,2.392,0,0,0,.233,1.032h-9.173V18.063a.689.689,0,0,1,.688-.688h2.751v6.877h5.5V17.375h13.067a.688.688,0,0,1,.688.688V29.042h-1.611a2.05,2.05,0,0,1-1.459-.6L133.236,27.3a3.416,3.416,0,0,0-2.431-1.007H126.1a2.41,2.41,0,0,0-2.407,2.407Z" transform="translate(-87.747)"/>
        <path id="Path_614563" data-name="Path 614563" d="M47.159,284.355h-.616A8.252,8.252,0,0,0,39.382,272H35.944a8.254,8.254,0,0,0-8.1,9.854c-.024.023-.049.046-.073.07l-1.139,1.139a2.049,2.049,0,0,1-1.459.6H16v1.375h9.176a3.416,3.416,0,0,0,2.431-1.007l1.14-1.139a2.049,2.049,0,0,1,1.459-.6h4.706a1.032,1.032,0,0,1,0,2.063h-4.47v1.375H47.159a.476.476,0,0,1,.12.937l-9.2,2.4a25.246,25.246,0,0,1-11.259.325l-1.122-.224H16v1.375h9.56l.988.2a26.627,26.627,0,0,0,11.876-.343l9.2-2.4a1.852,1.852,0,0,0-.467-3.643ZM45.683,277.5H43.724a8.292,8.292,0,0,0-3.041-4A6.9,6.9,0,0,1,45.683,277.5Zm-4.221,6.853H37.086a2.406,2.406,0,0,0-2.174-3.439H30.206a3.444,3.444,0,0,0-1.088.176,6.877,6.877,0,1,1,12.344,3.263Zm3.439,0H43.1A8.27,8.27,0,0,0,43.723,283h1.96a6.861,6.861,0,0,1-.782,1.351Zm1.217-2.727H44.079a8.212,8.212,0,0,0,0-2.751h2.04a6.845,6.845,0,0,1,0,2.751Z" transform="translate(0 -233.993)"/>
        <path id="Path_614564" data-name="Path 614564" d="M32.822,113.981l-.27,1.349,4.113.823.823-4.113-1.349-.27-.32,1.6a17.735,17.735,0,0,1-2.444-9.031,17.921,17.921,0,0,1,5.869-13.245l-.924-1.018A19.3,19.3,0,0,0,32,104.34a19.1,19.1,0,0,0,2.822,10.041Z" transform="translate(-14.624 -67.708)"/>
        <path id="Path_614565" data-name="Path 614565" d="M405.192,261.938l.825,1.1,1.411-1.058a17.865,17.865,0,0,1-5.058,9.773l.968.977a19.246,19.246,0,0,0,5.3-9.746l.454,1.134,1.277-.511-1.709-4.272Z" transform="translate(-353.156 -222.418)"/>
      </g>
    </g>
  </g>
</svg>
