<svg xmlns="http://www.w3.org/2000/svg" width="141" height="141" viewBox="0 0 141 141">
  <g id="Grupo_1075132" data-name="Grupo 1075132" transform="translate(-317 -12036.555)">
    <g id="Grupo_1072482" data-name="Grupo 1072482" transform="translate(48 11078.555)">
      <circle id="Elipse_5614" data-name="Elipse 5614" cx="70.5" cy="70.5" r="70.5" transform="translate(269 958)" fill="#fff"/>
    </g>
    <g id="bares" transform="translate(343 12062.555)">
      <path id="Trazado_610148" data-name="Trazado 610148" d="M109.354,107.887V80H80v42.564l16.145-5.871Zm0,0" transform="translate(-65.323 -65.323)" fill="#af4a47"/>
      <path id="Trazado_610149" data-name="Trazado 610149" d="M269.354,35.225V0H240V42.564l13.21-7.339Zm0,0" transform="translate(-195.968)" fill="#568e53"/>
      <path id="Trazado_610150" data-name="Trazado 610150" d="M80,109.336c.245.005.487.019.734.019a47.011,47.011,0,0,0,28.621-9.687V80H80Zm0,0" transform="translate(-65.323 -65.323)" fill="#e4725f"/>
      <path id="Trazado_610151" data-name="Trazado 610151" d="M240,34.345A48.554,48.554,0,0,0,258.875,0H240Zm0,0" transform="translate(-195.968)" fill="#7ecb92"/>
      <g id="Grupo_1072773" data-name="Grupo 1072773" transform="translate(20.548 5.871)">
        <path id="Trazado_610152" data-name="Trazado 610152" d="M112,112h5.871v5.871H112Zm0,0" transform="translate(-112 -97.323)" fill="#8bd2f5"/>
        <path id="Trazado_610153" data-name="Trazado 610153" d="M176,112h5.871v5.871H176Zm0,0" transform="translate(-164.258 -97.323)" fill="#8bd2f5"/>
        <path id="Trazado_610154" data-name="Trazado 610154" d="M112,176h5.871v5.871H112Zm0,0" transform="translate(-112 -149.581)" fill="#8bd2f5"/>
        <path id="Trazado_610155" data-name="Trazado 610155" d="M176,176h5.871v5.871H176Zm0,0" transform="translate(-164.258 -149.581)" fill="#8bd2f5"/>
        <path id="Trazado_610156" data-name="Trazado 610156" d="M272,32h5.871v5.871H272Zm0,0" transform="translate(-242.645 -32)" fill="#8bd2f5"/>
        <path id="Trazado_610157" data-name="Trazado 610157" d="M336,32h5.871v5.871H336Zm0,0" transform="translate(-294.904 -32)" fill="#8bd2f5"/>
        <path id="Trazado_610158" data-name="Trazado 610158" d="M272,96h5.871v5.871H272Zm0,0" transform="translate(-242.645 -84.258)" fill="#8bd2f5"/>
        <path id="Trazado_610159" data-name="Trazado 610159" d="M336,96h5.871v5.871H336Zm0,0" transform="translate(-294.904 -84.258)" fill="#8bd2f5"/>
      </g>
      <path id="Trazado_610160" data-name="Trazado 610160" d="M136,360.951V336h8.806v24.951" transform="translate(-111.049 -274.356)" fill="#0c5e46"/>
      <path id="Trazado_610161" data-name="Trazado 610161" d="M56,400.145V384h8.806v16.145" transform="translate(-45.726 -313.549)" fill="#0c5e46"/>
      <path id="Trazado_610162" data-name="Trazado 610162" d="M216,334.822V304h8.806v30.822" transform="translate(-176.371 -248.226)" fill="#0c5e46"/>
      <path id="Trazado_610163" data-name="Trazado 610163" d="M296,308.693V272h8.806v36.693" transform="translate(-241.694 -222.097)" fill="#0c5e46"/>
      <path id="Trazado_610164" data-name="Trazado 610164" d="M376,282.564V240h8.806v42.564" transform="translate(-307.017 -195.968)" fill="#0c5e46"/>
      <path id="Trazado_610165" data-name="Trazado 610165" d="M35.652,291.375l18.511-7.4,1.089,2.726-18.511,7.4Zm0,0" transform="translate(-29.111 -231.877)" fill="#f0d365"/>
      <path id="Trazado_610166" data-name="Trazado 610166" d="M163.789,207.868l23.479-14.689,1.557,2.489-23.478,14.688Zm0,0" transform="translate(-133.739 -157.738)" fill="#f0d365"/>
      <path id="Trazado_610167" data-name="Trazado 610167" d="M328,184h20.548v2.935H328Zm0,0" transform="translate(-267.823 -150.242)" fill="#f0d365"/>
      <path id="Trazado_610168" data-name="Trazado 610168" d="M0,464H88.063v2.935H0Zm0,0" transform="translate(0 -378.872)" fill="#03386e"/>
      <path id="Trazado_610169" data-name="Trazado 610169" d="M136.806,268.4a4.4,4.4,0,1,1-4.4-4.4A4.4,4.4,0,0,1,136.806,268.4Zm0,0" transform="translate(-104.516 -215.565)" fill="#66acd7"/>
      <path id="Trazado_610170" data-name="Trazado 610170" d="M8.806,316.4A4.4,4.4,0,1,1,4.4,312,4.4,4.4,0,0,1,8.806,316.4Zm0,0" transform="translate(0 -254.759)" fill="#66acd7"/>
      <path id="Trazado_610171" data-name="Trazado 610171" d="M296.806,172.4a4.4,4.4,0,1,1-4.4-4.4A4.4,4.4,0,0,1,296.806,172.4Zm0,0" transform="translate(-235.162 -137.178)" fill="#66acd7"/>
      <path id="Trazado_610172" data-name="Trazado 610172" d="M440.806,172.4a4.4,4.4,0,1,1-4.4-4.4A4.4,4.4,0,0,1,440.806,172.4Zm0,0" transform="translate(-352.743 -137.178)" fill="#66acd7"/>
    </g>
  </g>
</svg>
