<svg xmlns="http://www.w3.org/2000/svg" xmlns:xlink="http://www.w3.org/1999/xlink" width="400" height="226.22" viewBox="0 0 400 226.22">
  <defs>
    <clipPath id="clip-path">
      <rect id="Rectángulo_378571" data-name="Rectángulo 378571" width="312.633" height="221.22" fill="none"/>
    </clipPath>
  </defs>
  <g id="Grupo_1072772" data-name="Grupo 1072772" transform="translate(-390 -10372.78)">
    <rect id="Rectángulo_377854" data-name="Rectángulo 377854" width="400" height="144" rx="72" transform="translate(390 10455)" fill="#fff"/>
    <g id="Grupo_1072771" data-name="Grupo 1072771" transform="translate(434 10372.779)">
      <g id="Grupo_1072770" data-name="Grupo 1072770" transform="translate(0 0.001)" clip-path="url(#clip-path)">
        <path id="Trazado_610052" data-name="Trazado 610052" d="M297.515,189.48H61.781s13.254-5.139,27.652-19.126,20.071-17.488,37.761-20.78,14.81-13.988,36.2-16.045S198.367,121.6,203.3,117.073s27.153,1.555,32.089,19.7,14.811,12,25.1,25.155,34.146,9.86,37.026,27.55" transform="translate(-17.311 -32.403)" fill="#5e732f"/>
        <path id="Trazado_610053" data-name="Trazado 610053" d="M299.369,204.888H381.24s9.728-34.6,4.591-38.169-9.569,10.914-14.448-6.53-8.7-38.8-24.346-35.914S330,171.306,319.177,173.166s-21.6,18.757-19.808,31.722" transform="translate(-83.829 -34.749)" fill="#79943c"/>
        <line id="Línea_1054" data-name="Línea 1054" x2="83.353" transform="translate(207.804 170.139)" fill="none" stroke="#292e4a" stroke-miterlimit="10" stroke-width="1"/>
        <path id="Trazado_610054" data-name="Trazado 610054" d="M38.812,45.613H132.9s-13.87-4.022-16.175-9.018-3.937-8.084-8.549-8.468-6.739.384-10.96-5.956-10.369-8.839-15.557-7.109S72.437,31.97,64.176,33.7s-10.952.192-13.642,1.73-9.224,9.607-11.721,10.184" transform="translate(-10.875 -4.071)" fill="#a6b1ed"/>
        <path id="Trazado_610055" data-name="Trazado 610055" d="M286.279,40.118h94.99s2.3-9.27-3.554-12.155-7.109,2.472-12.336-1.03S367.052,2.418,357.643.152s-21.6,21.631-32.859,21.013-14.81-2.06-18.991,1.236S290.6,39.5,286.279,40.118" transform="translate(-80.216 -0.001)" fill="#a6b1ed"/>
        <path id="Trazado_610147" data-name="Trazado 610147" d="M0,0H55.394V70.868H0Z" transform="translate(188.735 29.056)" fill="#dbe5f3"/>
        <line id="Línea_1055" data-name="Línea 1055" x2="32.197" transform="translate(196.92 41.851)" fill="none" stroke="#fff" stroke-miterlimit="10" stroke-width="0.977"/>
        <line id="Línea_1056" data-name="Línea 1056" x2="39.025" transform="translate(196.92 48.319)" fill="none" stroke="#fff" stroke-miterlimit="10" stroke-width="0.977"/>
        <line id="Línea_1057" data-name="Línea 1057" x2="39.025" transform="translate(196.92 54.787)" fill="none" stroke="#fff" stroke-miterlimit="10" stroke-width="0.977"/>
        <line id="Línea_1058" data-name="Línea 1058" x2="39.025" transform="translate(196.92 61.256)" fill="none" stroke="#fff" stroke-miterlimit="10" stroke-width="0.977"/>
        <line id="Línea_1059" data-name="Línea 1059" x2="39.025" transform="translate(196.92 67.724)" fill="none" stroke="#fff" stroke-miterlimit="10" stroke-width="0.977"/>
        <line id="Línea_1060" data-name="Línea 1060" x2="39.025" transform="translate(196.92 74.193)" fill="none" stroke="#fff" stroke-miterlimit="10" stroke-width="0.977"/>
        <line id="Línea_1061" data-name="Línea 1061" x2="39.025" transform="translate(196.92 80.661)" fill="none" stroke="#fff" stroke-miterlimit="10" stroke-width="0.977"/>
        <line id="Línea_1062" data-name="Línea 1062" x2="39.025" transform="translate(196.92 87.13)" fill="none" stroke="#fff" stroke-miterlimit="10" stroke-width="0.977"/>
        <path id="Trazado_610056" data-name="Trazado 610056" d="M219.6,103.679V88.8l-9.329.275a26.97,26.97,0,0,0-2.609-6.292l6.793-6.4L203.937,65.859l-6.4,6.793a26.971,26.971,0,0,0-6.292-2.609l.275-9.329H176.637l.275,9.329a26.971,26.971,0,0,0-6.292,2.609l-6.4-6.793L153.7,76.38l6.793,6.4a26.97,26.97,0,0,0-2.609,6.292L148.55,88.8v14.878l9.329-.275a26.971,26.971,0,0,0,2.609,6.292l-6.793,6.4,10.521,10.521,6.4-6.793a26.97,26.97,0,0,0,6.292,2.609l-.275,9.329h14.878l-.275-9.329a26.97,26.97,0,0,0,6.292-2.609l6.4,6.793L214.458,116.1l-6.793-6.4a26.971,26.971,0,0,0,2.609-6.292Zm-35.526,1.792a9.231,9.231,0,1,1,9.231-9.231,9.231,9.231,0,0,1-9.231,9.231" transform="translate(-41.624 -17.013)" fill="#6470b5"/>
        <path id="Trazado_610057" data-name="Trazado 610057" d="M190.672,84.252a18.584,18.584,0,1,0,18.584,18.584,18.584,18.584,0,0,0-18.584-18.584m0,27.815a9.231,9.231,0,1,1,9.231-9.231,9.231,9.231,0,0,1-9.231,9.231" transform="translate(-48.219 -23.608)" fill="#292e4a"/>
        <path id="Trazado_610058" data-name="Trazado 610058" d="M234.219,29.24V20.191l-5.675.167a16.43,16.43,0,0,0-1.587-3.827l4.132-3.9-6.4-6.4-3.9,4.132a16.417,16.417,0,0,0-3.827-1.587l.167-5.674h-9.049l.167,5.674a16.417,16.417,0,0,0-3.827,1.587l-3.9-4.132-6.4,6.4,4.132,3.9a16.43,16.43,0,0,0-1.587,3.827L191,20.191V29.24l5.675-.167a16.417,16.417,0,0,0,1.587,3.827l-4.132,3.9,6.4,6.4,3.9-4.132a16.416,16.416,0,0,0,3.827,1.587l-.167,5.675h9.049l-.167-5.675a16.417,16.417,0,0,0,3.827-1.587l3.9,4.132,6.4-6.4-4.132-3.9a16.417,16.417,0,0,0,1.587-3.827ZM212.61,30.33a5.615,5.615,0,1,1,5.615-5.615,5.615,5.615,0,0,1-5.615,5.615" transform="translate(-53.519 -0.871)" fill="#a6b1ed"/>
        <path id="Trazado_610059" data-name="Trazado 610059" d="M224.027,201.883c-.882,3.232-2.585,7.387-2.989,11.084s6.459,5.8,7.348,3.94a5.364,5.364,0,0,1-.145-4.964c1.557-4.119,2.352-5.885,1.622-8.741-.555-2.169-5.292-3.313-5.836-1.32" transform="translate(-61.931 -56.28)" fill="#cc9b74"/>
        <path id="Trazado_610060" data-name="Trazado 610060" d="M270.792,123.456s-10.839,5.594-17.832,4.9-24.126-2.834-30.419,3.565S191.073,169.26,192.3,171.532s29.2,24.475,35.139,22.552,32.2-28.67,38.829-32.692,16.525-8.915,16.525-8.915Z" transform="translate(-53.87 -34.593)" fill="#cc9b74"/>
        <path id="Trazado_610061" data-name="Trazado 610061" d="M142.523,114.126s18.813,10.038,26.855,10.562,22.162-.7,32.322,2.1,1.455,7.692,5.021,11.189,28.723,18.12,32.587,20.629,4.895,5.8,2.272,8.057-5.769,1.558-10.664-1.24-14.161-9.44-14.685-8.042,15.734,11.562,18.006,13.473,2.622,5.058-1.049,6.981-6.818,2.1-9.965,0-13.811-9.965-15.035-8.741,5.6,4.895,9.965,8.172c4.078,3.057,7.168,4.065,7.518,6.513s-3.464,6.8-9.79,4.72c-3.729-1.224-13.636-8.566-15.151-7.518S215.181,188.44,214.948,191s-3.613,6.847-13.249,2.215c-5.879-2.827-41.646-27.972-45.375-30.769s-35.259-19.4-35.259-19.4Z" transform="translate(-33.923 -31.979)" fill="#f9cca9"/>
        <path id="Trazado_610062" data-name="Trazado 610062" d="M249.088,161.831s-1.224,5.363-5.419,7.752c.437,3.175-1.923,9.381-6.993,11.09-.438,3.548-3.484,9.315-7.081,10.528" transform="translate(-64.333 -45.346)" fill="none" stroke="#cc9b74" stroke-linecap="round" stroke-linejoin="round" stroke-width="0.972"/>
        <path id="Trazado_610063" data-name="Trazado 610063" d="M200.814,134.506c-.1-1.517,7.109-2.214,12-3.846s13.4-4.243,20.4-3.929,15.494,2.13,21.325,2.447,1.519,6.843-4.076,8.475-17.854,5.827-21.4,3.846-6.691-2.8-12.168-2.331-15.851-1.049-16.084-4.662" transform="translate(-56.268 -35.504)" fill="#cc9b74"/>
        <path id="Trazado_610064" data-name="Trazado 610064" d="M387.373,81.363c9.077,23.351,8.46,45.381-1.379,49.206s-25.174-12-34.252-35.356-8.459-45.381,1.38-49.206,25.173,12,34.251,35.356" transform="translate(-96.759 -12.732)" fill="#292e4a"/>
        <line id="Línea_1063" data-name="Línea 1063" y1="6.774" x2="15.122" transform="translate(279.071 95.681)" fill="none" stroke="#6470b5" stroke-miterlimit="10" stroke-width="0.972"/>
        <path id="Trazado_610065" data-name="Trazado 610065" d="M306.919,113.539s-5.273,2.054-7.361,2.71c-1.427.448-3.111,1.087-4.033,1.446a.707.707,0,0,0-.388.95c1.362,3.053,6.919,15.519,8.266,18.693,1.538,3.626,5.712,14.941,6.262,15.6s12.963-4.284,12.963-4.284Z" transform="translate(-82.681 -31.815)" fill="#292e4a"/>
        <path id="Trazado_610066" data-name="Trazado 610066" d="M307.842,100.628l49.533-28.176s4.9,6.643,4.546,13.724,6.119,10.927,5.944,23.164c-.08,5.594,4.371,10.665,4.371,10.665l-47.2,20.454Z" transform="translate(-86.258 -20.302)" fill="#6470b5"/>
        <line id="Línea_1064" data-name="Línea 1064" x1="55.011" y2="31.673" transform="translate(221.584 48.654)" fill="none" stroke="#fff" stroke-miterlimit="10" stroke-width="0.972"/>
        <line id="Línea_1065" data-name="Línea 1065" y1="12.19" x2="26.579" transform="translate(228.92 85.134)" fill="none" stroke="#292e4a" stroke-miterlimit="10" stroke-width="0.972"/>
        <path id="Trazado_610067" data-name="Trazado 610067" d="M327.186,122.4a2.71,2.71,0,1,1-2.71-2.709,2.71,2.71,0,0,1,2.71,2.709" transform="translate(-90.16 -33.539)" fill="#fff"/>
        <path id="Trazado_610068" data-name="Trazado 610068" d="M324.6,122.349a.27.27,0,1,1-.269-.268.27.27,0,0,1,.269.268" transform="translate(-90.802 -34.208)" fill="#292e4a"/>
        <path id="Trazado_610069" data-name="Trazado 610069" d="M326.794,122.349a.27.27,0,1,1-.27-.268.27.27,0,0,1,.27.268" transform="translate(-91.417 -34.208)" fill="#292e4a"/>
        <path id="Trazado_610070" data-name="Trazado 610070" d="M324.6,124.353a.27.27,0,1,1-.269-.269.269.269,0,0,1,.269.269" transform="translate(-90.802 -34.769)" fill="#292e4a"/>
        <path id="Trazado_610071" data-name="Trazado 610071" d="M326.794,124.353a.27.27,0,1,1-.27-.269.269.269,0,0,1,.27.269" transform="translate(-91.417 -34.769)" fill="#292e4a"/>
        <path id="Trazado_610072" data-name="Trazado 610072" d="M341.916,116.249a2.71,2.71,0,1,1-2.71-2.71,2.71,2.71,0,0,1,2.71,2.71" transform="translate(-94.287 -31.815)" fill="#fff"/>
        <path id="Trazado_610073" data-name="Trazado 610073" d="M339.328,116.2a.27.27,0,1,1-.27-.269.269.269,0,0,1,.27.269" transform="translate(-94.929 -32.484)" fill="#292e4a"/>
        <path id="Trazado_610074" data-name="Trazado 610074" d="M341.524,116.2a.27.27,0,1,1-.269-.269.269.269,0,0,1,.269.269" transform="translate(-95.545 -32.484)" fill="#292e4a"/>
        <path id="Trazado_610075" data-name="Trazado 610075" d="M339.328,118.2a.27.27,0,1,1-.27-.269.269.269,0,0,1,.27.269" transform="translate(-94.929 -33.045)" fill="#292e4a"/>
        <path id="Trazado_610076" data-name="Trazado 610076" d="M341.524,118.2a.27.27,0,1,1-.269-.269.269.269,0,0,1,.269.269" transform="translate(-95.545 -33.045)" fill="#292e4a"/>
        <path id="Trazado_610077" data-name="Trazado 610077" d="M58.846,81.363c-9.077,23.351-8.46,45.381,1.379,49.206s25.174-12,34.252-35.356,8.459-45.381-1.38-49.206-25.173,12-34.251,35.356" transform="translate(-14.689 -12.732)" fill="#292e4a"/>
        <line id="Línea_1066" data-name="Línea 1066" x1="15.122" y1="6.774" transform="translate(40.578 95.681)" fill="none" stroke="#f70" stroke-linecap="round" stroke-linejoin="round" stroke-width="0.972"/>
        <path id="Trazado_610078" data-name="Trazado 610078" d="M147.712,112.708s4.859,2.724,6.852,3.628c1.193.541,3,1.371,3.924,1.73a.708.708,0,0,1,.388.951c-1.363,3.053-6.57,14.914-7.916,18.089-1.537,3.625-7.647,16.538-8.2,17.2s-11.029-5.882-11.029-5.882Z" transform="translate(-36.912 -31.582)" fill="#995417"/>
        <path id="Trazado_610079" data-name="Trazado 610079" d="M131.477,100.628,81.944,72.452s-.46,9.091-7.453,13.054C68.324,89,62.1,96.267,67.084,107.446c3.19,7.159,0,12.558,0,12.558l47.2,20.454Z" transform="translate(-18.289 -20.302)" fill="#fef5e5"/>
        <line id="Línea_1067" data-name="Línea 1067" x2="55.011" y2="31.673" transform="translate(58.177 48.654)" fill="none" stroke="#fff" stroke-linecap="round" stroke-linejoin="round" stroke-width="0.972"/>
        <line id="Línea_1068" data-name="Línea 1068" x1="26.579" y1="12.19" transform="translate(79.272 85.134)" fill="none" stroke="#995417" stroke-miterlimit="10" stroke-width="0.972"/>
        <path id="Trazado_610080" data-name="Trazado 610080" d="M135.795,122.4a2.71,2.71,0,1,0,2.71-2.709,2.71,2.71,0,0,0-2.71,2.709" transform="translate(-38.05 -33.539)" fill="#fff"/>
        <path id="Trazado_610081" data-name="Trazado 610081" d="M140.283,122.349a.27.27,0,1,0,.269-.268.27.27,0,0,0-.269.268" transform="translate(-39.308 -34.208)" fill="#292e4a"/>
        <path id="Trazado_610082" data-name="Trazado 610082" d="M138.087,122.349a.27.27,0,1,0,.269-.268.27.27,0,0,0-.269.268" transform="translate(-38.692 -34.208)" fill="#292e4a"/>
        <path id="Trazado_610083" data-name="Trazado 610083" d="M140.283,124.353a.27.27,0,1,0,.269-.269.269.269,0,0,0-.269.269" transform="translate(-39.308 -34.769)" fill="#292e4a"/>
        <path id="Trazado_610084" data-name="Trazado 610084" d="M138.087,124.353a.27.27,0,1,0,.269-.269.269.269,0,0,0-.269.269" transform="translate(-38.692 -34.769)" fill="#292e4a"/>
        <path id="Trazado_610085" data-name="Trazado 610085" d="M121.065,116.249a2.71,2.71,0,1,0,2.71-2.71,2.71,2.71,0,0,0-2.71,2.71" transform="translate(-33.923 -31.815)" fill="#fff"/>
        <path id="Trazado_610086" data-name="Trazado 610086" d="M125.553,116.2a.27.27,0,1,0,.269-.269.269.269,0,0,0-.269.269" transform="translate(-35.18 -32.484)" fill="#292e4a"/>
        <path id="Trazado_610087" data-name="Trazado 610087" d="M123.357,116.2a.27.27,0,1,0,.269-.269.269.269,0,0,0-.269.269" transform="translate(-34.565 -32.484)" fill="#292e4a"/>
        <path id="Trazado_610088" data-name="Trazado 610088" d="M125.553,118.2a.27.27,0,1,0,.269-.269.269.269,0,0,0-.269.269" transform="translate(-35.18 -33.045)" fill="#292e4a"/>
        <path id="Trazado_610089" data-name="Trazado 610089" d="M123.357,118.2a.27.27,0,1,0,.269-.269.269.269,0,0,0-.269.269" transform="translate(-34.565 -33.045)" fill="#292e4a"/>
        <path id="Trazado_610090" data-name="Trazado 610090" d="M173.676,179.062c0-3.731,3.264-15.617,6.411-15.268s5.128,2.681,4.778,6.526-3.962,11.888-3.263,13.17,2.681,1.632,1.631,2.331-9.557-1.165-9.557-6.76" transform="translate(-48.664 -45.894)" fill="#cc9b74"/>
        <path id="Trazado_610091" data-name="Trazado 610091" d="M191.228,191.624c-1.165-2.019-1.282-5.711,0-9.557s4.685-12.561,5.827-12.82c2.564-.583,5.711,1.864,6.526,5.128s-6.454,17.5-5.4,18.553,1.727,1.386,1.465,1.88c-.962,1.813-6.665-.153-8.414-3.184" transform="translate(-53.325 -47.4)" fill="#cc9b74"/>
        <path id="Trazado_610092" data-name="Trazado 610092" d="M206.641,203.515c-.292-2.008,3.018-14.921,5.378-15.445s5.023,2.333,5.373,5.13-3.42,12.29-2.91,13.115c.459.743,1.508,1.268,1.426,1.61-.6,2.5-8.626,0-9.267-4.411" transform="translate(-57.896 -52.681)" fill="#cc9b74"/>
        <path id="Trazado_610093" data-name="Trazado 610093" d="M333.374,218.06h56.811s10.245-26.666,9.934-35.358-4.967-6.218-2.173-17.855,7.451-31.21-.931-32.444-24.525,38.5-32.286,40.986S349.517,180.84,343,192.636a111.345,111.345,0,0,0-9.624,25.424" transform="translate(-93.412 -37.092)" fill="#8ead46"/>
        <path id="Trazado_610094" data-name="Trazado 610094" d="M410.337,132.739s-15.664,52.83-32.745,85.423" transform="translate(-105.802 -37.195)" fill="none" stroke="#525730" stroke-miterlimit="10" stroke-width="1"/>
        <path id="Trazado_610095" data-name="Trazado 610095" d="M385.147,172.018s-7.358,29.776-15.489,57.15" transform="translate(-103.579 -48.201)" fill="none" stroke="#525730" stroke-miterlimit="10" stroke-width="1"/>
        <path id="Trazado_610096" data-name="Trazado 610096" d="M412.295,181.666s-15.039,34.168-25.528,50.206" transform="translate(-108.373 -50.904)" fill="none" stroke="#525730" stroke-miterlimit="10" stroke-width="1"/>
        <line id="Línea_1069" data-name="Línea 1069" x2="80.236" transform="translate(225.677 180.968)" fill="none" stroke="#292e4a" stroke-miterlimit="10" stroke-width="1"/>
        <path id="Trazado_610097" data-name="Trazado 610097" d="M391.881,300.456c0,2.137-4.379,3.869-9.779,3.869s-9.778-1.732-9.778-3.869,4.378-3.869,9.778-3.869,9.779,1.732,9.779,3.869" transform="translate(-104.326 -83.105)" fill="#c3c4c9"/>
        <path id="Trazado_610098" data-name="Trazado 610098" d="M340.884,300.456c0,2.137-4.379,3.869-9.779,3.869s-9.778-1.732-9.778-3.869,4.378-3.869,9.778-3.869,9.779,1.732,9.779,3.869" transform="translate(-90.036 -83.105)" fill="#c3c4c9"/>
        <path id="Trazado_610099" data-name="Trazado 610099" d="M347.852,184.51H341.2a.7.7,0,0,1-.654-.449l-4.282-11.14a.426.426,0,0,1,.4-.579h6.655a.7.7,0,0,1,.654.45l4.281,11.139a.426.426,0,0,1-.4.579" transform="translate(-94.213 -48.292)" fill="#cc9b74"/>
        <path id="Trazado_610100" data-name="Trazado 610100" d="M384.9,294.148l2.256,2.461s-3.657,3.042-4.58,3.315a16.35,16.35,0,0,1-3.657,0c-.957,0,1.47-.821,2.256-1.64s1.47-4.136,1.47-4.136Z" transform="translate(-106.111 -82.422)" fill="#6470b5"/>
        <path id="Trazado_610101" data-name="Trazado 610101" d="M335.029,294.154s2,5.533-.256,5.533h-5.947c-.975,0-6.46-3.175-5.9-3.8s3.435.133,4.358.089,2.922-.222,3.845-1.023.872-1.113.872-1.113Z" transform="translate(-90.474 -82.336)" fill="#6470b5"/>
        <path id="Trazado_610102" data-name="Trazado 610102" d="M347.722,217.7s-9.55,31.786-14.164,55.472h5.221s11.7-32.094,14.107-36.4l1.219,14.355s9.907,16.509,15.444,22.045h3.691s-10.151-18.969-10.766-26.352a115.447,115.447,0,0,1-.205-16.611c.205-4.2,1.64-9.741-.512-12.509Z" transform="translate(-93.464 -61)" fill="#3f4152"/>
        <path id="Trazado_610103" data-name="Trazado 610103" d="M381.238,286.183s-3.066-5.73-5.929-12.117h0a42.013,42.013,0,0,0-8.424-6.544,22.691,22.691,0,0,1-4.781-3.384s9.907,16.509,15.445,22.045Z" transform="translate(-101.462 -74.013)" fill="#2d2f3b"/>
        <path id="Trazado_610104" data-name="Trazado 610104" d="M330.133,195.037a33.445,33.445,0,0,0-3.179-1.692,21.477,21.477,0,0,0-3.931-1.436c-.854-.068-1.538.1-1.025.649a27.087,27.087,0,0,1,2.529,2.478c.2.461-1.538-.086-1.88.222s.684.923,1.4,1.025,2.051-.068,2.94.137,3.144,1.094,3.144,1.094Z" transform="translate(-90.175 -53.77)" fill="#f9c8a2"/>
        <path id="Trazado_610105" data-name="Trazado 610105" d="M352.208,183.106s-3.742,5.469-4.306,6.443-1.563,2.921-2.461,4.307c-.274.424-1.026,1.794-1.64,1.846s-11.741-3.947-11.741-3.947l-.923,3.384s2.2.872,3.64,1.64,4.717,2.358,5.9,2.819,5.537,2.154,6.562,1.436,4.651-6.87,4.651-6.87Z" transform="translate(-92.785 -51.307)" fill="#495285"/>
        <path id="Trazado_610106" data-name="Trazado 610106" d="M342.021,183.447a19.8,19.8,0,0,0-.376-4.068c-.342-.683-1.436-3.725-1.743-3.588s.444,2.187,0,2.29-2.461-3.247-2.905-3.212-.1,4.921.786,5.93a29.972,29.972,0,0,1,2.051,2.273c.034.205.786,2.393.786,2.393Z" transform="translate(-94.373 -48.999)" fill="#f9c8a2"/>
        <path id="Trazado_610107" data-name="Trazado 610107" d="M363.772,162.111s-1.067,5.8-.881,6.863,2.04.974,2.643,1.994.464,3.941.464,3.941h5.1a30.146,30.146,0,0,1-.232-4.822c.185-1.3,1.391-6.352,0-7.744s-6.4-1.02-7.094-.232" transform="translate(-101.677 -45.228)" fill="#f9c8a2"/>
        <path id="Trazado_610108" data-name="Trazado 610108" d="M360.977,161.261c.436,2.182,5.131,1.3,6,1.793s.618,2.72.928,3.277.741-.8,1.484-.31.371,2.1-.495,2.1c.68,1.051.865,2.1,1.422,1.978s1.546-2.648,1.607-4.415-.741-3-.495-4.055-1.607-2.1-3.153-2.1-7.79-.742-7.3,1.731" transform="translate(-101.139 -44.672)" fill="#995417"/>
        <path id="Trazado_610109" data-name="Trazado 610109" d="M358.046,179.717s-.684-.735.752-1.008,7.314-.153,7.587.5-.684,1.136,0,2.3.853,5.947.05,10.39-2.58,9.57-2.1,11.416,1.5,4.512-.342,4.512H350.8c-2.051,0-1.846-.752-1.367-2.666a19.88,19.88,0,0,0,.547-2.735s-1.846,1.026-2.6-.547-6.836-16.337-6.562-16.816,1.914-1.64,2.393-1.23,5.566,8.863,6.426,9.365c.615.359,2.819-1.9,2.819-1.9s1.475-5.94,1.692-7.28c.307-1.9,1.64-4.307,3.9-4.307" transform="translate(-95.496 -50.037)" fill="#6470b5"/>
        <path id="Trazado_610110" data-name="Trazado 610110" d="M356.992,193.718s2.1-2.256,3.025-2.973a30.9,30.9,0,0,0,3.487-3.23c.564-.718-.41-.1-1.231.41s-2.309,1.98-3,2.528-1.892,1.683-1.892,1.683Z" transform="translate(-100.03 -52.451)" fill="#495285"/>
        <path id="Trazado_610111" data-name="Trazado 610111" d="M353.461,207.555s2.324-1.957,2.888-2.491,3.23-2.533,4.2-3.354,3.22-2.973,3.84-3.384,1.184-1.794,1.543-1.384-.882,2.256-1.543,2.666-4.609,3.589-5.635,4.512-5.523,4.771-5.523,4.771Z" transform="translate(-98.978 -55.163)" fill="#495285"/>
        <path id="Trazado_610112" data-name="Trazado 610112" d="M360.41,240.323s1.385-4.819,2.615-6.05a11.74,11.74,0,0,0,2.461-3.9c1.128,1.128-1.128,2.666-1.846,4.973s-2.953,8.244-2.953,8.244Z" transform="translate(-100.988 -64.553)" fill="#2d2f3b"/>
        <path id="Trazado_610113" data-name="Trazado 610113" d="M425.665,74.284c-6.7,2.452-8.684,4.439-11.135,11.135-2.452-6.7-4.439-8.684-11.136-11.135,6.7-2.452,8.684-4.439,11.136-11.135,2.451,6.7,4.438,8.684,11.135,11.135" transform="translate(-113.032 -17.695)" fill="#ffd817"/>
        <path id="Trazado_610114" data-name="Trazado 610114" d="M47.7,74.284c-6.7,2.452-8.684,4.439-11.135,11.135-2.452-6.7-4.439-8.684-11.136-11.135,6.7-2.452,8.684-4.439,11.136-11.135,2.451,6.7,4.438,8.684,11.135,11.135" transform="translate(-7.126 -17.695)" fill="#ffd817"/>
        <path id="Trazado_610115" data-name="Trazado 610115" d="M421.649,114.152c-2.742,1-3.556,1.817-4.559,4.559-1-2.742-1.818-3.556-4.559-4.559,2.742-1,3.556-1.817,4.559-4.559,1,2.742,1.818,3.556,4.559,4.559" transform="translate(-115.592 -30.709)" fill="#ffd817"/>
        <path id="Trazado_610116" data-name="Trazado 610116" d="M138.579,80.675c-2.742,1-3.556,1.817-4.559,4.559-1-2.742-1.817-3.556-4.559-4.559,2.742-1,3.556-1.817,4.559-4.559,1,2.742,1.818,3.556,4.559,4.559" transform="translate(-36.275 -21.329)" fill="#ffd817"/>
        <path id="Trazado_610117" data-name="Trazado 610117" d="M65.907,27.822c-2.742,1-3.556,1.817-4.559,4.559-1-2.742-1.817-3.556-4.559-4.559,2.742-1,3.555-1.817,4.559-4.559,1,2.742,1.817,3.556,4.559,4.559" transform="translate(-15.912 -6.519)" fill="#ffd817"/>
        <path id="Trazado_610118" data-name="Trazado 610118" d="M109.692,209.732s-7.6-7.384-8.651-16.035-1.054-17.722-8.439-18.566-5.064,13.5-7.807,13.714-4.009-38.822-14.98-39.454-8.755,16.239-7.173,25.318c.988,5.673,1.252,8.46-1.92,8.46-5.337,0-5.043-15.633-6.942-28.292s-5.485-22.364-19.2-22.364-5.7,18.988-1.266,27.006,9.917,17.511,5.064,18.777-8.44-11.815-16.457-10.971-11.393,15.824-3.587,23.841S6.1,194.33,7.154,209.732Z" transform="translate(-1.993 -37.131)" fill="#79943c"/>
        <path id="Trazado_610119" data-name="Trazado 610119" d="M48.52,132.07S63.1,179.328,68.553,209.608" transform="translate(-13.595 -37.007)" fill="none" stroke="#525730" stroke-miterlimit="10" stroke-width="0.879"/>
        <path id="Trazado_610120" data-name="Trazado 610120" d="M22.823,182.875A148.254,148.254,0,0,0,52.3,223.844" transform="translate(-6.395 -51.243)" fill="none" stroke="#525730" stroke-miterlimit="10" stroke-width="0.879"/>
        <path id="Trazado_610121" data-name="Trazado 610121" d="M91.207,156.141s6.747,28.595,5.314,60.212" transform="translate(-25.556 -43.752)" fill="none" stroke="#525730" stroke-miterlimit="10" stroke-width="0.879"/>
        <path id="Trazado_610122" data-name="Trazado 610122" d="M126.531,192.811s-1.1,15.808-3.505,33.817" transform="translate(-34.472 -54.027)" fill="none" stroke="#525730" stroke-miterlimit="10" stroke-width="0.879"/>
        <line id="Línea_1070" data-name="Línea 1070" x2="116.354" transform="translate(0 172.652)" fill="none" stroke="#292e4a" stroke-miterlimit="10" stroke-width="0.879"/>
        <path id="Trazado_610123" data-name="Trazado 610123" d="M63.7,300.456c0,2.137-4.379,3.869-9.779,3.869s-9.778-1.732-9.778-3.869,4.378-3.869,9.778-3.869,9.779,1.732,9.779,3.869" transform="translate(-12.37 -83.105)" fill="#c3c4c9"/>
        <path id="Trazado_610124" data-name="Trazado 610124" d="M42.434,300.456c0,2.137-4.379,3.869-9.779,3.869s-9.778-1.732-9.778-3.869,4.378-3.869,9.778-3.869,9.779,1.732,9.779,3.869" transform="translate(-6.41 -83.105)" fill="#c3c4c9"/>
        <path id="Trazado_610125" data-name="Trazado 610125" d="M39.97,177.459l4.116-.789a9.453,9.453,0,0,1,4.248,6.187c.566,4.019,1.465,22.913,1.465,22.913l-8.7-.42Z" transform="translate(-11.2 -49.504)" fill="#fff"/>
        <path id="Trazado_610126" data-name="Trazado 610126" d="M54.094,288.282s.088,3.734,1.236,5.488a11.6,11.6,0,0,0,4.027,3.1s2.655.4,2.115,1.08-11.112,0-12.1,0,.63-2.789.854-3.644a60.06,60.06,0,0,0,.18-6.028Z" transform="translate(-13.745 -80.778)" fill="#a83e63"/>
        <path id="Trazado_610127" data-name="Trazado 610127" d="M35.528,288.282s-1.116,3.734.032,5.488a11.6,11.6,0,0,0,4.027,3.1s2.655.4,2.115,1.08-11.112,0-12.1,0,.63-2.789.855-3.644,1.384-6.028,1.384-6.028Z" transform="translate(-8.205 -80.778)" fill="#a83e63"/>
        <path id="Trazado_610128" data-name="Trazado 610128" d="M33.323,214.746h16.51s2.817,21.1,2.211,32.371-1.891,21.714-1.891,21.714H44.12l.96-21.474-2.354-15.836s0,20.034-5.563,37.309H31.449L35.2,246.038Z" transform="translate(-8.812 -60.173)" fill="#3f4152"/>
        <path id="Trazado_610129" data-name="Trazado 610129" d="M46.984,228.344c-.764,0,0,6.988,0,6.988l2.354,15.836c1.5-6.508-1.591-22.823-2.354-22.823" transform="translate(-13.07 -63.983)" fill="#2d2f3b"/>
        <path id="Trazado_610130" data-name="Trazado 610130" d="M49.853,265.013l-.8,17.9h6.033s.383-3.1.828-7.746Z" transform="translate(-13.744 -74.258)" fill="#2d2f3b"/>
        <path id="Trazado_610131" data-name="Trazado 610131" d="M73.178,191.382a7.035,7.035,0,0,0,1.2-1.26c.09-.3-.03-.959,1.289-1.71s1.92-.78,1.889-.57-1.62.78-1.2,1.05a7.126,7.126,0,0,0,2.849.09c.21-.12,1.5-1.05,1.8-.69s-.69,1.56-1.02,2.04a8.141,8.141,0,0,1-4.469,1.829c-1.92.12-2.129.96-2.129.96Z" transform="translate(-20.505 -52.603)" fill="#cc9b74"/>
        <path id="Trazado_610132" data-name="Trazado 610132" d="M45.08,176.866a5.793,5.793,0,0,1,2.939,3.479,17.842,17.842,0,0,1,1.14,7.858c-.266,2.556.233,7.8.506,10.857s-.446,7.918.813,8.1,2.7.3,3.419-.6,0-6.6,0-6.6,12.776-9.957,12.9-10.437-.72-2.159-1.26-2.039S54.018,193.3,54.018,193.3a42.928,42.928,0,0,0-.846-7.018c-.654-2.4-3.053-7.721-4.253-8.389a28.215,28.215,0,0,0-4.2-1.508Z" transform="translate(-12.531 -49.425)" fill="#dc5181"/>
        <path id="Trazado_610133" data-name="Trazado 610133" d="M57.46,206.085s5.055-3.939,8.835-6.983c-.74-1.288-6.134,2.031-6.97,1.764-.894-.285.041-2.364.533-2.619-1.34.691-2.278,1.179-2.278,1.179.1,1.719-.241,5.188-.12,6.658" transform="translate(-16.093 -55.55)" fill="#a83e63"/>
        <path id="Trazado_610134" data-name="Trazado 610134" d="M56.986,196.127l-4.214.845a.485.485,0,0,1-.565-.595l2.63-10.372a.554.554,0,0,1,.429-.407l4.214-.845a.484.484,0,0,1,.565.594l-2.63,10.373a.555.555,0,0,1-.429.407" transform="translate(-14.624 -51.766)" fill="#6470b5"/>
        <path id="Trazado_610135" data-name="Trazado 610135" d="M57.412,187.59c-.082.325-.324.545-.541.49s-.327-.362-.245-.687.324-.545.541-.49.327.362.245.687" transform="translate(-15.859 -52.369)" fill="#292e4a"/>
        <path id="Trazado_610136" data-name="Trazado 610136" d="M46.72,197.575a13.6,13.6,0,0,0,1.65-.959c.45-.36,2.459-2.789,3.089-3s2.01-.72,2.249,0-1.379,1.173-1.5,1.412.81-.032.84.178-.75.33-.99.66-1.11,2.879-2.58,2.849a5.784,5.784,0,0,0-2.758.75Z" transform="translate(-13.091 -54.148)" fill="#cc9b74"/>
        <path id="Trazado_610137" data-name="Trazado 610137" d="M49.657,160.815a5.522,5.522,0,0,1-.3,3.254,13.409,13.409,0,0,0-.569,2.819s-1.08.06-1.32.6-.72,2.039-1.739,2.159a4.847,4.847,0,0,0-1.44.33l-.33,2.969a4.507,4.507,0,0,1-3.988-.81,44.153,44.153,0,0,0,.729-4.924c.05-1.554.56-6.8,3.11-7.7s5.848,1.3,5.848,1.3" transform="translate(-11.2 -44.635)" fill="#f9c8a2"/>
        <path id="Trazado_610138" data-name="Trazado 610138" d="M35.829,176.386s2.578,1.859,3.119,4.2,1.44,6,.78,8.1a12.58,12.58,0,0,0-.48,4.259l2.159-1.02.3,3.059-1.979,1.14s-.12,3.9,0,6.178.42,4.679-.66,5.219-8.337.48-9.118-.48.48-6,.48-6-2.759,1.5-4.319.48-.84-4.739,0-7.438,2.819-9.717,3.359-12.176,3.359-4.679,6.358-5.519" transform="translate(-7.059 -49.425)" fill="#dc5181"/>
        <path id="Trazado_610139" data-name="Trazado 610139" d="M35.576,188.469s-1.92,8.337-2.039,9.3c-1.2.54-2.58,1.2-1.68,1.139a64.678,64.678,0,0,0,9.177-2.579v-1.471s-4.618,2.131-5.458,1.591-.06-1.735.06-2.757-.06-5.221-.06-5.221" transform="translate(-8.845 -52.81)" fill="#a83e63"/>
        <path id="Trazado_610140" data-name="Trazado 610140" d="M37.732,207.231a6.8,6.8,0,0,0,2.565-2.7l-8.113,4.394s-1.26,5.039-.48,6a3.623,3.623,0,0,0,1.887.6c-.718-2.013,2.388-7.3,4.142-8.288" transform="translate(-8.812 -57.311)" fill="#a83e63"/>
        <path id="Trazado_610141" data-name="Trazado 610141" d="M40.8,154.955a3.992,3.992,0,1,0-3.968,4.307A4.163,4.163,0,0,0,38,159.1c-.106.857-.122,1.749-.192,2.621a5.217,5.217,0,0,0,.883,3.55s1.471-3.355,3.436-3.505c.767-.058,1.08-2.474,2.519-2.474a9.536,9.536,0,0,0,3.014-.63c-1.481-3.3-4.718-4.388-6.857-3.7" transform="translate(-9.199 -42.478)" fill="#292e4a"/>
        <line id="Línea_1071" data-name="Línea 1071" x1="1.995" y2="6.472" transform="translate(112.657 159.432)" fill="none" stroke="#fff" stroke-miterlimit="10" stroke-width="0.972"/>
        <path id="Trazado_610142" data-name="Trazado 610142" d="M171.232,268.306H89.509l-10.1-49.935h81.724Z" transform="translate(-22.251 -61.189)" fill="#292e4a"/>
        <path id="Trazado_610143" data-name="Trazado 610143" d="M169.61,265.616H97.347L89.029,224.49h72.263Z" transform="translate(-24.946 -62.903)" fill="#b0c0d2"/>
        <path id="Trazado_610144" data-name="Trazado 610144" d="M91.923,268.306H89.509l-10.1-49.935h2.415Z" transform="translate(-22.25 -61.189)" fill="#6470b5"/>
        <line id="Línea_1072" data-name="Línea 1072" y1="41.126" x2="12.676" transform="translate(87.445 161.587)" fill="none" stroke="#fff" stroke-miterlimit="10" stroke-width="0.9"/>
        <line id="Línea_1073" data-name="Línea 1073" x1="12.676" y2="41.126" transform="translate(99.344 161.587)" fill="none" stroke="#fff" stroke-miterlimit="10" stroke-width="0.9"/>
        <line id="Línea_1074" data-name="Línea 1074" x1="9.577" y2="31.07" transform="translate(103.07 171.643)" fill="none" stroke="#fff" stroke-miterlimit="10" stroke-width="0.9"/>
        <rect id="Rectángulo_378569" data-name="Rectángulo 378569" width="129.334" height="4.569" transform="translate(67.258 207.117)" fill="#6470b5"/>
        <rect id="Rectángulo_378570" data-name="Rectángulo 378570" width="81.55" height="4.569" transform="translate(115.042 207.117)" fill="#292e4a"/>
        <line id="Línea_1075" data-name="Línea 1075" x2="129.333" transform="translate(67.258 207.117)" fill="none" stroke="#6470b5" stroke-linecap="round" stroke-linejoin="round" stroke-width="0.9"/>
        <path id="Trazado_610145" data-name="Trazado 610145" d="M124.85,266.543h29.684l7.011-8.8,5.966,4.4,19.689-22.3,5.072,4.475,2.536-17.452-16.259,6.413,3.133,2.536-15.662,14.32-11.337-8.95Z" transform="translate(-34.983 -63.569)" fill="#ffa200"/>
        <line id="Línea_1076" data-name="Línea 1076" x2="147.248" transform="translate(60.557 211.506)" fill="none" stroke="#292e4a" stroke-miterlimit="10" stroke-width="1"/>
        <path id="Trazado_610146" data-name="Trazado 610146" d="M259.483,235.005a11.157,11.157,0,0,1,2.812,1.087,10.2,10.2,0,0,1,2.157,1.587,7.7,7.7,0,0,1,1.414,1.846,4.318,4.318,0,0,1,.553,1.864.733.733,0,0,1-.225.535.692.692,0,0,1-.5.225h-4.52a1.831,1.831,0,0,1-.776-.138,2.545,2.545,0,0,1-.6-.415q-.1-.1-.328-.345a3.181,3.181,0,0,0-.638-.5,4.388,4.388,0,0,0-1.035-.448,5.273,5.273,0,0,0-1.518-.19,9,9,0,0,0-1.26.086,4.576,4.576,0,0,0-1.069.276,1.945,1.945,0,0,0-.759.535,1.286,1.286,0,0,0-.293.863,1.2,1.2,0,0,0,.328.862,2.99,2.99,0,0,0,1.1.639,14.916,14.916,0,0,0,2.053.569q1.277.276,3.174.656a17.861,17.861,0,0,1,3.313.967,7.88,7.88,0,0,1,2.364,1.466,5.564,5.564,0,0,1,1.415,2.07,7.714,7.714,0,0,1,.466,2.812,6.31,6.31,0,0,1-.553,2.658A6.7,6.7,0,0,1,265,256.71a8.564,8.564,0,0,1-2.415,1.553,12.841,12.841,0,0,1-3.106.9v2.451a.944.944,0,0,1-.931.931H254.03a.944.944,0,0,1-.931-.931v-2.554a12.035,12.035,0,0,1-2.985-1.087,10.372,10.372,0,0,1-2.277-1.6,6.823,6.823,0,0,1-1.467-1.95,5.133,5.133,0,0,1-.552-2.122.729.729,0,0,1,.224-.535.7.7,0,0,1,.5-.225h4.52a1.951,1.951,0,0,1,.759.12,2.231,2.231,0,0,1,.553.363c.091.092.229.241.413.448a4.369,4.369,0,0,0,.742.638,4.621,4.621,0,0,0,1.174.569,5.409,5.409,0,0,0,1.743.242,10.026,10.026,0,0,0,3.053-.4,1.48,1.48,0,0,0,1.225-1.432,1.051,1.051,0,0,0-.448-.862,4.6,4.6,0,0,0-1.347-.638,20.242,20.242,0,0,0-2.294-.569q-1.4-.276-3.3-.69a9.616,9.616,0,0,1-5.193-2.537,6.718,6.718,0,0,1-1.639-4.744,6.206,6.206,0,0,1,.448-2.329,6.787,6.787,0,0,1,1.293-2.054,8.179,8.179,0,0,1,2.072-1.621,10.877,10.877,0,0,1,2.777-1.07v-2.553a.941.941,0,0,1,.931-.931h4.521a.941.941,0,0,1,.931.931Z" transform="translate(-68.879 -64.864)" fill="#dbe5f3"/>
      </g>
    </g>
  </g>
</svg>
