<svg xmlns="http://www.w3.org/2000/svg" width="62.504" height="62.504" viewBox="0 0 62.504 62.504">
  <g id="Grupo_1075135" data-name="Grupo 1075135" transform="translate(-273 -12885.555)">
    <g id="Grupo_1072489" data-name="Grupo 1072489" transform="translate(-6.816 11686.838)">
      <g id="Grupo_1072053" data-name="Grupo 1072053" transform="translate(279.816 1198.717)">
        <circle id="Elipse_4742" data-name="Elipse 4742" cx="31.252" cy="31.252" r="31.252" transform="translate(0)" fill="#eba325"/>
      </g>
      <g id="magia" transform="translate(289.173 1208.077)">
        <g id="Grupo_1072777" data-name="Grupo 1072777" transform="translate(33.544 34.93)">
          <g id="Grupo_1072776" data-name="Grupo 1072776">
            <path id="Trazado_610209" data-name="Trazado 610209" d="M386.867,402a.869.869,0,1,0,.869.869A.869.869,0,0,0,386.867,402Z" transform="translate(-385.998 -401.998)"/>
          </g>
        </g>
        <g id="Grupo_1072779" data-name="Grupo 1072779" transform="translate(30.068 2.259)">
          <g id="Grupo_1072778" data-name="Grupo 1072778">
            <path id="Trazado_610210" data-name="Trazado 610210" d="M346.867,26a.869.869,0,1,0,.869.869A.869.869,0,0,0,346.867,26Z" transform="translate(-345.998 -26)"/>
          </g>
        </g>
        <g id="Grupo_1072781" data-name="Grupo 1072781" transform="translate(12.691 2.259)">
          <g id="Grupo_1072780" data-name="Grupo 1072780">
            <path id="Trazado_610211" data-name="Trazado 610211" d="M146.868,26a.869.869,0,1,0,.869.869A.869.869,0,0,0,146.868,26Z" transform="translate(-145.999 -26)"/>
          </g>
        </g>
        <g id="Grupo_1072783" data-name="Grupo 1072783" transform="translate(24.855 36.12)">
          <g id="Grupo_1072782" data-name="Grupo 1072782">
            <path id="Trazado_610212" data-name="Trazado 610212" d="M293.113,416.289a.869.869,0,0,0-1.1-.55l-5.424,1.807a.869.869,0,0,0,.549,1.649l5.424-1.807A.869.869,0,0,0,293.113,416.289Z" transform="translate(-285.995 -415.695)"/>
          </g>
        </g>
        <g id="Grupo_1072785" data-name="Grupo 1072785" transform="translate(0.005 9.21)">
          <g id="Grupo_1072784" data-name="Grupo 1072784" transform="translate(0)">
            <path id="Trazado_610213" data-name="Trazado 610213" d="M44.173,119.574l-4.71-3.854,4.558-2.348a.87.87,0,0,0-.107-1.591l-16.161-5.735a.869.869,0,0,0-.773.1L22.248,109.3l-4.731-3.154a.869.869,0,0,0-.773-.1L.583,111.782l-.022.009a.868.868,0,0,0-.1,1.575l.011.007,4.558,2.348-4.71,3.854,0,0a.87.87,0,0,0,.231,1.478l5.187,2.062v12.075a.869.869,0,0,0,.594.824l15.64,5.213h0a.906.906,0,0,0,.27.044.867.867,0,0,0,.271-.044h0l15.64-5.213a.869.869,0,0,0,.594-.824V123.117l5.187-2.062A.869.869,0,0,0,44.173,119.574ZM27.581,107.83l13.858,4.918-3.624,1.867-13.607-4.536ZM3.057,112.748l13.858-4.918,3.373,2.249L6.681,114.615Zm-.491,7.237,4.222-3.454L20.4,121.068l-5.235,3.926ZM21.38,139.2l-13.9-4.634V123.807l7.5,2.982a.869.869,0,0,0,.842-.112l5.561-4.171Zm.869-19.347-12.892-4.3,12.892-4.3,12.892,4.3ZM37.02,134.566l-13.9,4.634V122.506l5.561,4.171a.869.869,0,0,0,.842.112l7.5-2.982Zm-7.688-9.571L24.1,121.068l13.612-4.538,4.222,3.454Z" transform="translate(-0.005 -105.997)"/>
          </g>
        </g>
        <g id="Grupo_1072787" data-name="Grupo 1072787" transform="translate(19.642)">
          <g id="Grupo_1072786" data-name="Grupo 1072786">
            <path id="Trazado_610214" data-name="Trazado 610214" d="M230.343,1.738h-.869V.869a.869.869,0,1,0-1.738,0v.869h-.869a.869.869,0,1,0,0,1.738h.869v.869a.869.869,0,1,0,1.738,0V3.476h.869a.869.869,0,0,0,0-1.738Z" transform="translate(-225.999)"/>
          </g>
        </g>
        <g id="Grupo_1072789" data-name="Grupo 1072789" transform="translate(5.739 3.997)">
          <g id="Grupo_1072788" data-name="Grupo 1072788">
            <path id="Trazado_610215" data-name="Trazado 610215" d="M70.344,47.738h-.869v-.869a.869.869,0,1,0-1.738,0v.869h-.869a.869.869,0,0,0,0,1.738h.869v.869a.869.869,0,0,0,1.738,0v-.869h.869a.869.869,0,0,0,0-1.738Z" transform="translate(-66 -46)"/>
          </g>
        </g>
        <g id="Grupo_1072791" data-name="Grupo 1072791" transform="translate(33.544 3.997)">
          <g id="Grupo_1072790" data-name="Grupo 1072790">
            <path id="Trazado_610216" data-name="Trazado 610216" d="M390.342,47.738h-.869v-.869a.869.869,0,0,0-1.738,0v.869h-.869a.869.869,0,0,0,0,1.738h.869v.869a.869.869,0,0,0,1.738,0v-.869h.869a.869.869,0,0,0,0-1.738Z" transform="translate(-385.998 -46)"/>
          </g>
        </g>
      </g>
    </g>
  </g>
</svg>
