<svg xmlns="http://www.w3.org/2000/svg" width="141" height="141" viewBox="0 0 141 141">
  <g id="Grupo_1075134" data-name="Grupo 1075134" transform="translate(-1143 -12036.555)">
    <g id="Grupo_1072479" data-name="Grupo 1072479" transform="translate(874 11078.555)">
      <circle id="Elipse_5614" data-name="Elipse 5614" cx="70.5" cy="70.5" r="70.5" transform="translate(269 958)" fill="#fff"/>
    </g>
    <g id="Page-1" transform="translate(1170 12063.006)">
      <g id="_005---Factory-" data-name="005---Factory-" transform="translate(0 0.548)">
        <path id="Shape" d="M57.174,24.978,44.563,32.539V26.255a1.485,1.485,0,0,0-2.243-1.277L29.708,32.539V26.255a1.485,1.485,0,0,0-2.243-1.277L14.854,32.539V26.255a1.485,1.485,0,0,0-2.243-1.277L0,32.539V35.51H59.417V26.255a1.485,1.485,0,0,0-2.243-1.277Z" transform="translate(0 11.209)" fill="#0c5e46"/>
        <path id="Shape-2" data-name="Shape" d="M64.076,9.644l-8.764,14.25a10.631,10.631,0,0,1-9.061,5.061c-3.907,0-6.105-1.426-7.338-3.03l-.089.059c-11.883,0-11.883-7.427-11.883-7.427l.045-.253a7.118,7.118,0,0,1-5.63-4.59A8.289,8.289,0,0,1,24.638,4.46a9.583,9.583,0,0,1,7.917-.7c.03.015.074.03.1.045l.223-.624a19.111,19.111,0,0,1,3.862-1.2c3.639-.713,7.694-.52,10.65,1.708l.342-.312a15.5,15.5,0,0,1,3.847-1.4,10.952,10.952,0,0,1,9.522,1.708A8.262,8.262,0,0,1,64.076,9.644Z" transform="translate(10.195 -0.061)" fill="#b0d3f0"/>
        <path id="Shape-3" data-name="Shape" d="M55.817,11.617a1.485,1.485,0,0,1-1.485-1.448,6.73,6.73,0,0,0-2.444-4.853C49.272,3.1,45.6,3.49,43.648,3.918a13.613,13.613,0,0,0-3.476,1.263,1.485,1.485,0,0,1-1.39-2.625,16.59,16.59,0,0,1,4.232-1.54A12.311,12.311,0,0,1,53.805,3.045a9.752,9.752,0,0,1,3.5,7.05,1.485,1.485,0,0,1-1.45,1.523Z" transform="translate(18.455 -0.548)" fill="#90bae1"/>
        <path id="Shape-4" data-name="Shape" d="M47.311,11.6a1.485,1.485,0,0,1-1.485-1.442A6.5,6.5,0,0,0,43.1,5.339c-3.014-2.273-7.222-1.875-9.45-1.436A17.414,17.414,0,0,0,30.08,5.011a1.486,1.486,0,0,1-1.188-2.724,20.556,20.556,0,0,1,4.171-1.3c4.707-.922,8.9-.22,11.822,1.98a9.483,9.483,0,0,1,3.911,7.1A1.486,1.486,0,0,1,47.354,11.6Z" transform="translate(13.591 -0.527)" fill="#90bae1"/>
        <path id="Shape-5" data-name="Shape" d="M29.956,19.984c-3.565,0-8.2-1.542-9.536-5.887A9.716,9.716,0,0,1,24.337,3.15a11.041,11.041,0,0,1,9.155-.862,21.476,21.476,0,0,1,3.549,1.53,1.485,1.485,0,0,1-1.393,2.623,18.689,18.689,0,0,0-3.061-1.325,8.041,8.041,0,0,0-6.661.544,6.79,6.79,0,0,0-2.674,7.561c.872,2.8,4.156,3.792,6.705,3.792a1.485,1.485,0,0,1,0,2.971Z" transform="translate(9.704 -0.003)" fill="#90bae1"/>
        <path id="Shape-6" data-name="Shape" d="M37.369,22.4C24.149,22.4,24,13.577,24,13.488a1.485,1.485,0,0,1,2.971-.015c0,.276.3,5.957,10.4,5.957a1.485,1.485,0,1,1,0,2.971Z" transform="translate(11.65 5.008)" fill="#90bae1"/>
        <path id="Shape-7" data-name="Shape" d="M41.4,24.4c-8.225,0-10.4-5.83-10.4-8.913a1.485,1.485,0,0,1,2.971,0c.009.618.3,5.949,7.427,5.949a1.485,1.485,0,1,1,0,2.971Z" transform="translate(15.048 5.981)" fill="#90bae1"/>
        <path id="Shape-8" data-name="Shape" d="M47.82,11h5.275a1.82,1.82,0,0,1,1.818,1.82v7.093H46V12.82A1.82,1.82,0,0,1,47.82,11Z" transform="translate(22.329 4.525)" fill="#e4c05c"/>
        <path id="Shape-9" data-name="Shape" d="M60.825,49.165,56.369,15H47.456L43,49.165Z" transform="translate(20.873 6.467)" fill="#577ca2"/>
        <path id="Shape-10" data-name="Shape" d="M38,37H66.183a1.526,1.526,0,0,1,1.526,1.526v26.7H38Z" transform="translate(18.446 17.146)" fill="#82a3c5"/>
        <path id="Shape-11" data-name="Shape" d="M47.913,43.971H40.485a1.485,1.485,0,1,1,0-2.971h7.427a1.485,1.485,0,0,1,0,2.971Z" transform="translate(18.931 19.088)" fill="#f3d55b"/>
        <path id="Shape-12" data-name="Shape" d="M56.913,43.971H49.485a1.485,1.485,0,0,1,0-2.971h7.427a1.485,1.485,0,0,1,0,2.971Z" transform="translate(23.3 19.088)" fill="#f3d55b"/>
        <rect id="Rectangle-path" width="59.417" height="38.621" transform="translate(0 43.748)" fill="#6aae9a"/>
        <path id="Shape-13" data-name="Shape" d="M13.369,35.485a1.485,1.485,0,0,1-1.485,1.485H0V34H11.883A1.485,1.485,0,0,1,13.369,35.485Z" transform="translate(0 15.69)" fill="#6debff"/>
        <path id="Shape-14" data-name="Shape" d="M28.825,36.971H12.485a1.485,1.485,0,1,1,0-2.971h16.34a1.485,1.485,0,1,1,0,2.971Z" transform="translate(5.34 15.69)" fill="#6debff"/>
        <rect id="Rectangle-path-2" data-name="Rectangle-path" width="10.398" height="8.913" rx="1" transform="translate(5.942 61.573)" fill="#b0d3f0"/>
        <rect id="Rectangle-path-3" data-name="Rectangle-path" width="10.398" height="8.913" rx="1" transform="translate(22.281 61.573)" fill="#b0d3f0"/>
        <path id="Shape-15" data-name="Shape" d="M40.854,40.579V64.252H26V40.579A1.539,1.539,0,0,1,27.486,39H39.369A1.539,1.539,0,0,1,40.854,40.579Z" transform="translate(12.621 18.117)" fill="#59474e"/>
        <path id="Shape-16" data-name="Shape" d="M36.4,43.485a1.485,1.485,0,0,1-1.485,1.485H26V42h8.913A1.485,1.485,0,0,1,36.4,43.485Z" transform="translate(12.621 19.573)" fill="#7f5b53"/>
        <path id="Shape-17" data-name="Shape" d="M36.4,47.485a1.485,1.485,0,0,1-1.485,1.485H26V46h8.913A1.485,1.485,0,0,1,36.4,47.485Z" transform="translate(12.621 21.515)" fill="#7f5b53"/>
        <path id="Shape-18" data-name="Shape" d="M36.4,51.485a1.485,1.485,0,0,1-1.485,1.485H26V50h8.913A1.485,1.485,0,0,1,36.4,51.485Z" transform="translate(12.621 23.457)" fill="#7f5b53"/>
        <path id="Shape-19" data-name="Shape" d="M47.485,48h5.942a1.485,1.485,0,0,1,1.485,1.485V58.4H46V49.485A1.485,1.485,0,0,1,47.485,48Z" transform="translate(22.329 22.486)" fill="#03386e"/>
        <path id="Shape-20" data-name="Shape" d="M86.155,55H0v4.456a1.485,1.485,0,0,0,1.485,1.485H84.669a1.485,1.485,0,0,0,1.485-1.485Z" transform="translate(0 25.884)" fill="#7f5b53"/>
      </g>
    </g>
  </g>
</svg>
