<svg xmlns="http://www.w3.org/2000/svg" width="141" height="141" viewBox="0 0 141 141">
  <g id="Grupo_1075133" data-name="Grupo 1075133" transform="translate(-730 -12036.555)">
    <g id="Grupo_1072478" data-name="Grupo 1072478" transform="translate(461 11078.555)">
      <circle id="Elipse_5614" data-name="Elipse 5614" cx="70.5" cy="70.5" r="70.5" transform="translate(269 958)" fill="#fff"/>
    </g>
    <g id="iphone" transform="translate(715.68 12062.555)">
      <path id="Trazado_610173" data-name="Trazado 610173" d="M57.557,0A8.247,8.247,0,0,0,49.32,8.237V79.826a8.246,8.246,0,0,0,8.237,8.237h23.7V0Z" fill="#858585"/>
      <path id="Trazado_610174" data-name="Trazado 610174" d="M54.227,79.826V8.237A8.247,8.247,0,0,1,62.464,0H57.557A8.247,8.247,0,0,0,49.32,8.237V79.826a8.246,8.246,0,0,0,8.237,8.237h4.907A8.247,8.247,0,0,1,54.227,79.826Z" transform="translate(0 0)" fill="#535454"/>
      <path id="Trazado_610175" data-name="Trazado 610175" d="M82.013,26.716h0a4.176,4.176,0,0,0-4.164,4.164v9.746a4.176,4.176,0,0,0,4.164,4.164h0a4.176,4.176,0,0,0,4.164-4.164V30.88A4.176,4.176,0,0,0,82.013,26.716Z" transform="translate(-23.622 -22.121)" fill="#535454"/>
      <path id="Trazado_610176" data-name="Trazado 610176" d="M82.013,40.615V30.869a4.172,4.172,0,0,1,2.082-3.6,4.168,4.168,0,0,0-6.246,3.6v9.746a4.167,4.167,0,0,0,6.246,3.6A4.173,4.173,0,0,1,82.013,40.615Z" transform="translate(-23.622 -22.11)" fill="#444443"/>
      <path id="Trazado_610177" data-name="Trazado 610177" d="M226.267,0H195.343a8.247,8.247,0,0,0-8.237,8.237V79.826a8.247,8.247,0,0,0,8.237,8.237h30.924a8.247,8.247,0,0,0,8.237-8.237V8.237A8.246,8.246,0,0,0,226.267,0Z" transform="translate(-114.087 0)" fill="#535454"/>
      <path id="Trazado_610178" data-name="Trazado 610178" d="M191.669,79.826V8.237A8.246,8.246,0,0,1,199.906,0h-4.563a8.247,8.247,0,0,0-8.237,8.237V79.826a8.247,8.247,0,0,0,8.237,8.237h4.563A8.247,8.247,0,0,1,191.669,79.826Z" transform="translate(-114.087 0)" fill="#444443"/>
      <path id="Trazado_610179" data-name="Trazado 610179" d="M251.911,101.8a3.673,3.673,0,0,1-3.673,3.673H217.313a3.673,3.673,0,0,1-3.673-3.673V30.207a3.673,3.673,0,0,1,3.673-3.673h3.854a1.375,1.375,0,0,1,1.375,1.375v.872a2.133,2.133,0,0,0,2.126,2.126h16.214a2.133,2.133,0,0,0,2.126-2.126V27.519a.986.986,0,0,1,.986-.986h4.243a3.673,3.673,0,0,1,3.673,3.673Z" transform="translate(-136.057 -21.969)" fill="#a4d9f4"/>
      <path id="Trazado_610180" data-name="Trazado 610180" d="M218.022,101.79V30.2a3.672,3.672,0,0,1,3.347-3.657c-.213-.032.014-.01-4.056-.017A3.673,3.673,0,0,0,213.64,30.2v71.589a3.673,3.673,0,0,0,3.673,3.673H221.7A3.673,3.673,0,0,1,218.022,101.79Z" transform="translate(-136.057 -21.965)" fill="#7cc9e8"/>
      <g id="Grupo_1072774" data-name="Grupo 1072774" transform="translate(57.062 3.233)">
        <path id="Trazado_610181" data-name="Trazado 610181" d="M316.188,21.465h-6.939a1.329,1.329,0,0,1,0-2.658h6.939a1.329,1.329,0,1,1,0,2.658Z" transform="translate(-271.183 -18.806)" fill="#666"/>
        <path id="Trazado_610182" data-name="Trazado 610182" d="M284.22,21.235a1.328,1.328,0,1,1,1,.2A2.139,2.139,0,0,1,284.22,21.235Z" transform="translate(-251.072 -18.8)" fill="#666"/>
        <path id="Trazado_610183" data-name="Trazado 610183" d="M94.924,46.686a1.33,1.33,0,1,1,1,.2A1.694,1.694,0,0,1,94.924,46.686Z" transform="translate(-94.332 -39.877)" fill="#666"/>
      </g>
      <path id="Trazado_610184" data-name="Trazado 610184" d="M94.924,73.975a1.329,1.329,0,1,1,1.678-.167A1.49,1.49,0,0,1,94.924,73.975Z" transform="translate(-37.27 -59.237)" fill="#f9d698"/>
      <path id="Trazado_610185" data-name="Trazado 610185" d="M94.928,101.25a1.329,1.329,0,1,1,1.678-.165A1.371,1.371,0,0,1,94.928,101.25Z" transform="translate(-37.274 -81.818)" fill="#666"/>
      <path id="Trazado_610186" data-name="Trazado 610186" d="M243.384,91.336h-3.556a.6.6,0,0,1-.593-.593V87.187a.6.6,0,0,1,.593-.593h3.556a.6.6,0,0,1,.593.593v3.556A.594.594,0,0,1,243.384,91.336Z" transform="translate(-157.25 -71.7)" fill="#70b5e8"/>
      <path id="Trazado_610187" data-name="Trazado 610187" d="M292.061,91.336H288.5a.6.6,0,0,1-.593-.593V87.187a.6.6,0,0,1,.593-.593h3.556a.6.6,0,0,1,.593.593v3.556A.6.6,0,0,1,292.061,91.336Z" transform="translate(-197.555 -71.7)" fill="#efefef"/>
      <path id="Trazado_610188" data-name="Trazado 610188" d="M340.737,91.336h-3.556a.6.6,0,0,1-.593-.593V87.187a.6.6,0,0,1,.593-.593h3.556a.6.6,0,0,1,.593.593v3.556A.6.6,0,0,1,340.737,91.336Z" transform="translate(-237.859 -71.7)" fill="#92b620"/>
      <path id="Trazado_610189" data-name="Trazado 610189" d="M389.413,91.336h-3.556a.6.6,0,0,1-.593-.593V87.187a.6.6,0,0,1,.593-.593h3.556a.6.6,0,0,1,.593.593v3.556A.6.6,0,0,1,389.413,91.336Z" transform="translate(-278.162 -71.7)" fill="#898989"/>
      <path id="Trazado_610190" data-name="Trazado 610190" d="M243.384,140.493h-3.556a.6.6,0,0,1-.593-.593v-3.556a.6.6,0,0,1,.593-.593h3.556a.6.6,0,0,1,.593.593V139.9A.594.594,0,0,1,243.384,140.493Z" transform="translate(-157.25 -112.402)" fill="#92b620"/>
      <path id="Trazado_610191" data-name="Trazado 610191" d="M292.061,140.493H288.5a.594.594,0,0,1-.593-.593v-3.556a.594.594,0,0,1,.593-.593h3.556a.594.594,0,0,1,.593.593V139.9A.594.594,0,0,1,292.061,140.493Z" transform="translate(-197.555 -112.402)" fill="#898989"/>
      <path id="Trazado_610192" data-name="Trazado 610192" d="M340.737,140.493h-3.556a.594.594,0,0,1-.593-.593v-3.556a.594.594,0,0,1,.593-.593h3.556a.594.594,0,0,1,.593.593V139.9A.594.594,0,0,1,340.737,140.493Z" transform="translate(-237.859 -112.402)" fill="#70b5e8"/>
      <path id="Trazado_610193" data-name="Trazado 610193" d="M389.413,140.493h-3.556a.6.6,0,0,1-.593-.593v-3.556a.6.6,0,0,1,.593-.593h3.556a.6.6,0,0,1,.593.593V139.9A.6.6,0,0,1,389.413,140.493Z" transform="translate(-278.162 -112.402)" fill="#f94a46"/>
      <path id="Trazado_610194" data-name="Trazado 610194" d="M243.384,190.288h-3.556a.6.6,0,0,1-.593-.593v-3.556a.6.6,0,0,1,.593-.593h3.556a.6.6,0,0,1,.593.593v3.556A.594.594,0,0,1,243.384,190.288Z" transform="translate(-157.25 -153.633)" fill="#dda36f"/>
      <path id="Trazado_610195" data-name="Trazado 610195" d="M292.061,190.288H288.5a.6.6,0,0,1-.593-.593v-3.556a.594.594,0,0,1,.593-.593h3.556a.594.594,0,0,1,.593.593v3.556A.6.6,0,0,1,292.061,190.288Z" transform="translate(-197.555 -153.633)" fill="#f9d698"/>
      <path id="Trazado_610196" data-name="Trazado 610196" d="M340.737,190.288h-3.556a.6.6,0,0,1-.593-.593v-3.556a.594.594,0,0,1,.593-.593h3.556a.594.594,0,0,1,.593.593v3.556A.6.6,0,0,1,340.737,190.288Z" transform="translate(-237.859 -153.633)" fill="#898989"/>
      <path id="Trazado_610197" data-name="Trazado 610197" d="M389.413,190.288h-3.556a.6.6,0,0,1-.593-.593v-3.556a.6.6,0,0,1,.593-.593h3.556a.6.6,0,0,1,.593.593v3.556A.6.6,0,0,1,389.413,190.288Z" transform="translate(-278.162 -153.633)" fill="#f9d698"/>
      <g id="Grupo_1072775" data-name="Grupo 1072775" transform="translate(81.985 40.368)">
        <path id="Trazado_610198" data-name="Trazado 610198" d="M243.384,239.444h-3.556a.6.6,0,0,1-.593-.593v-3.556a.6.6,0,0,1,.593-.593h3.556a.6.6,0,0,1,.593.593v3.556A.594.594,0,0,1,243.384,239.444Z" transform="translate(-239.235 -234.702)" fill="#70b5e8"/>
        <path id="Trazado_610199" data-name="Trazado 610199" d="M292.061,239.444H288.5a.594.594,0,0,1-.593-.593v-3.556a.6.6,0,0,1,.593-.593h3.556a.6.6,0,0,1,.593.593v3.556A.594.594,0,0,1,292.061,239.444Z" transform="translate(-279.54 -234.702)" fill="#70b5e8"/>
      </g>
      <path id="Trazado_610200" data-name="Trazado 610200" d="M340.737,239.444h-3.556a.594.594,0,0,1-.593-.593v-3.556a.6.6,0,0,1,.593-.593h3.556a.6.6,0,0,1,.593.593v3.556A.594.594,0,0,1,340.737,239.444Z" transform="translate(-237.859 -194.334)" fill="#f94a46"/>
      <path id="Trazado_610201" data-name="Trazado 610201" d="M243.384,288.6h-3.556a.6.6,0,0,1-.593-.593v-3.556a.6.6,0,0,1,.593-.593h3.556a.6.6,0,0,1,.593.593v3.556A.594.594,0,0,1,243.384,288.6Z" transform="translate(-157.25 -235.035)" fill="#efefef"/>
      <path id="Trazado_610202" data-name="Trazado 610202" d="M292.061,288.6H288.5a.594.594,0,0,1-.593-.593v-3.556a.594.594,0,0,1,.593-.593h3.556a.594.594,0,0,1,.593.593v3.556A.594.594,0,0,1,292.061,288.6Z" transform="translate(-197.555 -235.035)" fill="#92b620"/>
      <path id="Trazado_610203" data-name="Trazado 610203" d="M340.737,288.6h-3.556a.594.594,0,0,1-.593-.593v-3.556a.594.594,0,0,1,.593-.593h3.556a.594.594,0,0,1,.593.593v3.556A.594.594,0,0,1,340.737,288.6Z" transform="translate(-237.859 -235.035)" fill="#898989"/>
      <path id="Trazado_610204" data-name="Trazado 610204" d="M389.413,239.444h-3.556a.6.6,0,0,1-.593-.593v-3.556a.6.6,0,0,1,.593-.593h3.556a.6.6,0,0,1,.593.593v3.556A.6.6,0,0,1,389.413,239.444Z" transform="translate(-278.162 -194.334)" fill="#ffb70d"/>
      <path id="Trazado_610205" data-name="Trazado 610205" d="M243.385,440.269h-3.556a.6.6,0,0,1-.593-.593V436.12a.6.6,0,0,1,.593-.593h3.556a.6.6,0,0,1,.593.593v3.556A.6.6,0,0,1,243.385,440.269Z" transform="translate(-157.251 -360.617)" fill="#92b620"/>
      <path id="Trazado_610206" data-name="Trazado 610206" d="M292.061,440.269H288.5a.6.6,0,0,1-.593-.593V436.12a.6.6,0,0,1,.593-.593h3.556a.6.6,0,0,1,.593.593v3.556A.6.6,0,0,1,292.061,440.269Z" transform="translate(-197.555 -360.617)" fill="#70b5e8"/>
      <path id="Trazado_610207" data-name="Trazado 610207" d="M340.737,440.269h-3.556a.6.6,0,0,1-.593-.593V436.12a.6.6,0,0,1,.593-.593h3.556a.6.6,0,0,1,.593.593v3.556A.6.6,0,0,1,340.737,440.269Z" transform="translate(-237.859 -360.617)" fill="#92b620"/>
      <path id="Trazado_610208" data-name="Trazado 610208" d="M389.413,440.269h-3.556a.6.6,0,0,1-.593-.593V436.12a.6.6,0,0,1,.593-.593h3.556a.6.6,0,0,1,.593.593v3.556A.6.6,0,0,1,389.413,440.269Z" transform="translate(-278.162 -360.617)" fill="#efefef"/>
    </g>
  </g>
</svg>
