<svg xmlns="http://www.w3.org/2000/svg" width="62.504" height="62.504" viewBox="0 0 62.504 62.504">
  <g id="Grupo_1075138" data-name="Grupo 1075138" transform="translate(-1013 -12885.555)">
    <g id="Grupo_1072487" data-name="Grupo 1072487" transform="translate(732.688 11686.371)">
      <g id="Grupo_1072053" data-name="Grupo 1072053" transform="translate(280.313 1199.184)">
        <circle id="Elipse_4742" data-name="Elipse 4742" cx="31.252" cy="31.252" r="31.252" transform="translate(0)" fill="#eba325"/>
      </g>
    </g>
    <g id="insurance-clipboard-document-report-security" transform="translate(1025 12895.563)">
      <path id="Trazado_610232" data-name="Trazado 610232" d="M22.94,5a1.94,1.94,0,1,0,1.94,1.94A1.94,1.94,0,0,0,22.94,5Zm0,2.587a.647.647,0,1,1,.647-.647A.647.647,0,0,1,22.94,7.587Z" transform="translate(-6.713 -1.063)"/>
      <path id="Trazado_610233" data-name="Trazado 610233" d="M11,33h2.587v1.293H11Z" transform="translate(-3.18 -10.955)"/>
      <path id="Trazado_610234" data-name="Trazado 610234" d="M17,33h9.7v1.293H17Z" transform="translate(-5.299 -10.955)"/>
      <path id="Trazado_610235" data-name="Trazado 610235" d="M11,39h2.587v1.293H11Z" transform="translate(-3.18 -13.075)"/>
      <path id="Trazado_610236" data-name="Trazado 610236" d="M11,45h2.587v1.293H11Z" transform="translate(-3.18 -15.195)"/>
      <path id="Trazado_610237" data-name="Trazado 610237" d="M11,51h2.587v1.293H11Z" transform="translate(-3.18 -17.315)"/>
      <path id="Trazado_610238" data-name="Trazado 610238" d="M40.156,23.338h-.647a9.774,9.774,0,0,1-5.82-1.94l-1.552-1.164a.64.64,0,0,0-.776,0l-.905.679V7.817a1.946,1.946,0,0,0-1.94-1.94h-5.29A1.947,1.947,0,0,0,21.4,4.584H19.888a3.88,3.88,0,0,0-7.321,0H11.054A1.947,1.947,0,0,0,9.23,5.877H3.94A1.946,1.946,0,0,0,2,7.817V38.859A1.946,1.946,0,0,0,3.94,40.8H28.515a1.95,1.95,0,0,0,1.52-.744l1.436.679a.631.631,0,0,0,.556,0l5.678-2.7A5.8,5.8,0,0,0,40.8,32.9V23.985a.647.647,0,0,0-.647-.647ZM23.341,7.171h5.174a.647.647,0,0,1,.647.647V21.844a9.854,9.854,0,0,1-1.293.679V9.111a.647.647,0,0,0-.647-.647h-3.88ZM10.407,6.524a.647.647,0,0,1,.647-.647h2a.639.639,0,0,0,.634-.517,2.587,2.587,0,0,1,5.07,0,.639.639,0,0,0,.634.517h2a.647.647,0,0,1,.647.647V9.111H10.407ZM9.76,10.4H22.695a.647.647,0,0,0,.647-.647h3.234V22.976a9.72,9.72,0,0,1-2.587.362h-.647a.647.647,0,0,0-.647.647v1.94H11.7v1.293H22.695v2.587H11.7V31.1H22.695v1.8a6.381,6.381,0,0,0,.052.789H11.7v1.293H23.089a5.838,5.838,0,0,0,1.235,1.94H5.88V9.757H9.114a.647.647,0,0,0,.647.647Zm18.754,29.1H3.94a.647.647,0,0,1-.647-.647V7.817a.647.647,0,0,1,.647-.647H9.114V8.464H5.234a.647.647,0,0,0-.647.647V37.566a.647.647,0,0,0,.647.647H26.161l2.6,1.235a.651.651,0,0,1-.246.058ZM39.509,32.9a4.5,4.5,0,0,1-2.386,3.984l-5.374,2.554-5.361-2.548a4.511,4.511,0,0,1-2.4-3.99V24.632a11.059,11.059,0,0,0,6.6-2.2l1.164-.873,1.164.873a11.059,11.059,0,0,0,6.6,2.2Z"/>
      <path id="Trazado_610239" data-name="Trazado 610239" d="M25.407,19.587h-1.94v-1.94A.647.647,0,0,0,22.82,17H20.234a.647.647,0,0,0-.647.647v1.94h-1.94a.647.647,0,0,0-.647.647V22.82a.647.647,0,0,0,.647.647h1.94v1.94a.647.647,0,0,0,.647.647H22.82a.647.647,0,0,0,.647-.647v-1.94h1.94a.647.647,0,0,0,.647-.647V20.234A.647.647,0,0,0,25.407,19.587Zm-.647,2.587H22.82a.647.647,0,0,0-.647.647v1.94H20.88V22.82a.647.647,0,0,0-.647-.647h-1.94V20.88h1.94a.647.647,0,0,0,.647-.647v-1.94h1.293v1.94a.647.647,0,0,0,.647.647h1.94Z" transform="translate(-5.299 -5.303)"/>
      <path id="Trazado_610240" data-name="Trazado 610240" d="M50.384,37.444a12.315,12.315,0,0,1-5.529-2.315.64.64,0,0,0-.776,0,12.315,12.315,0,0,1-5.529,2.315.652.652,0,0,0-.55.64v6.474a3.23,3.23,0,0,0,1.669,2.826l.039.019,4.482,2.128a.631.631,0,0,0,.556,0l4.52-2.147a3.237,3.237,0,0,0,1.669-2.826V38.084a.652.652,0,0,0-.55-.64Zm-.744,7.114a1.914,1.914,0,0,1-.97,1.675l-4.2,2-4.191-1.985a1.94,1.94,0,0,1-.983-1.688v-5.93a13.651,13.651,0,0,0,5.174-2.186,13.651,13.651,0,0,0,5.174,2.186Z" transform="translate(-12.719 -11.661)"/>
      <path id="Trazado_610241" data-name="Trazado 610241" d="M43.207,45.527l-.914.914,1.94,1.94a.647.647,0,0,0,.914,0l5.174-5.174-.914-.914L44.69,47.009Z" transform="translate(-14.235 -14.238)"/>
    </g>
  </g>
</svg>
