<svg xmlns="http://www.w3.org/2000/svg" xmlns:xlink="http://www.w3.org/1999/xlink" width="62.504" height="62.504" viewBox="0 0 62.504 62.504">
  <defs>
    <clipPath id="clip-path">
      <rect id="Rectángulo_378573" data-name="Rectángulo 378573" width="43.712" height="43.712" transform="translate(0 0)" fill="none"/>
    </clipPath>
  </defs>
  <g id="Grupo_1075139" data-name="Grupo 1075139" transform="translate(-1260.585 -12886.021)">
    <g id="Grupo_1072488" data-name="Grupo 1072488" transform="translate(980.273 11686.838)">
      <g id="Grupo_1072053" data-name="Grupo 1072053" transform="translate(280.313 1199.184)">
        <circle id="Elipse_4742" data-name="Elipse 4742" cx="31.252" cy="31.252" r="31.252" transform="translate(0)" fill="#eba325"/>
      </g>
    </g>
    <g id="Grupo_1072809" data-name="Grupo 1072809" transform="translate(1265.972 12893.951)">
      <g id="Grupo_1072808" data-name="Grupo 1072808" transform="translate(4.01 -0.001)" clip-path="url(#clip-path)">
        <path id="Trazado_610242" data-name="Trazado 610242" d="M41.086,622.553H35.77a.874.874,0,1,1,0-1.748h5.316a1.347,1.347,0,0,0,1.346-1.346v-1.175H1.748v1.175A1.346,1.346,0,0,0,3.094,620.8H33.006a.874.874,0,1,1,0,1.748H3.094A3.094,3.094,0,0,1,0,619.459v-1.708a1.217,1.217,0,0,1,1.215-1.216H42.964a1.217,1.217,0,0,1,1.215,1.215v1.708a3.1,3.1,0,0,1-3.094,3.094" transform="translate(-0.234 -580.613)"/>
        <path id="Trazado_610243" data-name="Trazado 610243" d="M51.669,204.312a2.581,2.581,0,0,1-2.581-2.58v-22.2a2.585,2.585,0,0,1,2.582-2.582H70.013a.874.874,0,1,1,0,1.748H51.669a.835.835,0,0,0-.834.834v22.2a.833.833,0,0,0,.833.834h33.3a.835.835,0,0,0,.834-.834V184.357a.874.874,0,1,1,1.748,0V201.73a2.585,2.585,0,0,1-2.581,2.582h-33.3Z" transform="translate(-46.461 -166.642)"/>
        <path id="Trazado_610244" data-name="Trazado 610244" d="M596.953,182.514a.874.874,0,0,1-.874-.874v-2.107a.834.834,0,0,0-.833-.834h-3.432a.874.874,0,0,1,0-1.748h3.432a2.584,2.584,0,0,1,2.581,2.58v2.108a.874.874,0,0,1-.874.874" transform="translate(-556.742 -166.641)"/>
        <path id="Trazado_610245" data-name="Trazado 610245" d="M456.2,178.7h-4.836a.874.874,0,0,1,0-1.748H456.2a.874.874,0,1,1,0,1.748" transform="translate(-424.479 -166.641)"/>
        <path id="Trazado_610246" data-name="Trazado 610246" d="M93.92,236.182a.874.874,0,0,1-.874-.874V221.786a.874.874,0,0,1,.874-.874H111.07a.874.874,0,1,1,0,1.748H94.793v12.649a.874.874,0,0,1-.874.874" transform="translate(-87.857 -208.039)"/>
        <path id="Trazado_610247" data-name="Trazado 610247" d="M93.934,243.148a.874.874,0,0,1-.874-.874v-4.2a.874.874,0,0,1,1.748,0V241.4h29.84V222.658h-1.073a.874.874,0,0,1,0-1.748h1.947a.874.874,0,0,1,.874.874v20.489a.874.874,0,0,1-.874.874Z" transform="translate(-87.871 -208.039)"/>
        <path id="Trazado_610248" data-name="Trazado 610248" d="M304.424,620.333h-5.806a1.9,1.9,0,0,1-1.9-1.9V617.41a.874.874,0,0,1,.874-.874h7.855a.874.874,0,0,1,.874.874v1.025a1.9,1.9,0,0,1-1.9,1.9m-5.956-2.049v.151a.151.151,0,0,0,.151.15h5.806a.151.151,0,0,0,.151-.15v-.151Z" transform="translate(-279.665 -580.613)"/>
        <path id="Trazado_610249" data-name="Trazado 610249" d="M385.807,46.593h-1.159A1.7,1.7,0,0,1,383,45.314c-.1-.368-.22-.887-.278-1.282l-1.033-.595c-.369.147-.885.3-1.256.4a1.7,1.7,0,0,1-1.93-.787l-.579-1a1.7,1.7,0,0,1,.284-2.069c.272-.267.66-.634.974-.881V37.916c-.313-.247-.7-.614-.975-.882a1.7,1.7,0,0,1-.283-2.068l.579-1a1.7,1.7,0,0,1,1.931-.787c.37.1.884.255,1.255.4l1.033-.595c.057-.393.182-.913.278-1.282a1.7,1.7,0,0,1,1.649-1.278h1.159a1.7,1.7,0,0,1,1.65,1.279c.1.368.22.886.278,1.282l1.033.595c.368-.147.885-.3,1.256-.4a1.7,1.7,0,0,1,1.93.787l.579,1a1.7,1.7,0,0,1-.284,2.069c-.272.267-.66.634-.974.881V39.1c.313.247.7.614.975.882a1.7,1.7,0,0,1,.283,2.068l-.579,1a1.7,1.7,0,0,1-1.931.787c-.37-.1-.884-.255-1.255-.4l-1.033.594c-.058.394-.183.913-.278,1.282a1.7,1.7,0,0,1-1.649,1.278m-1.125-1.748h1.09c.116-.452.2-.832.234-1.073l0-.012a1.687,1.687,0,0,1,.837-1.232l1.069-.615a1.687,1.687,0,0,1,1.481-.106c.229.092.6.213,1.064.341l.543-.938c-.334-.326-.633-.6-.823-.745a1.687,1.687,0,0,1-.652-1.341v-1.23a1.685,1.685,0,0,1,.65-1.338c.192-.149.49-.42.824-.745l-.543-.938c-.46.128-.835.248-1.061.34a1.69,1.69,0,0,1-1.486-.106l-1.069-.615a1.685,1.685,0,0,1-.835-1.231c-.034-.241-.119-.634-.235-1.085h-1.09c-.118.458-.2.841-.235,1.083a1.689,1.689,0,0,1-.837,1.234l-1.069.615a1.688,1.688,0,0,1-1.481.106c-.229-.092-.6-.213-1.064-.341l-.543.938c.334.326.633.6.823.745a1.687,1.687,0,0,1,.652,1.341v1.23a1.684,1.684,0,0,1-.65,1.338c-.194.151-.486.415-.824.746l.543.938c.46-.128.835-.248,1.061-.34a1.69,1.69,0,0,1,1.486.106l1.069.616a1.686,1.686,0,0,1,.835,1.231c.034.244.118.628.235,1.085m.548-2.615h-.009a3.721,3.721,0,1,1,0-7.441h.01a3.724,3.724,0,0,1,3.722,3.719v0a3.728,3.728,0,0,1-3.724,3.719m0-1.748h0a1.973,1.973,0,1,0,0-3.945h-.005a1.973,1.973,0,1,0,0,3.945Z" transform="translate(-355.921 -28.653)"/>
        <path id="Trazado_610250" data-name="Trazado 610250" d="M213.472,237.08h-1.159a1.7,1.7,0,0,1-1.649-1.279c-.1-.368-.22-.887-.278-1.282l-1.033-.595c-.369.147-.885.3-1.256.4a1.7,1.7,0,0,1-1.93-.787l-.579-1a1.7,1.7,0,0,1,.284-2.069c.273-.267.66-.634.974-.881V228.4c-.313-.247-.7-.614-.975-.882a1.7,1.7,0,0,1-.283-2.068l.579-1a1.7,1.7,0,0,1,1.931-.787c.369.1.884.255,1.255.4l1.033-.595c.057-.392.182-.912.278-1.282a1.7,1.7,0,0,1,1.649-1.278h1.159a1.7,1.7,0,0,1,1.649,1.279c.1.368.22.886.278,1.282l1.033.595c.369-.147.885-.3,1.256-.4a1.7,1.7,0,0,1,1.93.787l.579,1a1.7,1.7,0,0,1-.284,2.069c-.272.266-.66.633-.974.881v1.186c.314.247.7.615.975.882a1.7,1.7,0,0,1,.283,2.068l-.579,1a1.7,1.7,0,0,1-1.931.787c-.37-.1-.884-.255-1.255-.4l-1.033.594c-.058.395-.183.913-.278,1.282a1.7,1.7,0,0,1-1.649,1.278m-1.125-1.748h1.09c.116-.451.2-.83.233-1.072l0-.014a1.687,1.687,0,0,1,.837-1.232l1.069-.615a1.688,1.688,0,0,1,1.481-.106c.229.092.605.213,1.064.341l.543-.938c-.333-.326-.632-.6-.823-.745a1.687,1.687,0,0,1-.652-1.341v-1.23a1.685,1.685,0,0,1,.65-1.338c.192-.15.491-.42.824-.746l-.543-.938c-.46.128-.835.248-1.061.34a1.69,1.69,0,0,1-1.486-.106l-1.069-.615a1.686,1.686,0,0,1-.835-1.231c-.034-.241-.119-.634-.235-1.085h-1.09c-.118.459-.2.842-.235,1.083a1.688,1.688,0,0,1-.837,1.234l-1.069.615a1.688,1.688,0,0,1-1.481.106c-.229-.092-.605-.213-1.064-.341l-.543.938c.334.326.633.6.823.745a1.686,1.686,0,0,1,.652,1.341v1.23a1.684,1.684,0,0,1-.65,1.338c-.194.152-.486.415-.824.746l.543.938c.459-.128.835-.248,1.061-.34a1.69,1.69,0,0,1,1.486.107l1.069.615a1.686,1.686,0,0,1,.835,1.231c.034.244.118.628.235,1.085m.539-2.615a3.721,3.721,0,1,1,0-7.441h.01A3.724,3.724,0,0,1,216.62,229v0a3.728,3.728,0,0,1-3.724,3.719h-.009m0-5.693a1.973,1.973,0,1,0,0,3.945h.005a1.973,1.973,0,1,0,0-3.945h-.005" transform="translate(-193.627 -208.041)"/>
      </g>
    </g>
  </g>
</svg>
