<svg xmlns="http://www.w3.org/2000/svg" width="62.504" height="62.504" viewBox="0 0 62.504 62.504">
  <g id="Grupo_1075137" data-name="Grupo 1075137" transform="translate(-768 -12885.555)">
    <g id="Grupo_1072486" data-name="Grupo 1072486" transform="translate(488.187 11686.838)">
      <g id="Grupo_1072053" data-name="Grupo 1072053" transform="translate(279.813 1198.717)">
        <circle id="Elipse_4742" data-name="Elipse 4742" cx="31.252" cy="31.252" r="31.252" transform="translate(0)" fill="#eba325"/>
      </g>
      <g id="pizza" transform="translate(289.558 1212.717)">
        <g id="Grupo_1072795" data-name="Grupo 1072795" transform="translate(0.001 0)">
          <g id="Grupo_1072794" data-name="Grupo 1072794" transform="translate(0 0)">
            <path id="Trazado_610225" data-name="Trazado 610225" d="M40.7.231a.8.8,0,0,0-.83-.184L6.661,11.889a4.372,4.372,0,0,0-6.327,5.4A42.878,42.878,0,0,0,9.675,31.268a42.876,42.876,0,0,0,13.979,9.341,4.371,4.371,0,0,0,5.691-5.764L40.9,1.059A.8.8,0,0,0,40.7.231ZM11.69,11.794l3.52-1.255a2.038,2.038,0,1,1-3.52,1.255Zm16.2,25.835a2.778,2.778,0,0,1-3.625,1.5A41.218,41.218,0,0,1,1.812,16.677a2.775,2.775,0,0,1,5.127-2.124,35.761,35.761,0,0,0,7.791,11.66A35.762,35.762,0,0,0,26.389,34,2.778,2.778,0,0,1,27.891,37.629ZM35,13.38a2.063,2.063,0,0,1-.217-.015A2.038,2.038,0,1,1,36.252,9.7Zm1.789-5.23a3.637,3.637,0,1,0-2.32,6.784l-1.589,4.647-1.828-1.4a.8.8,0,0,0-.974,1.269l2.255,1.731L28.195,33.265A4.356,4.356,0,0,0,27,32.526,34.116,34.116,0,0,1,8.417,13.941a4.371,4.371,0,0,0-.449-.82l2.141-.763a3.641,3.641,0,0,0,3.139,3.181,3.688,3.688,0,0,0,.482.032,3.636,3.636,0,0,0,3.058-5.594l9.94-3.544.377.91a.8.8,0,0,0,1.478-.612l-.346-.835L38.85,2.11Z" transform="translate(-0.001 0)"/>
          </g>
        </g>
        <g id="Grupo_1072797" data-name="Grupo 1072797" transform="translate(7.161 21.079)">
          <g id="Grupo_1072796" data-name="Grupo 1072796">
            <path id="Trazado_610226" data-name="Trazado 610226" d="M91.022,263.982l-.012-.018a.8.8,0,1,0,.012.018Z" transform="translate(-89.546 -263.609)"/>
          </g>
        </g>
        <g id="Grupo_1072799" data-name="Grupo 1072799" transform="translate(3.8 14.722)">
          <g id="Grupo_1072798" data-name="Grupo 1072798">
            <path id="Trazado_610227" data-name="Trazado 610227" d="M51.135,188.855a37.849,37.849,0,0,1-2.082-4.25.8.8,0,1,0-1.477.612,39.442,39.442,0,0,0,2.17,4.43.8.8,0,1,0,1.389-.792Z" transform="translate(-47.515 -184.111)"/>
          </g>
        </g>
        <g id="Grupo_1072801" data-name="Grupo 1072801" transform="translate(20.912 10.203)">
          <g id="Grupo_1072800" data-name="Grupo 1072800">
            <path id="Trazado_610228" data-name="Trazado 610228" d="M265.615,127.625a3.638,3.638,0,1,0,3.131,4.081A3.664,3.664,0,0,0,265.615,127.625Zm1.546,3.872a2.04,2.04,0,1,1-1.755-2.287A2.042,2.042,0,0,1,267.161,131.5Z" transform="translate(-261.502 -127.593)"/>
          </g>
        </g>
        <g id="Grupo_1072803" data-name="Grupo 1072803" transform="translate(20.703 20.149)">
          <g id="Grupo_1072802" data-name="Grupo 1072802">
            <path id="Trazado_610229" data-name="Trazado 610229" d="M263.009,252.012a3.634,3.634,0,0,0-4.081,3.132,3.638,3.638,0,0,0,3.132,4.081,3.638,3.638,0,0,0,.95-7.213Zm1.546,3.872a2.042,2.042,0,0,1-2.017,1.772,2.071,2.071,0,0,1-.269-.018,2.038,2.038,0,0,1,.262-4.059,2.063,2.063,0,0,1,.27.018A2.041,2.041,0,0,1,264.555,255.884Z" transform="translate(-258.896 -251.98)"/>
          </g>
        </g>
        <g id="Grupo_1072805" data-name="Grupo 1072805" transform="translate(16.18 16.537)">
          <g id="Grupo_1072804" data-name="Grupo 1072804">
            <path id="Trazado_610230" data-name="Trazado 610230" d="M205.694,207.142l-2.458-.324a.8.8,0,0,0-.209,1.586l2.458.324a.8.8,0,0,0,.209-1.586Z" transform="translate(-202.332 -206.811)"/>
          </g>
        </g>
        <g id="Grupo_1072807" data-name="Grupo 1072807" transform="translate(16.486 20.425)">
          <g id="Grupo_1072806" data-name="Grupo 1072806">
            <path id="Trazado_610231" data-name="Trazado 610231" d="M207.971,257.767l-.217-1.649a.8.8,0,1,0-1.586.209l.217,1.649a.8.8,0,1,0,1.585-.209Z" transform="translate(-206.161 -255.423)"/>
          </g>
        </g>
      </g>
    </g>
  </g>
</svg>
