<svg xmlns="http://www.w3.org/2000/svg" width="125" height="125" viewBox="0 0 125 125">
  <g id="Grupo_1075139" data-name="Grupo 1075139" transform="translate(-1094 -21575.555)">
    <g id="Grupo_1073354" data-name="Grupo 1073354" transform="translate(708 19429.555)">
      <path id="Trazado_608385" data-name="Trazado 608385" d="M62.5,0A62.5,62.5,0,1,1,0,62.5,62.5,62.5,0,0,1,62.5,0Z" transform="translate(386 2146)" fill="#fff"/>
    </g>
    <g id="piensa-diferente" transform="translate(1117 21598.555)">
      <g id="Grupo_1073436" data-name="Grupo 1073436" transform="translate(2.233 2.233)">
        <g id="Grupo_1073421" data-name="Grupo 1073421" transform="translate(7.399 46.863)">
          <path id="Trazado_610667" data-name="Trazado 610667" d="M8,40h9.866A4.933,4.933,0,1,1,8,40Z" transform="translate(-8 -40)" fill="#aab2bd"/>
        </g>
        <g id="Grupo_1073422" data-name="Grupo 1073422" transform="translate(56.728 46.863)">
          <path id="Trazado_610668" data-name="Trazado 610668" d="M48,40h9.866A4.933,4.933,0,0,1,48,40Z" transform="translate(-48 -40)" fill="#aab2bd"/>
        </g>
        <g id="Grupo_1073423" data-name="Grupo 1073423" transform="translate(7.399 41.93)">
          <path id="Trazado_610669" data-name="Trazado 610669" d="M17.866,36v4.933H8V36h9.866Z" transform="translate(-8 -36)" fill="#ccd1d9"/>
        </g>
        <g id="Grupo_1073424" data-name="Grupo 1073424" transform="translate(56.728 41.93)">
          <path id="Trazado_610670" data-name="Trazado 610670" d="M50.466,36h7.4v4.933H48V36Z" transform="translate(-48 -36)" fill="#ccd1d9"/>
        </g>
        <g id="Grupo_1073425" data-name="Grupo 1073425" transform="translate(0 14.799)">
          <path id="Trazado_610671" data-name="Trazado 610671" d="M26.492,24.236A14.147,14.147,0,0,1,24.469,19.3,12.335,12.335,0,0,0,2,26.332c0,7.4,6.166,9.866,7.4,14.8h9.866c1.233-4.933,7.4-7.4,7.4-14.8A13,13,0,0,0,26.492,24.236Z" transform="translate(-2 -14)" fill="#ffeaa7"/>
        </g>
        <g id="Grupo_1073426" data-name="Grupo 1073426" transform="translate(49.329 14.799)">
          <path id="Trazado_610672" data-name="Trazado 610672" d="M54.332,14A12.317,12.317,0,0,0,44.2,19.3a14.147,14.147,0,0,1-2.022,4.933,13,13,0,0,0-.173,2.1c0,7.4,6.166,9.866,7.4,14.8h9.866c1.233-4.933,7.4-7.4,7.4-14.8A12.337,12.337,0,0,0,54.332,14Z" transform="translate(-42 -14)" fill="#ffeaa7"/>
        </g>
        <g id="Grupo_1073427" data-name="Grupo 1073427" transform="translate(4.933 24.665)">
          <path id="Trazado_610673" data-name="Trazado 610673" d="M10.933,24.466v2.466H8.466A2.474,2.474,0,0,1,6,24.466a2.459,2.459,0,0,1,4.205-1.739A2.411,2.411,0,0,1,10.933,24.466Z" transform="translate(-6 -22)" fill="#fcd770"/>
        </g>
        <g id="Grupo_1073428" data-name="Grupo 1073428" transform="translate(14.799 24.665)">
          <path id="Trazado_610674" data-name="Trazado 610674" d="M18.205,22.728a2.466,2.466,0,0,1-1.739,4.205H14V24.466A2.474,2.474,0,0,1,16.466,22,2.411,2.411,0,0,1,18.205,22.728Z" transform="translate(-14 -22)" fill="#fcd770"/>
        </g>
        <g id="Grupo_1073429" data-name="Grupo 1073429" transform="translate(64.128 24.665)">
          <path id="Trazado_610675" data-name="Trazado 610675" d="M58.205,22.728a2.466,2.466,0,0,1-1.739,4.205H54V24.466A2.474,2.474,0,0,1,56.466,22,2.411,2.411,0,0,1,58.205,22.728Z" transform="translate(-54 -22)" fill="#fcd770"/>
        </g>
        <g id="Grupo_1073430" data-name="Grupo 1073430" transform="translate(54.262 24.665)">
          <path id="Trazado_610676" data-name="Trazado 610676" d="M50.933,24.466v2.466H48.466A2.474,2.474,0,0,1,46,24.466a2.466,2.466,0,0,1,4.933,0Z" transform="translate(-46 -22)" fill="#fcd770"/>
        </g>
        <g id="Grupo_1073431" data-name="Grupo 1073431" transform="translate(33.297 44.396)">
          <path id="Trazado_610677" data-name="Trazado 610677" d="M36.4,38v1.233a3.7,3.7,0,0,1-7.4,0V38Z" transform="translate(-29 -38)" fill="#aab2bd"/>
        </g>
        <g id="Grupo_1073432" data-name="Grupo 1073432" transform="translate(30.831 34.53)">
          <path id="Trazado_610678" data-name="Trazado 610678" d="M27,30H39.332v4.933H27Z" transform="translate(-27 -30)" fill="#ccd1d9"/>
        </g>
        <g id="Grupo_1073433" data-name="Grupo 1073433" transform="translate(30.831 39.463)">
          <path id="Trazado_610679" data-name="Trazado 610679" d="M39.332,34v2.466a2.474,2.474,0,0,1-2.466,2.466h-7.4A2.474,2.474,0,0,1,27,36.466V34Z" transform="translate(-27 -34)" fill="#ccd1d9"/>
        </g>
        <g id="Grupo_1073434" data-name="Grupo 1073434" transform="translate(22.198 3.219)">
          <path id="Trazado_610680" data-name="Trazado 610680" d="M39.485,4.61l-9.964.222A14.8,14.8,0,0,0,20,18.656a14.571,14.571,0,0,0,.271,2.836,14.147,14.147,0,0,0,2.022,4.933c2.01,3.231,4.847,5.771,6.339,9.5H40.965c1.492-3.724,4.329-6.265,6.339-9.5a14.147,14.147,0,0,0,2.022-4.933,14.571,14.571,0,0,0,.271-2.836A14.819,14.819,0,0,0,39.485,4.61Z" transform="translate(-20 -4.61)" fill="#e6e9ed"/>
        </g>
        <g id="Grupo_1073435" data-name="Grupo 1073435" transform="translate(30.831)">
          <path id="Trazado_610681" data-name="Trazado 610681" d="M37.988,4.787l-.136.432-2.22,6.647h2.873a2.063,2.063,0,0,1,2.059,2.059,1.965,1.965,0,0,1-.16.789l-5.624,13.5a1.481,1.481,0,0,1-2.849-.567V16.8h-2.59A2.342,2.342,0,0,1,27,14.456a1.416,1.416,0,0,1,.012-.234l.876-8.781.123-1.221A2.463,2.463,0,0,1,30.465,2h5.513A2.121,2.121,0,0,1,38.1,4.121a1.986,1.986,0,0,1-.111.666Z" transform="translate(-27 -2)" fill="#ffc729"/>
        </g>
      </g>
      <path id="Trazado_610682" data-name="Trazado 610682" d="M71.294,60.195H66.361a1.234,1.234,0,0,1-1.233-1.233V55.137A6.177,6.177,0,0,0,70.061,49.1V44.36a13.164,13.164,0,0,1,2.909-4.687c2.105-2.561,4.49-5.464,4.49-10.309A13.544,13.544,0,0,0,55.24,18.942,16,16,0,0,0,45.369,4.69c.011-.112.027-.222.027-.334A3.36,3.36,0,0,0,42.04,1H36.529a3.688,3.688,0,0,0-3.681,3.331l-.049.49A16.124,16.124,0,0,0,23.22,18.942,13.544,13.544,0,0,0,1,29.364c0,4.844,2.385,7.747,4.49,10.309A13.164,13.164,0,0,1,8.4,44.36V49.1a6.178,6.178,0,0,0,4.933,6.042v3.824a3.7,3.7,0,0,0,3.7,3.7h4.933a1.233,1.233,0,1,1,0,2.466H7.166a3.7,3.7,0,0,0,0,7.4H12.1a1.234,1.234,0,0,1,1.233,1.233v3.7H15.8v-3.7a3.7,3.7,0,0,0-3.7-3.7H7.166a1.233,1.233,0,0,1,0-2.466h14.8a3.7,3.7,0,1,0,0-7.4H17.032A1.234,1.234,0,0,1,15.8,58.962V55.137A6.177,6.177,0,0,0,20.732,49.1V44.36a13.164,13.164,0,0,1,2.909-4.687c1.83-2.227,3.867-4.716,4.369-8.51.079.1.157.2.234.3a24.418,24.418,0,0,1,3.585,5.57v7.128A3.7,3.7,0,0,0,34.3,47.636v.227A4.928,4.928,0,0,0,38,52.62v1.408a1.234,1.234,0,0,1-1.233,1.233h-3.7a4.933,4.933,0,0,0,0,9.866h11.1a3.7,3.7,0,1,1,0,7.4H41.7a3.7,3.7,0,0,0-3.7,3.7V77.46h2.466V76.227A1.234,1.234,0,0,1,41.7,74.993h2.466a6.166,6.166,0,1,0,0-12.332h-11.1a2.466,2.466,0,0,1,0-4.933h3.7a3.7,3.7,0,0,0,3.7-3.7V52.62a4.928,4.928,0,0,0,3.7-4.758v-.227a3.7,3.7,0,0,0,2.466-3.473V37.036a24.445,24.445,0,0,1,3.585-5.57l.234-.3c.5,3.795,2.54,6.283,4.369,8.51a13.164,13.164,0,0,1,2.909,4.687V49.1a6.178,6.178,0,0,0,4.933,6.042v3.824a3.7,3.7,0,0,0,3.7,3.7h4.933a1.233,1.233,0,1,1,0,2.466H56.5a3.7,3.7,0,0,0,0,7.4h4.933a1.234,1.234,0,0,1,1.233,1.233v3.7h2.466v-3.7a3.7,3.7,0,0,0-3.7-3.7H56.5a1.233,1.233,0,1,1,0-2.466h14.8a3.7,3.7,0,1,0,0-7.4Zm-11.1-29.6H58.962a1.233,1.233,0,1,1,1.233-1.233ZM65.128,42.93H62.661V33.064h2.466ZM67.594,45.4v2.466h-7.4V45.4ZM36.529,3.466H42.04a.889.889,0,0,1,.889.889.913.913,0,0,1-.046.281l-2.9,8.7h4.589a.823.823,0,0,1,.758,1.138L39.7,27.98a.256.256,0,0,1-.475-.1V15.8H35.413a1.138,1.138,0,0,1-1.11-1.227l1-10a1.229,1.229,0,0,1,1.227-1.11ZM10.866,30.6H9.633a1.233,1.233,0,1,1,1.233-1.233ZM15.8,42.93H13.332V33.064H15.8ZM18.265,45.4v2.466h-7.4V45.4Zm-3.7,7.4a3.7,3.7,0,0,1-3.473-2.466h6.944A3.692,3.692,0,0,1,14.565,52.8Zm11.1-23.431c0,3.96-2,6.392-3.929,8.744A17.51,17.51,0,0,0,18.6,42.93h-.333V33.064H19.5a3.7,3.7,0,1,0-3.7-3.7V30.6H13.332V29.364a3.7,3.7,0,1,0-3.7,3.7h1.233V42.93h-.333A17.463,17.463,0,0,0,7.4,38.108c-1.931-2.352-3.929-4.784-3.929-8.744A11.092,11.092,0,0,1,23.574,22.9a15.624,15.624,0,0,0,1.958,4.794,11.343,11.343,0,0,1,.132,1.675Zm-7.4,1.233V29.364A1.233,1.233,0,1,1,19.5,30.6Zm25.9,9.866H34.3V38h9.866ZM39.23,50.329a2.469,2.469,0,0,1-2.466-2.466H41.7A2.469,2.469,0,0,1,39.23,50.329Zm3.7-4.933h-7.4A1.234,1.234,0,0,1,34.3,44.163V42.93h9.866v1.233A1.234,1.234,0,0,1,42.93,45.4Zm5.342-15.45a28.758,28.758,0,0,0-3.654,5.584H33.843a28.758,28.758,0,0,0-3.654-5.584c-2.327-2.976-4.525-5.788-4.525-10.448A13.661,13.661,0,0,1,32.509,7.715l-.661,6.611a3.431,3.431,0,0,0-.017.356,3.587,3.587,0,0,0,3.583,3.583h1.35v9.619a2.712,2.712,0,0,0,5.217,1.043L47.607,15.42a3.231,3.231,0,0,0,.255-1.265,3.292,3.292,0,0,0-3.289-3.289H43.407l1.265-3.793A13.544,13.544,0,0,1,52.8,19.5C52.8,24.159,50.6,26.97,48.272,29.946Zm4.523-.582a11.15,11.15,0,0,1,.133-1.673,15.639,15.639,0,0,0,1.958-4.8,11.092,11.092,0,0,1,20.107,6.469c0,3.96-2,6.392-3.929,8.744a17.509,17.509,0,0,0-3.137,4.822h-.333V33.064h1.233a3.7,3.7,0,1,0-3.7-3.7V30.6H62.661V29.364a3.7,3.7,0,1,0-3.7,3.7h1.233V42.93h-.333a17.463,17.463,0,0,0-3.137-4.822c-1.931-2.352-3.929-4.784-3.929-8.744Zm14.8,1.233V29.364A1.233,1.233,0,1,1,68.827,30.6ZM60.422,50.329h6.944a3.677,3.677,0,0,1-6.944,0Z"/>
    </g>
  </g>
</svg>
