<svg xmlns="http://www.w3.org/2000/svg" xmlns:xlink="http://www.w3.org/1999/xlink" width="125" height="125" viewBox="0 0 125 125">
  <defs>
    <clipPath id="clip-path">
      <rect id="Rectángulo_379075" data-name="Rectángulo 379075" width="80.083" height="79.648" fill="none"/>
    </clipPath>
  </defs>
  <g id="Grupo_1075140" data-name="Grupo 1075140" transform="translate(6887 -8665.555)">
    <g id="Grupo_1073360" data-name="Grupo 1073360" transform="translate(-7273 6519.555)">
      <path id="Trazado_608385" data-name="Trazado 608385" d="M62.5,0A62.5,62.5,0,1,1,0,62.5,62.5,62.5,0,0,1,62.5,0Z" transform="translate(386 2146)" fill="#fff"/>
    </g>
    <g id="Grupo_1073438" data-name="Grupo 1073438" transform="translate(-6863.801 8687.764)">
      <g id="Grupo_1073437" data-name="Grupo 1073437" clip-path="url(#clip-path)">
        <path id="Trazado_610683" data-name="Trazado 610683" d="M38.182,157.714H10.512A3.012,3.012,0,0,1,7.5,154.7V103.391a3.012,3.012,0,0,1,3.012-3.012h27.67a3.012,3.012,0,0,1,3.012,3.012V154.7a3.012,3.012,0,0,1-3.012,3.012" transform="translate(-6.327 -84.678)" fill="#e3f3fe"/>
        <path id="Trazado_610684" data-name="Trazado 610684" d="M173.435,103.391V154.7a3.011,3.011,0,0,1-3.012,3.011H164.26a3.011,3.011,0,0,0,3.011-3.011V103.391a3.011,3.011,0,0,0-3.011-3.011h6.163a3.011,3.011,0,0,1,3.012,3.011Z" transform="translate(-138.568 -84.679)" fill="#cee8fa"/>
        <path id="Trazado_610685" data-name="Trazado 610685" d="M66.522,360.3H48.647a1.746,1.746,0,0,0-1.747,1.746h0v7.093a1.746,1.746,0,0,0,1.746,1.746H66.521a1.746,1.746,0,0,0,1.747-1.746h0v-7.093a1.746,1.746,0,0,0-1.746-1.746" transform="translate(-39.564 -303.943)" fill="#ffe365"/>
        <path id="Trazado_610686" data-name="Trazado 610686" d="M67.414,52.581H52.906a2.953,2.953,0,0,1-2.953-2.953V35.121a2.953,2.953,0,0,1,2.953-2.953H67.414a2.953,2.953,0,0,1,2.953,2.953V49.629a2.953,2.953,0,0,1-2.953,2.952" transform="translate(-42.14 -27.137)" fill="#78bae9"/>
        <path id="Trazado_610687" data-name="Trazado 610687" d="M319.765,157.714h-27.67a3.012,3.012,0,0,1-3.012-3.012V103.391a3.012,3.012,0,0,1,3.012-3.012h27.67a3.012,3.012,0,0,1,3.012,3.012V154.7a3.012,3.012,0,0,1-3.012,3.012" transform="translate(-243.867 -84.678)" fill="#e3f3fe"/>
        <path id="Trazado_610688" data-name="Trazado 610688" d="M455.015,103.391V154.7A3.011,3.011,0,0,1,452,157.715H445.84a3.012,3.012,0,0,0,3.013-3.011h0V103.391a3.012,3.012,0,0,0-3.012-3.011H452a3.011,3.011,0,0,1,3.011,3.011" transform="translate(-376.105 -84.679)" fill="#cee8fa"/>
        <path id="Trazado_610689" data-name="Trazado 610689" d="M334.714,215.987h-4.481a1.746,1.746,0,0,0-1.746,1.746v12.832a1.746,1.746,0,0,0,1.746,1.746h4.481a1.746,1.746,0,0,0,1.746-1.746V217.733a1.746,1.746,0,0,0-1.746-1.746Z" transform="translate(-277.108 -182.204)" fill="#ffe365"/>
        <path id="Trazado_610690" data-name="Trazado 610690" d="M421.511,215.987h-4.265a1.746,1.746,0,0,0-1.747,1.746h0v12.832a1.746,1.746,0,0,0,1.746,1.746h4.265a1.746,1.746,0,0,0,1.747-1.745h0V217.733a1.746,1.746,0,0,0-1.746-1.746Z" transform="translate(-350.511 -182.204)" fill="#ffe365"/>
        <path id="Trazado_610691" data-name="Trazado 610691" d="M349,52.581H334.489a2.953,2.953,0,0,1-2.953-2.953V35.121a2.953,2.953,0,0,1,2.953-2.953H349a2.953,2.953,0,0,1,2.953,2.953V49.629A2.953,2.953,0,0,1,349,52.581" transform="translate(-279.68 -27.137)" fill="#ff826e"/>
        <path id="Trazado_610692" data-name="Trazado 610692" d="M134.991,35.122V49.63a2.952,2.952,0,0,1-2.951,2.953H126.56a2.952,2.952,0,0,0,2.953-2.952h0V35.122a2.952,2.952,0,0,0-2.953-2.952h5.479a2.952,2.952,0,0,1,2.952,2.952" transform="translate(-106.764 -27.138)" fill="#54a3dc"/>
        <path id="Trazado_610693" data-name="Trazado 610693" d="M416.581,35.122V49.63a2.952,2.952,0,0,1-2.952,2.953H408.15a3.089,3.089,0,0,0,3.041-2.953V35.122a3.088,3.088,0,0,0-3.041-2.952h5.478a2.952,2.952,0,0,1,2.953,2.951Z" transform="translate(-344.31 -27.138)" fill="#e6644f"/>
        <path id="Trazado_610694" data-name="Trazado 610694" d="M31.855,152.561H4.183A4.189,4.189,0,0,1,0,148.377V97.064A4.189,4.189,0,0,1,4.183,92.88H7.812a1.173,1.173,0,1,1,0,2.346H4.183a1.84,1.84,0,0,0-1.838,1.838v51.313a1.84,1.84,0,0,0,1.838,1.838H31.854a1.841,1.841,0,0,0,1.839-1.838V97.064a1.838,1.838,0,0,0-1.838-1.838h-3.63a1.173,1.173,0,1,1,0-2.346h3.63a4.189,4.189,0,0,1,4.184,4.183v51.313a4.189,4.189,0,0,1-4.185,4.184" transform="translate(0.001 -78.352)" fill="#040405"/>
        <path id="Trazado_610695" data-name="Trazado 610695" d="M91.606,221.728H83.742a1.173,1.173,0,1,1,0-2.346h7.864a1.173,1.173,0,0,1,0,2.346" transform="translate(-69.654 -185.068)" fill="#040405"/>
        <path id="Trazado_610696" data-name="Trazado 610696" d="M61.944,255.565H40.577a1.173,1.173,0,1,1,0-2.346H61.944a1.173,1.173,0,1,1,0,2.346" transform="translate(-33.241 -213.612)" fill="#040405"/>
        <path id="Trazado_610697" data-name="Trazado 610697" d="M61.944,289.4H40.577a1.173,1.173,0,1,1,0-2.346H61.944a1.173,1.173,0,1,1,0,2.346" transform="translate(-33.241 -242.157)" fill="#040405"/>
        <path id="Trazado_610698" data-name="Trazado 610698" d="M60.195,365.73H42.319A2.923,2.923,0,0,1,39.4,362.81v-7.093a2.919,2.919,0,0,1,2.919-2.919H60.195a2.922,2.922,0,0,1,2.919,2.919v7.093a2.923,2.923,0,0,1-2.919,2.919M42.32,355.144a.573.573,0,0,0-.573.573v7.093a.574.574,0,0,0,.573.573H60.194a.574.574,0,0,0,.574-.573v-7.093a.574.574,0,0,0-.573-.573H42.32Z" transform="translate(-33.237 -297.616)" fill="#040405"/>
        <path id="Trazado_610699" data-name="Trazado 610699" d="M88.2,66.068a1.174,1.174,0,0,1-1.1-.759l-3.594-9.523-3.628,9.526a1.173,1.173,0,0,1-2.193-.835L82.164,52.72l.01-.026a1.443,1.443,0,0,1,1.882-.791,1.451,1.451,0,0,1,.791.792l.011.028L89.3,64.481a1.174,1.174,0,0,1-1.1,1.588" transform="translate(-65.47 -43.694)" fill="#040405"/>
        <path id="Trazado_610700" data-name="Trazado 610700" d="M94.358,111.669H87.713a1.173,1.173,0,0,1,0-2.346h6.645a1.173,1.173,0,0,1,0,2.346" transform="translate(-73.004 -92.224)" fill="#040405"/>
        <path id="Trazado_610701" data-name="Trazado 610701" d="M61.087,47.428H46.579A4.13,4.13,0,0,1,42.453,43.3V36.51a1.173,1.173,0,0,1,2.346,0V43.3a1.781,1.781,0,0,0,1.78,1.779H61.087a1.781,1.781,0,0,0,1.78-1.779V28.794a1.782,1.782,0,0,0-1.78-1.779H46.579a1.782,1.782,0,0,0-1.78,1.779v2.232a1.173,1.173,0,1,1-2.346,0V28.794a4.13,4.13,0,0,1,4.126-4.126H61.087a4.13,4.13,0,0,1,4.126,4.126V43.3a4.13,4.13,0,0,1-4.126,4.126" transform="translate(-35.813 -20.81)" fill="#040405"/>
        <path id="Trazado_610702" data-name="Trazado 610702" d="M285.764,152.561a4.185,4.185,0,0,1-4.184-4.183V97.064a4.185,4.185,0,0,1,4.184-4.184h3.63a1.173,1.173,0,0,1,0,2.346h-3.629a1.838,1.838,0,0,0-1.839,1.838v51.313a1.838,1.838,0,0,0,1.839,1.838h17.8a1.173,1.173,0,0,1,0,2.346h-17.8Z" transform="translate(-237.537 -78.352)" fill="#040405"/>
        <path id="Trazado_610703" data-name="Trazado 610703" d="M455.309,152.561H450.93a1.173,1.173,0,0,1,0-2.346h4.378a1.84,1.84,0,0,0,1.838-1.838V97.064a1.84,1.84,0,0,0-1.838-1.838H451.68a1.173,1.173,0,0,1,0-2.346h3.629a4.189,4.189,0,0,1,4.184,4.184v51.313a4.189,4.189,0,0,1-4.184,4.184" transform="translate(-379.409 -78.352)" fill="#040405"/>
        <path id="Trazado_610704" data-name="Trazado 610704" d="M343.528,355.144H322.161a1.173,1.173,0,1,1,0-2.346h21.367a1.173,1.173,0,1,1,0,2.346" transform="translate(-270.781 -297.616)" fill="#040405"/>
        <path id="Trazado_610705" data-name="Trazado 610705" d="M343.528,388.982H322.161a1.173,1.173,0,0,1,0-2.346h21.367a1.173,1.173,0,0,1,0,2.346" transform="translate(-270.781 -326.161)" fill="#040405"/>
        <path id="Trazado_610706" data-name="Trazado 610706" d="M374.955,422.819h-7.321a1.173,1.173,0,0,1,0-2.346h7.321a1.173,1.173,0,0,1,0,2.346" transform="translate(-309.142 -354.706)" fill="#040405"/>
        <path id="Trazado_610707" data-name="Trazado 610707" d="M328.387,227.158h-4.481a2.923,2.923,0,0,1-2.919-2.919V211.406a2.923,2.923,0,0,1,2.919-2.919h4.481a2.919,2.919,0,0,1,2.919,2.919v12.832a2.923,2.923,0,0,1-2.919,2.919m-4.481-16.324a.574.574,0,0,0-.573.573v12.832a.574.574,0,0,0,.573.573h4.481a.574.574,0,0,0,.573-.573V211.406a.573.573,0,0,0-.573-.573v0Z" transform="translate(-270.781 -175.877)" fill="#040405"/>
        <path id="Trazado_610708" data-name="Trazado 610708" d="M415.185,227.158h-4.266A2.923,2.923,0,0,1,408,224.238V211.406a2.923,2.923,0,0,1,2.919-2.919h4.266a2.923,2.923,0,0,1,2.919,2.919v12.832a2.919,2.919,0,0,1-2.919,2.919m-4.266-16.324a.574.574,0,0,0-.573.573v12.832a.574.574,0,0,0,.573.573h4.265a.573.573,0,0,0,.574-.573V211.406a.574.574,0,0,0-.573-.573H410.92Z" transform="translate(-344.184 -175.877)" fill="#040405"/>
        <path id="Trazado_610709" data-name="Trazado 610709" d="M367.2,59.648a1.173,1.173,0,0,1-1.173-1.173v-5.5A1.173,1.173,0,0,1,367.2,51.8h3.464a3.917,3.917,0,0,1,0,7.834c-.75,0-3.459.012-3.459.012Zm1.173-5.5V57.3c.831,0,1.87-.007,2.291-.007a1.571,1.571,0,0,0,0-3.142Z" transform="translate(-308.773 -43.7)" fill="#040405"/>
        <path id="Trazado_610710" data-name="Trazado 610710" d="M367.2,95.69a1.173,1.173,0,0,1-1.173-1.173V88.083A1.173,1.173,0,0,1,367.2,86.91h4.069a4.388,4.388,0,0,1,4.383,4.382h0a4.388,4.388,0,0,1-4.383,4.383c-.878,0-4.063.014-4.064.014Zm1.173-6.434v4.083c1,0,2.367-.009,2.9-.009a2.039,2.039,0,0,0,2.037-2.037h0a2.039,2.039,0,0,0-2.037-2.036Z" transform="translate(-308.772 -73.316)" fill="#040405"/>
        <path id="Trazado_610711" data-name="Trazado 610711" d="M342.67,47.428H328.162a4.13,4.13,0,0,1-4.126-4.126V28.794a4.13,4.13,0,0,1,4.126-4.126H342.67a4.13,4.13,0,0,1,4.126,4.126V43.3a4.13,4.13,0,0,1-4.126,4.126M328.162,27.014a1.782,1.782,0,0,0-1.78,1.78V43.3a1.782,1.782,0,0,0,1.78,1.78H342.67a1.781,1.781,0,0,0,1.78-1.779V28.794a1.782,1.782,0,0,0-1.78-1.78Z" transform="translate(-273.353 -20.81)" fill="#040405"/>
        <path id="Trazado_610712" data-name="Trazado 610712" d="M249.673,4.849A1.173,1.173,0,0,1,248.5,3.676v-2.5a1.173,1.173,0,0,1,2.346,0v2.5a1.173,1.173,0,0,1-1.173,1.173" transform="translate(-209.631)" fill="#040405"/>
        <path id="Trazado_610713" data-name="Trazado 610713" d="M249.673,116.7a1.173,1.173,0,0,1-1.173-1.173V110.4a1.173,1.173,0,0,1,2.346,0v5.13a1.173,1.173,0,0,1-1.173,1.173m0-11.061a1.173,1.173,0,0,1-1.173-1.173v-5.13a1.173,1.173,0,1,1,2.346,0v5.13a1.173,1.173,0,0,1-1.173,1.173m0-11.061a1.173,1.173,0,0,1-1.173-1.173v-5.13a1.173,1.173,0,1,1,2.346,0v5.13a1.173,1.173,0,0,1-1.173,1.173m0-11.061a1.173,1.173,0,0,1-1.173-1.173v-5.13a1.173,1.173,0,1,1,2.346,0v5.13a1.173,1.173,0,0,1-1.173,1.173m0-11.061a1.173,1.173,0,0,1-1.173-1.173v-5.13a1.173,1.173,0,1,1,2.346,0v5.13a1.173,1.173,0,0,1-1.173,1.173m0-11.061a1.173,1.173,0,0,1-1.173-1.173v-5.13a1.173,1.173,0,1,1,2.346,0v5.13a1.173,1.173,0,0,1-1.173,1.173" transform="translate(-209.631 -45.486)" fill="#040405"/>
        <path id="Trazado_610714" data-name="Trazado 610714" d="M249.673,483.069A1.173,1.173,0,0,1,248.5,481.9v-2.5a1.173,1.173,0,1,1,2.346,0v2.5a1.173,1.173,0,0,1-1.173,1.173" transform="translate(-209.631 -403.42)" fill="#040405"/>
      </g>
    </g>
  </g>
</svg>
