<svg xmlns="http://www.w3.org/2000/svg" width="129" height="128" viewBox="0 0 129 128">
  <g id="Grupo_1075144" data-name="Grupo 1075144" transform="translate(-361 -22561.555)">
    <g id="Grupo_108927" data-name="Grupo 108927" transform="translate(-29 18094.555)">
      <path id="Rect치ngulo_36179" data-name="Rect치ngulo 36179" d="M0,0H129V128H0Z" transform="translate(390 4467)" fill="#0c5e46"/>
      <path id="Rect치ngulo_36181" data-name="Rect치ngulo 36181" d="M6.132,0H81.754a21.8,21.8,0,0,1,21.8,21.8v74.26a6.132,6.132,0,0,1-6.132,6.132H6.132A6.132,6.132,0,0,1,0,96.061V6.132A6.132,6.132,0,0,1,6.132,0Z" transform="translate(402.944 4479.944)" fill="#fff"/>
    </g>
    <g id="benchmarking" transform="translate(386 22585.555)">
      <g id="Grupo_1073458" data-name="Grupo 1073458" transform="translate(1.285 1.285)">
        <g id="Grupo_1073441" data-name="Grupo 1073441" transform="translate(12.849)">
          <circle id="Elipse_5948" data-name="Elipse 5948" cx="26" cy="26" r="26" transform="translate(-0.134 -0.285)" fill="#ccd1d9"/>
        </g>
        <g id="Grupo_1073442" data-name="Grupo 1073442" transform="translate(17.988 5.14)">
          <ellipse id="Elipse_5949" data-name="Elipse 5949" cx="20.5" cy="21" rx="20.5" ry="21" transform="translate(-0.273 -0.424)" fill="#69d6f4"/>
        </g>
        <g id="Grupo_1073443" data-name="Grupo 1073443" transform="translate(0 56.535)">
          <path id="Trazado_610783" data-name="Trazado 610783" d="M13.849,52.709l-.527.527a2.578,2.578,0,0,0-.758,1.825v5.358H1V45H12.564v5.358a2.578,2.578,0,0,0,.758,1.825Z" transform="translate(-1 -45)" fill="#fcd770"/>
        </g>
        <g id="Grupo_1073444" data-name="Grupo 1073444" transform="translate(11.564 53.965)">
          <path id="Trazado_610784" data-name="Trazado 610784" d="M17.709,59.7v2.57a1.289,1.289,0,0,1-1.285,1.285h-5.14A1.289,1.289,0,0,1,10,62.273V55.63a2.578,2.578,0,0,1,.758-1.825l.527-.527-.527-.527A2.578,2.578,0,0,1,10,50.928V44.285A1.289,1.289,0,0,1,11.285,43h5.14a1.289,1.289,0,0,1,1.285,1.285V59.7Z" transform="translate(-10 -43)" fill="#ffc729"/>
        </g>
        <g id="Grupo_1073445" data-name="Grupo 1073445" transform="translate(34.692 56.304)">
          <path id="Trazado_610785" data-name="Trazado 610785" d="M35.709,45.051v5.14a2.588,2.588,0,0,0-2.57,2.57,2.577,2.577,0,0,0,2.57,2.57,2.588,2.588,0,0,0-2.57,2.57,2.577,2.577,0,0,0,2.57,2.57v2.57a2.577,2.577,0,0,1-2.57,2.57H30.57A2.577,2.577,0,0,1,28,63.04V47.852a6.848,6.848,0,0,0,2.57-2.8h3.855a3.562,3.562,0,0,0,1.285-.231v.231Z" transform="translate(-28 -44.82)" fill="#969faa"/>
        </g>
        <g id="Grupo_1073446" data-name="Grupo 1073446" transform="translate(39.832 66.814)">
          <path id="Trazado_610786" data-name="Trazado 610786" d="M37.14,53a2.577,2.577,0,0,1,2.57,2.57,2.588,2.588,0,0,1-2.57,2.57H34.57A2.577,2.577,0,0,1,32,55.57,2.588,2.588,0,0,1,34.57,53Z" transform="translate(-32 -53)" fill="#f0d0b4"/>
        </g>
        <g id="Grupo_1073447" data-name="Grupo 1073447" transform="translate(39.832 61.675)">
          <path id="Trazado_610787" data-name="Trazado 610787" d="M37.14,49a2.577,2.577,0,0,1,2.57,2.57,2.588,2.588,0,0,1-2.57,2.57H34.57A2.577,2.577,0,0,1,32,51.57,2.588,2.588,0,0,1,34.57,49Z" transform="translate(-32 -49)" fill="#f0d0b4"/>
        </g>
        <g id="Grupo_1073448" data-name="Grupo 1073448" transform="translate(42.401 56.535)">
          <path id="Trazado_610788" data-name="Trazado 610788" d="M43.521,45.758a2.512,2.512,0,0,1,.758,1.812,2.577,2.577,0,0,1-2.57,2.57H34V45h7.709A2.512,2.512,0,0,1,43.521,45.758Z" transform="translate(-34 -45)" fill="#f0d0b4"/>
        </g>
        <g id="Grupo_1073449" data-name="Grupo 1073449" transform="translate(19.273 51.396)">
          <path id="Trazado_610789" data-name="Trazado 610789" d="M31.419,64.128H25.3A13.17,13.17,0,0,1,16,60.273V47.424A13.23,13.23,0,0,1,27.346,41H40.413A1.289,1.289,0,0,1,41.7,42.285a3.845,3.845,0,0,1-1.131,2.724,3.646,3.646,0,0,1-1.439.9,3.562,3.562,0,0,1-1.285.231H33.988a6.848,6.848,0,0,1-2.57,2.8V64.128Z" transform="translate(-16 -41)" fill="#f0d0b4"/>
        </g>
        <g id="Grupo_1073450" data-name="Grupo 1073450" transform="translate(43.686 17.988)">
          <path id="Trazado_610790" data-name="Trazado 610790" d="M35,35.558V17.57A2.577,2.577,0,0,1,37.57,15H65.837a2.577,2.577,0,0,1,2.57,2.57V35.558a2.577,2.577,0,0,1-2.57,2.57H54.273L53.3,42.021a1.642,1.642,0,0,1-3.187,0l-.668-2.673-.308-1.221H37.57A2.577,2.577,0,0,1,35,35.558Z" transform="translate(-35 -15)" fill="#e6e9ed"/>
        </g>
        <g id="Grupo_1073451" data-name="Grupo 1073451" transform="translate(0 17.988)">
          <path id="Trazado_610791" data-name="Trazado 610791" d="M20.492,15H31.837a2.577,2.577,0,0,1,2.57,2.57V35.558a2.577,2.577,0,0,1-2.57,2.57H20.273l-.308,1.221L19.3,42.021a1.642,1.642,0,0,1-3.187,0l-.977-3.893H3.57A2.577,2.577,0,0,1,1,35.558V17.57A2.577,2.577,0,0,1,3.57,15H20.479Z" transform="translate(-1 -15)" fill="#e6e9ed"/>
        </g>
        <g id="Grupo_1073452" data-name="Grupo 1073452" transform="translate(68.099 28.268)">
          <path id="Trazado_610792" data-name="Trazado 610792" d="M59.14,24.285v5.14a1.289,1.289,0,0,1-1.285,1.285H54V24.285A1.289,1.289,0,0,1,55.285,23h2.57A1.289,1.289,0,0,1,59.14,24.285Z" transform="translate(-54 -23)" fill="#ff826e"/>
        </g>
        <g id="Grupo_1073453" data-name="Grupo 1073453" transform="translate(57.82 23.128)">
          <path id="Trazado_610793" data-name="Trazado 610793" d="M51.14,20.285V31.849H46V20.285A1.289,1.289,0,0,1,47.285,19h2.57A1.289,1.289,0,0,1,51.14,20.285Z" transform="translate(-46 -19)" fill="#ff826e"/>
        </g>
        <g id="Grupo_1073454" data-name="Grupo 1073454" transform="translate(47.541 28.268)">
          <path id="Trazado_610794" data-name="Trazado 610794" d="M43.14,24.285v6.424H39.285A1.289,1.289,0,0,1,38,29.424v-5.14A1.289,1.289,0,0,1,39.285,23h2.57A1.289,1.289,0,0,1,43.14,24.285Z" transform="translate(-38 -23)" fill="#ff826e"/>
        </g>
        <g id="Grupo_1073455" data-name="Grupo 1073455" transform="translate(24.413 28.268)">
          <path id="Trazado_610795" data-name="Trazado 610795" d="M25.14,24.285v5.14a1.289,1.289,0,0,1-1.285,1.285H20V24.285A1.289,1.289,0,0,1,21.285,23h2.57A1.289,1.289,0,0,1,25.14,24.285Z" transform="translate(-20 -23)" fill="#ff826e"/>
        </g>
        <g id="Grupo_1073456" data-name="Grupo 1073456" transform="translate(14.134 23.128)">
          <path id="Trazado_610796" data-name="Trazado 610796" d="M17.14,20.285V31.849H12V20.285A1.289,1.289,0,0,1,13.285,19h2.57A1.289,1.289,0,0,1,17.14,20.285Z" transform="translate(-12 -19)" fill="#ff826e"/>
        </g>
        <g id="Grupo_1073457" data-name="Grupo 1073457" transform="translate(3.855 28.268)">
          <path id="Trazado_610797" data-name="Trazado 610797" d="M9.14,24.285v6.424H5.285A1.289,1.289,0,0,1,4,29.424v-5.14A1.289,1.289,0,0,1,5.285,23h2.57A1.289,1.289,0,0,1,9.14,24.285Z" transform="translate(-4 -23)" fill="#ff826e"/>
        </g>
      </g>
      <g id="Grupo_1073459" data-name="Grupo 1073459" transform="translate(0)">
        <path id="Trazado_610798" data-name="Trazado 610798" d="M31.268,30.849v-5.14a2.572,2.572,0,0,0-2.57-2.57h-2.57a2.572,2.572,0,0,0-2.57,2.57v5.14h-2.57V20.57A2.572,2.572,0,0,0,18.419,18h-2.57a2.572,2.572,0,0,0-2.57,2.57V30.849h-2.57v-5.14a2.572,2.572,0,0,0-2.57-2.57H5.57A2.572,2.572,0,0,0,3,25.709v5.14a2.572,2.572,0,0,0,2.57,2.57H28.7A2.572,2.572,0,0,0,31.268,30.849Zm-23.128,0H5.57v-5.14H8.14ZM15.849,20.57h2.57V30.849h-2.57Zm10.279,5.14H28.7v5.14h-2.57Z" transform="translate(0.855 5.128)"/>
        <path id="Trazado_610799" data-name="Trazado 610799" d="M75.808,17.988H65.256a26.961,26.961,0,0,0-50.848,0H3.855A3.859,3.859,0,0,0,0,21.843V39.832a3.859,3.859,0,0,0,3.855,3.855H14.416l.73,2.921a2.93,2.93,0,0,0,5.684,0l.1-.384a26.977,26.977,0,0,0,8.127,5.49,14.624,14.624,0,0,0-7.382,3.924,2.567,2.567,0,0,0-2.4-1.672h-5.14a2.572,2.572,0,0,0-2.57,2.57H0V74.524H11.564a2.572,2.572,0,0,0,2.57,2.57h5.14a2.568,2.568,0,0,0,2.557-2.437,14.328,14.328,0,0,0,8.033,2.437h5.065a3.849,3.849,0,0,0,3.618,2.57h2.57a3.859,3.859,0,0,0,3.855-3.855V74.524h1.285A3.838,3.838,0,0,0,49.108,68.1a3.736,3.736,0,0,0,.766-3.855H51.4a3.855,3.855,0,1,0,0-7.709H46.826a5.087,5.087,0,0,0,.714-2.57,2.543,2.543,0,0,0-.235-1.059,26.931,26.931,0,0,0,11.43-6.684l.1.384a2.93,2.93,0,0,0,5.684,0l.73-2.921H75.808a3.859,3.859,0,0,0,3.855-3.855V21.843a3.859,3.859,0,0,0-3.855-3.855ZM2.57,71.954V59.1h8.994v4.074a3.826,3.826,0,0,0,.8,2.35,3.826,3.826,0,0,0-.8,2.35v4.074Zm16.7,2.57h-5.14V67.879a1.279,1.279,0,0,1,.376-.91l1.44-1.44-1.44-1.44a1.279,1.279,0,0,1-.376-.91V56.535h5.14ZM39.832,2.57a24.3,24.3,0,0,1,22.7,15.419h-2.8a21.826,21.826,0,0,0-39.789,0h-2.8A24.287,24.287,0,0,1,39.832,2.57Zm7.709,41.116h1.881a19.183,19.183,0,0,1-19.182,0h1.882a3.859,3.859,0,0,0,3.855-3.855V21.843a3.859,3.859,0,0,0-3.855-3.855H22.791a19.264,19.264,0,0,1,34.08,0H47.541a3.859,3.859,0,0,0-3.855,3.855V39.832A3.859,3.859,0,0,0,47.541,43.686Zm-29.9,2.3-1.218-4.867H3.855A1.286,1.286,0,0,1,2.57,39.832V21.843a1.286,1.286,0,0,1,1.285-1.285H32.122a1.286,1.286,0,0,1,1.285,1.285V39.832a1.286,1.286,0,0,1-1.285,1.285H19.556l-1.217,4.867A.375.375,0,0,1,17.639,45.984Zm23.477,31.11h-2.57a1.286,1.286,0,0,1-1.285-1.285V61.293A8.125,8.125,0,0,0,39.3,59.1h3.1v2.806A3.819,3.819,0,0,0,40.834,68.1,3.819,3.819,0,0,0,42.4,74.287v1.521A1.286,1.286,0,0,1,41.116,77.093Zm5.14-5.14h-2.57a1.285,1.285,0,0,1,0-2.57h2.57a1.285,1.285,0,0,1,0,2.57Zm1.285-6.424a1.286,1.286,0,0,1-1.285,1.285h-2.57a1.285,1.285,0,0,1,0-2.57h2.57A1.286,1.286,0,0,1,47.541,65.529Zm5.14-5.14A1.286,1.286,0,0,1,51.4,61.675H44.971V59.1H51.4A1.286,1.286,0,0,1,52.68,60.39Zm-7.709-6.424a2.572,2.572,0,0,1-2.57,2.57H37.753l-.355.711A5.617,5.617,0,0,1,34.13,60.08L33,60.457l.813,2.437.878-.293V68.4a13.155,13.155,0,0,0-4.734-2.8l-.813,2.437a10.609,10.609,0,0,1,5.445,4.16l.1.15v2.179H29.863a11.782,11.782,0,0,1-8.02-3.136V59.5a12,12,0,0,1,10.062-5.537Zm-5.14-2.57a24.379,24.379,0,0,1-17.8-7.709h3.751a21.773,21.773,0,0,0,28.1,0h3.751A24.386,24.386,0,0,1,39.832,51.4ZM77.093,39.832a1.286,1.286,0,0,1-1.285,1.285H63.242l-1.217,4.867a.375.375,0,0,1-.7,0l-1.218-4.867H47.541a1.286,1.286,0,0,1-1.285-1.285V21.843a1.286,1.286,0,0,1,1.285-1.285H75.808a1.286,1.286,0,0,1,1.285,1.285Z" transform="translate(0)"/>
        <path id="Trazado_610800" data-name="Trazado 610800" d="M62.7,23.14h-2.57a2.572,2.572,0,0,0-2.57,2.57v5.14h-2.57V20.57A2.572,2.572,0,0,0,52.419,18h-2.57a2.572,2.572,0,0,0-2.57,2.57V30.849h-2.57v-5.14a2.572,2.572,0,0,0-2.57-2.57H39.57A2.572,2.572,0,0,0,37,25.709v5.14a2.572,2.572,0,0,0,2.57,2.57H62.7a2.572,2.572,0,0,0,2.57-2.57v-5.14A2.572,2.572,0,0,0,62.7,23.14ZM42.14,30.849H39.57v-5.14h2.57ZM49.849,20.57h2.57V30.849h-2.57ZM62.7,30.849h-2.57v-5.14H62.7Z" transform="translate(10.541 5.128)"/>
        <path id="Trazado_610801" data-name="Trazado 610801" d="M47,42h2.57v2.57H47Z" transform="translate(13.39 11.965)"/>
        <path id="Trazado_610802" data-name="Trazado 610802" d="M51,42h7.709v2.57H51Z" transform="translate(14.529 11.965)"/>
        <path id="Trazado_610803" data-name="Trazado 610803" d="M47,46H59.849v2.57H47Z" transform="translate(13.39 13.105)"/>
        <path id="Trazado_610804" data-name="Trazado 610804" d="M47,50H59.849v2.57H47Z" transform="translate(13.39 14.244)"/>
        <path id="Trazado_610805" data-name="Trazado 610805" d="M47,54h2.57v2.57H47Z" transform="translate(13.39 15.384)"/>
        <path id="Trazado_610806" data-name="Trazado 610806" d="M51,54h2.57v2.57H51Z" transform="translate(14.529 15.384)"/>
        <path id="Trazado_610807" data-name="Trazado 610807" d="M55,54h2.57v2.57H55Z" transform="translate(15.669 15.384)"/>
      </g>
    </g>
  </g>
</svg>
