<svg xmlns="http://www.w3.org/2000/svg" width="129" height="128" viewBox="0 0 129 128">
  <g id="Grupo_1075142" data-name="Grupo 1075142" transform="translate(-361 -22255.555)">
    <g id="Grupo_108927" data-name="Grupo 108927" transform="translate(-29 17788.555)">
      <path id="Rect치ngulo_36179" data-name="Rect치ngulo 36179" d="M0,0H129V128H0Z" transform="translate(390 4467)" fill="#0c5e46"/>
      <path id="Rect치ngulo_36181" data-name="Rect치ngulo 36181" d="M6.132,0H81.754a21.8,21.8,0,0,1,21.8,21.8v74.26a6.132,6.132,0,0,1-6.132,6.132H6.132A6.132,6.132,0,0,1,0,96.061V6.132A6.132,6.132,0,0,1,6.132,0Z" transform="translate(402.944 4479.944)" fill="#fff"/>
    </g>
    <g id="interpretacion" transform="translate(386 22279.672)">
      <path id="Trazado_610741" data-name="Trazado 610741" d="M14,10H74.3V47.685H14Z" transform="translate(3.33 2.306)" fill="#e6e9ed"/>
      <path id="Trazado_610742" data-name="Trazado 610742" d="M20.537,41V63.611a3.769,3.769,0,0,1-7.537,0V41Z" transform="translate(3.074 10.247)" fill="#838f9b"/>
      <path id="Trazado_610743" data-name="Trazado 610743" d="M14.537,41V63.611a3.769,3.769,0,0,1-7.537,0V41Z" transform="translate(1.537 10.247)" fill="#838f9b"/>
      <path id="Trazado_610744" data-name="Trazado 610744" d="M44.71,19.429a2.924,2.924,0,0,1-1.344,2.462L26.8,32.619a7.516,7.516,0,0,0-3.442,6.319V47.4H8.281v3.769H5.769A3.763,3.763,0,0,1,2,47.4V38.611A12.549,12.549,0,0,1,14.248,26.062l-.942,11.293,2.512,2.512,2.512-2.512-.942-11.306h5.088a7.6,7.6,0,0,0,3.957-1.118L40.238,16.44A2.863,2.863,0,0,1,41.77,16a2.943,2.943,0,0,1,2.939,2.939Z" transform="translate(0.256 3.843)" fill="#b4dd7f"/>
      <path id="Trazado_610745" data-name="Trazado 610745" d="M15.083,24l.942,11.306-2.512,2.512L11,35.306l.942-11.293V24h3.14Z" transform="translate(2.562 5.892)" fill="#e6e9ed"/>
      <path id="Trazado_610746" data-name="Trazado 610746" d="M22.074,19.537A7.537,7.537,0,1,1,14.537,12a6.872,6.872,0,0,1,1.256.113A7.524,7.524,0,0,1,22.074,19.537Z" transform="translate(1.537 2.818)" fill="#f0d0b4"/>
      <path id="Trazado_610747" data-name="Trazado 610747" d="M14,2H74.3V12.049H14Z" transform="translate(3.33 0.256)" fill="#ff826e"/>
      <path id="Trazado_610748" data-name="Trazado 610748" d="M61.173,41.025v20.1a2.52,2.52,0,0,1-2.512,2.512H28.512A2.52,2.52,0,0,1,26,61.123V38.512A2.52,2.52,0,0,1,28.512,36H58.661a2.52,2.52,0,0,1,2.512,2.512Z" transform="translate(6.404 8.966)" fill="#ffeaa7"/>
      <g id="Grupo_1073439" data-name="Grupo 1073439" transform="translate(37.429 49.991)">
        <path id="Trazado_610749" data-name="Trazado 610749" d="M30,44h5.025V56.562H30Z" transform="translate(-30 -38.975)" fill="#ff826e"/>
        <path id="Trazado_610750" data-name="Trazado 610750" d="M38,46h5.025V56.049H38Z" transform="translate(-27.951 -38.463)" fill="#ff826e"/>
        <path id="Trazado_610751" data-name="Trazado 610751" d="M46,40h5.025V57.586H46Z" transform="translate(-25.901 -40)" fill="#ff826e"/>
      </g>
      <path id="Trazado_610752" data-name="Trazado 610752" d="M56.512,14a2.512,2.512,0,0,1,0,5.025,2.328,2.328,0,0,1-.842-.151A2.509,2.509,0,0,1,56.512,14Z" transform="translate(13.577 3.33)" fill="#fcd770"/>
      <path id="Trazado_610753" data-name="Trazado 610753" d="M52.354,28.151A2.51,2.51,0,1,1,49,30.512a2.391,2.391,0,0,1,.364-1.294A2.517,2.517,0,0,1,51.512,28,2.328,2.328,0,0,1,52.354,28.151Z" transform="translate(12.296 6.917)" fill="#fcd770"/>
      <path id="Trazado_610754" data-name="Trazado 610754" d="M41.512,22a2.52,2.52,0,0,1,2.512,2.512,2.391,2.391,0,0,1-.364,1.294A2.509,2.509,0,0,1,39,24.512a2.491,2.491,0,0,1,.9-1.922A2.437,2.437,0,0,1,41.512,22Z" transform="translate(9.735 5.38)" fill="#fcd770"/>
      <path id="Trazado_610755" data-name="Trazado 610755" d="M78.883,1H16.074V13.562a8.784,8.784,0,0,0-5.407,15.713A13.84,13.84,0,0,0,1,42.454v8.793a5.03,5.03,0,0,0,5.025,5.025H7.281V73.858a5,5,0,0,0,8.793,3.289,5,5,0,0,0,8.793-3.289V51.247h6.281V70.09a3.773,3.773,0,0,0,3.769,3.769H65.065a3.773,3.773,0,0,0,3.769-3.769V51.247H78.883ZM76.37,3.512v7.537H18.586V3.512ZM9.793,22.355a6.281,6.281,0,1,1,6.281,6.281A6.288,6.288,0,0,1,9.793,22.355Zm7.493,18.367-1.212,1.212-1.212-1.212.8-9.573h.829ZM6.025,53.759a2.515,2.515,0,0,1-2.512-2.512V42.454a11.313,11.313,0,0,1,9.615-11.165l-.866,10.385,3.812,3.812,3.812-3.812L19.01,31.148h3.725a8.779,8.779,0,0,0,4.608-1.305l13.805-8.5A1.682,1.682,0,0,1,43.71,22.78v.49a1.678,1.678,0,0,1-.768,1.412L26.372,35.4a8.757,8.757,0,0,0-4.017,7.381v7.205H9.793V39.941H7.281V53.759ZM12.306,76.37a2.515,2.515,0,0,1-2.512-2.512V52.5h5.025V73.858A2.515,2.515,0,0,1,12.306,76.37Zm7.537,0a2.515,2.515,0,0,1-2.512-2.512V52.5h5.025V73.858A2.515,2.515,0,0,1,19.843,76.37ZM66.321,70.09a1.258,1.258,0,0,1-1.256,1.256H34.917a1.258,1.258,0,0,1-1.256-1.256V47.478a1.258,1.258,0,0,1,1.256-1.256H65.065a1.258,1.258,0,0,1,1.256,1.256Zm2.512-21.355V47.478a3.773,3.773,0,0,0-3.769-3.769H34.917a3.773,3.773,0,0,0-3.769,3.769v1.256H24.867V42.785a6.26,6.26,0,0,1,2.869-5.273l16.57-10.721a4.172,4.172,0,0,0,1.423-1.556l2.287,2.745a3.734,3.734,0,0,0-.539,1.913,3.773,3.773,0,0,0,3.769,3.769,3.735,3.735,0,0,0,2.383-.873l6.486,3.892a3.771,3.771,0,1,0,6.065-2.154l3.9-10.915h.011a3.816,3.816,0,1,0-2.372-.864l-3.9,10.915h-.011a3.735,3.735,0,0,0-2.383.873L54.94,30.642a3.743,3.743,0,0,0-4.995-4.274l-3.878-4.653a4.177,4.177,0,0,0-6.236-2.507L26.027,27.7a6.272,6.272,0,0,1-3.292.932h-.518a8.78,8.78,0,0,0-3.63-14.7v-.371H76.37V48.735Zm-17.586-20.1a1.256,1.256,0,1,1-1.256,1.256A1.258,1.258,0,0,1,51.247,28.636Zm12.562,7.537a1.256,1.256,0,1,1-1.256,1.256A1.258,1.258,0,0,1,63.809,36.173Zm5.025-16.33A1.256,1.256,0,1,1,70.09,21.1,1.258,1.258,0,0,1,68.833,19.843Z"/>
      <path id="Trazado_610756" data-name="Trazado 610756" d="M17,5h2.512V7.512H17Z" transform="translate(4.099 1.025)"/>
      <path id="Trazado_610757" data-name="Trazado 610757" d="M21,5h2.512V7.512H21Z" transform="translate(5.123 1.025)"/>
      <path id="Trazado_610758" data-name="Trazado 610758" d="M25,5h2.512V7.512H25Z" transform="translate(6.148 1.025)"/>
      <path id="Trazado_610759" data-name="Trazado 610759" d="M49.1,56.586H46.586V46.537H39.049V56.586H36.537V44.025H29V59.1H56.636V39H49.1Zm-15.074,0H31.512V46.537h2.512Zm7.537-7.537h2.512v7.537H41.562Zm10.049-7.537h2.512V56.586H51.611Z" transform="translate(7.173 9.735)"/>
      <path id="Trazado_610760" data-name="Trazado 610760" d="M57,35h2.512v2.512H57Z" transform="translate(14.346 8.71)"/>
      <path id="Trazado_610761" data-name="Trazado 610761" d="M57,31h2.512v2.512H57Z" transform="translate(14.346 7.685)"/>
      <path id="Trazado_610762" data-name="Trazado 610762" d="M57,27h2.512v2.512H57Z" transform="translate(14.346 6.661)"/>
    </g>
  </g>
</svg>
