<svg xmlns="http://www.w3.org/2000/svg" width="125" height="125" viewBox="0 0 125 125">
  <g id="Grupo_1075137" data-name="Grupo 1075137" transform="translate(-391.496 -21575.555)">
    <g id="Grupo_1073352" data-name="Grupo 1073352" transform="translate(5.496 19429.555)">
      <path id="Trazado_608385" data-name="Trazado 608385" d="M62.5,0A62.5,62.5,0,1,1,0,62.5,62.5,62.5,0,0,1,62.5,0Z" transform="translate(386 2146)" fill="#fff"/>
    </g>
    <g id="personal" transform="translate(414.836 21598.555)">
      <g id="Grupo_1073419" data-name="Grupo 1073419" transform="translate(2.215 2.215)">
        <g id="Grupo_1073399" data-name="Grupo 1073399" transform="translate(36.449)">
          <path id="Trazado_610625" data-name="Trazado 610625" d="M41.72,2l4.86,14.579H32V2Z" transform="translate(-32 -2)" fill="#ff826e"/>
        </g>
        <g id="Grupo_1073400" data-name="Grupo 1073400" transform="translate(7.29)">
          <path id="Trazado_610626" data-name="Trazado 610626" d="M27.439,2l-4.86,14.579H8L15.29,2Z" transform="translate(-8 -2)" fill="#ff826e"/>
        </g>
        <g id="Grupo_1073401" data-name="Grupo 1073401" transform="translate(46.168)">
          <path id="Trazado_610627" data-name="Trazado 610627" d="M52.15,2l7.29,14.579H44.86L40,2Z" transform="translate(-40 -2)" fill="#ffeaa7"/>
        </g>
        <g id="Grupo_1073402" data-name="Grupo 1073402" transform="translate(21.869)">
          <path id="Trazado_610628" data-name="Trazado 610628" d="M34.579,2V16.579H20L24.86,2Z" transform="translate(-20 -2)" fill="#ffeaa7"/>
        </g>
        <g id="Grupo_1073403" data-name="Grupo 1073403" transform="translate(51.028 14.579)">
          <path id="Trazado_610629" data-name="Trazado 610629" d="M58.324,14.51a7.863,7.863,0,0,1-14.069,0L44,14H58.579Z" transform="translate(-44 -14)" fill="#fcd770"/>
        </g>
        <g id="Grupo_1073404" data-name="Grupo 1073404" transform="translate(21.869 14.579)">
          <path id="Trazado_610630" data-name="Trazado 610630" d="M34.579,14l-.255.51a7.863,7.863,0,0,1-14.069,0L20,14Z" transform="translate(-20 -14)" fill="#fcd770"/>
        </g>
        <g id="Grupo_1073405" data-name="Grupo 1073405" transform="translate(36.449 14.579)">
          <path id="Trazado_610631" data-name="Trazado 610631" d="M46.579,14l-.255.51a7.869,7.869,0,0,1-14.069,0L32,14Z" transform="translate(-32 -14)" fill="#fc6e51"/>
        </g>
        <g id="Grupo_1073406" data-name="Grupo 1073406" transform="translate(7.29 14.579)">
          <path id="Trazado_610632" data-name="Trazado 610632" d="M8,14H22.579l-.255.51a7.863,7.863,0,0,1-14.069,0Z" transform="translate(-8 -14)" fill="#fc6e51"/>
        </g>
        <g id="Grupo_1073407" data-name="Grupo 1073407" transform="translate(13.364 14.579)">
          <path id="Trazado_610633" data-name="Trazado 610633" d="M54.308,28.579v1.543a2.152,2.152,0,0,1-.632,1.519L52.51,32.807a2.137,2.137,0,0,0,.838,3.548l2.175.729v2.43a2.429,2.429,0,0,0,2.43,2.43h1.215V46.8H13v-4.86h1.215a2.429,2.429,0,0,0,2.43-2.43v-2.43l2.175-.729a2.137,2.137,0,0,0,.838-3.548l-1.166-1.166a2.152,2.152,0,0,1-.632-1.519V28.579a2.437,2.437,0,0,0-2.43-2.43h1.215a3.645,3.645,0,1,0,0-7.29h-2.43a7.893,7.893,0,0,0,7.035-4.35L21.5,14l.255.51a7.869,7.869,0,0,0,14.069,0l.255-.51.255.51a7.863,7.863,0,0,0,14.069,0l.255-.51.255.51a7.881,7.881,0,0,0,7.035,4.35h-2.43a3.645,3.645,0,0,0,0,7.29h1.215a2.437,2.437,0,0,0-2.43,2.43Z" transform="translate(-13 -14)" fill="#e6e9ed"/>
        </g>
        <g id="Grupo_1073408" data-name="Grupo 1073408" transform="translate(52.243 19.439)">
          <path id="Trazado_610634" data-name="Trazado 610634" d="M65.654,29.87a11.857,11.857,0,0,1-5.285,9.878l-2,1.336v-4.86l1.373-1.373a3.518,3.518,0,0,0,1.057-2.527v-.049A3.472,3.472,0,0,0,58.8,29.141l-.437-.207A3.64,3.64,0,0,0,54.72,25.29H48.645a3.645,3.645,0,0,1,0-7.29h5.139a11.864,11.864,0,0,1,11.87,11.87Z" transform="translate(-45 -18)" fill="#656d78"/>
        </g>
        <g id="Grupo_1073409" data-name="Grupo 1073409" transform="translate(0 19.439)">
          <path id="Trazado_610635" data-name="Trazado 610635" d="M19.009,18a3.645,3.645,0,0,1,0,7.29H12.935A3.64,3.64,0,0,0,9.29,28.935l-.437.207A3.472,3.472,0,0,0,6.86,32.276v.049a3.518,3.518,0,0,0,1.057,2.527L9.29,36.224v4.86l-2-1.336A11.87,11.87,0,0,1,13.87,18h5.139Z" transform="translate(-2 -18)" fill="#b27946"/>
        </g>
        <g id="Grupo_1073410" data-name="Grupo 1073410" transform="translate(48.598 46.168)">
          <path id="Trazado_610636" data-name="Trazado 610636" d="M46.86,60.654V57.945A19.218,19.218,0,0,1,50.189,47.12a19.914,19.914,0,0,1,2.746-3.244L59.009,40A10.665,10.665,0,0,1,66.3,50.108,16.613,16.613,0,0,1,49.679,66.729H42V61.14Z" transform="translate(-42 -40)" fill="#4fc1e9"/>
        </g>
        <g id="Grupo_1073411" data-name="Grupo 1073411" transform="translate(0 46.168)">
          <path id="Trazado_610637" data-name="Trazado 610637" d="M11.562,55.564a8.444,8.444,0,0,1-6.694,3.864l-.012.012A16.6,16.6,0,0,1,2,50.108,10.665,10.665,0,0,1,9.29,40a19.372,19.372,0,0,1,6.075,3.876L18.11,47.12a19.218,19.218,0,0,1,3.329,10.825v2.709l-1.264-.121a12.085,12.085,0,0,1-8.614-4.969Z" transform="translate(-2 -40)" fill="#b4dd7f"/>
        </g>
        <g id="Grupo_1073412" data-name="Grupo 1073412" transform="translate(31.589 55.888)">
          <path id="Trazado_610638" data-name="Trazado 610638" d="M37.72,50.43v2.43H28V50.43A2.437,2.437,0,0,1,30.43,48h4.86A2.437,2.437,0,0,1,37.72,50.43Z" transform="translate(-28 -48)" fill="#fcd770"/>
        </g>
        <g id="Grupo_1073413" data-name="Grupo 1073413" transform="translate(29.147 60.748)">
          <path id="Trazado_610639" data-name="Trazado 610639" d="M40.582,59.654l.012.012a5.309,5.309,0,0,0-2.442,4.483h-9.72a5.309,5.309,0,0,0-2.442-4.483L26,59.654V54.43A2.437,2.437,0,0,1,28.432,52h9.72a2.437,2.437,0,0,1,2.43,2.43Z" transform="translate(-25.99 -52)" fill="#ffeaa7"/>
        </g>
        <g id="Grupo_1073414" data-name="Grupo 1073414" transform="translate(2.855 61.732)">
          <path id="Trazado_610640" data-name="Trazado 610640" d="M33.084,63.975H18.115A16.636,16.636,0,0,1,4.35,56.686l.012-.012a8.444,8.444,0,0,0,6.694-3.864,12.085,12.085,0,0,0,8.614,4.969l1.264.122,7.314.729a5.212,5.212,0,0,1,2.393.863,5.309,5.309,0,0,1,2.442,4.483Z" transform="translate(-4.35 -52.81)" fill="#f0d0b4"/>
        </g>
        <g id="Grupo_1073415" data-name="Grupo 1073415" transform="translate(41.308 67.308)">
          <path id="Trazado_610641" data-name="Trazado 610641" d="M43.29,57.4v5.589H36a5.309,5.309,0,0,1,2.442-4.483,5.212,5.212,0,0,1,2.393-.863Z" transform="translate(-36 -57.4)" fill="#f0d0b4"/>
        </g>
        <g id="Grupo_1073416" data-name="Grupo 1073416" transform="translate(52.243 26.729)">
          <path id="Trazado_610642" data-name="Trazado 610642" d="M52.29,44.654v-4.86H51.075a2.429,2.429,0,0,1-2.43-2.43v-2.43l-2.175-.729a2.137,2.137,0,0,1-.838-3.548L46.8,29.492a2.152,2.152,0,0,0,.632-1.519V26.43A2.437,2.437,0,0,1,49.86,24h4.86a3.64,3.64,0,0,1,3.645,3.645l.437.207a3.472,3.472,0,0,1,1.993,3.135v.049a3.518,3.518,0,0,1-1.057,2.527l-1.373,1.373v8.5L52.29,47.315Z" transform="translate(-45 -24)" fill="#f0d0b4"/>
        </g>
        <g id="Grupo_1073417" data-name="Grupo 1073417" transform="translate(4.86 26.729)">
          <path id="Trazado_610643" data-name="Trazado 610643" d="M14.5,39.794v7.521A19.372,19.372,0,0,0,8.43,43.439v-8.5L7.057,33.562A3.518,3.518,0,0,1,6,31.035v-.049a3.472,3.472,0,0,1,1.993-3.135l.437-.207A3.64,3.64,0,0,1,12.075,24h4.86a2.437,2.437,0,0,1,2.43,2.43v1.543A2.152,2.152,0,0,0,20,29.492l1.166,1.166a2.137,2.137,0,0,1-.838,3.548l-2.175.729v2.43a2.429,2.429,0,0,1-2.43,2.43Z" transform="translate(-6 -24)" fill="#f0d0b4"/>
        </g>
        <g id="Grupo_1073418" data-name="Grupo 1073418" transform="translate(26.234 23.17)">
          <ellipse id="Elipse_5943" data-name="Elipse 5943" cx="10.214" cy="9.704" rx="10.214" ry="9.704" transform="translate(0 0)" fill="#69d6f4"/>
        </g>
      </g>
      <g id="Grupo_1073420" data-name="Grupo 1073420" transform="translate(1 1)">
        <path id="Trazado_610644" data-name="Trazado 610644" d="M69.037,47.545V45.39l1.462-.976a13.076,13.076,0,0,0-4.2-23.6,9.109,9.109,0,0,0,2.358-2.963l.529-1.056L61.284,1H16.044l-7.9,15.794.529,1.056a9.1,9.1,0,0,0,2.358,2.963,13.076,13.076,0,0,0-4.2,23.6l1.462.976v2.155A11.856,11.856,0,0,0,1,58.5,17.851,17.851,0,0,0,18.831,76.327H58.5A17.851,17.851,0,0,0,76.327,58.5,11.856,11.856,0,0,0,69.037,47.545Zm-20.8,21.014a6.725,6.725,0,0,0-1.07.209V65.393a3.64,3.64,0,0,0-2.43-3.421V60.533a3.649,3.649,0,0,0-3.645-3.645h-4.86a3.649,3.649,0,0,0-3.645,3.645v1.439a3.64,3.64,0,0,0-2.43,3.421v3.376a6.593,6.593,0,0,0-1.07-.209l-6.219-.622V66.329A20.441,20.441,0,0,0,16.794,51.74v-.927H60.533v.926a20.443,20.443,0,0,0-6.075,14.589v1.609Zm-5.93-6.811h-7.29V60.533a1.215,1.215,0,0,1,1.215-1.215h4.86a1.215,1.215,0,0,1,1.215,1.215ZM10.364,39.02s-.723-.723-1.383-1.374a2.357,2.357,0,0,1-.691-1.714A2.259,2.259,0,0,1,9.579,33.9l1.141-.537v-.771a2.432,2.432,0,0,1,2.43-2.43h4.86a1.215,1.215,0,0,1,1.215,1.215v1.543a3.329,3.329,0,0,0,.984,2.374l1.175,1.175a.919.919,0,0,1,.271.655.929.929,0,0,1-.633.88l-3.012,1V42.31a1.215,1.215,0,0,1-1.215,1.215H13.15v2.43h1.215v3.73a20.686,20.686,0,0,0-3.645-2.09V39.374ZM21.929,21.264a9,9,0,0,0,2.155-2.085,9.046,9.046,0,0,0,14.579,0,9.046,9.046,0,0,0,14.579,0A9.021,9.021,0,0,0,55.4,21.264a4.847,4.847,0,0,0,.695,8.448,3.591,3.591,0,0,0-.42,1.662v1.543a.918.918,0,0,1-.272.656l-1.175,1.175A3.355,3.355,0,0,0,55.538,40.3l1.35.452V42.31a3.649,3.649,0,0,0,3.645,3.645v2.429H16.794V45.955a3.649,3.649,0,0,0,3.645-3.645V40.756l1.35-.451A3.355,3.355,0,0,0,23.1,34.748l-1.175-1.175a.924.924,0,0,1-.271-.656V31.374a3.591,3.591,0,0,0-.42-1.662,4.847,4.847,0,0,0,.695-8.448Zm33.482-3.255H65.655a6.614,6.614,0,0,1-10.244,0Zm-15.532-2.43V3.43h7.63l4.049,12.15Zm11.2,2.43a6.614,6.614,0,0,1-10.244,0Zm-13.627-2.43H25.77L29.819,3.43h7.63Zm-.953,2.43a6.614,6.614,0,0,1-10.244,0Zm-19.7,2.43a6.6,6.6,0,0,1-5.122-2.43H21.917A6.6,6.6,0,0,1,16.794,20.439ZM62.963,45.953h1.215v-2.43H60.533a1.215,1.215,0,0,1-1.215-1.215V39l-3.012-1a.927.927,0,0,1-.361-1.536L57.12,35.29a3.33,3.33,0,0,0,.983-2.373V31.374a1.215,1.215,0,0,1,1.215-1.215h4.86a2.432,2.432,0,0,1,2.43,2.43v.771l1.14.536a2.278,2.278,0,0,1,1.29,2.08,2.33,2.33,0,0,1-.69,1.668c-.661.652-1.384,1.375-1.384,1.375l-.356.356v8.219a20.763,20.763,0,0,0-3.645,2.09Zm.278-23.084a10.656,10.656,0,0,1,5.911,19.523l-.114.077V40.383c.27-.269.652-.65,1.017-1.01a4.77,4.77,0,0,0,1.413-3.442,4.7,4.7,0,0,0-2.5-4.138,4.866,4.866,0,0,0-4.794-4.064H58.1a2.43,2.43,0,0,1,0-4.86Zm2.616-7.29H54.119L50.068,3.43h9.714ZM17.545,3.43h9.714l-4.051,12.15H11.47ZM8.176,42.392a10.656,10.656,0,0,1,5.911-19.523h5.138a2.43,2.43,0,1,1,0,4.86H13.15a4.867,4.867,0,0,0-4.794,4.064,4.769,4.769,0,0,0-1.081,7.581c.363.36.747.74,1.016,1.008v2.086Zm1.3,7.292A18.025,18.025,0,0,1,20.439,66.329v1.366a10.835,10.835,0,0,1-9.72-10.807H8.29a13.288,13.288,0,0,0,2,7.037,7.311,7.311,0,0,1-4.579,2.6A15.291,15.291,0,0,1,3.43,58.5a9.436,9.436,0,0,1,6.043-8.812ZM31.374,73.9H18.831A15.355,15.355,0,0,1,7.292,68.663a9.748,9.748,0,0,0,4.492-2.775,13.268,13.268,0,0,0,8.479,4.232l8.582.858a4.143,4.143,0,0,1,3.563,2.92Zm3.532,0a6.542,6.542,0,0,0-2.317-3.883V65.393A1.215,1.215,0,0,1,33.8,64.178h9.72a1.215,1.215,0,0,1,1.215,1.215v4.622A6.551,6.551,0,0,0,42.421,73.9Zm10.011,0a4.14,4.14,0,0,1,3.563-2.92l1.118-.112V73.9H44.917Zm13.58,0H52.028V70.623l5.036-.5A13.258,13.258,0,0,0,69.037,56.888h-2.43a10.835,10.835,0,0,1-9.72,10.807V66.329A18.022,18.022,0,0,1,67.854,49.686,9.433,9.433,0,0,1,73.9,58.5,15.419,15.419,0,0,1,58.5,73.9Z" transform="translate(-1 -1)"/>
        <path id="Trazado_610645" data-name="Trazado 610645" d="M33.935,41.869A10.935,10.935,0,1,0,23,30.935,10.946,10.946,0,0,0,33.935,41.869ZM35.865,27.29a13.625,13.625,0,0,1,.44,2.43h-4.74a13.625,13.625,0,0,1,.44-2.43Zm-2.924-2.43a13.613,13.613,0,0,1,.994-1.694,13.8,13.8,0,0,1,.994,1.694ZM36.3,32.15a13.625,13.625,0,0,1-.44,2.43h-3.86a13.624,13.624,0,0,1-.44-2.43Zm-1.377,4.86a13.728,13.728,0,0,1-.994,1.695,13.719,13.719,0,0,1-1-1.695Zm2.677,0h2.27a8.506,8.506,0,0,1-3.244,1.984A16.089,16.089,0,0,0,37.6,37.009Zm.768-2.43a15.882,15.882,0,0,0,.375-2.43h3.594a8.429,8.429,0,0,1-.735,2.43Zm.375-4.86a15.883,15.883,0,0,0-.375-2.43h3.234a8.429,8.429,0,0,1,.735,2.43ZM37.6,24.86a16.093,16.093,0,0,0-.973-1.984,8.524,8.524,0,0,1,3.244,1.984Zm-7.341,0h-2.27a8.506,8.506,0,0,1,3.244-1.984A16.09,16.09,0,0,0,30.264,24.86ZM29.5,27.29a15.882,15.882,0,0,0-.375,2.43H25.527a8.429,8.429,0,0,1,.735-2.43Zm-.375,4.86a15.882,15.882,0,0,0,.375,2.43H26.262a8.429,8.429,0,0,1-.735-2.43Zm1.143,4.86a16.093,16.093,0,0,0,.973,1.984,8.524,8.524,0,0,1-3.244-1.984Z" transform="translate(3.729 3.084)"/>
      </g>
    </g>
  </g>
</svg>
