<svg xmlns="http://www.w3.org/2000/svg" width="129" height="128" viewBox="0 0 129 128">
  <g id="Grupo_1075145" data-name="Grupo 1075145" transform="translate(-361 -22719.555)">
    <g id="Grupo_108927" data-name="Grupo 108927" transform="translate(-29 18252.555)">
      <path id="Rect치ngulo_36179" data-name="Rect치ngulo 36179" d="M0,0H129V128H0Z" transform="translate(390 4467)" fill="#0c5e46"/>
      <path id="Rect치ngulo_36181" data-name="Rect치ngulo 36181" d="M6.132,0H81.754a21.8,21.8,0,0,1,21.8,21.8v74.26a6.132,6.132,0,0,1-6.132,6.132H6.132A6.132,6.132,0,0,1,0,96.061V6.132A6.132,6.132,0,0,1,6.132,0Z" transform="translate(402.944 4479.944)" fill="#fff"/>
    </g>
    <g id="decision" transform="translate(383 22740.555)">
      <ellipse id="Elipse_5950" data-name="Elipse 5950" cx="19.5" cy="19" rx="19.5" ry="19" transform="translate(23 2)" fill="#dae6f2"/>
      <path id="Trazado_610808" data-name="Trazado 610808" d="M65.73,47.88h0a3.9,3.9,0,0,0-4.993-2.961l-20.507,6.9-3.25-3.25a2.692,2.692,0,0,0-1.9-.788H16V63.049L23.2,61.8a2.663,2.663,0,0,1,1.669.269l10.338,5.559a9.017,9.017,0,0,0,7.013-.875L64.171,51.822A3.9,3.9,0,0,0,65.73,47.88Z" transform="translate(5.192 15.139)" fill="#e6ccab"/>
      <path id="Trazado_610809" data-name="Trazado 610809" d="M11,45h6.731V65.194H11Z" transform="translate(3.461 15.229)" fill="#72a6e4"/>
      <path id="Trazado_610810" data-name="Trazado 610810" d="M66.5,18.077,58.423,10v4.038H49v8.077h9.423v4.038Z" transform="translate(16.613 3.115)" fill="#7bcc8f"/>
      <path id="Trazado_610811" data-name="Trazado 610811" d="M2,18.077l8.077,8.077V22.115H19.5V14.038H10.077V10Z" transform="translate(0.346 3.115)" fill="#d97777"/>
      <path id="Trazado_610812" data-name="Trazado 610812" d="M44.961,20.883a9.051,9.051,0,0,0,0-3.536l2.268-1.267a12,12,0,0,0-3.332-5.6l-1.315.734a1.669,1.669,0,0,1-1.734-.041,10.094,10.094,0,0,0-1.49-.83,1.564,1.564,0,0,1-.9-1.433V7.445a12.673,12.673,0,0,0-6.68.006v1.46a1.564,1.564,0,0,1-.9,1.433,10.085,10.085,0,0,0-1.49.83,1.67,1.67,0,0,1-1.734.041l-1.309-.731A12,12,0,0,0,23,16.08l2.269,1.267a9.051,9.051,0,0,0,0,3.536L23,22.149a12,12,0,0,0,3.332,5.6l1.315-.734a1.67,1.67,0,0,1,1.734.041,10.081,10.081,0,0,0,1.489.83,1.565,1.565,0,0,1,.9,1.433v1.466a12.671,12.671,0,0,0,6.68-.006v-1.46a1.565,1.565,0,0,1,.9-1.433,10.08,10.08,0,0,0,1.49-.83,1.67,1.67,0,0,1,1.734-.041l1.309.731a12,12,0,0,0,3.339-5.6Zm-9.846,3.8A5.384,5.384,0,1,1,40.5,19.3a5.384,5.384,0,0,1-5.384,5.384Z" transform="translate(7.614 2.077)" fill="#7d8db3"/>
      <path id="Trazado_610813" data-name="Trazado 610813" d="M66.656,44.476a5.267,5.267,0,0,0-4.272-.486L42.669,50.627l-2.66-2.661a4.01,4.01,0,0,0-2.855-1.182H19.423V45.438a1.345,1.345,0,0,0-1.346-1.346H11.346A1.345,1.345,0,0,0,10,45.438V65.629a1.345,1.345,0,0,0,1.346,1.346h6.731a1.345,1.345,0,0,0,1.346-1.346v-1.1L25.5,63.47a1.281,1.281,0,0,1,.812.128l10.338,5.559a1.4,1.4,0,0,0,.268.109,10.331,10.331,0,0,0,2.845.4,10.516,10.516,0,0,0,5.3-1.456L67.032,53.263a5.251,5.251,0,0,0-.376-8.788ZM16.731,64.283H12.692v-17.5h4.038ZM65.491,51.055,43.625,65.932a7.632,7.632,0,0,1-5.835.782L27.574,61.22a4.037,4.037,0,0,0-2.528-.4l-5.624.978V49.476H37.154a1.336,1.336,0,0,1,.952.393l5.269,5.27a1.51,1.51,0,0,1-2.135,2.135l-4.711-4.711-1.9,1.9,4.711,4.711a4.2,4.2,0,1,0,5.942-5.942l-.485-.485,18.422-6.2a2.559,2.559,0,0,1,2.277,4.506Z" transform="translate(3.115 14.794)"/>
      <path id="Trazado_610814" data-name="Trazado 610814" d="M30.775,7.8V9.258a.225.225,0,0,1-.109.205,11.439,11.439,0,0,0-1.691.941.34.34,0,0,1-.325-.018l-1.309-.731a1.35,1.35,0,0,0-1.584.2,13.356,13.356,0,0,0-3.711,6.226A1.345,1.345,0,0,0,22.69,17.6l1.459.814a9.918,9.918,0,0,0,0,2.09l-1.459.814a1.345,1.345,0,0,0-.644,1.522,13.357,13.357,0,0,0,3.7,6.228,1.34,1.34,0,0,0,1.584.2l1.317-.734a.343.343,0,0,1,.325-.018,11.391,11.391,0,0,0,1.685.94.227.227,0,0,1,.113.206v1.466a1.345,1.345,0,0,0,1,1.3,14.274,14.274,0,0,0,3.687.492h.177a14.244,14.244,0,0,0,3.511-.5,1.345,1.345,0,0,0,1-1.3V29.665a.228.228,0,0,1,.109-.205,11.438,11.438,0,0,0,1.691-.941.336.336,0,0,1,.325.018l1.309.731a1.346,1.346,0,0,0,1.584-.2,13.358,13.358,0,0,0,3.711-6.224,1.347,1.347,0,0,0-.644-1.522l-1.458-.815a10.159,10.159,0,0,0,0-2.09l1.458-.814a1.345,1.345,0,0,0,.644-1.522,13.357,13.357,0,0,0-3.7-6.228,1.344,1.344,0,0,0-1.584-.2l-1.317.734a.332.332,0,0,1-.325.018,11.286,11.286,0,0,0-1.688-.94.227.227,0,0,1-.11-.206V7.792a1.345,1.345,0,0,0-1-1.3A13.674,13.674,0,0,0,35.285,6a14.244,14.244,0,0,0-3.511.5,1.345,1.345,0,0,0-1,1.3Zm2.692,1.461V8.874a11.093,11.093,0,0,1,1.851-.18,10.37,10.37,0,0,1,2.137.176v.388a2.912,2.912,0,0,0,1.7,2.661,8.581,8.581,0,0,1,1.288.718,3.021,3.021,0,0,0,3.143.1l.409-.227a10.645,10.645,0,0,1,1.967,3.28l-1.308.73a1.346,1.346,0,0,0-.666,1.426,7.686,7.686,0,0,1,0,3.034,1.346,1.346,0,0,0,.666,1.426l1.308.731a10.683,10.683,0,0,1-1.972,3.276l-.4-.225a3.021,3.021,0,0,0-3.143.1,8.627,8.627,0,0,1-1.294.719,2.917,2.917,0,0,0-1.693,2.659v.384a11.094,11.094,0,0,1-1.851.18,10.556,10.556,0,0,1-2.137-.176v-.388A2.917,2.917,0,0,0,31.77,27a8.581,8.581,0,0,1-1.288-.718,3.023,3.023,0,0,0-3.143-.1l-.409.227a10.645,10.645,0,0,1-1.967-3.28l1.308-.73a1.345,1.345,0,0,0,.667-1.429,7.66,7.66,0,0,1,0-3.029,1.345,1.345,0,0,0-.666-1.429l-1.308-.73a10.673,10.673,0,0,1,1.972-3.277l.4.225a3.027,3.027,0,0,0,3.143-.1,8.732,8.732,0,0,1,1.291-.719,2.909,2.909,0,0,0,1.7-2.659Z" transform="translate(7.268 1.73)"/>
      <path id="Trazado_610815" data-name="Trazado 610815" d="M27,17.866a6.731,6.731,0,1,0,6.731-6.731A6.731,6.731,0,0,0,27,17.866Zm6.731-4.038a4.038,4.038,0,1,1-4.038,4.038,4.038,4.038,0,0,1,4.038-4.038Z" transform="translate(8.999 3.508)"/>
      <path id="Trazado_610816" data-name="Trazado 610816" d="M51.227,21.072A20.3,20.3,0,0,0,35.36,1.346l-.573,2.629a17.505,17.505,0,0,1,0,34.194L35.36,40.8A20.3,20.3,0,0,0,51.227,21.072Z" transform="translate(11.694 0.12)"/>
      <path id="Trazado_610817" data-name="Trazado 610817" d="M33.621,3.736l.192-2.684a20.3,20.3,0,0,0-2.884,0l.192,2.684a18.035,18.035,0,0,1,2.5,0Z" transform="translate(10.359)"/>
      <path id="Trazado_610818" data-name="Trazado 610818" d="M17,21.072A20.3,20.3,0,0,0,32.867,40.8l.573-2.629a17.505,17.505,0,0,1,0-34.194l-.573-2.629A20.3,20.3,0,0,0,17,21.072Z" transform="translate(5.538 0.12)"/>
      <path id="Trazado_610819" data-name="Trazado 610819" d="M33.621,28.968a18.035,18.035,0,0,1-2.5,0l-.192,2.684c.476.034.958.051,1.442.051s.966-.017,1.442-.051Z" transform="translate(10.359 9.68)"/>
      <path id="Trazado_610820" data-name="Trazado 610820" d="M31,35h2.692V47.115H31Z" transform="translate(10.383 11.768)"/>
      <path id="Trazado_610821" data-name="Trazado 610821" d="M38,32h2.692V42.769H38Z" transform="translate(12.806 10.729)"/>
      <path id="Trazado_610822" data-name="Trazado 610822" d="M24,32h2.692V42.769H24Z" transform="translate(7.961 10.729)"/>
      <path id="Trazado_610823" data-name="Trazado 610823" d="M59.721,9.394a1.346,1.346,0,0,0-2.3.952v2.692H49.346A1.345,1.345,0,0,0,48,14.384v8.077a1.345,1.345,0,0,0,1.346,1.346h8.077V26.5a1.346,1.346,0,0,0,2.3.952L67.8,19.374a1.346,1.346,0,0,0,0-1.9Zm.394,13.855v-.789a1.345,1.345,0,0,0-1.346-1.346H50.692V15.73h8.077a1.345,1.345,0,0,0,1.346-1.346V13.6l4.827,4.827Z" transform="translate(16.267 2.769)"/>
      <path id="Trazado_610824" data-name="Trazado 610824" d="M21.192,22.461V14.384a1.345,1.345,0,0,0-1.346-1.346H11.769V10.346a1.346,1.346,0,0,0-2.3-.952L1.394,17.471a1.346,1.346,0,0,0,0,1.9l8.077,8.077a1.346,1.346,0,0,0,2.3-.952V23.807h8.077a1.345,1.345,0,0,0,1.346-1.346ZM18.5,21.115H10.423a1.345,1.345,0,0,0-1.346,1.346v.789L4.25,18.423,9.077,13.6v.789a1.345,1.345,0,0,0,1.346,1.346H18.5Z" transform="translate(0 2.769)"/>
    </g>
  </g>
</svg>
