<svg xmlns="http://www.w3.org/2000/svg" width="125" height="125" viewBox="0 0 125 125">
  <g id="Grupo_1075141" data-name="Grupo 1075141" transform="translate(6535 -8665.555)">
    <g id="Grupo_1073358" data-name="Grupo 1073358" transform="translate(-6921 6519.555)">
      <path id="Trazado_608385" data-name="Trazado 608385" d="M62.5,0A62.5,62.5,0,1,1,0,62.5,62.5,62.5,0,0,1,62.5,0Z" transform="translate(386 2146)" fill="#fff"/>
    </g>
    <g id="memorizar" transform="translate(-6512.001 8688.555)">
      <path id="Trazado_610715" data-name="Trazado 610715" d="M31.124,160.233V148.671H16.993v-16.7H8l8.993-19.27A16.7,16.7,0,0,1,33.693,96h6.423a16.7,16.7,0,0,1,16.7,16.7v16.7l-7.708,15.416v15.416" transform="translate(-6.714 -80.584)" fill="#ceb2aa"/>
      <path id="Trazado_610716" data-name="Trazado 610716" d="M52.963,129.4V112.7A16.7,16.7,0,0,0,36.262,96H33.693a16.7,16.7,0,0,0-16.7,16.7L8,131.97h8.993v16.7H31.124v11.562H45.255V144.817Zm0,0" transform="translate(-6.714 -80.584)" fill="#e5c7bd"/>
      <path id="Trazado_610717" data-name="Trazado 610717" d="M271.124,46.54V33.693H286.54V8h-15.1a3.85,3.85,0,0,0-2.725,1.129l-1.441,1.44-1.44-1.44A3.854,3.854,0,0,0,263.1,8H248V33.693h15.416V46.54" transform="translate(-208.174 -6.715)" fill="#ed6863"/>
      <path id="Trazado_610718" data-name="Trazado 610718" d="M122.978,170.394H107.562V144.7H99.854a3.854,3.854,0,0,1,0-7.708,3.856,3.856,0,0,1,5.139-3.634v-.22a5.139,5.139,0,0,1,10.25-.526l-.006-.053a5.141,5.141,0,0,1,7.741,4.432v.687a5.139,5.139,0,0,1-2.569,9.59H112.7v15.416h10.277" transform="translate(-80.583 -107.445)" fill="#fface9"/>
      <path id="Trazado_610719" data-name="Trazado 610719" d="M168,232h2.569v25.693H168Zm0,0" transform="translate(-141.021 -194.745)" fill="#ca8bd4"/>
      <path id="Trazado_610720" data-name="Trazado 610720" d="M286.54,271.124v-7.708h-3.034a16.579,16.579,0,0,0-2.151-5.092l2.616-2.616-5.139-5.139-2.616,2.616a16.571,16.571,0,0,0-5.092-2.151V248h-7.708v3.034a16.578,16.578,0,0,0-5.092,2.151l-2.616-2.616-5.139,5.139,2.616,2.616a16.578,16.578,0,0,0-2.151,5.092H248v7.708h3.034a16.571,16.571,0,0,0,2.151,5.092l-2.616,2.616,5.139,5.139,2.616-2.616a16.578,16.578,0,0,0,5.092,2.151v3.034h7.708v-3.034a16.571,16.571,0,0,0,5.092-2.151l2.616,2.616,5.139-5.139-2.616-2.616a16.571,16.571,0,0,0,2.151-5.092Zm0,0" transform="translate(-208.175 -208.176)" fill="#b3b6c2"/>
      <path id="Trazado_610721" data-name="Trazado 610721" d="M319.124,307.562A11.562,11.562,0,1,1,307.562,296,11.562,11.562,0,0,1,319.124,307.562Zm0,0" transform="translate(-248.467 -248.468)" fill="#d8d8e3"/>
      <path id="Trazado_610722" data-name="Trazado 610722" d="M340.847,334.423A6.423,6.423,0,1,1,334.423,328,6.424,6.424,0,0,1,340.847,334.423Zm0,0" transform="translate(-275.328 -275.329)" fill="#eef2f9"/>
      <path id="Trazado_610723" data-name="Trazado 610723" d="M25.694,153.518H23.125V143.24H10.278a1.285,1.285,0,0,1-1.285-1.285V126.54H1.286a1.285,1.285,0,0,1-1.164-1.828L9,105.695A18.006,18.006,0,0,1,26.979,88H33.4a17.852,17.852,0,0,1,6.918,1.38l-.99,2.371A15.318,15.318,0,0,0,33.4,90.569H26.979a15.433,15.433,0,0,0-15.416,15.416,1.278,1.278,0,0,1-.12.543L3.3,123.971h6.976a1.285,1.285,0,0,1,1.285,1.285v15.416H24.41a1.285,1.285,0,0,1,1.285,1.285Zm0,0" transform="translate(0 -73.869)"/>
      <path id="Trazado_610724" data-name="Trazado 610724" d="M200.993,204.262h-7.708A1.285,1.285,0,0,1,192,202.978V187.562a1.286,1.286,0,0,1,1.285-1.285h7.708a3.854,3.854,0,0,0,0-7.708h-1.285V176h1.285a6.423,6.423,0,0,1,0,12.847h-6.423v12.847h6.423Zm0,0" transform="translate(-161.167 -147.737)"/>
      <path id="Trazado_610725" data-name="Trazado 610725" d="M198.423,156.847a6.423,6.423,0,1,1,6.423-6.423h-2.569a3.854,3.854,0,1,0-3.854,3.854Zm0,0" transform="translate(-161.167 -120.876)"/>
      <path id="Trazado_610726" data-name="Trazado 610726" d="M156.847,126.423h-2.569a3.854,3.854,0,1,0-7.708,0H144a6.423,6.423,0,1,1,12.847,0Zm0,0" transform="translate(-120.875 -100.73)"/>
      <path id="Trazado_610727" data-name="Trazado 610727" d="M122.277,157.139h-2.569a2.569,2.569,0,1,0-5.139,0H112a5.139,5.139,0,1,1,10.277,0Zm0,0" transform="translate(-94.014 -127.591)"/>
      <path id="Trazado_610728" data-name="Trazado 610728" d="M251.035,190.832H248v-2.569h2.048a17.813,17.813,0,0,1,1.521-3.607l-1.908-1.908a1.283,1.283,0,0,1,0-1.817l5.139-5.139a1.283,1.283,0,0,1,1.817,0l1.908,1.908a17.812,17.812,0,0,1,3.607-1.521v-13.61H249.285V160h14.131a1.285,1.285,0,0,1,1.285,1.285v15.881a1.284,1.284,0,0,1-.989,1.25,15.3,15.3,0,0,0-4.7,1.983,1.283,1.283,0,0,1-1.6-.174l-1.706-1.707-3.322,3.322,1.707,1.707a1.283,1.283,0,0,1,.174,1.6,15.284,15.284,0,0,0-1.983,4.7A1.284,1.284,0,0,1,251.035,190.832Zm0,0" transform="translate(-208.175 -134.307)"/>
      <path id="Trazado_610729" data-name="Trazado 610729" d="M136.817,79.649h-7.708a1.285,1.285,0,0,1-1.285-1.285V76.315a17.9,17.9,0,0,1-3.6-1.525L122.309,76.7a1.283,1.283,0,0,1-1.817,0l-5.139-5.139a1.283,1.283,0,0,1,0-1.817l1.913-1.913a17.867,17.867,0,0,1-1.525-3.6h-14.9a1.285,1.285,0,0,1-1.285-1.285V38.54H93.139A5.139,5.139,0,1,1,98.277,33.4H95.708a2.569,2.569,0,1,0-2.569,2.569h7.708a1.285,1.285,0,0,1,1.285,1.285V61.664h14.6a1.284,1.284,0,0,1,1.25.989,15.317,15.317,0,0,0,1.988,4.694,1.285,1.285,0,0,1-.176,1.6l-1.711,1.711,3.322,3.322,1.712-1.712a1.283,1.283,0,0,1,1.6-.176,15.329,15.329,0,0,0,4.694,1.988,1.285,1.285,0,0,1,.989,1.25V77.08h5.139V75.33a1.284,1.284,0,0,1,.989-1.25,15.294,15.294,0,0,0,4.7-1.983,1.281,1.281,0,0,1,1.6.174l1.7,1.707,3.322-3.322-1.707-1.707a1.283,1.283,0,0,1-.174-1.6,15.288,15.288,0,0,0,1.983-4.7,1.285,1.285,0,0,1,1.25-.989h1.749V56.524H149.2a1.284,1.284,0,0,1-1.25-.989,15.317,15.317,0,0,0-1.988-4.694,1.285,1.285,0,0,1,.176-1.6l1.711-1.71-3.322-3.322-1.712,1.712a1.286,1.286,0,0,1-1.6.176,15.33,15.33,0,0,0-4.694-1.988,1.285,1.285,0,0,1-.989-1.25V26.978a1.286,1.286,0,0,1,1.285-1.285h14.131V2.569H137.129a2.555,2.555,0,0,0-1.818.753l-1.44,1.44a1.283,1.283,0,0,1-1.817,0l-1.44-1.44a2.553,2.553,0,0,0-1.818-.753H114.978V25.693h-2.569V1.285A1.286,1.286,0,0,1,113.693,0h15.1a5.106,5.106,0,0,1,3.634,1.505l.532.532.532-.532A5.1,5.1,0,0,1,137.129,0h15.1a1.285,1.285,0,0,1,1.285,1.285V26.978a1.285,1.285,0,0,1-1.285,1.285H138.1V41.874a17.939,17.939,0,0,1,3.6,1.525l1.913-1.913a1.283,1.283,0,0,1,1.817,0l5.139,5.139a1.283,1.283,0,0,1,0,1.817l-1.913,1.913a17.829,17.829,0,0,1,1.524,3.6h2.049a1.285,1.285,0,0,1,1.285,1.285v7.708a1.285,1.285,0,0,1-1.285,1.285h-2.047a17.778,17.778,0,0,1-1.521,3.607l1.908,1.908a1.283,1.283,0,0,1,0,1.817L145.433,76.7a1.283,1.283,0,0,1-1.817,0L141.709,74.8a17.778,17.778,0,0,1-3.607,1.521v2.047a1.285,1.285,0,0,1-1.285,1.285Zm0,0" transform="translate(-73.868)"/>
      <path id="Trazado_610730" data-name="Trazado 610730" d="M300.847,313.693a12.847,12.847,0,1,1,12.847-12.847A12.861,12.861,0,0,1,300.847,313.693Zm0-23.124a10.277,10.277,0,1,0,10.277,10.277A10.289,10.289,0,0,0,300.847,290.569Zm0,0" transform="translate(-241.751 -241.752)"/>
      <path id="Trazado_610731" data-name="Trazado 610731" d="M327.708,335.416a7.708,7.708,0,1,1,7.708-7.708A7.716,7.716,0,0,1,327.708,335.416Zm0-12.847a5.139,5.139,0,1,0,5.139,5.139A5.144,5.144,0,0,0,327.708,322.569Zm0,0" transform="translate(-268.613 -268.614)"/>
      <path id="Trazado_610732" data-name="Trazado 610732" d="M272,32h7.708v2.569H272Zm0,0" transform="translate(-228.321 -26.861)"/>
      <path id="Trazado_610733" data-name="Trazado 610733" d="M272,64h7.708v2.569H272Zm0,0" transform="translate(-228.321 -53.723)"/>
      <path id="Trazado_610734" data-name="Trazado 610734" d="M272,96h11.562v2.569H272Zm0,0" transform="translate(-228.321 -80.584)"/>
      <path id="Trazado_610735" data-name="Trazado 610735" d="M272,128h11.562v2.569H272Zm0,0" transform="translate(-228.321 -107.445)"/>
      <path id="Trazado_610736" data-name="Trazado 610736" d="M392,32h11.562v2.569H392Zm0,0" transform="translate(-329.051 -26.861)"/>
      <path id="Trazado_610737" data-name="Trazado 610737" d="M392,64h11.562v2.569H392Zm0,0" transform="translate(-329.051 -53.723)"/>
      <path id="Trazado_610738" data-name="Trazado 610738" d="M416,96h7.708v2.569H416Zm0,0" transform="translate(-349.197 -80.584)"/>
      <path id="Trazado_610739" data-name="Trazado 610739" d="M416,128h7.708v2.569H416Zm0,0" transform="translate(-349.197 -107.445)"/>
      <path id="Trazado_610740" data-name="Trazado 610740" d="M360,24h2.569V45.839H360Zm0,0" transform="translate(-302.189 -20.146)"/>
    </g>
  </g>
</svg>
