<svg xmlns="http://www.w3.org/2000/svg" width="144" height="147.109" viewBox="0 0 144 147.109">
  <g id="Grupo_1075156" data-name="Grupo 1075156" transform="translate(-994 -23458.445)">
    <path id="Trazado_614524" data-name="Trazado 614524" d="M0,0H144V144H0Z" transform="translate(994 23461.555)" fill="#03386e"/>
    <path id="Trazado_614525" data-name="Trazado 614525" d="M41.134,11.454H36.071v3.428h5.941V17H33.435V4.2H42V6.339H36.071v3.05h5.063Zm6.047,3.674a1.666,1.666,0,0,0,1.143-.387,1.355,1.355,0,0,0,.457-1.028h2.382a3.258,3.258,0,0,1-.527,1.771,3.48,3.48,0,0,1-1.419,1.248,4.442,4.442,0,0,1-1.991.444,4.129,4.129,0,0,1-3.217-1.3A5.13,5.13,0,0,1,42.83,12.3v-.167A5.071,5.071,0,0,1,44,8.624a4.08,4.08,0,0,1,3.208-1.31A4,4,0,0,1,50.068,8.33a3.594,3.594,0,0,1,1.094,2.7H48.78a1.745,1.745,0,0,0-.457-1.206,1.7,1.7,0,0,0-2.5.183,3.749,3.749,0,0,0-.453,2.1v.264a3.8,3.8,0,0,0,.448,2.113A1.549,1.549,0,0,0,47.181,15.128Zm5.036-2.971a5.64,5.64,0,0,1,.545-2.522,3.989,3.989,0,0,1,1.569-1.714,4.577,4.577,0,0,1,2.377-.606A4.33,4.33,0,0,1,59.85,8.492a4.727,4.727,0,0,1,1.358,3.2l.018.65A4.97,4.97,0,0,1,60,15.853a4.735,4.735,0,0,1-6.561,0,5.058,5.058,0,0,1-1.226-3.586Zm2.54.18a3.555,3.555,0,0,0,.51,2.073,1.831,1.831,0,0,0,2.9.009,3.89,3.89,0,0,0,.519-2.267,3.519,3.519,0,0,0-.519-2.06,1.686,1.686,0,0,0-1.459-.731,1.658,1.658,0,0,0-1.441.726A3.955,3.955,0,0,0,54.757,12.338ZM65.471,17H62.922V3.5h2.549Zm1.7-4.843a5.64,5.64,0,0,1,.545-2.522,3.989,3.989,0,0,1,1.569-1.714,4.577,4.577,0,0,1,2.377-.606A4.33,4.33,0,0,1,74.8,8.492a4.727,4.727,0,0,1,1.358,3.2l.018.65a4.97,4.97,0,0,1-1.222,3.511,4.735,4.735,0,0,1-6.561,0,5.058,5.058,0,0,1-1.226-3.586Zm2.54.18a3.555,3.555,0,0,0,.51,2.073,1.831,1.831,0,0,0,2.9.009,3.89,3.89,0,0,0,.519-2.267,3.519,3.519,0,0,0-.519-2.06,1.686,1.686,0,0,0-1.459-.731,1.658,1.658,0,0,0-1.441.726A3.955,3.955,0,0,0,69.707,12.338ZM72.159,3.5h2.769L72.493,6.225H70.428Zm5.212,8.675A5.573,5.573,0,0,1,78.413,8.65a3.375,3.375,0,0,1,2.808-1.336,2.96,2.96,0,0,1,2.435,1.072l.105-.9h2.3v9.193a4.064,4.064,0,0,1-.567,2.171,3.641,3.641,0,0,1-1.6,1.406,5.608,5.608,0,0,1-2.408.483,5.215,5.215,0,0,1-2.039-.417,3.619,3.619,0,0,1-1.5-1.077L79.076,17.7a2.975,2.975,0,0,0,2.3,1.063,2.178,2.178,0,0,0,1.573-.541,2.027,2.027,0,0,0,.563-1.534v-.51a2.938,2.938,0,0,1-2.312.993,3.366,3.366,0,0,1-2.773-1.34,5.572,5.572,0,0,1-1.059-3.555Zm2.54.189a3.47,3.47,0,0,0,.519,2.029,1.65,1.65,0,0,0,1.424.735,1.764,1.764,0,0,0,1.661-.871V10.251a1.76,1.76,0,0,0-1.644-.871,1.66,1.66,0,0,0-1.437.748A3.911,3.911,0,0,0,79.911,12.364ZM90.7,17H88.146V7.49H90.7ZM88,5.029a1.251,1.251,0,0,1,.382-.94,1.648,1.648,0,0,1,2.079,0,1.244,1.244,0,0,1,.387.94,1.247,1.247,0,0,1-.391.949,1.629,1.629,0,0,1-2.065,0A1.247,1.247,0,0,1,88,5.029Zm8.745,10.1a1.666,1.666,0,0,0,1.143-.387,1.355,1.355,0,0,0,.457-1.028h2.382a3.258,3.258,0,0,1-.527,1.771,3.48,3.48,0,0,1-1.419,1.248,4.442,4.442,0,0,1-1.991.444,4.129,4.129,0,0,1-3.217-1.3A5.13,5.13,0,0,1,92.392,12.3v-.167a5.071,5.071,0,0,1,1.169-3.507,4.08,4.08,0,0,1,3.208-1.31A4,4,0,0,1,99.629,8.33a3.594,3.594,0,0,1,1.094,2.7H98.342a1.745,1.745,0,0,0-.457-1.206,1.7,1.7,0,0,0-2.5.183,3.749,3.749,0,0,0-.453,2.1v.264a3.8,3.8,0,0,0,.448,2.113A1.549,1.549,0,0,0,96.742,15.128Zm5.036-2.971a5.64,5.64,0,0,1,.545-2.522,3.989,3.989,0,0,1,1.569-1.714,4.577,4.577,0,0,1,2.377-.606,4.33,4.33,0,0,1,3.142,1.178,4.727,4.727,0,0,1,1.358,3.2l.018.65a4.97,4.97,0,0,1-1.222,3.511,4.735,4.735,0,0,1-6.561,0,5.058,5.058,0,0,1-1.226-3.586Zm2.54.18a3.555,3.555,0,0,0,.51,2.073,1.831,1.831,0,0,0,2.9.009,3.89,3.89,0,0,0,.519-2.267,3.519,3.519,0,0,0-.519-2.06,1.686,1.686,0,0,0-1.459-.731,1.658,1.658,0,0,0-1.441.726A3.955,3.955,0,0,0,104.318,12.338Z" transform="translate(994 23562.555)" fill="#fff"/>
    <path id="Trazado_614526" data-name="Trazado 614526" d="M43,32.595H28.936v9.521h16.5V48H21.611V12.453H45.391v5.933H28.936v8.472H43Z" transform="translate(1034 23482.555)" fill="none" stroke="#fff" stroke-width="1"/>
    <g id="Trazado_614527" data-name="Trazado 614527" transform="translate(1034 23481.555)" fill="none">
      <path d="M32,0A32,32,0,1,1,0,32,32,32,0,0,1,32,0Z" stroke="none"/>
      <path d="M 32 1 C 27.81459045410156 1 23.75490188598633 1.819499969482422 19.93370819091797 3.435718536376953 C 16.24237060546875 4.997028350830078 12.92699813842773 7.232379913330078 10.07968902587891 10.07968902587891 C 7.232379913330078 12.92699813842773 4.997028350830078 16.24237060546875 3.435718536376953 19.93370819091797 C 1.819499969482422 23.75490188598633 1 27.81459045410156 1 32 C 1 36.18540954589844 1.819499969482422 40.24510192871094 3.435718536376953 44.06629180908203 C 4.997028350830078 47.75762939453125 7.232379913330078 51.072998046875 10.07968902587891 53.92031097412109 C 12.92699813842773 56.76762008666992 16.24237060546875 59.00297164916992 19.93370819091797 60.56428146362305 C 23.75490188598633 62.18050003051758 27.81459045410156 63 32 63 C 36.18540954589844 63 40.24510192871094 62.18050003051758 44.06629180908203 60.56428146362305 C 47.75762939453125 59.00297164916992 51.072998046875 56.76762008666992 53.92031097412109 53.92031097412109 C 56.76762008666992 51.072998046875 59.00297164916992 47.75762939453125 60.56428146362305 44.06629180908203 C 62.18050003051758 40.24510192871094 63 36.18540954589844 63 32 C 63 27.81459045410156 62.18050003051758 23.75490188598633 60.56428146362305 19.93370819091797 C 59.00297164916992 16.24237060546875 56.76762008666992 12.92699813842773 53.92031097412109 10.07968902587891 C 51.072998046875 7.232379913330078 47.75762939453125 4.997028350830078 44.06629180908203 3.435718536376953 C 40.24510192871094 1.819499969482422 36.18540954589844 1 32 1 M 32 0 C 49.67311096191406 0 64 14.32688903808594 64 32 C 64 49.67311096191406 49.67311096191406 64 32 64 C 14.32688903808594 64 0 49.67311096191406 0 32 C 0 14.32688903808594 14.32688903808594 0 32 0 Z" stroke="none" fill="#fff"/>
    </g>
    <path id="Trazado_610618" data-name="Trazado 610618" d="M27.606,6.217h3.856V0H27.606Zm8.252,0h3.571V0H35.858ZM41.9,0V6.217H80.118L73.9,0Z" transform="translate(966.394 23458.445)" fill="#3ae3fe"/>
  </g>
</svg>
