<svg xmlns="http://www.w3.org/2000/svg" xmlns:xlink="http://www.w3.org/1999/xlink" width="1030" height="432" viewBox="0 0 1030 432">
  <defs>
    <clipPath id="clip-path">
      <rect id="Rectángulo_379085" data-name="Rectángulo 379085" width="62" height="62" transform="translate(0 -0.15)" fill="#03386e"/>
    </clipPath>
    <clipPath id="clip-path-2">
      <rect id="Rectángulo_379086" data-name="Rectángulo 379086" width="62" height="62" transform="translate(0.497 -0.001)" fill="#03386e"/>
    </clipPath>
  </defs>
  <g id="Grupo_1075163" data-name="Grupo 1075163" transform="translate(-285 -25031.555)">
    <path id="Trazado_614532" data-name="Trazado 614532" d="M0,0H1030V432H0Z" transform="translate(285 25031.555)" fill="#fff"/>
    <path id="Trazado_614533" data-name="Trazado 614533" d="M0,0H369V158H0Z" transform="translate(480 25095.555)" fill="#e1efe3"/>
    <path id="Trazado_614534" data-name="Trazado 614534" d="M0,0H369V158H0Z" transform="translate(480 25274.555)" fill="#e1efe3"/>
    <path id="Trazado_614535" data-name="Trazado 614535" d="M0,0H369V158H0Z" transform="translate(861 25095.555)" fill="#d2f5d7"/>
    <path id="Trazado_614536" data-name="Trazado 614536" d="M0,0H369V158H0Z" transform="translate(861 25274.555)" fill="#d2f5d7"/>
    <path id="Trazado_614537" data-name="Trazado 614537" d="M71,0A71,71,0,1,1,0,71,71,71,0,0,1,71,0Z" transform="translate(790 25191.555)" fill="#fff"/>
    <path id="Trazado_614538" data-name="Trazado 614538" d="M62,0A62,62,0,1,1,0,62,62,62,0,0,1,62,0Z" transform="translate(799 25200.555)" fill="#03386e"/>
    <path id="Trazado_614539" data-name="Trazado 614539" d="M.859,15V3.625H4.523a5.39,5.39,0,0,1,2.711.684,4.805,4.805,0,0,1,1.879,1.93A5.826,5.826,0,0,1,9.8,9.031v.523a5.86,5.86,0,0,1-.66,2.8,4.826,4.826,0,0,1-1.859,1.938A5.271,5.271,0,0,1,4.6,15ZM3.6,5.742v7.148h.953a2.133,2.133,0,0,0,1.813-.84A4.116,4.116,0,0,0,7,9.555V9.063a4.082,4.082,0,0,0-.633-2.484,2.17,2.17,0,0,0-1.844-.836Zm14.656,4.43H13.945v2.719h5.094V15H11.2V3.625h7.852V5.742H13.945v2.4h4.313Zm7.766,1.8a1.127,1.127,0,0,0-.426-.937,5.292,5.292,0,0,0-1.5-.7,14.353,14.353,0,0,1-1.75-.7,3.314,3.314,0,0,1-2.211-2.984A2.676,2.676,0,0,1,20.691,5,3.562,3.562,0,0,1,22.25,3.871a6.065,6.065,0,0,1,2.266-.4,5.305,5.305,0,0,1,2.2.438,3.482,3.482,0,0,1,1.512,1.246A3.254,3.254,0,0,1,28.766,7H26.031a1.375,1.375,0,0,0-.426-1.078,1.66,1.66,0,0,0-1.152-.383,1.872,1.872,0,0,0-1.16.324.955.955,0,0,0,.043,1.617,5.911,5.911,0,0,0,1.648.734,10.1,10.1,0,0,1,1.938.816,3.256,3.256,0,0,1,1.844,2.93A2.778,2.778,0,0,1,27.641,14.3a5,5,0,0,1-3.086.852,6.122,6.122,0,0,1-2.5-.5A3.775,3.775,0,0,1,20.363,13.3a3.542,3.542,0,0,1-.566-1.988h2.75a1.744,1.744,0,0,0,.473,1.348,2.234,2.234,0,0,0,1.535.434,1.765,1.765,0,0,0,1.074-.293A.967.967,0,0,0,26.023,11.977Zm10.609.9H32.875L32.219,15h-2.93L33.461,3.625h2.578L40.242,15H37.3Zm-3.1-2.117h2.445L34.75,6.813Zm11.766.219H43.813V15H41.07V3.625h4.477a5,5,0,0,1,3.164.9,3.041,3.041,0,0,1,1.141,2.536,3.693,3.693,0,0,1-.48,1.967,3.41,3.41,0,0,1-1.5,1.264l2.375,4.593V15H47.3ZM43.813,8.867h1.734a1.557,1.557,0,0,0,1.176-.411,1.59,1.59,0,0,0,.395-1.147,1.608,1.608,0,0,0-.4-1.155,1.542,1.542,0,0,0-1.172-.419H43.813Zm11.922,2.109H54.25V15H51.508V3.625h4.477a5,5,0,0,1,3.164.9,3.041,3.041,0,0,1,1.141,2.536,3.693,3.693,0,0,1-.48,1.967,3.41,3.41,0,0,1-1.5,1.264l2.375,4.593V15H57.742ZM54.25,8.867h1.734a1.557,1.557,0,0,0,1.176-.411,1.59,1.59,0,0,0,.395-1.147,1.608,1.608,0,0,0-.4-1.155,1.542,1.542,0,0,0-1.172-.419H54.25Zm17.328.68a6.708,6.708,0,0,1-.617,2.945,4.561,4.561,0,0,1-1.754,1.973,4.884,4.884,0,0,1-2.59.691,4.953,4.953,0,0,1-2.578-.668,4.554,4.554,0,0,1-1.754-1.91,6.515,6.515,0,0,1-.66-2.852V9.086a6.737,6.737,0,0,1,.613-2.949A4.55,4.55,0,0,1,64,4.164a5.2,5.2,0,0,1,5.184-.008,4.632,4.632,0,0,1,1.762,1.957,6.544,6.544,0,0,1,.637,2.91ZM68.789,9.07A4.783,4.783,0,0,0,68.223,6.5,1.817,1.817,0,0,0,66.6,5.617q-2.062,0-2.18,3.094l-.008.836a4.92,4.92,0,0,0,.555,2.57,1.814,1.814,0,0,0,1.648.9,1.792,1.792,0,0,0,1.6-.883,4.785,4.785,0,0,0,.57-2.539Zm6.945,3.82h4.773V15H72.992V3.625h2.742Zm8.672,0H89.18V15H81.664V3.625h2.742ZM99.469,9.547a6.708,6.708,0,0,1-.617,2.945A4.561,4.561,0,0,1,97.1,14.465a4.884,4.884,0,0,1-2.59.691,4.953,4.953,0,0,1-2.578-.668,4.554,4.554,0,0,1-1.754-1.91,6.515,6.515,0,0,1-.66-2.852V9.086a6.738,6.738,0,0,1,.613-2.949,4.55,4.55,0,0,1,1.758-1.973,5.2,5.2,0,0,1,5.184-.008,4.632,4.632,0,0,1,1.762,1.957,6.544,6.544,0,0,1,.637,2.91ZM96.68,9.07A4.783,4.783,0,0,0,96.113,6.5a1.817,1.817,0,0,0-1.621-.879q-2.062,0-2.18,3.094l-.008.836a4.92,4.92,0,0,0,.555,2.57,1.814,1.814,0,0,0,1.648.9,1.792,1.792,0,0,0,1.6-.883,4.785,4.785,0,0,0,.57-2.539ZM104.867,15V3.625h3.664a5.39,5.39,0,0,1,2.711.684,4.805,4.805,0,0,1,1.879,1.93,5.826,5.826,0,0,1,.684,2.793v.523a5.86,5.86,0,0,1-.66,2.8,4.826,4.826,0,0,1-1.859,1.938,5.271,5.271,0,0,1-2.676.707Zm2.742-9.258v7.148h.953a2.133,2.133,0,0,0,1.813-.84,4.116,4.116,0,0,0,.633-2.5V9.063a4.082,4.082,0,0,0-.633-2.484,2.17,2.17,0,0,0-1.844-.836Zm14.656,4.43h-4.312v2.719h5.094V15h-7.836V3.625h7.852V5.742h-5.109v2.4h4.313Zm9.484-6.547,2.539,7.914,2.531-7.914h3.609V15h-2.75V12.344l.266-5.437L135.2,15h-1.812l-2.758-8.1.266,5.445V15h-2.742V3.625Zm17.477,6.547h-4.312v2.719h5.094V15h-7.836V3.625h7.852V5.742h-5.109v2.4h4.313Zm6.125.8h-1.484V15h-2.742V3.625H155.6a5,5,0,0,1,3.164.9,3.041,3.041,0,0,1,1.141,2.536,3.693,3.693,0,0,1-.48,1.967,3.41,3.41,0,0,1-1.5,1.264l2.375,4.593V15h-2.937Zm-1.484-2.109H155.6a1.557,1.557,0,0,0,1.176-.411,1.59,1.59,0,0,0,.395-1.147,1.608,1.608,0,0,0-.4-1.155,1.542,1.542,0,0,0-1.172-.419h-1.734Zm16.9,2.281a4.154,4.154,0,0,1-.641,2.1,3.866,3.866,0,0,1-1.645,1.41,5.6,5.6,0,0,1-2.418.5,4.467,4.467,0,0,1-3.531-1.461,6.032,6.032,0,0,1-1.289-4.125V9.008a6.885,6.885,0,0,1,.582-2.926A4.41,4.41,0,0,1,163.5,4.145a4.676,4.676,0,0,1,2.531-.684,4.9,4.9,0,0,1,3.328,1.09,4.306,4.306,0,0,1,1.43,3h-2.734a2.037,2.037,0,0,0-.523-1.492,2.153,2.153,0,0,0-1.5-.453,1.638,1.638,0,0,0-1.5.766,4.921,4.921,0,0,0-.5,2.445v.8a5.445,5.445,0,0,0,.457,2.6,1.672,1.672,0,0,0,1.574.781,2.106,2.106,0,0,0,1.445-.445,1.89,1.89,0,0,0,.531-1.414Zm7.758,1.727h-3.758L174.109,15h-2.93l4.172-11.375h2.578L182.133,15h-2.945Zm-3.1-2.117h2.445l-1.227-3.945ZM182.961,15V3.625h3.664a5.39,5.39,0,0,1,2.711.684,4.805,4.805,0,0,1,1.879,1.93,5.826,5.826,0,0,1,.684,2.793v.523a5.86,5.86,0,0,1-.66,2.8,4.826,4.826,0,0,1-1.859,1.938A5.271,5.271,0,0,1,186.7,15ZM185.7,5.742v7.148h.953a2.133,2.133,0,0,0,1.813-.84,4.116,4.116,0,0,0,.633-2.5V9.063a4.082,4.082,0,0,0-.633-2.484,2.17,2.17,0,0,0-1.844-.836Zm17.234,3.8a6.708,6.708,0,0,1-.617,2.945,4.561,4.561,0,0,1-1.754,1.973,4.884,4.884,0,0,1-2.59.691,4.953,4.953,0,0,1-2.578-.668,4.554,4.554,0,0,1-1.754-1.91,6.515,6.515,0,0,1-.66-2.852V9.086a6.737,6.737,0,0,1,.613-2.949,4.55,4.55,0,0,1,1.758-1.973,5.2,5.2,0,0,1,5.184-.008A4.632,4.632,0,0,1,202.3,6.113a6.544,6.544,0,0,1,.637,2.91Zm-2.789-.477a4.783,4.783,0,0,0-.566-2.574,1.817,1.817,0,0,0-1.621-.879q-2.062,0-2.18,3.094l-.008.836a4.92,4.92,0,0,0,.555,2.57,1.814,1.814,0,0,0,1.648.9,1.792,1.792,0,0,0,1.6-.883,4.785,4.785,0,0,0,.57-2.539Z" transform="translate(530 25125.844)" fill="#12263f"/>
    <path id="Trazado_614540" data-name="Trazado 614540" d="M7.6,12.023H2.836L1.766,15H.219L4.563,3.625H5.875L10.227,15H8.688ZM3.289,10.8H7.156L5.219,5.477Zm15.383.07a5.062,5.062,0,0,1-.883,3.109,2.829,2.829,0,0,1-2.391,1.18,3.1,3.1,0,0,1-2.422-.977v4.07H11.531V6.547h1.32l.07.938a2.977,2.977,0,0,1,2.453-1.094,2.882,2.882,0,0,1,2.41,1.148,5.117,5.117,0,0,1,.887,3.2ZM17.227,10.7a3.735,3.735,0,0,0-.609-2.258,1.963,1.963,0,0,0-1.672-.828,2.125,2.125,0,0,0-1.969,1.164V12.82a2.129,2.129,0,0,0,1.984,1.156,1.954,1.954,0,0,0,1.652-.824A4.077,4.077,0,0,0,17.227,10.7Zm8.5,3.461a3.07,3.07,0,0,1-2.477.992,2.628,2.628,0,0,1-2.059-.785,3.4,3.4,0,0,1-.715-2.324v-5.5h1.445v5.461q0,1.922,1.563,1.922a2.163,2.163,0,0,0,2.2-1.234V6.547h1.445V15H25.758ZM30.7,6.547l.047,1.063a3.08,3.08,0,0,1,2.531-1.219q2.68,0,2.7,3.023V15H34.531V9.406a1.946,1.946,0,0,0-.418-1.352,1.675,1.675,0,0,0-1.277-.437,2.086,2.086,0,0,0-1.234.375,2.546,2.546,0,0,0-.828.984V15H29.328V6.547ZM40.117,4.5V6.547H41.7V7.664H40.117v5.249a1.173,1.173,0,0,0,.211.763.888.888,0,0,0,.719.254,3.5,3.5,0,0,0,.688-.094V15a4.215,4.215,0,0,1-1.109.155,1.8,1.8,0,0,1-1.461-.586,2.517,2.517,0,0,1-.492-1.664V7.664H37.133V6.547h1.539V4.5ZM48.6,15a3.036,3.036,0,0,1-.2-.891,3.225,3.225,0,0,1-2.406,1.047,2.984,2.984,0,0,1-2.051-.707,2.287,2.287,0,0,1-.8-1.793,2.39,2.39,0,0,1,1-2.051,4.733,4.733,0,0,1,2.824-.73h1.406V9.211A1.623,1.623,0,0,0,47.922,8a1.821,1.821,0,0,0-1.336-.449,2.107,2.107,0,0,0-1.3.391,1.151,1.151,0,0,0-.523.945H43.313a2,2,0,0,1,.449-1.223,3.066,3.066,0,0,1,1.219-.934,4.1,4.1,0,0,1,1.691-.344,3.342,3.342,0,0,1,2.289.73,2.635,2.635,0,0,1,.859,2.012v3.891a4.757,4.757,0,0,0,.3,1.852V15Zm-2.4-1.1a2.54,2.54,0,0,0,1.289-.352,2.127,2.127,0,0,0,.883-.914V10.9H47.242q-2.656,0-2.656,1.555a1.316,1.316,0,0,0,.453,1.063A1.742,1.742,0,0,0,46.2,13.9ZM61.266,15a3.036,3.036,0,0,1-.2-.891,3.225,3.225,0,0,1-2.406,1.047,2.984,2.984,0,0,1-2.051-.707,2.287,2.287,0,0,1-.8-1.793,2.39,2.39,0,0,1,1-2.051,4.733,4.733,0,0,1,2.824-.73h1.406V9.211A1.623,1.623,0,0,0,60.586,8a1.821,1.821,0,0,0-1.336-.449,2.107,2.107,0,0,0-1.3.391,1.151,1.151,0,0,0-.523.945H55.977a2,2,0,0,1,.449-1.223,3.066,3.066,0,0,1,1.219-.934,4.1,4.1,0,0,1,1.691-.344,3.342,3.342,0,0,1,2.289.73,2.635,2.635,0,0,1,.859,2.012v3.891a4.757,4.757,0,0,0,.3,1.852V15Zm-2.4-1.1a2.54,2.54,0,0,0,1.289-.352,2.127,2.127,0,0,0,.883-.914V10.9H59.906q-2.656,0-2.656,1.555a1.316,1.316,0,0,0,.453,1.063A1.742,1.742,0,0,0,58.867,13.9Zm15.063.266a3.07,3.07,0,0,1-2.477.992,2.628,2.628,0,0,1-2.059-.785,3.4,3.4,0,0,1-.715-2.324v-5.5h1.445v5.461q0,1.922,1.563,1.922a2.163,2.163,0,0,0,2.2-1.234V6.547h1.445V15H73.961ZM78.9,6.547l.047,1.063a3.08,3.08,0,0,1,2.531-1.219q2.68,0,2.7,3.023V15H82.734V9.406a1.946,1.946,0,0,0-.418-1.352,1.675,1.675,0,0,0-1.277-.437,2.086,2.086,0,0,0-1.234.375,2.546,2.546,0,0,0-.828.984V15H77.531V6.547Zm18.563,4.32a5.062,5.062,0,0,1-.883,3.109,2.829,2.829,0,0,1-2.391,1.18,3.1,3.1,0,0,1-2.422-.977v4.07H90.32V6.547h1.32l.07.938a2.977,2.977,0,0,1,2.453-1.094,2.882,2.882,0,0,1,2.41,1.148,5.117,5.117,0,0,1,.887,3.2ZM96.016,10.7a3.735,3.735,0,0,0-.609-2.258,1.963,1.963,0,0,0-1.672-.828,2.125,2.125,0,0,0-1.969,1.164V12.82a2.129,2.129,0,0,0,1.984,1.156,1.954,1.954,0,0,0,1.652-.824A4.077,4.077,0,0,0,96.016,10.7Zm7.367-2.859a4.331,4.331,0,0,0-.711-.055A1.9,1.9,0,0,0,100.742,9v6H99.3V6.547H100.7l.023.977a2.251,2.251,0,0,1,2.016-1.133,1.477,1.477,0,0,1,.641.109Zm.789,2.852a4.993,4.993,0,0,1,.488-2.234A3.643,3.643,0,0,1,106.02,6.93a3.7,3.7,0,0,1,1.988-.539,3.565,3.565,0,0,1,2.793,1.2,4.6,4.6,0,0,1,1.066,3.18v.1a5.036,5.036,0,0,1-.473,2.215,3.589,3.589,0,0,1-1.352,1.527,3.743,3.743,0,0,1-2.02.547,3.556,3.556,0,0,1-2.785-1.2,4.575,4.575,0,0,1-1.066-3.164Zm1.453.172a3.616,3.616,0,0,0,.652,2.258,2.211,2.211,0,0,0,3.5-.012,3.955,3.955,0,0,0,.648-2.418,3.61,3.61,0,0,0-.66-2.254,2.1,2.1,0,0,0-1.754-.863,2.075,2.075,0,0,0-1.727.852A3.925,3.925,0,0,0,105.625,10.867Zm7.7-.164a4.952,4.952,0,0,1,.922-3.129,3.137,3.137,0,0,1,4.766-.168V3h1.445V15h-1.328l-.07-.906a2.943,2.943,0,0,1-2.414,1.063,2.887,2.887,0,0,1-2.395-1.2,5.008,5.008,0,0,1-.926-3.141Zm1.445.164a3.749,3.749,0,0,0,.594,2.25,1.92,1.92,0,0,0,1.641.813,2.108,2.108,0,0,0,2.008-1.234V8.813a2.125,2.125,0,0,0-1.992-1.2,1.929,1.929,0,0,0-1.656.82A4.128,4.128,0,0,0,114.773,10.867Zm13.148,3.3a3.07,3.07,0,0,1-2.477.992,2.628,2.628,0,0,1-2.059-.785,3.4,3.4,0,0,1-.715-2.324v-5.5h1.445v5.461q0,1.922,1.563,1.922a2.163,2.163,0,0,0,2.2-1.234V6.547h1.445V15h-1.375Zm6.992-.187a2.082,2.082,0,0,0,1.352-.469,1.649,1.649,0,0,0,.641-1.172h1.367a2.621,2.621,0,0,1-.5,1.383,3.293,3.293,0,0,1-1.23,1.047,3.55,3.55,0,0,1-1.629.391A3.482,3.482,0,0,1,132.168,14a4.59,4.59,0,0,1-1.02-3.152v-.242a5.089,5.089,0,0,1,.453-2.2,3.451,3.451,0,0,1,1.3-1.492,3.7,3.7,0,0,1,2-.531,3.39,3.39,0,0,1,2.363.852,3.043,3.043,0,0,1,1,2.211h-1.367a1.992,1.992,0,0,0-.621-1.348,1.932,1.932,0,0,0-1.379-.527,2.023,2.023,0,0,0-1.707.793,3.724,3.724,0,0,0-.605,2.293v.273a3.65,3.65,0,0,0,.6,2.25A2.033,2.033,0,0,0,134.914,13.977ZM141.859,4.5V6.547h1.578V7.664h-1.578v5.249a1.173,1.173,0,0,0,.211.763.888.888,0,0,0,.719.254,3.5,3.5,0,0,0,.688-.094V15a4.215,4.215,0,0,1-1.109.155,1.8,1.8,0,0,1-1.461-.586,2.517,2.517,0,0,1-.492-1.664V7.664h-1.539V6.547h1.539V4.5Zm2.727,6.2a4.993,4.993,0,0,1,.488-2.234,3.642,3.642,0,0,1,1.359-1.531,3.7,3.7,0,0,1,1.988-.539,3.565,3.565,0,0,1,2.793,1.2,4.6,4.6,0,0,1,1.066,3.18v.1a5.036,5.036,0,0,1-.473,2.215,3.589,3.589,0,0,1-1.352,1.527,3.743,3.743,0,0,1-2.02.547,3.556,3.556,0,0,1-2.785-1.2,4.575,4.575,0,0,1-1.066-3.164Zm1.453.172a3.616,3.616,0,0,0,.652,2.258,2.211,2.211,0,0,0,3.5-.012,3.954,3.954,0,0,0,.648-2.418,3.61,3.61,0,0,0-.66-2.254,2.1,2.1,0,0,0-1.754-.863,2.075,2.075,0,0,0-1.727.852A3.925,3.925,0,0,0,146.039,10.867Zm15.523,4.289a3.693,3.693,0,0,1-2.8-1.129,4.19,4.19,0,0,1-1.078-3.02v-.266a5.073,5.073,0,0,1,.48-2.246,3.748,3.748,0,0,1,1.344-1.547,3.378,3.378,0,0,1,1.871-.559,3.166,3.166,0,0,1,2.563,1.086,4.7,4.7,0,0,1,.914,3.109v.6h-5.727a3,3,0,0,0,.73,2.02,2.3,2.3,0,0,0,1.777.77,2.517,2.517,0,0,0,1.3-.312,3.258,3.258,0,0,0,.93-.828l.883.688A3.55,3.55,0,0,1,161.563,15.156Zm-.18-7.578a1.928,1.928,0,0,0-1.469.637A3.1,3.1,0,0,0,159.18,10h4.234V9.891a2.753,2.753,0,0,0-.594-1.707A1.815,1.815,0,0,0,161.383,7.578Zm7.984,2.055,1.875-3.086h1.688l-2.766,4.18L173.016,15h-1.672l-1.953-3.164L167.438,15h-1.68l2.852-4.273-2.766-4.18h1.672ZM176.031,15h-1.445V6.547h1.445ZM174.469,4.3a.863.863,0,0,1,.215-.594.807.807,0,0,1,.637-.242.819.819,0,0,1,.641.242.854.854,0,0,1,.219.594.826.826,0,0,1-.219.586.834.834,0,0,1-.641.234.821.821,0,0,1-.637-.234A.834.834,0,0,1,174.469,4.3Zm8.8,8.453a1.064,1.064,0,0,0-.441-.91,4.249,4.249,0,0,0-1.539-.559,7.277,7.277,0,0,1-1.742-.562,2.479,2.479,0,0,1-.953-.781,1.869,1.869,0,0,1-.309-1.078,2.193,2.193,0,0,1,.879-1.758,3.432,3.432,0,0,1,2.246-.719,3.532,3.532,0,0,1,2.332.742,2.357,2.357,0,0,1,.895,1.9H183.18a1.3,1.3,0,0,0-.5-1.023,1.888,1.888,0,0,0-1.27-.43,1.976,1.976,0,0,0-1.234.344,1.082,1.082,0,0,0-.445.9.877.877,0,0,0,.414.789,5.1,5.1,0,0,0,1.5.508,7.8,7.8,0,0,1,1.754.578,2.558,2.558,0,0,1,1,.809,1.988,1.988,0,0,1,.324,1.152,2.163,2.163,0,0,1-.906,1.816,3.8,3.8,0,0,1-2.352.684,4.257,4.257,0,0,1-1.8-.359,2.922,2.922,0,0,1-1.223-1,2.42,2.42,0,0,1-.441-1.395h1.445a1.5,1.5,0,0,0,.582,1.152,2.258,2.258,0,0,0,1.434.426,2.331,2.331,0,0,0,1.316-.332A1.02,1.02,0,0,0,183.266,12.758ZM188.555,4.5V6.547h1.578V7.664h-1.578v5.249a1.173,1.173,0,0,0,.211.763.888.888,0,0,0,.719.254,3.5,3.5,0,0,0,.688-.094V15a4.215,4.215,0,0,1-1.109.155,1.8,1.8,0,0,1-1.461-.586,2.517,2.517,0,0,1-.492-1.664V7.664H185.57V6.547h1.539V4.5Zm6.773,10.656a3.693,3.693,0,0,1-2.8-1.129,4.19,4.19,0,0,1-1.078-3.02v-.266a5.073,5.073,0,0,1,.48-2.246,3.748,3.748,0,0,1,1.344-1.547,3.378,3.378,0,0,1,1.871-.559,3.166,3.166,0,0,1,2.563,1.086,4.7,4.7,0,0,1,.914,3.109v.6H192.9a3,3,0,0,0,.73,2.02,2.3,2.3,0,0,0,1.777.77,2.517,2.517,0,0,0,1.3-.312,3.258,3.258,0,0,0,.93-.828l.883.688A3.55,3.55,0,0,1,195.328,15.156Zm-.18-7.578a1.928,1.928,0,0,0-1.469.637A3.1,3.1,0,0,0,192.945,10h4.234V9.891a2.753,2.753,0,0,0-.594-1.707A1.815,1.815,0,0,0,195.148,7.578Zm6.516-1.031.047,1.063a3.08,3.08,0,0,1,2.531-1.219q2.68,0,2.7,3.023V15H205.5V9.406a1.946,1.946,0,0,0-.418-1.352,1.675,1.675,0,0,0-1.277-.437,2.086,2.086,0,0,0-1.234.375,2.546,2.546,0,0,0-.828.984V15H200.3V6.547ZM211.086,4.5V6.547h1.578V7.664h-1.578v5.249a1.173,1.173,0,0,0,.211.763.888.888,0,0,0,.719.254,3.5,3.5,0,0,0,.688-.094V15a4.215,4.215,0,0,1-1.109.155,1.8,1.8,0,0,1-1.461-.586,2.517,2.517,0,0,1-.492-1.664V7.664H208.1V6.547h1.539V4.5Zm6.773,10.656a3.693,3.693,0,0,1-2.8-1.129,4.19,4.19,0,0,1-1.078-3.02v-.266a5.073,5.073,0,0,1,.48-2.246,3.748,3.748,0,0,1,1.344-1.547,3.378,3.378,0,0,1,1.871-.559,3.166,3.166,0,0,1,2.563,1.086,4.7,4.7,0,0,1,.914,3.109v.6H215.43a3,3,0,0,0,.73,2.02,2.3,2.3,0,0,0,1.777.77,2.517,2.517,0,0,0,1.3-.312,3.258,3.258,0,0,0,.93-.828l.883.688A3.55,3.55,0,0,1,217.859,15.156Zm-.18-7.578a1.928,1.928,0,0,0-1.469.637A3.1,3.1,0,0,0,215.477,10h4.234V9.891a2.753,2.753,0,0,0-.594-1.707A1.815,1.815,0,0,0,217.68,7.578ZM4.6,37.156a3.693,3.693,0,0,1-2.8-1.129,4.19,4.19,0,0,1-1.078-3.02v-.266a5.073,5.073,0,0,1,.48-2.246,3.748,3.748,0,0,1,1.344-1.547,3.378,3.378,0,0,1,1.871-.559,3.166,3.166,0,0,1,2.563,1.086A4.7,4.7,0,0,1,7.9,32.586v.6H2.172a3,3,0,0,0,.73,2.02,2.3,2.3,0,0,0,1.777.77,2.517,2.517,0,0,0,1.3-.312,3.259,3.259,0,0,0,.93-.828l.883.688A3.55,3.55,0,0,1,4.6,37.156Zm-.18-7.578a1.928,1.928,0,0,0-1.469.637A3.1,3.1,0,0,0,2.219,32H6.453v-.109a2.753,2.753,0,0,0-.594-1.707A1.815,1.815,0,0,0,4.422,29.578Zm6.516-1.031.047,1.063a3.08,3.08,0,0,1,2.531-1.219q2.68,0,2.7,3.023V37H14.773V31.406a1.946,1.946,0,0,0-.418-1.352,1.675,1.675,0,0,0-1.277-.437,2.086,2.086,0,0,0-1.234.375,2.546,2.546,0,0,0-.828.984V37H9.57V28.547Zm16.641,7.617a3.07,3.07,0,0,1-2.477.992,2.628,2.628,0,0,1-2.059-.785,3.4,3.4,0,0,1-.715-2.324v-5.5h1.445v5.461q0,1.922,1.563,1.922a2.163,2.163,0,0,0,2.2-1.234V28.547h1.445V37H27.609Zm4.969-7.617.047,1.063a3.08,3.08,0,0,1,2.531-1.219q2.68,0,2.7,3.023V37H36.383V31.406a1.946,1.946,0,0,0-.418-1.352,1.675,1.675,0,0,0-1.277-.437,2.086,2.086,0,0,0-1.234.375,2.546,2.546,0,0,0-.828.984V37H31.18V28.547Zm12.781,0,.039.938a3.122,3.122,0,0,1,2.508-1.094,2.417,2.417,0,0,1,2.414,1.359,3.2,3.2,0,0,1,1.1-.984,3.242,3.242,0,0,1,1.6-.375q2.781,0,2.828,2.945V37H54.367V31.422a1.941,1.941,0,0,0-.414-1.355,1.823,1.823,0,0,0-1.391-.449,1.916,1.916,0,0,0-1.336.48,1.949,1.949,0,0,0-.617,1.293V37H49.156V31.461a1.613,1.613,0,0,0-1.8-1.844,1.934,1.934,0,0,0-1.945,1.211V37H43.961V28.547ZM61.5,37.156a3.693,3.693,0,0,1-2.8-1.129,4.19,4.19,0,0,1-1.078-3.02v-.266a5.073,5.073,0,0,1,.48-2.246,3.748,3.748,0,0,1,1.344-1.547,3.378,3.378,0,0,1,1.871-.559,3.166,3.166,0,0,1,2.563,1.086,4.7,4.7,0,0,1,.914,3.109v.6H59.07a3,3,0,0,0,.73,2.02,2.3,2.3,0,0,0,1.777.77,2.517,2.517,0,0,0,1.3-.312,3.258,3.258,0,0,0,.93-.828l.883.688A3.55,3.55,0,0,1,61.5,37.156Zm-.18-7.578a1.928,1.928,0,0,0-1.469.637A3.1,3.1,0,0,0,59.117,32h4.234v-.109a2.753,2.753,0,0,0-.594-1.707A1.815,1.815,0,0,0,61.32,29.578Zm9.234.266a4.331,4.331,0,0,0-.711-.055A1.9,1.9,0,0,0,67.914,31v6H66.469V28.547h1.406l.023.977a2.251,2.251,0,0,1,2.016-1.133,1.477,1.477,0,0,1,.641.109Zm4.57,6.133a2.082,2.082,0,0,0,1.352-.469,1.649,1.649,0,0,0,.641-1.172h1.367a2.621,2.621,0,0,1-.5,1.383,3.293,3.293,0,0,1-1.23,1.047,3.55,3.55,0,0,1-1.629.391A3.482,3.482,0,0,1,72.379,36a4.59,4.59,0,0,1-1.02-3.152v-.242a5.089,5.089,0,0,1,.453-2.2,3.451,3.451,0,0,1,1.3-1.492,3.7,3.7,0,0,1,2-.531,3.39,3.39,0,0,1,2.363.852,3.043,3.043,0,0,1,1,2.211H77.117a1.992,1.992,0,0,0-.621-1.348,1.932,1.932,0,0,0-1.379-.527,2.023,2.023,0,0,0-1.707.793,3.724,3.724,0,0,0-.605,2.293v.273a3.65,3.65,0,0,0,.6,2.25A2.033,2.033,0,0,0,75.125,35.977ZM85.328,37a3.036,3.036,0,0,1-.2-.891,3.225,3.225,0,0,1-2.406,1.047,2.984,2.984,0,0,1-2.051-.707,2.288,2.288,0,0,1-.8-1.793,2.39,2.39,0,0,1,1-2.051,4.733,4.733,0,0,1,2.824-.73H85.1v-.664A1.623,1.623,0,0,0,84.648,30a1.821,1.821,0,0,0-1.336-.449,2.108,2.108,0,0,0-1.3.391,1.151,1.151,0,0,0-.523.945H80.039a2,2,0,0,1,.449-1.223,3.066,3.066,0,0,1,1.219-.934,4.1,4.1,0,0,1,1.691-.344,3.342,3.342,0,0,1,2.289.73,2.635,2.635,0,0,1,.859,2.012v3.891a4.757,4.757,0,0,0,.3,1.852V37Zm-2.4-1.1a2.54,2.54,0,0,0,1.289-.352,2.127,2.127,0,0,0,.883-.914V32.9H83.969q-2.656,0-2.656,1.555a1.316,1.316,0,0,0,.453,1.063A1.742,1.742,0,0,0,82.93,35.9Zm5.531-3.2a4.952,4.952,0,0,1,.922-3.129,3.137,3.137,0,0,1,4.766-.168V25h1.445V37H94.266l-.07-.906a2.943,2.943,0,0,1-2.414,1.063,2.887,2.887,0,0,1-2.395-1.2,5.008,5.008,0,0,1-.926-3.141Zm1.445.164a3.749,3.749,0,0,0,.594,2.25,1.92,1.92,0,0,0,1.641.813A2.108,2.108,0,0,0,94.148,34.7V30.813a2.125,2.125,0,0,0-1.992-1.2,1.929,1.929,0,0,0-1.656.82A4.128,4.128,0,0,0,89.906,32.867Zm7.547-.172a4.993,4.993,0,0,1,.488-2.234A3.643,3.643,0,0,1,99.3,28.93a3.7,3.7,0,0,1,1.988-.539,3.565,3.565,0,0,1,2.793,1.2,4.6,4.6,0,0,1,1.066,3.18v.1a5.036,5.036,0,0,1-.473,2.215,3.589,3.589,0,0,1-1.352,1.527,3.743,3.743,0,0,1-2.02.547,3.556,3.556,0,0,1-2.785-1.2A4.575,4.575,0,0,1,97.453,32.8Zm1.453.172a3.616,3.616,0,0,0,.652,2.258,2.211,2.211,0,0,0,3.5-.012A3.955,3.955,0,0,0,103.7,32.7a3.61,3.61,0,0,0-.66-2.254,2.1,2.1,0,0,0-1.754-.863,2.075,2.075,0,0,0-1.727.852A3.925,3.925,0,0,0,98.906,32.867Zm15.406,3.109a2.082,2.082,0,0,0,1.352-.469,1.649,1.649,0,0,0,.641-1.172h1.367a2.621,2.621,0,0,1-.5,1.383,3.293,3.293,0,0,1-1.23,1.047,3.55,3.55,0,0,1-1.629.391A3.482,3.482,0,0,1,111.566,36a4.59,4.59,0,0,1-1.02-3.152v-.242a5.089,5.089,0,0,1,.453-2.2,3.451,3.451,0,0,1,1.3-1.492,3.7,3.7,0,0,1,2-.531,3.39,3.39,0,0,1,2.363.852,3.043,3.043,0,0,1,1,2.211H116.3a1.992,1.992,0,0,0-.621-1.348,1.932,1.932,0,0,0-1.379-.527,2.023,2.023,0,0,0-1.707.793,3.724,3.724,0,0,0-.605,2.293v.273a3.65,3.65,0,0,0,.6,2.25A2.033,2.033,0,0,0,114.313,35.977Zm4.6-3.281a4.993,4.993,0,0,1,.488-2.234,3.643,3.643,0,0,1,1.359-1.531,3.7,3.7,0,0,1,1.988-.539,3.565,3.565,0,0,1,2.793,1.2,4.6,4.6,0,0,1,1.066,3.18v.1a5.036,5.036,0,0,1-.473,2.215,3.589,3.589,0,0,1-1.352,1.527,3.743,3.743,0,0,1-2.02.547,3.556,3.556,0,0,1-2.785-1.2,4.575,4.575,0,0,1-1.066-3.164Zm1.453.172a3.616,3.616,0,0,0,.652,2.258,2.211,2.211,0,0,0,3.5-.012,3.955,3.955,0,0,0,.648-2.418,3.61,3.61,0,0,0-.66-2.254,2.1,2.1,0,0,0-1.754-.863,2.075,2.075,0,0,0-1.727.852A3.925,3.925,0,0,0,120.367,32.867Zm9.414-4.32.039.938a3.122,3.122,0,0,1,2.508-1.094,2.417,2.417,0,0,1,2.414,1.359,3.2,3.2,0,0,1,1.1-.984,3.242,3.242,0,0,1,1.6-.375q2.781,0,2.828,2.945V37H138.82V31.422a1.941,1.941,0,0,0-.414-1.355,1.823,1.823,0,0,0-1.391-.449,1.917,1.917,0,0,0-1.336.48,1.949,1.949,0,0,0-.617,1.293V37h-1.453V31.461a1.613,1.613,0,0,0-1.8-1.844,1.934,1.934,0,0,0-1.945,1.211V37h-1.445V28.547Zm19.8,4.32a5.062,5.062,0,0,1-.883,3.109,2.829,2.829,0,0,1-2.391,1.18,3.1,3.1,0,0,1-2.422-.977v4.07h-1.445v-11.7h1.32l.07.938a2.977,2.977,0,0,1,2.453-1.094,2.882,2.882,0,0,1,2.41,1.148,5.117,5.117,0,0,1,.887,3.2Zm-1.445-.164a3.735,3.735,0,0,0-.609-2.258,1.963,1.963,0,0,0-1.672-.828,2.125,2.125,0,0,0-1.969,1.164V34.82a2.129,2.129,0,0,0,1.984,1.156,1.954,1.954,0,0,0,1.652-.824A4.077,4.077,0,0,0,148.141,32.7Zm4.852,4.3h-1.445V25h1.445Zm5.82.156a3.693,3.693,0,0,1-2.8-1.129,4.19,4.19,0,0,1-1.078-3.02v-.266a5.073,5.073,0,0,1,.48-2.246,3.748,3.748,0,0,1,1.344-1.547,3.378,3.378,0,0,1,1.871-.559,3.166,3.166,0,0,1,2.563,1.086,4.7,4.7,0,0,1,.914,3.109v.6h-5.727a3,3,0,0,0,.73,2.02,2.3,2.3,0,0,0,1.777.77,2.517,2.517,0,0,0,1.3-.312,3.258,3.258,0,0,0,.93-.828l.883.688A3.55,3.55,0,0,1,158.813,37.156Zm-.18-7.578a1.928,1.928,0,0,0-1.469.637A3.1,3.1,0,0,0,156.43,32h4.234v-.109a2.753,2.753,0,0,0-.594-1.707A1.815,1.815,0,0,0,158.633,29.578Zm7.109-3.078v2.047h1.578v1.117h-1.578v5.249a1.173,1.173,0,0,0,.211.763.888.888,0,0,0,.719.254,3.5,3.5,0,0,0,.688-.094V37a4.215,4.215,0,0,1-1.109.155,1.8,1.8,0,0,1-1.461-.586,2.517,2.517,0,0,1-.492-1.664V29.664h-1.539V28.547H164.3V26.5ZM174.227,37a3.036,3.036,0,0,1-.2-.891,3.225,3.225,0,0,1-2.406,1.047,2.984,2.984,0,0,1-2.051-.707,2.287,2.287,0,0,1-.8-1.793,2.39,2.39,0,0,1,1-2.051,4.733,4.733,0,0,1,2.824-.73H174v-.664A1.623,1.623,0,0,0,173.547,30a1.821,1.821,0,0,0-1.336-.449,2.107,2.107,0,0,0-1.3.391,1.151,1.151,0,0,0-.523.945h-1.453a2,2,0,0,1,.449-1.223,3.066,3.066,0,0,1,1.219-.934,4.1,4.1,0,0,1,1.691-.344,3.342,3.342,0,0,1,2.289.73,2.635,2.635,0,0,1,.859,2.012v3.891a4.757,4.757,0,0,0,.3,1.852V37Zm-2.4-1.1a2.54,2.54,0,0,0,1.289-.352,2.127,2.127,0,0,0,.883-.914V32.9h-1.133q-2.656,0-2.656,1.555a1.316,1.316,0,0,0,.453,1.063A1.742,1.742,0,0,0,171.828,35.9Zm7.242-7.352.039.938a3.122,3.122,0,0,1,2.508-1.094,2.417,2.417,0,0,1,2.414,1.359,3.2,3.2,0,0,1,1.1-.984,3.242,3.242,0,0,1,1.6-.375q2.781,0,2.828,2.945V37h-1.445V31.422a1.941,1.941,0,0,0-.414-1.355,1.823,1.823,0,0,0-1.391-.449,1.917,1.917,0,0,0-1.336.48,1.949,1.949,0,0,0-.617,1.293V37H182.9V31.461a1.613,1.613,0,0,0-1.8-1.844,1.934,1.934,0,0,0-1.945,1.211V37H177.7V28.547Zm16.172,8.609a3.693,3.693,0,0,1-2.8-1.129,4.19,4.19,0,0,1-1.078-3.02v-.266a5.073,5.073,0,0,1,.48-2.246,3.748,3.748,0,0,1,1.344-1.547,3.378,3.378,0,0,1,1.871-.559,3.166,3.166,0,0,1,2.563,1.086,4.7,4.7,0,0,1,.914,3.109v.6h-5.727a3,3,0,0,0,.73,2.02,2.3,2.3,0,0,0,1.777.77,2.517,2.517,0,0,0,1.3-.312,3.258,3.258,0,0,0,.93-.828l.883.688A3.55,3.55,0,0,1,195.242,37.156Zm-.18-7.578a1.928,1.928,0,0,0-1.469.637A3.1,3.1,0,0,0,192.859,32h4.234v-.109a2.753,2.753,0,0,0-.594-1.707A1.815,1.815,0,0,0,195.063,29.578Zm6.516-1.031.047,1.063a3.08,3.08,0,0,1,2.531-1.219q2.68,0,2.7,3.023V37h-1.445V31.406A1.946,1.946,0,0,0,205,30.055a1.675,1.675,0,0,0-1.277-.437,2.086,2.086,0,0,0-1.234.375,2.546,2.546,0,0,0-.828.984V37h-1.445V28.547ZM211,26.5v2.047h1.578v1.117H211v5.249a1.173,1.173,0,0,0,.211.763.888.888,0,0,0,.719.254,3.5,3.5,0,0,0,.688-.094V37a4.215,4.215,0,0,1-1.109.155,1.8,1.8,0,0,1-1.461-.586,2.517,2.517,0,0,1-.492-1.664V29.664h-1.539V28.547h1.539V26.5Zm6.773,10.656a3.693,3.693,0,0,1-2.8-1.129,4.19,4.19,0,0,1-1.078-3.02v-.266a5.073,5.073,0,0,1,.48-2.246,3.748,3.748,0,0,1,1.344-1.547,3.378,3.378,0,0,1,1.871-.559,3.166,3.166,0,0,1,2.563,1.086,4.7,4.7,0,0,1,.914,3.109v.6h-5.727a3,3,0,0,0,.73,2.02,2.3,2.3,0,0,0,1.777.77,2.517,2.517,0,0,0,1.3-.312,3.258,3.258,0,0,0,.93-.828l.883.688A3.55,3.55,0,0,1,217.773,37.156Zm-.18-7.578a1.928,1.928,0,0,0-1.469.637A3.1,3.1,0,0,0,215.391,32h4.234v-.109a2.753,2.753,0,0,0-.594-1.707A1.815,1.815,0,0,0,217.594,29.578ZM2.461,50.547l.047,1.063a3.08,3.08,0,0,1,2.531-1.219q2.68,0,2.7,3.023V59H6.3V53.406a1.946,1.946,0,0,0-.418-1.352A1.675,1.675,0,0,0,4.6,51.617a2.086,2.086,0,0,0-1.234.375,2.546,2.546,0,0,0-.828.984V59H1.094V50.547Zm12.68,7.617a3.07,3.07,0,0,1-2.477.992,2.628,2.628,0,0,1-2.059-.785,3.4,3.4,0,0,1-.715-2.324v-5.5h1.445v5.461q0,1.922,1.563,1.922A2.163,2.163,0,0,0,15.1,56.7V50.547h1.445V59H15.172Zm7.109.992a3.693,3.693,0,0,1-2.8-1.129,4.19,4.19,0,0,1-1.078-3.02v-.266a5.073,5.073,0,0,1,.48-2.246A3.748,3.748,0,0,1,20.2,50.949a3.378,3.378,0,0,1,1.871-.559,3.166,3.166,0,0,1,2.563,1.086,4.7,4.7,0,0,1,.914,3.109v.6H19.82a3,3,0,0,0,.73,2.02,2.3,2.3,0,0,0,1.777.77,2.517,2.517,0,0,0,1.3-.312,3.259,3.259,0,0,0,.93-.828l.883.688A3.55,3.55,0,0,1,22.25,59.156Zm-.18-7.578a1.928,1.928,0,0,0-1.469.637A3.1,3.1,0,0,0,19.867,54H24.1v-.109a2.753,2.753,0,0,0-.594-1.707A1.815,1.815,0,0,0,22.07,51.578Zm7.836,5.461L32,50.547h1.477L30.445,59h-1.1l-3.062-8.453h1.477ZM34.367,54.7a4.993,4.993,0,0,1,.488-2.234,3.643,3.643,0,0,1,1.359-1.531,3.7,3.7,0,0,1,1.988-.539A3.565,3.565,0,0,1,41,51.586a4.6,4.6,0,0,1,1.066,3.18v.1a5.036,5.036,0,0,1-.473,2.215,3.589,3.589,0,0,1-1.352,1.527,3.743,3.743,0,0,1-2.02.547,3.556,3.556,0,0,1-2.785-1.2A4.575,4.575,0,0,1,34.367,54.8Zm1.453.172a3.616,3.616,0,0,0,.652,2.258,2.211,2.211,0,0,0,3.5-.012,3.955,3.955,0,0,0,.648-2.418,3.61,3.61,0,0,0-.66-2.254,2.1,2.1,0,0,0-1.754-.863,2.075,2.075,0,0,0-1.727.852A3.925,3.925,0,0,0,35.82,54.867Zm8.086,3.375a.905.905,0,0,1,.223-.625.848.848,0,0,1,.668-.25.874.874,0,0,1,.676.25.887.887,0,0,1,.23.625.839.839,0,0,1-.23.6.89.89,0,0,1-.676.242.8.8,0,0,1-.891-.844Z" transform="translate(530 25162.58)" fill="#12263f"/>
    <g id="Grupo_20708" data-name="Grupo 20708" transform="translate(966 25123.531)">
      <text id="DIVERSIFICACIÓN" fill="#12263f" font-size="16" font-family="Roboto-Black, Roboto" font-weight="800"><tspan x="0" y="15">DIVERSIFICACIÓN</tspan></text>
      <text id="Se_enfoca_en_introducir_un_producto_nuevo_en_un_mercado_completamente_nuevo._" data-name="Se enfoca en introducir un producto nuevo en un mercado completamente nuevo.
" transform="translate(0 36.737)" fill="#12263f" font-size="16" font-family="Roboto-Regular, Roboto"><tspan x="0" y="15">Se enfoca en introducir un </tspan><tspan x="0" y="37">producto nuevo en un mercado </tspan><tspan x="0" y="59">completamente nuevo.</tspan><tspan x="0" y="81"></tspan></text>
    </g>
    <g id="Grupo_20708-2" data-name="Grupo 20708" transform="translate(756 25043.268)">
      <text id="Matriz_de_Ansoff" data-name="Matriz de Ansoff" transform="translate(54.525 202)" fill="#fff" font-size="18" font-family="Roboto-Black, Roboto" font-weight="800"><tspan x="12.001" y="17">Matriz de </tspan><tspan x="23.295" y="37">Ansoff</tspan></text>
    </g>
    <g id="Grupo_20708-3" data-name="Grupo 20708" transform="translate(752.475 24845.16)">
      <text id="Productos" transform="translate(54.525 202)" fill="#03386e" font-size="18" font-family="Roboto-Black, Roboto" font-weight="800"><tspan x="-41.599" y="17">Productos</tspan></text>
    </g>
    <g id="Grupo_20708-4" data-name="Grupo 20708" transform="translate(234.475 24845.16)">
      <text id="Mercados" transform="translate(50.525 407)" fill="#03386e" font-size="18" font-family="Roboto-Black, Roboto" font-weight="800"><tspan x="0" y="17">Mercados</tspan></text>
    </g>
    <g id="Grupo_20708-5" data-name="Grupo 20708" transform="translate(530 25318.975)">
      <text id="PENETREACIÓN_DEL_MERCADO_" data-name="PENETREACIÓN DEL MERCADO
" fill="#12263f" font-size="16" font-family="Roboto-Black, Roboto" font-weight="800"><tspan x="0" y="15">PENETREACIÓN DEL MERCADO</tspan></text>
      <text id="Apunta_a_expandir_las_ventas_en_el_mercado_actual._" data-name="Apunta a expandir las ventas en el mercado actual.
" transform="translate(0 36.737)" fill="#12263f" font-size="16" font-family="Roboto-Regular, Roboto"><tspan x="0" y="15">Apunta a expandir las ventas en </tspan><tspan x="0" y="37">el mercado actual.</tspan><tspan x="0" y="59"></tspan></text>
    </g>
    <g id="Grupo_20708-6" data-name="Grupo 20708" transform="translate(966 25318.975)">
      <text id="DESARROLLO_DE_PRODUCTOS_" data-name="DESARROLLO DE PRODUCTOS
" fill="#12263f" font-size="16" font-family="Roboto-Black, Roboto" font-weight="800"><tspan x="0" y="15">DESARROLLO DE PRODUCTOS</tspan></text>
      <text id="Se_enfoca_en_introducir_un_nuevo_producto_en_el_mercado_existente._" data-name="Se enfoca en introducir un nuevo producto en el mercado existente.
" transform="translate(0 36.737)" fill="#12263f" font-size="16" font-family="Roboto-Regular, Roboto"><tspan x="0" y="15">Se enfoca en introducir un nuevo </tspan><tspan x="0" y="37">producto en el mercado existente.</tspan><tspan x="0" y="59"></tspan></text>
    </g>
    <path id="Trazado_610839" data-name="Trazado 610839" d="M-7832,12825.923h505" transform="translate(8430.5 12252.555)" fill="none" stroke="#0c5e46" stroke-width="2"/>
    <path id="Trazado_610840" data-name="Trazado 610840" d="M-7832,12825.923h257.73" transform="translate(13201.923 32967.977) rotate(90)" fill="none" stroke="#0c5e46" stroke-width="2"/>
    <path id="Trazado_614541" data-name="Trazado 614541" d="M0,0H85V158H0Z" transform="translate(1230 25274.555)" fill="#e1fbff"/>
    <path id="Trazado_614542" data-name="Trazado 614542" d="M0,0H85V158H0Z" transform="translate(480 25432.555) rotate(180)" fill="#e1fbff"/>
    <path id="Trazado_614543" data-name="Trazado 614543" d="M0,0H85V158H0Z" transform="translate(480 25253.555) rotate(180)" fill="#e1fbff"/>
    <path id="Trazado_614544" data-name="Trazado 614544" d="M0,0H85V158H0Z" transform="translate(1230 25095.555)" fill="#e1fbff"/>
    <path id="caja" d="M23.862,71.234H52.48a3.1,3.1,0,0,0,3.094-3.094v-17.2H58.24a1.763,1.763,0,0,0,1.433-2.789l-5.1-7.134a1.1,1.1,0,0,0-.892-.459H22.664a1.1,1.1,0,0,0-.893.459l-5.1,7.134A1.763,1.763,0,0,0,18.1,50.936h2.666v17.2a3.1,3.1,0,0,0,3.094,3.094Zm-.9-3.094v-17.2h9.351a1.1,1.1,0,0,0,.892-.459l3.866-5.4V69.04H23.862a.9.9,0,0,1-.9-.9Zm30.415,0a.9.9,0,0,1-.9.9H39.268V45.073l3.867,5.4a1.1,1.1,0,0,0,.893.459h9.351Zm-.265-25.39L57.4,48.741H44.592L40.306,42.75Zm-29.884,0H36.036L31.75,48.741H18.943ZM44.736,62.333a1.1,1.1,0,0,1,1.1-1.1h3.394a1.1,1.1,0,0,1,0,2.2H45.833A1.1,1.1,0,0,1,44.736,62.333Zm0,4.243a1.1,1.1,0,0,1,1.1-1.1h4.858a1.1,1.1,0,0,1,0,2.2H45.833a1.1,1.1,0,0,1-1.1-1.1ZM1.981,99.668h12.65a1.984,1.984,0,0,0,1.981-1.982V96.571H40a8.84,8.84,0,0,0,5.446-1.8L67.713,78.258a6.137,6.137,0,0,0,2.516-4.18,3.388,3.388,0,0,0-.886-2.617,4.944,4.944,0,0,0-6.674-1.687L45.143,79.894c0-.032,0-.065,0-.1a5.827,5.827,0,0,0-5.82-5.82H22.395c-.021,0-.042,0-.064,0a9.473,9.473,0,0,0-5.718,2.364V75.6a1.984,1.984,0,0,0-1.981-1.981H1.981A1.984,1.984,0,0,0,0,75.6V97.687a1.984,1.984,0,0,0,1.981,1.982ZM16.752,79.527a7.272,7.272,0,0,1,5.675-3.354h16.9a3.625,3.625,0,1,1,0,7.25H25.735a1.1,1.1,0,0,0,0,2.2H39.326a5.805,5.805,0,0,0,4.9-2.687c.02-.032.038-.065.057-.1a1.092,1.092,0,0,0,.393-.135L63.768,71.676a2.746,2.746,0,0,1,3.747,1,1.1,1.1,0,0,0,.174.227,1.205,1.205,0,0,1,.352,1.01A4,4,0,0,1,66.406,76.5L44.14,93.008A6.631,6.631,0,0,1,40,94.376H16.613V79.7a1.1,1.1,0,0,0,.14-.177ZM2.2,75.819H14.418V97.473H2.2Zm9.212,17.316a1.1,1.1,0,1,1-1.1-1.1h0A1.1,1.1,0,0,1,11.407,93.135Z" transform="translate(1240 25246.127)" fill="#03386e"/>
    <g id="layer2_18_" transform="translate(408 25110.143)">
      <path id="path832_4_" d="M13.7,0A13.7,13.7,0,0,0,0,13.678a14.717,14.717,0,0,0,1.583,6.184,29.372,29.372,0,1,0,55.756.661v0a.978.978,0,0,0-.145-.48,29.523,29.523,0,0,0-2.37-5.274c1.894-2.28,3.938-5.346,3.9-7.918A6.851,6.851,0,0,0,45.349,4.757,29.24,29.24,0,0,0,19.993,1.544,13.631,13.631,0,0,0,13.7,0Zm0,1.959A11.718,11.718,0,0,1,25.446,13.678c0,3.907-3.013,8.723-6.134,12.456a48.6,48.6,0,0,1-5.607,5.75,48.334,48.334,0,0,1-5.614-5.75C4.97,22.4,1.959,17.585,1.959,13.678A11.71,11.71,0,0,1,13.7,1.96Zm15.663,0A27.38,27.38,0,0,1,45.02,6.894a6.1,6.1,0,0,0,.084.939h-4a3.912,3.912,0,1,0,0,7.824h1.95a1.934,1.934,0,0,1,1.957,1.959,3.93,3.93,0,0,0,3.917,3.915H55.6a27.223,27.223,0,0,1-.64,17.623h-6.49a14.464,14.464,0,0,0,1.445-5.9,13.7,13.7,0,0,0-27.4,0,14.464,14.464,0,0,0,1.445,5.9h-.47a2.945,2.945,0,0,0-2.932,2.932.956.956,0,0,1-.983.975H17.615a2.937,2.937,0,0,0,0,5.874H18.6a.979.979,0,0,1,0,1.957H12.41a27.5,27.5,0,0,1-6.188-6.849,3.98,3.98,0,0,0,4.544-3.915,1.934,1.934,0,0,1,1.957-1.959H14.68a3.9,3.9,0,0,0,2.538-6.88c1.083-1.083,2.311-2.364,3.6-3.9,3.24-3.875,6.589-8.857,6.589-13.712A13.638,13.638,0,0,0,22.147,2.93a27.409,27.409,0,0,1,7.214-.969Zm22.512,0a4.874,4.874,0,0,1,4.892,4.89c0,1.468-1.316,3.878-2.737,5.773a22.481,22.481,0,0,1-2.154,2.514,22.5,22.5,0,0,1-2.152-2.514c-1.421-1.895-2.745-4.3-2.745-5.773a4.879,4.879,0,0,1,4.9-4.89ZM13.7,3.918A9.785,9.785,0,1,0,23.487,13.7,9.792,9.792,0,0,0,13.7,3.918Zm38.175,0A2.937,2.937,0,1,0,54.808,6.85a2.951,2.951,0,0,0-2.934-2.932ZM13.7,5.875A7.828,7.828,0,1,1,5.874,13.7,7.812,7.812,0,0,1,13.7,5.875Zm38.175,0a.979.979,0,0,1,0,1.957.979.979,0,1,1,0-1.957ZM9.791,8.807a.985.985,0,1,0,.143,1.959l.845,5.056a.979.979,0,0,0,.969.818h3.907a.979.979,0,0,0,.954-.746l.977-3.915a.979.979,0,0,0-.946-1.214H11.92l-.187-1.141a.979.979,0,0,0-.967-.818Zm31.319.984H45.7c.866,2.162,3.374,5.375,5.477,7.541a.979.979,0,0,0,1.38,0s.378-.383.91-.971a27.63,27.63,0,0,1,1.47,3.211H48.933a1.932,1.932,0,0,1-1.957-1.957A3.931,3.931,0,0,0,43.059,13.7H41.11a1.954,1.954,0,1,1,0-3.907ZM12.247,12.724h3.135L14.9,14.682H12.572Zm-.5,4.894a.979.979,0,1,0,.979.979A.986.986,0,0,0,11.745,17.618Zm3.915,0a.979.979,0,1,0,.979.979A.986.986,0,0,0,15.659,17.618ZM36.21,21.531A11.724,11.724,0,0,1,47.959,33.256c0,3.907-3.013,8.723-6.134,12.456a48.1,48.1,0,0,1-5.614,5.744A48.319,48.319,0,0,1,30.6,45.712c-3.121-3.733-6.132-8.549-6.132-12.456A11.716,11.716,0,0,1,36.21,21.531Zm-33.326.761a47.9,47.9,0,0,0,6.358,8.046H1.99a26.864,26.864,0,0,1,.895-8.046Zm33.326,1.2A9.786,9.786,0,1,0,46,33.279,9.8,9.8,0,0,0,36.21,23.488Zm0,1.959a7.832,7.832,0,1,1-7.832,7.832A7.818,7.818,0,0,1,36.21,25.447ZM36.2,27.4a.979.979,0,0,0-.961.99,2.929,2.929,0,1,0,0,5.859V36.2H33.278a.98.98,0,0,0,0,1.959h1.957a.979.979,0,0,0,1.957,0,2.933,2.933,0,1,0,0-5.867V30.353h1.959a.979.979,0,1,0,0-1.957H37.193a.979.979,0,0,0-1-.99Zm-1.944,3.923a.958.958,0,0,1,.983-.975V32.3a.951.951,0,0,1-.981-.969ZM2.126,32.3h9.066c1.115,1.069,1.877,1.726,1.877,1.726a.979.979,0,0,0,1.265,0s.626-.552,1.485-1.359a1.956,1.956,0,0,1-1.139,3.548H12.723a3.931,3.931,0,0,0-3.917,3.917,1.932,1.932,0,0,1-1.957,1.957H5.088A27.585,27.585,0,0,1,2.126,32.3Zm35.067,1.959a.974.974,0,1,1,0,1.948ZM24.957,41.111A40.432,40.432,0,0,0,29.1,46.97a61.145,61.145,0,0,0,6.474,6.625.979.979,0,0,0,1.271,0,60.863,60.863,0,0,0,6.48-6.625,40.425,40.425,0,0,0,4.144-5.859h6.656a27.428,27.428,0,0,1-38.9,11.739H18.6a2.936,2.936,0,0,0,0-5.872h-.983a.98.98,0,0,1,0-1.959h1.957a2.951,2.951,0,0,0,2.94-2.932.95.95,0,0,1,.975-.975h1.47Z" transform="translate(0 -0.001)" fill="#03386e"/>
    </g>
    <g id="Grupo_1073463" data-name="Grupo 1073463" transform="translate(409 25286.705)" clip-path="url(#clip-path)">
      <path id="Trazado_610841" data-name="Trazado 610841" d="M198,612.319H176.913a1.208,1.208,0,0,1-1.208-1.208v-1.438a4.358,4.358,0,0,1,4.353-4.353h14.793a4.353,4.353,0,0,1,4.353,4.353v1.438A1.208,1.208,0,0,1,198,612.319M178.121,609.9h18.667v-.23a1.937,1.937,0,0,0-1.937-1.937H180.058a1.939,1.939,0,0,0-1.937,1.937Z" transform="translate(-159.786 -550.477)" fill="#03386e"/>
      <path id="Trazado_610842" data-name="Trazado 610842" d="M258.33,545.629H250.6a1.208,1.208,0,0,1-1.208-1.208v-6.188a1.208,1.208,0,0,1,1.208-1.208h7.731a1.208,1.208,0,0,1,1.208,1.208v6.188a1.208,1.208,0,0,1-1.208,1.208m-6.523-2.416h5.315v-3.771h-5.315Z" transform="translate(-226.796 -488.37)" fill="#03386e"/>
      <path id="Trazado_610843" data-name="Trazado 610843" d="M293.271,497.691a1.062,1.062,0,0,1-.119-.006c-.039,0-.079-.01-.118-.017a1.218,1.218,0,0,1-.226-.069,1.235,1.235,0,0,1-.208-.111,1.046,1.046,0,0,1-.1-.071,1.209,1.209,0,0,1-.168-.168,1.132,1.132,0,0,1-.071-.1,1.212,1.212,0,0,1-.111-.209,1.164,1.164,0,0,1-.069-.226,1.046,1.046,0,0,1-.018-.117q-.005-.06-.005-.12c0-.039,0-.079.005-.119a1.043,1.043,0,0,1,.018-.117,1.16,1.16,0,0,1,.069-.226,1.214,1.214,0,0,1,.111-.209,1.163,1.163,0,0,1,.071-.1c.025-.031.052-.06.08-.088a1.067,1.067,0,0,1,.088-.08,1.036,1.036,0,0,1,.1-.071,1.244,1.244,0,0,1,.208-.111,1.218,1.218,0,0,1,.226-.069c.039-.007.079-.014.118-.017a1.169,1.169,0,0,1,.237,0c.039,0,.079.01.117.017a1.246,1.246,0,0,1,.227.069,1.28,1.28,0,0,1,.208.111,1.028,1.028,0,0,1,.1.071,1.078,1.078,0,0,1,.089.08c.027.028.054.057.08.088s.048.063.071.1a1.245,1.245,0,0,1,.179.435c.008.039.014.078.018.117s.005.08.005.119,0,.08-.005.12-.01.078-.018.117a1.231,1.231,0,0,1-.069.226,1.216,1.216,0,0,1-.111.209c-.022.033-.045.064-.07.1s-.053.061-.08.088a1.09,1.09,0,0,1-.089.08,1.038,1.038,0,0,1-.1.071,1.271,1.271,0,0,1-.208.111,1.246,1.246,0,0,1-.227.069c-.038.007-.078.014-.117.017a1.085,1.085,0,0,1-.119.006" transform="translate(-265.602 -450.403)" fill="#03386e"/>
      <path id="Trazado_610844" data-name="Trazado 610844" d="M54.119,459.913H1.208a1.208,1.208,0,0,1,0-2.416H54.119a1.208,1.208,0,1,1,0,2.416" transform="translate(0 -416.047)" fill="#03386e"/>
      <path id="Trazado_610845" data-name="Trazado 610845" d="M510.449,337.151h-3.664a1.208,1.208,0,1,1,0-2.416h3.664a2.236,2.236,0,0,0,2.233-2.233V315.789a1.208,1.208,0,0,1,2.416,0V332.5a4.655,4.655,0,0,1-4.649,4.649" transform="translate(-459.771 -286.08)" fill="#03386e"/>
      <path id="Trazado_610846" data-name="Trazado 610846" d="M453.451,539.441c-.039,0-.079,0-.119-.005s-.078-.01-.117-.018a1.252,1.252,0,0,1-.227-.069,1.209,1.209,0,0,1-.208-.111c-.033-.022-.065-.045-.1-.07s-.061-.053-.089-.081-.054-.057-.08-.088-.048-.062-.07-.1a1.246,1.246,0,0,1-.112-.208,1.262,1.262,0,0,1-.069-.227c-.007-.039-.014-.078-.017-.117a1.054,1.054,0,0,1-.006-.119,1.035,1.035,0,0,1,.006-.119c0-.04.01-.079.017-.118a1.22,1.22,0,0,1,.18-.435c.022-.033.045-.064.07-.1s.053-.06.08-.088a1.1,1.1,0,0,1,.089-.08,1.016,1.016,0,0,1,.1-.071,1.276,1.276,0,0,1,.208-.111,1.261,1.261,0,0,1,.227-.069c.039-.007.078-.014.117-.017a1.169,1.169,0,0,1,.238,0c.039,0,.078.01.117.017a1.225,1.225,0,0,1,.226.069,1.283,1.283,0,0,1,.209.111,1.163,1.163,0,0,1,.1.071,1.082,1.082,0,0,1,.088.08,1.07,1.07,0,0,1,.08.088,1.175,1.175,0,0,1,.071.1,1.29,1.29,0,0,1,.111.209,1.223,1.223,0,0,1,.069.226c.007.039.014.078.017.118a1.063,1.063,0,0,1,.006.119,1.083,1.083,0,0,1-.006.119c0,.039-.01.078-.017.117a1.262,1.262,0,0,1-.069.227,1.321,1.321,0,0,1-.111.208,1.007,1.007,0,0,1-.071.1.933.933,0,0,1-.08.088c-.028.028-.057.055-.088.081s-.062.048-.1.07a1.228,1.228,0,0,1-.435.18c-.039.008-.078.014-.117.018s-.08.005-.12.005" transform="translate(-411.269 -488.37)" fill="#03386e"/>
      <path id="Trazado_610847" data-name="Trazado 610847" d="M37.351,116.466H4.65A4.655,4.655,0,0,1,0,111.817V76.559A4.649,4.649,0,0,1,4.65,71.91H30.613a1.208,1.208,0,1,1,0,2.416H4.65a2.233,2.233,0,0,0-2.233,2.233v35.257A2.236,2.236,0,0,0,4.65,114.05h32.7a1.208,1.208,0,0,1,0,2.416" transform="translate(-0.001 -65.395)" fill="#03386e"/>
      <path id="Trazado_610848" data-name="Trazado 610848" d="M65.311,138.422a1.034,1.034,0,0,1-.119-.006,1.05,1.05,0,0,1-.118-.017,1.222,1.222,0,0,1-.226-.069,1.18,1.18,0,0,1-.208-.111c-.034-.022-.065-.045-.1-.07s-.06-.053-.088-.08-.054-.058-.08-.089-.049-.063-.071-.1a1.206,1.206,0,0,1-.111-.208,1.185,1.185,0,0,1-.069-.227,1.012,1.012,0,0,1-.018-.117c0-.04-.005-.08-.005-.119s0-.08.005-.119a1.029,1.029,0,0,1,.018-.118,1.158,1.158,0,0,1,.069-.226,1.176,1.176,0,0,1,.111-.208c.022-.034.046-.065.071-.1s.052-.06.08-.088.058-.054.088-.08a1.049,1.049,0,0,1,.1-.071,1.174,1.174,0,0,1,.208-.111,1.227,1.227,0,0,1,.226-.07c.039-.007.079-.014.118-.017a1.215,1.215,0,0,1,.973.348c.027.028.054.058.08.088s.048.063.071.1a1.176,1.176,0,0,1,.111.208,1.225,1.225,0,0,1,.069.226c.008.039.014.078.018.118s.005.079.005.119,0,.079-.005.119-.01.079-.018.117a1.255,1.255,0,0,1-.069.227,1.206,1.206,0,0,1-.111.208c-.023.033-.046.065-.071.1s-.053.061-.08.089-.058.054-.089.08-.063.048-.1.07a1.212,1.212,0,0,1-.208.111,1.252,1.252,0,0,1-.227.069,1.006,1.006,0,0,1-.117.017,1.045,1.045,0,0,1-.119.006" transform="translate(-58.295 -123.684)" fill="#03386e"/>
      <path id="Trazado_610849" data-name="Trazado 610849" d="M106.606,210.116H65.31a1.208,1.208,0,0,1-1.208-1.208V190.547a1.208,1.208,0,0,1,2.416,0V207.7h40.088a1.208,1.208,0,0,1,0,2.416" transform="translate(-58.294 -172.185)" fill="#03386e"/>
      <path id="Trazado_610850" data-name="Trazado 610850" d="M137.473,317.055H130.59a1.208,1.208,0,0,1-1.208-1.208V308.14a1.208,1.208,0,0,1,1.208-1.208h6.883a1.208,1.208,0,0,1,1.208,1.208v7.707a1.208,1.208,0,0,1-1.208,1.208m-5.675-2.416h4.467v-5.291H131.8Z" transform="translate(-117.66 -279.124)" fill="#03386e"/>
      <path id="Trazado_610851" data-name="Trazado 610851" d="M260.921,278.654h-6.883a1.208,1.208,0,0,1-1.208-1.208V265.912a1.208,1.208,0,0,1,1.208-1.208h6.883a1.208,1.208,0,0,1,1.208,1.208v11.534a1.208,1.208,0,0,1-1.208,1.208m-5.675-2.416h4.467V267.12h-4.467Z" transform="translate(-229.923 -240.722)" fill="#03386e"/>
      <path id="Trazado_610852" data-name="Trazado 610852" d="M384.367,247.167h-6.883a1.208,1.208,0,0,1-1.208-1.208v-14.67a1.208,1.208,0,1,1,2.416,0v13.462h4.467V232.4a1.208,1.208,0,0,1,2.416,0v13.561a1.208,1.208,0,0,1-1.208,1.208" transform="translate(-342.185 -209.235)" fill="#03386e"/>
      <path id="Trazado_610853" data-name="Trazado 610853" d="M119.717,138.422h-1.083a1.208,1.208,0,1,1,0-2.416h1.083a1.208,1.208,0,0,1,0,2.416" transform="translate(-106.787 -123.684)" fill="#03386e"/>
      <path id="Trazado_610854" data-name="Trazado 610854" d="M119.717,195.4h-1.083a1.208,1.208,0,1,1,0-2.416h1.083a1.208,1.208,0,0,1,0,2.416" transform="translate(-106.787 -175.498)" fill="#03386e"/>
      <path id="Trazado_610855" data-name="Trazado 610855" d="M119.717,252.373h-1.083a1.208,1.208,0,1,1,0-2.416h1.083a1.208,1.208,0,0,1,0,2.416" transform="translate(-106.787 -227.311)" fill="#03386e"/>
      <path id="Trazado_610856" data-name="Trazado 610856" d="M191.946,179.768a1.208,1.208,0,0,1-.854-2.062l4.613-4.613a1.208,1.208,0,0,1,1.708,0l3.676,3.676,2.823-2.823a1.208,1.208,0,0,1,1.708,1.708l-3.678,3.678a1.208,1.208,0,0,1-1.708,0l-3.676-3.676-3.759,3.759a1.2,1.2,0,0,1-.854.354" transform="translate(-173.457 -157.088)" fill="#03386e"/>
      <path id="Trazado_610857" data-name="Trazado 610857" d="M511.141,199.285a4.183,4.183,0,0,1-2.966-1.227L499.02,188.9a1.208,1.208,0,1,1,1.708-1.708l9.155,9.155a1.779,1.779,0,1,0,2.516-2.516l-9.155-9.155a1.208,1.208,0,0,1,1.708-1.708l9.155,9.155a4.193,4.193,0,0,1-2.966,7.16" transform="translate(-453.487 -166.072)" fill="#03386e"/>
      <path id="Trazado_610858" data-name="Trazado 610858" d="M412.237,128.854a3.7,3.7,0,0,1-3.814-3.573,1.208,1.208,0,0,1,2.416,0,1.423,1.423,0,1,0,1.4-1.157,1.208,1.208,0,0,1,0-2.416,3.58,3.58,0,1,1,0,7.145" transform="translate(-371.42 -110.682)" fill="#03386e"/>
      <path id="Trazado_610859" data-name="Trazado 610859" d="M412.235,76.645a3.581,3.581,0,1,1,3.814-3.573,1.208,1.208,0,1,1-2.416,0,1.423,1.423,0,1,0-1.4,1.157,1.208,1.208,0,0,1,0,2.416" transform="translate(-371.418 -63.202)" fill="#03386e"/>
      <path id="Trazado_610860" data-name="Trazado 610860" d="M438.393,61.131a1.208,1.208,0,0,1-1.208-1.208V58.849a1.208,1.208,0,1,1,2.416,0v1.074a1.208,1.208,0,0,1-1.208,1.208" transform="translate(-397.576 -52.419)" fill="#03386e"/>
      <path id="Trazado_610861" data-name="Trazado 610861" d="M438.393,178.5a1.208,1.208,0,0,1-1.208-1.208v-.865a1.208,1.208,0,0,1,2.416,0v.865a1.208,1.208,0,0,1-1.208,1.208" transform="translate(-397.576 -159.344)" fill="#03386e"/>
      <path id="Trazado_610862" data-name="Trazado 610862" d="M328.252,24.451a12.181,12.181,0,0,1-8.613-20.795,12.181,12.181,0,1,1,8.613,20.795m0-21.946a9.765,9.765,0,0,0-6.9,16.67,9.765,9.765,0,1,0,6.9-16.67" transform="translate(-287.435 -0.081)" fill="#03386e"/>
    </g>
    <g id="Grupo_1073465" data-name="Grupo 1073465" transform="translate(1242.503 25106.555)" clip-path="url(#clip-path-2)">
      <path id="Trazado_610863" data-name="Trazado 610863" d="M148.108,5.6a.912.912,0,0,1-.83-.534.605.605,0,0,0-.124-.178L144.269,2a.612.612,0,0,0-.43-.178h-1.671L143.4,4.279a.911.911,0,1,1-1.63.815l-1.887-3.775A.911.911,0,0,1,140.694,0h3.146a2.415,2.415,0,0,1,1.719.712L148.443,3.6a2.426,2.426,0,0,1,.493.712.912.912,0,0,1-.829,1.289" transform="translate(-122.796 0.276)" fill="#03386e"/>
      <path id="Trazado_610864" data-name="Trazado 610864" d="M109.63,5.6a.911.911,0,0,1-.911-.911V.911A.911.911,0,0,1,109.63,0h3.775a.911.911,0,0,1,0,1.823h-2.863V4.686a.911.911,0,0,1-.911.911" transform="translate(-95.507 0.276)" fill="#03386e"/>
      <path id="Trazado_610865" data-name="Trazado 610865" d="M20.282,38.547H18.265a2.737,2.737,0,0,1-2.734-2.734V32.6a2.415,2.415,0,0,1,.218-1.007.911.911,0,0,1,.83-.534H22.1a.911.911,0,0,1,0,1.823H17.354v2.928a.912.912,0,0,0,.911.911h2.017a.912.912,0,0,0,.911-.911.911.911,0,1,1,1.823,0,2.737,2.737,0,0,1-2.734,2.734" transform="translate(-13.644 -27.011)" fill="#03386e"/>
      <path id="Trazado_610866" data-name="Trazado 610866" d="M66.876,38.547H64.859a2.737,2.737,0,0,1-2.734-2.734V31.973a.911.911,0,0,1,.911-.911H68.7a.911.911,0,1,1,0,1.823H63.948v2.928a.912.912,0,0,0,.911.911h2.017a.912.912,0,0,0,.911-.911.911.911,0,0,1,1.823,0,2.737,2.737,0,0,1-2.734,2.734" transform="translate(-54.575 -27.011)" fill="#03386e"/>
      <path id="Trazado_610867" data-name="Trazado 610867" d="M113.469,38.547h-2.017a2.737,2.737,0,0,1-2.734-2.734V31.973a.911.911,0,0,1,.911-.911h5.662a.911.911,0,0,1,0,1.823h-4.751v2.928a.912.912,0,0,0,.911.911h2.017a.912.912,0,0,0,.911-.911.911.911,0,0,1,1.823,0,2.737,2.737,0,0,1-2.734,2.734" transform="translate(-95.506 -27.011)" fill="#03386e"/>
      <path id="Trazado_610868" data-name="Trazado 610868" d="M160.063,38.546h-2.017a2.737,2.737,0,0,1-2.734-2.734v-3.84a.911.911,0,0,1,.911-.911h5.526a.911.911,0,0,1,.83.534A2.415,2.415,0,0,1,162.8,32.6v3.21a2.737,2.737,0,0,1-2.734,2.734m-2.928-5.662v2.928a.912.912,0,0,0,.911.911h2.017a.912.912,0,0,0,.911-.911V32.884Z" transform="translate(-136.438 -27.01)" fill="#03386e"/>
      <path id="Trazado_610869" data-name="Trazado 610869" d="M32.086,62.22H30.134A1.825,1.825,0,0,1,28.311,60.4V33.909H1.823A1.825,1.825,0,0,1,0,32.086V30.134a1.825,1.825,0,0,1,1.823-1.823H28.311V1.823A1.825,1.825,0,0,1,30.134,0h1.952a1.825,1.825,0,0,1,1.823,1.823V28.311H47.126a.911.911,0,0,1,0,1.823H33a.911.911,0,0,1-.911-.911V1.823H30.134v27.4a.911.911,0,0,1-.911.911H1.823v1.952h27.4a.911.911,0,0,1,.911.911V60.4h1.952V33A.911.911,0,0,1,33,32.086H60.4V30.134H51.379a.911.911,0,1,1,0-1.823H60.4a1.825,1.825,0,0,1,1.823,1.823v1.952A1.825,1.825,0,0,1,60.4,33.909H33.909V60.4a1.825,1.825,0,0,1-1.823,1.823" transform="translate(0 0.276)" fill="#03386e"/>
      <path id="Trazado_610870" data-name="Trazado 610870" d="M97.873,118.092a.911.911,0,0,1-.911-.911v-5.662a.976.976,0,0,0-1.952,0v5.662a.911.911,0,0,1-1.823,0v-5.662a2.8,2.8,0,0,1,5.6,0v5.662a.911.911,0,0,1-.911.911" transform="translate(-81.863 -95.231)" fill="#03386e"/>
      <path id="Trazado_610871" data-name="Trazado 610871" d="M97.873,141.6H94.1a.911.911,0,1,1,0-1.823h3.775a.911.911,0,0,1,0,1.823" transform="translate(-81.863 -122.518)" fill="#03386e"/>
      <path id="Trazado_610872" data-name="Trazado 610872" d="M376.081,114.317h-1.887a.911.911,0,0,1-.911-.911V109.63a.911.911,0,0,1,.911-.911h1.887a2.8,2.8,0,1,1,0,5.6m-.976-1.823h.976a.976.976,0,1,0,0-1.952H375.1Z" transform="translate(-327.919 -95.231)" fill="#03386e"/>
      <path id="Trazado_610873" data-name="Trazado 610873" d="M376.081,145.38h-1.887a.911.911,0,0,1-.911-.911v-3.775a.911.911,0,0,1,.911-.911h1.887a2.8,2.8,0,1,1,0,5.6m-.976-1.823h.976a.976.976,0,1,0,0-1.952H375.1Z" transform="translate(-327.919 -122.519)" fill="#03386e"/>
      <path id="Trazado_610874" data-name="Trazado 610874" d="M95.987,413.185a2.8,2.8,0,0,1-2.8-2.8v-3.775a2.8,2.8,0,0,1,5.6,0,.911.911,0,1,1-1.823,0,.976.976,0,0,0-1.952,0v3.775a.976.976,0,1,0,1.952,0,.911.911,0,0,1,1.823,0,2.8,2.8,0,0,1-2.8,2.8" transform="translate(-81.863 -354.463)" fill="#03386e"/>
      <path id="Trazado_610875" data-name="Trazado 610875" d="M376.081,413.186h-1.887a.911.911,0,0,1-.911-.911v-7.55a.911.911,0,0,1,.911-.911h1.887a2.8,2.8,0,0,1,2.8,2.8v3.775a2.8,2.8,0,0,1-2.8,2.8m-.976-1.823h.976a.977.977,0,0,0,.976-.976v-3.775a.977.977,0,0,0-.976-.976H375.1Z" transform="translate(-327.919 -354.464)" fill="#03386e"/>
      <path id="Trazado_610876" data-name="Trazado 610876" d="M50.848,94.578H31.973a.911.911,0,0,1-.911-.911V86.6a.911.911,0,0,1,1.823,0v6.16H49.936V78.567a.911.911,0,0,1,1.823,0v15.1a.911.911,0,0,1-.911.911" transform="translate(-27.287 -67.943)" fill="#03386e"/>
      <path id="Trazado_610877" data-name="Trazado 610877" d="M31.973,83.254a.911.911,0,0,1-.911-.911V78.567a.911.911,0,0,1,1.823,0v3.775a.911.911,0,0,1-.911.911" transform="translate(-27.287 -67.943)" fill="#03386e"/>
      <path id="Trazado_610878" data-name="Trazado 610878" d="M63.034,5.6a.912.912,0,0,1-.814-1.319L64.107.5a.911.911,0,0,1,.815-.5H68.7a.911.911,0,0,1,0,1.823H65.486L63.85,5.094a.912.912,0,0,1-.816.5" transform="translate(-54.574 0.276)" fill="#03386e"/>
      <path id="Trazado_610879" data-name="Trazado 610879" d="M17.564,5.6a.912.912,0,0,1-.829-1.289,2.423,2.423,0,0,1,.493-.712L20.113.712A2.414,2.414,0,0,1,21.832,0h3.146a.911.911,0,1,1,0,1.823H21.832A.612.612,0,0,0,21.4,2L18.517,4.886a.607.607,0,0,0-.123.178.911.911,0,0,1-.83.534" transform="translate(-14.629 0.276)" fill="#03386e"/>
      <path id="Trazado_610880" data-name="Trazado 610880" d="M427.669,5.6a.912.912,0,0,1-.83-.535.6.6,0,0,0-.123-.178L423.831,2a.6.6,0,0,0-.43-.178H421.73l1.228,2.456a.911.911,0,1,1-1.63.815L419.44,1.319A.911.911,0,0,1,420.255,0H423.4a2.415,2.415,0,0,1,1.718.712L428,3.6a2.419,2.419,0,0,1,.493.712.912.912,0,0,1-.829,1.289" transform="translate(-368.384 0.276)" fill="#03386e"/>
      <path id="Trazado_610881" data-name="Trazado 610881" d="M389.192,5.6a.911.911,0,0,1-.911-.911V.911A.911.911,0,0,1,389.192,0h3.775a.911.911,0,1,1,0,1.823H390.1V4.686a.911.911,0,0,1-.911.911" transform="translate(-341.095 0.276)" fill="#03386e"/>
      <path id="Trazado_610882" data-name="Trazado 610882" d="M299.844,38.547h-2.017a2.737,2.737,0,0,1-2.734-2.734V32.6a2.419,2.419,0,0,1,.218-1.006.912.912,0,0,1,.83-.534h5.526a.911.911,0,1,1,0,1.823h-4.751v2.928a.912.912,0,0,0,.911.911h2.017a.912.912,0,0,0,.911-.911.911.911,0,0,1,1.823,0,2.737,2.737,0,0,1-2.734,2.734" transform="translate(-259.232 -27.011)" fill="#03386e"/>
      <path id="Trazado_610883" data-name="Trazado 610883" d="M346.438,38.547h-2.017a2.737,2.737,0,0,1-2.734-2.734V31.973a.911.911,0,0,1,.911-.911h5.662a.911.911,0,1,1,0,1.823H343.51v2.928a.912.912,0,0,0,.911.911h2.017a.912.912,0,0,0,.911-.911.911.911,0,1,1,1.823,0,2.737,2.737,0,0,1-2.734,2.734" transform="translate(-300.164 -27.011)" fill="#03386e"/>
      <path id="Trazado_610884" data-name="Trazado 610884" d="M393.032,38.547h-2.017a2.737,2.737,0,0,1-2.734-2.734V31.973a.911.911,0,0,1,.911-.911h5.662a.911.911,0,1,1,0,1.823H390.1v2.928a.912.912,0,0,0,.911.911h2.017a.912.912,0,0,0,.911-.911.911.911,0,1,1,1.823,0,2.737,2.737,0,0,1-2.734,2.734" transform="translate(-341.095 -27.011)" fill="#03386e"/>
      <path id="Trazado_610885" data-name="Trazado 610885" d="M439.626,38.546h-2.017a2.737,2.737,0,0,1-2.734-2.734v-3.84a.911.911,0,0,1,.911-.911h5.526a.912.912,0,0,1,.83.534,2.415,2.415,0,0,1,.219,1.007v3.21a2.737,2.737,0,0,1-2.734,2.734M436.7,32.884v2.928a.912.912,0,0,0,.911.911h2.017a.912.912,0,0,0,.911-.911V32.884Z" transform="translate(-382.027 -27.01)" fill="#03386e"/>
      <path id="Trazado_610886" data-name="Trazado 610886" d="M330.943,94.578H312.068a.911.911,0,0,1-.911-.911v-15.1a.911.911,0,1,1,1.823,0V92.755h17.051V78.567a.911.911,0,1,1,1.823,0v15.1a.911.911,0,0,1-.911.911" transform="translate(-273.344 -67.943)" fill="#03386e"/>
      <path id="Trazado_610887" data-name="Trazado 610887" d="M342.6,5.6a.912.912,0,0,1-.814-1.319L343.67.5a.911.911,0,0,1,.815-.5h3.775a.911.911,0,1,1,0,1.823h-3.212l-1.635,3.271a.912.912,0,0,1-.816.5" transform="translate(-300.163 0.276)" fill="#03386e"/>
      <path id="Trazado_610888" data-name="Trazado 610888" d="M297.127,5.6a.912.912,0,0,1-.829-1.289,2.424,2.424,0,0,1,.493-.712L299.677.712A2.415,2.415,0,0,1,301.4,0h3.146a.911.911,0,1,1,0,1.823H301.4a.6.6,0,0,0-.43.178l-2.885,2.885a.6.6,0,0,0-.123.178.912.912,0,0,1-.83.534" transform="translate(-260.219 0.276)" fill="#03386e"/>
      <path id="Trazado_610889" data-name="Trazado 610889" d="M148.108,300.692a.912.912,0,0,1-.83-.534.6.6,0,0,0-.123-.178l-2.885-2.885a.612.612,0,0,0-.43-.178h-1.671l1.228,2.456a.911.911,0,0,1-1.63.815l-1.887-3.775a.911.911,0,0,1,.815-1.319h3.146a2.415,2.415,0,0,1,1.719.712l2.885,2.885a2.424,2.424,0,0,1,.493.712.912.912,0,0,1-.829,1.289" transform="translate(-122.796 -258.957)" fill="#03386e"/>
      <path id="Trazado_610890" data-name="Trazado 610890" d="M109.63,300.691a.911.911,0,0,1-.911-.911V296a.911.911,0,0,1,.911-.911h3.775a.911.911,0,1,1,0,1.823h-2.863v2.863a.911.911,0,0,1-.911.911" transform="translate(-95.507 -258.956)" fill="#03386e"/>
      <path id="Trazado_610891" data-name="Trazado 610891" d="M20.282,333.64H18.265a2.737,2.737,0,0,1-2.734-2.734V327.7a2.415,2.415,0,0,1,.218-1.007.911.911,0,0,1,.83-.534H22.1a.911.911,0,1,1,0,1.823H17.354v2.928a.912.912,0,0,0,.911.911h2.017a.912.912,0,0,0,.911-.911.911.911,0,1,1,1.823,0,2.737,2.737,0,0,1-2.734,2.734" transform="translate(-13.644 -286.243)" fill="#03386e"/>
      <path id="Trazado_610892" data-name="Trazado 610892" d="M66.876,333.64H64.859a2.737,2.737,0,0,1-2.734-2.734v-3.84a.911.911,0,0,1,.911-.911H68.7a.911.911,0,1,1,0,1.823H63.948v2.928a.912.912,0,0,0,.911.911h2.017a.912.912,0,0,0,.911-.911.911.911,0,1,1,1.823,0,2.737,2.737,0,0,1-2.734,2.734" transform="translate(-54.575 -286.243)" fill="#03386e"/>
      <path id="Trazado_610893" data-name="Trazado 610893" d="M113.469,333.64h-2.017a2.737,2.737,0,0,1-2.734-2.734v-3.84a.911.911,0,0,1,.911-.911h5.662a.911.911,0,1,1,0,1.823h-4.751v2.928a.912.912,0,0,0,.911.911h2.017a.912.912,0,0,0,.911-.911.911.911,0,1,1,1.823,0,2.737,2.737,0,0,1-2.734,2.734" transform="translate(-95.506 -286.243)" fill="#03386e"/>
      <path id="Trazado_610894" data-name="Trazado 610894" d="M160.063,333.64h-2.017a2.737,2.737,0,0,1-2.734-2.734v-3.84a.911.911,0,0,1,.911-.911h5.526a.911.911,0,0,1,.83.534,2.415,2.415,0,0,1,.218,1.007v3.21a2.737,2.737,0,0,1-2.734,2.734m-2.928-5.662v2.928a.912.912,0,0,0,.911.911h2.017a.913.913,0,0,0,.911-.911v-2.928Z" transform="translate(-136.438 -286.243)" fill="#03386e"/>
      <path id="Trazado_610895" data-name="Trazado 610895" d="M187.286,376.222a.911.911,0,0,1-.911-.911v-1.649a.911.911,0,1,1,1.823,0v1.649a.911.911,0,0,1-.911.911" transform="translate(-163.726 -327.176)" fill="#03386e"/>
      <path id="Trazado_610896" data-name="Trazado 610896" d="M50.848,389.672H31.973a.911.911,0,0,1-.911-.911v-15.1a.911.911,0,1,1,1.823,0v14.188H49.936v-8.285a.911.911,0,1,1,1.823,0v9.2a.911.911,0,0,1-.911.911" transform="translate(-27.287 -327.176)" fill="#03386e"/>
      <path id="Trazado_610897" data-name="Trazado 610897" d="M63.034,300.692a.912.912,0,0,1-.814-1.319l1.887-3.775a.911.911,0,0,1,.815-.5H68.7a.911.911,0,0,1,0,1.823H65.486l-1.635,3.271a.912.912,0,0,1-.816.5" transform="translate(-54.574 -258.957)" fill="#03386e"/>
      <path id="Trazado_610898" data-name="Trazado 610898" d="M17.564,300.692a.912.912,0,0,1-.829-1.289,2.421,2.421,0,0,1,.493-.712l2.885-2.885a2.414,2.414,0,0,1,1.719-.712h3.146a.911.911,0,0,1,0,1.823H21.832a.612.612,0,0,0-.43.178l-2.885,2.885a.6.6,0,0,0-.123.178.912.912,0,0,1-.83.534" transform="translate(-14.629 -258.957)" fill="#03386e"/>
      <path id="Trazado_610899" data-name="Trazado 610899" d="M427.669,300.692a.912.912,0,0,1-.83-.535.6.6,0,0,0-.123-.177l-2.885-2.885a.613.613,0,0,0-.43-.178H421.73l1.228,2.456a.911.911,0,0,1-1.63.815l-1.887-3.775a.911.911,0,0,1,.815-1.319H423.4a2.416,2.416,0,0,1,1.718.712L428,298.691a2.417,2.417,0,0,1,.493.712.912.912,0,0,1-.829,1.289" transform="translate(-368.384 -258.957)" fill="#03386e"/>
      <path id="Trazado_610900" data-name="Trazado 610900" d="M389.192,300.691a.911.911,0,0,1-.911-.911V296a.911.911,0,0,1,.911-.911h3.775a.911.911,0,1,1,0,1.823H390.1v2.863a.911.911,0,0,1-.911.911" transform="translate(-341.095 -258.956)" fill="#03386e"/>
      <path id="Trazado_610901" data-name="Trazado 610901" d="M299.844,333.64h-2.017a2.737,2.737,0,0,1-2.734-2.734V327.7a2.419,2.419,0,0,1,.218-1.006.912.912,0,0,1,.83-.534h5.526a.911.911,0,1,1,0,1.823h-4.751v2.928a.912.912,0,0,0,.911.911h2.017a.912.912,0,0,0,.911-.911.911.911,0,1,1,1.823,0,2.738,2.738,0,0,1-2.734,2.734" transform="translate(-259.232 -286.243)" fill="#03386e"/>
      <path id="Trazado_610902" data-name="Trazado 610902" d="M346.438,333.64h-2.017a2.737,2.737,0,0,1-2.734-2.734v-3.84a.911.911,0,0,1,.911-.911h5.662a.911.911,0,1,1,0,1.823H343.51v2.928a.912.912,0,0,0,.911.911h2.017a.912.912,0,0,0,.911-.911.911.911,0,1,1,1.823,0,2.737,2.737,0,0,1-2.734,2.734" transform="translate(-300.164 -286.243)" fill="#03386e"/>
      <path id="Trazado_610903" data-name="Trazado 610903" d="M393.032,333.64h-2.017a2.737,2.737,0,0,1-2.734-2.734v-3.84a.911.911,0,0,1,.911-.911h5.662a.911.911,0,1,1,0,1.823H390.1v2.928a.912.912,0,0,0,.911.911h2.017a.912.912,0,0,0,.911-.911.911.911,0,1,1,1.823,0,2.737,2.737,0,0,1-2.734,2.734" transform="translate(-341.095 -286.243)" fill="#03386e"/>
      <path id="Trazado_610904" data-name="Trazado 610904" d="M439.626,333.64h-2.017a2.737,2.737,0,0,1-2.734-2.734v-3.84a.911.911,0,0,1,.911-.911h5.526a.912.912,0,0,1,.83.534,2.415,2.415,0,0,1,.219,1.007v3.21a2.737,2.737,0,0,1-2.734,2.734m-2.928-5.662v2.928a.912.912,0,0,0,.911.911h2.017a.913.913,0,0,0,.911-.911v-2.928Z" transform="translate(-382.027 -286.243)" fill="#03386e"/>
      <path id="Trazado_610905" data-name="Trazado 610905" d="M330.943,389.672H312.068a.911.911,0,0,1-.911-.911v-15.1a.911.911,0,1,1,1.823,0v14.188h17.051V373.661a.911.911,0,1,1,1.823,0v15.1a.911.911,0,0,1-.911.911" transform="translate(-273.344 -327.176)" fill="#03386e"/>
      <path id="Trazado_610906" data-name="Trazado 610906" d="M342.6,300.692a.912.912,0,0,1-.814-1.319l1.887-3.775a.912.912,0,0,1,.815-.5h3.775a.911.911,0,1,1,0,1.823h-3.212l-1.635,3.271a.912.912,0,0,1-.816.5" transform="translate(-300.163 -258.957)" fill="#03386e"/>
      <path id="Trazado_610907" data-name="Trazado 610907" d="M297.127,300.692a.912.912,0,0,1-.829-1.289,2.421,2.421,0,0,1,.493-.712l2.885-2.885a2.415,2.415,0,0,1,1.719-.712h3.146a.911.911,0,1,1,0,1.823H301.4a.6.6,0,0,0-.429.178l-2.885,2.885a.6.6,0,0,0-.123.178.912.912,0,0,1-.83.534" transform="translate(-260.219 -258.957)" fill="#03386e"/>
    </g>
  </g>
</svg>
