<svg xmlns="http://www.w3.org/2000/svg" width="70" height="70" viewBox="0 0 70 70">
  <g id="Grupo_1075167" data-name="Grupo 1075167" transform="translate(-610 -27855.555)">
    <g id="Grupo_1073524" data-name="Grupo 1073524" transform="translate(341 26897.555)">
      <path id="Trazado_609168" data-name="Trazado 609168" d="M35,0A35,35,0,1,1,0,35,35,35,0,0,1,35,0Z" transform="translate(269 958)" fill="#03386e"/>
    </g>
    <g id="publico-objetivo" transform="translate(624 27851.148)">
      <path id="Trazado_611013" data-name="Trazado 611013" d="M399.681,371a1.228,1.228,0,0,0-1.228,1.228v6.224h-6.224a1.228,1.228,0,1,0,0,2.457h7.453a1.228,1.228,0,0,0,1.228-1.228v-7.453A1.228,1.228,0,0,0,399.681,371Z" transform="translate(-358.978 -322.254)" fill="#fff"/>
      <path id="Trazado_611014" data-name="Trazado 611014" d="M8.681,378.453H2.457v-6.224a1.228,1.228,0,1,0-2.457,0v7.453a1.228,1.228,0,0,0,1.228,1.228H8.681a1.228,1.228,0,1,0,0-2.457Z" transform="translate(0 -322.254)" fill="#fff"/>
      <path id="Trazado_611015" data-name="Trazado 611015" d="M1.228,29.91a1.228,1.228,0,0,0,1.228-1.228V22.457H8.681a1.228,1.228,0,1,0,0-2.457H1.228A1.228,1.228,0,0,0,0,21.228v7.453A1.228,1.228,0,0,0,1.228,29.91Z" fill="#fff"/>
      <path id="Trazado_611016" data-name="Trazado 611016" d="M398.763,20h-7.535a1.228,1.228,0,1,0,0,2.457h6.306v6.224a1.228,1.228,0,0,0,2.457,0V21.228A1.229,1.229,0,0,0,398.763,20Z" transform="translate(-358.06)" fill="#fff"/>
    </g>
    <g id="configuracion" transform="translate(628.114 27873.414)">
      <path id="Trazado_611017" data-name="Trazado 611017" d="M30.14,19.9a3.279,3.279,0,0,1,0-5.68,1.894,1.894,0,0,0,.683-2.6L28.545,7.677a1.905,1.905,0,0,0-2.6-.7,3.28,3.28,0,0,1-4.92-2.84,1.9,1.9,0,0,0-1.9-1.9H14.574a1.9,1.9,0,0,0-1.9,1.9,3.28,3.28,0,0,1-4.92,2.84,1.909,1.909,0,0,0-2.6.7L2.88,11.625a1.894,1.894,0,0,0,.683,2.6,3.279,3.279,0,0,1,0,5.68,1.894,1.894,0,0,0-.683,2.6l2.278,3.948a1.905,1.905,0,0,0,2.6.7,3.28,3.28,0,0,1,4.92,2.84,1.9,1.9,0,0,0,1.9,1.9H19.13a1.9,1.9,0,0,0,1.9-1.9,3.28,3.28,0,0,1,4.92-2.84,1.909,1.909,0,0,0,2.6-.7L30.823,22.5a1.894,1.894,0,0,0-.683-2.6Zm-3.371,5.087a5.56,5.56,0,0,0-7.988,4.617H14.954a5.56,5.56,0,0,0-7.988-4.617L5.052,21.679a5.562,5.562,0,0,0,0-9.233L6.965,9.135a5.56,5.56,0,0,0,7.988-4.617H18.78a5.56,5.56,0,0,0,7.988,4.617l1.913,3.311a5.562,5.562,0,0,0,0,9.233Z" transform="translate(0 0)" fill="#fff"/>
      <path id="Trazado_611018" data-name="Trazado 611018" d="M13.945,8.25a5.695,5.695,0,1,0,5.695,5.695A5.7,5.7,0,0,0,13.945,8.25Zm0,9.112a3.417,3.417,0,1,1,3.417-3.417A3.422,3.422,0,0,1,13.945,17.362Z" transform="translate(2.922 3.117)" fill="#fff"/>
    </g>
  </g>
</svg>
