<svg xmlns="http://www.w3.org/2000/svg" width="123.999" height="124" viewBox="0 0 123.999 124">
  <g id="Grupo_1075190" data-name="Grupo 1075190" transform="translate(6908 -14097.555)">
    <g id="Grupo_1073519" data-name="Grupo 1073519" transform="translate(-7333.438 6599.084)" opacity="0">
      <g id="Grupo_1015374" data-name="Grupo 1015374" transform="translate(425.437 7498.471)">
        <g id="Grupo_1015448" data-name="Grupo 1015448" transform="translate(0 0)">
          <g id="Grupo_1014855" data-name="Grupo 1014855" transform="translate(0)">
            <path id="Unión_12" data-name="Unión 12" d="M62,0A62,62,0,1,1,0,62,62,62,0,0,1,62,0Z" fill="#fff"/>
          </g>
        </g>
      </g>
    </g>
    <g id="megafono" transform="translate(-6889 14081.467)">
      <path id="Trazado_610937" data-name="Trazado 610937" d="M137.3,341.612a.464.464,0,0,0-.553-.354l-2.9.642,1.6,7.436,2.9-.642a.464.464,0,0,0,.354-.553Z" transform="translate(-110.691 -248.244)" fill="#6f7070"/>
      <circle id="Elipse_6010" data-name="Elipse 6010" cx="13.364" cy="13.364" r="13.364" transform="translate(47.294 60.974)" fill="#cd494c"/>
      <path id="Trazado_610938" data-name="Trazado 610938" d="M2.452,178.975A2.451,2.451,0,0,0,0,181.427v13.9a2.451,2.451,0,0,0,2.452,2.452H6.409v-18.8Z" transform="translate(0 -114.038)" fill="#e5e5e5"/>
      <path id="Trazado_610939" data-name="Trazado 610939" d="M39.823,152.543a2.768,2.768,0,0,0-2.767,2.767v22.407a2.768,2.768,0,0,0,2.767,2.767H59.53V152.543Z" transform="translate(-30.647 -92.178)" fill="#cd494c"/>
      <path id="Trazado_610940" data-name="Trazado 610940" d="M67.888,314.111l4.586,21.118a5.74,5.74,0,0,0,5.593,4.447h0a5.741,5.741,0,0,0,5.593-7.035l-3.988-18.53Z" transform="translate(-56.146 -225.801)" fill="#ed6362"/>
      <path id="Trazado_610941" data-name="Trazado 610941" d="M194.621,106.774,166.992,88.31V60.365L194.621,41.9a5.534,5.534,0,0,1,8.407,4.729v55.411A5.534,5.534,0,0,1,194.621,106.774Z" transform="translate(-138.109)" fill="#e5e5e5"/>
      <path id="Trazado_610942" data-name="Trazado 610942" d="M326.127,41.9l-.127.077V106.7l.127.077a5.534,5.534,0,0,0,8.407-4.729V46.631A5.534,5.534,0,0,0,326.127,41.9Z" transform="translate(-269.615)" fill="#4b9fd8"/>
      <path id="Trazado_610943" data-name="Trazado 610943" d="M57.051,180.488a2.092,2.092,0,1,1,0-4.184h2.8a1.752,1.752,0,0,0,1.749-1.76v-.022c0-.044,0-.086,0-.127a1.656,1.656,0,0,0-1.655-1.757H54.469a2.175,2.175,0,0,1-2.208-1.979,2.093,2.093,0,0,1,2.089-2.206h2.917a1.755,1.755,0,0,0,1.754-1.763v-.147a1.852,1.852,0,0,0-1.849-1.86H51.154a2.173,2.173,0,0,1-2.208-1.979,2.091,2.091,0,0,1,2.089-2.206H60.92a1.783,1.783,0,0,0,1.752-1.86v-.05a1.784,1.784,0,0,0-1.752-1.86H59.19a2.175,2.175,0,0,1-2.208-1.979,2.1,2.1,0,0,1,2.092-2.208H69.36v27.942H57.051Z" transform="translate(-40.478 -92.178)" fill="#d2545b"/>
      <g id="Grupo_1073494" data-name="Grupo 1073494" transform="translate(32.147 47.781)">
        <path id="Trazado_610944" data-name="Trazado 610944" d="M226.122,112.279l-4.738,3.213a2.767,2.767,0,1,1-3.108-4.58l4.738-3.213a2.767,2.767,0,1,1,3.108,4.58Z" transform="translate(-211.667 -102.476)" fill="#dcdbdb"/>
        <path id="Trazado_610945" data-name="Trazado 610945" d="M283.36,84.839l-1.223.83a2.767,2.767,0,1,1-3.108-4.58l1.223-.83a2.767,2.767,0,1,1,3.108,4.58Z" transform="translate(-261.911 -79.782)" fill="#dcdbdb"/>
        <path id="Trazado_610946" data-name="Trazado 610946" d="M190.259,151.735l-.075.05a2.767,2.767,0,0,1-3.108-4.58l.075-.05a2.767,2.767,0,1,1,3.108,4.58Z" transform="translate(-185.863 -135.108)" fill="#dcdbdb"/>
      </g>
      <g id="Grupo_1073495" data-name="Grupo 1073495" transform="translate(58.518 83.738)">
        <path id="Trazado_610947" data-name="Trazado 610947" d="M340.24,321.135a1.894,1.894,0,0,0-1.9,1.885l.025,9.974a1.894,1.894,0,1,0,3.789.019l-.025-9.974A1.894,1.894,0,0,0,340.24,321.135Z" transform="translate(-338.336 -315.348)" fill="#2b98d1"/>
        <path id="Trazado_610948" data-name="Trazado 610948" d="M340.364,292.48a1.894,1.894,0,0,0,1.9-1.885l.006-1.013a1.894,1.894,0,0,0-3.789-.019l-.006,1.013A1.893,1.893,0,0,0,340.364,292.48Z" transform="translate(-338.455 -287.679)" fill="#2b98d1"/>
      </g>
      <g id="Grupo_1073496" data-name="Grupo 1073496" transform="translate(73.024 54.575)">
        <path id="Trazado_610949" data-name="Trazado 610949" d="M450.07,225.327h-8.014a1.384,1.384,0,1,0,0,2.767h8.014a1.384,1.384,0,0,0,0-2.767Z" transform="translate(-437.478 -206.948)" fill="#03386e"/>
        <path id="Trazado_610950" data-name="Trazado 610950" d="M424.565,127.1l5.665-5.668a1.383,1.383,0,0,0-1.957-1.957l-5.665,5.668a1.383,1.383,0,1,0,1.957,1.957Z" transform="translate(-422.204 -119.067)" fill="#03386e"/>
        <path id="Trazado_610951" data-name="Trazado 610951" d="M424.565,299.232a1.383,1.383,0,0,0-1.957,1.957l5.665,5.668a1.383,1.383,0,1,0,1.957-1.957Z" transform="translate(-422.204 -267.736)" fill="#03386e"/>
      </g>
    </g>
  </g>
</svg>
