<svg xmlns="http://www.w3.org/2000/svg" width="70" height="70" viewBox="0 0 70 70">
  <g id="Grupo_1075169" data-name="Grupo 1075169" transform="translate(-1230 -27855.555)">
    <g id="Grupo_1073526" data-name="Grupo 1073526" transform="translate(961 26897.555)">
      <circle id="Elipse_5614" data-name="Elipse 5614" cx="35" cy="35" r="35" transform="translate(269 958)" fill="#03386e"/>
    </g>
    <g id="publico-objetivo" transform="translate(1244.034 27851.148)">
      <path id="Trazado_611013" data-name="Trazado 611013" d="M399.681,371a1.228,1.228,0,0,0-1.228,1.228v6.224h-6.224a1.228,1.228,0,1,0,0,2.457h7.453a1.228,1.228,0,0,0,1.228-1.228v-7.453A1.228,1.228,0,0,0,399.681,371Z" transform="translate(-358.978 -322.254)" fill="#fff"/>
      <path id="Trazado_611014" data-name="Trazado 611014" d="M8.681,378.453H2.457v-6.224a1.228,1.228,0,1,0-2.457,0v7.453a1.228,1.228,0,0,0,1.228,1.228H8.681a1.228,1.228,0,1,0,0-2.457Z" transform="translate(0 -322.254)" fill="#fff"/>
      <path id="Trazado_611015" data-name="Trazado 611015" d="M1.228,29.91a1.228,1.228,0,0,0,1.228-1.228V22.457H8.681a1.228,1.228,0,1,0,0-2.457H1.228A1.228,1.228,0,0,0,0,21.228v7.453A1.228,1.228,0,0,0,1.228,29.91Z" fill="#fff"/>
      <path id="Trazado_611016" data-name="Trazado 611016" d="M398.763,20h-7.535a1.228,1.228,0,1,0,0,2.457h6.306v6.224a1.228,1.228,0,0,0,2.457,0V21.228A1.229,1.229,0,0,0,398.763,20Z" transform="translate(-358.06)" fill="#fff"/>
    </g>
    <path id="dolar" d="M17.455,21.654A3.342,3.342,0,0,1,14.548,25.1a1.075,1.075,0,0,1-2.147.026h-1a1.086,1.086,0,1,1,0-2.172h2.918c.521,0,.962-.6.962-1.3s-.44-1.3-.962-1.3h-1.7A3.321,3.321,0,0,1,9.49,16.877a3.357,3.357,0,0,1,2.915-3.5,1.068,1.068,0,0,1,2.129-.023h1.008a1.086,1.086,0,1,1,0,2.172H13.5c-.009,0-.016,0-.025,0s-.016,0-.025,0h-.824c-.521,0-.962.6-.962,1.3,0,.754.44,1.351.962,1.351h1.7a3.322,3.322,0,0,1,3.134,3.475ZM30.487,9.128a3.961,3.961,0,0,1-1.266,2.9,3.961,3.961,0,0,1,1.266,2.9v2.9a3.961,3.961,0,0,1-1.266,2.9,3.961,3.961,0,0,1,1.266,2.9v2.9a3.985,3.985,0,0,1-3.982,3.982H14.921a2.832,2.832,0,0,1-.482-.049c-.319.028-.64.049-.966.049A11.217,11.217,0,0,1,10.938,8.342V6.232A3.985,3.985,0,0,1,14.921,2.25H26.505a3.985,3.985,0,0,1,3.982,3.982ZM22.523,19.265a9.023,9.023,0,0,0-2.735-6.471l0,0a9.047,9.047,0,1,0-6.312,15.525c.279,0,.556-.017.828-.042.025,0,.048-.014.072-.014s.036.006.052.006A9.063,9.063,0,0,0,22.523,19.265Zm5.792,4.344a1.813,1.813,0,0,0-1.81-1.81H24.4a11.233,11.233,0,0,1-4.315,6.516h6.425a1.813,1.813,0,0,0,1.81-1.81Zm0-8.688a1.813,1.813,0,0,0-1.81-1.81H22.846A11.149,11.149,0,0,1,24.7,19.265c0,.122-.014.24-.019.362h1.829a1.813,1.813,0,0,0,1.81-1.81Zm0-8.688a1.813,1.813,0,0,0-1.81-1.81H14.921a1.813,1.813,0,0,0-1.81,1.81V8.061c.122,0,.24-.019.362-.019a11.163,11.163,0,0,1,7.5,2.9h5.535a1.813,1.813,0,0,0,1.81-1.81Z" transform="translate(1247.822 27874.627)" fill="#fff"/>
  </g>
</svg>
