<svg xmlns="http://www.w3.org/2000/svg" width="125" height="125" viewBox="0 0 125 125">
  <g id="Grupo_1075176" data-name="Grupo 1075176" transform="translate(5119 -18905.715)">
    <g id="Grupo_1074317" data-name="Grupo 1074317" transform="translate(-5505 16759.715)">
      <path id="Trazado_608385" data-name="Trazado 608385" d="M62.5,0A62.5,62.5,0,1,1,0,62.5,62.5,62.5,0,0,1,62.5,0Z" transform="translate(386 2146)" fill="#fff"/>
    </g>
    <g id="Grupo_1074320" data-name="Grupo 1074320" transform="translate(-5477 16787.82)">
      <g id="Trazado_608385-2" data-name="Trazado 608385" transform="translate(386 2146)" fill="#6debff">
        <path d="M 34.3955078125 67.791015625 C 29.8867073059082 67.791015625 25.51329803466797 66.90818786621094 21.39677810668945 65.16704559326172 C 17.42018699645996 63.48508834838867 13.84862804412842 61.07700729370117 10.78131771087646 58.00969696044922 C 7.71400785446167 54.94238662719727 5.305927753448486 51.37082672119141 3.623967885971069 47.39423751831055 C 1.882827758789062 43.27771759033203 0.9999977946281433 38.9043083190918 0.9999977946281433 34.3955078125 C 0.9999977946281433 29.8867073059082 1.882827758789062 25.51329803466797 3.623967885971069 21.39677810668945 C 5.305927753448486 17.42018699645996 7.71400785446167 13.84862804412842 10.78131771087646 10.78131771087646 C 13.84862804412842 7.71400785446167 17.42018699645996 5.305927753448486 21.39677810668945 3.623967885971069 C 25.51329803466797 1.882827758789062 29.8867073059082 0.9999977946281433 34.3955078125 0.9999977946281433 C 38.9043083190918 0.9999977946281433 43.27771759033203 1.882827758789062 47.39423751831055 3.623967885971069 C 51.37082672119141 5.305927753448486 54.94238662719727 7.71400785446167 58.00969696044922 10.78131771087646 C 61.07700729370117 13.84862804412842 63.48508834838867 17.42018699645996 65.16704559326172 21.39677810668945 C 66.90818786621094 25.51329803466797 67.791015625 29.8867073059082 67.791015625 34.3955078125 C 67.791015625 38.9043083190918 66.90818786621094 43.27771759033203 65.16704559326172 47.39423751831055 C 63.48508834838867 51.37082672119141 61.07700729370117 54.94238662719727 58.00969696044922 58.00969696044922 C 54.94238662719727 61.07700729370117 51.37082672119141 63.48508834838867 47.39423751831055 65.16704559326172 C 43.27771759033203 66.90818786621094 38.9043083190918 67.791015625 34.3955078125 67.791015625 Z" stroke="none"/>
        <path d="M 34.3955078125 2 C 30.02126312255859 2 25.7789192199707 2.856254577636719 21.78633117675781 4.544975280761719 C 17.92892837524414 6.176517486572266 14.46421813964844 8.512630462646484 11.48841857910156 11.48841857910156 C 8.512630462646484 14.46421813964844 6.176517486572266 17.92892837524414 4.544975280761719 21.78633117675781 C 2.856254577636719 25.7789192199707 2 30.02126312255859 2 34.3955078125 C 2 38.76975250244141 2.856254577636719 43.0120964050293 4.544975280761719 47.00468444824219 C 6.176517486572266 50.86208343505859 8.512630462646484 54.32679748535156 11.48841857910156 57.30259704589844 C 14.46421813964844 60.27838516235352 17.92892837524414 62.61449813842773 21.78633117675781 64.24604034423828 C 25.7789192199707 65.93476104736328 30.02126312255859 66.791015625 34.3955078125 66.791015625 C 38.76975250244141 66.791015625 43.0120964050293 65.93476104736328 47.00468444824219 64.24604034423828 C 50.86208343505859 62.61449813842773 54.32679748535156 60.27838516235352 57.30259704589844 57.30259704589844 C 60.27838516235352 54.32679748535156 62.61449813842773 50.86208343505859 64.24604034423828 47.00468444824219 C 65.93476104736328 43.0120964050293 66.791015625 38.76975250244141 66.791015625 34.3955078125 C 66.791015625 30.02126312255859 65.93476104736328 25.7789192199707 64.24604034423828 21.78633117675781 C 62.61449813842773 17.92892837524414 60.27838516235352 14.46421813964844 57.30259704589844 11.48841857910156 C 54.32679748535156 8.512630462646484 50.86208343505859 6.176517486572266 47.00468444824219 4.544975280761719 C 43.0120964050293 2.856254577636719 38.76975250244141 2 34.3955078125 2 M 34.3955078125 0 C 53.39161682128906 0 68.791015625 15.39939498901367 68.791015625 34.3955078125 C 68.791015625 53.39161682128906 53.39161682128906 68.791015625 34.3955078125 68.791015625 C 15.39939498901367 68.791015625 0 53.39161682128906 0 34.3955078125 C 0 15.39939498901367 15.39939498901367 0 34.3955078125 0 Z" stroke="none" fill="#03386e"/>
      </g>
    </g>
  </g>
</svg>
