<svg xmlns="http://www.w3.org/2000/svg" width="125" height="125" viewBox="0 0 125 125">
  <g id="Grupo_1075175" data-name="Grupo 1075175" transform="translate(5470 -18905.715)">
    <g id="Grupo_1074316" data-name="Grupo 1074316" transform="translate(-5856 16759.715)">
      <path id="Trazado_608385" data-name="Trazado 608385" d="M62.5,0A62.5,62.5,0,1,1,0,62.5,62.5,62.5,0,0,1,62.5,0Z" transform="translate(386 2146)" fill="#fff"/>
    </g>
    <g id="Trazado_612116" data-name="Trazado 612116" transform="translate(-5455 18946.555)" fill="#6debff">
      <path d="M 30.00201416015625 54.58544158935547 C 29.81029319763184 54.58544158935547 29.61668014526367 54.58496475219727 29.42090606689453 54.58400344848633 C 24.73855972290039 54.56106948852539 20.32596015930176 53.80764389038086 16.30566596984863 52.34464263916016 C 13.09305286407471 51.17556381225586 10.11941337585449 49.55228424072266 7.467360019683838 47.5198974609375 C 3.58067798614502 44.54136276245117 1.519487619400024 41.53332138061523 1 40.7174072265625 L 1 1.000003337860107 L 95 1.000003337860107 L 95 24.95829582214355 L 95 39.70768737792969 C 93.11870574951172 39.27092361450195 89.30471801757812 38.56660461425781 84.27261352539062 38.56660461425781 C 77.37442779541016 38.56660461425781 70.6903076171875 39.87444305419922 64.40592956542969 42.45380401611328 C 58.60013198852539 44.83673477172852 55.00196075439453 47.10268402099609 52.11078643798828 48.92341613769531 C 49.33085250854492 50.6740837097168 47.13509368896484 52.05686950683594 43.97118759155273 53.03443145751953 C 40.49950790405273 54.10709762573242 36.19125366210938 54.58544158935547 30.00201416015625 54.58544158935547 Z" stroke="none"/>
      <path d="M 2 1.999992370605469 L 2 40.41997146606445 C 2.676025390625 41.43093490600586 4.6556396484375 44.12210845947266 8.151710510253906 46.78427886962891 C 10.72037506103516 48.74024963378906 13.59914398193359 50.3022346496582 16.70806884765625 51.42684936523438 C 20.603515625 52.83597946166992 24.88238525390625 53.56174850463867 29.42585754394531 53.58400726318359 C 29.61995697021484 53.58496475219727 29.81197357177734 53.58542251586914 30.00205993652344 53.58542251586914 C 36.00467300415039 53.58542251586914 40.34967041015625 53.10673522949219 43.6760139465332 52.07899475097656 C 46.71387100219727 51.14037704467773 48.86035537719727 49.78861999511719 51.57791519165039 48.07722091674805 C 54.50168609619141 46.2359619140625 58.14043045043945 43.94446563720703 64.0262451171875 41.52869415283203 C 70.43170166015625 38.89963531494141 77.24357604980469 37.56659317016602 84.27262878417969 37.56659317016602 C 88.46845245361328 37.56659317016602 91.84872436523438 38.05058670043945 94 38.47305297851562 L 94 1.999992370605469 L 2 1.999992370605469 M 0 -7.62939453125e-06 L 96 -7.62939453125e-06 L 96 40.99999237060547 C 96 40.99999618530273 81.47411346435547 36.529296875 64.78564453125 43.37890625 C 48.09716796875 50.22852325439453 50.55533218383789 55.68749237060547 29.416015625 55.58397674560547 C 8.275871276855469 55.48046493530273 0 40.99999237060547 0 40.99999237060547 L 0 -7.62939453125e-06 Z" stroke="none" fill="#03386e"/>
    </g>
  </g>
</svg>
